%TF.GenerationSoftware,KiCad,Pcbnew,10.0.5*%
%TF.CreationDate,2026-08-17T12:04:28-04:00*%
%TF.ProjectId,BU-22-Eye-Motherboard-Quote,42552d32-322d-4457-9965-2d4d6f746865,rev?*%
%TF.SameCoordinates,Original*%
%TF.FileFunction,Legend,Top*%
%TF.FilePolarity,Positive*%
%FSLAX46Y46*%
G04 Gerber Fmt 4.6, Leading zero omitted, Abs format (unit mm)*
G04 Created by KiCad (PCBNEW 10.0.5) date 2026-08-17 12:04:28*
%MOMM*%
%LPD*%
G01*
G04 APERTURE LIST*
%ADD10C,0.187500*%
%ADD11C,0.300000*%
%ADD12C,3.200000*%
G04 APERTURE END LIST*
D10*
X63726189Y-44068523D02*
X63011904Y-44068523D01*
X63369047Y-44068523D02*
X63369047Y-42818523D01*
X63369047Y-42818523D02*
X63249999Y-42997095D01*
X63249999Y-42997095D02*
X63130951Y-43116142D01*
X63130951Y-43116142D02*
X63011904Y-43175666D01*
X64142856Y-42818523D02*
X64976189Y-42818523D01*
X64976189Y-42818523D02*
X64440475Y-44068523D01*
X65988094Y-43235190D02*
X65988094Y-44068523D01*
X65690475Y-42759000D02*
X65392856Y-43651857D01*
X65392856Y-43651857D02*
X66166665Y-43651857D01*
X67476189Y-44068523D02*
X68130951Y-43235190D01*
X67476189Y-43235190D02*
X68130951Y-44068523D01*
X69738094Y-43354238D02*
X69619046Y-43294714D01*
X69619046Y-43294714D02*
X69559523Y-43235190D01*
X69559523Y-43235190D02*
X69499999Y-43116142D01*
X69499999Y-43116142D02*
X69499999Y-43056619D01*
X69499999Y-43056619D02*
X69559523Y-42937571D01*
X69559523Y-42937571D02*
X69619046Y-42878047D01*
X69619046Y-42878047D02*
X69738094Y-42818523D01*
X69738094Y-42818523D02*
X69976189Y-42818523D01*
X69976189Y-42818523D02*
X70095237Y-42878047D01*
X70095237Y-42878047D02*
X70154761Y-42937571D01*
X70154761Y-42937571D02*
X70214284Y-43056619D01*
X70214284Y-43056619D02*
X70214284Y-43116142D01*
X70214284Y-43116142D02*
X70154761Y-43235190D01*
X70154761Y-43235190D02*
X70095237Y-43294714D01*
X70095237Y-43294714D02*
X69976189Y-43354238D01*
X69976189Y-43354238D02*
X69738094Y-43354238D01*
X69738094Y-43354238D02*
X69619046Y-43413761D01*
X69619046Y-43413761D02*
X69559523Y-43473285D01*
X69559523Y-43473285D02*
X69499999Y-43592333D01*
X69499999Y-43592333D02*
X69499999Y-43830428D01*
X69499999Y-43830428D02*
X69559523Y-43949476D01*
X69559523Y-43949476D02*
X69619046Y-44009000D01*
X69619046Y-44009000D02*
X69738094Y-44068523D01*
X69738094Y-44068523D02*
X69976189Y-44068523D01*
X69976189Y-44068523D02*
X70095237Y-44009000D01*
X70095237Y-44009000D02*
X70154761Y-43949476D01*
X70154761Y-43949476D02*
X70214284Y-43830428D01*
X70214284Y-43830428D02*
X70214284Y-43592333D01*
X70214284Y-43592333D02*
X70154761Y-43473285D01*
X70154761Y-43473285D02*
X70095237Y-43413761D01*
X70095237Y-43413761D02*
X69976189Y-43354238D01*
X70630951Y-42818523D02*
X71404760Y-42818523D01*
X71404760Y-42818523D02*
X70988094Y-43294714D01*
X70988094Y-43294714D02*
X71166665Y-43294714D01*
X71166665Y-43294714D02*
X71285713Y-43354238D01*
X71285713Y-43354238D02*
X71345237Y-43413761D01*
X71345237Y-43413761D02*
X71404760Y-43532809D01*
X71404760Y-43532809D02*
X71404760Y-43830428D01*
X71404760Y-43830428D02*
X71345237Y-43949476D01*
X71345237Y-43949476D02*
X71285713Y-44009000D01*
X71285713Y-44009000D02*
X71166665Y-44068523D01*
X71166665Y-44068523D02*
X70809522Y-44068523D01*
X70809522Y-44068523D02*
X70690475Y-44009000D01*
X70690475Y-44009000D02*
X70630951Y-43949476D01*
X72892856Y-44068523D02*
X72892856Y-43235190D01*
X72892856Y-43354238D02*
X72952379Y-43294714D01*
X72952379Y-43294714D02*
X73071427Y-43235190D01*
X73071427Y-43235190D02*
X73249998Y-43235190D01*
X73249998Y-43235190D02*
X73369046Y-43294714D01*
X73369046Y-43294714D02*
X73428570Y-43413761D01*
X73428570Y-43413761D02*
X73428570Y-44068523D01*
X73428570Y-43413761D02*
X73488094Y-43294714D01*
X73488094Y-43294714D02*
X73607141Y-43235190D01*
X73607141Y-43235190D02*
X73785713Y-43235190D01*
X73785713Y-43235190D02*
X73904760Y-43294714D01*
X73904760Y-43294714D02*
X73964284Y-43413761D01*
X73964284Y-43413761D02*
X73964284Y-44068523D01*
X74559523Y-44068523D02*
X74559523Y-43235190D01*
X74559523Y-43354238D02*
X74619046Y-43294714D01*
X74619046Y-43294714D02*
X74738094Y-43235190D01*
X74738094Y-43235190D02*
X74916665Y-43235190D01*
X74916665Y-43235190D02*
X75035713Y-43294714D01*
X75035713Y-43294714D02*
X75095237Y-43413761D01*
X75095237Y-43413761D02*
X75095237Y-44068523D01*
X75095237Y-43413761D02*
X75154761Y-43294714D01*
X75154761Y-43294714D02*
X75273808Y-43235190D01*
X75273808Y-43235190D02*
X75452380Y-43235190D01*
X75452380Y-43235190D02*
X75571427Y-43294714D01*
X75571427Y-43294714D02*
X75630951Y-43413761D01*
X75630951Y-43413761D02*
X75630951Y-44068523D01*
X78488094Y-43473285D02*
X78488094Y-43711380D01*
X78547618Y-43711380D02*
X78547618Y-43473285D01*
X78607142Y-43413761D02*
X78607142Y-43770904D01*
X78666666Y-43711380D02*
X78666666Y-43473285D01*
X78726190Y-43473285D02*
X78726190Y-43711380D01*
X78488094Y-43651857D02*
X78607142Y-43770904D01*
X78607142Y-43770904D02*
X78726190Y-43651857D01*
X78488094Y-43532809D02*
X78607142Y-43413761D01*
X78607142Y-43413761D02*
X78726190Y-43532809D01*
X78488094Y-43473285D02*
X78607142Y-43413761D01*
X78607142Y-43413761D02*
X78726190Y-43473285D01*
X78726190Y-43473285D02*
X78785713Y-43592333D01*
X78785713Y-43592333D02*
X78726190Y-43711380D01*
X78726190Y-43711380D02*
X78607142Y-43770904D01*
X78607142Y-43770904D02*
X78488094Y-43711380D01*
X78488094Y-43711380D02*
X78428571Y-43592333D01*
X78428571Y-43592333D02*
X78488094Y-43473285D01*
X82297618Y-44068523D02*
X81880952Y-43473285D01*
X81583333Y-44068523D02*
X81583333Y-42818523D01*
X81583333Y-42818523D02*
X82059523Y-42818523D01*
X82059523Y-42818523D02*
X82178571Y-42878047D01*
X82178571Y-42878047D02*
X82238094Y-42937571D01*
X82238094Y-42937571D02*
X82297618Y-43056619D01*
X82297618Y-43056619D02*
X82297618Y-43235190D01*
X82297618Y-43235190D02*
X82238094Y-43354238D01*
X82238094Y-43354238D02*
X82178571Y-43413761D01*
X82178571Y-43413761D02*
X82059523Y-43473285D01*
X82059523Y-43473285D02*
X81583333Y-43473285D01*
X82714285Y-42818523D02*
X83488094Y-42818523D01*
X83488094Y-42818523D02*
X83071428Y-43294714D01*
X83071428Y-43294714D02*
X83249999Y-43294714D01*
X83249999Y-43294714D02*
X83369047Y-43354238D01*
X83369047Y-43354238D02*
X83428571Y-43413761D01*
X83428571Y-43413761D02*
X83488094Y-43532809D01*
X83488094Y-43532809D02*
X83488094Y-43830428D01*
X83488094Y-43830428D02*
X83428571Y-43949476D01*
X83428571Y-43949476D02*
X83369047Y-44009000D01*
X83369047Y-44009000D02*
X83249999Y-44068523D01*
X83249999Y-44068523D02*
X82892856Y-44068523D01*
X82892856Y-44068523D02*
X82773809Y-44009000D01*
X82773809Y-44009000D02*
X82714285Y-43949476D01*
X84261904Y-42818523D02*
X84380951Y-42818523D01*
X84380951Y-42818523D02*
X84499999Y-42878047D01*
X84499999Y-42878047D02*
X84559523Y-42937571D01*
X84559523Y-42937571D02*
X84619047Y-43056619D01*
X84619047Y-43056619D02*
X84678570Y-43294714D01*
X84678570Y-43294714D02*
X84678570Y-43592333D01*
X84678570Y-43592333D02*
X84619047Y-43830428D01*
X84619047Y-43830428D02*
X84559523Y-43949476D01*
X84559523Y-43949476D02*
X84499999Y-44009000D01*
X84499999Y-44009000D02*
X84380951Y-44068523D01*
X84380951Y-44068523D02*
X84261904Y-44068523D01*
X84261904Y-44068523D02*
X84142856Y-44009000D01*
X84142856Y-44009000D02*
X84083332Y-43949476D01*
X84083332Y-43949476D02*
X84023809Y-43830428D01*
X84023809Y-43830428D02*
X83964285Y-43592333D01*
X83964285Y-43592333D02*
X83964285Y-43294714D01*
X83964285Y-43294714D02*
X84023809Y-43056619D01*
X84023809Y-43056619D02*
X84083332Y-42937571D01*
X84083332Y-42937571D02*
X84142856Y-42878047D01*
X84142856Y-42878047D02*
X84261904Y-42818523D01*
X87476189Y-43473285D02*
X87476189Y-43711380D01*
X87535713Y-43711380D02*
X87535713Y-43473285D01*
X87595237Y-43413761D02*
X87595237Y-43770904D01*
X87654761Y-43711380D02*
X87654761Y-43473285D01*
X87714285Y-43473285D02*
X87714285Y-43711380D01*
X87476189Y-43651857D02*
X87595237Y-43770904D01*
X87595237Y-43770904D02*
X87714285Y-43651857D01*
X87476189Y-43532809D02*
X87595237Y-43413761D01*
X87595237Y-43413761D02*
X87714285Y-43532809D01*
X87476189Y-43473285D02*
X87595237Y-43413761D01*
X87595237Y-43413761D02*
X87714285Y-43473285D01*
X87714285Y-43473285D02*
X87773808Y-43592333D01*
X87773808Y-43592333D02*
X87714285Y-43711380D01*
X87714285Y-43711380D02*
X87595237Y-43770904D01*
X87595237Y-43770904D02*
X87476189Y-43711380D01*
X87476189Y-43711380D02*
X87416666Y-43592333D01*
X87416666Y-43592333D02*
X87476189Y-43473285D01*
X90392856Y-42818523D02*
X90809523Y-44068523D01*
X90809523Y-44068523D02*
X91226189Y-42818523D01*
X91642857Y-43413761D02*
X92059523Y-43413761D01*
X92238095Y-44068523D02*
X91642857Y-44068523D01*
X91642857Y-44068523D02*
X91642857Y-42818523D01*
X91642857Y-42818523D02*
X92238095Y-42818523D01*
X93488094Y-44068523D02*
X93071428Y-43473285D01*
X92773809Y-44068523D02*
X92773809Y-42818523D01*
X92773809Y-42818523D02*
X93249999Y-42818523D01*
X93249999Y-42818523D02*
X93369047Y-42878047D01*
X93369047Y-42878047D02*
X93428570Y-42937571D01*
X93428570Y-42937571D02*
X93488094Y-43056619D01*
X93488094Y-43056619D02*
X93488094Y-43235190D01*
X93488094Y-43235190D02*
X93428570Y-43354238D01*
X93428570Y-43354238D02*
X93369047Y-43413761D01*
X93369047Y-43413761D02*
X93249999Y-43473285D01*
X93249999Y-43473285D02*
X92773809Y-43473285D01*
X94023809Y-44068523D02*
X94023809Y-42818523D01*
X95035713Y-43413761D02*
X94619047Y-43413761D01*
X94619047Y-44068523D02*
X94619047Y-42818523D01*
X94619047Y-42818523D02*
X95214285Y-42818523D01*
X95928571Y-43473285D02*
X95928571Y-44068523D01*
X95511904Y-42818523D02*
X95928571Y-43473285D01*
X95928571Y-43473285D02*
X96345237Y-42818523D01*
X97654762Y-43711380D02*
X98250000Y-43711380D01*
X97535714Y-44068523D02*
X97952381Y-42818523D01*
X97952381Y-42818523D02*
X98369047Y-44068523D01*
X99440476Y-42878047D02*
X99321429Y-42818523D01*
X99321429Y-42818523D02*
X99142857Y-42818523D01*
X99142857Y-42818523D02*
X98964286Y-42878047D01*
X98964286Y-42878047D02*
X98845238Y-42997095D01*
X98845238Y-42997095D02*
X98785715Y-43116142D01*
X98785715Y-43116142D02*
X98726191Y-43354238D01*
X98726191Y-43354238D02*
X98726191Y-43532809D01*
X98726191Y-43532809D02*
X98785715Y-43770904D01*
X98785715Y-43770904D02*
X98845238Y-43889952D01*
X98845238Y-43889952D02*
X98964286Y-44009000D01*
X98964286Y-44009000D02*
X99142857Y-44068523D01*
X99142857Y-44068523D02*
X99261905Y-44068523D01*
X99261905Y-44068523D02*
X99440476Y-44009000D01*
X99440476Y-44009000D02*
X99500000Y-43949476D01*
X99500000Y-43949476D02*
X99500000Y-43532809D01*
X99500000Y-43532809D02*
X99261905Y-43532809D01*
X99976191Y-43711380D02*
X100571429Y-43711380D01*
X99857143Y-44068523D02*
X100273810Y-42818523D01*
X100273810Y-42818523D02*
X100690476Y-44068523D01*
X101107144Y-44068523D02*
X101107144Y-42818523D01*
X101702382Y-44068523D02*
X101702382Y-42818523D01*
X101702382Y-42818523D02*
X102416667Y-44068523D01*
X102416667Y-44068523D02*
X102416667Y-42818523D01*
X102952382Y-44009000D02*
X103130953Y-44068523D01*
X103130953Y-44068523D02*
X103428572Y-44068523D01*
X103428572Y-44068523D02*
X103547620Y-44009000D01*
X103547620Y-44009000D02*
X103607144Y-43949476D01*
X103607144Y-43949476D02*
X103666667Y-43830428D01*
X103666667Y-43830428D02*
X103666667Y-43711380D01*
X103666667Y-43711380D02*
X103607144Y-43592333D01*
X103607144Y-43592333D02*
X103547620Y-43532809D01*
X103547620Y-43532809D02*
X103428572Y-43473285D01*
X103428572Y-43473285D02*
X103190477Y-43413761D01*
X103190477Y-43413761D02*
X103071429Y-43354238D01*
X103071429Y-43354238D02*
X103011906Y-43294714D01*
X103011906Y-43294714D02*
X102952382Y-43175666D01*
X102952382Y-43175666D02*
X102952382Y-43056619D01*
X102952382Y-43056619D02*
X103011906Y-42937571D01*
X103011906Y-42937571D02*
X103071429Y-42878047D01*
X103071429Y-42878047D02*
X103190477Y-42818523D01*
X103190477Y-42818523D02*
X103488096Y-42818523D01*
X103488096Y-42818523D02*
X103666667Y-42878047D01*
X104023810Y-42818523D02*
X104738096Y-42818523D01*
X104380953Y-44068523D02*
X104380953Y-42818523D01*
X105928572Y-42818523D02*
X106345239Y-44068523D01*
X106345239Y-44068523D02*
X106761905Y-42818523D01*
X107178573Y-44068523D02*
X107178573Y-42818523D01*
X107714287Y-44009000D02*
X107892858Y-44068523D01*
X107892858Y-44068523D02*
X108190477Y-44068523D01*
X108190477Y-44068523D02*
X108309525Y-44009000D01*
X108309525Y-44009000D02*
X108369049Y-43949476D01*
X108369049Y-43949476D02*
X108428572Y-43830428D01*
X108428572Y-43830428D02*
X108428572Y-43711380D01*
X108428572Y-43711380D02*
X108369049Y-43592333D01*
X108369049Y-43592333D02*
X108309525Y-43532809D01*
X108309525Y-43532809D02*
X108190477Y-43473285D01*
X108190477Y-43473285D02*
X107952382Y-43413761D01*
X107952382Y-43413761D02*
X107833334Y-43354238D01*
X107833334Y-43354238D02*
X107773811Y-43294714D01*
X107773811Y-43294714D02*
X107714287Y-43175666D01*
X107714287Y-43175666D02*
X107714287Y-43056619D01*
X107714287Y-43056619D02*
X107773811Y-42937571D01*
X107773811Y-42937571D02*
X107833334Y-42878047D01*
X107833334Y-42878047D02*
X107952382Y-42818523D01*
X107952382Y-42818523D02*
X108250001Y-42818523D01*
X108250001Y-42818523D02*
X108428572Y-42878047D01*
X109202382Y-42818523D02*
X109440477Y-42818523D01*
X109440477Y-42818523D02*
X109559525Y-42878047D01*
X109559525Y-42878047D02*
X109678572Y-42997095D01*
X109678572Y-42997095D02*
X109738096Y-43235190D01*
X109738096Y-43235190D02*
X109738096Y-43651857D01*
X109738096Y-43651857D02*
X109678572Y-43889952D01*
X109678572Y-43889952D02*
X109559525Y-44009000D01*
X109559525Y-44009000D02*
X109440477Y-44068523D01*
X109440477Y-44068523D02*
X109202382Y-44068523D01*
X109202382Y-44068523D02*
X109083334Y-44009000D01*
X109083334Y-44009000D02*
X108964287Y-43889952D01*
X108964287Y-43889952D02*
X108904763Y-43651857D01*
X108904763Y-43651857D02*
X108904763Y-43235190D01*
X108904763Y-43235190D02*
X108964287Y-42997095D01*
X108964287Y-42997095D02*
X109083334Y-42878047D01*
X109083334Y-42878047D02*
X109202382Y-42818523D01*
X110988096Y-44068523D02*
X110571430Y-43473285D01*
X110273811Y-44068523D02*
X110273811Y-42818523D01*
X110273811Y-42818523D02*
X110750001Y-42818523D01*
X110750001Y-42818523D02*
X110869049Y-42878047D01*
X110869049Y-42878047D02*
X110928572Y-42937571D01*
X110928572Y-42937571D02*
X110988096Y-43056619D01*
X110988096Y-43056619D02*
X110988096Y-43235190D01*
X110988096Y-43235190D02*
X110928572Y-43354238D01*
X110928572Y-43354238D02*
X110869049Y-43413761D01*
X110869049Y-43413761D02*
X110750001Y-43473285D01*
X110750001Y-43473285D02*
X110273811Y-43473285D01*
D11*
X55952379Y-39362019D02*
X56238093Y-39457257D01*
X56238093Y-39457257D02*
X56333331Y-39552495D01*
X56333331Y-39552495D02*
X56428569Y-39742971D01*
X56428569Y-39742971D02*
X56428569Y-40028685D01*
X56428569Y-40028685D02*
X56333331Y-40219161D01*
X56333331Y-40219161D02*
X56238093Y-40314400D01*
X56238093Y-40314400D02*
X56047617Y-40409638D01*
X56047617Y-40409638D02*
X55285712Y-40409638D01*
X55285712Y-40409638D02*
X55285712Y-38409638D01*
X55285712Y-38409638D02*
X55952379Y-38409638D01*
X55952379Y-38409638D02*
X56142855Y-38504876D01*
X56142855Y-38504876D02*
X56238093Y-38600114D01*
X56238093Y-38600114D02*
X56333331Y-38790590D01*
X56333331Y-38790590D02*
X56333331Y-38981066D01*
X56333331Y-38981066D02*
X56238093Y-39171542D01*
X56238093Y-39171542D02*
X56142855Y-39266780D01*
X56142855Y-39266780D02*
X55952379Y-39362019D01*
X55952379Y-39362019D02*
X55285712Y-39362019D01*
X57285712Y-38409638D02*
X57285712Y-40028685D01*
X57285712Y-40028685D02*
X57380950Y-40219161D01*
X57380950Y-40219161D02*
X57476188Y-40314400D01*
X57476188Y-40314400D02*
X57666664Y-40409638D01*
X57666664Y-40409638D02*
X58047617Y-40409638D01*
X58047617Y-40409638D02*
X58238093Y-40314400D01*
X58238093Y-40314400D02*
X58333331Y-40219161D01*
X58333331Y-40219161D02*
X58428569Y-40028685D01*
X58428569Y-40028685D02*
X58428569Y-38409638D01*
X59380950Y-39647733D02*
X60904760Y-39647733D01*
X61761902Y-38600114D02*
X61857140Y-38504876D01*
X61857140Y-38504876D02*
X62047616Y-38409638D01*
X62047616Y-38409638D02*
X62523807Y-38409638D01*
X62523807Y-38409638D02*
X62714283Y-38504876D01*
X62714283Y-38504876D02*
X62809521Y-38600114D01*
X62809521Y-38600114D02*
X62904759Y-38790590D01*
X62904759Y-38790590D02*
X62904759Y-38981066D01*
X62904759Y-38981066D02*
X62809521Y-39266780D01*
X62809521Y-39266780D02*
X61666664Y-40409638D01*
X61666664Y-40409638D02*
X62904759Y-40409638D01*
X63666664Y-38600114D02*
X63761902Y-38504876D01*
X63761902Y-38504876D02*
X63952378Y-38409638D01*
X63952378Y-38409638D02*
X64428569Y-38409638D01*
X64428569Y-38409638D02*
X64619045Y-38504876D01*
X64619045Y-38504876D02*
X64714283Y-38600114D01*
X64714283Y-38600114D02*
X64809521Y-38790590D01*
X64809521Y-38790590D02*
X64809521Y-38981066D01*
X64809521Y-38981066D02*
X64714283Y-39266780D01*
X64714283Y-39266780D02*
X63571426Y-40409638D01*
X63571426Y-40409638D02*
X64809521Y-40409638D01*
X67190474Y-39362019D02*
X67857141Y-39362019D01*
X68142855Y-40409638D02*
X67190474Y-40409638D01*
X67190474Y-40409638D02*
X67190474Y-38409638D01*
X67190474Y-38409638D02*
X68142855Y-38409638D01*
X69380950Y-39457257D02*
X69380950Y-40409638D01*
X68714284Y-38409638D02*
X69380950Y-39457257D01*
X69380950Y-39457257D02*
X70047617Y-38409638D01*
X70714284Y-39362019D02*
X71380951Y-39362019D01*
X71666665Y-40409638D02*
X70714284Y-40409638D01*
X70714284Y-40409638D02*
X70714284Y-38409638D01*
X70714284Y-38409638D02*
X71666665Y-38409638D01*
X74047618Y-40409638D02*
X74047618Y-38409638D01*
X74047618Y-38409638D02*
X74714285Y-39838209D01*
X74714285Y-39838209D02*
X75380951Y-38409638D01*
X75380951Y-38409638D02*
X75380951Y-40409638D01*
X76714284Y-38409638D02*
X77095237Y-38409638D01*
X77095237Y-38409638D02*
X77285713Y-38504876D01*
X77285713Y-38504876D02*
X77476189Y-38695352D01*
X77476189Y-38695352D02*
X77571427Y-39076304D01*
X77571427Y-39076304D02*
X77571427Y-39742971D01*
X77571427Y-39742971D02*
X77476189Y-40123923D01*
X77476189Y-40123923D02*
X77285713Y-40314400D01*
X77285713Y-40314400D02*
X77095237Y-40409638D01*
X77095237Y-40409638D02*
X76714284Y-40409638D01*
X76714284Y-40409638D02*
X76523808Y-40314400D01*
X76523808Y-40314400D02*
X76333332Y-40123923D01*
X76333332Y-40123923D02*
X76238094Y-39742971D01*
X76238094Y-39742971D02*
X76238094Y-39076304D01*
X76238094Y-39076304D02*
X76333332Y-38695352D01*
X76333332Y-38695352D02*
X76523808Y-38504876D01*
X76523808Y-38504876D02*
X76714284Y-38409638D01*
X78142856Y-38409638D02*
X79285713Y-38409638D01*
X78714284Y-40409638D02*
X78714284Y-38409638D01*
X79952380Y-40409638D02*
X79952380Y-38409638D01*
X79952380Y-39362019D02*
X81095237Y-39362019D01*
X81095237Y-40409638D02*
X81095237Y-38409638D01*
X82047618Y-39362019D02*
X82714285Y-39362019D01*
X82999999Y-40409638D02*
X82047618Y-40409638D01*
X82047618Y-40409638D02*
X82047618Y-38409638D01*
X82047618Y-38409638D02*
X82999999Y-38409638D01*
X84999999Y-40409638D02*
X84333332Y-39457257D01*
X83857142Y-40409638D02*
X83857142Y-38409638D01*
X83857142Y-38409638D02*
X84619047Y-38409638D01*
X84619047Y-38409638D02*
X84809523Y-38504876D01*
X84809523Y-38504876D02*
X84904761Y-38600114D01*
X84904761Y-38600114D02*
X84999999Y-38790590D01*
X84999999Y-38790590D02*
X84999999Y-39076304D01*
X84999999Y-39076304D02*
X84904761Y-39266780D01*
X84904761Y-39266780D02*
X84809523Y-39362019D01*
X84809523Y-39362019D02*
X84619047Y-39457257D01*
X84619047Y-39457257D02*
X83857142Y-39457257D01*
X86523809Y-39362019D02*
X86809523Y-39457257D01*
X86809523Y-39457257D02*
X86904761Y-39552495D01*
X86904761Y-39552495D02*
X86999999Y-39742971D01*
X86999999Y-39742971D02*
X86999999Y-40028685D01*
X86999999Y-40028685D02*
X86904761Y-40219161D01*
X86904761Y-40219161D02*
X86809523Y-40314400D01*
X86809523Y-40314400D02*
X86619047Y-40409638D01*
X86619047Y-40409638D02*
X85857142Y-40409638D01*
X85857142Y-40409638D02*
X85857142Y-38409638D01*
X85857142Y-38409638D02*
X86523809Y-38409638D01*
X86523809Y-38409638D02*
X86714285Y-38504876D01*
X86714285Y-38504876D02*
X86809523Y-38600114D01*
X86809523Y-38600114D02*
X86904761Y-38790590D01*
X86904761Y-38790590D02*
X86904761Y-38981066D01*
X86904761Y-38981066D02*
X86809523Y-39171542D01*
X86809523Y-39171542D02*
X86714285Y-39266780D01*
X86714285Y-39266780D02*
X86523809Y-39362019D01*
X86523809Y-39362019D02*
X85857142Y-39362019D01*
X88238094Y-38409638D02*
X88619047Y-38409638D01*
X88619047Y-38409638D02*
X88809523Y-38504876D01*
X88809523Y-38504876D02*
X88999999Y-38695352D01*
X88999999Y-38695352D02*
X89095237Y-39076304D01*
X89095237Y-39076304D02*
X89095237Y-39742971D01*
X89095237Y-39742971D02*
X88999999Y-40123923D01*
X88999999Y-40123923D02*
X88809523Y-40314400D01*
X88809523Y-40314400D02*
X88619047Y-40409638D01*
X88619047Y-40409638D02*
X88238094Y-40409638D01*
X88238094Y-40409638D02*
X88047618Y-40314400D01*
X88047618Y-40314400D02*
X87857142Y-40123923D01*
X87857142Y-40123923D02*
X87761904Y-39742971D01*
X87761904Y-39742971D02*
X87761904Y-39076304D01*
X87761904Y-39076304D02*
X87857142Y-38695352D01*
X87857142Y-38695352D02*
X88047618Y-38504876D01*
X88047618Y-38504876D02*
X88238094Y-38409638D01*
X89857142Y-39838209D02*
X90809523Y-39838209D01*
X89666666Y-40409638D02*
X90333332Y-38409638D01*
X90333332Y-38409638D02*
X90999999Y-40409638D01*
X92809523Y-40409638D02*
X92142856Y-39457257D01*
X91666666Y-40409638D02*
X91666666Y-38409638D01*
X91666666Y-38409638D02*
X92428571Y-38409638D01*
X92428571Y-38409638D02*
X92619047Y-38504876D01*
X92619047Y-38504876D02*
X92714285Y-38600114D01*
X92714285Y-38600114D02*
X92809523Y-38790590D01*
X92809523Y-38790590D02*
X92809523Y-39076304D01*
X92809523Y-39076304D02*
X92714285Y-39266780D01*
X92714285Y-39266780D02*
X92619047Y-39362019D01*
X92619047Y-39362019D02*
X92428571Y-39457257D01*
X92428571Y-39457257D02*
X91666666Y-39457257D01*
X93666666Y-40409638D02*
X93666666Y-38409638D01*
X93666666Y-38409638D02*
X94142856Y-38409638D01*
X94142856Y-38409638D02*
X94428571Y-38504876D01*
X94428571Y-38504876D02*
X94619047Y-38695352D01*
X94619047Y-38695352D02*
X94714285Y-38885828D01*
X94714285Y-38885828D02*
X94809523Y-39266780D01*
X94809523Y-39266780D02*
X94809523Y-39552495D01*
X94809523Y-39552495D02*
X94714285Y-39933447D01*
X94714285Y-39933447D02*
X94619047Y-40123923D01*
X94619047Y-40123923D02*
X94428571Y-40314400D01*
X94428571Y-40314400D02*
X94142856Y-40409638D01*
X94142856Y-40409638D02*
X93666666Y-40409638D01*
X97000000Y-39742971D02*
X98714286Y-39742971D01*
X102333333Y-40600114D02*
X102142857Y-40504876D01*
X102142857Y-40504876D02*
X101952381Y-40314400D01*
X101952381Y-40314400D02*
X101666667Y-40028685D01*
X101666667Y-40028685D02*
X101476190Y-39933447D01*
X101476190Y-39933447D02*
X101285714Y-39933447D01*
X101380952Y-40409638D02*
X101190476Y-40314400D01*
X101190476Y-40314400D02*
X101000000Y-40123923D01*
X101000000Y-40123923D02*
X100904762Y-39742971D01*
X100904762Y-39742971D02*
X100904762Y-39076304D01*
X100904762Y-39076304D02*
X101000000Y-38695352D01*
X101000000Y-38695352D02*
X101190476Y-38504876D01*
X101190476Y-38504876D02*
X101380952Y-38409638D01*
X101380952Y-38409638D02*
X101761905Y-38409638D01*
X101761905Y-38409638D02*
X101952381Y-38504876D01*
X101952381Y-38504876D02*
X102142857Y-38695352D01*
X102142857Y-38695352D02*
X102238095Y-39076304D01*
X102238095Y-39076304D02*
X102238095Y-39742971D01*
X102238095Y-39742971D02*
X102142857Y-40123923D01*
X102142857Y-40123923D02*
X101952381Y-40314400D01*
X101952381Y-40314400D02*
X101761905Y-40409638D01*
X101761905Y-40409638D02*
X101380952Y-40409638D01*
X103095238Y-38409638D02*
X103095238Y-40028685D01*
X103095238Y-40028685D02*
X103190476Y-40219161D01*
X103190476Y-40219161D02*
X103285714Y-40314400D01*
X103285714Y-40314400D02*
X103476190Y-40409638D01*
X103476190Y-40409638D02*
X103857143Y-40409638D01*
X103857143Y-40409638D02*
X104047619Y-40314400D01*
X104047619Y-40314400D02*
X104142857Y-40219161D01*
X104142857Y-40219161D02*
X104238095Y-40028685D01*
X104238095Y-40028685D02*
X104238095Y-38409638D01*
X105571428Y-38409638D02*
X105952381Y-38409638D01*
X105952381Y-38409638D02*
X106142857Y-38504876D01*
X106142857Y-38504876D02*
X106333333Y-38695352D01*
X106333333Y-38695352D02*
X106428571Y-39076304D01*
X106428571Y-39076304D02*
X106428571Y-39742971D01*
X106428571Y-39742971D02*
X106333333Y-40123923D01*
X106333333Y-40123923D02*
X106142857Y-40314400D01*
X106142857Y-40314400D02*
X105952381Y-40409638D01*
X105952381Y-40409638D02*
X105571428Y-40409638D01*
X105571428Y-40409638D02*
X105380952Y-40314400D01*
X105380952Y-40314400D02*
X105190476Y-40123923D01*
X105190476Y-40123923D02*
X105095238Y-39742971D01*
X105095238Y-39742971D02*
X105095238Y-39076304D01*
X105095238Y-39076304D02*
X105190476Y-38695352D01*
X105190476Y-38695352D02*
X105380952Y-38504876D01*
X105380952Y-38504876D02*
X105571428Y-38409638D01*
X107000000Y-38409638D02*
X108142857Y-38409638D01*
X107571428Y-40409638D02*
X107571428Y-38409638D01*
X108809524Y-39362019D02*
X109476191Y-39362019D01*
X109761905Y-40409638D02*
X108809524Y-40409638D01*
X108809524Y-40409638D02*
X108809524Y-38409638D01*
X108809524Y-38409638D02*
X109761905Y-38409638D01*
X112523810Y-38409638D02*
X112904763Y-38409638D01*
X112904763Y-38409638D02*
X113095239Y-38504876D01*
X113095239Y-38504876D02*
X113285715Y-38695352D01*
X113285715Y-38695352D02*
X113380953Y-39076304D01*
X113380953Y-39076304D02*
X113380953Y-39742971D01*
X113380953Y-39742971D02*
X113285715Y-40123923D01*
X113285715Y-40123923D02*
X113095239Y-40314400D01*
X113095239Y-40314400D02*
X112904763Y-40409638D01*
X112904763Y-40409638D02*
X112523810Y-40409638D01*
X112523810Y-40409638D02*
X112333334Y-40314400D01*
X112333334Y-40314400D02*
X112142858Y-40123923D01*
X112142858Y-40123923D02*
X112047620Y-39742971D01*
X112047620Y-39742971D02*
X112047620Y-39076304D01*
X112047620Y-39076304D02*
X112142858Y-38695352D01*
X112142858Y-38695352D02*
X112333334Y-38504876D01*
X112333334Y-38504876D02*
X112523810Y-38409638D01*
X114238096Y-40409638D02*
X114238096Y-38409638D01*
X114238096Y-38409638D02*
X115380953Y-40409638D01*
X115380953Y-40409638D02*
X115380953Y-38409638D01*
X117285715Y-40409638D02*
X116333334Y-40409638D01*
X116333334Y-40409638D02*
X116333334Y-38409638D01*
X118333334Y-39457257D02*
X118333334Y-40409638D01*
X117666668Y-38409638D02*
X118333334Y-39457257D01*
X118333334Y-39457257D02*
X119000001Y-38409638D01*
%LPC*%
D12*
%TO.C,H4*%
X132000000Y-79000000D03*
%TD*%
%TO.C,H2*%
X132000000Y-4000000D03*
%TD*%
%TO.C,H1*%
X42000000Y-4000000D03*
%TD*%
%TO.C,H3*%
X42000000Y-79000000D03*
%TD*%
%LPD*%
M02*
