%TF.GenerationSoftware,KiCad,Pcbnew,10.0.5*%
%TF.CreationDate,2026-08-18T12:12:10-04:00*%
%TF.ProjectId,BU-22-Display-Controller-Rev-D,42552d32-322d-4446-9973-706c61792d43,rev?*%
%TF.SameCoordinates,Original*%
%TF.FileFunction,Copper,L1,Top*%
%TF.FilePolarity,Positive*%
%FSLAX46Y46*%
G04 Gerber Fmt 4.6, Leading zero omitted, Abs format (unit mm)*
G04 Created by KiCad (PCBNEW 10.0.5) date 2026-08-18 12:12:10*
%MOMM*%
%LPD*%
G01*
G04 APERTURE LIST*
G04 Aperture macros list*
%AMRoundRect*
0 Rectangle with rounded corners*
0 $1 Rounding radius*
0 $2 $3 $4 $5 $6 $7 $8 $9 X,Y pos of 4 corners*
0 Add a 4 corners polygon primitive as box body*
4,1,4,$2,$3,$4,$5,$6,$7,$8,$9,$2,$3,0*
0 Add four circle primitives for the rounded corners*
1,1,$1+$1,$2,$3*
1,1,$1+$1,$4,$5*
1,1,$1+$1,$6,$7*
1,1,$1+$1,$8,$9*
0 Add four rect primitives between the rounded corners*
20,1,$1+$1,$2,$3,$4,$5,0*
20,1,$1+$1,$4,$5,$6,$7,0*
20,1,$1+$1,$6,$7,$8,$9,0*
20,1,$1+$1,$8,$9,$2,$3,0*%
G04 Aperture macros list end*
%TA.AperFunction,SMDPad,CuDef*%
%ADD10RoundRect,0.250000X0.450000X-0.262500X0.450000X0.262500X-0.450000X0.262500X-0.450000X-0.262500X0*%
%TD*%
%TA.AperFunction,ComponentPad*%
%ADD11R,1.800000X1.800000*%
%TD*%
%TA.AperFunction,ComponentPad*%
%ADD12C,1.800000*%
%TD*%
%TA.AperFunction,ComponentPad*%
%ADD13RoundRect,0.250000X-0.600000X-0.725000X0.600000X-0.725000X0.600000X0.725000X-0.600000X0.725000X0*%
%TD*%
%TA.AperFunction,ComponentPad*%
%ADD14O,1.700000X1.950000*%
%TD*%
%TA.AperFunction,ComponentPad*%
%ADD15R,1.700000X1.700000*%
%TD*%
%TA.AperFunction,ComponentPad*%
%ADD16C,1.700000*%
%TD*%
%TA.AperFunction,ComponentPad*%
%ADD17C,2.000000*%
%TD*%
%TA.AperFunction,ComponentPad*%
%ADD18RoundRect,0.250000X0.625000X-0.350000X0.625000X0.350000X-0.625000X0.350000X-0.625000X-0.350000X0*%
%TD*%
%TA.AperFunction,ComponentPad*%
%ADD19O,1.750000X1.200000*%
%TD*%
%TA.AperFunction,SMDPad,CuDef*%
%ADD20RoundRect,0.250000X-0.250000X-0.475000X0.250000X-0.475000X0.250000X0.475000X-0.250000X0.475000X0*%
%TD*%
%TA.AperFunction,ComponentPad*%
%ADD21RoundRect,0.250001X-0.949999X-0.949999X0.949999X-0.949999X0.949999X0.949999X-0.949999X0.949999X0*%
%TD*%
%TA.AperFunction,ComponentPad*%
%ADD22C,2.400000*%
%TD*%
%TA.AperFunction,ComponentPad*%
%ADD23RoundRect,0.250000X1.050000X-1.050000X1.050000X1.050000X-1.050000X1.050000X-1.050000X-1.050000X0*%
%TD*%
%TA.AperFunction,ComponentPad*%
%ADD24C,2.600000*%
%TD*%
%TA.AperFunction,SMDPad,CuDef*%
%ADD25RoundRect,0.150000X-0.825000X-0.150000X0.825000X-0.150000X0.825000X0.150000X-0.825000X0.150000X0*%
%TD*%
%TA.AperFunction,ComponentPad*%
%ADD26RoundRect,0.250000X-0.550000X-0.550000X0.550000X-0.550000X0.550000X0.550000X-0.550000X0.550000X0*%
%TD*%
%TA.AperFunction,ComponentPad*%
%ADD27C,1.600000*%
%TD*%
%TA.AperFunction,SMDPad,CuDef*%
%ADD28RoundRect,0.150000X0.625000X-0.150000X0.625000X0.150000X-0.625000X0.150000X-0.625000X-0.150000X0*%
%TD*%
%TA.AperFunction,SMDPad,CuDef*%
%ADD29RoundRect,0.250000X0.650000X-0.350000X0.650000X0.350000X-0.650000X0.350000X-0.650000X-0.350000X0*%
%TD*%
%TA.AperFunction,ComponentPad*%
%ADD30RoundRect,0.250000X-0.750000X-0.750000X0.750000X-0.750000X0.750000X0.750000X-0.750000X0.750000X0*%
%TD*%
%TA.AperFunction,ComponentPad*%
%ADD31R,1.050000X1.500000*%
%TD*%
%TA.AperFunction,ComponentPad*%
%ADD32O,1.050000X1.500000*%
%TD*%
%TA.AperFunction,ViaPad*%
%ADD33C,0.800000*%
%TD*%
%TA.AperFunction,ViaPad*%
%ADD34C,1.200000*%
%TD*%
%TA.AperFunction,ViaPad*%
%ADD35C,0.600000*%
%TD*%
%TA.AperFunction,Conductor*%
%ADD36C,0.200000*%
%TD*%
%TA.AperFunction,Conductor*%
%ADD37C,0.400000*%
%TD*%
%TA.AperFunction,Conductor*%
%ADD38C,0.300000*%
%TD*%
%TA.AperFunction,Conductor*%
%ADD39C,1.000000*%
%TD*%
%TA.AperFunction,Conductor*%
%ADD40C,0.500000*%
%TD*%
G04 APERTURE END LIST*
D10*
%TO.P,R11,1*%
%TO.N,CH6_DATA_5V*%
X109000000Y-14912500D03*
%TO.P,R11,2*%
%TO.N,CH6_DATA_OUT*%
X109000000Y-13087500D03*
%TD*%
D11*
%TO.P,D2,1*%
%TO.N,GND*%
X31000000Y-47500000D03*
D12*
%TO.P,D2,2*%
%TO.N,HEART_LED_A*%
X33540000Y-47500000D03*
%TD*%
D13*
%TO.P,J3,1*%
%TO.N,GND*%
X51000000Y-7000000D03*
D14*
%TO.P,J3,2*%
%TO.N,CH3_CLOCK_OUT*%
X53500000Y-7000000D03*
%TO.P,J3,3*%
%TO.N,CH3_DATA_OUT*%
X56000000Y-7000000D03*
%TO.P,J3,4*%
%TO.N,SYSTEM_5V*%
X58500000Y-7000000D03*
%TD*%
D15*
%TO.P,JP1,1*%
%TO.N,ADDRESS*%
X43000000Y-48000000D03*
D16*
%TO.P,JP1,2*%
%TO.N,ADDR_A0*%
X45540000Y-48000000D03*
%TO.P,JP1,3*%
%TO.N,ADDRESS*%
X43000000Y-50540000D03*
%TO.P,JP1,4*%
%TO.N,ADDR_A1*%
X45540000Y-50540000D03*
%TD*%
D17*
%TO.P,SW1,1*%
%TO.N,TEST*%
X20000000Y-47500000D03*
X26500000Y-47500000D03*
%TO.P,SW1,2*%
%TO.N,GND*%
X20000000Y-52000000D03*
X26500000Y-52000000D03*
%TD*%
D13*
%TO.P,J6,1*%
%TO.N,GND*%
X104000000Y-7000000D03*
D14*
%TO.P,J6,2*%
%TO.N,CH6_CLOCK_OUT*%
X106500000Y-7000000D03*
%TO.P,J6,3*%
%TO.N,CH6_DATA_OUT*%
X109000000Y-7000000D03*
%TO.P,J6,4*%
%TO.N,SYSTEM_5V*%
X111500000Y-7000000D03*
%TD*%
D10*
%TO.P,R20,1*%
%TO.N,HEARTBEAT*%
X35000000Y-42912500D03*
%TO.P,R20,2*%
%TO.N,HEART_LED_A*%
X35000000Y-41087500D03*
%TD*%
D15*
%TO.P,MCU1B,1*%
%TO.N,N/C*%
X85480000Y-35260000D03*
D16*
%TO.P,MCU1B,2*%
%TO.N,SDA*%
X82940000Y-35260000D03*
%TO.P,MCU1B,3*%
%TO.N,SCL*%
X80400000Y-35260000D03*
%TO.P,MCU1B,4*%
%TO.N,GND*%
X77860000Y-35260000D03*
%TO.P,MCU1B,5*%
X75320000Y-35260000D03*
%TO.P,MCU1B,6*%
%TO.N,CH4_CLOCK_3V3*%
X72780000Y-35260000D03*
%TO.P,MCU1B,7*%
%TO.N,CH4_DATA_3V3*%
X70240000Y-35260000D03*
%TO.P,MCU1B,8*%
%TO.N,CH3_CLOCK_3V3*%
X67700000Y-35260000D03*
%TO.P,MCU1B,9*%
%TO.N,CH3_DATA_3V3*%
X65160000Y-35260000D03*
%TO.P,MCU1B,10*%
%TO.N,CH2_CLOCK_3V3*%
X62620000Y-35260000D03*
%TO.P,MCU1B,11*%
%TO.N,CH2_DATA_3V3*%
X60080000Y-35260000D03*
%TO.P,MCU1B,12*%
%TO.N,CH1_CLOCK_3V3*%
X57540000Y-35260000D03*
%TO.P,MCU1B,13*%
%TO.N,CH1_DATA_3V3*%
X55000000Y-35260000D03*
%TD*%
D18*
%TO.P,J10,1*%
%TO.N,GND*%
X22000000Y-38500000D03*
D19*
%TO.P,J10,2*%
%TO.N,N/C*%
X22000000Y-36500000D03*
%TO.P,J10,3*%
%TO.N,SDA*%
X22000000Y-34500000D03*
%TO.P,J10,4*%
%TO.N,SCL*%
X22000000Y-32500000D03*
%TD*%
D11*
%TO.P,D1,1*%
%TO.N,GND*%
X108000000Y-43000000D03*
D12*
%TO.P,D1,2*%
%TO.N,PWR_LED_A*%
X110540000Y-43000000D03*
%TD*%
D10*
%TO.P,R16,1*%
%TO.N,3V3_LOCAL*%
X39000000Y-42912500D03*
%TO.P,R16,2*%
%TO.N,ADDRESS*%
X39000000Y-41087500D03*
%TD*%
D20*
%TO.P,C3,1*%
%TO.N,LOGIC_5V*%
X97550000Y-28500000D03*
%TO.P,C3,2*%
%TO.N,GND*%
X99450000Y-28500000D03*
%TD*%
D21*
%TO.P,D3,1*%
%TO.N,LOGIC_5V*%
X108000000Y-29000000D03*
D22*
%TO.P,D3,2*%
%TO.N,SYSTEM_5V*%
X118160000Y-29000000D03*
%TD*%
D23*
%TO.P,J7,1*%
%TO.N,SYSTEM_5V*%
X119000000Y-20000000D03*
D24*
%TO.P,J7,2*%
%TO.N,GND*%
X119000000Y-14920000D03*
%TD*%
D20*
%TO.P,C1,1*%
%TO.N,LOGIC_5V*%
X21550000Y-28500000D03*
%TO.P,C1,2*%
%TO.N,GND*%
X23450000Y-28500000D03*
%TD*%
D10*
%TO.P,R1,1*%
%TO.N,CH1_DATA_5V*%
X18000000Y-14912500D03*
%TO.P,R1,2*%
%TO.N,CH1_DATA_OUT*%
X18000000Y-13087500D03*
%TD*%
%TO.P,R2,1*%
%TO.N,CH1_CLOCK_5V*%
X15500000Y-14912500D03*
%TO.P,R2,2*%
%TO.N,CH1_CLOCK_OUT*%
X15500000Y-13087500D03*
%TD*%
D15*
%TO.P,MCU1A,1*%
%TO.N,HEARTBEAT*%
X55000000Y-50500000D03*
D16*
%TO.P,MCU1A,2*%
%TO.N,ENABLE_GPIO*%
X57540000Y-50500000D03*
%TO.P,MCU1A,3*%
%TO.N,TEST*%
X60080000Y-50500000D03*
%TO.P,MCU1A,4*%
%TO.N,CH5_DATA_3V3*%
X62620000Y-50500000D03*
%TO.P,MCU1A,5*%
%TO.N,CH5_CLOCK_3V3*%
X65160000Y-50500000D03*
%TO.P,MCU1A,6*%
%TO.N,CH6_DATA_3V3*%
X67700000Y-50500000D03*
%TO.P,MCU1A,7*%
%TO.N,CH6_CLOCK_3V3*%
X70240000Y-50500000D03*
%TO.P,MCU1A,8*%
%TO.N,ADDRESS*%
X72780000Y-50500000D03*
%TO.P,MCU1A,9*%
%TO.N,3V3_LOCAL*%
X75320000Y-50500000D03*
%TO.P,MCU1A,10*%
%TO.N,RESET*%
X77860000Y-50500000D03*
%TO.P,MCU1A,11*%
%TO.N,GND*%
X80400000Y-50500000D03*
%TO.P,MCU1A,12*%
%TO.N,LOGIC_5V*%
X82940000Y-50500000D03*
%TO.P,MCU1A,13*%
%TO.N,N/C*%
X85480000Y-50500000D03*
%TD*%
D10*
%TO.P,R18,1*%
%TO.N,ADDR_A1*%
X47000000Y-42912500D03*
%TO.P,R18,2*%
%TO.N,GND*%
X47000000Y-41087500D03*
%TD*%
D25*
%TO.P,U1,1*%
%TO.N,OE_N*%
X20025000Y-18690000D03*
%TO.P,U1,2*%
%TO.N,CH1_DATA_3V3*%
X20025000Y-19960000D03*
%TO.P,U1,3*%
%TO.N,CH1_DATA_5V*%
X20025000Y-21230000D03*
%TO.P,U1,4*%
%TO.N,OE_N*%
X20025000Y-22500000D03*
%TO.P,U1,5*%
%TO.N,CH1_CLOCK_3V3*%
X20025000Y-23770000D03*
%TO.P,U1,6*%
%TO.N,CH1_CLOCK_5V*%
X20025000Y-25040000D03*
%TO.P,U1,7*%
%TO.N,GND*%
X20025000Y-26310000D03*
%TO.P,U1,8*%
%TO.N,CH2_DATA_5V*%
X24975000Y-26310000D03*
%TO.P,U1,9*%
%TO.N,CH2_DATA_3V3*%
X24975000Y-25040000D03*
%TO.P,U1,10*%
%TO.N,OE_N*%
X24975000Y-23770000D03*
%TO.P,U1,11*%
%TO.N,CH2_CLOCK_5V*%
X24975000Y-22500000D03*
%TO.P,U1,12*%
%TO.N,CH2_CLOCK_3V3*%
X24975000Y-21230000D03*
%TO.P,U1,13*%
%TO.N,OE_N*%
X24975000Y-19960000D03*
%TO.P,U1,14*%
%TO.N,LOGIC_5V*%
X24975000Y-18690000D03*
%TD*%
%TO.P,U2,1*%
%TO.N,OE_N*%
X58025000Y-18690000D03*
%TO.P,U2,2*%
%TO.N,CH3_DATA_3V3*%
X58025000Y-19960000D03*
%TO.P,U2,3*%
%TO.N,CH3_DATA_5V*%
X58025000Y-21230000D03*
%TO.P,U2,4*%
%TO.N,OE_N*%
X58025000Y-22500000D03*
%TO.P,U2,5*%
%TO.N,CH3_CLOCK_3V3*%
X58025000Y-23770000D03*
%TO.P,U2,6*%
%TO.N,CH3_CLOCK_5V*%
X58025000Y-25040000D03*
%TO.P,U2,7*%
%TO.N,GND*%
X58025000Y-26310000D03*
%TO.P,U2,8*%
%TO.N,CH4_DATA_5V*%
X62975000Y-26310000D03*
%TO.P,U2,9*%
%TO.N,CH4_DATA_3V3*%
X62975000Y-25040000D03*
%TO.P,U2,10*%
%TO.N,OE_N*%
X62975000Y-23770000D03*
%TO.P,U2,11*%
%TO.N,CH4_CLOCK_5V*%
X62975000Y-22500000D03*
%TO.P,U2,12*%
%TO.N,CH4_CLOCK_3V3*%
X62975000Y-21230000D03*
%TO.P,U2,13*%
%TO.N,OE_N*%
X62975000Y-19960000D03*
%TO.P,U2,14*%
%TO.N,LOGIC_5V*%
X62975000Y-18690000D03*
%TD*%
D10*
%TO.P,R13,1*%
%TO.N,LOGIC_5V*%
X38000000Y-28912500D03*
%TO.P,R13,2*%
%TO.N,OE_N*%
X38000000Y-27087500D03*
%TD*%
%TO.P,R15,1*%
%TO.N,ENABLE_GPIO*%
X46000000Y-28912500D03*
%TO.P,R15,2*%
%TO.N,GND*%
X46000000Y-27087500D03*
%TD*%
%TO.P,R17,1*%
%TO.N,ADDR_A0*%
X43000000Y-42912500D03*
%TO.P,R17,2*%
%TO.N,GND*%
X43000000Y-41087500D03*
%TD*%
%TO.P,R19,1*%
%TO.N,SYSTEM_5V*%
X114000000Y-48912500D03*
%TO.P,R19,2*%
%TO.N,PWR_LED_A*%
X114000000Y-47087500D03*
%TD*%
D17*
%TO.P,SW2,1*%
%TO.N,RESET*%
X9000000Y-47500000D03*
X15500000Y-47500000D03*
%TO.P,SW2,2*%
%TO.N,GND*%
X9000000Y-52000000D03*
X15500000Y-52000000D03*
%TD*%
D13*
%TO.P,J4,1*%
%TO.N,GND*%
X70000000Y-7000000D03*
D14*
%TO.P,J4,2*%
%TO.N,CH4_CLOCK_OUT*%
X72500000Y-7000000D03*
%TO.P,J4,3*%
%TO.N,CH4_DATA_OUT*%
X75000000Y-7000000D03*
%TO.P,J4,4*%
%TO.N,SYSTEM_5V*%
X77500000Y-7000000D03*
%TD*%
D10*
%TO.P,R6,1*%
%TO.N,CH3_CLOCK_5V*%
X53500000Y-14912500D03*
%TO.P,R6,2*%
%TO.N,CH3_CLOCK_OUT*%
X53500000Y-13087500D03*
%TD*%
D26*
%TO.P,C4,1*%
%TO.N,LOGIC_5V*%
X108000000Y-35500000D03*
D27*
%TO.P,C4,2*%
%TO.N,GND*%
X110000000Y-35500000D03*
%TD*%
D28*
%TO.P,J8,1*%
%TO.N,GND*%
X9325000Y-37500000D03*
%TO.P,J8,2*%
%TO.N,N/C*%
X9325000Y-36500000D03*
%TO.P,J8,3*%
%TO.N,SDA*%
X9325000Y-35500000D03*
%TO.P,J8,4*%
%TO.N,SCL*%
X9325000Y-34500000D03*
D29*
%TO.P,J8,MP*%
%TO.N,N/C*%
X6800000Y-38800000D03*
X6800000Y-33200000D03*
%TD*%
D13*
%TO.P,J1,1*%
%TO.N,GND*%
X13000000Y-7000000D03*
D14*
%TO.P,J1,2*%
%TO.N,CH1_CLOCK_OUT*%
X15500000Y-7000000D03*
%TO.P,J1,3*%
%TO.N,CH1_DATA_OUT*%
X18000000Y-7000000D03*
%TO.P,J1,4*%
%TO.N,SYSTEM_5V*%
X20500000Y-7000000D03*
%TD*%
D10*
%TO.P,R5,1*%
%TO.N,CH3_DATA_5V*%
X56000000Y-14912500D03*
%TO.P,R5,2*%
%TO.N,CH3_DATA_OUT*%
X56000000Y-13087500D03*
%TD*%
D30*
%TO.P,C5,1*%
%TO.N,SYSTEM_5V*%
X116000000Y-37000000D03*
D17*
%TO.P,C5,2*%
%TO.N,GND*%
X121000000Y-37000000D03*
%TD*%
D28*
%TO.P,J9,1*%
%TO.N,GND*%
X15325000Y-37500000D03*
%TO.P,J9,2*%
%TO.N,N/C*%
X15325000Y-36500000D03*
%TO.P,J9,3*%
%TO.N,SDA*%
X15325000Y-35500000D03*
%TO.P,J9,4*%
%TO.N,SCL*%
X15325000Y-34500000D03*
D29*
%TO.P,J9,MP*%
%TO.N,N/C*%
X12800000Y-38800000D03*
X12800000Y-33200000D03*
%TD*%
D31*
%TO.P,Q1,1*%
%TO.N,GND*%
X49000000Y-31000000D03*
D32*
%TO.P,Q1,2*%
%TO.N,ENABLE_BASE*%
X50270000Y-31000000D03*
%TO.P,Q1,3*%
%TO.N,OE_N*%
X51540000Y-31000000D03*
%TD*%
D20*
%TO.P,C2,1*%
%TO.N,LOGIC_5V*%
X59550000Y-28500000D03*
%TO.P,C2,2*%
%TO.N,GND*%
X61450000Y-28500000D03*
%TD*%
D13*
%TO.P,J2,1*%
%TO.N,GND*%
X32000000Y-7000000D03*
D14*
%TO.P,J2,2*%
%TO.N,CH2_CLOCK_OUT*%
X34500000Y-7000000D03*
%TO.P,J2,3*%
%TO.N,CH2_DATA_OUT*%
X37000000Y-7000000D03*
%TO.P,J2,4*%
%TO.N,SYSTEM_5V*%
X39500000Y-7000000D03*
%TD*%
D10*
%TO.P,R12,1*%
%TO.N,CH6_CLOCK_5V*%
X106500000Y-14912500D03*
%TO.P,R12,2*%
%TO.N,CH6_CLOCK_OUT*%
X106500000Y-13087500D03*
%TD*%
%TO.P,R7,1*%
%TO.N,CH4_DATA_5V*%
X75000000Y-14912500D03*
%TO.P,R7,2*%
%TO.N,CH4_DATA_OUT*%
X75000000Y-13087500D03*
%TD*%
D25*
%TO.P,U3,1*%
%TO.N,OE_N*%
X96025000Y-18690000D03*
%TO.P,U3,2*%
%TO.N,CH5_DATA_3V3*%
X96025000Y-19960000D03*
%TO.P,U3,3*%
%TO.N,CH5_DATA_5V*%
X96025000Y-21230000D03*
%TO.P,U3,4*%
%TO.N,OE_N*%
X96025000Y-22500000D03*
%TO.P,U3,5*%
%TO.N,CH5_CLOCK_3V3*%
X96025000Y-23770000D03*
%TO.P,U3,6*%
%TO.N,CH5_CLOCK_5V*%
X96025000Y-25040000D03*
%TO.P,U3,7*%
%TO.N,GND*%
X96025000Y-26310000D03*
%TO.P,U3,8*%
%TO.N,CH6_DATA_5V*%
X100975000Y-26310000D03*
%TO.P,U3,9*%
%TO.N,CH6_DATA_3V3*%
X100975000Y-25040000D03*
%TO.P,U3,10*%
%TO.N,OE_N*%
X100975000Y-23770000D03*
%TO.P,U3,11*%
%TO.N,CH6_CLOCK_5V*%
X100975000Y-22500000D03*
%TO.P,U3,12*%
%TO.N,CH6_CLOCK_3V3*%
X100975000Y-21230000D03*
%TO.P,U3,13*%
%TO.N,OE_N*%
X100975000Y-19960000D03*
%TO.P,U3,14*%
%TO.N,LOGIC_5V*%
X100975000Y-18690000D03*
%TD*%
D10*
%TO.P,R14,1*%
%TO.N,ENABLE_GPIO*%
X42000000Y-28912500D03*
%TO.P,R14,2*%
%TO.N,ENABLE_BASE*%
X42000000Y-27087500D03*
%TD*%
D13*
%TO.P,J5,1*%
%TO.N,GND*%
X89000000Y-7000000D03*
D14*
%TO.P,J5,2*%
%TO.N,CH5_CLOCK_OUT*%
X91500000Y-7000000D03*
%TO.P,J5,3*%
%TO.N,CH5_DATA_OUT*%
X94000000Y-7000000D03*
%TO.P,J5,4*%
%TO.N,SYSTEM_5V*%
X96500000Y-7000000D03*
%TD*%
D10*
%TO.P,R10,1*%
%TO.N,CH5_CLOCK_5V*%
X91500000Y-14912500D03*
%TO.P,R10,2*%
%TO.N,CH5_CLOCK_OUT*%
X91500000Y-13087500D03*
%TD*%
%TO.P,R8,1*%
%TO.N,CH4_CLOCK_5V*%
X72500000Y-14912500D03*
%TO.P,R8,2*%
%TO.N,CH4_CLOCK_OUT*%
X72500000Y-13087500D03*
%TD*%
D18*
%TO.P,J11,1*%
%TO.N,GND*%
X33000000Y-36000000D03*
D19*
%TO.P,J11,2*%
%TO.N,HEARTBEAT*%
X33000000Y-34000000D03*
%TD*%
D10*
%TO.P,R3,1*%
%TO.N,CH2_DATA_5V*%
X37000000Y-14912500D03*
%TO.P,R3,2*%
%TO.N,CH2_DATA_OUT*%
X37000000Y-13087500D03*
%TD*%
%TO.P,R4,1*%
%TO.N,CH2_CLOCK_5V*%
X34500000Y-14912500D03*
%TO.P,R4,2*%
%TO.N,CH2_CLOCK_OUT*%
X34500000Y-13087500D03*
%TD*%
%TO.P,R9,1*%
%TO.N,CH5_DATA_5V*%
X94000000Y-14912500D03*
%TO.P,R9,2*%
%TO.N,CH5_DATA_OUT*%
X94000000Y-13087500D03*
%TD*%
D33*
%TO.N,GND*%
X20025000Y-27600000D03*
X105142000Y-27358000D03*
D34*
%TO.N,SYSTEM_5V*%
X116000000Y-46000000D03*
D35*
%TO.N,ADDR_A1*%
X46311500Y-43928100D03*
%TO.N,HEARTBEAT*%
X34386000Y-39586700D03*
%TO.N,CH4_CLOCK_3V3*%
X65535500Y-21012700D03*
%TO.N,CH3_DATA_3V3*%
X59888200Y-20719600D03*
%TO.N,CH2_CLOCK_3V3*%
X35250500Y-18795300D03*
%TO.N,CH2_DATA_3V3*%
X35242700Y-27084300D03*
%TO.N,CH1_DATA_3V3*%
X36477900Y-17672900D03*
D33*
%TO.N,LOGIC_5V*%
X38000000Y-30250000D03*
X103000000Y-18690000D03*
X57800000Y-27800000D03*
X97550000Y-31050000D03*
X64500000Y-18690000D03*
X26500000Y-18690000D03*
X19500000Y-29500000D03*
D35*
%TO.N,ENABLE_GPIO*%
X47506300Y-29418200D03*
%TO.N,CH5_DATA_3V3*%
X74946300Y-21917300D03*
%TO.N,CH5_CLOCK_3V3*%
X76387300Y-23770000D03*
%TO.N,CH6_DATA_3V3*%
X99155000Y-25040000D03*
%TO.N,CH6_CLOCK_3V3*%
X99651100Y-21834800D03*
%TO.N,OE_N*%
X57592300Y-29341100D03*
X36485500Y-26975100D03*
X60579200Y-22345900D03*
%TO.N,CH4_DATA_5V*%
X73719100Y-15116300D03*
X64568800Y-24437700D03*
%TO.N,CH5_CLOCK_5V*%
X90064500Y-14925900D03*
X87508000Y-23113800D03*
%TD*%
%TO.N,CH6_DATA_5V*%
D36*
X109000000Y-18673300D02*
X109000000Y-14912500D01*
X100975000Y-26310000D02*
X101363300Y-26310000D01*
X101363300Y-26310000D02*
X109000000Y-18673300D01*
%TO.N,CH6_DATA_OUT*%
X109000000Y-7000000D02*
X109000000Y-13087500D01*
%TO.N,GND*%
X49000000Y-29948300D02*
X49000000Y-29493000D01*
X9000000Y-52000000D02*
X15500000Y-52000000D01*
X15325000Y-37500000D02*
X9325000Y-37500000D01*
X75320000Y-35260000D02*
X77860000Y-35260000D01*
X96025000Y-26310000D02*
X98401600Y-26310000D01*
X58025000Y-26310000D02*
X54842000Y-29493000D01*
X30950000Y-36000000D02*
X33000000Y-36000000D01*
X22000000Y-38500000D02*
X40412500Y-38500000D01*
X43000000Y-41087500D02*
X47000000Y-41087500D01*
X49000000Y-29493000D02*
X46594500Y-27087500D01*
X46594500Y-27087500D02*
X46000000Y-27087500D01*
X40412500Y-38500000D02*
X43000000Y-41087500D01*
D37*
X20025000Y-26310000D02*
X20025000Y-27600000D01*
D36*
X19000000Y-38500000D02*
X22000000Y-38500000D01*
X18000000Y-37500000D02*
X19000000Y-38500000D01*
X23450000Y-28500000D02*
X30950000Y-36000000D01*
X99450000Y-27358400D02*
X99450000Y-28500000D01*
X99450000Y-27358400D02*
X105141600Y-27358400D01*
X15325000Y-37500000D02*
X18000000Y-37500000D01*
X59260000Y-26310000D02*
X61450000Y-28500000D01*
X98401600Y-26310000D02*
X99450000Y-27358400D01*
X26500000Y-52000000D02*
X20000000Y-52000000D01*
X15500000Y-52000000D02*
X20000000Y-52000000D01*
X54842000Y-29493000D02*
X49000000Y-29493000D01*
X49000000Y-31000000D02*
X49000000Y-29948300D01*
X58025000Y-26310000D02*
X59260000Y-26310000D01*
%TO.N,HEART_LED_A*%
D38*
X32500000Y-41087500D02*
X32500000Y-46500000D01*
X32500000Y-46500000D02*
X33540000Y-47500000D01*
X35000000Y-41087500D02*
X32500000Y-41087500D01*
%TO.N,CH3_CLOCK_OUT*%
D36*
X53500000Y-7000000D02*
X53500000Y-13087500D01*
%TO.N,CH3_DATA_OUT*%
X56000000Y-7000000D02*
X56000000Y-13087500D01*
%TO.N,SYSTEM_5V*%
D39*
X77500000Y-4500000D02*
X77500000Y-7000000D01*
X20500000Y-4500000D02*
X20500000Y-7000000D01*
X58500000Y-4500000D02*
X58500000Y-7000000D01*
X115587500Y-48912500D02*
X114000000Y-48912500D01*
X116000000Y-46000000D02*
X116000000Y-48500000D01*
X116000000Y-48500000D02*
X115587500Y-48912500D01*
X96500000Y-4500000D02*
X96500000Y-7000000D01*
X39500000Y-4500000D02*
X39500000Y-7000000D01*
X111500000Y-4500000D02*
X111500000Y-7000000D01*
X20500000Y-4500000D02*
X111500000Y-4500000D01*
%TO.N,ADDRESS*%
D36*
X37985800Y-44137500D02*
X37985800Y-42101700D01*
X41848300Y-48000000D02*
X37985800Y-44137500D01*
X43000000Y-48000000D02*
X41848300Y-48000000D01*
X37985800Y-42101700D02*
X39000000Y-41087500D01*
X44193100Y-49346900D02*
X43000000Y-50540000D01*
X72780000Y-50500000D02*
X71626900Y-49346900D01*
X71626900Y-49346900D02*
X44193100Y-49346900D01*
%TO.N,ADDR_A0*%
X45540000Y-45452500D02*
X43000000Y-42912500D01*
X45540000Y-48000000D02*
X45540000Y-45452500D01*
%TO.N,ADDR_A1*%
X47000000Y-43239600D02*
X47000000Y-42912500D01*
X46311500Y-43928100D02*
X47000000Y-43239600D01*
%TO.N,TEST*%
X60080000Y-50500000D02*
X58824100Y-51755900D01*
X30755900Y-51755900D02*
X26500000Y-47500000D01*
X26500000Y-47500000D02*
X20000000Y-47500000D01*
X58824100Y-51755900D02*
X30755900Y-51755900D01*
%TO.N,CH6_CLOCK_OUT*%
X106500000Y-7000000D02*
X106500000Y-13087500D01*
%TO.N,HEARTBEAT*%
X35018400Y-39586700D02*
X34386000Y-39586700D01*
X37000000Y-42500000D02*
X37000000Y-40500000D01*
X37000000Y-40500000D02*
X36000000Y-39500000D01*
X35105100Y-39500000D02*
X35018400Y-39586700D01*
X36000000Y-39500000D02*
X35105100Y-39500000D01*
X35000000Y-42912500D02*
X35087500Y-43000000D01*
X36500000Y-43000000D02*
X37000000Y-42500000D01*
X35087500Y-43000000D02*
X36500000Y-43000000D01*
%TO.N,SDA*%
X24500000Y-35000000D02*
X26819600Y-37319600D01*
X22000000Y-34867500D02*
X22132500Y-35000000D01*
X15325000Y-35500000D02*
X9325000Y-35500000D01*
X19500000Y-35500000D02*
X20000000Y-35000000D01*
X15325000Y-35500000D02*
X19500000Y-35500000D01*
X21867500Y-35000000D02*
X22000000Y-34867500D01*
X80880400Y-37319600D02*
X82940000Y-35260000D01*
X22000000Y-34500000D02*
X22000000Y-34867500D01*
X26819600Y-37319600D02*
X80880400Y-37319600D01*
X20000000Y-35000000D02*
X21867500Y-35000000D01*
X22132500Y-35000000D02*
X24500000Y-35000000D01*
%TO.N,SCL*%
X16423300Y-33401700D02*
X19598300Y-33401700D01*
X20901600Y-33000000D02*
X20950800Y-32950800D01*
X24936900Y-32950800D02*
X22000000Y-32950800D01*
X15325000Y-34500000D02*
X9325000Y-34500000D01*
X28890600Y-36904500D02*
X24936900Y-32950800D01*
X20950800Y-32950800D02*
X22000000Y-32950800D01*
X15325000Y-34500000D02*
X16423300Y-33401700D01*
X78755500Y-36904500D02*
X28890600Y-36904500D01*
X80400000Y-35260000D02*
X78755500Y-36904500D01*
X22000000Y-32500000D02*
X22000000Y-32950800D01*
X19598300Y-33401700D02*
X20000000Y-33000000D01*
X20000000Y-33000000D02*
X20901600Y-33000000D01*
%TO.N,CH4_CLOCK_3V3*%
X62975000Y-21230000D02*
X63192300Y-21012700D01*
X63192300Y-21012700D02*
X65535500Y-21012700D01*
%TO.N,CH4_DATA_3V3*%
X70240000Y-31906300D02*
X70240000Y-35260000D01*
X63373700Y-25040000D02*
X70240000Y-31906300D01*
X62975000Y-25040000D02*
X63373700Y-25040000D01*
%TO.N,CH3_CLOCK_3V3*%
X58386600Y-23770000D02*
X58025000Y-23770000D01*
X67700000Y-35260000D02*
X67700000Y-33083400D01*
X67700000Y-33083400D02*
X58386600Y-23770000D01*
%TO.N,CH3_DATA_3V3*%
X59129300Y-20719600D02*
X59888200Y-20719600D01*
X58025000Y-19960000D02*
X58369700Y-19960000D01*
X58369700Y-19960000D02*
X59129300Y-20719600D01*
%TO.N,CH2_CLOCK_3V3*%
X24975000Y-21230000D02*
X32815800Y-21230000D01*
X32815800Y-21230000D02*
X35250500Y-18795300D01*
%TO.N,CH2_DATA_3V3*%
X33198400Y-25040000D02*
X24975000Y-25040000D01*
X35242700Y-27084300D02*
X33198400Y-25040000D01*
%TO.N,CH1_CLOCK_3V3*%
X55904600Y-33624600D02*
X57540000Y-35260000D01*
X23697700Y-26679600D02*
X28581700Y-31563600D01*
X21053100Y-23770000D02*
X23697700Y-26414600D01*
X23697700Y-26414600D02*
X23697700Y-26679600D01*
X28581700Y-31563600D02*
X40651100Y-31563600D01*
X42712100Y-33624600D02*
X55904600Y-33624600D01*
X20025000Y-23770000D02*
X21053100Y-23770000D01*
X40651100Y-31563600D02*
X42712100Y-33624600D01*
%TO.N,CH1_DATA_3V3*%
X18268600Y-19119800D02*
X19108800Y-19960000D01*
X19108800Y-19960000D02*
X20025000Y-19960000D01*
X18268600Y-18235500D02*
X18268600Y-19119800D01*
X18831200Y-17672900D02*
X18268600Y-18235500D01*
X36477900Y-17672900D02*
X18831200Y-17672900D01*
%TO.N,PWR_LED_A*%
D38*
X112000000Y-45087500D02*
X110540000Y-43000000D01*
X114000000Y-47087500D02*
X112000000Y-45087500D01*
%TO.N,3V3_LOCAL*%
D36*
X39842500Y-42070000D02*
X43653400Y-42070000D01*
X72985400Y-48165400D02*
X75320000Y-50500000D01*
X43653400Y-42070000D02*
X45628700Y-44045300D01*
X45628700Y-44045300D02*
X45628700Y-44126200D01*
X39000000Y-42912500D02*
X39842500Y-42070000D01*
X45628700Y-44126200D02*
X49667900Y-48165400D01*
X49667900Y-48165400D02*
X72985400Y-48165400D01*
%TO.N,LOGIC_5V*%
D40*
X59550000Y-28500000D02*
X57800000Y-27800000D01*
X97550000Y-28500000D02*
X97550000Y-31050000D01*
X24975000Y-18690000D02*
X26500000Y-18690000D01*
X100975000Y-18690000D02*
X103000000Y-18690000D01*
X21550000Y-28500000D02*
X19500000Y-29500000D01*
X38000000Y-28912500D02*
X38000000Y-30250000D01*
X62975000Y-18690000D02*
X64500000Y-18690000D01*
%TO.N,CH1_DATA_5V*%
D36*
X18000000Y-14912500D02*
X17866900Y-15045600D01*
X17866900Y-15045600D02*
X17866900Y-19482000D01*
X19614900Y-21230000D02*
X20025000Y-21230000D01*
X17866900Y-19482000D02*
X19614900Y-21230000D01*
%TO.N,CH1_DATA_OUT*%
X18000000Y-7000000D02*
X18000000Y-13087500D01*
%TO.N,CH1_CLOCK_5V*%
X15500000Y-21467800D02*
X19072200Y-25040000D01*
X15500000Y-14912500D02*
X15500000Y-21467800D01*
X19072200Y-25040000D02*
X20025000Y-25040000D01*
%TO.N,CH1_CLOCK_OUT*%
X15500000Y-7000000D02*
X15500000Y-13087500D01*
%TO.N,ENABLE_GPIO*%
X46505700Y-29418200D02*
X46000000Y-28912500D01*
X47506300Y-29418200D02*
X46505700Y-29418200D01*
X42000000Y-28912500D02*
X46000000Y-28912500D01*
%TO.N,CH5_DATA_3V3*%
X97353500Y-20863100D02*
X97353500Y-21531100D01*
X74998600Y-21865000D02*
X74946300Y-21917300D01*
X96450400Y-19960000D02*
X97353500Y-20863100D01*
X97019600Y-21865000D02*
X74998600Y-21865000D01*
X96025000Y-19960000D02*
X96450400Y-19960000D01*
X97353500Y-21531100D02*
X97019600Y-21865000D01*
%TO.N,CH5_CLOCK_3V3*%
X96025000Y-23770000D02*
X76387300Y-23770000D01*
%TO.N,CH6_DATA_3V3*%
X100975000Y-25040000D02*
X99155000Y-25040000D01*
%TO.N,CH6_CLOCK_3V3*%
X99651100Y-21834800D02*
X100255900Y-21230000D01*
X100255900Y-21230000D02*
X100975000Y-21230000D01*
%TO.N,RESET*%
X27800200Y-49891400D02*
X30086200Y-52177400D01*
X76182600Y-52177400D02*
X77860000Y-50500000D01*
X30086200Y-52177400D02*
X76182600Y-52177400D01*
X15500000Y-47500000D02*
X9000000Y-47500000D01*
X17891400Y-49891400D02*
X27800200Y-49891400D01*
X15500000Y-47500000D02*
X17891400Y-49891400D01*
%TO.N,OE_N*%
X23540000Y-19960000D02*
X22690500Y-20809500D01*
X99030000Y-21230000D02*
X100300000Y-19960000D01*
X24975000Y-23770000D02*
X23270000Y-23770000D01*
X60229900Y-22345900D02*
X58179100Y-22345900D01*
X24300000Y-19960000D02*
X23030000Y-18690000D01*
X100300000Y-19960000D02*
X100975000Y-19960000D01*
X99030000Y-22500000D02*
X96025000Y-22500000D01*
X22082800Y-22500000D02*
X20025000Y-22500000D01*
X61640600Y-19960000D02*
X62975000Y-19960000D01*
X60679600Y-20921000D02*
X60810100Y-20790500D01*
X66827600Y-22519000D02*
X65576600Y-23770000D01*
X23270000Y-23770000D02*
X22690500Y-23190500D01*
X33280400Y-23770000D02*
X36485500Y-26975100D01*
X60679600Y-21820400D02*
X62629200Y-23770000D01*
X60519600Y-19637400D02*
X60137400Y-19637400D01*
X60137400Y-19637400D02*
X59500000Y-19000000D01*
X99030000Y-22500000D02*
X100300000Y-23770000D01*
X24769200Y-19960000D02*
X24300000Y-19960000D01*
X58179100Y-22345900D02*
X58025000Y-22500000D01*
X24975000Y-19960000D02*
X24769200Y-19960000D01*
X61241400Y-20359200D02*
X60519600Y-19637400D01*
X22690500Y-21892300D02*
X22082800Y-22500000D01*
X23030000Y-18690000D02*
X20025000Y-18690000D01*
X60229900Y-22270100D02*
X60679600Y-21820400D01*
X86804000Y-22500000D02*
X86785000Y-22519000D01*
X36485500Y-26975100D02*
X37887600Y-26975100D01*
X58391500Y-18690000D02*
X58025000Y-18690000D01*
X51540000Y-31000000D02*
X55933400Y-31000000D01*
X100300000Y-23770000D02*
X100975000Y-23770000D01*
X24975000Y-23770000D02*
X33280400Y-23770000D01*
X24769200Y-19960000D02*
X23540000Y-19960000D01*
X55933400Y-31000000D02*
X57592300Y-29341100D01*
X60579200Y-22345900D02*
X60229900Y-22345900D01*
X96025000Y-22500000D02*
X86804000Y-22500000D01*
X60810100Y-20790500D02*
X61241400Y-20359200D01*
X65576600Y-23770000D02*
X62975000Y-23770000D01*
X59500000Y-19000000D02*
X58701500Y-19000000D01*
X60229900Y-22345900D02*
X60229900Y-22270100D01*
X37887600Y-26975100D02*
X38000000Y-27087500D01*
X60810100Y-20790500D02*
X61640600Y-19960000D01*
X99030000Y-21230000D02*
X96490000Y-18690000D01*
X60679600Y-21820400D02*
X60679600Y-20921000D01*
X96490000Y-18690000D02*
X96025000Y-18690000D01*
X22690500Y-23190500D02*
X22690500Y-21892300D01*
X62629200Y-23770000D02*
X62975000Y-23770000D01*
X86785000Y-22519000D02*
X66827600Y-22519000D01*
X99030000Y-21230000D02*
X99030000Y-22500000D01*
X58701500Y-19000000D02*
X58391500Y-18690000D01*
X22690500Y-20809500D02*
X22690500Y-21892300D01*
%TO.N,CH2_DATA_5V*%
X39035200Y-16947700D02*
X37000000Y-14912500D01*
X26577300Y-27912300D02*
X38676700Y-27912300D01*
X38676700Y-27912300D02*
X39035200Y-27553800D01*
X24975000Y-26310000D02*
X26577300Y-27912300D01*
X39035200Y-27553800D02*
X39035200Y-16947700D01*
%TO.N,CH2_CLOCK_5V*%
X33141600Y-22500000D02*
X37532900Y-18108700D01*
X37532900Y-17293900D02*
X35151500Y-14912500D01*
X24975000Y-22500000D02*
X33141600Y-22500000D01*
X37532900Y-18108700D02*
X37532900Y-17293900D01*
X35151500Y-14912500D02*
X34500000Y-14912500D01*
%TO.N,CH3_DATA_5V*%
X58025000Y-21230000D02*
X57614900Y-21230000D01*
X56000000Y-19615100D02*
X56000000Y-14912500D01*
X57614900Y-21230000D02*
X56000000Y-19615100D01*
%TO.N,CH3_CLOCK_5V*%
X57678000Y-25040000D02*
X58025000Y-25040000D01*
X53500000Y-14912500D02*
X53500000Y-20862000D01*
X53500000Y-20862000D02*
X57678000Y-25040000D01*
%TO.N,CH4_DATA_5V*%
X75000000Y-14912500D02*
X74796200Y-15116300D01*
X61679700Y-25421000D02*
X61679700Y-24646200D01*
X74796200Y-15116300D02*
X73719100Y-15116300D01*
X61679700Y-24646200D02*
X61888200Y-24437700D01*
X62975000Y-26310000D02*
X62568700Y-26310000D01*
X62568700Y-26310000D02*
X61679700Y-25421000D01*
X61888200Y-24437700D02*
X64568800Y-24437700D01*
%TO.N,CH4_CLOCK_5V*%
X62975000Y-22500000D02*
X64912500Y-22500000D01*
X64912500Y-22500000D02*
X72500000Y-14912500D01*
%TO.N,CH4_CLOCK_OUT*%
X72500000Y-7000000D02*
X72500000Y-13087500D01*
%TO.N,CH4_DATA_OUT*%
X75000000Y-7000000D02*
X75000000Y-13087500D01*
%TO.N,ENABLE_BASE*%
X50270000Y-32051700D02*
X48350000Y-32051700D01*
X47458000Y-28816500D02*
X46641500Y-28000000D01*
X46641500Y-28000000D02*
X42912500Y-28000000D01*
X47755500Y-28816500D02*
X47458000Y-28816500D01*
X48350000Y-32051700D02*
X48108000Y-31809700D01*
X48108000Y-29169000D02*
X47755500Y-28816500D01*
X48108000Y-31809700D02*
X48108000Y-29169000D01*
X50270000Y-31000000D02*
X50270000Y-32051700D01*
X42912500Y-28000000D02*
X42000000Y-27087500D01*
%TO.N,CH2_CLOCK_OUT*%
X34500000Y-7000000D02*
X34500000Y-13087500D01*
%TO.N,CH2_DATA_OUT*%
X37000000Y-7000000D02*
X37000000Y-13087500D01*
%TO.N,CH6_CLOCK_5V*%
X106500000Y-17358100D02*
X106500000Y-14912500D01*
X101358100Y-22500000D02*
X106500000Y-17358100D01*
X100975000Y-22500000D02*
X101358100Y-22500000D01*
%TO.N,CH5_DATA_5V*%
X95653700Y-21230000D02*
X94000000Y-19576300D01*
X94000000Y-19576300D02*
X94000000Y-14912500D01*
X96025000Y-21230000D02*
X95653700Y-21230000D01*
%TO.N,CH5_CLOCK_5V*%
X90064500Y-14925900D02*
X91486600Y-14925900D01*
X96433400Y-25040000D02*
X97341200Y-24132200D01*
X96025000Y-25040000D02*
X96433400Y-25040000D01*
X91486600Y-14925900D02*
X91500000Y-14912500D01*
X97341200Y-24132200D02*
X97341200Y-23421400D01*
X97033600Y-23113800D02*
X87508000Y-23113800D01*
X97341200Y-23421400D02*
X97033600Y-23113800D01*
%TO.N,CH5_CLOCK_OUT*%
X91500000Y-7000000D02*
X91500000Y-13087500D01*
%TO.N,CH5_DATA_OUT*%
X94000000Y-7000000D02*
X94000000Y-13087500D01*
%TD*%
M02*
