%TF.GenerationSoftware,KiCad,Pcbnew,10.0.5*%
%TF.CreationDate,2026-08-18T12:12:10-04:00*%
%TF.ProjectId,BU-22-Display-Controller-Rev-D,42552d32-322d-4446-9973-706c61792d43,rev?*%
%TF.SameCoordinates,Original*%
%TF.FileFunction,Profile,NP*%
%FSLAX46Y46*%
G04 Gerber Fmt 4.6, Leading zero omitted, Abs format (unit mm)*
G04 Created by KiCad (PCBNEW 10.0.5) date 2026-08-18 12:12:10*
%MOMM*%
%LPD*%
G01*
G04 APERTURE LIST*
%TA.AperFunction,Profile*%
%ADD10C,0.100000*%
%TD*%
G04 APERTURE END LIST*
D10*
X0Y-3000000D02*
X102222Y-2223542D01*
X0Y-52000000D02*
X0Y-3000000D01*
X102222Y-2223542D02*
X401923Y-1499999D01*
X102222Y-52776457D02*
X0Y-52000000D01*
X401923Y-1499999D02*
X878679Y-878679D01*
X401923Y-53500000D02*
X102222Y-52776457D01*
X878679Y-878679D02*
X1499999Y-401923D01*
X878679Y-54121320D02*
X401923Y-53500000D01*
X1499999Y-401923D02*
X2223542Y-102222D01*
X1500000Y-54598076D02*
X878679Y-54121320D01*
X2223542Y-102222D02*
X2999999Y0D01*
X2223542Y-54897777D02*
X1500000Y-54598076D01*
X2999999Y0D02*
X122000000Y0D01*
X3000000Y-55000000D02*
X2223542Y-54897777D01*
X122000000Y0D02*
X122776457Y-102222D01*
X122000000Y-55000000D02*
X3000000Y-55000000D01*
X122776457Y-102222D02*
X123500000Y-401923D01*
X122776457Y-54897777D02*
X122000000Y-55000000D01*
X123500000Y-401923D02*
X124121320Y-878679D01*
X123500000Y-54598076D02*
X122776457Y-54897777D01*
X124121320Y-878679D02*
X124598076Y-1500000D01*
X124121320Y-54121320D02*
X123500000Y-54598076D01*
X124598076Y-1500000D02*
X124897777Y-2223542D01*
X124598076Y-53500000D02*
X124121320Y-54121320D01*
X124897777Y-2223542D02*
X125000000Y-3000000D01*
X124897777Y-52776457D02*
X124598076Y-53500000D01*
X125000000Y-3000000D02*
X125000000Y-52000000D01*
X125000000Y-52000000D02*
X124897777Y-52776457D01*
M02*
