%TF.GenerationSoftware,KiCad,Pcbnew,10.0.5*%
%TF.CreationDate,2026-08-18T12:12:10-04:00*%
%TF.ProjectId,BU-22-Display-Controller-Rev-D,42552d32-322d-4446-9973-706c61792d43,rev?*%
%TF.SameCoordinates,Original*%
%TF.FileFunction,Copper,L3,Inr*%
%TF.FilePolarity,Positive*%
%FSLAX46Y46*%
G04 Gerber Fmt 4.6, Leading zero omitted, Abs format (unit mm)*
G04 Created by KiCad (PCBNEW 10.0.5) date 2026-08-18 12:12:10*
%MOMM*%
%LPD*%
G01*
G04 APERTURE LIST*
G04 Aperture macros list*
%AMRoundRect*
0 Rectangle with rounded corners*
0 $1 Rounding radius*
0 $2 $3 $4 $5 $6 $7 $8 $9 X,Y pos of 4 corners*
0 Add a 4 corners polygon primitive as box body*
4,1,4,$2,$3,$4,$5,$6,$7,$8,$9,$2,$3,0*
0 Add four circle primitives for the rounded corners*
1,1,$1+$1,$2,$3*
1,1,$1+$1,$4,$5*
1,1,$1+$1,$6,$7*
1,1,$1+$1,$8,$9*
0 Add four rect primitives between the rounded corners*
20,1,$1+$1,$2,$3,$4,$5,0*
20,1,$1+$1,$4,$5,$6,$7,0*
20,1,$1+$1,$6,$7,$8,$9,0*
20,1,$1+$1,$8,$9,$2,$3,0*%
G04 Aperture macros list end*
%TA.AperFunction,ComponentPad*%
%ADD10R,1.800000X1.800000*%
%TD*%
%TA.AperFunction,ComponentPad*%
%ADD11C,1.800000*%
%TD*%
%TA.AperFunction,ComponentPad*%
%ADD12RoundRect,0.250000X-0.600000X-0.725000X0.600000X-0.725000X0.600000X0.725000X-0.600000X0.725000X0*%
%TD*%
%TA.AperFunction,ComponentPad*%
%ADD13O,1.700000X1.950000*%
%TD*%
%TA.AperFunction,ComponentPad*%
%ADD14R,1.700000X1.700000*%
%TD*%
%TA.AperFunction,ComponentPad*%
%ADD15C,1.700000*%
%TD*%
%TA.AperFunction,ComponentPad*%
%ADD16C,2.000000*%
%TD*%
%TA.AperFunction,ComponentPad*%
%ADD17RoundRect,0.250000X0.625000X-0.350000X0.625000X0.350000X-0.625000X0.350000X-0.625000X-0.350000X0*%
%TD*%
%TA.AperFunction,ComponentPad*%
%ADD18O,1.750000X1.200000*%
%TD*%
%TA.AperFunction,ComponentPad*%
%ADD19RoundRect,0.250001X-0.949999X-0.949999X0.949999X-0.949999X0.949999X0.949999X-0.949999X0.949999X0*%
%TD*%
%TA.AperFunction,ComponentPad*%
%ADD20C,2.400000*%
%TD*%
%TA.AperFunction,ComponentPad*%
%ADD21RoundRect,0.250000X1.050000X-1.050000X1.050000X1.050000X-1.050000X1.050000X-1.050000X-1.050000X0*%
%TD*%
%TA.AperFunction,ComponentPad*%
%ADD22C,2.600000*%
%TD*%
%TA.AperFunction,ComponentPad*%
%ADD23RoundRect,0.250000X-0.550000X-0.550000X0.550000X-0.550000X0.550000X0.550000X-0.550000X0.550000X0*%
%TD*%
%TA.AperFunction,ComponentPad*%
%ADD24C,1.600000*%
%TD*%
%TA.AperFunction,ComponentPad*%
%ADD25RoundRect,0.250000X-0.750000X-0.750000X0.750000X-0.750000X0.750000X0.750000X-0.750000X0.750000X0*%
%TD*%
%TA.AperFunction,ComponentPad*%
%ADD26R,1.050000X1.500000*%
%TD*%
%TA.AperFunction,ComponentPad*%
%ADD27O,1.050000X1.500000*%
%TD*%
%TA.AperFunction,ViaPad*%
%ADD28C,0.800000*%
%TD*%
%TA.AperFunction,ViaPad*%
%ADD29C,1.200000*%
%TD*%
%TA.AperFunction,ViaPad*%
%ADD30C,0.600000*%
%TD*%
G04 APERTURE END LIST*
D10*
%TO.N,GND*%
%TO.C,D2*%
X31000000Y-47500000D03*
D11*
%TO.N,HEART_LED_A*%
X33540000Y-47500000D03*
%TD*%
D12*
%TO.N,GND*%
%TO.C,J3*%
X51000000Y-7000000D03*
D13*
%TO.N,CH3_CLOCK_OUT*%
X53500000Y-7000000D03*
%TO.N,CH3_DATA_OUT*%
X56000000Y-7000000D03*
%TO.N,SYSTEM_5V*%
X58500000Y-7000000D03*
%TD*%
D14*
%TO.N,ADDRESS*%
%TO.C,JP1*%
X43000000Y-48000000D03*
D15*
%TO.N,ADDR_A0*%
X45540000Y-48000000D03*
%TO.N,ADDRESS*%
X43000000Y-50540000D03*
%TO.N,ADDR_A1*%
X45540000Y-50540000D03*
%TD*%
D16*
%TO.N,TEST*%
%TO.C,SW1*%
X20000000Y-47500000D03*
X26500000Y-47500000D03*
%TO.N,GND*%
X20000000Y-52000000D03*
X26500000Y-52000000D03*
%TD*%
D12*
%TO.N,GND*%
%TO.C,J6*%
X104000000Y-7000000D03*
D13*
%TO.N,CH6_CLOCK_OUT*%
X106500000Y-7000000D03*
%TO.N,CH6_DATA_OUT*%
X109000000Y-7000000D03*
%TO.N,SYSTEM_5V*%
X111500000Y-7000000D03*
%TD*%
D14*
%TO.N,N/C*%
%TO.C,MCU1B*%
X85480000Y-35260000D03*
D15*
%TO.N,SDA*%
X82940000Y-35260000D03*
%TO.N,SCL*%
X80400000Y-35260000D03*
%TO.N,GND*%
X77860000Y-35260000D03*
X75320000Y-35260000D03*
%TO.N,CH4_CLOCK_3V3*%
X72780000Y-35260000D03*
%TO.N,CH4_DATA_3V3*%
X70240000Y-35260000D03*
%TO.N,CH3_CLOCK_3V3*%
X67700000Y-35260000D03*
%TO.N,CH3_DATA_3V3*%
X65160000Y-35260000D03*
%TO.N,CH2_CLOCK_3V3*%
X62620000Y-35260000D03*
%TO.N,CH2_DATA_3V3*%
X60080000Y-35260000D03*
%TO.N,CH1_CLOCK_3V3*%
X57540000Y-35260000D03*
%TO.N,CH1_DATA_3V3*%
X55000000Y-35260000D03*
%TD*%
D17*
%TO.N,GND*%
%TO.C,J10*%
X22000000Y-38500000D03*
D18*
%TO.N,N/C*%
X22000000Y-36500000D03*
%TO.N,SDA*%
X22000000Y-34500000D03*
%TO.N,SCL*%
X22000000Y-32500000D03*
%TD*%
D10*
%TO.N,GND*%
%TO.C,D1*%
X108000000Y-43000000D03*
D11*
%TO.N,PWR_LED_A*%
X110540000Y-43000000D03*
%TD*%
D19*
%TO.N,LOGIC_5V*%
%TO.C,D3*%
X108000000Y-29000000D03*
D20*
%TO.N,SYSTEM_5V*%
X118160000Y-29000000D03*
%TD*%
D21*
%TO.N,SYSTEM_5V*%
%TO.C,J7*%
X119000000Y-20000000D03*
D22*
%TO.N,GND*%
X119000000Y-14920000D03*
%TD*%
D14*
%TO.N,HEARTBEAT*%
%TO.C,MCU1A*%
X55000000Y-50500000D03*
D15*
%TO.N,ENABLE_GPIO*%
X57540000Y-50500000D03*
%TO.N,TEST*%
X60080000Y-50500000D03*
%TO.N,CH5_DATA_3V3*%
X62620000Y-50500000D03*
%TO.N,CH5_CLOCK_3V3*%
X65160000Y-50500000D03*
%TO.N,CH6_DATA_3V3*%
X67700000Y-50500000D03*
%TO.N,CH6_CLOCK_3V3*%
X70240000Y-50500000D03*
%TO.N,ADDRESS*%
X72780000Y-50500000D03*
%TO.N,3V3_LOCAL*%
X75320000Y-50500000D03*
%TO.N,RESET*%
X77860000Y-50500000D03*
%TO.N,GND*%
X80400000Y-50500000D03*
%TO.N,LOGIC_5V*%
X82940000Y-50500000D03*
%TO.N,N/C*%
X85480000Y-50500000D03*
%TD*%
D16*
%TO.N,RESET*%
%TO.C,SW2*%
X9000000Y-47500000D03*
X15500000Y-47500000D03*
%TO.N,GND*%
X9000000Y-52000000D03*
X15500000Y-52000000D03*
%TD*%
D12*
%TO.N,GND*%
%TO.C,J4*%
X70000000Y-7000000D03*
D13*
%TO.N,CH4_CLOCK_OUT*%
X72500000Y-7000000D03*
%TO.N,CH4_DATA_OUT*%
X75000000Y-7000000D03*
%TO.N,SYSTEM_5V*%
X77500000Y-7000000D03*
%TD*%
D23*
%TO.N,LOGIC_5V*%
%TO.C,C4*%
X108000000Y-35500000D03*
D24*
%TO.N,GND*%
X110000000Y-35500000D03*
%TD*%
D12*
%TO.N,GND*%
%TO.C,J1*%
X13000000Y-7000000D03*
D13*
%TO.N,CH1_CLOCK_OUT*%
X15500000Y-7000000D03*
%TO.N,CH1_DATA_OUT*%
X18000000Y-7000000D03*
%TO.N,SYSTEM_5V*%
X20500000Y-7000000D03*
%TD*%
D25*
%TO.N,SYSTEM_5V*%
%TO.C,C5*%
X116000000Y-37000000D03*
D16*
%TO.N,GND*%
X121000000Y-37000000D03*
%TD*%
D26*
%TO.N,GND*%
%TO.C,Q1*%
X49000000Y-31000000D03*
D27*
%TO.N,ENABLE_BASE*%
X50270000Y-31000000D03*
%TO.N,OE_N*%
X51540000Y-31000000D03*
%TD*%
D12*
%TO.N,GND*%
%TO.C,J2*%
X32000000Y-7000000D03*
D13*
%TO.N,CH2_CLOCK_OUT*%
X34500000Y-7000000D03*
%TO.N,CH2_DATA_OUT*%
X37000000Y-7000000D03*
%TO.N,SYSTEM_5V*%
X39500000Y-7000000D03*
%TD*%
D12*
%TO.N,GND*%
%TO.C,J5*%
X89000000Y-7000000D03*
D13*
%TO.N,CH5_CLOCK_OUT*%
X91500000Y-7000000D03*
%TO.N,CH5_DATA_OUT*%
X94000000Y-7000000D03*
%TO.N,SYSTEM_5V*%
X96500000Y-7000000D03*
%TD*%
D17*
%TO.N,GND*%
%TO.C,J11*%
X33000000Y-36000000D03*
D18*
%TO.N,HEARTBEAT*%
X33000000Y-34000000D03*
%TD*%
D28*
%TO.N,GND*%
X20025000Y-27600000D03*
X105142000Y-27358000D03*
D29*
%TO.N,SYSTEM_5V*%
X116000000Y-46000000D03*
D30*
%TO.N,ADDR_A1*%
X46311500Y-43928100D03*
%TO.N,HEARTBEAT*%
X34386000Y-39586700D03*
%TO.N,CH4_CLOCK_3V3*%
X65535500Y-21012700D03*
%TO.N,CH3_DATA_3V3*%
X59888200Y-20719600D03*
%TO.N,CH2_CLOCK_3V3*%
X35250500Y-18795300D03*
%TO.N,CH2_DATA_3V3*%
X35242700Y-27084300D03*
%TO.N,CH1_DATA_3V3*%
X36477900Y-17672900D03*
D28*
%TO.N,LOGIC_5V*%
X38000000Y-30250000D03*
X103000000Y-18690000D03*
X57800000Y-27800000D03*
X97550000Y-31050000D03*
X64500000Y-18690000D03*
X26500000Y-18690000D03*
X19500000Y-29500000D03*
D30*
%TO.N,ENABLE_GPIO*%
X47506300Y-29418200D03*
%TO.N,CH5_DATA_3V3*%
X74946300Y-21917300D03*
%TO.N,CH5_CLOCK_3V3*%
X76387300Y-23770000D03*
%TO.N,CH6_DATA_3V3*%
X99155000Y-25040000D03*
%TO.N,CH6_CLOCK_3V3*%
X99651100Y-21834800D03*
%TO.N,OE_N*%
X57592300Y-29341100D03*
X36485500Y-26975100D03*
X60579200Y-22345900D03*
%TO.N,CH4_DATA_5V*%
X73719100Y-15116300D03*
X64568800Y-24437700D03*
%TO.N,CH5_CLOCK_5V*%
X90064500Y-14925900D03*
X87508000Y-23113800D03*
%TD*%
%TA.AperFunction,Conductor*%
%TO.N,LOGIC_5V*%
G36*
X122693116Y-609438D02*
G01*
X123036881Y-751830D01*
X123232506Y-832860D01*
X123260539Y-849045D01*
X123442217Y-988451D01*
X123751408Y-1225702D01*
X123774297Y-1248591D01*
X124150952Y-1739459D01*
X124167137Y-1767492D01*
X124301920Y-2092885D01*
X124364491Y-2243946D01*
X124390561Y-2306883D01*
X124400000Y-2354336D01*
X124400000Y-52645659D01*
X124390561Y-52693112D01*
X124167136Y-53232506D01*
X124150951Y-53260540D01*
X123774295Y-53751406D01*
X123751406Y-53774295D01*
X123260538Y-54150953D01*
X123232504Y-54167138D01*
X122693114Y-54390561D01*
X122645661Y-54400000D01*
X2354337Y-54400000D01*
X2306884Y-54390561D01*
X1767492Y-54167137D01*
X1739459Y-54150952D01*
X1248594Y-53774299D01*
X1225704Y-53751410D01*
X1133047Y-53630657D01*
X849042Y-53260536D01*
X832858Y-53232502D01*
X609439Y-52693116D01*
X600000Y-52645664D01*
X600000Y-50878711D01*
X2149500Y-50878711D01*
X2149500Y-51121288D01*
X2181161Y-51361785D01*
X2243947Y-51596104D01*
X2289954Y-51707174D01*
X2336776Y-51820212D01*
X2458064Y-52030289D01*
X2458066Y-52030292D01*
X2458067Y-52030293D01*
X2605733Y-52222736D01*
X2605739Y-52222743D01*
X2777256Y-52394260D01*
X2777262Y-52394265D01*
X2969711Y-52541936D01*
X3179788Y-52663224D01*
X3403900Y-52756054D01*
X3638211Y-52818838D01*
X3818586Y-52842584D01*
X3878711Y-52850500D01*
X3878712Y-52850500D01*
X4121289Y-52850500D01*
X4169388Y-52844167D01*
X4361789Y-52818838D01*
X4596100Y-52756054D01*
X4820212Y-52663224D01*
X5030289Y-52541936D01*
X5222738Y-52394265D01*
X5394265Y-52222738D01*
X5541936Y-52030289D01*
X5616248Y-51901577D01*
X7749500Y-51901577D01*
X7749500Y-52098422D01*
X7780290Y-52292826D01*
X7841117Y-52480029D01*
X7930476Y-52655405D01*
X8046172Y-52814646D01*
X8185354Y-52953828D01*
X8344595Y-53069524D01*
X8427455Y-53111743D01*
X8519970Y-53158882D01*
X8519972Y-53158882D01*
X8519975Y-53158884D01*
X8620317Y-53191487D01*
X8707173Y-53219709D01*
X8901578Y-53250500D01*
X8901583Y-53250500D01*
X9098422Y-53250500D01*
X9292826Y-53219709D01*
X9480025Y-53158884D01*
X9655405Y-53069524D01*
X9814646Y-52953828D01*
X9953828Y-52814646D01*
X10069524Y-52655405D01*
X10158884Y-52480025D01*
X10219709Y-52292826D01*
X10230810Y-52222736D01*
X10250500Y-52098422D01*
X10250500Y-51901577D01*
X14249500Y-51901577D01*
X14249500Y-52098422D01*
X14280290Y-52292826D01*
X14341117Y-52480029D01*
X14430476Y-52655405D01*
X14546172Y-52814646D01*
X14685354Y-52953828D01*
X14844595Y-53069524D01*
X14927455Y-53111743D01*
X15019970Y-53158882D01*
X15019972Y-53158882D01*
X15019975Y-53158884D01*
X15120317Y-53191487D01*
X15207173Y-53219709D01*
X15401578Y-53250500D01*
X15401583Y-53250500D01*
X15598422Y-53250500D01*
X15792826Y-53219709D01*
X15980025Y-53158884D01*
X16155405Y-53069524D01*
X16314646Y-52953828D01*
X16453828Y-52814646D01*
X16569524Y-52655405D01*
X16658884Y-52480025D01*
X16719709Y-52292826D01*
X16730810Y-52222736D01*
X16750500Y-52098422D01*
X16750500Y-51901577D01*
X18749500Y-51901577D01*
X18749500Y-52098422D01*
X18780290Y-52292826D01*
X18841117Y-52480029D01*
X18930476Y-52655405D01*
X19046172Y-52814646D01*
X19185354Y-52953828D01*
X19344595Y-53069524D01*
X19427455Y-53111743D01*
X19519970Y-53158882D01*
X19519972Y-53158882D01*
X19519975Y-53158884D01*
X19620317Y-53191487D01*
X19707173Y-53219709D01*
X19901578Y-53250500D01*
X19901583Y-53250500D01*
X20098422Y-53250500D01*
X20292826Y-53219709D01*
X20480025Y-53158884D01*
X20655405Y-53069524D01*
X20814646Y-52953828D01*
X20953828Y-52814646D01*
X21069524Y-52655405D01*
X21158884Y-52480025D01*
X21219709Y-52292826D01*
X21230810Y-52222736D01*
X21250500Y-52098422D01*
X21250500Y-51901577D01*
X25249500Y-51901577D01*
X25249500Y-52098422D01*
X25280290Y-52292826D01*
X25341117Y-52480029D01*
X25430476Y-52655405D01*
X25546172Y-52814646D01*
X25685354Y-52953828D01*
X25844595Y-53069524D01*
X25927455Y-53111743D01*
X26019970Y-53158882D01*
X26019972Y-53158882D01*
X26019975Y-53158884D01*
X26120317Y-53191487D01*
X26207173Y-53219709D01*
X26401578Y-53250500D01*
X26401583Y-53250500D01*
X26598422Y-53250500D01*
X26792826Y-53219709D01*
X26980025Y-53158884D01*
X27155405Y-53069524D01*
X27314646Y-52953828D01*
X27453828Y-52814646D01*
X27569524Y-52655405D01*
X27658884Y-52480025D01*
X27719709Y-52292826D01*
X27730810Y-52222736D01*
X27750500Y-52098422D01*
X27750500Y-51901577D01*
X27719709Y-51707173D01*
X27680326Y-51585966D01*
X27658884Y-51519975D01*
X27658882Y-51519972D01*
X27658882Y-51519970D01*
X27587265Y-51379414D01*
X27569524Y-51344595D01*
X27453828Y-51185354D01*
X27314646Y-51046172D01*
X27155405Y-50930476D01*
X27133445Y-50919287D01*
X26980029Y-50841117D01*
X26792826Y-50780290D01*
X26598422Y-50749500D01*
X26598417Y-50749500D01*
X26401583Y-50749500D01*
X26401578Y-50749500D01*
X26207173Y-50780290D01*
X26019970Y-50841117D01*
X25844594Y-50930476D01*
X25753741Y-50996485D01*
X25685354Y-51046172D01*
X25685352Y-51046174D01*
X25685351Y-51046174D01*
X25546174Y-51185351D01*
X25546174Y-51185352D01*
X25546172Y-51185354D01*
X25523231Y-51216930D01*
X25430476Y-51344594D01*
X25341117Y-51519970D01*
X25280290Y-51707173D01*
X25249500Y-51901577D01*
X21250500Y-51901577D01*
X21219709Y-51707173D01*
X21180326Y-51585966D01*
X21158884Y-51519975D01*
X21158882Y-51519972D01*
X21158882Y-51519970D01*
X21087265Y-51379414D01*
X21069524Y-51344595D01*
X20953828Y-51185354D01*
X20814646Y-51046172D01*
X20655405Y-50930476D01*
X20633445Y-50919287D01*
X20480029Y-50841117D01*
X20292826Y-50780290D01*
X20098422Y-50749500D01*
X20098417Y-50749500D01*
X19901583Y-50749500D01*
X19901578Y-50749500D01*
X19707173Y-50780290D01*
X19519970Y-50841117D01*
X19344594Y-50930476D01*
X19253741Y-50996485D01*
X19185354Y-51046172D01*
X19185352Y-51046174D01*
X19185351Y-51046174D01*
X19046174Y-51185351D01*
X19046174Y-51185352D01*
X19046172Y-51185354D01*
X19023231Y-51216930D01*
X18930476Y-51344594D01*
X18841117Y-51519970D01*
X18780290Y-51707173D01*
X18749500Y-51901577D01*
X16750500Y-51901577D01*
X16719709Y-51707173D01*
X16680326Y-51585966D01*
X16658884Y-51519975D01*
X16658882Y-51519972D01*
X16658882Y-51519970D01*
X16587265Y-51379414D01*
X16569524Y-51344595D01*
X16453828Y-51185354D01*
X16314646Y-51046172D01*
X16155405Y-50930476D01*
X16133445Y-50919287D01*
X15980029Y-50841117D01*
X15792826Y-50780290D01*
X15598422Y-50749500D01*
X15598417Y-50749500D01*
X15401583Y-50749500D01*
X15401578Y-50749500D01*
X15207173Y-50780290D01*
X15019970Y-50841117D01*
X14844594Y-50930476D01*
X14753741Y-50996485D01*
X14685354Y-51046172D01*
X14685352Y-51046174D01*
X14685351Y-51046174D01*
X14546174Y-51185351D01*
X14546174Y-51185352D01*
X14546172Y-51185354D01*
X14523231Y-51216930D01*
X14430476Y-51344594D01*
X14341117Y-51519970D01*
X14280290Y-51707173D01*
X14249500Y-51901577D01*
X10250500Y-51901577D01*
X10219709Y-51707173D01*
X10180326Y-51585966D01*
X10158884Y-51519975D01*
X10158882Y-51519972D01*
X10158882Y-51519970D01*
X10087265Y-51379414D01*
X10069524Y-51344595D01*
X9953828Y-51185354D01*
X9814646Y-51046172D01*
X9655405Y-50930476D01*
X9633445Y-50919287D01*
X9480029Y-50841117D01*
X9292826Y-50780290D01*
X9098422Y-50749500D01*
X9098417Y-50749500D01*
X8901583Y-50749500D01*
X8901578Y-50749500D01*
X8707173Y-50780290D01*
X8519970Y-50841117D01*
X8344594Y-50930476D01*
X8253741Y-50996485D01*
X8185354Y-51046172D01*
X8185352Y-51046174D01*
X8185351Y-51046174D01*
X8046174Y-51185351D01*
X8046174Y-51185352D01*
X8046172Y-51185354D01*
X8023231Y-51216930D01*
X7930476Y-51344594D01*
X7841117Y-51519970D01*
X7780290Y-51707173D01*
X7749500Y-51901577D01*
X5616248Y-51901577D01*
X5663224Y-51820212D01*
X5756054Y-51596100D01*
X5818838Y-51361789D01*
X5850500Y-51121288D01*
X5850500Y-50878712D01*
X5845550Y-50841116D01*
X5818838Y-50638214D01*
X5818838Y-50638211D01*
X5769315Y-50453389D01*
X41899500Y-50453389D01*
X41899500Y-50626610D01*
X41923840Y-50780291D01*
X41926598Y-50797701D01*
X41980127Y-50962445D01*
X42058768Y-51116788D01*
X42160586Y-51256928D01*
X42283072Y-51379414D01*
X42423212Y-51481232D01*
X42577555Y-51559873D01*
X42742299Y-51613402D01*
X42913389Y-51640500D01*
X42913390Y-51640500D01*
X43086610Y-51640500D01*
X43086611Y-51640500D01*
X43257701Y-51613402D01*
X43422445Y-51559873D01*
X43576788Y-51481232D01*
X43716928Y-51379414D01*
X43839414Y-51256928D01*
X43941232Y-51116788D01*
X44019873Y-50962445D01*
X44073402Y-50797701D01*
X44100500Y-50626611D01*
X44100500Y-50453389D01*
X44439500Y-50453389D01*
X44439500Y-50626610D01*
X44463840Y-50780291D01*
X44466598Y-50797701D01*
X44520127Y-50962445D01*
X44598768Y-51116788D01*
X44700586Y-51256928D01*
X44823072Y-51379414D01*
X44963212Y-51481232D01*
X45117555Y-51559873D01*
X45282299Y-51613402D01*
X45453389Y-51640500D01*
X45453390Y-51640500D01*
X45626610Y-51640500D01*
X45626611Y-51640500D01*
X45797701Y-51613402D01*
X45962445Y-51559873D01*
X46116788Y-51481232D01*
X46256928Y-51379414D01*
X46379414Y-51256928D01*
X46481232Y-51116788D01*
X46559873Y-50962445D01*
X46613402Y-50797701D01*
X46640500Y-50626611D01*
X46640500Y-50453389D01*
X46613402Y-50282299D01*
X46559873Y-50117555D01*
X46481232Y-49963212D01*
X46379414Y-49823072D01*
X46256928Y-49700586D01*
X46153335Y-49625321D01*
X53899500Y-49625321D01*
X53899500Y-51374678D01*
X53914032Y-51447735D01*
X53914033Y-51447739D01*
X53932405Y-51475235D01*
X53969399Y-51530601D01*
X54052260Y-51585966D01*
X54052264Y-51585967D01*
X54125321Y-51600499D01*
X54125324Y-51600500D01*
X54125326Y-51600500D01*
X55874676Y-51600500D01*
X55874677Y-51600499D01*
X55947740Y-51585966D01*
X56030601Y-51530601D01*
X56085966Y-51447740D01*
X56100500Y-51374674D01*
X56100500Y-50413389D01*
X56439500Y-50413389D01*
X56439500Y-50586610D01*
X56466597Y-50757697D01*
X56466597Y-50757699D01*
X56466598Y-50757701D01*
X56520127Y-50922445D01*
X56598768Y-51076788D01*
X56700586Y-51216928D01*
X56823072Y-51339414D01*
X56963212Y-51441232D01*
X57117555Y-51519873D01*
X57282299Y-51573402D01*
X57453389Y-51600500D01*
X57453390Y-51600500D01*
X57626610Y-51600500D01*
X57626611Y-51600500D01*
X57797701Y-51573402D01*
X57962445Y-51519873D01*
X58116788Y-51441232D01*
X58256928Y-51339414D01*
X58379414Y-51216928D01*
X58481232Y-51076788D01*
X58559873Y-50922445D01*
X58613402Y-50757701D01*
X58640500Y-50586611D01*
X58640500Y-50413389D01*
X58979500Y-50413389D01*
X58979500Y-50586610D01*
X59006597Y-50757697D01*
X59006597Y-50757699D01*
X59006598Y-50757701D01*
X59060127Y-50922445D01*
X59138768Y-51076788D01*
X59240586Y-51216928D01*
X59363072Y-51339414D01*
X59503212Y-51441232D01*
X59657555Y-51519873D01*
X59822299Y-51573402D01*
X59993389Y-51600500D01*
X59993390Y-51600500D01*
X60166610Y-51600500D01*
X60166611Y-51600500D01*
X60337701Y-51573402D01*
X60502445Y-51519873D01*
X60656788Y-51441232D01*
X60796928Y-51339414D01*
X60919414Y-51216928D01*
X61021232Y-51076788D01*
X61099873Y-50922445D01*
X61153402Y-50757701D01*
X61180500Y-50586611D01*
X61180500Y-50413389D01*
X61519500Y-50413389D01*
X61519500Y-50586610D01*
X61546597Y-50757697D01*
X61546597Y-50757699D01*
X61546598Y-50757701D01*
X61600127Y-50922445D01*
X61678768Y-51076788D01*
X61780586Y-51216928D01*
X61903072Y-51339414D01*
X62043212Y-51441232D01*
X62197555Y-51519873D01*
X62362299Y-51573402D01*
X62533389Y-51600500D01*
X62533390Y-51600500D01*
X62706610Y-51600500D01*
X62706611Y-51600500D01*
X62877701Y-51573402D01*
X63042445Y-51519873D01*
X63196788Y-51441232D01*
X63336928Y-51339414D01*
X63459414Y-51216928D01*
X63561232Y-51076788D01*
X63639873Y-50922445D01*
X63693402Y-50757701D01*
X63720500Y-50586611D01*
X63720500Y-50413389D01*
X64059500Y-50413389D01*
X64059500Y-50586610D01*
X64086597Y-50757697D01*
X64086597Y-50757699D01*
X64086598Y-50757701D01*
X64140127Y-50922445D01*
X64218768Y-51076788D01*
X64320586Y-51216928D01*
X64443072Y-51339414D01*
X64583212Y-51441232D01*
X64737555Y-51519873D01*
X64902299Y-51573402D01*
X65073389Y-51600500D01*
X65073390Y-51600500D01*
X65246610Y-51600500D01*
X65246611Y-51600500D01*
X65417701Y-51573402D01*
X65582445Y-51519873D01*
X65736788Y-51441232D01*
X65876928Y-51339414D01*
X65999414Y-51216928D01*
X66101232Y-51076788D01*
X66179873Y-50922445D01*
X66233402Y-50757701D01*
X66260500Y-50586611D01*
X66260500Y-50413389D01*
X66599500Y-50413389D01*
X66599500Y-50586610D01*
X66626597Y-50757697D01*
X66626597Y-50757699D01*
X66626598Y-50757701D01*
X66680127Y-50922445D01*
X66758768Y-51076788D01*
X66860586Y-51216928D01*
X66983072Y-51339414D01*
X67123212Y-51441232D01*
X67277555Y-51519873D01*
X67442299Y-51573402D01*
X67613389Y-51600500D01*
X67613390Y-51600500D01*
X67786610Y-51600500D01*
X67786611Y-51600500D01*
X67957701Y-51573402D01*
X68122445Y-51519873D01*
X68276788Y-51441232D01*
X68416928Y-51339414D01*
X68539414Y-51216928D01*
X68641232Y-51076788D01*
X68719873Y-50922445D01*
X68773402Y-50757701D01*
X68800500Y-50586611D01*
X68800500Y-50413389D01*
X69139500Y-50413389D01*
X69139500Y-50586610D01*
X69166597Y-50757697D01*
X69166597Y-50757699D01*
X69166598Y-50757701D01*
X69220127Y-50922445D01*
X69298768Y-51076788D01*
X69400586Y-51216928D01*
X69523072Y-51339414D01*
X69663212Y-51441232D01*
X69817555Y-51519873D01*
X69982299Y-51573402D01*
X70153389Y-51600500D01*
X70153390Y-51600500D01*
X70326610Y-51600500D01*
X70326611Y-51600500D01*
X70497701Y-51573402D01*
X70662445Y-51519873D01*
X70816788Y-51441232D01*
X70956928Y-51339414D01*
X71079414Y-51216928D01*
X71181232Y-51076788D01*
X71259873Y-50922445D01*
X71313402Y-50757701D01*
X71340500Y-50586611D01*
X71340500Y-50413389D01*
X71679500Y-50413389D01*
X71679500Y-50586610D01*
X71706597Y-50757697D01*
X71706597Y-50757699D01*
X71706598Y-50757701D01*
X71760127Y-50922445D01*
X71838768Y-51076788D01*
X71940586Y-51216928D01*
X72063072Y-51339414D01*
X72203212Y-51441232D01*
X72357555Y-51519873D01*
X72522299Y-51573402D01*
X72693389Y-51600500D01*
X72693390Y-51600500D01*
X72866610Y-51600500D01*
X72866611Y-51600500D01*
X73037701Y-51573402D01*
X73202445Y-51519873D01*
X73356788Y-51441232D01*
X73496928Y-51339414D01*
X73619414Y-51216928D01*
X73721232Y-51076788D01*
X73799873Y-50922445D01*
X73853402Y-50757701D01*
X73880500Y-50586611D01*
X73880500Y-50413389D01*
X74219500Y-50413389D01*
X74219500Y-50586610D01*
X74246597Y-50757697D01*
X74246597Y-50757699D01*
X74246598Y-50757701D01*
X74300127Y-50922445D01*
X74378768Y-51076788D01*
X74480586Y-51216928D01*
X74603072Y-51339414D01*
X74743212Y-51441232D01*
X74897555Y-51519873D01*
X75062299Y-51573402D01*
X75233389Y-51600500D01*
X75233390Y-51600500D01*
X75406610Y-51600500D01*
X75406611Y-51600500D01*
X75577701Y-51573402D01*
X75742445Y-51519873D01*
X75896788Y-51441232D01*
X76036928Y-51339414D01*
X76159414Y-51216928D01*
X76261232Y-51076788D01*
X76339873Y-50922445D01*
X76393402Y-50757701D01*
X76420500Y-50586611D01*
X76420500Y-50413389D01*
X76759500Y-50413389D01*
X76759500Y-50586610D01*
X76786597Y-50757697D01*
X76786597Y-50757699D01*
X76786598Y-50757701D01*
X76840127Y-50922445D01*
X76918768Y-51076788D01*
X77020586Y-51216928D01*
X77143072Y-51339414D01*
X77283212Y-51441232D01*
X77437555Y-51519873D01*
X77602299Y-51573402D01*
X77773389Y-51600500D01*
X77773390Y-51600500D01*
X77946610Y-51600500D01*
X77946611Y-51600500D01*
X78117701Y-51573402D01*
X78282445Y-51519873D01*
X78436788Y-51441232D01*
X78576928Y-51339414D01*
X78699414Y-51216928D01*
X78801232Y-51076788D01*
X78879873Y-50922445D01*
X78933402Y-50757701D01*
X78960500Y-50586611D01*
X78960500Y-50413389D01*
X79299500Y-50413389D01*
X79299500Y-50586610D01*
X79326597Y-50757697D01*
X79326597Y-50757699D01*
X79326598Y-50757701D01*
X79380127Y-50922445D01*
X79458768Y-51076788D01*
X79560586Y-51216928D01*
X79683072Y-51339414D01*
X79823212Y-51441232D01*
X79977555Y-51519873D01*
X80142299Y-51573402D01*
X80313389Y-51600500D01*
X80313390Y-51600500D01*
X80486610Y-51600500D01*
X80486611Y-51600500D01*
X80657701Y-51573402D01*
X80822445Y-51519873D01*
X80976788Y-51441232D01*
X81116928Y-51339414D01*
X81239414Y-51216928D01*
X81341232Y-51076788D01*
X81419873Y-50922445D01*
X81420896Y-50919294D01*
X81421610Y-50918250D01*
X81421734Y-50917952D01*
X81421796Y-50917977D01*
X81460327Y-50861618D01*
X81524683Y-50834415D01*
X81593530Y-50846323D01*
X81645011Y-50893562D01*
X81656760Y-50919287D01*
X81688904Y-51018217D01*
X81785375Y-51207550D01*
X81824728Y-51261716D01*
X82457037Y-50629408D01*
X82474075Y-50692993D01*
X82539901Y-50807007D01*
X82632993Y-50900099D01*
X82747007Y-50965925D01*
X82810590Y-50982962D01*
X82178282Y-51615269D01*
X82178282Y-51615270D01*
X82232449Y-51654624D01*
X82421782Y-51751095D01*
X82623870Y-51816757D01*
X82833754Y-51850000D01*
X83046246Y-51850000D01*
X83256127Y-51816757D01*
X83256130Y-51816757D01*
X83458217Y-51751095D01*
X83647554Y-51654622D01*
X83701716Y-51615270D01*
X83701717Y-51615270D01*
X83069408Y-50982962D01*
X83132993Y-50965925D01*
X83247007Y-50900099D01*
X83340099Y-50807007D01*
X83405925Y-50692993D01*
X83422962Y-50629408D01*
X84055270Y-51261717D01*
X84055270Y-51261716D01*
X84094622Y-51207554D01*
X84191096Y-51018215D01*
X84223239Y-50919288D01*
X84262676Y-50861612D01*
X84327034Y-50834413D01*
X84395880Y-50846327D01*
X84447357Y-50893571D01*
X84459100Y-50919284D01*
X84460127Y-50922446D01*
X84538768Y-51076788D01*
X84640586Y-51216928D01*
X84763072Y-51339414D01*
X84903212Y-51441232D01*
X85057555Y-51519873D01*
X85222299Y-51573402D01*
X85393389Y-51600500D01*
X85393390Y-51600500D01*
X85566610Y-51600500D01*
X85566611Y-51600500D01*
X85737701Y-51573402D01*
X85902445Y-51519873D01*
X86056788Y-51441232D01*
X86196928Y-51339414D01*
X86319414Y-51216928D01*
X86421232Y-51076788D01*
X86499873Y-50922445D01*
X86514083Y-50878711D01*
X119149500Y-50878711D01*
X119149500Y-51121288D01*
X119181161Y-51361785D01*
X119243947Y-51596104D01*
X119289954Y-51707174D01*
X119336776Y-51820212D01*
X119458064Y-52030289D01*
X119458066Y-52030292D01*
X119458067Y-52030293D01*
X119605733Y-52222736D01*
X119605739Y-52222743D01*
X119777256Y-52394260D01*
X119777262Y-52394265D01*
X119969711Y-52541936D01*
X120179788Y-52663224D01*
X120403900Y-52756054D01*
X120638211Y-52818838D01*
X120818586Y-52842584D01*
X120878711Y-52850500D01*
X120878712Y-52850500D01*
X121121289Y-52850500D01*
X121169388Y-52844167D01*
X121361789Y-52818838D01*
X121596100Y-52756054D01*
X121820212Y-52663224D01*
X122030289Y-52541936D01*
X122222738Y-52394265D01*
X122394265Y-52222738D01*
X122541936Y-52030289D01*
X122663224Y-51820212D01*
X122756054Y-51596100D01*
X122818838Y-51361789D01*
X122850500Y-51121288D01*
X122850500Y-50878712D01*
X122845550Y-50841116D01*
X122818838Y-50638214D01*
X122818838Y-50638211D01*
X122756054Y-50403900D01*
X122663224Y-50179788D01*
X122541936Y-49969711D01*
X122429414Y-49823069D01*
X122394266Y-49777263D01*
X122394260Y-49777256D01*
X122222743Y-49605739D01*
X122222736Y-49605733D01*
X122030293Y-49458067D01*
X122030292Y-49458066D01*
X122030289Y-49458064D01*
X121820212Y-49336776D01*
X121820205Y-49336773D01*
X121596104Y-49243947D01*
X121478944Y-49212554D01*
X121361789Y-49181162D01*
X121361788Y-49181161D01*
X121361785Y-49181161D01*
X121121289Y-49149500D01*
X121121288Y-49149500D01*
X120878712Y-49149500D01*
X120878711Y-49149500D01*
X120638214Y-49181161D01*
X120403895Y-49243947D01*
X120179794Y-49336773D01*
X120179785Y-49336777D01*
X119969706Y-49458067D01*
X119777263Y-49605733D01*
X119777256Y-49605739D01*
X119605739Y-49777256D01*
X119605733Y-49777263D01*
X119458067Y-49969706D01*
X119336777Y-50179785D01*
X119336773Y-50179794D01*
X119243947Y-50403895D01*
X119181161Y-50638214D01*
X119149500Y-50878711D01*
X86514083Y-50878711D01*
X86553402Y-50757701D01*
X86580500Y-50586611D01*
X86580500Y-50413389D01*
X86553402Y-50242299D01*
X86499873Y-50077555D01*
X86421232Y-49923212D01*
X86319414Y-49783072D01*
X86196928Y-49660586D01*
X86056788Y-49558768D01*
X85902445Y-49480127D01*
X85737701Y-49426598D01*
X85737699Y-49426597D01*
X85737698Y-49426597D01*
X85606271Y-49405781D01*
X85566611Y-49399500D01*
X85393389Y-49399500D01*
X85353728Y-49405781D01*
X85222302Y-49426597D01*
X85057552Y-49480128D01*
X84903211Y-49558768D01*
X84838562Y-49605739D01*
X84763072Y-49660586D01*
X84763070Y-49660588D01*
X84763069Y-49660588D01*
X84640588Y-49783069D01*
X84640588Y-49783070D01*
X84640586Y-49783072D01*
X84611526Y-49823070D01*
X84538768Y-49923211D01*
X84460128Y-50077550D01*
X84459487Y-50079522D01*
X84459102Y-50080712D01*
X84459099Y-50080720D01*
X84458381Y-50081769D01*
X84458266Y-50082048D01*
X84458207Y-50082023D01*
X84419657Y-50138393D01*
X84355297Y-50165587D01*
X84286451Y-50153668D01*
X84234979Y-50106420D01*
X84223239Y-50080711D01*
X84191096Y-49981784D01*
X84094624Y-49792449D01*
X84055270Y-49738282D01*
X84055269Y-49738282D01*
X83422962Y-50370590D01*
X83405925Y-50307007D01*
X83340099Y-50192993D01*
X83247007Y-50099901D01*
X83132993Y-50034075D01*
X83069409Y-50017037D01*
X83701716Y-49384728D01*
X83647550Y-49345375D01*
X83458217Y-49248904D01*
X83256129Y-49183242D01*
X83046246Y-49150000D01*
X82833754Y-49150000D01*
X82623872Y-49183242D01*
X82623869Y-49183242D01*
X82421782Y-49248904D01*
X82232439Y-49345380D01*
X82178282Y-49384727D01*
X82178282Y-49384728D01*
X82810591Y-50017037D01*
X82747007Y-50034075D01*
X82632993Y-50099901D01*
X82539901Y-50192993D01*
X82474075Y-50307007D01*
X82457037Y-50370591D01*
X81824728Y-49738282D01*
X81824727Y-49738282D01*
X81785380Y-49792439D01*
X81688904Y-49981783D01*
X81656760Y-50080712D01*
X81617322Y-50138388D01*
X81552964Y-50165586D01*
X81484117Y-50153671D01*
X81432642Y-50106427D01*
X81420898Y-50080711D01*
X81419873Y-50077555D01*
X81341232Y-49923212D01*
X81239414Y-49783072D01*
X81116928Y-49660586D01*
X80976788Y-49558768D01*
X80822445Y-49480127D01*
X80657701Y-49426598D01*
X80657699Y-49426597D01*
X80657698Y-49426597D01*
X80526271Y-49405781D01*
X80486611Y-49399500D01*
X80313389Y-49399500D01*
X80273728Y-49405781D01*
X80142302Y-49426597D01*
X79977552Y-49480128D01*
X79823211Y-49558768D01*
X79758562Y-49605739D01*
X79683072Y-49660586D01*
X79683070Y-49660588D01*
X79683069Y-49660588D01*
X79560588Y-49783069D01*
X79560588Y-49783070D01*
X79560586Y-49783072D01*
X79531526Y-49823070D01*
X79458768Y-49923211D01*
X79380128Y-50077552D01*
X79326597Y-50242302D01*
X79299500Y-50413389D01*
X78960500Y-50413389D01*
X78933402Y-50242299D01*
X78879873Y-50077555D01*
X78801232Y-49923212D01*
X78699414Y-49783072D01*
X78576928Y-49660586D01*
X78436788Y-49558768D01*
X78282445Y-49480127D01*
X78117701Y-49426598D01*
X78117699Y-49426597D01*
X78117698Y-49426597D01*
X77986271Y-49405781D01*
X77946611Y-49399500D01*
X77773389Y-49399500D01*
X77733728Y-49405781D01*
X77602302Y-49426597D01*
X77437552Y-49480128D01*
X77283211Y-49558768D01*
X77218562Y-49605739D01*
X77143072Y-49660586D01*
X77143070Y-49660588D01*
X77143069Y-49660588D01*
X77020588Y-49783069D01*
X77020588Y-49783070D01*
X77020586Y-49783072D01*
X76991526Y-49823070D01*
X76918768Y-49923211D01*
X76840128Y-50077552D01*
X76786597Y-50242302D01*
X76759500Y-50413389D01*
X76420500Y-50413389D01*
X76393402Y-50242299D01*
X76339873Y-50077555D01*
X76261232Y-49923212D01*
X76159414Y-49783072D01*
X76036928Y-49660586D01*
X75896788Y-49558768D01*
X75742445Y-49480127D01*
X75577701Y-49426598D01*
X75577699Y-49426597D01*
X75577698Y-49426597D01*
X75446271Y-49405781D01*
X75406611Y-49399500D01*
X75233389Y-49399500D01*
X75193728Y-49405781D01*
X75062302Y-49426597D01*
X74897552Y-49480128D01*
X74743211Y-49558768D01*
X74678562Y-49605739D01*
X74603072Y-49660586D01*
X74603070Y-49660588D01*
X74603069Y-49660588D01*
X74480588Y-49783069D01*
X74480588Y-49783070D01*
X74480586Y-49783072D01*
X74451526Y-49823070D01*
X74378768Y-49923211D01*
X74300128Y-50077552D01*
X74246597Y-50242302D01*
X74219500Y-50413389D01*
X73880500Y-50413389D01*
X73853402Y-50242299D01*
X73799873Y-50077555D01*
X73721232Y-49923212D01*
X73619414Y-49783072D01*
X73496928Y-49660586D01*
X73356788Y-49558768D01*
X73202445Y-49480127D01*
X73037701Y-49426598D01*
X73037699Y-49426597D01*
X73037698Y-49426597D01*
X72906271Y-49405781D01*
X72866611Y-49399500D01*
X72693389Y-49399500D01*
X72653728Y-49405781D01*
X72522302Y-49426597D01*
X72357552Y-49480128D01*
X72203211Y-49558768D01*
X72138562Y-49605739D01*
X72063072Y-49660586D01*
X72063070Y-49660588D01*
X72063069Y-49660588D01*
X71940588Y-49783069D01*
X71940588Y-49783070D01*
X71940586Y-49783072D01*
X71911526Y-49823070D01*
X71838768Y-49923211D01*
X71760128Y-50077552D01*
X71706597Y-50242302D01*
X71679500Y-50413389D01*
X71340500Y-50413389D01*
X71313402Y-50242299D01*
X71259873Y-50077555D01*
X71181232Y-49923212D01*
X71079414Y-49783072D01*
X70956928Y-49660586D01*
X70816788Y-49558768D01*
X70662445Y-49480127D01*
X70497701Y-49426598D01*
X70497699Y-49426597D01*
X70497698Y-49426597D01*
X70366271Y-49405781D01*
X70326611Y-49399500D01*
X70153389Y-49399500D01*
X70113728Y-49405781D01*
X69982302Y-49426597D01*
X69817552Y-49480128D01*
X69663211Y-49558768D01*
X69598562Y-49605739D01*
X69523072Y-49660586D01*
X69523070Y-49660588D01*
X69523069Y-49660588D01*
X69400588Y-49783069D01*
X69400588Y-49783070D01*
X69400586Y-49783072D01*
X69371526Y-49823070D01*
X69298768Y-49923211D01*
X69220128Y-50077552D01*
X69166597Y-50242302D01*
X69139500Y-50413389D01*
X68800500Y-50413389D01*
X68773402Y-50242299D01*
X68719873Y-50077555D01*
X68641232Y-49923212D01*
X68539414Y-49783072D01*
X68416928Y-49660586D01*
X68276788Y-49558768D01*
X68122445Y-49480127D01*
X67957701Y-49426598D01*
X67957699Y-49426597D01*
X67957698Y-49426597D01*
X67826271Y-49405781D01*
X67786611Y-49399500D01*
X67613389Y-49399500D01*
X67573728Y-49405781D01*
X67442302Y-49426597D01*
X67277552Y-49480128D01*
X67123211Y-49558768D01*
X67058562Y-49605739D01*
X66983072Y-49660586D01*
X66983070Y-49660588D01*
X66983069Y-49660588D01*
X66860588Y-49783069D01*
X66860588Y-49783070D01*
X66860586Y-49783072D01*
X66831526Y-49823070D01*
X66758768Y-49923211D01*
X66680128Y-50077552D01*
X66626597Y-50242302D01*
X66599500Y-50413389D01*
X66260500Y-50413389D01*
X66233402Y-50242299D01*
X66179873Y-50077555D01*
X66101232Y-49923212D01*
X65999414Y-49783072D01*
X65876928Y-49660586D01*
X65736788Y-49558768D01*
X65582445Y-49480127D01*
X65417701Y-49426598D01*
X65417699Y-49426597D01*
X65417698Y-49426597D01*
X65286271Y-49405781D01*
X65246611Y-49399500D01*
X65073389Y-49399500D01*
X65033728Y-49405781D01*
X64902302Y-49426597D01*
X64737552Y-49480128D01*
X64583211Y-49558768D01*
X64518562Y-49605739D01*
X64443072Y-49660586D01*
X64443070Y-49660588D01*
X64443069Y-49660588D01*
X64320588Y-49783069D01*
X64320588Y-49783070D01*
X64320586Y-49783072D01*
X64291526Y-49823070D01*
X64218768Y-49923211D01*
X64140128Y-50077552D01*
X64086597Y-50242302D01*
X64059500Y-50413389D01*
X63720500Y-50413389D01*
X63693402Y-50242299D01*
X63639873Y-50077555D01*
X63561232Y-49923212D01*
X63459414Y-49783072D01*
X63336928Y-49660586D01*
X63196788Y-49558768D01*
X63042445Y-49480127D01*
X62877701Y-49426598D01*
X62877699Y-49426597D01*
X62877698Y-49426597D01*
X62746271Y-49405781D01*
X62706611Y-49399500D01*
X62533389Y-49399500D01*
X62493728Y-49405781D01*
X62362302Y-49426597D01*
X62197552Y-49480128D01*
X62043211Y-49558768D01*
X61978562Y-49605739D01*
X61903072Y-49660586D01*
X61903070Y-49660588D01*
X61903069Y-49660588D01*
X61780588Y-49783069D01*
X61780588Y-49783070D01*
X61780586Y-49783072D01*
X61751526Y-49823070D01*
X61678768Y-49923211D01*
X61600128Y-50077552D01*
X61546597Y-50242302D01*
X61519500Y-50413389D01*
X61180500Y-50413389D01*
X61153402Y-50242299D01*
X61099873Y-50077555D01*
X61021232Y-49923212D01*
X60919414Y-49783072D01*
X60796928Y-49660586D01*
X60656788Y-49558768D01*
X60502445Y-49480127D01*
X60337701Y-49426598D01*
X60337699Y-49426597D01*
X60337698Y-49426597D01*
X60206271Y-49405781D01*
X60166611Y-49399500D01*
X59993389Y-49399500D01*
X59953728Y-49405781D01*
X59822302Y-49426597D01*
X59657552Y-49480128D01*
X59503211Y-49558768D01*
X59438562Y-49605739D01*
X59363072Y-49660586D01*
X59363070Y-49660588D01*
X59363069Y-49660588D01*
X59240588Y-49783069D01*
X59240588Y-49783070D01*
X59240586Y-49783072D01*
X59211526Y-49823070D01*
X59138768Y-49923211D01*
X59060128Y-50077552D01*
X59006597Y-50242302D01*
X58979500Y-50413389D01*
X58640500Y-50413389D01*
X58613402Y-50242299D01*
X58559873Y-50077555D01*
X58481232Y-49923212D01*
X58379414Y-49783072D01*
X58256928Y-49660586D01*
X58116788Y-49558768D01*
X57962445Y-49480127D01*
X57797701Y-49426598D01*
X57797699Y-49426597D01*
X57797698Y-49426597D01*
X57666271Y-49405781D01*
X57626611Y-49399500D01*
X57453389Y-49399500D01*
X57413728Y-49405781D01*
X57282302Y-49426597D01*
X57117552Y-49480128D01*
X56963211Y-49558768D01*
X56898562Y-49605739D01*
X56823072Y-49660586D01*
X56823070Y-49660588D01*
X56823069Y-49660588D01*
X56700588Y-49783069D01*
X56700588Y-49783070D01*
X56700586Y-49783072D01*
X56671526Y-49823070D01*
X56598768Y-49923211D01*
X56520128Y-50077552D01*
X56466597Y-50242302D01*
X56439500Y-50413389D01*
X56100500Y-50413389D01*
X56100500Y-49625326D01*
X56100500Y-49625323D01*
X56100499Y-49625321D01*
X56085967Y-49552264D01*
X56085966Y-49552260D01*
X56064496Y-49520128D01*
X56030601Y-49469399D01*
X55947740Y-49414034D01*
X55947739Y-49414033D01*
X55947735Y-49414032D01*
X55874677Y-49399500D01*
X55874674Y-49399500D01*
X54125326Y-49399500D01*
X54125323Y-49399500D01*
X54052264Y-49414032D01*
X54052260Y-49414033D01*
X53969399Y-49469399D01*
X53914033Y-49552260D01*
X53914032Y-49552264D01*
X53899500Y-49625321D01*
X46153335Y-49625321D01*
X46116788Y-49598768D01*
X45962445Y-49520127D01*
X45797701Y-49466598D01*
X45797699Y-49466597D01*
X45797698Y-49466597D01*
X45666271Y-49445781D01*
X45626611Y-49439500D01*
X45453389Y-49439500D01*
X45413728Y-49445781D01*
X45282302Y-49466597D01*
X45117552Y-49520128D01*
X44963211Y-49598768D01*
X44926665Y-49625321D01*
X44823072Y-49700586D01*
X44823070Y-49700588D01*
X44823069Y-49700588D01*
X44700588Y-49823069D01*
X44700588Y-49823070D01*
X44700586Y-49823072D01*
X44656859Y-49883256D01*
X44598768Y-49963211D01*
X44520128Y-50117552D01*
X44466597Y-50282302D01*
X44439500Y-50453389D01*
X44100500Y-50453389D01*
X44073402Y-50282299D01*
X44019873Y-50117555D01*
X43941232Y-49963212D01*
X43839414Y-49823072D01*
X43716928Y-49700586D01*
X43576788Y-49598768D01*
X43422445Y-49520127D01*
X43257701Y-49466598D01*
X43257699Y-49466597D01*
X43257698Y-49466597D01*
X43126271Y-49445781D01*
X43086611Y-49439500D01*
X42913389Y-49439500D01*
X42873728Y-49445781D01*
X42742302Y-49466597D01*
X42577552Y-49520128D01*
X42423211Y-49598768D01*
X42386665Y-49625321D01*
X42283072Y-49700586D01*
X42283070Y-49700588D01*
X42283069Y-49700588D01*
X42160588Y-49823069D01*
X42160588Y-49823070D01*
X42160586Y-49823072D01*
X42116859Y-49883256D01*
X42058768Y-49963211D01*
X41980128Y-50117552D01*
X41926597Y-50282302D01*
X41899500Y-50453389D01*
X5769315Y-50453389D01*
X5756054Y-50403900D01*
X5663224Y-50179788D01*
X5541936Y-49969711D01*
X5429414Y-49823069D01*
X5394266Y-49777263D01*
X5394260Y-49777256D01*
X5222743Y-49605739D01*
X5222736Y-49605733D01*
X5030293Y-49458067D01*
X5030292Y-49458066D01*
X5030289Y-49458064D01*
X4820212Y-49336776D01*
X4820205Y-49336773D01*
X4596104Y-49243947D01*
X4478944Y-49212554D01*
X4361789Y-49181162D01*
X4361788Y-49181161D01*
X4361785Y-49181161D01*
X4121289Y-49149500D01*
X4121288Y-49149500D01*
X3878712Y-49149500D01*
X3878711Y-49149500D01*
X3638214Y-49181161D01*
X3403895Y-49243947D01*
X3179794Y-49336773D01*
X3179785Y-49336777D01*
X2969706Y-49458067D01*
X2777263Y-49605733D01*
X2777256Y-49605739D01*
X2605739Y-49777256D01*
X2605733Y-49777263D01*
X2458067Y-49969706D01*
X2336777Y-50179785D01*
X2336773Y-50179794D01*
X2243947Y-50403895D01*
X2181161Y-50638214D01*
X2149500Y-50878711D01*
X600000Y-50878711D01*
X600000Y-47401577D01*
X7749500Y-47401577D01*
X7749500Y-47598422D01*
X7780290Y-47792826D01*
X7841117Y-47980029D01*
X7895423Y-48086610D01*
X7930476Y-48155405D01*
X8046172Y-48314646D01*
X8185354Y-48453828D01*
X8344595Y-48569524D01*
X8427455Y-48611743D01*
X8519970Y-48658882D01*
X8519972Y-48658882D01*
X8519975Y-48658884D01*
X8620317Y-48691487D01*
X8707173Y-48719709D01*
X8901578Y-48750500D01*
X8901583Y-48750500D01*
X9098422Y-48750500D01*
X9292826Y-48719709D01*
X9301385Y-48716928D01*
X9480025Y-48658884D01*
X9655405Y-48569524D01*
X9814646Y-48453828D01*
X9953828Y-48314646D01*
X10069524Y-48155405D01*
X10158884Y-47980025D01*
X10219709Y-47792826D01*
X10241201Y-47657131D01*
X10250500Y-47598422D01*
X10250500Y-47401577D01*
X14249500Y-47401577D01*
X14249500Y-47598422D01*
X14280290Y-47792826D01*
X14341117Y-47980029D01*
X14395423Y-48086610D01*
X14430476Y-48155405D01*
X14546172Y-48314646D01*
X14685354Y-48453828D01*
X14844595Y-48569524D01*
X14927455Y-48611743D01*
X15019970Y-48658882D01*
X15019972Y-48658882D01*
X15019975Y-48658884D01*
X15120317Y-48691487D01*
X15207173Y-48719709D01*
X15401578Y-48750500D01*
X15401583Y-48750500D01*
X15598422Y-48750500D01*
X15792826Y-48719709D01*
X15801385Y-48716928D01*
X15980025Y-48658884D01*
X16155405Y-48569524D01*
X16314646Y-48453828D01*
X16453828Y-48314646D01*
X16569524Y-48155405D01*
X16658884Y-47980025D01*
X16719709Y-47792826D01*
X16741201Y-47657131D01*
X16750500Y-47598422D01*
X16750500Y-47401577D01*
X18749500Y-47401577D01*
X18749500Y-47598422D01*
X18780290Y-47792826D01*
X18841117Y-47980029D01*
X18895423Y-48086610D01*
X18930476Y-48155405D01*
X19046172Y-48314646D01*
X19185354Y-48453828D01*
X19344595Y-48569524D01*
X19427455Y-48611743D01*
X19519970Y-48658882D01*
X19519972Y-48658882D01*
X19519975Y-48658884D01*
X19620317Y-48691487D01*
X19707173Y-48719709D01*
X19901578Y-48750500D01*
X19901583Y-48750500D01*
X20098422Y-48750500D01*
X20292826Y-48719709D01*
X20301385Y-48716928D01*
X20480025Y-48658884D01*
X20655405Y-48569524D01*
X20814646Y-48453828D01*
X20953828Y-48314646D01*
X21069524Y-48155405D01*
X21158884Y-47980025D01*
X21219709Y-47792826D01*
X21241201Y-47657131D01*
X21250500Y-47598422D01*
X21250500Y-47401577D01*
X25249500Y-47401577D01*
X25249500Y-47598422D01*
X25280290Y-47792826D01*
X25341117Y-47980029D01*
X25395423Y-48086610D01*
X25430476Y-48155405D01*
X25546172Y-48314646D01*
X25685354Y-48453828D01*
X25844595Y-48569524D01*
X25927455Y-48611743D01*
X26019970Y-48658882D01*
X26019972Y-48658882D01*
X26019975Y-48658884D01*
X26120317Y-48691487D01*
X26207173Y-48719709D01*
X26401578Y-48750500D01*
X26401583Y-48750500D01*
X26598422Y-48750500D01*
X26792826Y-48719709D01*
X26801385Y-48716928D01*
X26980025Y-48658884D01*
X27155405Y-48569524D01*
X27314646Y-48453828D01*
X27453828Y-48314646D01*
X27569524Y-48155405D01*
X27658884Y-47980025D01*
X27719709Y-47792826D01*
X27741201Y-47657131D01*
X27750500Y-47598422D01*
X27750500Y-47401577D01*
X27719709Y-47207173D01*
X27691487Y-47120317D01*
X27658884Y-47019975D01*
X27658882Y-47019972D01*
X27658882Y-47019970D01*
X27597499Y-46899500D01*
X27569524Y-46844595D01*
X27453828Y-46685354D01*
X27343795Y-46575321D01*
X29849500Y-46575321D01*
X29849500Y-48424678D01*
X29864032Y-48497735D01*
X29864033Y-48497739D01*
X29864034Y-48497740D01*
X29919399Y-48580601D01*
X29981614Y-48622171D01*
X30002260Y-48635966D01*
X30002264Y-48635967D01*
X30075321Y-48650499D01*
X30075324Y-48650500D01*
X30075326Y-48650500D01*
X31924676Y-48650500D01*
X31924677Y-48650499D01*
X31997740Y-48635966D01*
X32080601Y-48580601D01*
X32135966Y-48497740D01*
X32150500Y-48424674D01*
X32150500Y-47657131D01*
X32170185Y-47590092D01*
X32222989Y-47544337D01*
X32292147Y-47534393D01*
X32355703Y-47563418D01*
X32393477Y-47622196D01*
X32396973Y-47637733D01*
X32417829Y-47769410D01*
X32473787Y-47941636D01*
X32473788Y-47941639D01*
X32529664Y-48051300D01*
X32547656Y-48086611D01*
X32556006Y-48102997D01*
X32662441Y-48249494D01*
X32662445Y-48249499D01*
X32790500Y-48377554D01*
X32790505Y-48377558D01*
X32855361Y-48424678D01*
X32937006Y-48483996D01*
X33042484Y-48537740D01*
X33098360Y-48566211D01*
X33098363Y-48566212D01*
X33184476Y-48594191D01*
X33270591Y-48622171D01*
X33353429Y-48635291D01*
X33449449Y-48650500D01*
X33449454Y-48650500D01*
X33630551Y-48650500D01*
X33722310Y-48635966D01*
X33809409Y-48622171D01*
X33981639Y-48566211D01*
X34142994Y-48483996D01*
X34289501Y-48377553D01*
X34417553Y-48249501D01*
X34523996Y-48102994D01*
X34606211Y-47941639D01*
X34662171Y-47769409D01*
X34679954Y-47657131D01*
X34690500Y-47590551D01*
X34690500Y-47409448D01*
X34662170Y-47230587D01*
X34638440Y-47157551D01*
X34627968Y-47125321D01*
X41899500Y-47125321D01*
X41899500Y-48874678D01*
X41914032Y-48947735D01*
X41914033Y-48947739D01*
X41914034Y-48947740D01*
X41969399Y-49030601D01*
X42052260Y-49085966D01*
X42052264Y-49085967D01*
X42125321Y-49100499D01*
X42125324Y-49100500D01*
X42125326Y-49100500D01*
X43874676Y-49100500D01*
X43874677Y-49100499D01*
X43947740Y-49085966D01*
X44030601Y-49030601D01*
X44085966Y-48947740D01*
X44100500Y-48874674D01*
X44100500Y-47913389D01*
X44439500Y-47913389D01*
X44439500Y-48086611D01*
X44466598Y-48257701D01*
X44520127Y-48422445D01*
X44598768Y-48576788D01*
X44700586Y-48716928D01*
X44823072Y-48839414D01*
X44963212Y-48941232D01*
X45117555Y-49019873D01*
X45282299Y-49073402D01*
X45453389Y-49100500D01*
X45453390Y-49100500D01*
X45626610Y-49100500D01*
X45626611Y-49100500D01*
X45797701Y-49073402D01*
X45962445Y-49019873D01*
X46116788Y-48941232D01*
X46256928Y-48839414D01*
X46379414Y-48716928D01*
X46481232Y-48576788D01*
X46559873Y-48422445D01*
X46613402Y-48257701D01*
X46640500Y-48086611D01*
X46640500Y-47913389D01*
X46613402Y-47742299D01*
X46559873Y-47577555D01*
X46481232Y-47423212D01*
X46379414Y-47283072D01*
X46256928Y-47160586D01*
X46116788Y-47058768D01*
X45962445Y-46980127D01*
X45797701Y-46926598D01*
X45797699Y-46926597D01*
X45797698Y-46926597D01*
X45666271Y-46905781D01*
X45626611Y-46899500D01*
X45453389Y-46899500D01*
X45413728Y-46905781D01*
X45282302Y-46926597D01*
X45117552Y-46980128D01*
X44963211Y-47058768D01*
X44883256Y-47116859D01*
X44823072Y-47160586D01*
X44823070Y-47160588D01*
X44823069Y-47160588D01*
X44700588Y-47283069D01*
X44700588Y-47283070D01*
X44700586Y-47283072D01*
X44657142Y-47342868D01*
X44598768Y-47423211D01*
X44520128Y-47577552D01*
X44466597Y-47742302D01*
X44462304Y-47769409D01*
X44439500Y-47913389D01*
X44100500Y-47913389D01*
X44100500Y-47125326D01*
X44100500Y-47125323D01*
X44100499Y-47125321D01*
X44085967Y-47052264D01*
X44085966Y-47052260D01*
X44064394Y-47019975D01*
X44030601Y-46969399D01*
X43947740Y-46914034D01*
X43947739Y-46914033D01*
X43947735Y-46914032D01*
X43874677Y-46899500D01*
X43874674Y-46899500D01*
X42125326Y-46899500D01*
X42125323Y-46899500D01*
X42052264Y-46914032D01*
X42052260Y-46914033D01*
X41969399Y-46969399D01*
X41914033Y-47052260D01*
X41914032Y-47052264D01*
X41899500Y-47125321D01*
X34627968Y-47125321D01*
X34606212Y-47058363D01*
X34606211Y-47058360D01*
X34566349Y-46980128D01*
X34523996Y-46897006D01*
X34490207Y-46850499D01*
X34417558Y-46750505D01*
X34417554Y-46750500D01*
X34289499Y-46622445D01*
X34289494Y-46622441D01*
X34142997Y-46516006D01*
X34142996Y-46516005D01*
X34142994Y-46516004D01*
X34091300Y-46489664D01*
X33981639Y-46433788D01*
X33981636Y-46433787D01*
X33809410Y-46377829D01*
X33630551Y-46349500D01*
X33630546Y-46349500D01*
X33449454Y-46349500D01*
X33449449Y-46349500D01*
X33270589Y-46377829D01*
X33098363Y-46433787D01*
X33098360Y-46433788D01*
X32937002Y-46516006D01*
X32790505Y-46622441D01*
X32790500Y-46622445D01*
X32662445Y-46750500D01*
X32662441Y-46750505D01*
X32556006Y-46897002D01*
X32473788Y-47058360D01*
X32473787Y-47058363D01*
X32417829Y-47230589D01*
X32396973Y-47362266D01*
X32367044Y-47425401D01*
X32307732Y-47462332D01*
X32237869Y-47461334D01*
X32179637Y-47422724D01*
X32151523Y-47358760D01*
X32150500Y-47342868D01*
X32150500Y-46575323D01*
X32150499Y-46575321D01*
X32135967Y-46502264D01*
X32135966Y-46502260D01*
X32080601Y-46419399D01*
X31997740Y-46364034D01*
X31997739Y-46364033D01*
X31997735Y-46364032D01*
X31924677Y-46349500D01*
X31924674Y-46349500D01*
X30075326Y-46349500D01*
X30075323Y-46349500D01*
X30002264Y-46364032D01*
X30002260Y-46364033D01*
X29919399Y-46419399D01*
X29864033Y-46502260D01*
X29864032Y-46502264D01*
X29849500Y-46575321D01*
X27343795Y-46575321D01*
X27314646Y-46546172D01*
X27155405Y-46430476D01*
X27133665Y-46419399D01*
X26980029Y-46341117D01*
X26792826Y-46280290D01*
X26598422Y-46249500D01*
X26598417Y-46249500D01*
X26401583Y-46249500D01*
X26401578Y-46249500D01*
X26207173Y-46280290D01*
X26019970Y-46341117D01*
X25844594Y-46430476D01*
X25753741Y-46496485D01*
X25685354Y-46546172D01*
X25685352Y-46546174D01*
X25685351Y-46546174D01*
X25546174Y-46685351D01*
X25546174Y-46685352D01*
X25546172Y-46685354D01*
X25498841Y-46750499D01*
X25430476Y-46844594D01*
X25341117Y-47019970D01*
X25280290Y-47207173D01*
X25249500Y-47401577D01*
X21250500Y-47401577D01*
X21219709Y-47207173D01*
X21191487Y-47120317D01*
X21158884Y-47019975D01*
X21158882Y-47019972D01*
X21158882Y-47019970D01*
X21097499Y-46899500D01*
X21069524Y-46844595D01*
X20953828Y-46685354D01*
X20814646Y-46546172D01*
X20655405Y-46430476D01*
X20633665Y-46419399D01*
X20480029Y-46341117D01*
X20292826Y-46280290D01*
X20098422Y-46249500D01*
X20098417Y-46249500D01*
X19901583Y-46249500D01*
X19901578Y-46249500D01*
X19707173Y-46280290D01*
X19519970Y-46341117D01*
X19344594Y-46430476D01*
X19253741Y-46496485D01*
X19185354Y-46546172D01*
X19185352Y-46546174D01*
X19185351Y-46546174D01*
X19046174Y-46685351D01*
X19046174Y-46685352D01*
X19046172Y-46685354D01*
X18998841Y-46750499D01*
X18930476Y-46844594D01*
X18841117Y-47019970D01*
X18780290Y-47207173D01*
X18749500Y-47401577D01*
X16750500Y-47401577D01*
X16719709Y-47207173D01*
X16691487Y-47120317D01*
X16658884Y-47019975D01*
X16658882Y-47019972D01*
X16658882Y-47019970D01*
X16597499Y-46899500D01*
X16569524Y-46844595D01*
X16453828Y-46685354D01*
X16314646Y-46546172D01*
X16155405Y-46430476D01*
X16133665Y-46419399D01*
X15980029Y-46341117D01*
X15792826Y-46280290D01*
X15598422Y-46249500D01*
X15598417Y-46249500D01*
X15401583Y-46249500D01*
X15401578Y-46249500D01*
X15207173Y-46280290D01*
X15019970Y-46341117D01*
X14844594Y-46430476D01*
X14753741Y-46496485D01*
X14685354Y-46546172D01*
X14685352Y-46546174D01*
X14685351Y-46546174D01*
X14546174Y-46685351D01*
X14546174Y-46685352D01*
X14546172Y-46685354D01*
X14498841Y-46750499D01*
X14430476Y-46844594D01*
X14341117Y-47019970D01*
X14280290Y-47207173D01*
X14249500Y-47401577D01*
X10250500Y-47401577D01*
X10219709Y-47207173D01*
X10191487Y-47120317D01*
X10158884Y-47019975D01*
X10158882Y-47019972D01*
X10158882Y-47019970D01*
X10097499Y-46899500D01*
X10069524Y-46844595D01*
X9953828Y-46685354D01*
X9814646Y-46546172D01*
X9655405Y-46430476D01*
X9633665Y-46419399D01*
X9480029Y-46341117D01*
X9292826Y-46280290D01*
X9098422Y-46249500D01*
X9098417Y-46249500D01*
X8901583Y-46249500D01*
X8901578Y-46249500D01*
X8707173Y-46280290D01*
X8519970Y-46341117D01*
X8344594Y-46430476D01*
X8253741Y-46496485D01*
X8185354Y-46546172D01*
X8185352Y-46546174D01*
X8185351Y-46546174D01*
X8046174Y-46685351D01*
X8046174Y-46685352D01*
X8046172Y-46685354D01*
X7998841Y-46750499D01*
X7930476Y-46844594D01*
X7841117Y-47019970D01*
X7780290Y-47207173D01*
X7749500Y-47401577D01*
X600000Y-47401577D01*
X600000Y-45916228D01*
X115149500Y-45916228D01*
X115149500Y-46083771D01*
X115182182Y-46248074D01*
X115182184Y-46248082D01*
X115246295Y-46402860D01*
X115339373Y-46542162D01*
X115457837Y-46660626D01*
X115550494Y-46722537D01*
X115597137Y-46753703D01*
X115751918Y-46817816D01*
X115916228Y-46850499D01*
X115916232Y-46850500D01*
X115916233Y-46850500D01*
X116083768Y-46850500D01*
X116083769Y-46850499D01*
X116248082Y-46817816D01*
X116402863Y-46753703D01*
X116542162Y-46660626D01*
X116660626Y-46542162D01*
X116753703Y-46402863D01*
X116817816Y-46248082D01*
X116850500Y-46083767D01*
X116850500Y-45916233D01*
X116817816Y-45751918D01*
X116753703Y-45597137D01*
X116722537Y-45550494D01*
X116660626Y-45457837D01*
X116542162Y-45339373D01*
X116402860Y-45246295D01*
X116248082Y-45182184D01*
X116248074Y-45182182D01*
X116083771Y-45149500D01*
X116083767Y-45149500D01*
X115916233Y-45149500D01*
X115916228Y-45149500D01*
X115751925Y-45182182D01*
X115751917Y-45182184D01*
X115597139Y-45246295D01*
X115457837Y-45339373D01*
X115339373Y-45457837D01*
X115246295Y-45597139D01*
X115182184Y-45751917D01*
X115182182Y-45751925D01*
X115149500Y-45916228D01*
X600000Y-45916228D01*
X600000Y-43855625D01*
X45761000Y-43855625D01*
X45761000Y-44000575D01*
X45797279Y-44135967D01*
X45798517Y-44140588D01*
X45870988Y-44266111D01*
X45870990Y-44266113D01*
X45870991Y-44266115D01*
X45973485Y-44368609D01*
X45973486Y-44368610D01*
X45973488Y-44368611D01*
X46099011Y-44441082D01*
X46099012Y-44441082D01*
X46099015Y-44441084D01*
X46239025Y-44478600D01*
X46239028Y-44478600D01*
X46383972Y-44478600D01*
X46383975Y-44478600D01*
X46523985Y-44441084D01*
X46649515Y-44368609D01*
X46752009Y-44266115D01*
X46824484Y-44140585D01*
X46862000Y-44000575D01*
X46862000Y-43855625D01*
X46824484Y-43715615D01*
X46752009Y-43590085D01*
X46649515Y-43487591D01*
X46649513Y-43487590D01*
X46649511Y-43487588D01*
X46523988Y-43415117D01*
X46523989Y-43415117D01*
X46512506Y-43412040D01*
X46383975Y-43377600D01*
X46239025Y-43377600D01*
X46110493Y-43412040D01*
X46099011Y-43415117D01*
X45973488Y-43487588D01*
X45973482Y-43487593D01*
X45870993Y-43590082D01*
X45870988Y-43590088D01*
X45798517Y-43715611D01*
X45798516Y-43715615D01*
X45761000Y-43855625D01*
X600000Y-43855625D01*
X600000Y-42075321D01*
X106849500Y-42075321D01*
X106849500Y-43924678D01*
X106864032Y-43997735D01*
X106864033Y-43997739D01*
X106864034Y-43997740D01*
X106919399Y-44080601D01*
X106981614Y-44122171D01*
X107002260Y-44135966D01*
X107002264Y-44135967D01*
X107075321Y-44150499D01*
X107075324Y-44150500D01*
X107075326Y-44150500D01*
X108924676Y-44150500D01*
X108924677Y-44150499D01*
X108997740Y-44135966D01*
X109080601Y-44080601D01*
X109135966Y-43997740D01*
X109150500Y-43924674D01*
X109150500Y-43157131D01*
X109170185Y-43090092D01*
X109222989Y-43044337D01*
X109292147Y-43034393D01*
X109355703Y-43063418D01*
X109393477Y-43122196D01*
X109396973Y-43137733D01*
X109417829Y-43269410D01*
X109473787Y-43441636D01*
X109473788Y-43441639D01*
X109529664Y-43551300D01*
X109549426Y-43590085D01*
X109556006Y-43602997D01*
X109662441Y-43749494D01*
X109662445Y-43749499D01*
X109790500Y-43877554D01*
X109790505Y-43877558D01*
X109855361Y-43924678D01*
X109937006Y-43983996D01*
X110042484Y-44037740D01*
X110098360Y-44066211D01*
X110098363Y-44066212D01*
X110184476Y-44094191D01*
X110270591Y-44122171D01*
X110353429Y-44135291D01*
X110449449Y-44150500D01*
X110449454Y-44150500D01*
X110630551Y-44150500D01*
X110722310Y-44135966D01*
X110809409Y-44122171D01*
X110981639Y-44066211D01*
X111142994Y-43983996D01*
X111289501Y-43877553D01*
X111417553Y-43749501D01*
X111523996Y-43602994D01*
X111606211Y-43441639D01*
X111662171Y-43269409D01*
X111679954Y-43157131D01*
X111690500Y-43090551D01*
X111690500Y-42909448D01*
X111674019Y-42805397D01*
X111662171Y-42730591D01*
X111606211Y-42558361D01*
X111606211Y-42558360D01*
X111577740Y-42502484D01*
X111523996Y-42397006D01*
X111510396Y-42378287D01*
X111417558Y-42250505D01*
X111417554Y-42250500D01*
X111289499Y-42122445D01*
X111289494Y-42122441D01*
X111142997Y-42016006D01*
X111142996Y-42016005D01*
X111142994Y-42016004D01*
X111091300Y-41989664D01*
X110981639Y-41933788D01*
X110981636Y-41933787D01*
X110809410Y-41877829D01*
X110630551Y-41849500D01*
X110630546Y-41849500D01*
X110449454Y-41849500D01*
X110449449Y-41849500D01*
X110270589Y-41877829D01*
X110098363Y-41933787D01*
X110098360Y-41933788D01*
X109937002Y-42016006D01*
X109790505Y-42122441D01*
X109790500Y-42122445D01*
X109662445Y-42250500D01*
X109662441Y-42250505D01*
X109556006Y-42397002D01*
X109473788Y-42558360D01*
X109473787Y-42558363D01*
X109417829Y-42730589D01*
X109396973Y-42862266D01*
X109367044Y-42925401D01*
X109307732Y-42962332D01*
X109237869Y-42961334D01*
X109179637Y-42922724D01*
X109151523Y-42858760D01*
X109150500Y-42842868D01*
X109150500Y-42075323D01*
X109150499Y-42075321D01*
X109135967Y-42002264D01*
X109135966Y-42002260D01*
X109080601Y-41919399D01*
X108997740Y-41864034D01*
X108997739Y-41864033D01*
X108997735Y-41864032D01*
X108924677Y-41849500D01*
X108924674Y-41849500D01*
X107075326Y-41849500D01*
X107075323Y-41849500D01*
X107002264Y-41864032D01*
X107002260Y-41864033D01*
X106919399Y-41919399D01*
X106864033Y-42002260D01*
X106864032Y-42002264D01*
X106849500Y-42075321D01*
X600000Y-42075321D01*
X600000Y-39514225D01*
X33835500Y-39514225D01*
X33835500Y-39659175D01*
X33873016Y-39799185D01*
X33873017Y-39799188D01*
X33945488Y-39924711D01*
X33945490Y-39924713D01*
X33945491Y-39924715D01*
X34047985Y-40027209D01*
X34047986Y-40027210D01*
X34047988Y-40027211D01*
X34173511Y-40099682D01*
X34173512Y-40099682D01*
X34173515Y-40099684D01*
X34313525Y-40137200D01*
X34313528Y-40137200D01*
X34458472Y-40137200D01*
X34458475Y-40137200D01*
X34598485Y-40099684D01*
X34724015Y-40027209D01*
X34826509Y-39924715D01*
X34898984Y-39799185D01*
X34936500Y-39659175D01*
X34936500Y-39514225D01*
X34898984Y-39374215D01*
X34826509Y-39248685D01*
X34724015Y-39146191D01*
X34724013Y-39146190D01*
X34724011Y-39146188D01*
X34598488Y-39073717D01*
X34598489Y-39073717D01*
X34587006Y-39070640D01*
X34458475Y-39036200D01*
X34313525Y-39036200D01*
X34184993Y-39070640D01*
X34173511Y-39073717D01*
X34047988Y-39146188D01*
X34047982Y-39146193D01*
X33945493Y-39248682D01*
X33945488Y-39248688D01*
X33873017Y-39374211D01*
X33873016Y-39374215D01*
X33835500Y-39514225D01*
X600000Y-39514225D01*
X600000Y-38102135D01*
X20874500Y-38102135D01*
X20874500Y-38897870D01*
X20874501Y-38897876D01*
X20880908Y-38957483D01*
X20931202Y-39092328D01*
X20931206Y-39092335D01*
X21017452Y-39207544D01*
X21017455Y-39207547D01*
X21132664Y-39293793D01*
X21132671Y-39293797D01*
X21267517Y-39344091D01*
X21267516Y-39344091D01*
X21274444Y-39344835D01*
X21327127Y-39350500D01*
X22672872Y-39350499D01*
X22732483Y-39344091D01*
X22867331Y-39293796D01*
X22982546Y-39207546D01*
X23068796Y-39092331D01*
X23119091Y-38957483D01*
X23125500Y-38897873D01*
X23125499Y-38102128D01*
X23119091Y-38042517D01*
X23100374Y-37992335D01*
X23068797Y-37907671D01*
X23068793Y-37907664D01*
X22982547Y-37792455D01*
X22982544Y-37792452D01*
X22867335Y-37706206D01*
X22867328Y-37706202D01*
X22732482Y-37655908D01*
X22732483Y-37655908D01*
X22672883Y-37649501D01*
X22672881Y-37649500D01*
X22672873Y-37649500D01*
X22672864Y-37649500D01*
X21327129Y-37649500D01*
X21327123Y-37649501D01*
X21267516Y-37655908D01*
X21132671Y-37706202D01*
X21132664Y-37706206D01*
X21017455Y-37792452D01*
X21017452Y-37792455D01*
X20931206Y-37907664D01*
X20931202Y-37907671D01*
X20880908Y-38042517D01*
X20878005Y-38069523D01*
X20874501Y-38102123D01*
X20874500Y-38102135D01*
X600000Y-38102135D01*
X600000Y-36416228D01*
X20874500Y-36416228D01*
X20874500Y-36583771D01*
X20907182Y-36748074D01*
X20907184Y-36748082D01*
X20971295Y-36902860D01*
X21064373Y-37042162D01*
X21182837Y-37160626D01*
X21275494Y-37222537D01*
X21322137Y-37253703D01*
X21476918Y-37317816D01*
X21641228Y-37350499D01*
X21641232Y-37350500D01*
X21641233Y-37350500D01*
X22358768Y-37350500D01*
X22358769Y-37350499D01*
X22523082Y-37317816D01*
X22677863Y-37253703D01*
X22817162Y-37160626D01*
X22935626Y-37042162D01*
X23028703Y-36902863D01*
X23092816Y-36748082D01*
X23125500Y-36583767D01*
X23125500Y-36416233D01*
X23092816Y-36251918D01*
X23028703Y-36097137D01*
X22997537Y-36050494D01*
X22935626Y-35957837D01*
X22817162Y-35839373D01*
X22677860Y-35746295D01*
X22598364Y-35713367D01*
X22523082Y-35682184D01*
X22523074Y-35682182D01*
X22358771Y-35649500D01*
X22358767Y-35649500D01*
X21641233Y-35649500D01*
X21641228Y-35649500D01*
X21476925Y-35682182D01*
X21476917Y-35682184D01*
X21322139Y-35746295D01*
X21182837Y-35839373D01*
X21064373Y-35957837D01*
X20971295Y-36097139D01*
X20907184Y-36251917D01*
X20907182Y-36251925D01*
X20874500Y-36416228D01*
X600000Y-36416228D01*
X600000Y-35602135D01*
X31874500Y-35602135D01*
X31874500Y-36397870D01*
X31874501Y-36397876D01*
X31880908Y-36457483D01*
X31931202Y-36592328D01*
X31931206Y-36592335D01*
X32017452Y-36707544D01*
X32017455Y-36707547D01*
X32132664Y-36793793D01*
X32132671Y-36793797D01*
X32267517Y-36844091D01*
X32267516Y-36844091D01*
X32274444Y-36844835D01*
X32327127Y-36850500D01*
X33672872Y-36850499D01*
X33732483Y-36844091D01*
X33867331Y-36793796D01*
X33982546Y-36707546D01*
X34068796Y-36592331D01*
X34119091Y-36457483D01*
X34125500Y-36397873D01*
X34125499Y-35602128D01*
X34119091Y-35542517D01*
X34109835Y-35517701D01*
X34068797Y-35407671D01*
X34068793Y-35407664D01*
X33982547Y-35292455D01*
X33949590Y-35267783D01*
X33867330Y-35206203D01*
X33867328Y-35206202D01*
X33779351Y-35173389D01*
X53899500Y-35173389D01*
X53899500Y-35346611D01*
X53926598Y-35517701D01*
X53980127Y-35682445D01*
X54058768Y-35836788D01*
X54160586Y-35976928D01*
X54283072Y-36099414D01*
X54423212Y-36201232D01*
X54577555Y-36279873D01*
X54742299Y-36333402D01*
X54913389Y-36360500D01*
X54913390Y-36360500D01*
X55086610Y-36360500D01*
X55086611Y-36360500D01*
X55257701Y-36333402D01*
X55422445Y-36279873D01*
X55576788Y-36201232D01*
X55716928Y-36099414D01*
X55839414Y-35976928D01*
X55941232Y-35836788D01*
X56019873Y-35682445D01*
X56073402Y-35517701D01*
X56100500Y-35346611D01*
X56100500Y-35173389D01*
X56439500Y-35173389D01*
X56439500Y-35346611D01*
X56466598Y-35517701D01*
X56520127Y-35682445D01*
X56598768Y-35836788D01*
X56700586Y-35976928D01*
X56823072Y-36099414D01*
X56963212Y-36201232D01*
X57117555Y-36279873D01*
X57282299Y-36333402D01*
X57453389Y-36360500D01*
X57453390Y-36360500D01*
X57626610Y-36360500D01*
X57626611Y-36360500D01*
X57797701Y-36333402D01*
X57962445Y-36279873D01*
X58116788Y-36201232D01*
X58256928Y-36099414D01*
X58379414Y-35976928D01*
X58481232Y-35836788D01*
X58559873Y-35682445D01*
X58613402Y-35517701D01*
X58640500Y-35346611D01*
X58640500Y-35173389D01*
X58979500Y-35173389D01*
X58979500Y-35346611D01*
X59006598Y-35517701D01*
X59060127Y-35682445D01*
X59138768Y-35836788D01*
X59240586Y-35976928D01*
X59363072Y-36099414D01*
X59503212Y-36201232D01*
X59657555Y-36279873D01*
X59822299Y-36333402D01*
X59993389Y-36360500D01*
X59993390Y-36360500D01*
X60166610Y-36360500D01*
X60166611Y-36360500D01*
X60337701Y-36333402D01*
X60502445Y-36279873D01*
X60656788Y-36201232D01*
X60796928Y-36099414D01*
X60919414Y-35976928D01*
X61021232Y-35836788D01*
X61099873Y-35682445D01*
X61153402Y-35517701D01*
X61180500Y-35346611D01*
X61180500Y-35173389D01*
X61519500Y-35173389D01*
X61519500Y-35346611D01*
X61546598Y-35517701D01*
X61600127Y-35682445D01*
X61678768Y-35836788D01*
X61780586Y-35976928D01*
X61903072Y-36099414D01*
X62043212Y-36201232D01*
X62197555Y-36279873D01*
X62362299Y-36333402D01*
X62533389Y-36360500D01*
X62533390Y-36360500D01*
X62706610Y-36360500D01*
X62706611Y-36360500D01*
X62877701Y-36333402D01*
X63042445Y-36279873D01*
X63196788Y-36201232D01*
X63336928Y-36099414D01*
X63459414Y-35976928D01*
X63561232Y-35836788D01*
X63639873Y-35682445D01*
X63693402Y-35517701D01*
X63720500Y-35346611D01*
X63720500Y-35173389D01*
X64059500Y-35173389D01*
X64059500Y-35346611D01*
X64086598Y-35517701D01*
X64140127Y-35682445D01*
X64218768Y-35836788D01*
X64320586Y-35976928D01*
X64443072Y-36099414D01*
X64583212Y-36201232D01*
X64737555Y-36279873D01*
X64902299Y-36333402D01*
X65073389Y-36360500D01*
X65073390Y-36360500D01*
X65246610Y-36360500D01*
X65246611Y-36360500D01*
X65417701Y-36333402D01*
X65582445Y-36279873D01*
X65736788Y-36201232D01*
X65876928Y-36099414D01*
X65999414Y-35976928D01*
X66101232Y-35836788D01*
X66179873Y-35682445D01*
X66233402Y-35517701D01*
X66260500Y-35346611D01*
X66260500Y-35173389D01*
X66599500Y-35173389D01*
X66599500Y-35346611D01*
X66626598Y-35517701D01*
X66680127Y-35682445D01*
X66758768Y-35836788D01*
X66860586Y-35976928D01*
X66983072Y-36099414D01*
X67123212Y-36201232D01*
X67277555Y-36279873D01*
X67442299Y-36333402D01*
X67613389Y-36360500D01*
X67613390Y-36360500D01*
X67786610Y-36360500D01*
X67786611Y-36360500D01*
X67957701Y-36333402D01*
X68122445Y-36279873D01*
X68276788Y-36201232D01*
X68416928Y-36099414D01*
X68539414Y-35976928D01*
X68641232Y-35836788D01*
X68719873Y-35682445D01*
X68773402Y-35517701D01*
X68800500Y-35346611D01*
X68800500Y-35173389D01*
X69139500Y-35173389D01*
X69139500Y-35346611D01*
X69166598Y-35517701D01*
X69220127Y-35682445D01*
X69298768Y-35836788D01*
X69400586Y-35976928D01*
X69523072Y-36099414D01*
X69663212Y-36201232D01*
X69817555Y-36279873D01*
X69982299Y-36333402D01*
X70153389Y-36360500D01*
X70153390Y-36360500D01*
X70326610Y-36360500D01*
X70326611Y-36360500D01*
X70497701Y-36333402D01*
X70662445Y-36279873D01*
X70816788Y-36201232D01*
X70956928Y-36099414D01*
X71079414Y-35976928D01*
X71181232Y-35836788D01*
X71259873Y-35682445D01*
X71313402Y-35517701D01*
X71340500Y-35346611D01*
X71340500Y-35173389D01*
X71679500Y-35173389D01*
X71679500Y-35346611D01*
X71706598Y-35517701D01*
X71760127Y-35682445D01*
X71838768Y-35836788D01*
X71940586Y-35976928D01*
X72063072Y-36099414D01*
X72203212Y-36201232D01*
X72357555Y-36279873D01*
X72522299Y-36333402D01*
X72693389Y-36360500D01*
X72693390Y-36360500D01*
X72866610Y-36360500D01*
X72866611Y-36360500D01*
X73037701Y-36333402D01*
X73202445Y-36279873D01*
X73356788Y-36201232D01*
X73496928Y-36099414D01*
X73619414Y-35976928D01*
X73721232Y-35836788D01*
X73799873Y-35682445D01*
X73853402Y-35517701D01*
X73880500Y-35346611D01*
X73880500Y-35173389D01*
X74219500Y-35173389D01*
X74219500Y-35346611D01*
X74246598Y-35517701D01*
X74300127Y-35682445D01*
X74378768Y-35836788D01*
X74480586Y-35976928D01*
X74603072Y-36099414D01*
X74743212Y-36201232D01*
X74897555Y-36279873D01*
X75062299Y-36333402D01*
X75233389Y-36360500D01*
X75233390Y-36360500D01*
X75406610Y-36360500D01*
X75406611Y-36360500D01*
X75577701Y-36333402D01*
X75742445Y-36279873D01*
X75896788Y-36201232D01*
X76036928Y-36099414D01*
X76159414Y-35976928D01*
X76261232Y-35836788D01*
X76339873Y-35682445D01*
X76393402Y-35517701D01*
X76420500Y-35346611D01*
X76420500Y-35173389D01*
X76759500Y-35173389D01*
X76759500Y-35346611D01*
X76786598Y-35517701D01*
X76840127Y-35682445D01*
X76918768Y-35836788D01*
X77020586Y-35976928D01*
X77143072Y-36099414D01*
X77283212Y-36201232D01*
X77437555Y-36279873D01*
X77602299Y-36333402D01*
X77773389Y-36360500D01*
X77773390Y-36360500D01*
X77946610Y-36360500D01*
X77946611Y-36360500D01*
X78117701Y-36333402D01*
X78282445Y-36279873D01*
X78436788Y-36201232D01*
X78576928Y-36099414D01*
X78699414Y-35976928D01*
X78801232Y-35836788D01*
X78879873Y-35682445D01*
X78933402Y-35517701D01*
X78960500Y-35346611D01*
X78960500Y-35173389D01*
X79299500Y-35173389D01*
X79299500Y-35346611D01*
X79326598Y-35517701D01*
X79380127Y-35682445D01*
X79458768Y-35836788D01*
X79560586Y-35976928D01*
X79683072Y-36099414D01*
X79823212Y-36201232D01*
X79977555Y-36279873D01*
X80142299Y-36333402D01*
X80313389Y-36360500D01*
X80313390Y-36360500D01*
X80486610Y-36360500D01*
X80486611Y-36360500D01*
X80657701Y-36333402D01*
X80822445Y-36279873D01*
X80976788Y-36201232D01*
X81116928Y-36099414D01*
X81239414Y-35976928D01*
X81341232Y-35836788D01*
X81419873Y-35682445D01*
X81473402Y-35517701D01*
X81500500Y-35346611D01*
X81500500Y-35173389D01*
X81839500Y-35173389D01*
X81839500Y-35346611D01*
X81866598Y-35517701D01*
X81920127Y-35682445D01*
X81998768Y-35836788D01*
X82100586Y-35976928D01*
X82223072Y-36099414D01*
X82363212Y-36201232D01*
X82517555Y-36279873D01*
X82682299Y-36333402D01*
X82853389Y-36360500D01*
X82853390Y-36360500D01*
X83026610Y-36360500D01*
X83026611Y-36360500D01*
X83197701Y-36333402D01*
X83362445Y-36279873D01*
X83516788Y-36201232D01*
X83656928Y-36099414D01*
X83779414Y-35976928D01*
X83881232Y-35836788D01*
X83959873Y-35682445D01*
X84013402Y-35517701D01*
X84040500Y-35346611D01*
X84040500Y-35173389D01*
X84013402Y-35002299D01*
X83959873Y-34837555D01*
X83881232Y-34683212D01*
X83779414Y-34543072D01*
X83656928Y-34420586D01*
X83608390Y-34385321D01*
X84379500Y-34385321D01*
X84379500Y-36134678D01*
X84394032Y-36207735D01*
X84394033Y-36207739D01*
X84394034Y-36207740D01*
X84449399Y-36290601D01*
X84530207Y-36344594D01*
X84532260Y-36345966D01*
X84532264Y-36345967D01*
X84605321Y-36360499D01*
X84605324Y-36360500D01*
X84605326Y-36360500D01*
X86354676Y-36360500D01*
X86354677Y-36360499D01*
X86427740Y-36345966D01*
X86510601Y-36290601D01*
X86565966Y-36207740D01*
X86580500Y-36134674D01*
X86580500Y-34900013D01*
X106700000Y-34900013D01*
X106700000Y-35250000D01*
X107684314Y-35250000D01*
X107679920Y-35254394D01*
X107627259Y-35345606D01*
X107600000Y-35447339D01*
X107600000Y-35552661D01*
X107627259Y-35654394D01*
X107679920Y-35745606D01*
X107684314Y-35750000D01*
X106700001Y-35750000D01*
X106700001Y-36099986D01*
X106710494Y-36202697D01*
X106765641Y-36369119D01*
X106765643Y-36369124D01*
X106857684Y-36518345D01*
X106981654Y-36642315D01*
X107130875Y-36734356D01*
X107130880Y-36734358D01*
X107297302Y-36789505D01*
X107297309Y-36789506D01*
X107400019Y-36799999D01*
X107749999Y-36799999D01*
X107750000Y-36799998D01*
X107750000Y-35815686D01*
X107754394Y-35820080D01*
X107845606Y-35872741D01*
X107947339Y-35900000D01*
X108052661Y-35900000D01*
X108154394Y-35872741D01*
X108245606Y-35820080D01*
X108250000Y-35815686D01*
X108250000Y-36799999D01*
X108599972Y-36799999D01*
X108599986Y-36799998D01*
X108702697Y-36789505D01*
X108869119Y-36734358D01*
X108869124Y-36734356D01*
X109018345Y-36642315D01*
X109142317Y-36518343D01*
X109218076Y-36395518D01*
X109270024Y-36348793D01*
X109338986Y-36337570D01*
X109392505Y-36357511D01*
X109427271Y-36380740D01*
X109502402Y-36430941D01*
X109693580Y-36510130D01*
X109896530Y-36550499D01*
X109896534Y-36550500D01*
X109896535Y-36550500D01*
X110103466Y-36550500D01*
X110103467Y-36550499D01*
X110306420Y-36510130D01*
X110497598Y-36430941D01*
X110669655Y-36315977D01*
X110783497Y-36202135D01*
X114749500Y-36202135D01*
X114749500Y-37797870D01*
X114749501Y-37797876D01*
X114755908Y-37857483D01*
X114806202Y-37992328D01*
X114806206Y-37992335D01*
X114892452Y-38107544D01*
X114892455Y-38107547D01*
X115007664Y-38193793D01*
X115007671Y-38193797D01*
X115142517Y-38244091D01*
X115142516Y-38244091D01*
X115149444Y-38244835D01*
X115202127Y-38250500D01*
X116797872Y-38250499D01*
X116857483Y-38244091D01*
X116992331Y-38193796D01*
X117107546Y-38107546D01*
X117193796Y-37992331D01*
X117244091Y-37857483D01*
X117250500Y-37797873D01*
X117250499Y-36901577D01*
X119749500Y-36901577D01*
X119749500Y-37098422D01*
X119780290Y-37292826D01*
X119841117Y-37480029D01*
X119927467Y-37649500D01*
X119930476Y-37655405D01*
X120046172Y-37814646D01*
X120185354Y-37953828D01*
X120344595Y-38069524D01*
X120408598Y-38102135D01*
X120519970Y-38158882D01*
X120519972Y-38158882D01*
X120519975Y-38158884D01*
X120620317Y-38191487D01*
X120707173Y-38219709D01*
X120901578Y-38250500D01*
X120901583Y-38250500D01*
X121098422Y-38250500D01*
X121292826Y-38219709D01*
X121372574Y-38193797D01*
X121480025Y-38158884D01*
X121655405Y-38069524D01*
X121814646Y-37953828D01*
X121953828Y-37814646D01*
X122069524Y-37655405D01*
X122158884Y-37480025D01*
X122219709Y-37292826D01*
X122225905Y-37253704D01*
X122250500Y-37098422D01*
X122250500Y-36901577D01*
X122219709Y-36707173D01*
X122158882Y-36519970D01*
X122082022Y-36369124D01*
X122069524Y-36344595D01*
X121953828Y-36185354D01*
X121814646Y-36046172D01*
X121655405Y-35930476D01*
X121480029Y-35841117D01*
X121292826Y-35780290D01*
X121098422Y-35749500D01*
X121098417Y-35749500D01*
X120901583Y-35749500D01*
X120901578Y-35749500D01*
X120707173Y-35780290D01*
X120519970Y-35841117D01*
X120344594Y-35930476D01*
X120280658Y-35976929D01*
X120185354Y-36046172D01*
X120185352Y-36046174D01*
X120185351Y-36046174D01*
X120046174Y-36185351D01*
X120046174Y-36185352D01*
X120046172Y-36185354D01*
X120029908Y-36207740D01*
X119930476Y-36344594D01*
X119841117Y-36519970D01*
X119780290Y-36707173D01*
X119749500Y-36901577D01*
X117250499Y-36901577D01*
X117250499Y-36202128D01*
X117244091Y-36142517D01*
X117241167Y-36134678D01*
X117193797Y-36007671D01*
X117193793Y-36007664D01*
X117107547Y-35892455D01*
X117107544Y-35892452D01*
X116992335Y-35806206D01*
X116992328Y-35806202D01*
X116857482Y-35755908D01*
X116857483Y-35755908D01*
X116797883Y-35749501D01*
X116797881Y-35749500D01*
X116797873Y-35749500D01*
X116797864Y-35749500D01*
X115202129Y-35749500D01*
X115202123Y-35749501D01*
X115142516Y-35755908D01*
X115007671Y-35806202D01*
X115007664Y-35806206D01*
X114892455Y-35892452D01*
X114892452Y-35892455D01*
X114806206Y-36007664D01*
X114806202Y-36007671D01*
X114755908Y-36142517D01*
X114751303Y-36185354D01*
X114749501Y-36202123D01*
X114749500Y-36202135D01*
X110783497Y-36202135D01*
X110815977Y-36169655D01*
X110930941Y-35997598D01*
X111010130Y-35806420D01*
X111050500Y-35603465D01*
X111050500Y-35396535D01*
X111010130Y-35193580D01*
X110930941Y-35002402D01*
X110815977Y-34830345D01*
X110815975Y-34830342D01*
X110669657Y-34684024D01*
X110519616Y-34583771D01*
X110497598Y-34569059D01*
X110434855Y-34543070D01*
X110306420Y-34489870D01*
X110306412Y-34489868D01*
X110103469Y-34449500D01*
X110103465Y-34449500D01*
X109896535Y-34449500D01*
X109896530Y-34449500D01*
X109693587Y-34489868D01*
X109693579Y-34489870D01*
X109502400Y-34569059D01*
X109392506Y-34642488D01*
X109325829Y-34663366D01*
X109258449Y-34644881D01*
X109218077Y-34604483D01*
X109142315Y-34481654D01*
X109018345Y-34357684D01*
X108869124Y-34265643D01*
X108869119Y-34265641D01*
X108702697Y-34210494D01*
X108702690Y-34210493D01*
X108599986Y-34200000D01*
X108250000Y-34200000D01*
X108250000Y-35184314D01*
X108245606Y-35179920D01*
X108154394Y-35127259D01*
X108052661Y-35100000D01*
X107947339Y-35100000D01*
X107845606Y-35127259D01*
X107754394Y-35179920D01*
X107750000Y-35184314D01*
X107750000Y-34200000D01*
X107400028Y-34200000D01*
X107400012Y-34200001D01*
X107297302Y-34210494D01*
X107130880Y-34265641D01*
X107130875Y-34265643D01*
X106981654Y-34357684D01*
X106857684Y-34481654D01*
X106765643Y-34630875D01*
X106765641Y-34630880D01*
X106710494Y-34797302D01*
X106710493Y-34797309D01*
X106700000Y-34900013D01*
X86580500Y-34900013D01*
X86580500Y-34385326D01*
X86580500Y-34385323D01*
X86580499Y-34385321D01*
X86565967Y-34312264D01*
X86565966Y-34312260D01*
X86510601Y-34229399D01*
X86427740Y-34174034D01*
X86427739Y-34174033D01*
X86427735Y-34174032D01*
X86354677Y-34159500D01*
X86354674Y-34159500D01*
X84605326Y-34159500D01*
X84605323Y-34159500D01*
X84532264Y-34174032D01*
X84532260Y-34174033D01*
X84449399Y-34229399D01*
X84394033Y-34312260D01*
X84394032Y-34312264D01*
X84379500Y-34385321D01*
X83608390Y-34385321D01*
X83516788Y-34318768D01*
X83412523Y-34265643D01*
X83362447Y-34240128D01*
X83362446Y-34240127D01*
X83362445Y-34240127D01*
X83197701Y-34186598D01*
X83197699Y-34186597D01*
X83197698Y-34186597D01*
X83066271Y-34165781D01*
X83026611Y-34159500D01*
X82853389Y-34159500D01*
X82813728Y-34165781D01*
X82682302Y-34186597D01*
X82517552Y-34240128D01*
X82363211Y-34318768D01*
X82309649Y-34357684D01*
X82223072Y-34420586D01*
X82223070Y-34420588D01*
X82223069Y-34420588D01*
X82100588Y-34543069D01*
X82100588Y-34543070D01*
X82100586Y-34543072D01*
X82056859Y-34603256D01*
X81998768Y-34683211D01*
X81920128Y-34837552D01*
X81866597Y-35002302D01*
X81846806Y-35127259D01*
X81839500Y-35173389D01*
X81500500Y-35173389D01*
X81473402Y-35002299D01*
X81419873Y-34837555D01*
X81341232Y-34683212D01*
X81239414Y-34543072D01*
X81116928Y-34420586D01*
X80976788Y-34318768D01*
X80872523Y-34265643D01*
X80822447Y-34240128D01*
X80822446Y-34240127D01*
X80822445Y-34240127D01*
X80657701Y-34186598D01*
X80657699Y-34186597D01*
X80657698Y-34186597D01*
X80526271Y-34165781D01*
X80486611Y-34159500D01*
X80313389Y-34159500D01*
X80273728Y-34165781D01*
X80142302Y-34186597D01*
X79977552Y-34240128D01*
X79823211Y-34318768D01*
X79769649Y-34357684D01*
X79683072Y-34420586D01*
X79683070Y-34420588D01*
X79683069Y-34420588D01*
X79560588Y-34543069D01*
X79560588Y-34543070D01*
X79560586Y-34543072D01*
X79516859Y-34603256D01*
X79458768Y-34683211D01*
X79380128Y-34837552D01*
X79326597Y-35002302D01*
X79306806Y-35127259D01*
X79299500Y-35173389D01*
X78960500Y-35173389D01*
X78933402Y-35002299D01*
X78879873Y-34837555D01*
X78801232Y-34683212D01*
X78699414Y-34543072D01*
X78576928Y-34420586D01*
X78436788Y-34318768D01*
X78332523Y-34265643D01*
X78282447Y-34240128D01*
X78282446Y-34240127D01*
X78282445Y-34240127D01*
X78117701Y-34186598D01*
X78117699Y-34186597D01*
X78117698Y-34186597D01*
X77986271Y-34165781D01*
X77946611Y-34159500D01*
X77773389Y-34159500D01*
X77733728Y-34165781D01*
X77602302Y-34186597D01*
X77437552Y-34240128D01*
X77283211Y-34318768D01*
X77229649Y-34357684D01*
X77143072Y-34420586D01*
X77143070Y-34420588D01*
X77143069Y-34420588D01*
X77020588Y-34543069D01*
X77020588Y-34543070D01*
X77020586Y-34543072D01*
X76976859Y-34603256D01*
X76918768Y-34683211D01*
X76840128Y-34837552D01*
X76786597Y-35002302D01*
X76766806Y-35127259D01*
X76759500Y-35173389D01*
X76420500Y-35173389D01*
X76393402Y-35002299D01*
X76339873Y-34837555D01*
X76261232Y-34683212D01*
X76159414Y-34543072D01*
X76036928Y-34420586D01*
X75896788Y-34318768D01*
X75792523Y-34265643D01*
X75742447Y-34240128D01*
X75742446Y-34240127D01*
X75742445Y-34240127D01*
X75577701Y-34186598D01*
X75577699Y-34186597D01*
X75577698Y-34186597D01*
X75446271Y-34165781D01*
X75406611Y-34159500D01*
X75233389Y-34159500D01*
X75193728Y-34165781D01*
X75062302Y-34186597D01*
X74897552Y-34240128D01*
X74743211Y-34318768D01*
X74689649Y-34357684D01*
X74603072Y-34420586D01*
X74603070Y-34420588D01*
X74603069Y-34420588D01*
X74480588Y-34543069D01*
X74480588Y-34543070D01*
X74480586Y-34543072D01*
X74436859Y-34603256D01*
X74378768Y-34683211D01*
X74300128Y-34837552D01*
X74246597Y-35002302D01*
X74226806Y-35127259D01*
X74219500Y-35173389D01*
X73880500Y-35173389D01*
X73853402Y-35002299D01*
X73799873Y-34837555D01*
X73721232Y-34683212D01*
X73619414Y-34543072D01*
X73496928Y-34420586D01*
X73356788Y-34318768D01*
X73252523Y-34265643D01*
X73202447Y-34240128D01*
X73202446Y-34240127D01*
X73202445Y-34240127D01*
X73037701Y-34186598D01*
X73037699Y-34186597D01*
X73037698Y-34186597D01*
X72906271Y-34165781D01*
X72866611Y-34159500D01*
X72693389Y-34159500D01*
X72653728Y-34165781D01*
X72522302Y-34186597D01*
X72357552Y-34240128D01*
X72203211Y-34318768D01*
X72149649Y-34357684D01*
X72063072Y-34420586D01*
X72063070Y-34420588D01*
X72063069Y-34420588D01*
X71940588Y-34543069D01*
X71940588Y-34543070D01*
X71940586Y-34543072D01*
X71896859Y-34603256D01*
X71838768Y-34683211D01*
X71760128Y-34837552D01*
X71706597Y-35002302D01*
X71686806Y-35127259D01*
X71679500Y-35173389D01*
X71340500Y-35173389D01*
X71313402Y-35002299D01*
X71259873Y-34837555D01*
X71181232Y-34683212D01*
X71079414Y-34543072D01*
X70956928Y-34420586D01*
X70816788Y-34318768D01*
X70712523Y-34265643D01*
X70662447Y-34240128D01*
X70662446Y-34240127D01*
X70662445Y-34240127D01*
X70497701Y-34186598D01*
X70497699Y-34186597D01*
X70497698Y-34186597D01*
X70366271Y-34165781D01*
X70326611Y-34159500D01*
X70153389Y-34159500D01*
X70113728Y-34165781D01*
X69982302Y-34186597D01*
X69817552Y-34240128D01*
X69663211Y-34318768D01*
X69609649Y-34357684D01*
X69523072Y-34420586D01*
X69523070Y-34420588D01*
X69523069Y-34420588D01*
X69400588Y-34543069D01*
X69400588Y-34543070D01*
X69400586Y-34543072D01*
X69356859Y-34603256D01*
X69298768Y-34683211D01*
X69220128Y-34837552D01*
X69166597Y-35002302D01*
X69146806Y-35127259D01*
X69139500Y-35173389D01*
X68800500Y-35173389D01*
X68773402Y-35002299D01*
X68719873Y-34837555D01*
X68641232Y-34683212D01*
X68539414Y-34543072D01*
X68416928Y-34420586D01*
X68276788Y-34318768D01*
X68172523Y-34265643D01*
X68122447Y-34240128D01*
X68122446Y-34240127D01*
X68122445Y-34240127D01*
X67957701Y-34186598D01*
X67957699Y-34186597D01*
X67957698Y-34186597D01*
X67826271Y-34165781D01*
X67786611Y-34159500D01*
X67613389Y-34159500D01*
X67573728Y-34165781D01*
X67442302Y-34186597D01*
X67277552Y-34240128D01*
X67123211Y-34318768D01*
X67069649Y-34357684D01*
X66983072Y-34420586D01*
X66983070Y-34420588D01*
X66983069Y-34420588D01*
X66860588Y-34543069D01*
X66860588Y-34543070D01*
X66860586Y-34543072D01*
X66816859Y-34603256D01*
X66758768Y-34683211D01*
X66680128Y-34837552D01*
X66626597Y-35002302D01*
X66606806Y-35127259D01*
X66599500Y-35173389D01*
X66260500Y-35173389D01*
X66233402Y-35002299D01*
X66179873Y-34837555D01*
X66101232Y-34683212D01*
X65999414Y-34543072D01*
X65876928Y-34420586D01*
X65736788Y-34318768D01*
X65632523Y-34265643D01*
X65582447Y-34240128D01*
X65582446Y-34240127D01*
X65582445Y-34240127D01*
X65417701Y-34186598D01*
X65417699Y-34186597D01*
X65417698Y-34186597D01*
X65286271Y-34165781D01*
X65246611Y-34159500D01*
X65073389Y-34159500D01*
X65033728Y-34165781D01*
X64902302Y-34186597D01*
X64737552Y-34240128D01*
X64583211Y-34318768D01*
X64529649Y-34357684D01*
X64443072Y-34420586D01*
X64443070Y-34420588D01*
X64443069Y-34420588D01*
X64320588Y-34543069D01*
X64320588Y-34543070D01*
X64320586Y-34543072D01*
X64276859Y-34603256D01*
X64218768Y-34683211D01*
X64140128Y-34837552D01*
X64086597Y-35002302D01*
X64066806Y-35127259D01*
X64059500Y-35173389D01*
X63720500Y-35173389D01*
X63693402Y-35002299D01*
X63639873Y-34837555D01*
X63561232Y-34683212D01*
X63459414Y-34543072D01*
X63336928Y-34420586D01*
X63196788Y-34318768D01*
X63092523Y-34265643D01*
X63042447Y-34240128D01*
X63042446Y-34240127D01*
X63042445Y-34240127D01*
X62877701Y-34186598D01*
X62877699Y-34186597D01*
X62877698Y-34186597D01*
X62746271Y-34165781D01*
X62706611Y-34159500D01*
X62533389Y-34159500D01*
X62493728Y-34165781D01*
X62362302Y-34186597D01*
X62197552Y-34240128D01*
X62043211Y-34318768D01*
X61989649Y-34357684D01*
X61903072Y-34420586D01*
X61903070Y-34420588D01*
X61903069Y-34420588D01*
X61780588Y-34543069D01*
X61780588Y-34543070D01*
X61780586Y-34543072D01*
X61736859Y-34603256D01*
X61678768Y-34683211D01*
X61600128Y-34837552D01*
X61546597Y-35002302D01*
X61526806Y-35127259D01*
X61519500Y-35173389D01*
X61180500Y-35173389D01*
X61153402Y-35002299D01*
X61099873Y-34837555D01*
X61021232Y-34683212D01*
X60919414Y-34543072D01*
X60796928Y-34420586D01*
X60656788Y-34318768D01*
X60552523Y-34265643D01*
X60502447Y-34240128D01*
X60502446Y-34240127D01*
X60502445Y-34240127D01*
X60337701Y-34186598D01*
X60337699Y-34186597D01*
X60337698Y-34186597D01*
X60206271Y-34165781D01*
X60166611Y-34159500D01*
X59993389Y-34159500D01*
X59953728Y-34165781D01*
X59822302Y-34186597D01*
X59657552Y-34240128D01*
X59503211Y-34318768D01*
X59449649Y-34357684D01*
X59363072Y-34420586D01*
X59363070Y-34420588D01*
X59363069Y-34420588D01*
X59240588Y-34543069D01*
X59240588Y-34543070D01*
X59240586Y-34543072D01*
X59196859Y-34603256D01*
X59138768Y-34683211D01*
X59060128Y-34837552D01*
X59006597Y-35002302D01*
X58986806Y-35127259D01*
X58979500Y-35173389D01*
X58640500Y-35173389D01*
X58613402Y-35002299D01*
X58559873Y-34837555D01*
X58481232Y-34683212D01*
X58379414Y-34543072D01*
X58256928Y-34420586D01*
X58116788Y-34318768D01*
X58012523Y-34265643D01*
X57962447Y-34240128D01*
X57962446Y-34240127D01*
X57962445Y-34240127D01*
X57797701Y-34186598D01*
X57797699Y-34186597D01*
X57797698Y-34186597D01*
X57666271Y-34165781D01*
X57626611Y-34159500D01*
X57453389Y-34159500D01*
X57413728Y-34165781D01*
X57282302Y-34186597D01*
X57117552Y-34240128D01*
X56963211Y-34318768D01*
X56909649Y-34357684D01*
X56823072Y-34420586D01*
X56823070Y-34420588D01*
X56823069Y-34420588D01*
X56700588Y-34543069D01*
X56700588Y-34543070D01*
X56700586Y-34543072D01*
X56656859Y-34603256D01*
X56598768Y-34683211D01*
X56520128Y-34837552D01*
X56466597Y-35002302D01*
X56446806Y-35127259D01*
X56439500Y-35173389D01*
X56100500Y-35173389D01*
X56073402Y-35002299D01*
X56019873Y-34837555D01*
X55941232Y-34683212D01*
X55839414Y-34543072D01*
X55716928Y-34420586D01*
X55576788Y-34318768D01*
X55472523Y-34265643D01*
X55422447Y-34240128D01*
X55422446Y-34240127D01*
X55422445Y-34240127D01*
X55257701Y-34186598D01*
X55257699Y-34186597D01*
X55257698Y-34186597D01*
X55126271Y-34165781D01*
X55086611Y-34159500D01*
X54913389Y-34159500D01*
X54873728Y-34165781D01*
X54742302Y-34186597D01*
X54577552Y-34240128D01*
X54423211Y-34318768D01*
X54369649Y-34357684D01*
X54283072Y-34420586D01*
X54283070Y-34420588D01*
X54283069Y-34420588D01*
X54160588Y-34543069D01*
X54160588Y-34543070D01*
X54160586Y-34543072D01*
X54116859Y-34603256D01*
X54058768Y-34683211D01*
X53980128Y-34837552D01*
X53926597Y-35002302D01*
X53906806Y-35127259D01*
X53899500Y-35173389D01*
X33779351Y-35173389D01*
X33732482Y-35155908D01*
X33732483Y-35155908D01*
X33672883Y-35149501D01*
X33672881Y-35149500D01*
X33672873Y-35149500D01*
X33672864Y-35149500D01*
X32327129Y-35149500D01*
X32327123Y-35149501D01*
X32267516Y-35155908D01*
X32132671Y-35206202D01*
X32132664Y-35206206D01*
X32017455Y-35292452D01*
X32017452Y-35292455D01*
X31931206Y-35407664D01*
X31931202Y-35407671D01*
X31880908Y-35542517D01*
X31879818Y-35552661D01*
X31874501Y-35602123D01*
X31874500Y-35602135D01*
X600000Y-35602135D01*
X600000Y-34416228D01*
X20874500Y-34416228D01*
X20874500Y-34583771D01*
X20907182Y-34748074D01*
X20907184Y-34748082D01*
X20971295Y-34902860D01*
X21064373Y-35042162D01*
X21182837Y-35160626D01*
X21251050Y-35206204D01*
X21322137Y-35253703D01*
X21476918Y-35317816D01*
X21621682Y-35346611D01*
X21641228Y-35350499D01*
X21641232Y-35350500D01*
X21641233Y-35350500D01*
X22358768Y-35350500D01*
X22358769Y-35350499D01*
X22523082Y-35317816D01*
X22677863Y-35253703D01*
X22817162Y-35160626D01*
X22935626Y-35042162D01*
X23028703Y-34902863D01*
X23092816Y-34748082D01*
X23125500Y-34583767D01*
X23125500Y-34416233D01*
X23092816Y-34251918D01*
X23028703Y-34097137D01*
X23019770Y-34083768D01*
X22949791Y-33979036D01*
X22949788Y-33979033D01*
X22935623Y-33957834D01*
X22894017Y-33916228D01*
X31874500Y-33916228D01*
X31874500Y-34083771D01*
X31907182Y-34248074D01*
X31907184Y-34248082D01*
X31971295Y-34402860D01*
X32064373Y-34542162D01*
X32182837Y-34660626D01*
X32217855Y-34684024D01*
X32322137Y-34753703D01*
X32476918Y-34817816D01*
X32576154Y-34837555D01*
X32641228Y-34850499D01*
X32641232Y-34850500D01*
X32641233Y-34850500D01*
X33358768Y-34850500D01*
X33358769Y-34850499D01*
X33523082Y-34817816D01*
X33677863Y-34753703D01*
X33817162Y-34660626D01*
X33935626Y-34542162D01*
X34028703Y-34402863D01*
X34092816Y-34248082D01*
X34125500Y-34083767D01*
X34125500Y-33916233D01*
X34092816Y-33751918D01*
X34028703Y-33597137D01*
X33997537Y-33550494D01*
X33935626Y-33457837D01*
X33817162Y-33339373D01*
X33677860Y-33246295D01*
X33523082Y-33182184D01*
X33523074Y-33182182D01*
X33358771Y-33149500D01*
X33358767Y-33149500D01*
X32641233Y-33149500D01*
X32641228Y-33149500D01*
X32476925Y-33182182D01*
X32476917Y-33182184D01*
X32322139Y-33246295D01*
X32182837Y-33339373D01*
X32064373Y-33457837D01*
X31971295Y-33597139D01*
X31907184Y-33751917D01*
X31907182Y-33751925D01*
X31874500Y-33916228D01*
X22894017Y-33916228D01*
X22817162Y-33839373D01*
X22677860Y-33746295D01*
X22523082Y-33682184D01*
X22523074Y-33682182D01*
X22358771Y-33649500D01*
X22358767Y-33649500D01*
X21641233Y-33649500D01*
X21641228Y-33649500D01*
X21476925Y-33682182D01*
X21476917Y-33682184D01*
X21322139Y-33746295D01*
X21182837Y-33839373D01*
X21064373Y-33957837D01*
X20971295Y-34097139D01*
X20907184Y-34251917D01*
X20907182Y-34251925D01*
X20874500Y-34416228D01*
X600000Y-34416228D01*
X600000Y-32416228D01*
X20874500Y-32416228D01*
X20874500Y-32583771D01*
X20907182Y-32748074D01*
X20907184Y-32748082D01*
X20971295Y-32902860D01*
X21064373Y-33042162D01*
X21182837Y-33160626D01*
X21275494Y-33222537D01*
X21322137Y-33253703D01*
X21476918Y-33317816D01*
X21641228Y-33350499D01*
X21641232Y-33350500D01*
X21641233Y-33350500D01*
X22358768Y-33350500D01*
X22358769Y-33350499D01*
X22523082Y-33317816D01*
X22677863Y-33253703D01*
X22817162Y-33160626D01*
X22935626Y-33042162D01*
X23028703Y-32902863D01*
X23092816Y-32748082D01*
X23125500Y-32583767D01*
X23125500Y-32416233D01*
X23092816Y-32251918D01*
X23028703Y-32097137D01*
X22964132Y-32000500D01*
X22935626Y-31957837D01*
X22817162Y-31839373D01*
X22677860Y-31746295D01*
X22523082Y-31682184D01*
X22523074Y-31682182D01*
X22358771Y-31649500D01*
X22358767Y-31649500D01*
X21641233Y-31649500D01*
X21641228Y-31649500D01*
X21476925Y-31682182D01*
X21476917Y-31682184D01*
X21322139Y-31746295D01*
X21182837Y-31839373D01*
X21064373Y-31957837D01*
X20971295Y-32097139D01*
X20907184Y-32251917D01*
X20907182Y-32251925D01*
X20874500Y-32416228D01*
X600000Y-32416228D01*
X600000Y-30225321D01*
X48224500Y-30225321D01*
X48224500Y-31774678D01*
X48239032Y-31847735D01*
X48239033Y-31847739D01*
X48239034Y-31847740D01*
X48294399Y-31930601D01*
X48354411Y-31970699D01*
X48377260Y-31985966D01*
X48377264Y-31985967D01*
X48450321Y-32000499D01*
X48450324Y-32000500D01*
X48450326Y-32000500D01*
X49549676Y-32000500D01*
X49549677Y-32000499D01*
X49622740Y-31985966D01*
X49705601Y-31930601D01*
X49706012Y-31929984D01*
X49707258Y-31928943D01*
X49714237Y-31921965D01*
X49714860Y-31922588D01*
X49759616Y-31885177D01*
X49828940Y-31876463D01*
X49878008Y-31895765D01*
X49902662Y-31912238D01*
X49902665Y-31912240D01*
X49927648Y-31922588D01*
X50043795Y-31970698D01*
X50193615Y-32000499D01*
X50193619Y-32000500D01*
X50193620Y-32000500D01*
X50346381Y-32000500D01*
X50346382Y-32000499D01*
X50496205Y-31970698D01*
X50637337Y-31912239D01*
X50764352Y-31827370D01*
X50773219Y-31818503D01*
X50817319Y-31774404D01*
X50878642Y-31740919D01*
X50948334Y-31745903D01*
X50992681Y-31774404D01*
X51045644Y-31827367D01*
X51045648Y-31827370D01*
X51172656Y-31912235D01*
X51172665Y-31912240D01*
X51197648Y-31922588D01*
X51313795Y-31970698D01*
X51463615Y-32000499D01*
X51463619Y-32000500D01*
X51463620Y-32000500D01*
X51616381Y-32000500D01*
X51616382Y-32000499D01*
X51766205Y-31970698D01*
X51907337Y-31912239D01*
X52034352Y-31827370D01*
X52142370Y-31719352D01*
X52227239Y-31592337D01*
X52285698Y-31451205D01*
X52315500Y-31301380D01*
X52315500Y-30698620D01*
X52285698Y-30548795D01*
X52227239Y-30407663D01*
X52227238Y-30407662D01*
X52227235Y-30407656D01*
X52142370Y-30280648D01*
X52142367Y-30280644D01*
X52034355Y-30172632D01*
X52034351Y-30172629D01*
X51907343Y-30087764D01*
X51907334Y-30087759D01*
X51766205Y-30029302D01*
X51766197Y-30029300D01*
X51616384Y-29999500D01*
X51616380Y-29999500D01*
X51463620Y-29999500D01*
X51463615Y-29999500D01*
X51313802Y-30029300D01*
X51313794Y-30029302D01*
X51172665Y-30087759D01*
X51172656Y-30087764D01*
X51045648Y-30172629D01*
X51045644Y-30172632D01*
X50992681Y-30225596D01*
X50931358Y-30259081D01*
X50861666Y-30254097D01*
X50817319Y-30225596D01*
X50764355Y-30172632D01*
X50764351Y-30172629D01*
X50637343Y-30087764D01*
X50637334Y-30087759D01*
X50496205Y-30029302D01*
X50496197Y-30029300D01*
X50346384Y-29999500D01*
X50346380Y-29999500D01*
X50193620Y-29999500D01*
X50193615Y-29999500D01*
X50043802Y-30029300D01*
X50043794Y-30029302D01*
X49902665Y-30087759D01*
X49902653Y-30087766D01*
X49878007Y-30104234D01*
X49811330Y-30125111D01*
X49743950Y-30106625D01*
X49714279Y-30077992D01*
X49714237Y-30078035D01*
X49711868Y-30075666D01*
X49706013Y-30070016D01*
X49705601Y-30069399D01*
X49622740Y-30014034D01*
X49622739Y-30014033D01*
X49622735Y-30014032D01*
X49549677Y-29999500D01*
X49549674Y-29999500D01*
X48450326Y-29999500D01*
X48450323Y-29999500D01*
X48377264Y-30014032D01*
X48377260Y-30014033D01*
X48294399Y-30069399D01*
X48239033Y-30152260D01*
X48239032Y-30152264D01*
X48224500Y-30225321D01*
X600000Y-30225321D01*
X600000Y-29345725D01*
X46955800Y-29345725D01*
X46955800Y-29490675D01*
X46974138Y-29559111D01*
X46993317Y-29630688D01*
X47065788Y-29756211D01*
X47065790Y-29756213D01*
X47065791Y-29756215D01*
X47168285Y-29858709D01*
X47168286Y-29858710D01*
X47168288Y-29858711D01*
X47293811Y-29931182D01*
X47293812Y-29931182D01*
X47293815Y-29931184D01*
X47433825Y-29968700D01*
X47433828Y-29968700D01*
X47578772Y-29968700D01*
X47578775Y-29968700D01*
X47718785Y-29931184D01*
X47844315Y-29858709D01*
X47946809Y-29756215D01*
X48019284Y-29630685D01*
X48056800Y-29490675D01*
X48056800Y-29345725D01*
X48036141Y-29268625D01*
X57041800Y-29268625D01*
X57041800Y-29413575D01*
X57079316Y-29553585D01*
X57079317Y-29553588D01*
X57151788Y-29679111D01*
X57151790Y-29679113D01*
X57151791Y-29679115D01*
X57254285Y-29781609D01*
X57254286Y-29781610D01*
X57254288Y-29781611D01*
X57379811Y-29854082D01*
X57379812Y-29854082D01*
X57379815Y-29854084D01*
X57519825Y-29891600D01*
X57519828Y-29891600D01*
X57664772Y-29891600D01*
X57664775Y-29891600D01*
X57804785Y-29854084D01*
X57930315Y-29781609D01*
X58032809Y-29679115D01*
X58105284Y-29553585D01*
X58142800Y-29413575D01*
X58142800Y-29268625D01*
X58105284Y-29128615D01*
X58076633Y-29078991D01*
X58032811Y-29003088D01*
X58032806Y-29003082D01*
X57930317Y-28900593D01*
X57930311Y-28900588D01*
X57804788Y-28828117D01*
X57804789Y-28828117D01*
X57793306Y-28825040D01*
X57664775Y-28790600D01*
X57519825Y-28790600D01*
X57391293Y-28825040D01*
X57379811Y-28828117D01*
X57254288Y-28900588D01*
X57254282Y-28900593D01*
X57151793Y-29003082D01*
X57151788Y-29003088D01*
X57079317Y-29128611D01*
X57079316Y-29128615D01*
X57041800Y-29268625D01*
X48036141Y-29268625D01*
X48019284Y-29205715D01*
X47946809Y-29080185D01*
X47844315Y-28977691D01*
X47844313Y-28977690D01*
X47844311Y-28977688D01*
X47718788Y-28905217D01*
X47718789Y-28905217D01*
X47701513Y-28900588D01*
X47578775Y-28867700D01*
X47433825Y-28867700D01*
X47311087Y-28900588D01*
X47293811Y-28905217D01*
X47168288Y-28977688D01*
X47168282Y-28977693D01*
X47065793Y-29080182D01*
X47065788Y-29080188D01*
X46993317Y-29205711D01*
X46993316Y-29205715D01*
X46955800Y-29345725D01*
X600000Y-29345725D01*
X600000Y-27664071D01*
X19374499Y-27664071D01*
X19399497Y-27789738D01*
X19399499Y-27789744D01*
X19448533Y-27908124D01*
X19448538Y-27908133D01*
X19519723Y-28014668D01*
X19519726Y-28014672D01*
X19610327Y-28105273D01*
X19610331Y-28105276D01*
X19716866Y-28176461D01*
X19716872Y-28176464D01*
X19716873Y-28176465D01*
X19835256Y-28225501D01*
X19835260Y-28225501D01*
X19835261Y-28225502D01*
X19960928Y-28250500D01*
X19960931Y-28250500D01*
X20089071Y-28250500D01*
X20173615Y-28233682D01*
X20214744Y-28225501D01*
X20333127Y-28176465D01*
X20439669Y-28105276D01*
X20530276Y-28014669D01*
X20601465Y-27908127D01*
X20650501Y-27789744D01*
X20662211Y-27730876D01*
X20675500Y-27664071D01*
X20675500Y-27535928D01*
X20650502Y-27410261D01*
X20650501Y-27410260D01*
X20650501Y-27410256D01*
X20603500Y-27296785D01*
X20601466Y-27291875D01*
X20601461Y-27291866D01*
X20530276Y-27185331D01*
X20530273Y-27185327D01*
X20439672Y-27094726D01*
X20439668Y-27094723D01*
X20333133Y-27023538D01*
X20333124Y-27023533D01*
X20304858Y-27011825D01*
X34692200Y-27011825D01*
X34692200Y-27156775D01*
X34728951Y-27293931D01*
X34729717Y-27296788D01*
X34802188Y-27422311D01*
X34802190Y-27422313D01*
X34802191Y-27422315D01*
X34904685Y-27524809D01*
X34904686Y-27524810D01*
X34904688Y-27524811D01*
X35030211Y-27597282D01*
X35030212Y-27597282D01*
X35030215Y-27597284D01*
X35170225Y-27634800D01*
X35170228Y-27634800D01*
X35315172Y-27634800D01*
X35315175Y-27634800D01*
X35455185Y-27597284D01*
X35580715Y-27524809D01*
X35683209Y-27422315D01*
X35755684Y-27296785D01*
X35766921Y-27254846D01*
X35803284Y-27195187D01*
X35866130Y-27164657D01*
X35935506Y-27172951D01*
X35989384Y-27217435D01*
X35994082Y-27224939D01*
X36044991Y-27313115D01*
X36147485Y-27415609D01*
X36147486Y-27415610D01*
X36147488Y-27415611D01*
X36273011Y-27488082D01*
X36273012Y-27488082D01*
X36273015Y-27488084D01*
X36413025Y-27525600D01*
X36413028Y-27525600D01*
X36557972Y-27525600D01*
X36557975Y-27525600D01*
X36697985Y-27488084D01*
X36812323Y-27422071D01*
X104491499Y-27422071D01*
X104516497Y-27547738D01*
X104516499Y-27547744D01*
X104565533Y-27666124D01*
X104565538Y-27666133D01*
X104636723Y-27772668D01*
X104636726Y-27772672D01*
X104727327Y-27863273D01*
X104727331Y-27863276D01*
X104833866Y-27934461D01*
X104833872Y-27934464D01*
X104833873Y-27934465D01*
X104952256Y-27983501D01*
X104952260Y-27983501D01*
X104952261Y-27983502D01*
X105077928Y-28008500D01*
X105077931Y-28008500D01*
X105206071Y-28008500D01*
X105248730Y-28000014D01*
X106300000Y-28000014D01*
X106300000Y-28750000D01*
X107451518Y-28750000D01*
X107440889Y-28768409D01*
X107400000Y-28921009D01*
X107400000Y-29078991D01*
X107440889Y-29231591D01*
X107451518Y-29250000D01*
X106300000Y-29250000D01*
X106300000Y-29999985D01*
X106310493Y-30102689D01*
X106310494Y-30102696D01*
X106365641Y-30269118D01*
X106365643Y-30269123D01*
X106457684Y-30418344D01*
X106581655Y-30542315D01*
X106730876Y-30634356D01*
X106730881Y-30634358D01*
X106897303Y-30689505D01*
X106897310Y-30689506D01*
X107000014Y-30699999D01*
X107000027Y-30700000D01*
X107750000Y-30700000D01*
X107750000Y-29548482D01*
X107768409Y-29559111D01*
X107921009Y-29600000D01*
X108078991Y-29600000D01*
X108231591Y-29559111D01*
X108250000Y-29548482D01*
X108250000Y-30700000D01*
X108999973Y-30700000D01*
X108999985Y-30699999D01*
X109102689Y-30689506D01*
X109102696Y-30689505D01*
X109269118Y-30634358D01*
X109269123Y-30634356D01*
X109418344Y-30542315D01*
X109542315Y-30418344D01*
X109634356Y-30269123D01*
X109634358Y-30269118D01*
X109689505Y-30102696D01*
X109689506Y-30102689D01*
X109699999Y-29999985D01*
X109700000Y-29999972D01*
X109700000Y-29250000D01*
X108548482Y-29250000D01*
X108559111Y-29231591D01*
X108600000Y-29078991D01*
X108600000Y-28921009D01*
X108590576Y-28885837D01*
X116709500Y-28885837D01*
X116709500Y-29114162D01*
X116745215Y-29339660D01*
X116815770Y-29556803D01*
X116853417Y-29630688D01*
X116919421Y-29760228D01*
X117053621Y-29944937D01*
X117215063Y-30106379D01*
X117399772Y-30240579D01*
X117455783Y-30269118D01*
X117603196Y-30344229D01*
X117603198Y-30344229D01*
X117603201Y-30344231D01*
X117719592Y-30382049D01*
X117820339Y-30414784D01*
X118045838Y-30450500D01*
X118045843Y-30450500D01*
X118274162Y-30450500D01*
X118499660Y-30414784D01*
X118521576Y-30407663D01*
X118716799Y-30344231D01*
X118920228Y-30240579D01*
X119104937Y-30106379D01*
X119266379Y-29944937D01*
X119400579Y-29760228D01*
X119504231Y-29556799D01*
X119574784Y-29339660D01*
X119582239Y-29292592D01*
X119610500Y-29114162D01*
X119610500Y-28885837D01*
X119574784Y-28660339D01*
X119504229Y-28443196D01*
X119400578Y-28239771D01*
X119390210Y-28225501D01*
X119266379Y-28055063D01*
X119104937Y-27893621D01*
X118920228Y-27759421D01*
X118716803Y-27655770D01*
X118499660Y-27585215D01*
X118274162Y-27549500D01*
X118274157Y-27549500D01*
X118045843Y-27549500D01*
X118045838Y-27549500D01*
X117820339Y-27585215D01*
X117603196Y-27655770D01*
X117399771Y-27759421D01*
X117215061Y-27893622D01*
X117053622Y-28055061D01*
X116919421Y-28239771D01*
X116815770Y-28443196D01*
X116745215Y-28660339D01*
X116709500Y-28885837D01*
X108590576Y-28885837D01*
X108559111Y-28768409D01*
X108548482Y-28750000D01*
X109700000Y-28750000D01*
X109700000Y-28000027D01*
X109699999Y-28000014D01*
X109689506Y-27897310D01*
X109689505Y-27897303D01*
X109634358Y-27730881D01*
X109634356Y-27730876D01*
X109542315Y-27581655D01*
X109418344Y-27457684D01*
X109269123Y-27365643D01*
X109269118Y-27365641D01*
X109102696Y-27310494D01*
X109102689Y-27310493D01*
X108999985Y-27300000D01*
X108250000Y-27300000D01*
X108250000Y-28451517D01*
X108231591Y-28440889D01*
X108078991Y-28400000D01*
X107921009Y-28400000D01*
X107768409Y-28440889D01*
X107750000Y-28451517D01*
X107750000Y-27300000D01*
X107000014Y-27300000D01*
X106897310Y-27310493D01*
X106897303Y-27310494D01*
X106730881Y-27365641D01*
X106730876Y-27365643D01*
X106581655Y-27457684D01*
X106457684Y-27581655D01*
X106365643Y-27730876D01*
X106365641Y-27730881D01*
X106310494Y-27897303D01*
X106310493Y-27897310D01*
X106300000Y-28000014D01*
X105248730Y-28000014D01*
X105290615Y-27991682D01*
X105331744Y-27983501D01*
X105450127Y-27934465D01*
X105489545Y-27908127D01*
X105511043Y-27893763D01*
X105534696Y-27877957D01*
X105556669Y-27863276D01*
X105647276Y-27772669D01*
X105718465Y-27666127D01*
X105767501Y-27547744D01*
X105775682Y-27506615D01*
X105792500Y-27422071D01*
X105792500Y-27293928D01*
X105767502Y-27168261D01*
X105767501Y-27168260D01*
X105767501Y-27168256D01*
X105718465Y-27049873D01*
X105718464Y-27049872D01*
X105718461Y-27049866D01*
X105647276Y-26943331D01*
X105647273Y-26943327D01*
X105556672Y-26852726D01*
X105556668Y-26852723D01*
X105450133Y-26781538D01*
X105450124Y-26781533D01*
X105331744Y-26732499D01*
X105331738Y-26732497D01*
X105206071Y-26707500D01*
X105206069Y-26707500D01*
X105077931Y-26707500D01*
X105077929Y-26707500D01*
X104952261Y-26732497D01*
X104952255Y-26732499D01*
X104833875Y-26781533D01*
X104833866Y-26781538D01*
X104727331Y-26852723D01*
X104727327Y-26852726D01*
X104636726Y-26943327D01*
X104636723Y-26943331D01*
X104565538Y-27049866D01*
X104565533Y-27049875D01*
X104516499Y-27168255D01*
X104516497Y-27168261D01*
X104491500Y-27293928D01*
X104491500Y-27293931D01*
X104491500Y-27422069D01*
X104491500Y-27422071D01*
X104491499Y-27422071D01*
X36812323Y-27422071D01*
X36823515Y-27415609D01*
X36926009Y-27313115D01*
X36998484Y-27187585D01*
X37036000Y-27047575D01*
X37036000Y-26902625D01*
X36998484Y-26762615D01*
X36981096Y-26732499D01*
X36926011Y-26637088D01*
X36926006Y-26637082D01*
X36823517Y-26534593D01*
X36823511Y-26534588D01*
X36697988Y-26462117D01*
X36697989Y-26462117D01*
X36686506Y-26459040D01*
X36557975Y-26424600D01*
X36413025Y-26424600D01*
X36284493Y-26459040D01*
X36273011Y-26462117D01*
X36147488Y-26534588D01*
X36147482Y-26534593D01*
X36044993Y-26637082D01*
X36044988Y-26637088D01*
X35972517Y-26762611D01*
X35961279Y-26804553D01*
X35924913Y-26864214D01*
X35862066Y-26894742D01*
X35792691Y-26886447D01*
X35738813Y-26841961D01*
X35734117Y-26834460D01*
X35703562Y-26781538D01*
X35683209Y-26746285D01*
X35580715Y-26643791D01*
X35580713Y-26643790D01*
X35580711Y-26643788D01*
X35455188Y-26571317D01*
X35455189Y-26571317D01*
X35443706Y-26568240D01*
X35315175Y-26533800D01*
X35170225Y-26533800D01*
X35041693Y-26568240D01*
X35030211Y-26571317D01*
X34904688Y-26643788D01*
X34904682Y-26643793D01*
X34802193Y-26746282D01*
X34802188Y-26746288D01*
X34729717Y-26871811D01*
X34729716Y-26871815D01*
X34692200Y-27011825D01*
X20304858Y-27011825D01*
X20214744Y-26974499D01*
X20214738Y-26974497D01*
X20089071Y-26949500D01*
X20089069Y-26949500D01*
X19960931Y-26949500D01*
X19960929Y-26949500D01*
X19835261Y-26974497D01*
X19835255Y-26974499D01*
X19716875Y-27023533D01*
X19716866Y-27023538D01*
X19610331Y-27094723D01*
X19610327Y-27094726D01*
X19519726Y-27185327D01*
X19519723Y-27185331D01*
X19448538Y-27291866D01*
X19448533Y-27291875D01*
X19399499Y-27410255D01*
X19399497Y-27410261D01*
X19374500Y-27535928D01*
X19374500Y-27535931D01*
X19374500Y-27664069D01*
X19374500Y-27664071D01*
X19374499Y-27664071D01*
X600000Y-27664071D01*
X600000Y-24365225D01*
X64018300Y-24365225D01*
X64018300Y-24510175D01*
X64042233Y-24599493D01*
X64055817Y-24650188D01*
X64128288Y-24775711D01*
X64128290Y-24775713D01*
X64128291Y-24775715D01*
X64230785Y-24878209D01*
X64230786Y-24878210D01*
X64230788Y-24878211D01*
X64356311Y-24950682D01*
X64356312Y-24950682D01*
X64356315Y-24950684D01*
X64496325Y-24988200D01*
X64496328Y-24988200D01*
X64641272Y-24988200D01*
X64641275Y-24988200D01*
X64718434Y-24967525D01*
X98604500Y-24967525D01*
X98604500Y-25112475D01*
X98642016Y-25252485D01*
X98642017Y-25252488D01*
X98714488Y-25378011D01*
X98714490Y-25378013D01*
X98714491Y-25378015D01*
X98816985Y-25480509D01*
X98816986Y-25480510D01*
X98816988Y-25480511D01*
X98942511Y-25552982D01*
X98942512Y-25552982D01*
X98942515Y-25552984D01*
X99082525Y-25590500D01*
X99082528Y-25590500D01*
X99227472Y-25590500D01*
X99227475Y-25590500D01*
X99367485Y-25552984D01*
X99493015Y-25480509D01*
X99595509Y-25378015D01*
X99667984Y-25252485D01*
X99705500Y-25112475D01*
X99705500Y-24967525D01*
X99667984Y-24827515D01*
X99638078Y-24775717D01*
X99595511Y-24701988D01*
X99595506Y-24701982D01*
X99493017Y-24599493D01*
X99493011Y-24599488D01*
X99367488Y-24527017D01*
X99367489Y-24527017D01*
X99356006Y-24523940D01*
X99227475Y-24489500D01*
X99082525Y-24489500D01*
X98953993Y-24523940D01*
X98942511Y-24527017D01*
X98816988Y-24599488D01*
X98816982Y-24599493D01*
X98714493Y-24701982D01*
X98714488Y-24701988D01*
X98642017Y-24827511D01*
X98642016Y-24827515D01*
X98604500Y-24967525D01*
X64718434Y-24967525D01*
X64781285Y-24950684D01*
X64906815Y-24878209D01*
X65009309Y-24775715D01*
X65081784Y-24650185D01*
X65119300Y-24510175D01*
X65119300Y-24365225D01*
X65081784Y-24225215D01*
X65073293Y-24210509D01*
X65009311Y-24099688D01*
X65009306Y-24099682D01*
X64906817Y-23997193D01*
X64906811Y-23997188D01*
X64781288Y-23924717D01*
X64781289Y-23924717D01*
X64769806Y-23921640D01*
X64641275Y-23887200D01*
X64496325Y-23887200D01*
X64367793Y-23921640D01*
X64356311Y-23924717D01*
X64230788Y-23997188D01*
X64230782Y-23997193D01*
X64128293Y-24099682D01*
X64128288Y-24099688D01*
X64055817Y-24225211D01*
X64055816Y-24225215D01*
X64018300Y-24365225D01*
X600000Y-24365225D01*
X600000Y-23697525D01*
X75836800Y-23697525D01*
X75836800Y-23842475D01*
X75858837Y-23924716D01*
X75874317Y-23982488D01*
X75946788Y-24108011D01*
X75946790Y-24108013D01*
X75946791Y-24108015D01*
X76049285Y-24210509D01*
X76049286Y-24210510D01*
X76049288Y-24210511D01*
X76174811Y-24282982D01*
X76174812Y-24282982D01*
X76174815Y-24282984D01*
X76314825Y-24320500D01*
X76314828Y-24320500D01*
X76459772Y-24320500D01*
X76459775Y-24320500D01*
X76599785Y-24282984D01*
X76725315Y-24210509D01*
X76827809Y-24108015D01*
X76900284Y-23982485D01*
X76937800Y-23842475D01*
X76937800Y-23697525D01*
X76900284Y-23557515D01*
X76898431Y-23554306D01*
X76827811Y-23431988D01*
X76827806Y-23431982D01*
X76725317Y-23329493D01*
X76725311Y-23329488D01*
X76599788Y-23257017D01*
X76599789Y-23257017D01*
X76588306Y-23253940D01*
X76459775Y-23219500D01*
X76314825Y-23219500D01*
X76186293Y-23253940D01*
X76174811Y-23257017D01*
X76049288Y-23329488D01*
X76049282Y-23329493D01*
X75946793Y-23431982D01*
X75946788Y-23431988D01*
X75874317Y-23557511D01*
X75874316Y-23557515D01*
X75836800Y-23697525D01*
X600000Y-23697525D01*
X600000Y-23041325D01*
X86957500Y-23041325D01*
X86957500Y-23186275D01*
X86995016Y-23326285D01*
X86995017Y-23326288D01*
X87067488Y-23451811D01*
X87067490Y-23451813D01*
X87067491Y-23451815D01*
X87169985Y-23554309D01*
X87169986Y-23554310D01*
X87169988Y-23554311D01*
X87295511Y-23626782D01*
X87295512Y-23626782D01*
X87295515Y-23626784D01*
X87435525Y-23664300D01*
X87435528Y-23664300D01*
X87580472Y-23664300D01*
X87580475Y-23664300D01*
X87720485Y-23626784D01*
X87846015Y-23554309D01*
X87948509Y-23451815D01*
X88020984Y-23326285D01*
X88058500Y-23186275D01*
X88058500Y-23041325D01*
X88020984Y-22901315D01*
X88018146Y-22896400D01*
X87948511Y-22775788D01*
X87948506Y-22775782D01*
X87846017Y-22673293D01*
X87846011Y-22673288D01*
X87720488Y-22600817D01*
X87720489Y-22600817D01*
X87709006Y-22597740D01*
X87580475Y-22563300D01*
X87435525Y-22563300D01*
X87306993Y-22597740D01*
X87295511Y-22600817D01*
X87169988Y-22673288D01*
X87169982Y-22673293D01*
X87067493Y-22775782D01*
X87067488Y-22775788D01*
X86995017Y-22901311D01*
X86995016Y-22901315D01*
X86957500Y-23041325D01*
X600000Y-23041325D01*
X600000Y-22273425D01*
X60028700Y-22273425D01*
X60028700Y-22418375D01*
X60041944Y-22467800D01*
X60066217Y-22558388D01*
X60138688Y-22683911D01*
X60138690Y-22683913D01*
X60138691Y-22683915D01*
X60241185Y-22786409D01*
X60241186Y-22786410D01*
X60241188Y-22786411D01*
X60366711Y-22858882D01*
X60366712Y-22858882D01*
X60366715Y-22858884D01*
X60506725Y-22896400D01*
X60506728Y-22896400D01*
X60651672Y-22896400D01*
X60651675Y-22896400D01*
X60791685Y-22858884D01*
X60917215Y-22786409D01*
X61019709Y-22683915D01*
X61092184Y-22558385D01*
X61129700Y-22418375D01*
X61129700Y-22273425D01*
X61092184Y-22133415D01*
X61090088Y-22129785D01*
X61019711Y-22007888D01*
X61019706Y-22007882D01*
X60917217Y-21905393D01*
X60917211Y-21905388D01*
X60812313Y-21844825D01*
X74395800Y-21844825D01*
X74395800Y-21989775D01*
X74411210Y-22047285D01*
X74433317Y-22129788D01*
X74505788Y-22255311D01*
X74505790Y-22255313D01*
X74505791Y-22255315D01*
X74608285Y-22357809D01*
X74608286Y-22357810D01*
X74608288Y-22357811D01*
X74733811Y-22430282D01*
X74733812Y-22430282D01*
X74733815Y-22430284D01*
X74873825Y-22467800D01*
X74873828Y-22467800D01*
X75018772Y-22467800D01*
X75018775Y-22467800D01*
X75158785Y-22430284D01*
X75284315Y-22357809D01*
X75386809Y-22255315D01*
X75459284Y-22129785D01*
X75496800Y-21989775D01*
X75496800Y-21844825D01*
X75474694Y-21762325D01*
X99100600Y-21762325D01*
X99100600Y-21907275D01*
X99138116Y-22047285D01*
X99138117Y-22047288D01*
X99210588Y-22172811D01*
X99210590Y-22172813D01*
X99210591Y-22172815D01*
X99313085Y-22275309D01*
X99313086Y-22275310D01*
X99313088Y-22275311D01*
X99438611Y-22347782D01*
X99438612Y-22347782D01*
X99438615Y-22347784D01*
X99578625Y-22385300D01*
X99578628Y-22385300D01*
X99723572Y-22385300D01*
X99723575Y-22385300D01*
X99863585Y-22347784D01*
X99989115Y-22275309D01*
X100091609Y-22172815D01*
X100164084Y-22047285D01*
X100201600Y-21907275D01*
X100201600Y-21762325D01*
X100164084Y-21622315D01*
X100139242Y-21579288D01*
X100091611Y-21496788D01*
X100091606Y-21496782D01*
X99989117Y-21394293D01*
X99989111Y-21394288D01*
X99863588Y-21321817D01*
X99863589Y-21321817D01*
X99852106Y-21318740D01*
X99723575Y-21284300D01*
X99578625Y-21284300D01*
X99450093Y-21318740D01*
X99438611Y-21321817D01*
X99313088Y-21394288D01*
X99313082Y-21394293D01*
X99210593Y-21496782D01*
X99210588Y-21496788D01*
X99138117Y-21622311D01*
X99138116Y-21622315D01*
X99100600Y-21762325D01*
X75474694Y-21762325D01*
X75459284Y-21704815D01*
X75411652Y-21622315D01*
X75386811Y-21579288D01*
X75386806Y-21579282D01*
X75284317Y-21476793D01*
X75284311Y-21476788D01*
X75158788Y-21404317D01*
X75158789Y-21404317D01*
X75147306Y-21401240D01*
X75018775Y-21366800D01*
X74873825Y-21366800D01*
X74745293Y-21401240D01*
X74733811Y-21404317D01*
X74608288Y-21476788D01*
X74608282Y-21476793D01*
X74505793Y-21579282D01*
X74505788Y-21579288D01*
X74433317Y-21704811D01*
X74433316Y-21704815D01*
X74395800Y-21844825D01*
X60812313Y-21844825D01*
X60791688Y-21832917D01*
X60791689Y-21832917D01*
X60780206Y-21829840D01*
X60651675Y-21795400D01*
X60506725Y-21795400D01*
X60378193Y-21829840D01*
X60366711Y-21832917D01*
X60241188Y-21905388D01*
X60241182Y-21905393D01*
X60138693Y-22007882D01*
X60138688Y-22007888D01*
X60066217Y-22133411D01*
X60066216Y-22133415D01*
X60028700Y-22273425D01*
X600000Y-22273425D01*
X600000Y-20647125D01*
X59337700Y-20647125D01*
X59337700Y-20792075D01*
X59375216Y-20932085D01*
X59375217Y-20932088D01*
X59447688Y-21057611D01*
X59447690Y-21057613D01*
X59447691Y-21057615D01*
X59550185Y-21160109D01*
X59550186Y-21160110D01*
X59550188Y-21160111D01*
X59675711Y-21232582D01*
X59675712Y-21232582D01*
X59675715Y-21232584D01*
X59815725Y-21270100D01*
X59815728Y-21270100D01*
X59960672Y-21270100D01*
X59960675Y-21270100D01*
X60100685Y-21232584D01*
X60226215Y-21160109D01*
X60328709Y-21057615D01*
X60396484Y-20940225D01*
X64985000Y-20940225D01*
X64985000Y-21085175D01*
X65022516Y-21225185D01*
X65022517Y-21225188D01*
X65094988Y-21350711D01*
X65094990Y-21350713D01*
X65094991Y-21350715D01*
X65197485Y-21453209D01*
X65197486Y-21453210D01*
X65197488Y-21453211D01*
X65323011Y-21525682D01*
X65323012Y-21525682D01*
X65323015Y-21525684D01*
X65463025Y-21563200D01*
X65463028Y-21563200D01*
X65607972Y-21563200D01*
X65607975Y-21563200D01*
X65747985Y-21525684D01*
X65873515Y-21453209D01*
X65976009Y-21350715D01*
X66048484Y-21225185D01*
X66086000Y-21085175D01*
X66086000Y-20940225D01*
X66048484Y-20800215D01*
X66043784Y-20792075D01*
X65976011Y-20674688D01*
X65976006Y-20674682D01*
X65873517Y-20572193D01*
X65873511Y-20572188D01*
X65747988Y-20499717D01*
X65747989Y-20499717D01*
X65736506Y-20496640D01*
X65607975Y-20462200D01*
X65463025Y-20462200D01*
X65334493Y-20496640D01*
X65323011Y-20499717D01*
X65197488Y-20572188D01*
X65197482Y-20572193D01*
X65094993Y-20674682D01*
X65094988Y-20674688D01*
X65022517Y-20800211D01*
X65022516Y-20800215D01*
X64985000Y-20940225D01*
X60396484Y-20940225D01*
X60401184Y-20932085D01*
X60405408Y-20916318D01*
X60409781Y-20900003D01*
X60418581Y-20867157D01*
X60438700Y-20792075D01*
X60438700Y-20647125D01*
X60401184Y-20507115D01*
X60375252Y-20462200D01*
X60328711Y-20381588D01*
X60328706Y-20381582D01*
X60226217Y-20279093D01*
X60226211Y-20279088D01*
X60100688Y-20206617D01*
X60100689Y-20206617D01*
X60089206Y-20203540D01*
X59960675Y-20169100D01*
X59815725Y-20169100D01*
X59687193Y-20203540D01*
X59675711Y-20206617D01*
X59550188Y-20279088D01*
X59550182Y-20279093D01*
X59447693Y-20381582D01*
X59447688Y-20381588D01*
X59375217Y-20507111D01*
X59375216Y-20507115D01*
X59337700Y-20647125D01*
X600000Y-20647125D01*
X600000Y-18722825D01*
X34700000Y-18722825D01*
X34700000Y-18867775D01*
X34709207Y-18902135D01*
X34737517Y-19007788D01*
X34809988Y-19133311D01*
X34809990Y-19133313D01*
X34809991Y-19133315D01*
X34912485Y-19235809D01*
X34912486Y-19235810D01*
X34912488Y-19235811D01*
X35038011Y-19308282D01*
X35038012Y-19308282D01*
X35038015Y-19308284D01*
X35178025Y-19345800D01*
X35178028Y-19345800D01*
X35322972Y-19345800D01*
X35322975Y-19345800D01*
X35462985Y-19308284D01*
X35588515Y-19235809D01*
X35691009Y-19133315D01*
X35763484Y-19007785D01*
X35791793Y-18902135D01*
X117449500Y-18902135D01*
X117449500Y-21097870D01*
X117449501Y-21097876D01*
X117455908Y-21157483D01*
X117506202Y-21292328D01*
X117506206Y-21292335D01*
X117592452Y-21407544D01*
X117592455Y-21407547D01*
X117707664Y-21493793D01*
X117707671Y-21493797D01*
X117842517Y-21544091D01*
X117842516Y-21544091D01*
X117849444Y-21544835D01*
X117902127Y-21550500D01*
X120097872Y-21550499D01*
X120157483Y-21544091D01*
X120292331Y-21493796D01*
X120407546Y-21407546D01*
X120493796Y-21292331D01*
X120544091Y-21157483D01*
X120550500Y-21097873D01*
X120550499Y-18902128D01*
X120544091Y-18842517D01*
X120493796Y-18707669D01*
X120493795Y-18707668D01*
X120493793Y-18707664D01*
X120407547Y-18592455D01*
X120407544Y-18592452D01*
X120292335Y-18506206D01*
X120292328Y-18506202D01*
X120157482Y-18455908D01*
X120157483Y-18455908D01*
X120097883Y-18449501D01*
X120097881Y-18449500D01*
X120097873Y-18449500D01*
X120097864Y-18449500D01*
X117902129Y-18449500D01*
X117902123Y-18449501D01*
X117842516Y-18455908D01*
X117707671Y-18506202D01*
X117707664Y-18506206D01*
X117592455Y-18592452D01*
X117592452Y-18592455D01*
X117506206Y-18707664D01*
X117506202Y-18707671D01*
X117455908Y-18842517D01*
X117453193Y-18867775D01*
X117449501Y-18902123D01*
X117449500Y-18902135D01*
X35791793Y-18902135D01*
X35801000Y-18867775D01*
X35801000Y-18722825D01*
X35763484Y-18582815D01*
X35719252Y-18506204D01*
X35691011Y-18457288D01*
X35691006Y-18457282D01*
X35588517Y-18354793D01*
X35588511Y-18354788D01*
X35462988Y-18282317D01*
X35462989Y-18282317D01*
X35451506Y-18279240D01*
X35322975Y-18244800D01*
X35178025Y-18244800D01*
X35049493Y-18279240D01*
X35038011Y-18282317D01*
X34912488Y-18354788D01*
X34912482Y-18354793D01*
X34809993Y-18457282D01*
X34809988Y-18457288D01*
X34737517Y-18582811D01*
X34737516Y-18582815D01*
X34700000Y-18722825D01*
X600000Y-18722825D01*
X600000Y-17600425D01*
X35927400Y-17600425D01*
X35927400Y-17745375D01*
X35964916Y-17885385D01*
X35964917Y-17885388D01*
X36037388Y-18010911D01*
X36037390Y-18010913D01*
X36037391Y-18010915D01*
X36139885Y-18113409D01*
X36139886Y-18113410D01*
X36139888Y-18113411D01*
X36265411Y-18185882D01*
X36265412Y-18185882D01*
X36265415Y-18185884D01*
X36405425Y-18223400D01*
X36405428Y-18223400D01*
X36550372Y-18223400D01*
X36550375Y-18223400D01*
X36690385Y-18185884D01*
X36815915Y-18113409D01*
X36918409Y-18010915D01*
X36990884Y-17885385D01*
X37028400Y-17745375D01*
X37028400Y-17600425D01*
X36990884Y-17460415D01*
X36918409Y-17334885D01*
X36815915Y-17232391D01*
X36815913Y-17232390D01*
X36815911Y-17232388D01*
X36690388Y-17159917D01*
X36690389Y-17159917D01*
X36678906Y-17156840D01*
X36550375Y-17122400D01*
X36405425Y-17122400D01*
X36276893Y-17156840D01*
X36265411Y-17159917D01*
X36139888Y-17232388D01*
X36139882Y-17232393D01*
X36037393Y-17334882D01*
X36037388Y-17334888D01*
X35964917Y-17460411D01*
X35964916Y-17460415D01*
X35927400Y-17600425D01*
X600000Y-17600425D01*
X600000Y-15043825D01*
X73168600Y-15043825D01*
X73168600Y-15188775D01*
X73206116Y-15328785D01*
X73206117Y-15328788D01*
X73278588Y-15454311D01*
X73278590Y-15454313D01*
X73278591Y-15454315D01*
X73381085Y-15556809D01*
X73381086Y-15556810D01*
X73381088Y-15556811D01*
X73506611Y-15629282D01*
X73506612Y-15629282D01*
X73506615Y-15629284D01*
X73646625Y-15666800D01*
X73646628Y-15666800D01*
X73791572Y-15666800D01*
X73791575Y-15666800D01*
X73931585Y-15629284D01*
X74057115Y-15556809D01*
X74159609Y-15454315D01*
X74232084Y-15328785D01*
X74269600Y-15188775D01*
X74269600Y-15043825D01*
X74232084Y-14903815D01*
X74202991Y-14853425D01*
X89514000Y-14853425D01*
X89514000Y-14998375D01*
X89551516Y-15138385D01*
X89551517Y-15138388D01*
X89623988Y-15263911D01*
X89623990Y-15263913D01*
X89623991Y-15263915D01*
X89726485Y-15366409D01*
X89726486Y-15366410D01*
X89726488Y-15366411D01*
X89852011Y-15438882D01*
X89852012Y-15438882D01*
X89852015Y-15438884D01*
X89992025Y-15476400D01*
X89992028Y-15476400D01*
X90136972Y-15476400D01*
X90136975Y-15476400D01*
X90276985Y-15438884D01*
X90402515Y-15366409D01*
X90505009Y-15263915D01*
X90577484Y-15138385D01*
X90615000Y-14998375D01*
X90615000Y-14853425D01*
X90600142Y-14797973D01*
X117449500Y-14797973D01*
X117449500Y-15042026D01*
X117484643Y-15263911D01*
X117487679Y-15283076D01*
X117563096Y-15515185D01*
X117640347Y-15666800D01*
X117673896Y-15732642D01*
X117817339Y-15930076D01*
X117817343Y-15930081D01*
X117989918Y-16102656D01*
X117989923Y-16102660D01*
X118162136Y-16227779D01*
X118187361Y-16246106D01*
X118404815Y-16356904D01*
X118636924Y-16432321D01*
X118877973Y-16470500D01*
X118877974Y-16470500D01*
X119122026Y-16470500D01*
X119122027Y-16470500D01*
X119363076Y-16432321D01*
X119595185Y-16356904D01*
X119812639Y-16246106D01*
X120010083Y-16102655D01*
X120182655Y-15930083D01*
X120326106Y-15732639D01*
X120436904Y-15515185D01*
X120512321Y-15283076D01*
X120550500Y-15042027D01*
X120550500Y-14797973D01*
X120512321Y-14556924D01*
X120436904Y-14324815D01*
X120326106Y-14107361D01*
X120307779Y-14082136D01*
X120182660Y-13909923D01*
X120182656Y-13909918D01*
X120010081Y-13737343D01*
X120010076Y-13737339D01*
X119812642Y-13593896D01*
X119812641Y-13593895D01*
X119812639Y-13593894D01*
X119595185Y-13483096D01*
X119363076Y-13407679D01*
X119363074Y-13407678D01*
X119363072Y-13407678D01*
X119194769Y-13381021D01*
X119122027Y-13369500D01*
X118877973Y-13369500D01*
X118822093Y-13378350D01*
X118636927Y-13407678D01*
X118404812Y-13483097D01*
X118187357Y-13593896D01*
X117989923Y-13737339D01*
X117989918Y-13737343D01*
X117817343Y-13909918D01*
X117817339Y-13909923D01*
X117673896Y-14107357D01*
X117563097Y-14324812D01*
X117487678Y-14556927D01*
X117449500Y-14797973D01*
X90600142Y-14797973D01*
X90577484Y-14713415D01*
X90505009Y-14587885D01*
X90402515Y-14485391D01*
X90402513Y-14485390D01*
X90402511Y-14485388D01*
X90276988Y-14412917D01*
X90276989Y-14412917D01*
X90265506Y-14409840D01*
X90136975Y-14375400D01*
X89992025Y-14375400D01*
X89863493Y-14409840D01*
X89852011Y-14412917D01*
X89726488Y-14485388D01*
X89726482Y-14485393D01*
X89623993Y-14587882D01*
X89623988Y-14587888D01*
X89551517Y-14713411D01*
X89551516Y-14713415D01*
X89514000Y-14853425D01*
X74202991Y-14853425D01*
X74159609Y-14778285D01*
X74057115Y-14675791D01*
X74057113Y-14675790D01*
X74057111Y-14675788D01*
X73931588Y-14603317D01*
X73931589Y-14603317D01*
X73920106Y-14600240D01*
X73791575Y-14565800D01*
X73646625Y-14565800D01*
X73518093Y-14600240D01*
X73506611Y-14603317D01*
X73381088Y-14675788D01*
X73381082Y-14675793D01*
X73278593Y-14778282D01*
X73278588Y-14778288D01*
X73206117Y-14903811D01*
X73206116Y-14903815D01*
X73168600Y-15043825D01*
X600000Y-15043825D01*
X600000Y-6227135D01*
X11899500Y-6227135D01*
X11899500Y-7772870D01*
X11899501Y-7772876D01*
X11905908Y-7832483D01*
X11956202Y-7967328D01*
X11956206Y-7967335D01*
X12042452Y-8082544D01*
X12042455Y-8082547D01*
X12157664Y-8168793D01*
X12157671Y-8168797D01*
X12292517Y-8219091D01*
X12292516Y-8219091D01*
X12299444Y-8219835D01*
X12352127Y-8225500D01*
X13647872Y-8225499D01*
X13707483Y-8219091D01*
X13842331Y-8168796D01*
X13957546Y-8082546D01*
X14043796Y-7967331D01*
X14094091Y-7832483D01*
X14100500Y-7772873D01*
X14100499Y-6788389D01*
X14399500Y-6788389D01*
X14399500Y-7211611D01*
X14426598Y-7382701D01*
X14480127Y-7547445D01*
X14558768Y-7701788D01*
X14660586Y-7841928D01*
X14783072Y-7964414D01*
X14923212Y-8066232D01*
X15077555Y-8144873D01*
X15242299Y-8198402D01*
X15413389Y-8225500D01*
X15413390Y-8225500D01*
X15586610Y-8225500D01*
X15586611Y-8225500D01*
X15757701Y-8198402D01*
X15922445Y-8144873D01*
X16076788Y-8066232D01*
X16216928Y-7964414D01*
X16339414Y-7841928D01*
X16441232Y-7701788D01*
X16519873Y-7547445D01*
X16573402Y-7382701D01*
X16600500Y-7211611D01*
X16600500Y-6788389D01*
X16899500Y-6788389D01*
X16899500Y-7211611D01*
X16926598Y-7382701D01*
X16980127Y-7547445D01*
X17058768Y-7701788D01*
X17160586Y-7841928D01*
X17283072Y-7964414D01*
X17423212Y-8066232D01*
X17577555Y-8144873D01*
X17742299Y-8198402D01*
X17913389Y-8225500D01*
X17913390Y-8225500D01*
X18086610Y-8225500D01*
X18086611Y-8225500D01*
X18257701Y-8198402D01*
X18422445Y-8144873D01*
X18576788Y-8066232D01*
X18716928Y-7964414D01*
X18839414Y-7841928D01*
X18941232Y-7701788D01*
X19019873Y-7547445D01*
X19073402Y-7382701D01*
X19100500Y-7211611D01*
X19100500Y-6788389D01*
X19399500Y-6788389D01*
X19399500Y-7211611D01*
X19426598Y-7382701D01*
X19480127Y-7547445D01*
X19558768Y-7701788D01*
X19660586Y-7841928D01*
X19783072Y-7964414D01*
X19923212Y-8066232D01*
X20077555Y-8144873D01*
X20242299Y-8198402D01*
X20413389Y-8225500D01*
X20413390Y-8225500D01*
X20586610Y-8225500D01*
X20586611Y-8225500D01*
X20757701Y-8198402D01*
X20922445Y-8144873D01*
X21076788Y-8066232D01*
X21216928Y-7964414D01*
X21339414Y-7841928D01*
X21441232Y-7701788D01*
X21519873Y-7547445D01*
X21573402Y-7382701D01*
X21600500Y-7211611D01*
X21600500Y-6788389D01*
X21573402Y-6617299D01*
X21519873Y-6452555D01*
X21441232Y-6298212D01*
X21441230Y-6298209D01*
X21441229Y-6298207D01*
X21440130Y-6296693D01*
X21440128Y-6296692D01*
X21389591Y-6227135D01*
X30899500Y-6227135D01*
X30899500Y-7772870D01*
X30899501Y-7772876D01*
X30905908Y-7832483D01*
X30956202Y-7967328D01*
X30956206Y-7967335D01*
X31042452Y-8082544D01*
X31042455Y-8082547D01*
X31157664Y-8168793D01*
X31157671Y-8168797D01*
X31292517Y-8219091D01*
X31292516Y-8219091D01*
X31299444Y-8219835D01*
X31352127Y-8225500D01*
X32647872Y-8225499D01*
X32707483Y-8219091D01*
X32842331Y-8168796D01*
X32957546Y-8082546D01*
X33043796Y-7967331D01*
X33094091Y-7832483D01*
X33100500Y-7772873D01*
X33100499Y-6788389D01*
X33399500Y-6788389D01*
X33399500Y-7211611D01*
X33426598Y-7382701D01*
X33480127Y-7547445D01*
X33558768Y-7701788D01*
X33660586Y-7841928D01*
X33783072Y-7964414D01*
X33923212Y-8066232D01*
X34077555Y-8144873D01*
X34242299Y-8198402D01*
X34413389Y-8225500D01*
X34413390Y-8225500D01*
X34586610Y-8225500D01*
X34586611Y-8225500D01*
X34757701Y-8198402D01*
X34922445Y-8144873D01*
X35076788Y-8066232D01*
X35216928Y-7964414D01*
X35339414Y-7841928D01*
X35441232Y-7701788D01*
X35519873Y-7547445D01*
X35573402Y-7382701D01*
X35600500Y-7211611D01*
X35600500Y-6788389D01*
X35899500Y-6788389D01*
X35899500Y-7211611D01*
X35926598Y-7382701D01*
X35980127Y-7547445D01*
X36058768Y-7701788D01*
X36160586Y-7841928D01*
X36283072Y-7964414D01*
X36423212Y-8066232D01*
X36577555Y-8144873D01*
X36742299Y-8198402D01*
X36913389Y-8225500D01*
X36913390Y-8225500D01*
X37086610Y-8225500D01*
X37086611Y-8225500D01*
X37257701Y-8198402D01*
X37422445Y-8144873D01*
X37576788Y-8066232D01*
X37716928Y-7964414D01*
X37839414Y-7841928D01*
X37941232Y-7701788D01*
X38019873Y-7547445D01*
X38073402Y-7382701D01*
X38100500Y-7211611D01*
X38100500Y-6788389D01*
X38399500Y-6788389D01*
X38399500Y-7211611D01*
X38426598Y-7382701D01*
X38480127Y-7547445D01*
X38558768Y-7701788D01*
X38660586Y-7841928D01*
X38783072Y-7964414D01*
X38923212Y-8066232D01*
X39077555Y-8144873D01*
X39242299Y-8198402D01*
X39413389Y-8225500D01*
X39413390Y-8225500D01*
X39586610Y-8225500D01*
X39586611Y-8225500D01*
X39757701Y-8198402D01*
X39922445Y-8144873D01*
X40076788Y-8066232D01*
X40216928Y-7964414D01*
X40339414Y-7841928D01*
X40441232Y-7701788D01*
X40519873Y-7547445D01*
X40573402Y-7382701D01*
X40600500Y-7211611D01*
X40600500Y-6788389D01*
X40573402Y-6617299D01*
X40519873Y-6452555D01*
X40441232Y-6298212D01*
X40441230Y-6298209D01*
X40441229Y-6298207D01*
X40440130Y-6296693D01*
X40440128Y-6296692D01*
X40389591Y-6227135D01*
X49899500Y-6227135D01*
X49899500Y-7772870D01*
X49899501Y-7772876D01*
X49905908Y-7832483D01*
X49956202Y-7967328D01*
X49956206Y-7967335D01*
X50042452Y-8082544D01*
X50042455Y-8082547D01*
X50157664Y-8168793D01*
X50157671Y-8168797D01*
X50292517Y-8219091D01*
X50292516Y-8219091D01*
X50299444Y-8219835D01*
X50352127Y-8225500D01*
X51647872Y-8225499D01*
X51707483Y-8219091D01*
X51842331Y-8168796D01*
X51957546Y-8082546D01*
X52043796Y-7967331D01*
X52094091Y-7832483D01*
X52100500Y-7772873D01*
X52100499Y-6788389D01*
X52399500Y-6788389D01*
X52399500Y-7211611D01*
X52426598Y-7382701D01*
X52480127Y-7547445D01*
X52558768Y-7701788D01*
X52660586Y-7841928D01*
X52783072Y-7964414D01*
X52923212Y-8066232D01*
X53077555Y-8144873D01*
X53242299Y-8198402D01*
X53413389Y-8225500D01*
X53413390Y-8225500D01*
X53586610Y-8225500D01*
X53586611Y-8225500D01*
X53757701Y-8198402D01*
X53922445Y-8144873D01*
X54076788Y-8066232D01*
X54216928Y-7964414D01*
X54339414Y-7841928D01*
X54441232Y-7701788D01*
X54519873Y-7547445D01*
X54573402Y-7382701D01*
X54600500Y-7211611D01*
X54600500Y-6788389D01*
X54899500Y-6788389D01*
X54899500Y-7211611D01*
X54926598Y-7382701D01*
X54980127Y-7547445D01*
X55058768Y-7701788D01*
X55160586Y-7841928D01*
X55283072Y-7964414D01*
X55423212Y-8066232D01*
X55577555Y-8144873D01*
X55742299Y-8198402D01*
X55913389Y-8225500D01*
X55913390Y-8225500D01*
X56086610Y-8225500D01*
X56086611Y-8225500D01*
X56257701Y-8198402D01*
X56422445Y-8144873D01*
X56576788Y-8066232D01*
X56716928Y-7964414D01*
X56839414Y-7841928D01*
X56941232Y-7701788D01*
X57019873Y-7547445D01*
X57073402Y-7382701D01*
X57100500Y-7211611D01*
X57100500Y-6788389D01*
X57399500Y-6788389D01*
X57399500Y-7211611D01*
X57426598Y-7382701D01*
X57480127Y-7547445D01*
X57558768Y-7701788D01*
X57660586Y-7841928D01*
X57783072Y-7964414D01*
X57923212Y-8066232D01*
X58077555Y-8144873D01*
X58242299Y-8198402D01*
X58413389Y-8225500D01*
X58413390Y-8225500D01*
X58586610Y-8225500D01*
X58586611Y-8225500D01*
X58757701Y-8198402D01*
X58922445Y-8144873D01*
X59076788Y-8066232D01*
X59216928Y-7964414D01*
X59339414Y-7841928D01*
X59441232Y-7701788D01*
X59519873Y-7547445D01*
X59573402Y-7382701D01*
X59600500Y-7211611D01*
X59600500Y-6788389D01*
X59573402Y-6617299D01*
X59519873Y-6452555D01*
X59441232Y-6298212D01*
X59441230Y-6298209D01*
X59441229Y-6298207D01*
X59440130Y-6296693D01*
X59440128Y-6296692D01*
X59389591Y-6227135D01*
X68899500Y-6227135D01*
X68899500Y-7772870D01*
X68899501Y-7772876D01*
X68905908Y-7832483D01*
X68956202Y-7967328D01*
X68956206Y-7967335D01*
X69042452Y-8082544D01*
X69042455Y-8082547D01*
X69157664Y-8168793D01*
X69157671Y-8168797D01*
X69292517Y-8219091D01*
X69292516Y-8219091D01*
X69299444Y-8219835D01*
X69352127Y-8225500D01*
X70647872Y-8225499D01*
X70707483Y-8219091D01*
X70842331Y-8168796D01*
X70957546Y-8082546D01*
X71043796Y-7967331D01*
X71094091Y-7832483D01*
X71100500Y-7772873D01*
X71100499Y-6788389D01*
X71399500Y-6788389D01*
X71399500Y-7211611D01*
X71426598Y-7382701D01*
X71480127Y-7547445D01*
X71558768Y-7701788D01*
X71660586Y-7841928D01*
X71783072Y-7964414D01*
X71923212Y-8066232D01*
X72077555Y-8144873D01*
X72242299Y-8198402D01*
X72413389Y-8225500D01*
X72413390Y-8225500D01*
X72586610Y-8225500D01*
X72586611Y-8225500D01*
X72757701Y-8198402D01*
X72922445Y-8144873D01*
X73076788Y-8066232D01*
X73216928Y-7964414D01*
X73339414Y-7841928D01*
X73441232Y-7701788D01*
X73519873Y-7547445D01*
X73573402Y-7382701D01*
X73600500Y-7211611D01*
X73600500Y-6788389D01*
X73899500Y-6788389D01*
X73899500Y-7211611D01*
X73926598Y-7382701D01*
X73980127Y-7547445D01*
X74058768Y-7701788D01*
X74160586Y-7841928D01*
X74283072Y-7964414D01*
X74423212Y-8066232D01*
X74577555Y-8144873D01*
X74742299Y-8198402D01*
X74913389Y-8225500D01*
X74913390Y-8225500D01*
X75086610Y-8225500D01*
X75086611Y-8225500D01*
X75257701Y-8198402D01*
X75422445Y-8144873D01*
X75576788Y-8066232D01*
X75716928Y-7964414D01*
X75839414Y-7841928D01*
X75941232Y-7701788D01*
X76019873Y-7547445D01*
X76073402Y-7382701D01*
X76100500Y-7211611D01*
X76100500Y-6788389D01*
X76399500Y-6788389D01*
X76399500Y-7211611D01*
X76426598Y-7382701D01*
X76480127Y-7547445D01*
X76558768Y-7701788D01*
X76660586Y-7841928D01*
X76783072Y-7964414D01*
X76923212Y-8066232D01*
X77077555Y-8144873D01*
X77242299Y-8198402D01*
X77413389Y-8225500D01*
X77413390Y-8225500D01*
X77586610Y-8225500D01*
X77586611Y-8225500D01*
X77757701Y-8198402D01*
X77922445Y-8144873D01*
X78076788Y-8066232D01*
X78216928Y-7964414D01*
X78339414Y-7841928D01*
X78441232Y-7701788D01*
X78519873Y-7547445D01*
X78573402Y-7382701D01*
X78600500Y-7211611D01*
X78600500Y-6788389D01*
X78573402Y-6617299D01*
X78519873Y-6452555D01*
X78441232Y-6298212D01*
X78441230Y-6298209D01*
X78441229Y-6298207D01*
X78440130Y-6296693D01*
X78440128Y-6296692D01*
X78389591Y-6227135D01*
X87899500Y-6227135D01*
X87899500Y-7772870D01*
X87899501Y-7772876D01*
X87905908Y-7832483D01*
X87956202Y-7967328D01*
X87956206Y-7967335D01*
X88042452Y-8082544D01*
X88042455Y-8082547D01*
X88157664Y-8168793D01*
X88157671Y-8168797D01*
X88292517Y-8219091D01*
X88292516Y-8219091D01*
X88299444Y-8219835D01*
X88352127Y-8225500D01*
X89647872Y-8225499D01*
X89707483Y-8219091D01*
X89842331Y-8168796D01*
X89957546Y-8082546D01*
X90043796Y-7967331D01*
X90094091Y-7832483D01*
X90100500Y-7772873D01*
X90100499Y-6788389D01*
X90399500Y-6788389D01*
X90399500Y-7211611D01*
X90426598Y-7382701D01*
X90480127Y-7547445D01*
X90558768Y-7701788D01*
X90660586Y-7841928D01*
X90783072Y-7964414D01*
X90923212Y-8066232D01*
X91077555Y-8144873D01*
X91242299Y-8198402D01*
X91413389Y-8225500D01*
X91413390Y-8225500D01*
X91586610Y-8225500D01*
X91586611Y-8225500D01*
X91757701Y-8198402D01*
X91922445Y-8144873D01*
X92076788Y-8066232D01*
X92216928Y-7964414D01*
X92339414Y-7841928D01*
X92441232Y-7701788D01*
X92519873Y-7547445D01*
X92573402Y-7382701D01*
X92600500Y-7211611D01*
X92600500Y-6788389D01*
X92899500Y-6788389D01*
X92899500Y-7211611D01*
X92926598Y-7382701D01*
X92980127Y-7547445D01*
X93058768Y-7701788D01*
X93160586Y-7841928D01*
X93283072Y-7964414D01*
X93423212Y-8066232D01*
X93577555Y-8144873D01*
X93742299Y-8198402D01*
X93913389Y-8225500D01*
X93913390Y-8225500D01*
X94086610Y-8225500D01*
X94086611Y-8225500D01*
X94257701Y-8198402D01*
X94422445Y-8144873D01*
X94576788Y-8066232D01*
X94716928Y-7964414D01*
X94839414Y-7841928D01*
X94941232Y-7701788D01*
X95019873Y-7547445D01*
X95073402Y-7382701D01*
X95100500Y-7211611D01*
X95100500Y-6788389D01*
X95399500Y-6788389D01*
X95399500Y-7211611D01*
X95426598Y-7382701D01*
X95480127Y-7547445D01*
X95558768Y-7701788D01*
X95660586Y-7841928D01*
X95783072Y-7964414D01*
X95923212Y-8066232D01*
X96077555Y-8144873D01*
X96242299Y-8198402D01*
X96413389Y-8225500D01*
X96413390Y-8225500D01*
X96586610Y-8225500D01*
X96586611Y-8225500D01*
X96757701Y-8198402D01*
X96922445Y-8144873D01*
X97076788Y-8066232D01*
X97216928Y-7964414D01*
X97339414Y-7841928D01*
X97441232Y-7701788D01*
X97519873Y-7547445D01*
X97573402Y-7382701D01*
X97600500Y-7211611D01*
X97600500Y-6788389D01*
X97573402Y-6617299D01*
X97519873Y-6452555D01*
X97441232Y-6298212D01*
X97441230Y-6298209D01*
X97441229Y-6298207D01*
X97440130Y-6296693D01*
X97440128Y-6296692D01*
X97389591Y-6227135D01*
X102899500Y-6227135D01*
X102899500Y-7772870D01*
X102899501Y-7772876D01*
X102905908Y-7832483D01*
X102956202Y-7967328D01*
X102956206Y-7967335D01*
X103042452Y-8082544D01*
X103042455Y-8082547D01*
X103157664Y-8168793D01*
X103157671Y-8168797D01*
X103292517Y-8219091D01*
X103292516Y-8219091D01*
X103299444Y-8219835D01*
X103352127Y-8225500D01*
X104647872Y-8225499D01*
X104707483Y-8219091D01*
X104842331Y-8168796D01*
X104957546Y-8082546D01*
X105043796Y-7967331D01*
X105094091Y-7832483D01*
X105100500Y-7772873D01*
X105100499Y-6788389D01*
X105399500Y-6788389D01*
X105399500Y-7211611D01*
X105426598Y-7382701D01*
X105480127Y-7547445D01*
X105558768Y-7701788D01*
X105660586Y-7841928D01*
X105783072Y-7964414D01*
X105923212Y-8066232D01*
X106077555Y-8144873D01*
X106242299Y-8198402D01*
X106413389Y-8225500D01*
X106413390Y-8225500D01*
X106586610Y-8225500D01*
X106586611Y-8225500D01*
X106757701Y-8198402D01*
X106922445Y-8144873D01*
X107076788Y-8066232D01*
X107216928Y-7964414D01*
X107339414Y-7841928D01*
X107441232Y-7701788D01*
X107519873Y-7547445D01*
X107573402Y-7382701D01*
X107600500Y-7211611D01*
X107600500Y-6788389D01*
X107899500Y-6788389D01*
X107899500Y-7211611D01*
X107926598Y-7382701D01*
X107980127Y-7547445D01*
X108058768Y-7701788D01*
X108160586Y-7841928D01*
X108283072Y-7964414D01*
X108423212Y-8066232D01*
X108577555Y-8144873D01*
X108742299Y-8198402D01*
X108913389Y-8225500D01*
X108913390Y-8225500D01*
X109086610Y-8225500D01*
X109086611Y-8225500D01*
X109257701Y-8198402D01*
X109422445Y-8144873D01*
X109576788Y-8066232D01*
X109716928Y-7964414D01*
X109839414Y-7841928D01*
X109941232Y-7701788D01*
X110019873Y-7547445D01*
X110073402Y-7382701D01*
X110100500Y-7211611D01*
X110100500Y-6788389D01*
X110399500Y-6788389D01*
X110399500Y-7211611D01*
X110426598Y-7382701D01*
X110480127Y-7547445D01*
X110558768Y-7701788D01*
X110660586Y-7841928D01*
X110783072Y-7964414D01*
X110923212Y-8066232D01*
X111077555Y-8144873D01*
X111242299Y-8198402D01*
X111413389Y-8225500D01*
X111413390Y-8225500D01*
X111586610Y-8225500D01*
X111586611Y-8225500D01*
X111757701Y-8198402D01*
X111922445Y-8144873D01*
X112076788Y-8066232D01*
X112216928Y-7964414D01*
X112339414Y-7841928D01*
X112441232Y-7701788D01*
X112519873Y-7547445D01*
X112573402Y-7382701D01*
X112600500Y-7211611D01*
X112600500Y-6788389D01*
X112573402Y-6617299D01*
X112519873Y-6452555D01*
X112441232Y-6298212D01*
X112339414Y-6158072D01*
X112216928Y-6035586D01*
X112076788Y-5933768D01*
X111922445Y-5855127D01*
X111757701Y-5801598D01*
X111757699Y-5801597D01*
X111757698Y-5801597D01*
X111626271Y-5780781D01*
X111586611Y-5774500D01*
X111413389Y-5774500D01*
X111373728Y-5780781D01*
X111242302Y-5801597D01*
X111077552Y-5855128D01*
X110923211Y-5933768D01*
X110843256Y-5991859D01*
X110783072Y-6035586D01*
X110783070Y-6035588D01*
X110783069Y-6035588D01*
X110660588Y-6158069D01*
X110660588Y-6158070D01*
X110660586Y-6158072D01*
X110653725Y-6167516D01*
X110558768Y-6298211D01*
X110480128Y-6452552D01*
X110426597Y-6617302D01*
X110399500Y-6788389D01*
X110100500Y-6788389D01*
X110073402Y-6617299D01*
X110019873Y-6452555D01*
X109941232Y-6298212D01*
X109839414Y-6158072D01*
X109716928Y-6035586D01*
X109576788Y-5933768D01*
X109422445Y-5855127D01*
X109257701Y-5801598D01*
X109257699Y-5801597D01*
X109257698Y-5801597D01*
X109126271Y-5780781D01*
X109086611Y-5774500D01*
X108913389Y-5774500D01*
X108873728Y-5780781D01*
X108742302Y-5801597D01*
X108577552Y-5855128D01*
X108423211Y-5933768D01*
X108343256Y-5991859D01*
X108283072Y-6035586D01*
X108283070Y-6035588D01*
X108283069Y-6035588D01*
X108160588Y-6158069D01*
X108160588Y-6158070D01*
X108160586Y-6158072D01*
X108153725Y-6167516D01*
X108058768Y-6298211D01*
X107980128Y-6452552D01*
X107926597Y-6617302D01*
X107899500Y-6788389D01*
X107600500Y-6788389D01*
X107573402Y-6617299D01*
X107519873Y-6452555D01*
X107441232Y-6298212D01*
X107339414Y-6158072D01*
X107216928Y-6035586D01*
X107076788Y-5933768D01*
X106922445Y-5855127D01*
X106757701Y-5801598D01*
X106757699Y-5801597D01*
X106757698Y-5801597D01*
X106626271Y-5780781D01*
X106586611Y-5774500D01*
X106413389Y-5774500D01*
X106373728Y-5780781D01*
X106242302Y-5801597D01*
X106077552Y-5855128D01*
X105923211Y-5933768D01*
X105843256Y-5991859D01*
X105783072Y-6035586D01*
X105783070Y-6035588D01*
X105783069Y-6035588D01*
X105660588Y-6158069D01*
X105660588Y-6158070D01*
X105660586Y-6158072D01*
X105653725Y-6167516D01*
X105558768Y-6298211D01*
X105480128Y-6452552D01*
X105426597Y-6617302D01*
X105399500Y-6788389D01*
X105100499Y-6788389D01*
X105100499Y-6227128D01*
X105094091Y-6167517D01*
X105090568Y-6158072D01*
X105043797Y-6032671D01*
X105043793Y-6032664D01*
X104957547Y-5917455D01*
X104957544Y-5917452D01*
X104842335Y-5831206D01*
X104842328Y-5831202D01*
X104707482Y-5780908D01*
X104707483Y-5780908D01*
X104647883Y-5774501D01*
X104647881Y-5774500D01*
X104647873Y-5774500D01*
X104647864Y-5774500D01*
X103352129Y-5774500D01*
X103352123Y-5774501D01*
X103292516Y-5780908D01*
X103157671Y-5831202D01*
X103157664Y-5831206D01*
X103042455Y-5917452D01*
X103042452Y-5917455D01*
X102956206Y-6032664D01*
X102956202Y-6032671D01*
X102905908Y-6167517D01*
X102899501Y-6227116D01*
X102899501Y-6227123D01*
X102899500Y-6227135D01*
X97389591Y-6227135D01*
X97389586Y-6227128D01*
X97339414Y-6158072D01*
X97216928Y-6035586D01*
X97076788Y-5933768D01*
X96922445Y-5855127D01*
X96757701Y-5801598D01*
X96757699Y-5801597D01*
X96757698Y-5801597D01*
X96626271Y-5780781D01*
X96586611Y-5774500D01*
X96413389Y-5774500D01*
X96373728Y-5780781D01*
X96242302Y-5801597D01*
X96077552Y-5855128D01*
X95923211Y-5933768D01*
X95843256Y-5991859D01*
X95783072Y-6035586D01*
X95783070Y-6035588D01*
X95783069Y-6035588D01*
X95660588Y-6158069D01*
X95660588Y-6158070D01*
X95660586Y-6158072D01*
X95653725Y-6167516D01*
X95558768Y-6298211D01*
X95480128Y-6452552D01*
X95426597Y-6617302D01*
X95399500Y-6788389D01*
X95100500Y-6788389D01*
X95073402Y-6617299D01*
X95019873Y-6452555D01*
X94941232Y-6298212D01*
X94839414Y-6158072D01*
X94716928Y-6035586D01*
X94576788Y-5933768D01*
X94422445Y-5855127D01*
X94257701Y-5801598D01*
X94257699Y-5801597D01*
X94257698Y-5801597D01*
X94126271Y-5780781D01*
X94086611Y-5774500D01*
X93913389Y-5774500D01*
X93873728Y-5780781D01*
X93742302Y-5801597D01*
X93577552Y-5855128D01*
X93423211Y-5933768D01*
X93343256Y-5991859D01*
X93283072Y-6035586D01*
X93283070Y-6035588D01*
X93283069Y-6035588D01*
X93160588Y-6158069D01*
X93160588Y-6158070D01*
X93160586Y-6158072D01*
X93153725Y-6167516D01*
X93058768Y-6298211D01*
X92980128Y-6452552D01*
X92926597Y-6617302D01*
X92899500Y-6788389D01*
X92600500Y-6788389D01*
X92573402Y-6617299D01*
X92519873Y-6452555D01*
X92441232Y-6298212D01*
X92339414Y-6158072D01*
X92216928Y-6035586D01*
X92076788Y-5933768D01*
X91922445Y-5855127D01*
X91757701Y-5801598D01*
X91757699Y-5801597D01*
X91757698Y-5801597D01*
X91626271Y-5780781D01*
X91586611Y-5774500D01*
X91413389Y-5774500D01*
X91373728Y-5780781D01*
X91242302Y-5801597D01*
X91077552Y-5855128D01*
X90923211Y-5933768D01*
X90843256Y-5991859D01*
X90783072Y-6035586D01*
X90783070Y-6035588D01*
X90783069Y-6035588D01*
X90660588Y-6158069D01*
X90660588Y-6158070D01*
X90660586Y-6158072D01*
X90653725Y-6167516D01*
X90558768Y-6298211D01*
X90480128Y-6452552D01*
X90426597Y-6617302D01*
X90399500Y-6788389D01*
X90100499Y-6788389D01*
X90100499Y-6227128D01*
X90094091Y-6167517D01*
X90090568Y-6158072D01*
X90043797Y-6032671D01*
X90043793Y-6032664D01*
X89957547Y-5917455D01*
X89957544Y-5917452D01*
X89842335Y-5831206D01*
X89842328Y-5831202D01*
X89707482Y-5780908D01*
X89707483Y-5780908D01*
X89647883Y-5774501D01*
X89647881Y-5774500D01*
X89647873Y-5774500D01*
X89647864Y-5774500D01*
X88352129Y-5774500D01*
X88352123Y-5774501D01*
X88292516Y-5780908D01*
X88157671Y-5831202D01*
X88157664Y-5831206D01*
X88042455Y-5917452D01*
X88042452Y-5917455D01*
X87956206Y-6032664D01*
X87956202Y-6032671D01*
X87905908Y-6167517D01*
X87899501Y-6227116D01*
X87899501Y-6227123D01*
X87899500Y-6227135D01*
X78389591Y-6227135D01*
X78389586Y-6227128D01*
X78339414Y-6158072D01*
X78216928Y-6035586D01*
X78076788Y-5933768D01*
X77922445Y-5855127D01*
X77757701Y-5801598D01*
X77757699Y-5801597D01*
X77757698Y-5801597D01*
X77626271Y-5780781D01*
X77586611Y-5774500D01*
X77413389Y-5774500D01*
X77373728Y-5780781D01*
X77242302Y-5801597D01*
X77077552Y-5855128D01*
X76923211Y-5933768D01*
X76843256Y-5991859D01*
X76783072Y-6035586D01*
X76783070Y-6035588D01*
X76783069Y-6035588D01*
X76660588Y-6158069D01*
X76660588Y-6158070D01*
X76660586Y-6158072D01*
X76653725Y-6167516D01*
X76558768Y-6298211D01*
X76480128Y-6452552D01*
X76426597Y-6617302D01*
X76399500Y-6788389D01*
X76100500Y-6788389D01*
X76073402Y-6617299D01*
X76019873Y-6452555D01*
X75941232Y-6298212D01*
X75839414Y-6158072D01*
X75716928Y-6035586D01*
X75576788Y-5933768D01*
X75422445Y-5855127D01*
X75257701Y-5801598D01*
X75257699Y-5801597D01*
X75257698Y-5801597D01*
X75126271Y-5780781D01*
X75086611Y-5774500D01*
X74913389Y-5774500D01*
X74873728Y-5780781D01*
X74742302Y-5801597D01*
X74577552Y-5855128D01*
X74423211Y-5933768D01*
X74343256Y-5991859D01*
X74283072Y-6035586D01*
X74283070Y-6035588D01*
X74283069Y-6035588D01*
X74160588Y-6158069D01*
X74160588Y-6158070D01*
X74160586Y-6158072D01*
X74153725Y-6167516D01*
X74058768Y-6298211D01*
X73980128Y-6452552D01*
X73926597Y-6617302D01*
X73899500Y-6788389D01*
X73600500Y-6788389D01*
X73573402Y-6617299D01*
X73519873Y-6452555D01*
X73441232Y-6298212D01*
X73339414Y-6158072D01*
X73216928Y-6035586D01*
X73076788Y-5933768D01*
X72922445Y-5855127D01*
X72757701Y-5801598D01*
X72757699Y-5801597D01*
X72757698Y-5801597D01*
X72626271Y-5780781D01*
X72586611Y-5774500D01*
X72413389Y-5774500D01*
X72373728Y-5780781D01*
X72242302Y-5801597D01*
X72077552Y-5855128D01*
X71923211Y-5933768D01*
X71843256Y-5991859D01*
X71783072Y-6035586D01*
X71783070Y-6035588D01*
X71783069Y-6035588D01*
X71660588Y-6158069D01*
X71660588Y-6158070D01*
X71660586Y-6158072D01*
X71653725Y-6167516D01*
X71558768Y-6298211D01*
X71480128Y-6452552D01*
X71426597Y-6617302D01*
X71399500Y-6788389D01*
X71100499Y-6788389D01*
X71100499Y-6227128D01*
X71094091Y-6167517D01*
X71090568Y-6158072D01*
X71043797Y-6032671D01*
X71043793Y-6032664D01*
X70957547Y-5917455D01*
X70957544Y-5917452D01*
X70842335Y-5831206D01*
X70842328Y-5831202D01*
X70707482Y-5780908D01*
X70707483Y-5780908D01*
X70647883Y-5774501D01*
X70647881Y-5774500D01*
X70647873Y-5774500D01*
X70647864Y-5774500D01*
X69352129Y-5774500D01*
X69352123Y-5774501D01*
X69292516Y-5780908D01*
X69157671Y-5831202D01*
X69157664Y-5831206D01*
X69042455Y-5917452D01*
X69042452Y-5917455D01*
X68956206Y-6032664D01*
X68956202Y-6032671D01*
X68905908Y-6167517D01*
X68899501Y-6227116D01*
X68899501Y-6227123D01*
X68899500Y-6227135D01*
X59389591Y-6227135D01*
X59389586Y-6227128D01*
X59339414Y-6158072D01*
X59216928Y-6035586D01*
X59076788Y-5933768D01*
X58922445Y-5855127D01*
X58757701Y-5801598D01*
X58757699Y-5801597D01*
X58757698Y-5801597D01*
X58626271Y-5780781D01*
X58586611Y-5774500D01*
X58413389Y-5774500D01*
X58373728Y-5780781D01*
X58242302Y-5801597D01*
X58077552Y-5855128D01*
X57923211Y-5933768D01*
X57843256Y-5991859D01*
X57783072Y-6035586D01*
X57783070Y-6035588D01*
X57783069Y-6035588D01*
X57660588Y-6158069D01*
X57660588Y-6158070D01*
X57660586Y-6158072D01*
X57653725Y-6167516D01*
X57558768Y-6298211D01*
X57480128Y-6452552D01*
X57426597Y-6617302D01*
X57399500Y-6788389D01*
X57100500Y-6788389D01*
X57073402Y-6617299D01*
X57019873Y-6452555D01*
X56941232Y-6298212D01*
X56839414Y-6158072D01*
X56716928Y-6035586D01*
X56576788Y-5933768D01*
X56422445Y-5855127D01*
X56257701Y-5801598D01*
X56257699Y-5801597D01*
X56257698Y-5801597D01*
X56126271Y-5780781D01*
X56086611Y-5774500D01*
X55913389Y-5774500D01*
X55873728Y-5780781D01*
X55742302Y-5801597D01*
X55577552Y-5855128D01*
X55423211Y-5933768D01*
X55343256Y-5991859D01*
X55283072Y-6035586D01*
X55283070Y-6035588D01*
X55283069Y-6035588D01*
X55160588Y-6158069D01*
X55160588Y-6158070D01*
X55160586Y-6158072D01*
X55153725Y-6167516D01*
X55058768Y-6298211D01*
X54980128Y-6452552D01*
X54926597Y-6617302D01*
X54899500Y-6788389D01*
X54600500Y-6788389D01*
X54573402Y-6617299D01*
X54519873Y-6452555D01*
X54441232Y-6298212D01*
X54339414Y-6158072D01*
X54216928Y-6035586D01*
X54076788Y-5933768D01*
X53922445Y-5855127D01*
X53757701Y-5801598D01*
X53757699Y-5801597D01*
X53757698Y-5801597D01*
X53626271Y-5780781D01*
X53586611Y-5774500D01*
X53413389Y-5774500D01*
X53373728Y-5780781D01*
X53242302Y-5801597D01*
X53077552Y-5855128D01*
X52923211Y-5933768D01*
X52843256Y-5991859D01*
X52783072Y-6035586D01*
X52783070Y-6035588D01*
X52783069Y-6035588D01*
X52660588Y-6158069D01*
X52660588Y-6158070D01*
X52660586Y-6158072D01*
X52653725Y-6167516D01*
X52558768Y-6298211D01*
X52480128Y-6452552D01*
X52426597Y-6617302D01*
X52399500Y-6788389D01*
X52100499Y-6788389D01*
X52100499Y-6227128D01*
X52094091Y-6167517D01*
X52090568Y-6158072D01*
X52043797Y-6032671D01*
X52043793Y-6032664D01*
X51957547Y-5917455D01*
X51957544Y-5917452D01*
X51842335Y-5831206D01*
X51842328Y-5831202D01*
X51707482Y-5780908D01*
X51707483Y-5780908D01*
X51647883Y-5774501D01*
X51647881Y-5774500D01*
X51647873Y-5774500D01*
X51647864Y-5774500D01*
X50352129Y-5774500D01*
X50352123Y-5774501D01*
X50292516Y-5780908D01*
X50157671Y-5831202D01*
X50157664Y-5831206D01*
X50042455Y-5917452D01*
X50042452Y-5917455D01*
X49956206Y-6032664D01*
X49956202Y-6032671D01*
X49905908Y-6167517D01*
X49899501Y-6227116D01*
X49899501Y-6227123D01*
X49899500Y-6227135D01*
X40389591Y-6227135D01*
X40389586Y-6227128D01*
X40339414Y-6158072D01*
X40216928Y-6035586D01*
X40076788Y-5933768D01*
X39922445Y-5855127D01*
X39757701Y-5801598D01*
X39757699Y-5801597D01*
X39757698Y-5801597D01*
X39626271Y-5780781D01*
X39586611Y-5774500D01*
X39413389Y-5774500D01*
X39373728Y-5780781D01*
X39242302Y-5801597D01*
X39077552Y-5855128D01*
X38923211Y-5933768D01*
X38843256Y-5991859D01*
X38783072Y-6035586D01*
X38783070Y-6035588D01*
X38783069Y-6035588D01*
X38660588Y-6158069D01*
X38660588Y-6158070D01*
X38660586Y-6158072D01*
X38653725Y-6167516D01*
X38558768Y-6298211D01*
X38480128Y-6452552D01*
X38426597Y-6617302D01*
X38399500Y-6788389D01*
X38100500Y-6788389D01*
X38073402Y-6617299D01*
X38019873Y-6452555D01*
X37941232Y-6298212D01*
X37839414Y-6158072D01*
X37716928Y-6035586D01*
X37576788Y-5933768D01*
X37422445Y-5855127D01*
X37257701Y-5801598D01*
X37257699Y-5801597D01*
X37257698Y-5801597D01*
X37126271Y-5780781D01*
X37086611Y-5774500D01*
X36913389Y-5774500D01*
X36873728Y-5780781D01*
X36742302Y-5801597D01*
X36577552Y-5855128D01*
X36423211Y-5933768D01*
X36343256Y-5991859D01*
X36283072Y-6035586D01*
X36283070Y-6035588D01*
X36283069Y-6035588D01*
X36160588Y-6158069D01*
X36160588Y-6158070D01*
X36160586Y-6158072D01*
X36153725Y-6167516D01*
X36058768Y-6298211D01*
X35980128Y-6452552D01*
X35926597Y-6617302D01*
X35899500Y-6788389D01*
X35600500Y-6788389D01*
X35573402Y-6617299D01*
X35519873Y-6452555D01*
X35441232Y-6298212D01*
X35339414Y-6158072D01*
X35216928Y-6035586D01*
X35076788Y-5933768D01*
X34922445Y-5855127D01*
X34757701Y-5801598D01*
X34757699Y-5801597D01*
X34757698Y-5801597D01*
X34626271Y-5780781D01*
X34586611Y-5774500D01*
X34413389Y-5774500D01*
X34373728Y-5780781D01*
X34242302Y-5801597D01*
X34077552Y-5855128D01*
X33923211Y-5933768D01*
X33843256Y-5991859D01*
X33783072Y-6035586D01*
X33783070Y-6035588D01*
X33783069Y-6035588D01*
X33660588Y-6158069D01*
X33660588Y-6158070D01*
X33660586Y-6158072D01*
X33653725Y-6167516D01*
X33558768Y-6298211D01*
X33480128Y-6452552D01*
X33426597Y-6617302D01*
X33399500Y-6788389D01*
X33100499Y-6788389D01*
X33100499Y-6227128D01*
X33094091Y-6167517D01*
X33090568Y-6158072D01*
X33043797Y-6032671D01*
X33043793Y-6032664D01*
X32957547Y-5917455D01*
X32957544Y-5917452D01*
X32842335Y-5831206D01*
X32842328Y-5831202D01*
X32707482Y-5780908D01*
X32707483Y-5780908D01*
X32647883Y-5774501D01*
X32647881Y-5774500D01*
X32647873Y-5774500D01*
X32647864Y-5774500D01*
X31352129Y-5774500D01*
X31352123Y-5774501D01*
X31292516Y-5780908D01*
X31157671Y-5831202D01*
X31157664Y-5831206D01*
X31042455Y-5917452D01*
X31042452Y-5917455D01*
X30956206Y-6032664D01*
X30956202Y-6032671D01*
X30905908Y-6167517D01*
X30899501Y-6227116D01*
X30899501Y-6227123D01*
X30899500Y-6227135D01*
X21389591Y-6227135D01*
X21389586Y-6227128D01*
X21339414Y-6158072D01*
X21216928Y-6035586D01*
X21076788Y-5933768D01*
X20922445Y-5855127D01*
X20757701Y-5801598D01*
X20757699Y-5801597D01*
X20757698Y-5801597D01*
X20626271Y-5780781D01*
X20586611Y-5774500D01*
X20413389Y-5774500D01*
X20373728Y-5780781D01*
X20242302Y-5801597D01*
X20077552Y-5855128D01*
X19923211Y-5933768D01*
X19843256Y-5991859D01*
X19783072Y-6035586D01*
X19783070Y-6035588D01*
X19783069Y-6035588D01*
X19660588Y-6158069D01*
X19660588Y-6158070D01*
X19660586Y-6158072D01*
X19653725Y-6167516D01*
X19558768Y-6298211D01*
X19480128Y-6452552D01*
X19426597Y-6617302D01*
X19399500Y-6788389D01*
X19100500Y-6788389D01*
X19073402Y-6617299D01*
X19019873Y-6452555D01*
X18941232Y-6298212D01*
X18839414Y-6158072D01*
X18716928Y-6035586D01*
X18576788Y-5933768D01*
X18422445Y-5855127D01*
X18257701Y-5801598D01*
X18257699Y-5801597D01*
X18257698Y-5801597D01*
X18126271Y-5780781D01*
X18086611Y-5774500D01*
X17913389Y-5774500D01*
X17873728Y-5780781D01*
X17742302Y-5801597D01*
X17577552Y-5855128D01*
X17423211Y-5933768D01*
X17343256Y-5991859D01*
X17283072Y-6035586D01*
X17283070Y-6035588D01*
X17283069Y-6035588D01*
X17160588Y-6158069D01*
X17160588Y-6158070D01*
X17160586Y-6158072D01*
X17153725Y-6167516D01*
X17058768Y-6298211D01*
X16980128Y-6452552D01*
X16926597Y-6617302D01*
X16899500Y-6788389D01*
X16600500Y-6788389D01*
X16573402Y-6617299D01*
X16519873Y-6452555D01*
X16441232Y-6298212D01*
X16339414Y-6158072D01*
X16216928Y-6035586D01*
X16076788Y-5933768D01*
X15922445Y-5855127D01*
X15757701Y-5801598D01*
X15757699Y-5801597D01*
X15757698Y-5801597D01*
X15626271Y-5780781D01*
X15586611Y-5774500D01*
X15413389Y-5774500D01*
X15373728Y-5780781D01*
X15242302Y-5801597D01*
X15077552Y-5855128D01*
X14923211Y-5933768D01*
X14843256Y-5991859D01*
X14783072Y-6035586D01*
X14783070Y-6035588D01*
X14783069Y-6035588D01*
X14660588Y-6158069D01*
X14660588Y-6158070D01*
X14660586Y-6158072D01*
X14653725Y-6167516D01*
X14558768Y-6298211D01*
X14480128Y-6452552D01*
X14426597Y-6617302D01*
X14399500Y-6788389D01*
X14100499Y-6788389D01*
X14100499Y-6227128D01*
X14094091Y-6167517D01*
X14090568Y-6158072D01*
X14043797Y-6032671D01*
X14043793Y-6032664D01*
X13957547Y-5917455D01*
X13957544Y-5917452D01*
X13842335Y-5831206D01*
X13842328Y-5831202D01*
X13707482Y-5780908D01*
X13707483Y-5780908D01*
X13647883Y-5774501D01*
X13647881Y-5774500D01*
X13647873Y-5774500D01*
X13647864Y-5774500D01*
X12352129Y-5774500D01*
X12352123Y-5774501D01*
X12292516Y-5780908D01*
X12157671Y-5831202D01*
X12157664Y-5831206D01*
X12042455Y-5917452D01*
X12042452Y-5917455D01*
X11956206Y-6032664D01*
X11956202Y-6032671D01*
X11905908Y-6167517D01*
X11899501Y-6227116D01*
X11899501Y-6227123D01*
X11899500Y-6227135D01*
X600000Y-6227135D01*
X600000Y-3878711D01*
X2149500Y-3878711D01*
X2149500Y-4121288D01*
X2181161Y-4361785D01*
X2243947Y-4596104D01*
X2336773Y-4820205D01*
X2336776Y-4820212D01*
X2458064Y-5030289D01*
X2458066Y-5030292D01*
X2458067Y-5030293D01*
X2605733Y-5222736D01*
X2605739Y-5222743D01*
X2777256Y-5394260D01*
X2777262Y-5394265D01*
X2969711Y-5541936D01*
X3179788Y-5663224D01*
X3403900Y-5756054D01*
X3638211Y-5818838D01*
X3818586Y-5842584D01*
X3878711Y-5850500D01*
X3878712Y-5850500D01*
X4121289Y-5850500D01*
X4169388Y-5844167D01*
X4361789Y-5818838D01*
X4596100Y-5756054D01*
X4820212Y-5663224D01*
X5030289Y-5541936D01*
X5222738Y-5394265D01*
X5394265Y-5222738D01*
X5541936Y-5030289D01*
X5663224Y-4820212D01*
X5756054Y-4596100D01*
X5818838Y-4361789D01*
X5850500Y-4121288D01*
X5850500Y-3878712D01*
X5850500Y-3878711D01*
X119149500Y-3878711D01*
X119149500Y-4121288D01*
X119181161Y-4361785D01*
X119243947Y-4596104D01*
X119336773Y-4820205D01*
X119336776Y-4820212D01*
X119458064Y-5030289D01*
X119458066Y-5030292D01*
X119458067Y-5030293D01*
X119605733Y-5222736D01*
X119605739Y-5222743D01*
X119777256Y-5394260D01*
X119777262Y-5394265D01*
X119969711Y-5541936D01*
X120179788Y-5663224D01*
X120403900Y-5756054D01*
X120638211Y-5818838D01*
X120818586Y-5842584D01*
X120878711Y-5850500D01*
X120878712Y-5850500D01*
X121121289Y-5850500D01*
X121169388Y-5844167D01*
X121361789Y-5818838D01*
X121596100Y-5756054D01*
X121820212Y-5663224D01*
X122030289Y-5541936D01*
X122222738Y-5394265D01*
X122394265Y-5222738D01*
X122541936Y-5030289D01*
X122663224Y-4820212D01*
X122756054Y-4596100D01*
X122818838Y-4361789D01*
X122850500Y-4121288D01*
X122850500Y-3878712D01*
X122818838Y-3638211D01*
X122756054Y-3403900D01*
X122663224Y-3179788D01*
X122541936Y-2969711D01*
X122394265Y-2777262D01*
X122394260Y-2777256D01*
X122222743Y-2605739D01*
X122222736Y-2605733D01*
X122030293Y-2458067D01*
X122030292Y-2458066D01*
X122030289Y-2458064D01*
X121820212Y-2336776D01*
X121748044Y-2306883D01*
X121596104Y-2243947D01*
X121361785Y-2181161D01*
X121121289Y-2149500D01*
X121121288Y-2149500D01*
X120878712Y-2149500D01*
X120878711Y-2149500D01*
X120638214Y-2181161D01*
X120403895Y-2243947D01*
X120179794Y-2336773D01*
X120179785Y-2336777D01*
X119969706Y-2458067D01*
X119777263Y-2605733D01*
X119777256Y-2605739D01*
X119605739Y-2777256D01*
X119605733Y-2777263D01*
X119458067Y-2969706D01*
X119336777Y-3179785D01*
X119336773Y-3179794D01*
X119243947Y-3403895D01*
X119181161Y-3638214D01*
X119149500Y-3878711D01*
X5850500Y-3878711D01*
X5818838Y-3638211D01*
X5756054Y-3403900D01*
X5663224Y-3179788D01*
X5541936Y-2969711D01*
X5394265Y-2777262D01*
X5394260Y-2777256D01*
X5222743Y-2605739D01*
X5222736Y-2605733D01*
X5030293Y-2458067D01*
X5030292Y-2458066D01*
X5030289Y-2458064D01*
X4820212Y-2336776D01*
X4748044Y-2306883D01*
X4596104Y-2243947D01*
X4361785Y-2181161D01*
X4121289Y-2149500D01*
X4121288Y-2149500D01*
X3878712Y-2149500D01*
X3878711Y-2149500D01*
X3638214Y-2181161D01*
X3403895Y-2243947D01*
X3179794Y-2336773D01*
X3179785Y-2336777D01*
X2969706Y-2458067D01*
X2777263Y-2605733D01*
X2777256Y-2605739D01*
X2605739Y-2777256D01*
X2605733Y-2777263D01*
X2458067Y-2969706D01*
X2336777Y-3179785D01*
X2336773Y-3179794D01*
X2243947Y-3403895D01*
X2181161Y-3638214D01*
X2149500Y-3878711D01*
X600000Y-3878711D01*
X600000Y-2354333D01*
X609439Y-2306881D01*
X832859Y-1767494D01*
X849041Y-1739462D01*
X1225703Y-1248589D01*
X1248591Y-1225702D01*
X1739460Y-849043D01*
X1767488Y-832862D01*
X2306879Y-609438D01*
X2354331Y-600000D01*
X122645665Y-600000D01*
X122693116Y-609438D01*
G37*
%TD.AperFunction*%
%TD*%
M02*
