M48
; DRILL file KiCad 10.0.5 date 2026-08-18T12:12:54
; FORMAT={-:-/ absolute / metric / decimal}
; #@! TF.CreationDate,2026-08-18T12:12:54-04:00
; #@! TF.GenerationSoftware,Kicad,Pcbnew,10.0.5
; #@! TF.FileFunction,Plated,1,4,PTH
FMAT,2
METRIC
; #@! TA.AperFunction,Plated,PTH,ViaDrill
T1C0.300
; #@! TA.AperFunction,Plated,PTH,ViaDrill
T2C0.400
; #@! TA.AperFunction,Plated,PTH,ViaDrill
T3C0.600
; #@! TA.AperFunction,Plated,PTH,ComponentDrill
T4C0.750
; #@! TA.AperFunction,Plated,PTH,ComponentDrill
T5C0.800
; #@! TA.AperFunction,Plated,PTH,ComponentDrill
T6C0.900
; #@! TA.AperFunction,Plated,PTH,ComponentDrill
T7C0.950
; #@! TA.AperFunction,Plated,PTH,ComponentDrill
T8C1.000
; #@! TA.AperFunction,Plated,PTH,ComponentDrill
T9C1.100
; #@! TA.AperFunction,Plated,PTH,ComponentDrill
T10C1.200
; #@! TA.AperFunction,Plated,PTH,ComponentDrill
T11C1.300
%
G90
G05
T1
X34.386Y-39.587
X35.243Y-27.084
X35.25Y-18.795
X36.478Y-17.673
X36.486Y-26.975
X46.311Y-43.928
X47.506Y-29.418
X57.592Y-29.341
X59.888Y-20.72
X60.579Y-22.346
X64.569Y-24.438
X65.535Y-21.013
X73.719Y-15.116
X74.946Y-21.917
X76.387Y-23.77
X87.508Y-23.114
X90.064Y-14.926
X99.155Y-25.04
X99.651Y-21.835
T2
X19.5Y-29.5
X20.025Y-27.6
X26.5Y-18.69
X38.0Y-30.25
X57.8Y-27.8
X64.5Y-18.69
X97.55Y-31.05
X103.0Y-18.69
X105.142Y-27.358
T3
X116.0Y-46.0
T4
X22.0Y-32.5
X22.0Y-34.5
X22.0Y-36.5
X22.0Y-38.5
X33.0Y-34.0
X33.0Y-36.0
X49.0Y-31.0
X50.27Y-31.0
X51.54Y-31.0
T5
X108.0Y-35.5
X110.0Y-35.5
T6
X31.0Y-47.5
X33.54Y-47.5
X108.0Y-43.0
X110.54Y-43.0
T7
X13.0Y-7.0
X15.5Y-7.0
X18.0Y-7.0
X20.5Y-7.0
X32.0Y-7.0
X34.5Y-7.0
X37.0Y-7.0
X39.5Y-7.0
X51.0Y-7.0
X53.5Y-7.0
X56.0Y-7.0
X58.5Y-7.0
X70.0Y-7.0
X72.5Y-7.0
X75.0Y-7.0
X77.5Y-7.0
X89.0Y-7.0
X91.5Y-7.0
X94.0Y-7.0
X96.5Y-7.0
X104.0Y-7.0
X106.5Y-7.0
X109.0Y-7.0
X111.5Y-7.0
T8
X43.0Y-48.0
X43.0Y-50.54
X45.54Y-48.0
X45.54Y-50.54
X55.0Y-35.26
X55.0Y-50.5
X57.54Y-35.26
X57.54Y-50.5
X60.08Y-35.26
X60.08Y-50.5
X62.62Y-35.26
X62.62Y-50.5
X65.16Y-35.26
X65.16Y-50.5
X67.7Y-35.26
X67.7Y-50.5
X70.24Y-35.26
X70.24Y-50.5
X72.78Y-35.26
X72.78Y-50.5
X75.32Y-35.26
X75.32Y-50.5
X77.86Y-35.26
X77.86Y-50.5
X80.4Y-35.26
X80.4Y-50.5
X82.94Y-35.26
X82.94Y-50.5
X85.48Y-35.26
X85.48Y-50.5
X116.0Y-37.0
X121.0Y-37.0
T9
X9.0Y-47.5
X9.0Y-52.0
X15.5Y-47.5
X15.5Y-52.0
X20.0Y-47.5
X20.0Y-52.0
X26.5Y-47.5
X26.5Y-52.0
T10
X108.0Y-29.0
X118.16Y-29.0
T11
X119.0Y-14.92
X119.0Y-20.0
M30
