%TF.GenerationSoftware,KiCad,Pcbnew,10.0.5*%
%TF.CreationDate,2026-08-18T12:12:10-04:00*%
%TF.ProjectId,BU-22-Display-Controller-Rev-D,42552d32-322d-4446-9973-706c61792d43,rev?*%
%TF.SameCoordinates,Original*%
%TF.FileFunction,Soldermask,Bot*%
%TF.FilePolarity,Negative*%
%FSLAX46Y46*%
G04 Gerber Fmt 4.6, Leading zero omitted, Abs format (unit mm)*
G04 Created by KiCad (PCBNEW 10.0.5) date 2026-08-18 12:12:10*
%MOMM*%
%LPD*%
G01*
G04 APERTURE LIST*
G04 Aperture macros list*
%AMRoundRect*
0 Rectangle with rounded corners*
0 $1 Rounding radius*
0 $2 $3 $4 $5 $6 $7 $8 $9 X,Y pos of 4 corners*
0 Add a 4 corners polygon primitive as box body*
4,1,4,$2,$3,$4,$5,$6,$7,$8,$9,$2,$3,0*
0 Add four circle primitives for the rounded corners*
1,1,$1+$1,$2,$3*
1,1,$1+$1,$4,$5*
1,1,$1+$1,$6,$7*
1,1,$1+$1,$8,$9*
0 Add four rect primitives between the rounded corners*
20,1,$1+$1,$2,$3,$4,$5,0*
20,1,$1+$1,$4,$5,$6,$7,0*
20,1,$1+$1,$6,$7,$8,$9,0*
20,1,$1+$1,$8,$9,$2,$3,0*%
G04 Aperture macros list end*
%ADD10R,1.800000X1.800000*%
%ADD11C,1.800000*%
%ADD12C,3.200000*%
%ADD13RoundRect,0.250000X-0.600000X-0.725000X0.600000X-0.725000X0.600000X0.725000X-0.600000X0.725000X0*%
%ADD14O,1.700000X1.950000*%
%ADD15R,1.700000X1.700000*%
%ADD16C,1.700000*%
%ADD17C,2.000000*%
%ADD18RoundRect,0.250000X0.625000X-0.350000X0.625000X0.350000X-0.625000X0.350000X-0.625000X-0.350000X0*%
%ADD19O,1.750000X1.200000*%
%ADD20RoundRect,0.250001X-0.949999X-0.949999X0.949999X-0.949999X0.949999X0.949999X-0.949999X0.949999X0*%
%ADD21C,2.400000*%
%ADD22RoundRect,0.250000X1.050000X-1.050000X1.050000X1.050000X-1.050000X1.050000X-1.050000X-1.050000X0*%
%ADD23C,2.600000*%
%ADD24RoundRect,0.250000X-0.550000X-0.550000X0.550000X-0.550000X0.550000X0.550000X-0.550000X0.550000X0*%
%ADD25C,1.600000*%
%ADD26RoundRect,0.250000X-0.750000X-0.750000X0.750000X-0.750000X0.750000X0.750000X-0.750000X0.750000X0*%
%ADD27R,1.050000X1.500000*%
%ADD28O,1.050000X1.500000*%
G04 APERTURE END LIST*
D10*
%TO.C,D2*%
X31000000Y-47500000D03*
D11*
X33540000Y-47500000D03*
%TD*%
D12*
%TO.C,H2*%
X121000000Y-4000000D03*
%TD*%
D13*
%TO.C,J3*%
X51000000Y-7000000D03*
D14*
X53500000Y-7000000D03*
X56000000Y-7000000D03*
X58500000Y-7000000D03*
%TD*%
D15*
%TO.C,JP1*%
X43000000Y-48000000D03*
D16*
X45540000Y-48000000D03*
X43000000Y-50540000D03*
X45540000Y-50540000D03*
%TD*%
D17*
%TO.C,SW1*%
X20000000Y-47500000D03*
X26500000Y-47500000D03*
X20000000Y-52000000D03*
X26500000Y-52000000D03*
%TD*%
D13*
%TO.C,J6*%
X104000000Y-7000000D03*
D14*
X106500000Y-7000000D03*
X109000000Y-7000000D03*
X111500000Y-7000000D03*
%TD*%
D15*
%TO.C,MCU1B*%
X85480000Y-35260000D03*
D16*
X82940000Y-35260000D03*
X80400000Y-35260000D03*
X77860000Y-35260000D03*
X75320000Y-35260000D03*
X72780000Y-35260000D03*
X70240000Y-35260000D03*
X67700000Y-35260000D03*
X65160000Y-35260000D03*
X62620000Y-35260000D03*
X60080000Y-35260000D03*
X57540000Y-35260000D03*
X55000000Y-35260000D03*
%TD*%
D18*
%TO.C,J10*%
X22000000Y-38500000D03*
D19*
X22000000Y-36500000D03*
X22000000Y-34500000D03*
X22000000Y-32500000D03*
%TD*%
D10*
%TO.C,D1*%
X108000000Y-43000000D03*
D11*
X110540000Y-43000000D03*
%TD*%
D20*
%TO.C,D3*%
X108000000Y-29000000D03*
D21*
X118160000Y-29000000D03*
%TD*%
D22*
%TO.C,J7*%
X119000000Y-20000000D03*
D23*
X119000000Y-14920000D03*
%TD*%
D12*
%TO.C,H3*%
X4000000Y-51000000D03*
%TD*%
%TO.C,H1*%
X4000000Y-4000000D03*
%TD*%
D15*
%TO.C,MCU1A*%
X55000000Y-50500000D03*
D16*
X57540000Y-50500000D03*
X60080000Y-50500000D03*
X62620000Y-50500000D03*
X65160000Y-50500000D03*
X67700000Y-50500000D03*
X70240000Y-50500000D03*
X72780000Y-50500000D03*
X75320000Y-50500000D03*
X77860000Y-50500000D03*
X80400000Y-50500000D03*
X82940000Y-50500000D03*
X85480000Y-50500000D03*
%TD*%
D12*
%TO.C,H4*%
X121000000Y-51000000D03*
%TD*%
D17*
%TO.C,SW2*%
X9000000Y-47500000D03*
X15500000Y-47500000D03*
X9000000Y-52000000D03*
X15500000Y-52000000D03*
%TD*%
D13*
%TO.C,J4*%
X70000000Y-7000000D03*
D14*
X72500000Y-7000000D03*
X75000000Y-7000000D03*
X77500000Y-7000000D03*
%TD*%
D24*
%TO.C,C4*%
X108000000Y-35500000D03*
D25*
X110000000Y-35500000D03*
%TD*%
D13*
%TO.C,J1*%
X13000000Y-7000000D03*
D14*
X15500000Y-7000000D03*
X18000000Y-7000000D03*
X20500000Y-7000000D03*
%TD*%
D26*
%TO.C,C5*%
X116000000Y-37000000D03*
D17*
X121000000Y-37000000D03*
%TD*%
D27*
%TO.C,Q1*%
X49000000Y-31000000D03*
D28*
X50270000Y-31000000D03*
X51540000Y-31000000D03*
%TD*%
D13*
%TO.C,J2*%
X32000000Y-7000000D03*
D14*
X34500000Y-7000000D03*
X37000000Y-7000000D03*
X39500000Y-7000000D03*
%TD*%
D13*
%TO.C,J5*%
X89000000Y-7000000D03*
D14*
X91500000Y-7000000D03*
X94000000Y-7000000D03*
X96500000Y-7000000D03*
%TD*%
D18*
%TO.C,J11*%
X33000000Y-36000000D03*
D19*
X33000000Y-34000000D03*
%TD*%
M02*
