%TF.GenerationSoftware,KiCad,Pcbnew,10.0.5*%
%TF.CreationDate,2026-08-18T12:12:10-04:00*%
%TF.ProjectId,BU-22-Display-Controller-Rev-D,42552d32-322d-4446-9973-706c61792d43,rev?*%
%TF.SameCoordinates,Original*%
%TF.FileFunction,Copper,L4,Bot*%
%TF.FilePolarity,Positive*%
%FSLAX46Y46*%
G04 Gerber Fmt 4.6, Leading zero omitted, Abs format (unit mm)*
G04 Created by KiCad (PCBNEW 10.0.5) date 2026-08-18 12:12:10*
%MOMM*%
%LPD*%
G01*
G04 APERTURE LIST*
G04 Aperture macros list*
%AMRoundRect*
0 Rectangle with rounded corners*
0 $1 Rounding radius*
0 $2 $3 $4 $5 $6 $7 $8 $9 X,Y pos of 4 corners*
0 Add a 4 corners polygon primitive as box body*
4,1,4,$2,$3,$4,$5,$6,$7,$8,$9,$2,$3,0*
0 Add four circle primitives for the rounded corners*
1,1,$1+$1,$2,$3*
1,1,$1+$1,$4,$5*
1,1,$1+$1,$6,$7*
1,1,$1+$1,$8,$9*
0 Add four rect primitives between the rounded corners*
20,1,$1+$1,$2,$3,$4,$5,0*
20,1,$1+$1,$4,$5,$6,$7,0*
20,1,$1+$1,$6,$7,$8,$9,0*
20,1,$1+$1,$8,$9,$2,$3,0*%
G04 Aperture macros list end*
%TA.AperFunction,ComponentPad*%
%ADD10R,1.800000X1.800000*%
%TD*%
%TA.AperFunction,ComponentPad*%
%ADD11C,1.800000*%
%TD*%
%TA.AperFunction,ComponentPad*%
%ADD12RoundRect,0.250000X-0.600000X-0.725000X0.600000X-0.725000X0.600000X0.725000X-0.600000X0.725000X0*%
%TD*%
%TA.AperFunction,ComponentPad*%
%ADD13O,1.700000X1.950000*%
%TD*%
%TA.AperFunction,ComponentPad*%
%ADD14R,1.700000X1.700000*%
%TD*%
%TA.AperFunction,ComponentPad*%
%ADD15C,1.700000*%
%TD*%
%TA.AperFunction,ComponentPad*%
%ADD16C,2.000000*%
%TD*%
%TA.AperFunction,ComponentPad*%
%ADD17RoundRect,0.250000X0.625000X-0.350000X0.625000X0.350000X-0.625000X0.350000X-0.625000X-0.350000X0*%
%TD*%
%TA.AperFunction,ComponentPad*%
%ADD18O,1.750000X1.200000*%
%TD*%
%TA.AperFunction,ComponentPad*%
%ADD19RoundRect,0.250001X-0.949999X-0.949999X0.949999X-0.949999X0.949999X0.949999X-0.949999X0.949999X0*%
%TD*%
%TA.AperFunction,ComponentPad*%
%ADD20C,2.400000*%
%TD*%
%TA.AperFunction,ComponentPad*%
%ADD21RoundRect,0.250000X1.050000X-1.050000X1.050000X1.050000X-1.050000X1.050000X-1.050000X-1.050000X0*%
%TD*%
%TA.AperFunction,ComponentPad*%
%ADD22C,2.600000*%
%TD*%
%TA.AperFunction,ComponentPad*%
%ADD23RoundRect,0.250000X-0.550000X-0.550000X0.550000X-0.550000X0.550000X0.550000X-0.550000X0.550000X0*%
%TD*%
%TA.AperFunction,ComponentPad*%
%ADD24C,1.600000*%
%TD*%
%TA.AperFunction,ComponentPad*%
%ADD25RoundRect,0.250000X-0.750000X-0.750000X0.750000X-0.750000X0.750000X0.750000X-0.750000X0.750000X0*%
%TD*%
%TA.AperFunction,ComponentPad*%
%ADD26R,1.050000X1.500000*%
%TD*%
%TA.AperFunction,ComponentPad*%
%ADD27O,1.050000X1.500000*%
%TD*%
%TA.AperFunction,ViaPad*%
%ADD28C,0.800000*%
%TD*%
%TA.AperFunction,ViaPad*%
%ADD29C,1.200000*%
%TD*%
%TA.AperFunction,ViaPad*%
%ADD30C,0.600000*%
%TD*%
%TA.AperFunction,Conductor*%
%ADD31C,0.200000*%
%TD*%
%TA.AperFunction,Conductor*%
%ADD32C,0.400000*%
%TD*%
%TA.AperFunction,Conductor*%
%ADD33C,0.800000*%
%TD*%
%TA.AperFunction,Conductor*%
%ADD34C,1.000000*%
%TD*%
G04 APERTURE END LIST*
D10*
%TO.P,D2,1*%
%TO.N,GND*%
X31000000Y-47500000D03*
D11*
%TO.P,D2,2*%
%TO.N,HEART_LED_A*%
X33540000Y-47500000D03*
%TD*%
D12*
%TO.P,J3,1*%
%TO.N,GND*%
X51000000Y-7000000D03*
D13*
%TO.P,J3,2*%
%TO.N,CH3_CLOCK_OUT*%
X53500000Y-7000000D03*
%TO.P,J3,3*%
%TO.N,CH3_DATA_OUT*%
X56000000Y-7000000D03*
%TO.P,J3,4*%
%TO.N,SYSTEM_5V*%
X58500000Y-7000000D03*
%TD*%
D14*
%TO.P,JP1,1*%
%TO.N,ADDRESS*%
X43000000Y-48000000D03*
D15*
%TO.P,JP1,2*%
%TO.N,ADDR_A0*%
X45540000Y-48000000D03*
%TO.P,JP1,3*%
%TO.N,ADDRESS*%
X43000000Y-50540000D03*
%TO.P,JP1,4*%
%TO.N,ADDR_A1*%
X45540000Y-50540000D03*
%TD*%
D16*
%TO.P,SW1,1*%
%TO.N,TEST*%
X20000000Y-47500000D03*
X26500000Y-47500000D03*
%TO.P,SW1,2*%
%TO.N,GND*%
X20000000Y-52000000D03*
X26500000Y-52000000D03*
%TD*%
D12*
%TO.P,J6,1*%
%TO.N,GND*%
X104000000Y-7000000D03*
D13*
%TO.P,J6,2*%
%TO.N,CH6_CLOCK_OUT*%
X106500000Y-7000000D03*
%TO.P,J6,3*%
%TO.N,CH6_DATA_OUT*%
X109000000Y-7000000D03*
%TO.P,J6,4*%
%TO.N,SYSTEM_5V*%
X111500000Y-7000000D03*
%TD*%
D14*
%TO.P,MCU1B,1*%
%TO.N,N/C*%
X85480000Y-35260000D03*
D15*
%TO.P,MCU1B,2*%
%TO.N,SDA*%
X82940000Y-35260000D03*
%TO.P,MCU1B,3*%
%TO.N,SCL*%
X80400000Y-35260000D03*
%TO.P,MCU1B,4*%
%TO.N,GND*%
X77860000Y-35260000D03*
%TO.P,MCU1B,5*%
X75320000Y-35260000D03*
%TO.P,MCU1B,6*%
%TO.N,CH4_CLOCK_3V3*%
X72780000Y-35260000D03*
%TO.P,MCU1B,7*%
%TO.N,CH4_DATA_3V3*%
X70240000Y-35260000D03*
%TO.P,MCU1B,8*%
%TO.N,CH3_CLOCK_3V3*%
X67700000Y-35260000D03*
%TO.P,MCU1B,9*%
%TO.N,CH3_DATA_3V3*%
X65160000Y-35260000D03*
%TO.P,MCU1B,10*%
%TO.N,CH2_CLOCK_3V3*%
X62620000Y-35260000D03*
%TO.P,MCU1B,11*%
%TO.N,CH2_DATA_3V3*%
X60080000Y-35260000D03*
%TO.P,MCU1B,12*%
%TO.N,CH1_CLOCK_3V3*%
X57540000Y-35260000D03*
%TO.P,MCU1B,13*%
%TO.N,CH1_DATA_3V3*%
X55000000Y-35260000D03*
%TD*%
D17*
%TO.P,J10,1*%
%TO.N,GND*%
X22000000Y-38500000D03*
D18*
%TO.P,J10,2*%
%TO.N,N/C*%
X22000000Y-36500000D03*
%TO.P,J10,3*%
%TO.N,SDA*%
X22000000Y-34500000D03*
%TO.P,J10,4*%
%TO.N,SCL*%
X22000000Y-32500000D03*
%TD*%
D10*
%TO.P,D1,1*%
%TO.N,GND*%
X108000000Y-43000000D03*
D11*
%TO.P,D1,2*%
%TO.N,PWR_LED_A*%
X110540000Y-43000000D03*
%TD*%
D19*
%TO.P,D3,1*%
%TO.N,LOGIC_5V*%
X108000000Y-29000000D03*
D20*
%TO.P,D3,2*%
%TO.N,SYSTEM_5V*%
X118160000Y-29000000D03*
%TD*%
D21*
%TO.P,J7,1*%
%TO.N,SYSTEM_5V*%
X119000000Y-20000000D03*
D22*
%TO.P,J7,2*%
%TO.N,GND*%
X119000000Y-14920000D03*
%TD*%
D14*
%TO.P,MCU1A,1*%
%TO.N,HEARTBEAT*%
X55000000Y-50500000D03*
D15*
%TO.P,MCU1A,2*%
%TO.N,ENABLE_GPIO*%
X57540000Y-50500000D03*
%TO.P,MCU1A,3*%
%TO.N,TEST*%
X60080000Y-50500000D03*
%TO.P,MCU1A,4*%
%TO.N,CH5_DATA_3V3*%
X62620000Y-50500000D03*
%TO.P,MCU1A,5*%
%TO.N,CH5_CLOCK_3V3*%
X65160000Y-50500000D03*
%TO.P,MCU1A,6*%
%TO.N,CH6_DATA_3V3*%
X67700000Y-50500000D03*
%TO.P,MCU1A,7*%
%TO.N,CH6_CLOCK_3V3*%
X70240000Y-50500000D03*
%TO.P,MCU1A,8*%
%TO.N,ADDRESS*%
X72780000Y-50500000D03*
%TO.P,MCU1A,9*%
%TO.N,3V3_LOCAL*%
X75320000Y-50500000D03*
%TO.P,MCU1A,10*%
%TO.N,RESET*%
X77860000Y-50500000D03*
%TO.P,MCU1A,11*%
%TO.N,GND*%
X80400000Y-50500000D03*
%TO.P,MCU1A,12*%
%TO.N,LOGIC_5V*%
X82940000Y-50500000D03*
%TO.P,MCU1A,13*%
%TO.N,N/C*%
X85480000Y-50500000D03*
%TD*%
D16*
%TO.P,SW2,1*%
%TO.N,RESET*%
X9000000Y-47500000D03*
X15500000Y-47500000D03*
%TO.P,SW2,2*%
%TO.N,GND*%
X9000000Y-52000000D03*
X15500000Y-52000000D03*
%TD*%
D12*
%TO.P,J4,1*%
%TO.N,GND*%
X70000000Y-7000000D03*
D13*
%TO.P,J4,2*%
%TO.N,CH4_CLOCK_OUT*%
X72500000Y-7000000D03*
%TO.P,J4,3*%
%TO.N,CH4_DATA_OUT*%
X75000000Y-7000000D03*
%TO.P,J4,4*%
%TO.N,SYSTEM_5V*%
X77500000Y-7000000D03*
%TD*%
D23*
%TO.P,C4,1*%
%TO.N,LOGIC_5V*%
X108000000Y-35500000D03*
D24*
%TO.P,C4,2*%
%TO.N,GND*%
X110000000Y-35500000D03*
%TD*%
D12*
%TO.P,J1,1*%
%TO.N,GND*%
X13000000Y-7000000D03*
D13*
%TO.P,J1,2*%
%TO.N,CH1_CLOCK_OUT*%
X15500000Y-7000000D03*
%TO.P,J1,3*%
%TO.N,CH1_DATA_OUT*%
X18000000Y-7000000D03*
%TO.P,J1,4*%
%TO.N,SYSTEM_5V*%
X20500000Y-7000000D03*
%TD*%
D25*
%TO.P,C5,1*%
%TO.N,SYSTEM_5V*%
X116000000Y-37000000D03*
D16*
%TO.P,C5,2*%
%TO.N,GND*%
X121000000Y-37000000D03*
%TD*%
D26*
%TO.P,Q1,1*%
%TO.N,GND*%
X49000000Y-31000000D03*
D27*
%TO.P,Q1,2*%
%TO.N,ENABLE_BASE*%
X50270000Y-31000000D03*
%TO.P,Q1,3*%
%TO.N,OE_N*%
X51540000Y-31000000D03*
%TD*%
D12*
%TO.P,J2,1*%
%TO.N,GND*%
X32000000Y-7000000D03*
D13*
%TO.P,J2,2*%
%TO.N,CH2_CLOCK_OUT*%
X34500000Y-7000000D03*
%TO.P,J2,3*%
%TO.N,CH2_DATA_OUT*%
X37000000Y-7000000D03*
%TO.P,J2,4*%
%TO.N,SYSTEM_5V*%
X39500000Y-7000000D03*
%TD*%
D12*
%TO.P,J5,1*%
%TO.N,GND*%
X89000000Y-7000000D03*
D13*
%TO.P,J5,2*%
%TO.N,CH5_CLOCK_OUT*%
X91500000Y-7000000D03*
%TO.P,J5,3*%
%TO.N,CH5_DATA_OUT*%
X94000000Y-7000000D03*
%TO.P,J5,4*%
%TO.N,SYSTEM_5V*%
X96500000Y-7000000D03*
%TD*%
D17*
%TO.P,J11,1*%
%TO.N,GND*%
X33000000Y-36000000D03*
D18*
%TO.P,J11,2*%
%TO.N,HEARTBEAT*%
X33000000Y-34000000D03*
%TD*%
D28*
%TO.N,GND*%
X20025000Y-27600000D03*
X105142000Y-27358000D03*
D29*
%TO.N,SYSTEM_5V*%
X116000000Y-46000000D03*
D30*
%TO.N,ADDR_A1*%
X46311500Y-43928100D03*
%TO.N,HEARTBEAT*%
X34386000Y-39586700D03*
%TO.N,CH4_CLOCK_3V3*%
X65535500Y-21012700D03*
%TO.N,CH3_DATA_3V3*%
X59888200Y-20719600D03*
%TO.N,CH2_CLOCK_3V3*%
X35250500Y-18795300D03*
%TO.N,CH2_DATA_3V3*%
X35242700Y-27084300D03*
%TO.N,CH1_DATA_3V3*%
X36477900Y-17672900D03*
D28*
%TO.N,LOGIC_5V*%
X38000000Y-30250000D03*
X103000000Y-18690000D03*
X57800000Y-27800000D03*
X97550000Y-31050000D03*
X64500000Y-18690000D03*
X26500000Y-18690000D03*
X19500000Y-29500000D03*
D30*
%TO.N,ENABLE_GPIO*%
X47506300Y-29418200D03*
%TO.N,CH5_DATA_3V3*%
X74946300Y-21917300D03*
%TO.N,CH5_CLOCK_3V3*%
X76387300Y-23770000D03*
%TO.N,CH6_DATA_3V3*%
X99155000Y-25040000D03*
%TO.N,CH6_CLOCK_3V3*%
X99651100Y-21834800D03*
%TO.N,OE_N*%
X57592300Y-29341100D03*
X36485500Y-26975100D03*
X60579200Y-22345900D03*
%TO.N,CH4_DATA_5V*%
X73719100Y-15116300D03*
X64568800Y-24437700D03*
%TO.N,CH5_CLOCK_5V*%
X90064500Y-14925900D03*
X87508000Y-23113800D03*
%TD*%
%TO.N,GND*%
D31*
X26500000Y-52000000D02*
X29040000Y-52000000D01*
D32*
X30500000Y-47000000D02*
X31000000Y-47500000D01*
D31*
X75320000Y-35260000D02*
X77416000Y-33164000D01*
X34641000Y-8276700D02*
X33276700Y-8276700D01*
X34441000Y-31000000D02*
X34641000Y-31000000D01*
D33*
X121000000Y-32000000D02*
X121000000Y-37000000D01*
D31*
X102723300Y-8276700D02*
X104000000Y-7000000D01*
X30722800Y-8277200D02*
X32000000Y-7000000D01*
X34641000Y-8276700D02*
X34641000Y-31000000D01*
D32*
X29040000Y-52000000D02*
X31000000Y-47500000D01*
D31*
X51000000Y-7000000D02*
X49723300Y-8276700D01*
X34641000Y-31000000D02*
X49000000Y-31000000D01*
X31791400Y-34791400D02*
X31791400Y-33649600D01*
X110000000Y-28500000D02*
X110000000Y-35460000D01*
X121000000Y-16920000D02*
X121000000Y-32000000D01*
X33276700Y-8276700D02*
X32000000Y-7000000D01*
X14277200Y-8277200D02*
X30722800Y-8277200D01*
X84832000Y-7000000D02*
X77416000Y-14416000D01*
X13000000Y-7000000D02*
X14277200Y-8277200D01*
X68723300Y-8276700D02*
X70000000Y-7000000D01*
X77416000Y-14416000D02*
X70000000Y-7000000D01*
X110000000Y-35460000D02*
X110540000Y-36000000D01*
X89000000Y-7000000D02*
X84832000Y-7000000D01*
X90276700Y-8276700D02*
X102723300Y-8276700D01*
X80400000Y-50500000D02*
X77860000Y-47960000D01*
D32*
X30500000Y-38500000D02*
X30500000Y-47000000D01*
D31*
X77860000Y-47960000D02*
X77860000Y-35260000D01*
X33000000Y-36000000D02*
X31791400Y-34791400D01*
X22000000Y-38500000D02*
X22000000Y-50000000D01*
X51000000Y-7000000D02*
X52276700Y-8276700D01*
X110000000Y-15553400D02*
X110000000Y-28500000D01*
X119000000Y-14920000D02*
X121000000Y-16920000D01*
X49723300Y-8276700D02*
X34641000Y-8276700D01*
X102723300Y-8276700D02*
X110000000Y-15553400D01*
D32*
X33000000Y-36000000D02*
X30500000Y-38500000D01*
D31*
X77416000Y-33164000D02*
X77416000Y-14416000D01*
X52276700Y-8276700D02*
X68723300Y-8276700D01*
X22000000Y-50000000D02*
X20000000Y-52000000D01*
X89000000Y-7000000D02*
X90276700Y-8276700D01*
%TO.N,SYSTEM_5V*%
D34*
X115000000Y-16000000D02*
X111500000Y-12500000D01*
X116000000Y-31160000D02*
X116000000Y-37000000D01*
X111500000Y-12500000D02*
X111500000Y-7000000D01*
X119000000Y-20000000D02*
X115000000Y-16000000D01*
X116000000Y-37000000D02*
X116000000Y-46000000D01*
X119000000Y-20000000D02*
X118160000Y-24000000D01*
X118160000Y-24000000D02*
X118160000Y-29000000D01*
X118160000Y-29000000D02*
X116000000Y-31160000D01*
%TO.N,ADDRESS*%
D31*
X43000000Y-50540000D02*
X43000000Y-48000000D01*
%TO.N,ADDR_A1*%
X46692900Y-49387100D02*
X46692900Y-44309500D01*
X46692900Y-44309500D02*
X46311500Y-43928100D01*
X45540000Y-50540000D02*
X46692900Y-49387100D01*
%TO.N,HEARTBEAT*%
X34386000Y-39586700D02*
X34386000Y-35609400D01*
X55000000Y-50500000D02*
X53848300Y-50500000D01*
X33678300Y-34901700D02*
X33000000Y-34901700D01*
X34386000Y-35609400D02*
X33678300Y-34901700D01*
X42935000Y-39586700D02*
X34386000Y-39586700D01*
X53848300Y-50500000D02*
X42935000Y-39586700D01*
X33000000Y-34000000D02*
X33000000Y-34901700D01*
%TO.N,CH4_CLOCK_3V3*%
X76989000Y-23109100D02*
X74892600Y-21012700D01*
X72780000Y-35260000D02*
X76989000Y-31051000D01*
X74892600Y-21012700D02*
X65535500Y-21012700D01*
X76989000Y-31051000D02*
X76989000Y-23109100D01*
%TO.N,CH3_DATA_3V3*%
X65160000Y-25991400D02*
X65160000Y-35260000D01*
X59888200Y-20719600D02*
X65160000Y-25991400D01*
%TO.N,CH2_CLOCK_3V3*%
X35250500Y-17965600D02*
X35250500Y-18795300D01*
X36166800Y-17049300D02*
X35250500Y-17965600D01*
X62620000Y-35260000D02*
X44409300Y-17049300D01*
X44409300Y-17049300D02*
X36166800Y-17049300D01*
%TO.N,CH2_DATA_3V3*%
X45595500Y-28336200D02*
X43583900Y-26324600D01*
X53823600Y-35728500D02*
X53823600Y-32467200D01*
X36002400Y-26324600D02*
X35242700Y-27084300D01*
X58863100Y-36476900D02*
X54572000Y-36476900D01*
X43583900Y-26324600D02*
X36002400Y-26324600D01*
X54572000Y-36476900D02*
X53823600Y-35728500D01*
X54488200Y-31802600D02*
X54488200Y-31720000D01*
X54488200Y-31720000D02*
X51104400Y-28336200D01*
X60080000Y-35260000D02*
X58863100Y-36476900D01*
X53823600Y-32467200D02*
X54488200Y-31802600D01*
X51104400Y-28336200D02*
X45595500Y-28336200D01*
%TO.N,CH1_DATA_3V3*%
X55000000Y-31663800D02*
X41009100Y-17672900D01*
X41009100Y-17672900D02*
X36477900Y-17672900D01*
X55000000Y-35260000D02*
X55000000Y-31663800D01*
%TO.N,ENABLE_GPIO*%
X51618200Y-29418200D02*
X53371900Y-31171900D01*
X53371900Y-46331900D02*
X57540000Y-50500000D01*
X53371900Y-31171900D02*
X53371900Y-46331900D01*
X47506300Y-29418200D02*
X51618200Y-29418200D01*
%TO.N,CH5_DATA_3V3*%
X66430000Y-46690000D02*
X62620000Y-50500000D01*
X66430000Y-30433600D02*
X66430000Y-46690000D01*
X74946300Y-21917300D02*
X66430000Y-30433600D01*
%TO.N,CH5_CLOCK_3V3*%
X68970000Y-46690000D02*
X68970000Y-31187300D01*
X65160000Y-50500000D02*
X68970000Y-46690000D01*
X68970000Y-31187300D02*
X76387300Y-23770000D01*
%TO.N,CH6_DATA_3V3*%
X68856200Y-51656200D02*
X80935900Y-51656200D01*
X81670000Y-50922100D02*
X81670000Y-42525000D01*
X80935900Y-51656200D02*
X81670000Y-50922100D01*
X67700000Y-50500000D02*
X68856200Y-51656200D01*
X81670000Y-42525000D02*
X99155000Y-25040000D01*
%TO.N,CH6_CLOCK_3V3*%
X70240000Y-50500000D02*
X76590000Y-44150000D01*
X89648300Y-21834800D02*
X99651100Y-21834800D01*
X76590000Y-44150000D02*
X76590000Y-34893100D01*
X76590000Y-34893100D02*
X89648300Y-21834800D01*
%TO.N,OE_N*%
X39530300Y-30019900D02*
X36485500Y-26975100D01*
X47755500Y-30019900D02*
X39530300Y-30019900D01*
X47827100Y-29948300D02*
X47755500Y-30019900D01*
X51540000Y-29948300D02*
X47827100Y-29948300D01*
X51540000Y-31000000D02*
X51540000Y-29948300D01*
X60579200Y-26354200D02*
X57592300Y-29341100D01*
X60579200Y-22345900D02*
X60579200Y-26354200D01*
%TO.N,CH4_DATA_5V*%
X73719100Y-15116300D02*
X70559300Y-15116300D01*
X64568800Y-21106800D02*
X64568800Y-24437700D01*
X70559300Y-15116300D02*
X64568800Y-21106800D01*
%TO.N,CH5_CLOCK_5V*%
X90064500Y-20557300D02*
X87508000Y-23113800D01*
X90064500Y-14925900D02*
X90064500Y-20557300D01*
%TD*%
%TA.AperFunction,Conductor*%
%TO.N,GND*%
G36*
X122693116Y-609438D02*
G01*
X123036881Y-751830D01*
X123232506Y-832860D01*
X123260539Y-849045D01*
X123442217Y-988451D01*
X123751408Y-1225702D01*
X123774297Y-1248591D01*
X124150952Y-1739459D01*
X124167137Y-1767492D01*
X124301920Y-2092885D01*
X124364491Y-2243946D01*
X124390561Y-2306883D01*
X124400000Y-2354336D01*
X124400000Y-52645659D01*
X124390561Y-52693112D01*
X124167136Y-53232506D01*
X124150951Y-53260540D01*
X123774295Y-53751406D01*
X123751406Y-53774295D01*
X123260538Y-54150953D01*
X123232504Y-54167138D01*
X122693114Y-54390561D01*
X122645661Y-54400000D01*
X2354337Y-54400000D01*
X2306884Y-54390561D01*
X1767492Y-54167137D01*
X1739459Y-54150952D01*
X1248594Y-53774299D01*
X1225704Y-53751410D01*
X1133047Y-53630657D01*
X849042Y-53260536D01*
X832860Y-53232507D01*
X832860Y-53232506D01*
X647980Y-52786163D01*
X609439Y-52693116D01*
X600000Y-52645664D01*
X600000Y-50878711D01*
X2149500Y-50878711D01*
X2149500Y-51121288D01*
X2181161Y-51361785D01*
X2243947Y-51596104D01*
X2323312Y-51787708D01*
X2336776Y-51820212D01*
X2458064Y-52030289D01*
X2458066Y-52030292D01*
X2458067Y-52030293D01*
X2605733Y-52222736D01*
X2605739Y-52222743D01*
X2777256Y-52394260D01*
X2777262Y-52394265D01*
X2969711Y-52541936D01*
X3179788Y-52663224D01*
X3403900Y-52756054D01*
X3638211Y-52818838D01*
X3818586Y-52842584D01*
X3878711Y-52850500D01*
X3878712Y-52850500D01*
X4121289Y-52850500D01*
X4169388Y-52844167D01*
X4361789Y-52818838D01*
X4596100Y-52756054D01*
X4820212Y-52663224D01*
X5030289Y-52541936D01*
X5222738Y-52394265D01*
X5394265Y-52222738D01*
X5541936Y-52030289D01*
X5627581Y-51881947D01*
X7500000Y-51881947D01*
X7500000Y-52118052D01*
X7536934Y-52351247D01*
X7609897Y-52575802D01*
X7717087Y-52786174D01*
X7777338Y-52869104D01*
X7777340Y-52869105D01*
X8476212Y-52170233D01*
X8487482Y-52212292D01*
X8559890Y-52337708D01*
X8662292Y-52440110D01*
X8787708Y-52512518D01*
X8829765Y-52523787D01*
X8130893Y-53222658D01*
X8213828Y-53282914D01*
X8424197Y-53390102D01*
X8648752Y-53463065D01*
X8648751Y-53463065D01*
X8881948Y-53500000D01*
X9118052Y-53500000D01*
X9351247Y-53463065D01*
X9575802Y-53390102D01*
X9786163Y-53282918D01*
X9786169Y-53282914D01*
X9869104Y-53222658D01*
X9869105Y-53222658D01*
X9170233Y-52523787D01*
X9212292Y-52512518D01*
X9337708Y-52440110D01*
X9440110Y-52337708D01*
X9512518Y-52212292D01*
X9523787Y-52170233D01*
X10222658Y-52869105D01*
X10222658Y-52869104D01*
X10282914Y-52786169D01*
X10282918Y-52786163D01*
X10390102Y-52575802D01*
X10463065Y-52351247D01*
X10500000Y-52118052D01*
X10500000Y-51881947D01*
X14000000Y-51881947D01*
X14000000Y-52118052D01*
X14036934Y-52351247D01*
X14109897Y-52575802D01*
X14217087Y-52786174D01*
X14277338Y-52869104D01*
X14277340Y-52869105D01*
X14976212Y-52170233D01*
X14987482Y-52212292D01*
X15059890Y-52337708D01*
X15162292Y-52440110D01*
X15287708Y-52512518D01*
X15329765Y-52523787D01*
X14630893Y-53222658D01*
X14713828Y-53282914D01*
X14924197Y-53390102D01*
X15148752Y-53463065D01*
X15148751Y-53463065D01*
X15381948Y-53500000D01*
X15618052Y-53500000D01*
X15851247Y-53463065D01*
X16075802Y-53390102D01*
X16286163Y-53282918D01*
X16286169Y-53282914D01*
X16369104Y-53222658D01*
X16369105Y-53222658D01*
X15670233Y-52523787D01*
X15712292Y-52512518D01*
X15837708Y-52440110D01*
X15940110Y-52337708D01*
X16012518Y-52212292D01*
X16023787Y-52170233D01*
X16722658Y-52869105D01*
X16722658Y-52869104D01*
X16782914Y-52786169D01*
X16782918Y-52786163D01*
X16890102Y-52575802D01*
X16963065Y-52351247D01*
X17000000Y-52118052D01*
X17000000Y-51881947D01*
X18500000Y-51881947D01*
X18500000Y-52118052D01*
X18536934Y-52351247D01*
X18609897Y-52575802D01*
X18717087Y-52786174D01*
X18777338Y-52869104D01*
X18777340Y-52869105D01*
X19476212Y-52170233D01*
X19487482Y-52212292D01*
X19559890Y-52337708D01*
X19662292Y-52440110D01*
X19787708Y-52512518D01*
X19829765Y-52523787D01*
X19130893Y-53222658D01*
X19213828Y-53282914D01*
X19424197Y-53390102D01*
X19648752Y-53463065D01*
X19648751Y-53463065D01*
X19881948Y-53500000D01*
X20118052Y-53500000D01*
X20351247Y-53463065D01*
X20575802Y-53390102D01*
X20786163Y-53282918D01*
X20786169Y-53282914D01*
X20869104Y-53222658D01*
X20869105Y-53222658D01*
X20170233Y-52523787D01*
X20212292Y-52512518D01*
X20337708Y-52440110D01*
X20440110Y-52337708D01*
X20512518Y-52212292D01*
X20523787Y-52170233D01*
X21222658Y-52869105D01*
X21222658Y-52869104D01*
X21282914Y-52786169D01*
X21282918Y-52786163D01*
X21390102Y-52575802D01*
X21463065Y-52351247D01*
X21500000Y-52118052D01*
X21500000Y-51881947D01*
X25000000Y-51881947D01*
X25000000Y-52118052D01*
X25036934Y-52351247D01*
X25109897Y-52575802D01*
X25217087Y-52786174D01*
X25277338Y-52869104D01*
X25277340Y-52869105D01*
X25976212Y-52170233D01*
X25987482Y-52212292D01*
X26059890Y-52337708D01*
X26162292Y-52440110D01*
X26287708Y-52512518D01*
X26329765Y-52523787D01*
X25630893Y-53222658D01*
X25713828Y-53282914D01*
X25924197Y-53390102D01*
X26148752Y-53463065D01*
X26148751Y-53463065D01*
X26381948Y-53500000D01*
X26618052Y-53500000D01*
X26851247Y-53463065D01*
X27075802Y-53390102D01*
X27286163Y-53282918D01*
X27286169Y-53282914D01*
X27369104Y-53222658D01*
X27369105Y-53222658D01*
X26670233Y-52523787D01*
X26712292Y-52512518D01*
X26837708Y-52440110D01*
X26940110Y-52337708D01*
X27012518Y-52212292D01*
X27023787Y-52170234D01*
X27722658Y-52869105D01*
X27722658Y-52869104D01*
X27782914Y-52786169D01*
X27782918Y-52786163D01*
X27890102Y-52575802D01*
X27963065Y-52351247D01*
X28000000Y-52118052D01*
X28000000Y-51881947D01*
X27963065Y-51648752D01*
X27890102Y-51424197D01*
X27782914Y-51213828D01*
X27722658Y-51130894D01*
X27722658Y-51130893D01*
X27023787Y-51829765D01*
X27012518Y-51787708D01*
X26940110Y-51662292D01*
X26837708Y-51559890D01*
X26712292Y-51487482D01*
X26670234Y-51476212D01*
X27369105Y-50777340D01*
X27369104Y-50777338D01*
X27286174Y-50717087D01*
X27075802Y-50609897D01*
X26851247Y-50536934D01*
X26851248Y-50536934D01*
X26618052Y-50500000D01*
X26381948Y-50500000D01*
X26148752Y-50536934D01*
X25924197Y-50609897D01*
X25713830Y-50717084D01*
X25630894Y-50777340D01*
X26329766Y-51476212D01*
X26287708Y-51487482D01*
X26162292Y-51559890D01*
X26059890Y-51662292D01*
X25987482Y-51787708D01*
X25976212Y-51829766D01*
X25277340Y-51130894D01*
X25217084Y-51213830D01*
X25109897Y-51424197D01*
X25036934Y-51648752D01*
X25000000Y-51881947D01*
X21500000Y-51881947D01*
X21463065Y-51648752D01*
X21390102Y-51424197D01*
X21282914Y-51213828D01*
X21222658Y-51130894D01*
X21222658Y-51130893D01*
X20523787Y-51829765D01*
X20512518Y-51787708D01*
X20440110Y-51662292D01*
X20337708Y-51559890D01*
X20212292Y-51487482D01*
X20170234Y-51476212D01*
X20869105Y-50777340D01*
X20869104Y-50777339D01*
X20786174Y-50717087D01*
X20575802Y-50609897D01*
X20351247Y-50536934D01*
X20351248Y-50536934D01*
X20118052Y-50500000D01*
X19881948Y-50500000D01*
X19648752Y-50536934D01*
X19424197Y-50609897D01*
X19213830Y-50717084D01*
X19130894Y-50777340D01*
X19829766Y-51476212D01*
X19787708Y-51487482D01*
X19662292Y-51559890D01*
X19559890Y-51662292D01*
X19487482Y-51787708D01*
X19476212Y-51829766D01*
X18777340Y-51130894D01*
X18717084Y-51213830D01*
X18609897Y-51424197D01*
X18536934Y-51648752D01*
X18500000Y-51881947D01*
X17000000Y-51881947D01*
X16963065Y-51648752D01*
X16890102Y-51424197D01*
X16782914Y-51213828D01*
X16722658Y-51130894D01*
X16722658Y-51130893D01*
X16023787Y-51829765D01*
X16012518Y-51787708D01*
X15940110Y-51662292D01*
X15837708Y-51559890D01*
X15712292Y-51487482D01*
X15670234Y-51476212D01*
X16369105Y-50777340D01*
X16369104Y-50777339D01*
X16286174Y-50717087D01*
X16075802Y-50609897D01*
X15851247Y-50536934D01*
X15851248Y-50536934D01*
X15618052Y-50500000D01*
X15381948Y-50500000D01*
X15148752Y-50536934D01*
X14924197Y-50609897D01*
X14713830Y-50717084D01*
X14630894Y-50777340D01*
X15329766Y-51476212D01*
X15287708Y-51487482D01*
X15162292Y-51559890D01*
X15059890Y-51662292D01*
X14987482Y-51787708D01*
X14976212Y-51829766D01*
X14277340Y-51130894D01*
X14217084Y-51213830D01*
X14109897Y-51424197D01*
X14036934Y-51648752D01*
X14000000Y-51881947D01*
X10500000Y-51881947D01*
X10463065Y-51648752D01*
X10390102Y-51424197D01*
X10282914Y-51213828D01*
X10222658Y-51130894D01*
X10222658Y-51130893D01*
X9523787Y-51829765D01*
X9512518Y-51787708D01*
X9440110Y-51662292D01*
X9337708Y-51559890D01*
X9212292Y-51487482D01*
X9170234Y-51476212D01*
X9869105Y-50777340D01*
X9869104Y-50777339D01*
X9786174Y-50717087D01*
X9575802Y-50609897D01*
X9351247Y-50536934D01*
X9351248Y-50536934D01*
X9118052Y-50500000D01*
X8881948Y-50500000D01*
X8648752Y-50536934D01*
X8424197Y-50609897D01*
X8213830Y-50717084D01*
X8130894Y-50777340D01*
X8829766Y-51476212D01*
X8787708Y-51487482D01*
X8662292Y-51559890D01*
X8559890Y-51662292D01*
X8487482Y-51787708D01*
X8476212Y-51829766D01*
X7777340Y-51130894D01*
X7717084Y-51213830D01*
X7609897Y-51424197D01*
X7536934Y-51648752D01*
X7500000Y-51881947D01*
X5627581Y-51881947D01*
X5663224Y-51820212D01*
X5756054Y-51596100D01*
X5818838Y-51361789D01*
X5850500Y-51121288D01*
X5850500Y-50878712D01*
X5818838Y-50638211D01*
X5756054Y-50403900D01*
X5663224Y-50179788D01*
X5541936Y-49969711D01*
X5394265Y-49777262D01*
X5394260Y-49777256D01*
X5222743Y-49605739D01*
X5222736Y-49605733D01*
X5030293Y-49458067D01*
X5030292Y-49458066D01*
X5030289Y-49458064D01*
X4820212Y-49336776D01*
X4787048Y-49323039D01*
X4596104Y-49243947D01*
X4386633Y-49187819D01*
X4361789Y-49181162D01*
X4361788Y-49181161D01*
X4361785Y-49181161D01*
X4121289Y-49149500D01*
X4121288Y-49149500D01*
X3878712Y-49149500D01*
X3878711Y-49149500D01*
X3638214Y-49181161D01*
X3403895Y-49243947D01*
X3179794Y-49336773D01*
X3179785Y-49336777D01*
X2969706Y-49458067D01*
X2777263Y-49605733D01*
X2777256Y-49605739D01*
X2605739Y-49777256D01*
X2605733Y-49777263D01*
X2458067Y-49969706D01*
X2336777Y-50179785D01*
X2336773Y-50179794D01*
X2243947Y-50403895D01*
X2181161Y-50638214D01*
X2149500Y-50878711D01*
X600000Y-50878711D01*
X600000Y-47401577D01*
X7749500Y-47401577D01*
X7749500Y-47598422D01*
X7780290Y-47792826D01*
X7841117Y-47980029D01*
X7895423Y-48086610D01*
X7930476Y-48155405D01*
X8046172Y-48314646D01*
X8185354Y-48453828D01*
X8344595Y-48569524D01*
X8427455Y-48611743D01*
X8519970Y-48658882D01*
X8519972Y-48658882D01*
X8519975Y-48658884D01*
X8620317Y-48691487D01*
X8707173Y-48719709D01*
X8901578Y-48750500D01*
X8901583Y-48750500D01*
X9098422Y-48750500D01*
X9292826Y-48719709D01*
X9301385Y-48716928D01*
X9480025Y-48658884D01*
X9655405Y-48569524D01*
X9814646Y-48453828D01*
X9953828Y-48314646D01*
X10069524Y-48155405D01*
X10158884Y-47980025D01*
X10219709Y-47792826D01*
X10250500Y-47598422D01*
X10250500Y-47401577D01*
X14249500Y-47401577D01*
X14249500Y-47598422D01*
X14280290Y-47792826D01*
X14341117Y-47980029D01*
X14395423Y-48086610D01*
X14430476Y-48155405D01*
X14546172Y-48314646D01*
X14685354Y-48453828D01*
X14844595Y-48569524D01*
X14927455Y-48611743D01*
X15019970Y-48658882D01*
X15019972Y-48658882D01*
X15019975Y-48658884D01*
X15120317Y-48691487D01*
X15207173Y-48719709D01*
X15401578Y-48750500D01*
X15401583Y-48750500D01*
X15598422Y-48750500D01*
X15792826Y-48719709D01*
X15801385Y-48716928D01*
X15980025Y-48658884D01*
X16155405Y-48569524D01*
X16314646Y-48453828D01*
X16453828Y-48314646D01*
X16569524Y-48155405D01*
X16658884Y-47980025D01*
X16719709Y-47792826D01*
X16750500Y-47598422D01*
X16750500Y-47401577D01*
X18749500Y-47401577D01*
X18749500Y-47598422D01*
X18780290Y-47792826D01*
X18841117Y-47980029D01*
X18895423Y-48086610D01*
X18930476Y-48155405D01*
X19046172Y-48314646D01*
X19185354Y-48453828D01*
X19344595Y-48569524D01*
X19427455Y-48611743D01*
X19519970Y-48658882D01*
X19519972Y-48658882D01*
X19519975Y-48658884D01*
X19620317Y-48691487D01*
X19707173Y-48719709D01*
X19901578Y-48750500D01*
X19901583Y-48750500D01*
X20098422Y-48750500D01*
X20292826Y-48719709D01*
X20301385Y-48716928D01*
X20480025Y-48658884D01*
X20655405Y-48569524D01*
X20814646Y-48453828D01*
X20953828Y-48314646D01*
X21069524Y-48155405D01*
X21158884Y-47980025D01*
X21219709Y-47792826D01*
X21250500Y-47598422D01*
X21250500Y-47401577D01*
X25249500Y-47401577D01*
X25249500Y-47598422D01*
X25280290Y-47792826D01*
X25341117Y-47980029D01*
X25395423Y-48086610D01*
X25430476Y-48155405D01*
X25546172Y-48314646D01*
X25685354Y-48453828D01*
X25844595Y-48569524D01*
X25927455Y-48611743D01*
X26019970Y-48658882D01*
X26019972Y-48658882D01*
X26019975Y-48658884D01*
X26120317Y-48691487D01*
X26207173Y-48719709D01*
X26401578Y-48750500D01*
X26401583Y-48750500D01*
X26598422Y-48750500D01*
X26792826Y-48719709D01*
X26801385Y-48716928D01*
X26980025Y-48658884D01*
X27155405Y-48569524D01*
X27314646Y-48453828D01*
X27453828Y-48314646D01*
X27569524Y-48155405D01*
X27658884Y-47980025D01*
X27719709Y-47792826D01*
X27737700Y-47679240D01*
X27750500Y-47598422D01*
X27750500Y-47401577D01*
X27719709Y-47207173D01*
X27691487Y-47120317D01*
X27658884Y-47019975D01*
X27658882Y-47019972D01*
X27658882Y-47019970D01*
X27597499Y-46899500D01*
X27569524Y-46844595D01*
X27453828Y-46685354D01*
X27320629Y-46552155D01*
X29600000Y-46552155D01*
X29600000Y-47250000D01*
X30624722Y-47250000D01*
X30580667Y-47326306D01*
X30550000Y-47440756D01*
X30550000Y-47559244D01*
X30580667Y-47673694D01*
X30624722Y-47750000D01*
X29600000Y-47750000D01*
X29600000Y-48447844D01*
X29606401Y-48507372D01*
X29606403Y-48507379D01*
X29656645Y-48642086D01*
X29656649Y-48642093D01*
X29742809Y-48757187D01*
X29742812Y-48757190D01*
X29857906Y-48843350D01*
X29857913Y-48843354D01*
X29992620Y-48893596D01*
X29992627Y-48893598D01*
X30052155Y-48899999D01*
X30052172Y-48900000D01*
X30750000Y-48900000D01*
X30750000Y-47875277D01*
X30826306Y-47919333D01*
X30940756Y-47950000D01*
X31059244Y-47950000D01*
X31173694Y-47919333D01*
X31250000Y-47875277D01*
X31250000Y-48900000D01*
X31947828Y-48900000D01*
X31947844Y-48899999D01*
X32007372Y-48893598D01*
X32007379Y-48893596D01*
X32142086Y-48843354D01*
X32142093Y-48843350D01*
X32257187Y-48757190D01*
X32257190Y-48757187D01*
X32343350Y-48642093D01*
X32343354Y-48642086D01*
X32393596Y-48507379D01*
X32393598Y-48507372D01*
X32399999Y-48447844D01*
X32400000Y-48447827D01*
X32400000Y-48269906D01*
X32419685Y-48202867D01*
X32472489Y-48157112D01*
X32541647Y-48147168D01*
X32605203Y-48176193D01*
X32624319Y-48197022D01*
X32662443Y-48249497D01*
X32790500Y-48377554D01*
X32790505Y-48377558D01*
X32887223Y-48447827D01*
X32937006Y-48483996D01*
X33042484Y-48537740D01*
X33098360Y-48566211D01*
X33098363Y-48566212D01*
X33130914Y-48576788D01*
X33270591Y-48622171D01*
X33353429Y-48635291D01*
X33449449Y-48650500D01*
X33449454Y-48650500D01*
X33630551Y-48650500D01*
X33717259Y-48636765D01*
X33809409Y-48622171D01*
X33981639Y-48566211D01*
X34142994Y-48483996D01*
X34289501Y-48377553D01*
X34417553Y-48249501D01*
X34523996Y-48102994D01*
X34606211Y-47941639D01*
X34662171Y-47769409D01*
X34689253Y-47598422D01*
X34690500Y-47590551D01*
X34690500Y-47409448D01*
X34665245Y-47250000D01*
X34662171Y-47230591D01*
X34659930Y-47223694D01*
X34638440Y-47157551D01*
X34627968Y-47125321D01*
X41899500Y-47125321D01*
X41899500Y-48874678D01*
X41914032Y-48947735D01*
X41914033Y-48947739D01*
X41932405Y-48975235D01*
X41969399Y-49030601D01*
X42052260Y-49085966D01*
X42052264Y-49085967D01*
X42125321Y-49100499D01*
X42125324Y-49100500D01*
X42125326Y-49100500D01*
X42525500Y-49100500D01*
X42592539Y-49120185D01*
X42638294Y-49172989D01*
X42649500Y-49224500D01*
X42649500Y-49407481D01*
X42629815Y-49474520D01*
X42581795Y-49517966D01*
X42423211Y-49598768D01*
X42386665Y-49625321D01*
X42283072Y-49700586D01*
X42283070Y-49700588D01*
X42283069Y-49700588D01*
X42160588Y-49823069D01*
X42160588Y-49823070D01*
X42160586Y-49823072D01*
X42141117Y-49849869D01*
X42058768Y-49963211D01*
X41980128Y-50117552D01*
X41926597Y-50282302D01*
X41899500Y-50453389D01*
X41899500Y-50626610D01*
X41923868Y-50780468D01*
X41926598Y-50797701D01*
X41980127Y-50962445D01*
X42058768Y-51116788D01*
X42160586Y-51256928D01*
X42283072Y-51379414D01*
X42423212Y-51481232D01*
X42577555Y-51559873D01*
X42742299Y-51613402D01*
X42913389Y-51640500D01*
X42913390Y-51640500D01*
X43086610Y-51640500D01*
X43086611Y-51640500D01*
X43257701Y-51613402D01*
X43422445Y-51559873D01*
X43576788Y-51481232D01*
X43716928Y-51379414D01*
X43839414Y-51256928D01*
X43941232Y-51116788D01*
X44019873Y-50962445D01*
X44073402Y-50797701D01*
X44100500Y-50626611D01*
X44100500Y-50453389D01*
X44073402Y-50282299D01*
X44019873Y-50117555D01*
X43941232Y-49963212D01*
X43839414Y-49823072D01*
X43716928Y-49700586D01*
X43576788Y-49598768D01*
X43418205Y-49517966D01*
X43367409Y-49469991D01*
X43350500Y-49407481D01*
X43350500Y-49224500D01*
X43370185Y-49157461D01*
X43422989Y-49111706D01*
X43474500Y-49100500D01*
X43874676Y-49100500D01*
X43874677Y-49100499D01*
X43947740Y-49085966D01*
X44030601Y-49030601D01*
X44085966Y-48947740D01*
X44100500Y-48874674D01*
X44100500Y-47125326D01*
X44100500Y-47125323D01*
X44100499Y-47125321D01*
X44085967Y-47052264D01*
X44085966Y-47052260D01*
X44064394Y-47019975D01*
X44030601Y-46969399D01*
X43947740Y-46914034D01*
X43947739Y-46914033D01*
X43947735Y-46914032D01*
X43874677Y-46899500D01*
X43874674Y-46899500D01*
X42125326Y-46899500D01*
X42125323Y-46899500D01*
X42052264Y-46914032D01*
X42052260Y-46914033D01*
X41969399Y-46969399D01*
X41914033Y-47052260D01*
X41914032Y-47052264D01*
X41899500Y-47125321D01*
X34627968Y-47125321D01*
X34606212Y-47058363D01*
X34606211Y-47058360D01*
X34566349Y-46980128D01*
X34523996Y-46897006D01*
X34510396Y-46878287D01*
X34417558Y-46750505D01*
X34417554Y-46750500D01*
X34289499Y-46622445D01*
X34289494Y-46622441D01*
X34142997Y-46516006D01*
X34142996Y-46516005D01*
X34142994Y-46516004D01*
X34091300Y-46489664D01*
X33981639Y-46433788D01*
X33981636Y-46433787D01*
X33809410Y-46377829D01*
X33630551Y-46349500D01*
X33630546Y-46349500D01*
X33449454Y-46349500D01*
X33449449Y-46349500D01*
X33270589Y-46377829D01*
X33098363Y-46433787D01*
X33098360Y-46433788D01*
X32937002Y-46516006D01*
X32790505Y-46622441D01*
X32790500Y-46622445D01*
X32662445Y-46750500D01*
X32662441Y-46750505D01*
X32624318Y-46802978D01*
X32568988Y-46845644D01*
X32499375Y-46851623D01*
X32437580Y-46819018D01*
X32403223Y-46758179D01*
X32400000Y-46730093D01*
X32400000Y-46552172D01*
X32399999Y-46552155D01*
X32393598Y-46492627D01*
X32393596Y-46492620D01*
X32343354Y-46357913D01*
X32343350Y-46357906D01*
X32257190Y-46242812D01*
X32257187Y-46242809D01*
X32142093Y-46156649D01*
X32142086Y-46156645D01*
X32007379Y-46106403D01*
X32007372Y-46106401D01*
X31947844Y-46100000D01*
X31250000Y-46100000D01*
X31250000Y-47124722D01*
X31173694Y-47080667D01*
X31059244Y-47050000D01*
X30940756Y-47050000D01*
X30826306Y-47080667D01*
X30750000Y-47124722D01*
X30750000Y-46100000D01*
X30052155Y-46100000D01*
X29992627Y-46106401D01*
X29992620Y-46106403D01*
X29857913Y-46156645D01*
X29857906Y-46156649D01*
X29742812Y-46242809D01*
X29742809Y-46242812D01*
X29656649Y-46357906D01*
X29656645Y-46357913D01*
X29606403Y-46492620D01*
X29606401Y-46492627D01*
X29600000Y-46552155D01*
X27320629Y-46552155D01*
X27314646Y-46546172D01*
X27155405Y-46430476D01*
X26980029Y-46341117D01*
X26792826Y-46280290D01*
X26598422Y-46249500D01*
X26598417Y-46249500D01*
X26401583Y-46249500D01*
X26401578Y-46249500D01*
X26207173Y-46280290D01*
X26019970Y-46341117D01*
X25844594Y-46430476D01*
X25759062Y-46492620D01*
X25685354Y-46546172D01*
X25685352Y-46546174D01*
X25685351Y-46546174D01*
X25546174Y-46685351D01*
X25546174Y-46685352D01*
X25546172Y-46685354D01*
X25513667Y-46730093D01*
X25430476Y-46844594D01*
X25341117Y-47019970D01*
X25280290Y-47207173D01*
X25249500Y-47401577D01*
X21250500Y-47401577D01*
X21219709Y-47207173D01*
X21191487Y-47120317D01*
X21158884Y-47019975D01*
X21158882Y-47019972D01*
X21158882Y-47019970D01*
X21097499Y-46899500D01*
X21069524Y-46844595D01*
X20953828Y-46685354D01*
X20814646Y-46546172D01*
X20655405Y-46430476D01*
X20480029Y-46341117D01*
X20292826Y-46280290D01*
X20098422Y-46249500D01*
X20098417Y-46249500D01*
X19901583Y-46249500D01*
X19901578Y-46249500D01*
X19707173Y-46280290D01*
X19519970Y-46341117D01*
X19344594Y-46430476D01*
X19259062Y-46492620D01*
X19185354Y-46546172D01*
X19185352Y-46546174D01*
X19185351Y-46546174D01*
X19046174Y-46685351D01*
X19046174Y-46685352D01*
X19046172Y-46685354D01*
X19013667Y-46730093D01*
X18930476Y-46844594D01*
X18841117Y-47019970D01*
X18780290Y-47207173D01*
X18749500Y-47401577D01*
X16750500Y-47401577D01*
X16719709Y-47207173D01*
X16691487Y-47120317D01*
X16658884Y-47019975D01*
X16658882Y-47019972D01*
X16658882Y-47019970D01*
X16597499Y-46899500D01*
X16569524Y-46844595D01*
X16453828Y-46685354D01*
X16314646Y-46546172D01*
X16155405Y-46430476D01*
X15980029Y-46341117D01*
X15792826Y-46280290D01*
X15598422Y-46249500D01*
X15598417Y-46249500D01*
X15401583Y-46249500D01*
X15401578Y-46249500D01*
X15207173Y-46280290D01*
X15019970Y-46341117D01*
X14844594Y-46430476D01*
X14759062Y-46492620D01*
X14685354Y-46546172D01*
X14685352Y-46546174D01*
X14685351Y-46546174D01*
X14546174Y-46685351D01*
X14546174Y-46685352D01*
X14546172Y-46685354D01*
X14513667Y-46730093D01*
X14430476Y-46844594D01*
X14341117Y-47019970D01*
X14280290Y-47207173D01*
X14249500Y-47401577D01*
X10250500Y-47401577D01*
X10219709Y-47207173D01*
X10191487Y-47120317D01*
X10158884Y-47019975D01*
X10158882Y-47019972D01*
X10158882Y-47019970D01*
X10097499Y-46899500D01*
X10069524Y-46844595D01*
X9953828Y-46685354D01*
X9814646Y-46546172D01*
X9655405Y-46430476D01*
X9480029Y-46341117D01*
X9292826Y-46280290D01*
X9098422Y-46249500D01*
X9098417Y-46249500D01*
X8901583Y-46249500D01*
X8901578Y-46249500D01*
X8707173Y-46280290D01*
X8519970Y-46341117D01*
X8344594Y-46430476D01*
X8259062Y-46492620D01*
X8185354Y-46546172D01*
X8185352Y-46546174D01*
X8185351Y-46546174D01*
X8046174Y-46685351D01*
X8046174Y-46685352D01*
X8046172Y-46685354D01*
X8013667Y-46730093D01*
X7930476Y-46844594D01*
X7841117Y-47019970D01*
X7780290Y-47207173D01*
X7749500Y-47401577D01*
X600000Y-47401577D01*
X600000Y-38100013D01*
X20625000Y-38100013D01*
X20625000Y-38250000D01*
X21719670Y-38250000D01*
X21699925Y-38269745D01*
X21650556Y-38355255D01*
X21625000Y-38450630D01*
X21625000Y-38549370D01*
X21650556Y-38644745D01*
X21699925Y-38730255D01*
X21719670Y-38750000D01*
X20625001Y-38750000D01*
X20625001Y-38899986D01*
X20635494Y-39002697D01*
X20690641Y-39169119D01*
X20690643Y-39169124D01*
X20782684Y-39318345D01*
X20906654Y-39442315D01*
X21055875Y-39534356D01*
X21055880Y-39534358D01*
X21222302Y-39589505D01*
X21222309Y-39589506D01*
X21325019Y-39599999D01*
X21749999Y-39599999D01*
X21750000Y-39599998D01*
X21750000Y-38780330D01*
X21769745Y-38800075D01*
X21855255Y-38849444D01*
X21950630Y-38875000D01*
X22049370Y-38875000D01*
X22144745Y-38849444D01*
X22230255Y-38800075D01*
X22250000Y-38780330D01*
X22250000Y-39599999D01*
X22674972Y-39599999D01*
X22674986Y-39599998D01*
X22777697Y-39589505D01*
X22944119Y-39534358D01*
X22944124Y-39534356D01*
X23093345Y-39442315D01*
X23217315Y-39318345D01*
X23309356Y-39169124D01*
X23309358Y-39169119D01*
X23364505Y-39002697D01*
X23364506Y-39002690D01*
X23374999Y-38899986D01*
X23375000Y-38899973D01*
X23375000Y-38750000D01*
X22280330Y-38750000D01*
X22300075Y-38730255D01*
X22349444Y-38644745D01*
X22375000Y-38549370D01*
X22375000Y-38450630D01*
X22349444Y-38355255D01*
X22300075Y-38269745D01*
X22280330Y-38250000D01*
X23374999Y-38250000D01*
X23374999Y-38100028D01*
X23374998Y-38100013D01*
X23364505Y-37997302D01*
X23309358Y-37830880D01*
X23309356Y-37830875D01*
X23217315Y-37681654D01*
X23093345Y-37557684D01*
X22944124Y-37465643D01*
X22944119Y-37465641D01*
X22794983Y-37416223D01*
X22737538Y-37376451D01*
X22710715Y-37311935D01*
X22723030Y-37243159D01*
X22765095Y-37195416D01*
X22817162Y-37160626D01*
X22935626Y-37042162D01*
X23028703Y-36902863D01*
X23092816Y-36748082D01*
X23125500Y-36583767D01*
X23125500Y-36416233D01*
X23092816Y-36251918D01*
X23044252Y-36134676D01*
X23028704Y-36097139D01*
X23028310Y-36096550D01*
X22976951Y-36019685D01*
X22935626Y-35957837D01*
X22817162Y-35839373D01*
X22677860Y-35746295D01*
X22593675Y-35711425D01*
X22523082Y-35682184D01*
X22523074Y-35682182D01*
X22358771Y-35649500D01*
X22358767Y-35649500D01*
X21641233Y-35649500D01*
X21641228Y-35649500D01*
X21476925Y-35682182D01*
X21476917Y-35682184D01*
X21322139Y-35746295D01*
X21182837Y-35839373D01*
X21064373Y-35957837D01*
X20971295Y-36097139D01*
X20907184Y-36251917D01*
X20907182Y-36251925D01*
X20874500Y-36416228D01*
X20874500Y-36583771D01*
X20907182Y-36748074D01*
X20907184Y-36748082D01*
X20971295Y-36902860D01*
X21064373Y-37042162D01*
X21182835Y-37160624D01*
X21182838Y-37160626D01*
X21234901Y-37195414D01*
X21279707Y-37249025D01*
X21288414Y-37318350D01*
X21258260Y-37381378D01*
X21205016Y-37416222D01*
X21055878Y-37465642D01*
X21055875Y-37465643D01*
X20906654Y-37557684D01*
X20782684Y-37681654D01*
X20690643Y-37830875D01*
X20690641Y-37830880D01*
X20635494Y-37997302D01*
X20635493Y-37997309D01*
X20625000Y-38100013D01*
X600000Y-38100013D01*
X600000Y-35600013D01*
X31625000Y-35600013D01*
X31625000Y-35750000D01*
X32719670Y-35750000D01*
X32699925Y-35769745D01*
X32650556Y-35855255D01*
X32625000Y-35950630D01*
X32625000Y-36049370D01*
X32650556Y-36144745D01*
X32699925Y-36230255D01*
X32719670Y-36250000D01*
X31625001Y-36250000D01*
X31625001Y-36399986D01*
X31635494Y-36502697D01*
X31690641Y-36669119D01*
X31690643Y-36669124D01*
X31782684Y-36818345D01*
X31906654Y-36942315D01*
X32055875Y-37034356D01*
X32055880Y-37034358D01*
X32222302Y-37089505D01*
X32222309Y-37089506D01*
X32325019Y-37099999D01*
X32749999Y-37099999D01*
X32750000Y-37099998D01*
X32750000Y-36280330D01*
X32769745Y-36300075D01*
X32855255Y-36349444D01*
X32950630Y-36375000D01*
X33049370Y-36375000D01*
X33144745Y-36349444D01*
X33230255Y-36300075D01*
X33250000Y-36280330D01*
X33250000Y-37099999D01*
X33674972Y-37099999D01*
X33674986Y-37099998D01*
X33777695Y-37089506D01*
X33872495Y-37058092D01*
X33942324Y-37055690D01*
X34002366Y-37091421D01*
X34033559Y-37153942D01*
X34035500Y-37175798D01*
X34035500Y-39107314D01*
X34015815Y-39174353D01*
X33999181Y-39194995D01*
X33945493Y-39248682D01*
X33945488Y-39248688D01*
X33873017Y-39374211D01*
X33873016Y-39374215D01*
X33835500Y-39514225D01*
X33835500Y-39659175D01*
X33873016Y-39799185D01*
X33873017Y-39799188D01*
X33945488Y-39924711D01*
X33945490Y-39924713D01*
X33945491Y-39924715D01*
X34047985Y-40027209D01*
X34047986Y-40027210D01*
X34047988Y-40027211D01*
X34173511Y-40099682D01*
X34173512Y-40099682D01*
X34173515Y-40099684D01*
X34313525Y-40137200D01*
X34313528Y-40137200D01*
X34458472Y-40137200D01*
X34458475Y-40137200D01*
X34598485Y-40099684D01*
X34724015Y-40027209D01*
X34777705Y-39973519D01*
X34839028Y-39940034D01*
X34865386Y-39937200D01*
X42738456Y-39937200D01*
X42805495Y-39956885D01*
X42826137Y-39973519D01*
X46091710Y-43239092D01*
X46125195Y-43300415D01*
X46120211Y-43370107D01*
X46078339Y-43426040D01*
X46066030Y-43434160D01*
X45973485Y-43487591D01*
X45973482Y-43487593D01*
X45870993Y-43590082D01*
X45870988Y-43590088D01*
X45798517Y-43715611D01*
X45798516Y-43715615D01*
X45761000Y-43855625D01*
X45761000Y-44000575D01*
X45778588Y-44066212D01*
X45798517Y-44140588D01*
X45870988Y-44266111D01*
X45870990Y-44266114D01*
X45870991Y-44266115D01*
X45973485Y-44368609D01*
X45973486Y-44368610D01*
X45973488Y-44368611D01*
X46099011Y-44441082D01*
X46099012Y-44441082D01*
X46099015Y-44441084D01*
X46239025Y-44478600D01*
X46239028Y-44478600D01*
X46246876Y-44480703D01*
X46246217Y-44483162D01*
X46298474Y-44506274D01*
X46336950Y-44564596D01*
X46342400Y-44600954D01*
X46342400Y-46979320D01*
X46322715Y-47046359D01*
X46269911Y-47092114D01*
X46200753Y-47102058D01*
X46145516Y-47079639D01*
X46116791Y-47058769D01*
X45962447Y-46980128D01*
X45962446Y-46980127D01*
X45962445Y-46980127D01*
X45797701Y-46926598D01*
X45797699Y-46926597D01*
X45797698Y-46926597D01*
X45662650Y-46905208D01*
X45626611Y-46899500D01*
X45453389Y-46899500D01*
X45417350Y-46905208D01*
X45282302Y-46926597D01*
X45117552Y-46980128D01*
X44963211Y-47058768D01*
X44883256Y-47116859D01*
X44823072Y-47160586D01*
X44823070Y-47160588D01*
X44823069Y-47160588D01*
X44700588Y-47283069D01*
X44700588Y-47283070D01*
X44700586Y-47283072D01*
X44669175Y-47326306D01*
X44598768Y-47423211D01*
X44520128Y-47577552D01*
X44466597Y-47742302D01*
X44439500Y-47913389D01*
X44439500Y-48086610D01*
X44465298Y-48249497D01*
X44466598Y-48257701D01*
X44520127Y-48422445D01*
X44598768Y-48576788D01*
X44700586Y-48716928D01*
X44823072Y-48839414D01*
X44963212Y-48941232D01*
X45117555Y-49019873D01*
X45282299Y-49073402D01*
X45453389Y-49100500D01*
X45453390Y-49100500D01*
X45626610Y-49100500D01*
X45626611Y-49100500D01*
X45797701Y-49073402D01*
X45962445Y-49019873D01*
X46116788Y-48941232D01*
X46145514Y-48920360D01*
X46211320Y-48896881D01*
X46279374Y-48912706D01*
X46328069Y-48962812D01*
X46342400Y-49020679D01*
X46342400Y-49190555D01*
X46322715Y-49257594D01*
X46306081Y-49278236D01*
X46092969Y-49491347D01*
X46031646Y-49524832D01*
X45966970Y-49521597D01*
X45797698Y-49466597D01*
X45666271Y-49445781D01*
X45626611Y-49439500D01*
X45453389Y-49439500D01*
X45413728Y-49445781D01*
X45282302Y-49466597D01*
X45117552Y-49520128D01*
X44963211Y-49598768D01*
X44926665Y-49625321D01*
X44823072Y-49700586D01*
X44823070Y-49700588D01*
X44823069Y-49700588D01*
X44700588Y-49823069D01*
X44700588Y-49823070D01*
X44700586Y-49823072D01*
X44681117Y-49849869D01*
X44598768Y-49963211D01*
X44520128Y-50117552D01*
X44466597Y-50282302D01*
X44439500Y-50453389D01*
X44439500Y-50626610D01*
X44463868Y-50780468D01*
X44466598Y-50797701D01*
X44520127Y-50962445D01*
X44598768Y-51116788D01*
X44700586Y-51256928D01*
X44823072Y-51379414D01*
X44963212Y-51481232D01*
X45117555Y-51559873D01*
X45282299Y-51613402D01*
X45453389Y-51640500D01*
X45453390Y-51640500D01*
X45626610Y-51640500D01*
X45626611Y-51640500D01*
X45797701Y-51613402D01*
X45962445Y-51559873D01*
X46116788Y-51481232D01*
X46256928Y-51379414D01*
X46379414Y-51256928D01*
X46481232Y-51116788D01*
X46559873Y-50962445D01*
X46613402Y-50797701D01*
X46640500Y-50626611D01*
X46640500Y-50453389D01*
X46613402Y-50282299D01*
X46559873Y-50117555D01*
X46559869Y-50117547D01*
X46558401Y-50113029D01*
X46556406Y-50043188D01*
X46588649Y-49987031D01*
X46973370Y-49602312D01*
X47019514Y-49522388D01*
X47043400Y-49433244D01*
X47043400Y-49340956D01*
X47043400Y-44490144D01*
X47063085Y-44423105D01*
X47115889Y-44377350D01*
X47185047Y-44367406D01*
X47248603Y-44396431D01*
X47255081Y-44402463D01*
X53633088Y-50780470D01*
X53702366Y-50820467D01*
X53702368Y-50820469D01*
X53713009Y-50826613D01*
X53713011Y-50826613D01*
X53713012Y-50826614D01*
X53802156Y-50850500D01*
X53802159Y-50850500D01*
X53807593Y-50851956D01*
X53867253Y-50888320D01*
X53897783Y-50951167D01*
X53899500Y-50971731D01*
X53899500Y-51374678D01*
X53914032Y-51447735D01*
X53914033Y-51447739D01*
X53914034Y-51447740D01*
X53969399Y-51530601D01*
X54052260Y-51585966D01*
X54052264Y-51585967D01*
X54125321Y-51600499D01*
X54125324Y-51600500D01*
X54125326Y-51600500D01*
X55874676Y-51600500D01*
X55874677Y-51600499D01*
X55947740Y-51585966D01*
X56030601Y-51530601D01*
X56085966Y-51447740D01*
X56100500Y-51374674D01*
X56100500Y-49855544D01*
X56120185Y-49788505D01*
X56172989Y-49742750D01*
X56242147Y-49732806D01*
X56305703Y-49761831D01*
X56312181Y-49767863D01*
X56491347Y-49947029D01*
X56524832Y-50008352D01*
X56521597Y-50073028D01*
X56466597Y-50242301D01*
X56439500Y-50413389D01*
X56439500Y-50586610D01*
X56466597Y-50757697D01*
X56466597Y-50757699D01*
X56466598Y-50757701D01*
X56520127Y-50922445D01*
X56598768Y-51076788D01*
X56700586Y-51216928D01*
X56823072Y-51339414D01*
X56963212Y-51441232D01*
X57117555Y-51519873D01*
X57282299Y-51573402D01*
X57453389Y-51600500D01*
X57453390Y-51600500D01*
X57626610Y-51600500D01*
X57626611Y-51600500D01*
X57797701Y-51573402D01*
X57962445Y-51519873D01*
X58116788Y-51441232D01*
X58256928Y-51339414D01*
X58379414Y-51216928D01*
X58481232Y-51076788D01*
X58559873Y-50922445D01*
X58613402Y-50757701D01*
X58640500Y-50586611D01*
X58640500Y-50413389D01*
X58979500Y-50413389D01*
X58979500Y-50586610D01*
X59006597Y-50757697D01*
X59006597Y-50757699D01*
X59006598Y-50757701D01*
X59060127Y-50922445D01*
X59138768Y-51076788D01*
X59240586Y-51216928D01*
X59363072Y-51339414D01*
X59503212Y-51441232D01*
X59657555Y-51519873D01*
X59822299Y-51573402D01*
X59993389Y-51600500D01*
X59993390Y-51600500D01*
X60166610Y-51600500D01*
X60166611Y-51600500D01*
X60337701Y-51573402D01*
X60502445Y-51519873D01*
X60656788Y-51441232D01*
X60796928Y-51339414D01*
X60919414Y-51216928D01*
X61021232Y-51076788D01*
X61099873Y-50922445D01*
X61153402Y-50757701D01*
X61180500Y-50586611D01*
X61180500Y-50413389D01*
X61153402Y-50242299D01*
X61099873Y-50077555D01*
X61021232Y-49923212D01*
X60919414Y-49783072D01*
X60796928Y-49660586D01*
X60656788Y-49558768D01*
X60502445Y-49480127D01*
X60337701Y-49426598D01*
X60337699Y-49426597D01*
X60337698Y-49426597D01*
X60206271Y-49405781D01*
X60166611Y-49399500D01*
X59993389Y-49399500D01*
X59953728Y-49405781D01*
X59822302Y-49426597D01*
X59657552Y-49480128D01*
X59503211Y-49558768D01*
X59438562Y-49605739D01*
X59363072Y-49660586D01*
X59363070Y-49660588D01*
X59363069Y-49660588D01*
X59240588Y-49783069D01*
X59240588Y-49783070D01*
X59240586Y-49783072D01*
X59211526Y-49823070D01*
X59138768Y-49923211D01*
X59060128Y-50077552D01*
X59006597Y-50242302D01*
X58979500Y-50413389D01*
X58640500Y-50413389D01*
X58613402Y-50242299D01*
X58559873Y-50077555D01*
X58481232Y-49923212D01*
X58379414Y-49783072D01*
X58256928Y-49660586D01*
X58116788Y-49558768D01*
X57962445Y-49480127D01*
X57797701Y-49426598D01*
X57797699Y-49426597D01*
X57797698Y-49426597D01*
X57666271Y-49405781D01*
X57626611Y-49399500D01*
X57453389Y-49399500D01*
X57421192Y-49404599D01*
X57282301Y-49426597D01*
X57113028Y-49481597D01*
X57043186Y-49483592D01*
X56987029Y-49451347D01*
X53758719Y-46223037D01*
X53725234Y-46161714D01*
X53722400Y-46135356D01*
X53722400Y-36422343D01*
X53742085Y-36355304D01*
X53794889Y-36309549D01*
X53864047Y-36299605D01*
X53927603Y-36328630D01*
X53934081Y-36334662D01*
X54291531Y-36692112D01*
X54356788Y-36757369D01*
X54356791Y-36757370D01*
X54356794Y-36757373D01*
X54436706Y-36803511D01*
X54436707Y-36803511D01*
X54436712Y-36803514D01*
X54525856Y-36827400D01*
X54525858Y-36827400D01*
X58909242Y-36827400D01*
X58909244Y-36827400D01*
X58998388Y-36803514D01*
X59010907Y-36796286D01*
X59078312Y-36757370D01*
X59527031Y-36308649D01*
X59588352Y-36275166D01*
X59653029Y-36278401D01*
X59657547Y-36279869D01*
X59657555Y-36279873D01*
X59822299Y-36333402D01*
X59993389Y-36360500D01*
X59993390Y-36360500D01*
X60166610Y-36360500D01*
X60166611Y-36360500D01*
X60337701Y-36333402D01*
X60502445Y-36279873D01*
X60656788Y-36201232D01*
X60796928Y-36099414D01*
X60919414Y-35976928D01*
X61021232Y-35836788D01*
X61099873Y-35682445D01*
X61153402Y-35517701D01*
X61180500Y-35346611D01*
X61180500Y-35173389D01*
X61153402Y-35002299D01*
X61099873Y-34837555D01*
X61021232Y-34683212D01*
X60919414Y-34543072D01*
X60796928Y-34420586D01*
X60656788Y-34318768D01*
X60502445Y-34240127D01*
X60337701Y-34186598D01*
X60337699Y-34186597D01*
X60337698Y-34186597D01*
X60206271Y-34165781D01*
X60166611Y-34159500D01*
X59993389Y-34159500D01*
X59953728Y-34165781D01*
X59822302Y-34186597D01*
X59657552Y-34240128D01*
X59503211Y-34318768D01*
X59440452Y-34364366D01*
X59363072Y-34420586D01*
X59363070Y-34420588D01*
X59363069Y-34420588D01*
X59240588Y-34543069D01*
X59240588Y-34543070D01*
X59240586Y-34543072D01*
X59204709Y-34592452D01*
X59138768Y-34683211D01*
X59060128Y-34837552D01*
X59006597Y-35002302D01*
X58979500Y-35173389D01*
X58979500Y-35346610D01*
X59006597Y-35517698D01*
X59061597Y-35686970D01*
X59063592Y-35756811D01*
X59031347Y-35812969D01*
X58754235Y-36090082D01*
X58692915Y-36123566D01*
X58666556Y-36126400D01*
X58514180Y-36126400D01*
X58447141Y-36106715D01*
X58401386Y-36053911D01*
X58391442Y-35984753D01*
X58413862Y-35929514D01*
X58481232Y-35836788D01*
X58559873Y-35682445D01*
X58613402Y-35517701D01*
X58640500Y-35346611D01*
X58640500Y-35173389D01*
X58613402Y-35002299D01*
X58559873Y-34837555D01*
X58481232Y-34683212D01*
X58379414Y-34543072D01*
X58256928Y-34420586D01*
X58116788Y-34318768D01*
X57962445Y-34240127D01*
X57797701Y-34186598D01*
X57797699Y-34186597D01*
X57797698Y-34186597D01*
X57666271Y-34165781D01*
X57626611Y-34159500D01*
X57453389Y-34159500D01*
X57413728Y-34165781D01*
X57282302Y-34186597D01*
X57117552Y-34240128D01*
X56963211Y-34318768D01*
X56900452Y-34364366D01*
X56823072Y-34420586D01*
X56823070Y-34420588D01*
X56823069Y-34420588D01*
X56700588Y-34543069D01*
X56700588Y-34543070D01*
X56700586Y-34543072D01*
X56664709Y-34592452D01*
X56598768Y-34683211D01*
X56520128Y-34837552D01*
X56466597Y-35002302D01*
X56439500Y-35173389D01*
X56439500Y-35346610D01*
X56466597Y-35517697D01*
X56466597Y-35517699D01*
X56466598Y-35517701D01*
X56520127Y-35682445D01*
X56598768Y-35836788D01*
X56644694Y-35900000D01*
X56666138Y-35929514D01*
X56689618Y-35995320D01*
X56673793Y-36063374D01*
X56623687Y-36112069D01*
X56565820Y-36126400D01*
X55974180Y-36126400D01*
X55907141Y-36106715D01*
X55861386Y-36053911D01*
X55851442Y-35984753D01*
X55873862Y-35929514D01*
X55941232Y-35836788D01*
X56019873Y-35682445D01*
X56073402Y-35517701D01*
X56100500Y-35346611D01*
X56100500Y-35173389D01*
X56073402Y-35002299D01*
X56019873Y-34837555D01*
X55941232Y-34683212D01*
X55839414Y-34543072D01*
X55716928Y-34420586D01*
X55576788Y-34318768D01*
X55418205Y-34237966D01*
X55367409Y-34189991D01*
X55350500Y-34127481D01*
X55350500Y-31617658D01*
X55350500Y-31617656D01*
X55326614Y-31528512D01*
X55322986Y-31522229D01*
X55310441Y-31500500D01*
X55310441Y-31500499D01*
X55280472Y-31448591D01*
X55280468Y-31448586D01*
X41443363Y-17611481D01*
X41409878Y-17550158D01*
X41414862Y-17480466D01*
X41456734Y-17424533D01*
X41522198Y-17400116D01*
X41531044Y-17399800D01*
X44212756Y-17399800D01*
X44279795Y-17419485D01*
X44300437Y-17436119D01*
X61571347Y-34707029D01*
X61604832Y-34768352D01*
X61601597Y-34833028D01*
X61546597Y-35002301D01*
X61519500Y-35173389D01*
X61519500Y-35346610D01*
X61546597Y-35517697D01*
X61546597Y-35517699D01*
X61546598Y-35517701D01*
X61600127Y-35682445D01*
X61678768Y-35836788D01*
X61780586Y-35976928D01*
X61903072Y-36099414D01*
X62043212Y-36201232D01*
X62197555Y-36279873D01*
X62362299Y-36333402D01*
X62533389Y-36360500D01*
X62533390Y-36360500D01*
X62706610Y-36360500D01*
X62706611Y-36360500D01*
X62877701Y-36333402D01*
X63042445Y-36279873D01*
X63196788Y-36201232D01*
X63336928Y-36099414D01*
X63459414Y-35976928D01*
X63561232Y-35836788D01*
X63639873Y-35682445D01*
X63693402Y-35517701D01*
X63720500Y-35346611D01*
X63720500Y-35173389D01*
X63693402Y-35002299D01*
X63639873Y-34837555D01*
X63561232Y-34683212D01*
X63459414Y-34543072D01*
X63336928Y-34420586D01*
X63196788Y-34318768D01*
X63042445Y-34240127D01*
X62877701Y-34186598D01*
X62877699Y-34186597D01*
X62877698Y-34186597D01*
X62746271Y-34165781D01*
X62706611Y-34159500D01*
X62533389Y-34159500D01*
X62501192Y-34164599D01*
X62362301Y-34186597D01*
X62193028Y-34241597D01*
X62123186Y-34243592D01*
X62067029Y-34211347D01*
X57858813Y-30003131D01*
X57825328Y-29941808D01*
X57830312Y-29872116D01*
X57872184Y-29816183D01*
X57884479Y-29808072D01*
X57930315Y-29781609D01*
X58032809Y-29679115D01*
X58105284Y-29553585D01*
X58142800Y-29413575D01*
X58142800Y-29337644D01*
X58162485Y-29270605D01*
X58179119Y-29249963D01*
X59486564Y-27942518D01*
X60859669Y-26569413D01*
X60905814Y-26489488D01*
X60913745Y-26459888D01*
X60929700Y-26400344D01*
X60929700Y-22825286D01*
X60949385Y-22758247D01*
X60966019Y-22737605D01*
X61019709Y-22683915D01*
X61062306Y-22610135D01*
X61112872Y-22561921D01*
X61181479Y-22548697D01*
X61246343Y-22574665D01*
X61257373Y-22584455D01*
X64773181Y-26100263D01*
X64806666Y-26161586D01*
X64809500Y-26187944D01*
X64809500Y-34127481D01*
X64789815Y-34194520D01*
X64741795Y-34237966D01*
X64583211Y-34318768D01*
X64520452Y-34364366D01*
X64443072Y-34420586D01*
X64443070Y-34420588D01*
X64443069Y-34420588D01*
X64320588Y-34543069D01*
X64320588Y-34543070D01*
X64320586Y-34543072D01*
X64284709Y-34592452D01*
X64218768Y-34683211D01*
X64140128Y-34837552D01*
X64086597Y-35002302D01*
X64059500Y-35173389D01*
X64059500Y-35346610D01*
X64086597Y-35517697D01*
X64086597Y-35517699D01*
X64086598Y-35517701D01*
X64140127Y-35682445D01*
X64218768Y-35836788D01*
X64320586Y-35976928D01*
X64443072Y-36099414D01*
X64583212Y-36201232D01*
X64737555Y-36279873D01*
X64902299Y-36333402D01*
X65073389Y-36360500D01*
X65073390Y-36360500D01*
X65246610Y-36360500D01*
X65246611Y-36360500D01*
X65417701Y-36333402D01*
X65582445Y-36279873D01*
X65736788Y-36201232D01*
X65876928Y-36099414D01*
X65876930Y-36099411D01*
X65880869Y-36096550D01*
X65881909Y-36097982D01*
X65938704Y-36072520D01*
X66007792Y-36082942D01*
X66060278Y-36129062D01*
X66079500Y-36195377D01*
X66079500Y-46493455D01*
X66059815Y-46560494D01*
X66043181Y-46581136D01*
X63172969Y-49451347D01*
X63111646Y-49484832D01*
X63046970Y-49481597D01*
X62877698Y-49426597D01*
X62746271Y-49405781D01*
X62706611Y-49399500D01*
X62533389Y-49399500D01*
X62493728Y-49405781D01*
X62362302Y-49426597D01*
X62197552Y-49480128D01*
X62043211Y-49558768D01*
X61978562Y-49605739D01*
X61903072Y-49660586D01*
X61903070Y-49660588D01*
X61903069Y-49660588D01*
X61780588Y-49783069D01*
X61780588Y-49783070D01*
X61780586Y-49783072D01*
X61751526Y-49823070D01*
X61678768Y-49923211D01*
X61600128Y-50077552D01*
X61546597Y-50242302D01*
X61519500Y-50413389D01*
X61519500Y-50586610D01*
X61546597Y-50757697D01*
X61546597Y-50757699D01*
X61546598Y-50757701D01*
X61600127Y-50922445D01*
X61678768Y-51076788D01*
X61780586Y-51216928D01*
X61903072Y-51339414D01*
X62043212Y-51441232D01*
X62197555Y-51519873D01*
X62362299Y-51573402D01*
X62533389Y-51600500D01*
X62533390Y-51600500D01*
X62706610Y-51600500D01*
X62706611Y-51600500D01*
X62877701Y-51573402D01*
X63042445Y-51519873D01*
X63196788Y-51441232D01*
X63336928Y-51339414D01*
X63459414Y-51216928D01*
X63561232Y-51076788D01*
X63639873Y-50922445D01*
X63693402Y-50757701D01*
X63720500Y-50586611D01*
X63720500Y-50413389D01*
X63693402Y-50242299D01*
X63639873Y-50077555D01*
X63639869Y-50077547D01*
X63638401Y-50073029D01*
X63636406Y-50003188D01*
X63668649Y-49947031D01*
X66710470Y-46905212D01*
X66756614Y-46825288D01*
X66776653Y-46750500D01*
X66776654Y-46750500D01*
X66776654Y-46750494D01*
X66780500Y-46736144D01*
X66780500Y-36195377D01*
X66800185Y-36128338D01*
X66852989Y-36082583D01*
X66922147Y-36072639D01*
X66978106Y-36097960D01*
X66979131Y-36096550D01*
X66983069Y-36099411D01*
X66983072Y-36099414D01*
X67123212Y-36201232D01*
X67277555Y-36279873D01*
X67442299Y-36333402D01*
X67613389Y-36360500D01*
X67613390Y-36360500D01*
X67786610Y-36360500D01*
X67786611Y-36360500D01*
X67957701Y-36333402D01*
X68122445Y-36279873D01*
X68276788Y-36201232D01*
X68416928Y-36099414D01*
X68416930Y-36099411D01*
X68420869Y-36096550D01*
X68421909Y-36097982D01*
X68478704Y-36072520D01*
X68547792Y-36082942D01*
X68600278Y-36129062D01*
X68619500Y-36195377D01*
X68619500Y-46493455D01*
X68599815Y-46560494D01*
X68583181Y-46581136D01*
X65712969Y-49451347D01*
X65651646Y-49484832D01*
X65586970Y-49481597D01*
X65417698Y-49426597D01*
X65286271Y-49405781D01*
X65246611Y-49399500D01*
X65073389Y-49399500D01*
X65033728Y-49405781D01*
X64902302Y-49426597D01*
X64737552Y-49480128D01*
X64583211Y-49558768D01*
X64518562Y-49605739D01*
X64443072Y-49660586D01*
X64443070Y-49660588D01*
X64443069Y-49660588D01*
X64320588Y-49783069D01*
X64320588Y-49783070D01*
X64320586Y-49783072D01*
X64291526Y-49823070D01*
X64218768Y-49923211D01*
X64140128Y-50077552D01*
X64086597Y-50242302D01*
X64059500Y-50413389D01*
X64059500Y-50586610D01*
X64086597Y-50757697D01*
X64086597Y-50757699D01*
X64086598Y-50757701D01*
X64140127Y-50922445D01*
X64218768Y-51076788D01*
X64320586Y-51216928D01*
X64443072Y-51339414D01*
X64583212Y-51441232D01*
X64737555Y-51519873D01*
X64902299Y-51573402D01*
X65073389Y-51600500D01*
X65073390Y-51600500D01*
X65246610Y-51600500D01*
X65246611Y-51600500D01*
X65417701Y-51573402D01*
X65582445Y-51519873D01*
X65736788Y-51441232D01*
X65876928Y-51339414D01*
X65999414Y-51216928D01*
X66101232Y-51076788D01*
X66179873Y-50922445D01*
X66233402Y-50757701D01*
X66260500Y-50586611D01*
X66260500Y-50413389D01*
X66233402Y-50242299D01*
X66179873Y-50077555D01*
X66179869Y-50077547D01*
X66178401Y-50073029D01*
X66176406Y-50003188D01*
X66208649Y-49947031D01*
X69250470Y-46905212D01*
X69296614Y-46825288D01*
X69316653Y-46750500D01*
X69316654Y-46750500D01*
X69316654Y-46750494D01*
X69320500Y-46736144D01*
X69320500Y-36195377D01*
X69340185Y-36128338D01*
X69392989Y-36082583D01*
X69462147Y-36072639D01*
X69518106Y-36097960D01*
X69519131Y-36096550D01*
X69523069Y-36099411D01*
X69523072Y-36099414D01*
X69663212Y-36201232D01*
X69817555Y-36279873D01*
X69982299Y-36333402D01*
X70153389Y-36360500D01*
X70153390Y-36360500D01*
X70326610Y-36360500D01*
X70326611Y-36360500D01*
X70497701Y-36333402D01*
X70662445Y-36279873D01*
X70816788Y-36201232D01*
X70956928Y-36099414D01*
X71079414Y-35976928D01*
X71181232Y-35836788D01*
X71259873Y-35682445D01*
X71313402Y-35517701D01*
X71340500Y-35346611D01*
X71340500Y-35173389D01*
X71313402Y-35002299D01*
X71259873Y-34837555D01*
X71181232Y-34683212D01*
X71079414Y-34543072D01*
X70956928Y-34420586D01*
X70816788Y-34318768D01*
X70662445Y-34240127D01*
X70497701Y-34186598D01*
X70497699Y-34186597D01*
X70497698Y-34186597D01*
X70366271Y-34165781D01*
X70326611Y-34159500D01*
X70153389Y-34159500D01*
X70113728Y-34165781D01*
X69982302Y-34186597D01*
X69817552Y-34240128D01*
X69663211Y-34318768D01*
X69600452Y-34364366D01*
X69523072Y-34420586D01*
X69523069Y-34420588D01*
X69519131Y-34423450D01*
X69518094Y-34422024D01*
X69461255Y-34447485D01*
X69392171Y-34437039D01*
X69339700Y-34390902D01*
X69320500Y-34324622D01*
X69320500Y-31383843D01*
X69340185Y-31316804D01*
X69356819Y-31296162D01*
X76296162Y-24356819D01*
X76357485Y-24323334D01*
X76383843Y-24320500D01*
X76459773Y-24320500D01*
X76459775Y-24320500D01*
X76482405Y-24314436D01*
X76552255Y-24316098D01*
X76610118Y-24355259D01*
X76637623Y-24419487D01*
X76638500Y-24434210D01*
X76638500Y-30854455D01*
X76618815Y-30921494D01*
X76602181Y-30942136D01*
X73332969Y-34211347D01*
X73271646Y-34244832D01*
X73206970Y-34241597D01*
X73037698Y-34186597D01*
X72906271Y-34165781D01*
X72866611Y-34159500D01*
X72693389Y-34159500D01*
X72653728Y-34165781D01*
X72522302Y-34186597D01*
X72357552Y-34240128D01*
X72203211Y-34318768D01*
X72140452Y-34364366D01*
X72063072Y-34420586D01*
X72063070Y-34420588D01*
X72063069Y-34420588D01*
X71940588Y-34543069D01*
X71940588Y-34543070D01*
X71940586Y-34543072D01*
X71904709Y-34592452D01*
X71838768Y-34683211D01*
X71760128Y-34837552D01*
X71706597Y-35002302D01*
X71679500Y-35173389D01*
X71679500Y-35346610D01*
X71706597Y-35517697D01*
X71706597Y-35517699D01*
X71706598Y-35517701D01*
X71760127Y-35682445D01*
X71838768Y-35836788D01*
X71940586Y-35976928D01*
X72063072Y-36099414D01*
X72203212Y-36201232D01*
X72357555Y-36279873D01*
X72522299Y-36333402D01*
X72693389Y-36360500D01*
X72693390Y-36360500D01*
X72866610Y-36360500D01*
X72866611Y-36360500D01*
X73037701Y-36333402D01*
X73202445Y-36279873D01*
X73356788Y-36201232D01*
X73496928Y-36099414D01*
X73619414Y-35976928D01*
X73721232Y-35836788D01*
X73799873Y-35682445D01*
X73800896Y-35679294D01*
X73801610Y-35678250D01*
X73801734Y-35677952D01*
X73801796Y-35677977D01*
X73840327Y-35621618D01*
X73904683Y-35594415D01*
X73973530Y-35606323D01*
X74025011Y-35653562D01*
X74036760Y-35679287D01*
X74068904Y-35778217D01*
X74165375Y-35967550D01*
X74204728Y-36021716D01*
X74837037Y-35389408D01*
X74854075Y-35452993D01*
X74919901Y-35567007D01*
X75012993Y-35660099D01*
X75127007Y-35725925D01*
X75190590Y-35742962D01*
X74558282Y-36375269D01*
X74558282Y-36375270D01*
X74612449Y-36414624D01*
X74801782Y-36511095D01*
X75003870Y-36576757D01*
X75213754Y-36610000D01*
X75426246Y-36610000D01*
X75636127Y-36576757D01*
X75636130Y-36576757D01*
X75838217Y-36511095D01*
X76027554Y-36414622D01*
X76042614Y-36403681D01*
X76108420Y-36380201D01*
X76176474Y-36396026D01*
X76225169Y-36446131D01*
X76239500Y-36503999D01*
X76239500Y-43953455D01*
X76219815Y-44020494D01*
X76203181Y-44041136D01*
X70792969Y-49451347D01*
X70731646Y-49484832D01*
X70666970Y-49481597D01*
X70497698Y-49426597D01*
X70366271Y-49405781D01*
X70326611Y-49399500D01*
X70153389Y-49399500D01*
X70113728Y-49405781D01*
X69982302Y-49426597D01*
X69817552Y-49480128D01*
X69663211Y-49558768D01*
X69598562Y-49605739D01*
X69523072Y-49660586D01*
X69523070Y-49660588D01*
X69523069Y-49660588D01*
X69400588Y-49783069D01*
X69400588Y-49783070D01*
X69400586Y-49783072D01*
X69371526Y-49823070D01*
X69298768Y-49923211D01*
X69220128Y-50077552D01*
X69166597Y-50242302D01*
X69139500Y-50413389D01*
X69139500Y-50586610D01*
X69166597Y-50757697D01*
X69166597Y-50757699D01*
X69166598Y-50757701D01*
X69212866Y-50900099D01*
X69220128Y-50922447D01*
X69298768Y-51076789D01*
X69322036Y-51108813D01*
X69345517Y-51174619D01*
X69329692Y-51242673D01*
X69279587Y-51291369D01*
X69221719Y-51305700D01*
X69052744Y-51305700D01*
X68985705Y-51286015D01*
X68965063Y-51269381D01*
X68748652Y-51052970D01*
X68715167Y-50991647D01*
X68718402Y-50926971D01*
X68719873Y-50922445D01*
X68773402Y-50757701D01*
X68800500Y-50586611D01*
X68800500Y-50413389D01*
X68773402Y-50242299D01*
X68719873Y-50077555D01*
X68641232Y-49923212D01*
X68539414Y-49783072D01*
X68416928Y-49660586D01*
X68276788Y-49558768D01*
X68122445Y-49480127D01*
X67957701Y-49426598D01*
X67957699Y-49426597D01*
X67957698Y-49426597D01*
X67826271Y-49405781D01*
X67786611Y-49399500D01*
X67613389Y-49399500D01*
X67573728Y-49405781D01*
X67442302Y-49426597D01*
X67277552Y-49480128D01*
X67123211Y-49558768D01*
X67058562Y-49605739D01*
X66983072Y-49660586D01*
X66983070Y-49660588D01*
X66983069Y-49660588D01*
X66860588Y-49783069D01*
X66860588Y-49783070D01*
X66860586Y-49783072D01*
X66831526Y-49823070D01*
X66758768Y-49923211D01*
X66680128Y-50077552D01*
X66626597Y-50242302D01*
X66599500Y-50413389D01*
X66599500Y-50586610D01*
X66626597Y-50757697D01*
X66626597Y-50757699D01*
X66626598Y-50757701D01*
X66680127Y-50922445D01*
X66758768Y-51076788D01*
X66860586Y-51216928D01*
X66983072Y-51339414D01*
X67123212Y-51441232D01*
X67277555Y-51519873D01*
X67442299Y-51573402D01*
X67613389Y-51600500D01*
X67613390Y-51600500D01*
X67786610Y-51600500D01*
X67786611Y-51600500D01*
X67957701Y-51573402D01*
X68122445Y-51519873D01*
X68122447Y-51519871D01*
X68126971Y-51518402D01*
X68196812Y-51516407D01*
X68252970Y-51548652D01*
X68640988Y-51936670D01*
X68720912Y-51982814D01*
X68810056Y-52006700D01*
X68810057Y-52006700D01*
X68810058Y-52006700D01*
X80982042Y-52006700D01*
X80982044Y-52006700D01*
X81071188Y-51982814D01*
X81151112Y-51936670D01*
X81901253Y-51186528D01*
X81962574Y-51153045D01*
X82032265Y-51158029D01*
X82088199Y-51199901D01*
X82089249Y-51201324D01*
X82098333Y-51213828D01*
X82100586Y-51216928D01*
X82223072Y-51339414D01*
X82363212Y-51441232D01*
X82517555Y-51519873D01*
X82682299Y-51573402D01*
X82853389Y-51600500D01*
X82853390Y-51600500D01*
X83026610Y-51600500D01*
X83026611Y-51600500D01*
X83197701Y-51573402D01*
X83362445Y-51519873D01*
X83516788Y-51441232D01*
X83656928Y-51339414D01*
X83779414Y-51216928D01*
X83881232Y-51076788D01*
X83959873Y-50922445D01*
X84013402Y-50757701D01*
X84040500Y-50586611D01*
X84040500Y-50413389D01*
X84379500Y-50413389D01*
X84379500Y-50586610D01*
X84406597Y-50757697D01*
X84406597Y-50757699D01*
X84406598Y-50757701D01*
X84460127Y-50922445D01*
X84538768Y-51076788D01*
X84640586Y-51216928D01*
X84763072Y-51339414D01*
X84903212Y-51441232D01*
X85057555Y-51519873D01*
X85222299Y-51573402D01*
X85393389Y-51600500D01*
X85393390Y-51600500D01*
X85566610Y-51600500D01*
X85566611Y-51600500D01*
X85737701Y-51573402D01*
X85902445Y-51519873D01*
X86056788Y-51441232D01*
X86196928Y-51339414D01*
X86319414Y-51216928D01*
X86421232Y-51076788D01*
X86499873Y-50922445D01*
X86514083Y-50878711D01*
X119149500Y-50878711D01*
X119149500Y-51121288D01*
X119181161Y-51361785D01*
X119243947Y-51596104D01*
X119323312Y-51787708D01*
X119336776Y-51820212D01*
X119458064Y-52030289D01*
X119458066Y-52030292D01*
X119458067Y-52030293D01*
X119605733Y-52222736D01*
X119605739Y-52222743D01*
X119777256Y-52394260D01*
X119777262Y-52394265D01*
X119969711Y-52541936D01*
X120179788Y-52663224D01*
X120403900Y-52756054D01*
X120638211Y-52818838D01*
X120818586Y-52842584D01*
X120878711Y-52850500D01*
X120878712Y-52850500D01*
X121121289Y-52850500D01*
X121169388Y-52844167D01*
X121361789Y-52818838D01*
X121596100Y-52756054D01*
X121820212Y-52663224D01*
X122030289Y-52541936D01*
X122222738Y-52394265D01*
X122394265Y-52222738D01*
X122541936Y-52030289D01*
X122663224Y-51820212D01*
X122756054Y-51596100D01*
X122818838Y-51361789D01*
X122850500Y-51121288D01*
X122850500Y-50878712D01*
X122818838Y-50638211D01*
X122756054Y-50403900D01*
X122663224Y-50179788D01*
X122541936Y-49969711D01*
X122394265Y-49777262D01*
X122394260Y-49777256D01*
X122222743Y-49605739D01*
X122222736Y-49605733D01*
X122030293Y-49458067D01*
X122030292Y-49458066D01*
X122030289Y-49458064D01*
X121820212Y-49336776D01*
X121787048Y-49323039D01*
X121596104Y-49243947D01*
X121386633Y-49187819D01*
X121361789Y-49181162D01*
X121361788Y-49181161D01*
X121361785Y-49181161D01*
X121121289Y-49149500D01*
X121121288Y-49149500D01*
X120878712Y-49149500D01*
X120878711Y-49149500D01*
X120638214Y-49181161D01*
X120403895Y-49243947D01*
X120179794Y-49336773D01*
X120179785Y-49336777D01*
X119969706Y-49458067D01*
X119777263Y-49605733D01*
X119777256Y-49605739D01*
X119605739Y-49777256D01*
X119605733Y-49777263D01*
X119458067Y-49969706D01*
X119336777Y-50179785D01*
X119336773Y-50179794D01*
X119243947Y-50403895D01*
X119181161Y-50638214D01*
X119149500Y-50878711D01*
X86514083Y-50878711D01*
X86553402Y-50757701D01*
X86580500Y-50586611D01*
X86580500Y-50413389D01*
X86553402Y-50242299D01*
X86499873Y-50077555D01*
X86421232Y-49923212D01*
X86319414Y-49783072D01*
X86196928Y-49660586D01*
X86056788Y-49558768D01*
X85902445Y-49480127D01*
X85737701Y-49426598D01*
X85737699Y-49426597D01*
X85737698Y-49426597D01*
X85606271Y-49405781D01*
X85566611Y-49399500D01*
X85393389Y-49399500D01*
X85353728Y-49405781D01*
X85222302Y-49426597D01*
X85057552Y-49480128D01*
X84903211Y-49558768D01*
X84838562Y-49605739D01*
X84763072Y-49660586D01*
X84763070Y-49660588D01*
X84763069Y-49660588D01*
X84640588Y-49783069D01*
X84640588Y-49783070D01*
X84640586Y-49783072D01*
X84611526Y-49823070D01*
X84538768Y-49923211D01*
X84460128Y-50077552D01*
X84406597Y-50242302D01*
X84379500Y-50413389D01*
X84040500Y-50413389D01*
X84013402Y-50242299D01*
X83959873Y-50077555D01*
X83881232Y-49923212D01*
X83779414Y-49783072D01*
X83656928Y-49660586D01*
X83516788Y-49558768D01*
X83362445Y-49480127D01*
X83197701Y-49426598D01*
X83197699Y-49426597D01*
X83197698Y-49426597D01*
X83066271Y-49405781D01*
X83026611Y-49399500D01*
X82853389Y-49399500D01*
X82813728Y-49405781D01*
X82682302Y-49426597D01*
X82517552Y-49480128D01*
X82363211Y-49558768D01*
X82298570Y-49605733D01*
X82223072Y-49660586D01*
X82223069Y-49660588D01*
X82219131Y-49663450D01*
X82218094Y-49662024D01*
X82161255Y-49687485D01*
X82092171Y-49677039D01*
X82039700Y-49630902D01*
X82020500Y-49564622D01*
X82020500Y-42721544D01*
X82040185Y-42654505D01*
X82056819Y-42633863D01*
X82638527Y-42052155D01*
X106600000Y-42052155D01*
X106600000Y-42750000D01*
X107624722Y-42750000D01*
X107580667Y-42826306D01*
X107550000Y-42940756D01*
X107550000Y-43059244D01*
X107580667Y-43173694D01*
X107624722Y-43250000D01*
X106600000Y-43250000D01*
X106600000Y-43947844D01*
X106606401Y-44007372D01*
X106606403Y-44007379D01*
X106656645Y-44142086D01*
X106656649Y-44142093D01*
X106742809Y-44257187D01*
X106742812Y-44257190D01*
X106857906Y-44343350D01*
X106857913Y-44343354D01*
X106992620Y-44393596D01*
X106992627Y-44393598D01*
X107052155Y-44399999D01*
X107052172Y-44400000D01*
X107750000Y-44400000D01*
X107750000Y-43375277D01*
X107826306Y-43419333D01*
X107940756Y-43450000D01*
X108059244Y-43450000D01*
X108173694Y-43419333D01*
X108250000Y-43375277D01*
X108250000Y-44400000D01*
X108947828Y-44400000D01*
X108947844Y-44399999D01*
X109007372Y-44393598D01*
X109007379Y-44393596D01*
X109142086Y-44343354D01*
X109142093Y-44343350D01*
X109257187Y-44257190D01*
X109257190Y-44257187D01*
X109343350Y-44142093D01*
X109343354Y-44142086D01*
X109393596Y-44007379D01*
X109393598Y-44007372D01*
X109399999Y-43947844D01*
X109400000Y-43947827D01*
X109400000Y-43769906D01*
X109419685Y-43702867D01*
X109472489Y-43657112D01*
X109541647Y-43647168D01*
X109605203Y-43676193D01*
X109624319Y-43697022D01*
X109662443Y-43749497D01*
X109790500Y-43877554D01*
X109790505Y-43877558D01*
X109887223Y-43947827D01*
X109937006Y-43983996D01*
X110042484Y-44037740D01*
X110098360Y-44066211D01*
X110098363Y-44066212D01*
X110184476Y-44094191D01*
X110270591Y-44122171D01*
X110353429Y-44135291D01*
X110449449Y-44150500D01*
X110449454Y-44150500D01*
X110630551Y-44150500D01*
X110717259Y-44136765D01*
X110809409Y-44122171D01*
X110981639Y-44066211D01*
X111142994Y-43983996D01*
X111289501Y-43877553D01*
X111417553Y-43749501D01*
X111523996Y-43602994D01*
X111606211Y-43441639D01*
X111662171Y-43269409D01*
X111677331Y-43173694D01*
X111690500Y-43090551D01*
X111690500Y-42909448D01*
X111665245Y-42750000D01*
X111662171Y-42730591D01*
X111606211Y-42558361D01*
X111606211Y-42558360D01*
X111565701Y-42478856D01*
X111523996Y-42397006D01*
X111510396Y-42378287D01*
X111417558Y-42250505D01*
X111417554Y-42250500D01*
X111289499Y-42122445D01*
X111289494Y-42122441D01*
X111142997Y-42016006D01*
X111142996Y-42016005D01*
X111142994Y-42016004D01*
X111091300Y-41989664D01*
X110981639Y-41933788D01*
X110981636Y-41933787D01*
X110809410Y-41877829D01*
X110630551Y-41849500D01*
X110630546Y-41849500D01*
X110449454Y-41849500D01*
X110449449Y-41849500D01*
X110270589Y-41877829D01*
X110098363Y-41933787D01*
X110098360Y-41933788D01*
X109937002Y-42016006D01*
X109790505Y-42122441D01*
X109790500Y-42122445D01*
X109662445Y-42250500D01*
X109662441Y-42250505D01*
X109624318Y-42302978D01*
X109568988Y-42345644D01*
X109499375Y-42351623D01*
X109437580Y-42319018D01*
X109403223Y-42258179D01*
X109400000Y-42230093D01*
X109400000Y-42052172D01*
X109399999Y-42052155D01*
X109393598Y-41992627D01*
X109393596Y-41992620D01*
X109343354Y-41857913D01*
X109343350Y-41857906D01*
X109257190Y-41742812D01*
X109257187Y-41742809D01*
X109142093Y-41656649D01*
X109142086Y-41656645D01*
X109007379Y-41606403D01*
X109007372Y-41606401D01*
X108947844Y-41600000D01*
X108250000Y-41600000D01*
X108250000Y-42624722D01*
X108173694Y-42580667D01*
X108059244Y-42550000D01*
X107940756Y-42550000D01*
X107826306Y-42580667D01*
X107750000Y-42624722D01*
X107750000Y-41600000D01*
X107052155Y-41600000D01*
X106992627Y-41606401D01*
X106992620Y-41606403D01*
X106857913Y-41656645D01*
X106857906Y-41656649D01*
X106742812Y-41742809D01*
X106742809Y-41742812D01*
X106656649Y-41857906D01*
X106656645Y-41857913D01*
X106606403Y-41992620D01*
X106606401Y-41992627D01*
X106600000Y-42052155D01*
X82638527Y-42052155D01*
X89788547Y-34902135D01*
X106949500Y-34902135D01*
X106949500Y-36097870D01*
X106949501Y-36097876D01*
X106955908Y-36157483D01*
X107006202Y-36292328D01*
X107006206Y-36292335D01*
X107092452Y-36407544D01*
X107092455Y-36407547D01*
X107207664Y-36493793D01*
X107207671Y-36493797D01*
X107342517Y-36544091D01*
X107342516Y-36544091D01*
X107349444Y-36544835D01*
X107402127Y-36550500D01*
X108597872Y-36550499D01*
X108657483Y-36544091D01*
X108792331Y-36493796D01*
X108907546Y-36407546D01*
X108993796Y-36292331D01*
X109044091Y-36157483D01*
X109046056Y-36139203D01*
X109072793Y-36074656D01*
X109081664Y-36064780D01*
X109600000Y-35546445D01*
X109600000Y-35552661D01*
X109627259Y-35654394D01*
X109679920Y-35745606D01*
X109754394Y-35820080D01*
X109845606Y-35872741D01*
X109947339Y-35900000D01*
X109953553Y-35900000D01*
X109274076Y-36579474D01*
X109318650Y-36611859D01*
X109500968Y-36704755D01*
X109695582Y-36767990D01*
X109897683Y-36800000D01*
X110102317Y-36800000D01*
X110304417Y-36767990D01*
X110499031Y-36704755D01*
X110681349Y-36611859D01*
X110725921Y-36579474D01*
X110046447Y-35900000D01*
X110052661Y-35900000D01*
X110154394Y-35872741D01*
X110245606Y-35820080D01*
X110320080Y-35745606D01*
X110372741Y-35654394D01*
X110400000Y-35552661D01*
X110400000Y-35546447D01*
X111079474Y-36225921D01*
X111111859Y-36181349D01*
X111204755Y-35999031D01*
X111267990Y-35804417D01*
X111300000Y-35602317D01*
X111300000Y-35397682D01*
X111267990Y-35195582D01*
X111204755Y-35000968D01*
X111111859Y-34818650D01*
X111079474Y-34774077D01*
X111079474Y-34774076D01*
X110400000Y-35453551D01*
X110400000Y-35447339D01*
X110372741Y-35345606D01*
X110320080Y-35254394D01*
X110245606Y-35179920D01*
X110154394Y-35127259D01*
X110052661Y-35100000D01*
X110046446Y-35100000D01*
X110725922Y-34420524D01*
X110725921Y-34420523D01*
X110681359Y-34388147D01*
X110681350Y-34388141D01*
X110499031Y-34295244D01*
X110304417Y-34232009D01*
X110102317Y-34200000D01*
X109897683Y-34200000D01*
X109695582Y-34232009D01*
X109500968Y-34295244D01*
X109318644Y-34388143D01*
X109274077Y-34420523D01*
X109274077Y-34420524D01*
X109953554Y-35100000D01*
X109947339Y-35100000D01*
X109845606Y-35127259D01*
X109754394Y-35179920D01*
X109679920Y-35254394D01*
X109627259Y-35345606D01*
X109600000Y-35447339D01*
X109600000Y-35453553D01*
X109081664Y-34935217D01*
X109048179Y-34873894D01*
X109046055Y-34860788D01*
X109044091Y-34842516D01*
X108993797Y-34707671D01*
X108993793Y-34707664D01*
X108907547Y-34592455D01*
X108907544Y-34592452D01*
X108873610Y-34567049D01*
X108792335Y-34506206D01*
X108792328Y-34506202D01*
X108657482Y-34455908D01*
X108657483Y-34455908D01*
X108597883Y-34449501D01*
X108597881Y-34449500D01*
X108597873Y-34449500D01*
X108597864Y-34449500D01*
X107402129Y-34449500D01*
X107402123Y-34449501D01*
X107342516Y-34455908D01*
X107207671Y-34506202D01*
X107207664Y-34506206D01*
X107092455Y-34592452D01*
X107092452Y-34592455D01*
X107006206Y-34707664D01*
X107006202Y-34707671D01*
X106955908Y-34842517D01*
X106949501Y-34902116D01*
X106949500Y-34902135D01*
X89788547Y-34902135D01*
X93576611Y-31114071D01*
X96899499Y-31114071D01*
X96924497Y-31239738D01*
X96924499Y-31239744D01*
X96973533Y-31358124D01*
X96973538Y-31358133D01*
X97044723Y-31464668D01*
X97044726Y-31464672D01*
X97135327Y-31555273D01*
X97135331Y-31555276D01*
X97241866Y-31626461D01*
X97241872Y-31626464D01*
X97241873Y-31626465D01*
X97360256Y-31675501D01*
X97360260Y-31675501D01*
X97360261Y-31675502D01*
X97485928Y-31700500D01*
X97485931Y-31700500D01*
X97614071Y-31700500D01*
X97706157Y-31682182D01*
X97739744Y-31675501D01*
X97858127Y-31626465D01*
X97964669Y-31555276D01*
X98055276Y-31464669D01*
X98126465Y-31358127D01*
X98175501Y-31239744D01*
X98198175Y-31125757D01*
X98200500Y-31114071D01*
X98200500Y-30985928D01*
X98175502Y-30860261D01*
X98175501Y-30860260D01*
X98175501Y-30860256D01*
X98132017Y-30755276D01*
X98126466Y-30741875D01*
X98126461Y-30741866D01*
X98055276Y-30635331D01*
X98055273Y-30635327D01*
X97964672Y-30544726D01*
X97964668Y-30544723D01*
X97858133Y-30473538D01*
X97858124Y-30473533D01*
X97739744Y-30424499D01*
X97739738Y-30424497D01*
X97614071Y-30399500D01*
X97614069Y-30399500D01*
X97485931Y-30399500D01*
X97485929Y-30399500D01*
X97360261Y-30424497D01*
X97360255Y-30424499D01*
X97241875Y-30473533D01*
X97241866Y-30473538D01*
X97135331Y-30544723D01*
X97135327Y-30544726D01*
X97044726Y-30635327D01*
X97044723Y-30635331D01*
X96973538Y-30741866D01*
X96973533Y-30741875D01*
X96924499Y-30860255D01*
X96924497Y-30860261D01*
X96899500Y-30985928D01*
X96899500Y-30985931D01*
X96899500Y-31114069D01*
X96899500Y-31114071D01*
X96899499Y-31114071D01*
X93576611Y-31114071D01*
X96688546Y-28002136D01*
X106549500Y-28002136D01*
X106549500Y-29997863D01*
X106549501Y-29997882D01*
X106555908Y-30057481D01*
X106606202Y-30192327D01*
X106606203Y-30192328D01*
X106606204Y-30192330D01*
X106692454Y-30307546D01*
X106807670Y-30393796D01*
X106807671Y-30393796D01*
X106807672Y-30393797D01*
X106942518Y-30444091D01*
X106942517Y-30444091D01*
X106949445Y-30444835D01*
X107002128Y-30450500D01*
X107002137Y-30450500D01*
X108997863Y-30450500D01*
X108997872Y-30450500D01*
X109057482Y-30444091D01*
X109192330Y-30393796D01*
X109307546Y-30307546D01*
X109393796Y-30192330D01*
X109444091Y-30057482D01*
X109450500Y-29997872D01*
X109450500Y-28002128D01*
X109444091Y-27942518D01*
X109414832Y-27864071D01*
X109393797Y-27807672D01*
X109393796Y-27807671D01*
X109393796Y-27807670D01*
X109307546Y-27692454D01*
X109192330Y-27606204D01*
X109192328Y-27606203D01*
X109192327Y-27606202D01*
X109057481Y-27555908D01*
X109057482Y-27555908D01*
X108997882Y-27549501D01*
X108997880Y-27549500D01*
X108997872Y-27549500D01*
X107002128Y-27549500D01*
X107002120Y-27549500D01*
X107002117Y-27549501D01*
X106942518Y-27555908D01*
X106807672Y-27606202D01*
X106807670Y-27606204D01*
X106692454Y-27692454D01*
X106606204Y-27807670D01*
X106606202Y-27807672D01*
X106555908Y-27942518D01*
X106549501Y-28002117D01*
X106549500Y-28002136D01*
X96688546Y-28002136D01*
X99063863Y-25626819D01*
X99125186Y-25593334D01*
X99151544Y-25590500D01*
X99227472Y-25590500D01*
X99227475Y-25590500D01*
X99367485Y-25552984D01*
X99493015Y-25480509D01*
X99595509Y-25378015D01*
X99667984Y-25252485D01*
X99705500Y-25112475D01*
X99705500Y-24967525D01*
X99667984Y-24827515D01*
X99638078Y-24775717D01*
X99595511Y-24701988D01*
X99595506Y-24701982D01*
X99493017Y-24599493D01*
X99493011Y-24599488D01*
X99367488Y-24527017D01*
X99367489Y-24527017D01*
X99356006Y-24523940D01*
X99227475Y-24489500D01*
X99082525Y-24489500D01*
X98953993Y-24523940D01*
X98942511Y-24527017D01*
X98816988Y-24599488D01*
X98816982Y-24599493D01*
X98714493Y-24701982D01*
X98714488Y-24701988D01*
X98642017Y-24827511D01*
X98642016Y-24827515D01*
X98604500Y-24967525D01*
X98604500Y-24967527D01*
X98604500Y-25043455D01*
X98584815Y-25110494D01*
X98568181Y-25131136D01*
X81389531Y-42309785D01*
X81389527Y-42309790D01*
X81379927Y-42326420D01*
X81379926Y-42326422D01*
X81343387Y-42389708D01*
X81343387Y-42389709D01*
X81319500Y-42478856D01*
X81319500Y-49256000D01*
X81299815Y-49323039D01*
X81247011Y-49368794D01*
X81177853Y-49378738D01*
X81122617Y-49356320D01*
X81107556Y-49345378D01*
X80918217Y-49248904D01*
X80716129Y-49183242D01*
X80506246Y-49150000D01*
X80293754Y-49150000D01*
X80083872Y-49183242D01*
X80083869Y-49183242D01*
X79881782Y-49248904D01*
X79692439Y-49345380D01*
X79638282Y-49384727D01*
X79638282Y-49384728D01*
X80270591Y-50017037D01*
X80207007Y-50034075D01*
X80092993Y-50099901D01*
X79999901Y-50192993D01*
X79934075Y-50307007D01*
X79917037Y-50370591D01*
X79284728Y-49738282D01*
X79284727Y-49738282D01*
X79245380Y-49792439D01*
X79148904Y-49981783D01*
X79116760Y-50080712D01*
X79077322Y-50138388D01*
X79012964Y-50165586D01*
X78944117Y-50153671D01*
X78892642Y-50106427D01*
X78880898Y-50080712D01*
X78879873Y-50077555D01*
X78801232Y-49923212D01*
X78699414Y-49783072D01*
X78576928Y-49660586D01*
X78436788Y-49558768D01*
X78282445Y-49480127D01*
X78117701Y-49426598D01*
X78117699Y-49426597D01*
X78117698Y-49426597D01*
X77986271Y-49405781D01*
X77946611Y-49399500D01*
X77773389Y-49399500D01*
X77733728Y-49405781D01*
X77602302Y-49426597D01*
X77437552Y-49480128D01*
X77283211Y-49558768D01*
X77218562Y-49605739D01*
X77143072Y-49660586D01*
X77143070Y-49660588D01*
X77143069Y-49660588D01*
X77020588Y-49783069D01*
X77020588Y-49783070D01*
X77020586Y-49783072D01*
X76991526Y-49823070D01*
X76918768Y-49923211D01*
X76840128Y-50077552D01*
X76786597Y-50242302D01*
X76759500Y-50413389D01*
X76759500Y-50586610D01*
X76786597Y-50757697D01*
X76786597Y-50757699D01*
X76786598Y-50757701D01*
X76832866Y-50900099D01*
X76840128Y-50922447D01*
X76918768Y-51076789D01*
X76942036Y-51108813D01*
X76965517Y-51174619D01*
X76949692Y-51242673D01*
X76899587Y-51291369D01*
X76841719Y-51305700D01*
X76338281Y-51305700D01*
X76271242Y-51286015D01*
X76225487Y-51233211D01*
X76215543Y-51164053D01*
X76237964Y-51108813D01*
X76261231Y-51076789D01*
X76261232Y-51076788D01*
X76339873Y-50922445D01*
X76393402Y-50757701D01*
X76420500Y-50586611D01*
X76420500Y-50413389D01*
X76393402Y-50242299D01*
X76339873Y-50077555D01*
X76261232Y-49923212D01*
X76159414Y-49783072D01*
X76036928Y-49660586D01*
X75896788Y-49558768D01*
X75742445Y-49480127D01*
X75577701Y-49426598D01*
X75577699Y-49426597D01*
X75577698Y-49426597D01*
X75446271Y-49405781D01*
X75406611Y-49399500D01*
X75233389Y-49399500D01*
X75193728Y-49405781D01*
X75062302Y-49426597D01*
X74897552Y-49480128D01*
X74743211Y-49558768D01*
X74678562Y-49605739D01*
X74603072Y-49660586D01*
X74603070Y-49660588D01*
X74603069Y-49660588D01*
X74480588Y-49783069D01*
X74480588Y-49783070D01*
X74480586Y-49783072D01*
X74451526Y-49823070D01*
X74378768Y-49923211D01*
X74300128Y-50077552D01*
X74246597Y-50242302D01*
X74219500Y-50413389D01*
X74219500Y-50586610D01*
X74246597Y-50757697D01*
X74246597Y-50757699D01*
X74246598Y-50757701D01*
X74292866Y-50900099D01*
X74300128Y-50922447D01*
X74378768Y-51076789D01*
X74402036Y-51108813D01*
X74425517Y-51174619D01*
X74409692Y-51242673D01*
X74359587Y-51291369D01*
X74301719Y-51305700D01*
X73798281Y-51305700D01*
X73731242Y-51286015D01*
X73685487Y-51233211D01*
X73675543Y-51164053D01*
X73697964Y-51108813D01*
X73721231Y-51076789D01*
X73721232Y-51076788D01*
X73799873Y-50922445D01*
X73853402Y-50757701D01*
X73880500Y-50586611D01*
X73880500Y-50413389D01*
X73853402Y-50242299D01*
X73799873Y-50077555D01*
X73721232Y-49923212D01*
X73619414Y-49783072D01*
X73496928Y-49660586D01*
X73356788Y-49558768D01*
X73202445Y-49480127D01*
X73037701Y-49426598D01*
X73037699Y-49426597D01*
X73037698Y-49426597D01*
X72906271Y-49405781D01*
X72866611Y-49399500D01*
X72693389Y-49399500D01*
X72653728Y-49405781D01*
X72522302Y-49426597D01*
X72357552Y-49480128D01*
X72203211Y-49558768D01*
X72138562Y-49605739D01*
X72063072Y-49660586D01*
X72063070Y-49660588D01*
X72063069Y-49660588D01*
X71940588Y-49783069D01*
X71940588Y-49783070D01*
X71940586Y-49783072D01*
X71911526Y-49823070D01*
X71838768Y-49923211D01*
X71760128Y-50077552D01*
X71706597Y-50242302D01*
X71679500Y-50413389D01*
X71679500Y-50586610D01*
X71706597Y-50757697D01*
X71706597Y-50757699D01*
X71706598Y-50757701D01*
X71752866Y-50900099D01*
X71760128Y-50922447D01*
X71838768Y-51076789D01*
X71862036Y-51108813D01*
X71885517Y-51174619D01*
X71869692Y-51242673D01*
X71819587Y-51291369D01*
X71761719Y-51305700D01*
X71258281Y-51305700D01*
X71191242Y-51286015D01*
X71145487Y-51233211D01*
X71135543Y-51164053D01*
X71157964Y-51108813D01*
X71181231Y-51076789D01*
X71181232Y-51076788D01*
X71259873Y-50922445D01*
X71313402Y-50757701D01*
X71340500Y-50586611D01*
X71340500Y-50413389D01*
X71313402Y-50242299D01*
X71259873Y-50077555D01*
X71259869Y-50077547D01*
X71258401Y-50073029D01*
X71256406Y-50003188D01*
X71288649Y-49947031D01*
X76870470Y-44365212D01*
X76916614Y-44285288D01*
X76921751Y-44266115D01*
X76922491Y-44263356D01*
X76925712Y-44251328D01*
X76940500Y-44196144D01*
X76940500Y-36503999D01*
X76960185Y-36436960D01*
X77012989Y-36391205D01*
X77082147Y-36381261D01*
X77137386Y-36403681D01*
X77152445Y-36414622D01*
X77341782Y-36511095D01*
X77543870Y-36576757D01*
X77753754Y-36610000D01*
X77966246Y-36610000D01*
X78176127Y-36576757D01*
X78176130Y-36576757D01*
X78378217Y-36511095D01*
X78567554Y-36414622D01*
X78621716Y-36375270D01*
X78621717Y-36375270D01*
X77989409Y-35742962D01*
X78052993Y-35725925D01*
X78167007Y-35660099D01*
X78260099Y-35567007D01*
X78325925Y-35452993D01*
X78342962Y-35389408D01*
X78975270Y-36021717D01*
X78975270Y-36021716D01*
X79014622Y-35967554D01*
X79111096Y-35778215D01*
X79143239Y-35679288D01*
X79182676Y-35621612D01*
X79247034Y-35594413D01*
X79315880Y-35606327D01*
X79367357Y-35653571D01*
X79379100Y-35679284D01*
X79380127Y-35682446D01*
X79424608Y-35769745D01*
X79458768Y-35836788D01*
X79560586Y-35976928D01*
X79683072Y-36099414D01*
X79823212Y-36201232D01*
X79977555Y-36279873D01*
X80142299Y-36333402D01*
X80313389Y-36360500D01*
X80313390Y-36360500D01*
X80486610Y-36360500D01*
X80486611Y-36360500D01*
X80657701Y-36333402D01*
X80822445Y-36279873D01*
X80976788Y-36201232D01*
X81116928Y-36099414D01*
X81239414Y-35976928D01*
X81341232Y-35836788D01*
X81419873Y-35682445D01*
X81473402Y-35517701D01*
X81500500Y-35346611D01*
X81500500Y-35173389D01*
X81839500Y-35173389D01*
X81839500Y-35346610D01*
X81866597Y-35517697D01*
X81866597Y-35517699D01*
X81866598Y-35517701D01*
X81920127Y-35682445D01*
X81998768Y-35836788D01*
X82100586Y-35976928D01*
X82223072Y-36099414D01*
X82363212Y-36201232D01*
X82517555Y-36279873D01*
X82682299Y-36333402D01*
X82853389Y-36360500D01*
X82853390Y-36360500D01*
X83026610Y-36360500D01*
X83026611Y-36360500D01*
X83197701Y-36333402D01*
X83362445Y-36279873D01*
X83516788Y-36201232D01*
X83656928Y-36099414D01*
X83779414Y-35976928D01*
X83881232Y-35836788D01*
X83959873Y-35682445D01*
X84013402Y-35517701D01*
X84040500Y-35346611D01*
X84040500Y-35173389D01*
X84013402Y-35002299D01*
X83959873Y-34837555D01*
X83881232Y-34683212D01*
X83779414Y-34543072D01*
X83656928Y-34420586D01*
X83608390Y-34385321D01*
X84379500Y-34385321D01*
X84379500Y-36134678D01*
X84394032Y-36207735D01*
X84394033Y-36207739D01*
X84394034Y-36207740D01*
X84449399Y-36290601D01*
X84515342Y-36334662D01*
X84532260Y-36345966D01*
X84532264Y-36345967D01*
X84605321Y-36360499D01*
X84605324Y-36360500D01*
X84605326Y-36360500D01*
X86354676Y-36360500D01*
X86354677Y-36360499D01*
X86427740Y-36345966D01*
X86510601Y-36290601D01*
X86565966Y-36207740D01*
X86580500Y-36134674D01*
X86580500Y-34385326D01*
X86580500Y-34385323D01*
X86580499Y-34385321D01*
X86565967Y-34312264D01*
X86565966Y-34312260D01*
X86540716Y-34274470D01*
X86510601Y-34229399D01*
X86427740Y-34174034D01*
X86427739Y-34174033D01*
X86427735Y-34174032D01*
X86354677Y-34159500D01*
X86354674Y-34159500D01*
X84605326Y-34159500D01*
X84605323Y-34159500D01*
X84532264Y-34174032D01*
X84532260Y-34174033D01*
X84449399Y-34229399D01*
X84394033Y-34312260D01*
X84394032Y-34312264D01*
X84379500Y-34385321D01*
X83608390Y-34385321D01*
X83516788Y-34318768D01*
X83362445Y-34240127D01*
X83197701Y-34186598D01*
X83197699Y-34186597D01*
X83197698Y-34186597D01*
X83066271Y-34165781D01*
X83026611Y-34159500D01*
X82853389Y-34159500D01*
X82813728Y-34165781D01*
X82682302Y-34186597D01*
X82517552Y-34240128D01*
X82363211Y-34318768D01*
X82300452Y-34364366D01*
X82223072Y-34420586D01*
X82223070Y-34420588D01*
X82223069Y-34420588D01*
X82100588Y-34543069D01*
X82100588Y-34543070D01*
X82100586Y-34543072D01*
X82064709Y-34592452D01*
X81998768Y-34683211D01*
X81920128Y-34837552D01*
X81866597Y-35002302D01*
X81839500Y-35173389D01*
X81500500Y-35173389D01*
X81473402Y-35002299D01*
X81419873Y-34837555D01*
X81341232Y-34683212D01*
X81239414Y-34543072D01*
X81116928Y-34420586D01*
X80976788Y-34318768D01*
X80822445Y-34240127D01*
X80657701Y-34186598D01*
X80657699Y-34186597D01*
X80657698Y-34186597D01*
X80526271Y-34165781D01*
X80486611Y-34159500D01*
X80313389Y-34159500D01*
X80273728Y-34165781D01*
X80142302Y-34186597D01*
X79977552Y-34240128D01*
X79823211Y-34318768D01*
X79760452Y-34364366D01*
X79683072Y-34420586D01*
X79683070Y-34420588D01*
X79683069Y-34420588D01*
X79560588Y-34543069D01*
X79560588Y-34543070D01*
X79560586Y-34543072D01*
X79524709Y-34592452D01*
X79458768Y-34683211D01*
X79380128Y-34837550D01*
X79379099Y-34840720D01*
X79378381Y-34841769D01*
X79378266Y-34842048D01*
X79378207Y-34842023D01*
X79339657Y-34898393D01*
X79275297Y-34925587D01*
X79206451Y-34913668D01*
X79154979Y-34866420D01*
X79143239Y-34840711D01*
X79111096Y-34741784D01*
X79014624Y-34552449D01*
X78975270Y-34498282D01*
X78975269Y-34498282D01*
X78342962Y-35130590D01*
X78325925Y-35067007D01*
X78260099Y-34952993D01*
X78167007Y-34859901D01*
X78052993Y-34794075D01*
X77989407Y-34777036D01*
X78621716Y-34144728D01*
X78567550Y-34105375D01*
X78378216Y-34008904D01*
X78262462Y-33971293D01*
X78204786Y-33931855D01*
X78177588Y-33867497D01*
X78189503Y-33798650D01*
X78213093Y-33765688D01*
X89757163Y-22221619D01*
X89818486Y-22188134D01*
X89844844Y-22185300D01*
X99171714Y-22185300D01*
X99238753Y-22204985D01*
X99259395Y-22221619D01*
X99313085Y-22275309D01*
X99313086Y-22275310D01*
X99313088Y-22275311D01*
X99438611Y-22347782D01*
X99438612Y-22347782D01*
X99438615Y-22347784D01*
X99578625Y-22385300D01*
X99578628Y-22385300D01*
X99723572Y-22385300D01*
X99723575Y-22385300D01*
X99863585Y-22347784D01*
X99989115Y-22275309D01*
X100091609Y-22172815D01*
X100164084Y-22047285D01*
X100201600Y-21907275D01*
X100201600Y-21762325D01*
X100164084Y-21622315D01*
X100139242Y-21579288D01*
X100091611Y-21496788D01*
X100091606Y-21496782D01*
X99989117Y-21394293D01*
X99989111Y-21394288D01*
X99863588Y-21321817D01*
X99863589Y-21321817D01*
X99852106Y-21318740D01*
X99723575Y-21284300D01*
X99578625Y-21284300D01*
X99450093Y-21318740D01*
X99438611Y-21321817D01*
X99313088Y-21394288D01*
X99313082Y-21394293D01*
X99259395Y-21447981D01*
X99198072Y-21481466D01*
X99171714Y-21484300D01*
X89932544Y-21484300D01*
X89865505Y-21464615D01*
X89819750Y-21411811D01*
X89809806Y-21342653D01*
X89838831Y-21279097D01*
X89844863Y-21272619D01*
X90059871Y-21057611D01*
X90344970Y-20772512D01*
X90391114Y-20692588D01*
X90398004Y-20666873D01*
X90415000Y-20603444D01*
X90415000Y-18754071D01*
X102349499Y-18754071D01*
X102374497Y-18879738D01*
X102374499Y-18879744D01*
X102423533Y-18998124D01*
X102423538Y-18998133D01*
X102494723Y-19104668D01*
X102494726Y-19104672D01*
X102585327Y-19195273D01*
X102585331Y-19195276D01*
X102691866Y-19266461D01*
X102691872Y-19266464D01*
X102691873Y-19266465D01*
X102810256Y-19315501D01*
X102810260Y-19315501D01*
X102810261Y-19315502D01*
X102935928Y-19340500D01*
X102935931Y-19340500D01*
X103064071Y-19340500D01*
X103148615Y-19323682D01*
X103189744Y-19315501D01*
X103308127Y-19266465D01*
X103414669Y-19195276D01*
X103505276Y-19104669D01*
X103576465Y-18998127D01*
X103625501Y-18879744D01*
X103650500Y-18754069D01*
X103650500Y-18625931D01*
X103650500Y-18625928D01*
X103625502Y-18500261D01*
X103625501Y-18500260D01*
X103625501Y-18500256D01*
X103585463Y-18403595D01*
X103576466Y-18381875D01*
X103576461Y-18381866D01*
X103505276Y-18275331D01*
X103505273Y-18275327D01*
X103414672Y-18184726D01*
X103414668Y-18184723D01*
X103308133Y-18113538D01*
X103308124Y-18113533D01*
X103189744Y-18064499D01*
X103189738Y-18064497D01*
X103064071Y-18039500D01*
X103064069Y-18039500D01*
X102935931Y-18039500D01*
X102935929Y-18039500D01*
X102810261Y-18064497D01*
X102810255Y-18064499D01*
X102691875Y-18113533D01*
X102691866Y-18113538D01*
X102585331Y-18184723D01*
X102585327Y-18184726D01*
X102494726Y-18275327D01*
X102494723Y-18275331D01*
X102423538Y-18381866D01*
X102423533Y-18381875D01*
X102374499Y-18500255D01*
X102374497Y-18500261D01*
X102349500Y-18625928D01*
X102349500Y-18625931D01*
X102349500Y-18754069D01*
X102349500Y-18754071D01*
X102349499Y-18754071D01*
X90415000Y-18754071D01*
X90415000Y-15405286D01*
X90434685Y-15338247D01*
X90451319Y-15317605D01*
X90505009Y-15263915D01*
X90577484Y-15138385D01*
X90615000Y-14998375D01*
X90615000Y-14853425D01*
X90577484Y-14713415D01*
X90518995Y-14612110D01*
X90505011Y-14587888D01*
X90505006Y-14587882D01*
X90402517Y-14485393D01*
X90402511Y-14485388D01*
X90276988Y-14412917D01*
X90276989Y-14412917D01*
X90265506Y-14409840D01*
X90136975Y-14375400D01*
X89992025Y-14375400D01*
X89863493Y-14409840D01*
X89852011Y-14412917D01*
X89726488Y-14485388D01*
X89726482Y-14485393D01*
X89623993Y-14587882D01*
X89623988Y-14587888D01*
X89551517Y-14713411D01*
X89551516Y-14713415D01*
X89514000Y-14853425D01*
X89514000Y-14998375D01*
X89551516Y-15138385D01*
X89551517Y-15138388D01*
X89623988Y-15263911D01*
X89623993Y-15263917D01*
X89677681Y-15317605D01*
X89711166Y-15378928D01*
X89714000Y-15405286D01*
X89714000Y-20360756D01*
X89694315Y-20427795D01*
X89677681Y-20448437D01*
X87599137Y-22526981D01*
X87537814Y-22560466D01*
X87511456Y-22563300D01*
X87435525Y-22563300D01*
X87306993Y-22597740D01*
X87295511Y-22600817D01*
X87169988Y-22673288D01*
X87169982Y-22673293D01*
X87067493Y-22775782D01*
X87067488Y-22775788D01*
X86995017Y-22901311D01*
X86995016Y-22901315D01*
X86957500Y-23041325D01*
X86957500Y-23186275D01*
X86995016Y-23326285D01*
X86995017Y-23326288D01*
X87067488Y-23451811D01*
X87067490Y-23451813D01*
X87067491Y-23451815D01*
X87169985Y-23554309D01*
X87186797Y-23564015D01*
X87196850Y-23569820D01*
X87245064Y-23620388D01*
X87258286Y-23688995D01*
X87232317Y-23753859D01*
X87222529Y-23764887D01*
X76525626Y-34461790D01*
X76464303Y-34495275D01*
X76436380Y-34497172D01*
X75802962Y-35130590D01*
X75785925Y-35067007D01*
X75720099Y-34952993D01*
X75627007Y-34859901D01*
X75512993Y-34794075D01*
X75449408Y-34777037D01*
X76081716Y-34144728D01*
X76027550Y-34105375D01*
X75838217Y-34008904D01*
X75636129Y-33943242D01*
X75426246Y-33910000D01*
X75213754Y-33910000D01*
X75003872Y-33943242D01*
X75003865Y-33943243D01*
X74885630Y-33981660D01*
X74815789Y-33983655D01*
X74755957Y-33947574D01*
X74725129Y-33884873D01*
X74733094Y-33815459D01*
X74759629Y-33776051D01*
X77269470Y-31266212D01*
X77315614Y-31186288D01*
X77331833Y-31125756D01*
X77339500Y-31097144D01*
X77339500Y-23062956D01*
X77315614Y-22973812D01*
X77315611Y-22973806D01*
X77269473Y-22893894D01*
X77269470Y-22893891D01*
X77269469Y-22893888D01*
X77204212Y-22828631D01*
X75107812Y-20732230D01*
X75107811Y-20732229D01*
X75107808Y-20732227D01*
X75027890Y-20686087D01*
X75027889Y-20686086D01*
X75027888Y-20686086D01*
X74938744Y-20662200D01*
X74938743Y-20662200D01*
X66014886Y-20662200D01*
X65947847Y-20642515D01*
X65927205Y-20625881D01*
X65873517Y-20572193D01*
X65873515Y-20572191D01*
X65839484Y-20552543D01*
X65791270Y-20501977D01*
X65778046Y-20433370D01*
X65804014Y-20368506D01*
X65813796Y-20357484D01*
X70668162Y-15503119D01*
X70729485Y-15469634D01*
X70755843Y-15466800D01*
X73239714Y-15466800D01*
X73306753Y-15486485D01*
X73327395Y-15503119D01*
X73381085Y-15556809D01*
X73381086Y-15556810D01*
X73381088Y-15556811D01*
X73506611Y-15629282D01*
X73506612Y-15629282D01*
X73506615Y-15629284D01*
X73646625Y-15666800D01*
X73646628Y-15666800D01*
X73791572Y-15666800D01*
X73791575Y-15666800D01*
X73931585Y-15629284D01*
X74057115Y-15556809D01*
X74159609Y-15454315D01*
X74232084Y-15328785D01*
X74269600Y-15188775D01*
X74269600Y-15043825D01*
X74232084Y-14903815D01*
X74202992Y-14853427D01*
X74159611Y-14778288D01*
X74159606Y-14778282D01*
X74057117Y-14675793D01*
X74057111Y-14675788D01*
X73931588Y-14603317D01*
X73931589Y-14603317D01*
X73920106Y-14600240D01*
X73791575Y-14565800D01*
X73646625Y-14565800D01*
X73518093Y-14600240D01*
X73506611Y-14603317D01*
X73381088Y-14675788D01*
X73381082Y-14675793D01*
X73327395Y-14729481D01*
X73266072Y-14762966D01*
X73239714Y-14765800D01*
X70513156Y-14765800D01*
X70424012Y-14789686D01*
X70424011Y-14789686D01*
X70424009Y-14789687D01*
X70424006Y-14789688D01*
X70344094Y-14835826D01*
X70344085Y-14835833D01*
X64288331Y-20891586D01*
X64288327Y-20891591D01*
X64263375Y-20934811D01*
X64263375Y-20934812D01*
X64242186Y-20971510D01*
X64218300Y-21060656D01*
X64218300Y-23958314D01*
X64198615Y-24025353D01*
X64181981Y-24045995D01*
X64128293Y-24099682D01*
X64128287Y-24099691D01*
X64075737Y-24190708D01*
X64025170Y-24238923D01*
X63956563Y-24252145D01*
X63891698Y-24226177D01*
X63880670Y-24216388D01*
X60475019Y-20810737D01*
X60441534Y-20749414D01*
X60438700Y-20723056D01*
X60438700Y-20647127D01*
X60438700Y-20647125D01*
X60401184Y-20507115D01*
X60355388Y-20427795D01*
X60328711Y-20381588D01*
X60328706Y-20381582D01*
X60226217Y-20279093D01*
X60226211Y-20279088D01*
X60100688Y-20206617D01*
X60100689Y-20206617D01*
X60089206Y-20203540D01*
X59960675Y-20169100D01*
X59815725Y-20169100D01*
X59687193Y-20203540D01*
X59675711Y-20206617D01*
X59550188Y-20279088D01*
X59550182Y-20279093D01*
X59447693Y-20381582D01*
X59447688Y-20381588D01*
X59375217Y-20507111D01*
X59375216Y-20507115D01*
X59337700Y-20647125D01*
X59337700Y-20792075D01*
X59364365Y-20891588D01*
X59375217Y-20932088D01*
X59447688Y-21057611D01*
X59447690Y-21057613D01*
X59447691Y-21057615D01*
X59550185Y-21160109D01*
X59550186Y-21160110D01*
X59550188Y-21160111D01*
X59675711Y-21232582D01*
X59675712Y-21232582D01*
X59675715Y-21232584D01*
X59815725Y-21270100D01*
X59891656Y-21270100D01*
X59958695Y-21289785D01*
X59979337Y-21306419D01*
X60340644Y-21667726D01*
X60374129Y-21729049D01*
X60369145Y-21798741D01*
X60327273Y-21854674D01*
X60314964Y-21862793D01*
X60241191Y-21905386D01*
X60241182Y-21905393D01*
X60138693Y-22007882D01*
X60138688Y-22007888D01*
X60066217Y-22133411D01*
X60066216Y-22133415D01*
X60028700Y-22273425D01*
X60028700Y-22418375D01*
X60063620Y-22548697D01*
X60066217Y-22558388D01*
X60138688Y-22683911D01*
X60138693Y-22683917D01*
X60192381Y-22737605D01*
X60225866Y-22798928D01*
X60228700Y-22825286D01*
X60228700Y-26157655D01*
X60209015Y-26224694D01*
X60192381Y-26245336D01*
X58656231Y-27781486D01*
X58594908Y-27814971D01*
X58525216Y-27809987D01*
X58469283Y-27768115D01*
X58446933Y-27717997D01*
X58425502Y-27610261D01*
X58425501Y-27610260D01*
X58425501Y-27610256D01*
X58376465Y-27491873D01*
X58376464Y-27491872D01*
X58376461Y-27491866D01*
X58305276Y-27385331D01*
X58305273Y-27385327D01*
X58214672Y-27294726D01*
X58214668Y-27294723D01*
X58108133Y-27223538D01*
X58108124Y-27223533D01*
X57989744Y-27174499D01*
X57989738Y-27174497D01*
X57864071Y-27149500D01*
X57864069Y-27149500D01*
X57735931Y-27149500D01*
X57735929Y-27149500D01*
X57610261Y-27174497D01*
X57610255Y-27174499D01*
X57491875Y-27223533D01*
X57491866Y-27223538D01*
X57385331Y-27294723D01*
X57385327Y-27294726D01*
X57294726Y-27385327D01*
X57294723Y-27385331D01*
X57223538Y-27491866D01*
X57223533Y-27491875D01*
X57174499Y-27610255D01*
X57174497Y-27610261D01*
X57149500Y-27735928D01*
X57149500Y-27735931D01*
X57149500Y-27864069D01*
X57149500Y-27864071D01*
X57149499Y-27864071D01*
X57174497Y-27989738D01*
X57174499Y-27989744D01*
X57223533Y-28108124D01*
X57223538Y-28108133D01*
X57294723Y-28214668D01*
X57294726Y-28214672D01*
X57385327Y-28305273D01*
X57385331Y-28305276D01*
X57491866Y-28376461D01*
X57491872Y-28376464D01*
X57491873Y-28376465D01*
X57610256Y-28425501D01*
X57610260Y-28425501D01*
X57610261Y-28425502D01*
X57717997Y-28446933D01*
X57779908Y-28479318D01*
X57814482Y-28540034D01*
X57810741Y-28609804D01*
X57781487Y-28656230D01*
X57683435Y-28754282D01*
X57622115Y-28787766D01*
X57595756Y-28790600D01*
X57519825Y-28790600D01*
X57391293Y-28825040D01*
X57379811Y-28828117D01*
X57254288Y-28900588D01*
X57254282Y-28900593D01*
X57151793Y-29003082D01*
X57151786Y-29003091D01*
X57125335Y-29048906D01*
X57074768Y-29097121D01*
X57006161Y-29110343D01*
X56941296Y-29084375D01*
X56930268Y-29074586D01*
X46609753Y-18754071D01*
X63849499Y-18754071D01*
X63874497Y-18879738D01*
X63874499Y-18879744D01*
X63923533Y-18998124D01*
X63923538Y-18998133D01*
X63994723Y-19104668D01*
X63994726Y-19104672D01*
X64085327Y-19195273D01*
X64085331Y-19195276D01*
X64191866Y-19266461D01*
X64191872Y-19266464D01*
X64191873Y-19266465D01*
X64310256Y-19315501D01*
X64310260Y-19315501D01*
X64310261Y-19315502D01*
X64435928Y-19340500D01*
X64435931Y-19340500D01*
X64564071Y-19340500D01*
X64648615Y-19323682D01*
X64689744Y-19315501D01*
X64808127Y-19266465D01*
X64914669Y-19195276D01*
X65005276Y-19104669D01*
X65076465Y-18998127D01*
X65125501Y-18879744D01*
X65150500Y-18754069D01*
X65150500Y-18625931D01*
X65150500Y-18625928D01*
X65125502Y-18500261D01*
X65125501Y-18500260D01*
X65125501Y-18500256D01*
X65085463Y-18403595D01*
X65076466Y-18381875D01*
X65076461Y-18381866D01*
X65005276Y-18275331D01*
X65005273Y-18275327D01*
X64914672Y-18184726D01*
X64914668Y-18184723D01*
X64808133Y-18113538D01*
X64808124Y-18113533D01*
X64689744Y-18064499D01*
X64689738Y-18064497D01*
X64564071Y-18039500D01*
X64564069Y-18039500D01*
X64435931Y-18039500D01*
X64435929Y-18039500D01*
X64310261Y-18064497D01*
X64310255Y-18064499D01*
X64191875Y-18113533D01*
X64191866Y-18113538D01*
X64085331Y-18184723D01*
X64085327Y-18184726D01*
X63994726Y-18275327D01*
X63994723Y-18275331D01*
X63923538Y-18381866D01*
X63923533Y-18381875D01*
X63874499Y-18500255D01*
X63874497Y-18500261D01*
X63849500Y-18625928D01*
X63849500Y-18625931D01*
X63849500Y-18754069D01*
X63849500Y-18754071D01*
X63849499Y-18754071D01*
X46609753Y-18754071D01*
X44624513Y-16768831D01*
X44624508Y-16768827D01*
X44544588Y-16722686D01*
X44544586Y-16722685D01*
X44540748Y-16721656D01*
X44540748Y-16721657D01*
X44504694Y-16711996D01*
X44455444Y-16698800D01*
X36120656Y-16698800D01*
X36035352Y-16721657D01*
X36035351Y-16721656D01*
X36031513Y-16722685D01*
X36031511Y-16722686D01*
X35951591Y-16768827D01*
X35951586Y-16768831D01*
X34970031Y-17750386D01*
X34970027Y-17750391D01*
X34925517Y-17827487D01*
X34923887Y-17830309D01*
X34923886Y-17830312D01*
X34900000Y-17919456D01*
X34900000Y-18315914D01*
X34880315Y-18382953D01*
X34863681Y-18403595D01*
X34809993Y-18457282D01*
X34809988Y-18457288D01*
X34737517Y-18582811D01*
X34737516Y-18582815D01*
X34700000Y-18722825D01*
X34700000Y-18867775D01*
X34734928Y-18998127D01*
X34737517Y-19007788D01*
X34809988Y-19133311D01*
X34809990Y-19133313D01*
X34809991Y-19133315D01*
X34912485Y-19235809D01*
X34912486Y-19235810D01*
X34912488Y-19235811D01*
X35038011Y-19308282D01*
X35038012Y-19308282D01*
X35038015Y-19308284D01*
X35178025Y-19345800D01*
X35178028Y-19345800D01*
X35322972Y-19345800D01*
X35322975Y-19345800D01*
X35462985Y-19308284D01*
X35588515Y-19235809D01*
X35691009Y-19133315D01*
X35763484Y-19007785D01*
X35801000Y-18867775D01*
X35801000Y-18722825D01*
X35763484Y-18582815D01*
X35719252Y-18506204D01*
X35691011Y-18457288D01*
X35691006Y-18457282D01*
X35637319Y-18403595D01*
X35603834Y-18342272D01*
X35601000Y-18315914D01*
X35601000Y-18162143D01*
X35620685Y-18095104D01*
X35637310Y-18074471D01*
X35799949Y-17911832D01*
X35861268Y-17878350D01*
X35930959Y-17883334D01*
X35986893Y-17925205D01*
X35995013Y-17937515D01*
X36037391Y-18010915D01*
X36139885Y-18113409D01*
X36139886Y-18113410D01*
X36139888Y-18113411D01*
X36265411Y-18185882D01*
X36265412Y-18185882D01*
X36265415Y-18185884D01*
X36405425Y-18223400D01*
X36405428Y-18223400D01*
X36550372Y-18223400D01*
X36550375Y-18223400D01*
X36690385Y-18185884D01*
X36815915Y-18113409D01*
X36869605Y-18059719D01*
X36930928Y-18026234D01*
X36957286Y-18023400D01*
X40812556Y-18023400D01*
X40879595Y-18043085D01*
X40900237Y-18059719D01*
X50614537Y-27774019D01*
X50648022Y-27835342D01*
X50643038Y-27905034D01*
X50601166Y-27960967D01*
X50535702Y-27985384D01*
X50526856Y-27985700D01*
X45792044Y-27985700D01*
X45725005Y-27966015D01*
X45704363Y-27949381D01*
X43799113Y-26044131D01*
X43799108Y-26044127D01*
X43719190Y-25997987D01*
X43719189Y-25997986D01*
X43719188Y-25997986D01*
X43630044Y-25974100D01*
X35956256Y-25974100D01*
X35867112Y-25997986D01*
X35867109Y-25997987D01*
X35787191Y-26044127D01*
X35787186Y-26044131D01*
X35333837Y-26497481D01*
X35272514Y-26530966D01*
X35246156Y-26533800D01*
X35170225Y-26533800D01*
X35041693Y-26568240D01*
X35030211Y-26571317D01*
X34904688Y-26643788D01*
X34904682Y-26643793D01*
X34802193Y-26746282D01*
X34802188Y-26746288D01*
X34729717Y-26871811D01*
X34729716Y-26871815D01*
X34692200Y-27011825D01*
X34692200Y-27156775D01*
X34729164Y-27294724D01*
X34729717Y-27296788D01*
X34802188Y-27422311D01*
X34802190Y-27422313D01*
X34802191Y-27422315D01*
X34904685Y-27524809D01*
X34904686Y-27524810D01*
X34904688Y-27524811D01*
X35030211Y-27597282D01*
X35030212Y-27597282D01*
X35030215Y-27597284D01*
X35170225Y-27634800D01*
X35170228Y-27634800D01*
X35315172Y-27634800D01*
X35315175Y-27634800D01*
X35455185Y-27597284D01*
X35580715Y-27524809D01*
X35683209Y-27422315D01*
X35755684Y-27296785D01*
X35766921Y-27254846D01*
X35803284Y-27195187D01*
X35866130Y-27164657D01*
X35935506Y-27172951D01*
X35989384Y-27217435D01*
X35994082Y-27224939D01*
X36044991Y-27313115D01*
X36147485Y-27415609D01*
X36147486Y-27415610D01*
X36147488Y-27415611D01*
X36273011Y-27488082D01*
X36273012Y-27488082D01*
X36273015Y-27488084D01*
X36413025Y-27525600D01*
X36488956Y-27525600D01*
X36555995Y-27545285D01*
X36576637Y-27561919D01*
X39315087Y-30300369D01*
X39391058Y-30344231D01*
X39395012Y-30346514D01*
X39484156Y-30370400D01*
X39484158Y-30370400D01*
X47801641Y-30370400D01*
X47801644Y-30370400D01*
X47818908Y-30365774D01*
X47888756Y-30367437D01*
X47946619Y-30406599D01*
X47974123Y-30470828D01*
X47975000Y-30485549D01*
X47975000Y-30750000D01*
X48719670Y-30750000D01*
X48699925Y-30769745D01*
X48650556Y-30855255D01*
X48625000Y-30950630D01*
X48625000Y-31049370D01*
X48650556Y-31144745D01*
X48699925Y-31230255D01*
X48719670Y-31250000D01*
X47975000Y-31250000D01*
X47975000Y-31797844D01*
X47981401Y-31857372D01*
X47981403Y-31857379D01*
X48031645Y-31992086D01*
X48031649Y-31992093D01*
X48117809Y-32107187D01*
X48117812Y-32107190D01*
X48232906Y-32193350D01*
X48232913Y-32193354D01*
X48367620Y-32243596D01*
X48367627Y-32243598D01*
X48427155Y-32249999D01*
X48427172Y-32250000D01*
X48750000Y-32250000D01*
X48750000Y-31280330D01*
X48769745Y-31300075D01*
X48855255Y-31349444D01*
X48950630Y-31375000D01*
X49049370Y-31375000D01*
X49144745Y-31349444D01*
X49230255Y-31300075D01*
X49250000Y-31280330D01*
X49250000Y-32250000D01*
X49572828Y-32250000D01*
X49572844Y-32249999D01*
X49632372Y-32243598D01*
X49632379Y-32243596D01*
X49767086Y-32193354D01*
X49767093Y-32193350D01*
X49882186Y-32107191D01*
X49945243Y-32022958D01*
X50001177Y-31981087D01*
X50068700Y-31975652D01*
X50193618Y-32000499D01*
X50193619Y-32000500D01*
X50193620Y-32000500D01*
X50346381Y-32000500D01*
X50346382Y-32000499D01*
X50496205Y-31970698D01*
X50637337Y-31912239D01*
X50764352Y-31827370D01*
X50764355Y-31827367D01*
X50817319Y-31774404D01*
X50878642Y-31740919D01*
X50948334Y-31745903D01*
X50992681Y-31774404D01*
X51045644Y-31827367D01*
X51045648Y-31827370D01*
X51172656Y-31912235D01*
X51172662Y-31912238D01*
X51172663Y-31912239D01*
X51313795Y-31970698D01*
X51463615Y-32000499D01*
X51463619Y-32000500D01*
X51463620Y-32000500D01*
X51616381Y-32000500D01*
X51616382Y-32000499D01*
X51766205Y-31970698D01*
X51907337Y-31912239D01*
X52034352Y-31827370D01*
X52142370Y-31719352D01*
X52227239Y-31592337D01*
X52285698Y-31451205D01*
X52315500Y-31301380D01*
X52315500Y-30910543D01*
X52335185Y-30843504D01*
X52387989Y-30797749D01*
X52457147Y-30787805D01*
X52520703Y-30816830D01*
X52527171Y-30822852D01*
X52676404Y-30972085D01*
X52985081Y-31280762D01*
X53018566Y-31342085D01*
X53021400Y-31368443D01*
X53021400Y-46378044D01*
X53036337Y-46433787D01*
X53045286Y-46467187D01*
X53045287Y-46467190D01*
X53091427Y-46547108D01*
X53091431Y-46547113D01*
X55732137Y-49187819D01*
X55765622Y-49249142D01*
X55760638Y-49318834D01*
X55718766Y-49374767D01*
X55653302Y-49399184D01*
X55644456Y-49399500D01*
X54125323Y-49399500D01*
X54052264Y-49414032D01*
X54052260Y-49414033D01*
X53969399Y-49469399D01*
X53914033Y-49552260D01*
X53914032Y-49552264D01*
X53899500Y-49625321D01*
X53899500Y-49756156D01*
X53879815Y-49823195D01*
X53827011Y-49868950D01*
X53757853Y-49878894D01*
X53694297Y-49849869D01*
X53687819Y-49843837D01*
X43150213Y-39306231D01*
X43150208Y-39306227D01*
X43070290Y-39260087D01*
X43070289Y-39260086D01*
X43070288Y-39260086D01*
X42981144Y-39236200D01*
X42981143Y-39236200D01*
X34865386Y-39236200D01*
X34798347Y-39216515D01*
X34777705Y-39199881D01*
X34772819Y-39194995D01*
X34739334Y-39133672D01*
X34736500Y-39107314D01*
X34736500Y-35563258D01*
X34736500Y-35563256D01*
X34712614Y-35474112D01*
X34689542Y-35434150D01*
X34666472Y-35394191D01*
X34666468Y-35394186D01*
X33959046Y-34686763D01*
X33925561Y-34625440D01*
X33930545Y-34555748D01*
X33943625Y-34530191D01*
X33989329Y-34461790D01*
X34028703Y-34402863D01*
X34092816Y-34248082D01*
X34125500Y-34083767D01*
X34125500Y-33916233D01*
X34092816Y-33751918D01*
X34028703Y-33597137D01*
X33997537Y-33550494D01*
X33935626Y-33457837D01*
X33817162Y-33339373D01*
X33677860Y-33246295D01*
X33523082Y-33182184D01*
X33523074Y-33182182D01*
X33358771Y-33149500D01*
X33358767Y-33149500D01*
X32641233Y-33149500D01*
X32641228Y-33149500D01*
X32476925Y-33182182D01*
X32476917Y-33182184D01*
X32322139Y-33246295D01*
X32182837Y-33339373D01*
X32064373Y-33457837D01*
X31971295Y-33597139D01*
X31907184Y-33751917D01*
X31907182Y-33751925D01*
X31874500Y-33916228D01*
X31874500Y-34083771D01*
X31907182Y-34248074D01*
X31907184Y-34248082D01*
X31971295Y-34402860D01*
X32064373Y-34542162D01*
X32182835Y-34660624D01*
X32182838Y-34660626D01*
X32234901Y-34695414D01*
X32279707Y-34749025D01*
X32288414Y-34818350D01*
X32258260Y-34881378D01*
X32205016Y-34916222D01*
X32055878Y-34965642D01*
X32055875Y-34965643D01*
X31906654Y-35057684D01*
X31782684Y-35181654D01*
X31690643Y-35330875D01*
X31690641Y-35330880D01*
X31635494Y-35497302D01*
X31635493Y-35497309D01*
X31625000Y-35600013D01*
X600000Y-35600013D01*
X600000Y-34416228D01*
X20874500Y-34416228D01*
X20874500Y-34583771D01*
X20907182Y-34748074D01*
X20907184Y-34748082D01*
X20971295Y-34902860D01*
X21064373Y-35042162D01*
X21182837Y-35160626D01*
X21235153Y-35195582D01*
X21322137Y-35253703D01*
X21476918Y-35317816D01*
X21641228Y-35350499D01*
X21641232Y-35350500D01*
X21641233Y-35350500D01*
X22358768Y-35350500D01*
X22358769Y-35350499D01*
X22523082Y-35317816D01*
X22677863Y-35253703D01*
X22817162Y-35160626D01*
X22935626Y-35042162D01*
X23028703Y-34902863D01*
X23092816Y-34748082D01*
X23125500Y-34583767D01*
X23125500Y-34416233D01*
X23092816Y-34251918D01*
X23028703Y-34097137D01*
X22997537Y-34050494D01*
X22935626Y-33957837D01*
X22817162Y-33839373D01*
X22677860Y-33746295D01*
X22523082Y-33682184D01*
X22523074Y-33682182D01*
X22358771Y-33649500D01*
X22358767Y-33649500D01*
X21641233Y-33649500D01*
X21641228Y-33649500D01*
X21476925Y-33682182D01*
X21476917Y-33682184D01*
X21322139Y-33746295D01*
X21182837Y-33839373D01*
X21064373Y-33957837D01*
X20971295Y-34097139D01*
X20907184Y-34251917D01*
X20907182Y-34251925D01*
X20874500Y-34416228D01*
X600000Y-34416228D01*
X600000Y-32416228D01*
X20874500Y-32416228D01*
X20874500Y-32583771D01*
X20907182Y-32748074D01*
X20907184Y-32748082D01*
X20971295Y-32902860D01*
X21064373Y-33042162D01*
X21182837Y-33160626D01*
X21275494Y-33222537D01*
X21322137Y-33253703D01*
X21476918Y-33317816D01*
X21641228Y-33350499D01*
X21641232Y-33350500D01*
X21641233Y-33350500D01*
X22358768Y-33350500D01*
X22358769Y-33350499D01*
X22523082Y-33317816D01*
X22677863Y-33253703D01*
X22817162Y-33160626D01*
X22935626Y-33042162D01*
X23028703Y-32902863D01*
X23092816Y-32748082D01*
X23125500Y-32583767D01*
X23125500Y-32416233D01*
X23092816Y-32251918D01*
X23028703Y-32097137D01*
X22964132Y-32000500D01*
X22935626Y-31957837D01*
X22817162Y-31839373D01*
X22677860Y-31746295D01*
X22523082Y-31682184D01*
X22523074Y-31682182D01*
X22358771Y-31649500D01*
X22358767Y-31649500D01*
X21641233Y-31649500D01*
X21641228Y-31649500D01*
X21476925Y-31682182D01*
X21476917Y-31682184D01*
X21322139Y-31746295D01*
X21182837Y-31839373D01*
X21064373Y-31957837D01*
X20971295Y-32097139D01*
X20907184Y-32251917D01*
X20907182Y-32251925D01*
X20874500Y-32416228D01*
X600000Y-32416228D01*
X600000Y-30314071D01*
X37349499Y-30314071D01*
X37374497Y-30439738D01*
X37374499Y-30439744D01*
X37423533Y-30558124D01*
X37423538Y-30558133D01*
X37494723Y-30664668D01*
X37494726Y-30664672D01*
X37585327Y-30755273D01*
X37585331Y-30755276D01*
X37691866Y-30826461D01*
X37691872Y-30826464D01*
X37691873Y-30826465D01*
X37810256Y-30875501D01*
X37810260Y-30875501D01*
X37810261Y-30875502D01*
X37935928Y-30900500D01*
X37935931Y-30900500D01*
X38064071Y-30900500D01*
X38148615Y-30883682D01*
X38189744Y-30875501D01*
X38308127Y-30826465D01*
X38414669Y-30755276D01*
X38505276Y-30664669D01*
X38576465Y-30558127D01*
X38625501Y-30439744D01*
X38644046Y-30346514D01*
X38650500Y-30314071D01*
X38650500Y-30185928D01*
X38625502Y-30060261D01*
X38625501Y-30060260D01*
X38625501Y-30060256D01*
X38576465Y-29941873D01*
X38576464Y-29941872D01*
X38576461Y-29941866D01*
X38517260Y-29853266D01*
X38517259Y-29853265D01*
X38505276Y-29835331D01*
X38414669Y-29744724D01*
X38396734Y-29732740D01*
X38396732Y-29732738D01*
X38308133Y-29673538D01*
X38308124Y-29673533D01*
X38189744Y-29624499D01*
X38189738Y-29624497D01*
X38064071Y-29599500D01*
X38064069Y-29599500D01*
X37935931Y-29599500D01*
X37935929Y-29599500D01*
X37810261Y-29624497D01*
X37810255Y-29624499D01*
X37691875Y-29673533D01*
X37691866Y-29673538D01*
X37585331Y-29744723D01*
X37585327Y-29744726D01*
X37494726Y-29835327D01*
X37494723Y-29835331D01*
X37423538Y-29941866D01*
X37423533Y-29941875D01*
X37374499Y-30060255D01*
X37374497Y-30060261D01*
X37349500Y-30185928D01*
X37349500Y-30185931D01*
X37349500Y-30314069D01*
X37349500Y-30314071D01*
X37349499Y-30314071D01*
X600000Y-30314071D01*
X600000Y-29564071D01*
X18849499Y-29564071D01*
X18874497Y-29689738D01*
X18874499Y-29689744D01*
X18923533Y-29808124D01*
X18923538Y-29808133D01*
X18994723Y-29914668D01*
X18994726Y-29914672D01*
X19085327Y-30005273D01*
X19085331Y-30005276D01*
X19191866Y-30076461D01*
X19191872Y-30076464D01*
X19191873Y-30076465D01*
X19310256Y-30125501D01*
X19310260Y-30125501D01*
X19310261Y-30125502D01*
X19435928Y-30150500D01*
X19435931Y-30150500D01*
X19564071Y-30150500D01*
X19648615Y-30133682D01*
X19689744Y-30125501D01*
X19808127Y-30076465D01*
X19914669Y-30005276D01*
X20005276Y-29914669D01*
X20076465Y-29808127D01*
X20125501Y-29689744D01*
X20133682Y-29648615D01*
X20150500Y-29564071D01*
X20150500Y-29435928D01*
X20125502Y-29310261D01*
X20125501Y-29310260D01*
X20125501Y-29310256D01*
X20076465Y-29191873D01*
X20076464Y-29191872D01*
X20076461Y-29191866D01*
X20005276Y-29085331D01*
X20005273Y-29085327D01*
X19914672Y-28994726D01*
X19914668Y-28994723D01*
X19808133Y-28923538D01*
X19808124Y-28923533D01*
X19689744Y-28874499D01*
X19689738Y-28874497D01*
X19564071Y-28849500D01*
X19564069Y-28849500D01*
X19435931Y-28849500D01*
X19435929Y-28849500D01*
X19310261Y-28874497D01*
X19310255Y-28874499D01*
X19191875Y-28923533D01*
X19191866Y-28923538D01*
X19085331Y-28994723D01*
X19085327Y-28994726D01*
X18994726Y-29085327D01*
X18994723Y-29085331D01*
X18923538Y-29191866D01*
X18923533Y-29191875D01*
X18874499Y-29310255D01*
X18874497Y-29310261D01*
X18849500Y-29435928D01*
X18849500Y-29435931D01*
X18849500Y-29564069D01*
X18849500Y-29564071D01*
X18849499Y-29564071D01*
X600000Y-29564071D01*
X600000Y-18754071D01*
X25849499Y-18754071D01*
X25874497Y-18879738D01*
X25874499Y-18879744D01*
X25923533Y-18998124D01*
X25923538Y-18998133D01*
X25994723Y-19104668D01*
X25994726Y-19104672D01*
X26085327Y-19195273D01*
X26085331Y-19195276D01*
X26191866Y-19266461D01*
X26191872Y-19266464D01*
X26191873Y-19266465D01*
X26310256Y-19315501D01*
X26310260Y-19315501D01*
X26310261Y-19315502D01*
X26435928Y-19340500D01*
X26435931Y-19340500D01*
X26564071Y-19340500D01*
X26648615Y-19323682D01*
X26689744Y-19315501D01*
X26808127Y-19266465D01*
X26914669Y-19195276D01*
X27005276Y-19104669D01*
X27076465Y-18998127D01*
X27125501Y-18879744D01*
X27150500Y-18754069D01*
X27150500Y-18625931D01*
X27150500Y-18625928D01*
X27125502Y-18500261D01*
X27125501Y-18500260D01*
X27125501Y-18500256D01*
X27085463Y-18403595D01*
X27076466Y-18381875D01*
X27076461Y-18381866D01*
X27005276Y-18275331D01*
X27005273Y-18275327D01*
X26914672Y-18184726D01*
X26914668Y-18184723D01*
X26808133Y-18113538D01*
X26808124Y-18113533D01*
X26689744Y-18064499D01*
X26689738Y-18064497D01*
X26564071Y-18039500D01*
X26564069Y-18039500D01*
X26435931Y-18039500D01*
X26435929Y-18039500D01*
X26310261Y-18064497D01*
X26310255Y-18064499D01*
X26191875Y-18113533D01*
X26191866Y-18113538D01*
X26085331Y-18184723D01*
X26085327Y-18184726D01*
X25994726Y-18275327D01*
X25994723Y-18275331D01*
X25923538Y-18381866D01*
X25923533Y-18381875D01*
X25874499Y-18500255D01*
X25874497Y-18500261D01*
X25849500Y-18625928D01*
X25849500Y-18625931D01*
X25849500Y-18754069D01*
X25849500Y-18754071D01*
X25849499Y-18754071D01*
X600000Y-18754071D01*
X600000Y-6225013D01*
X11650000Y-6225013D01*
X11650000Y-6750000D01*
X12595854Y-6750000D01*
X12557370Y-6816657D01*
X12525000Y-6937465D01*
X12525000Y-7062535D01*
X12557370Y-7183343D01*
X12595854Y-7250000D01*
X11650001Y-7250000D01*
X11650001Y-7774986D01*
X11660494Y-7877697D01*
X11715641Y-8044119D01*
X11715643Y-8044124D01*
X11807684Y-8193345D01*
X11931654Y-8317315D01*
X12080875Y-8409356D01*
X12080880Y-8409358D01*
X12247302Y-8464505D01*
X12247309Y-8464506D01*
X12350019Y-8474999D01*
X12749999Y-8474999D01*
X12750000Y-8474998D01*
X12750000Y-7404145D01*
X12816657Y-7442630D01*
X12937465Y-7475000D01*
X13062535Y-7475000D01*
X13183343Y-7442630D01*
X13250000Y-7404145D01*
X13250000Y-8474999D01*
X13649972Y-8474999D01*
X13649986Y-8474998D01*
X13752697Y-8464505D01*
X13919119Y-8409358D01*
X13919124Y-8409356D01*
X14068345Y-8317315D01*
X14192315Y-8193345D01*
X14284356Y-8044124D01*
X14284358Y-8044119D01*
X14339505Y-7877697D01*
X14339506Y-7877689D01*
X14349318Y-7781652D01*
X14375714Y-7716960D01*
X14432895Y-7676809D01*
X14502706Y-7673945D01*
X14562982Y-7709279D01*
X14572991Y-7721365D01*
X14660586Y-7841928D01*
X14783072Y-7964414D01*
X14923212Y-8066232D01*
X15077555Y-8144873D01*
X15242299Y-8198402D01*
X15413389Y-8225500D01*
X15413390Y-8225500D01*
X15586610Y-8225500D01*
X15586611Y-8225500D01*
X15757701Y-8198402D01*
X15922445Y-8144873D01*
X16076788Y-8066232D01*
X16216928Y-7964414D01*
X16339414Y-7841928D01*
X16441232Y-7701788D01*
X16519873Y-7547445D01*
X16573402Y-7382701D01*
X16600500Y-7211611D01*
X16600500Y-6788389D01*
X16899500Y-6788389D01*
X16899500Y-7211611D01*
X16926598Y-7382701D01*
X16980127Y-7547445D01*
X17058768Y-7701788D01*
X17160586Y-7841928D01*
X17283072Y-7964414D01*
X17423212Y-8066232D01*
X17577555Y-8144873D01*
X17742299Y-8198402D01*
X17913389Y-8225500D01*
X17913390Y-8225500D01*
X18086610Y-8225500D01*
X18086611Y-8225500D01*
X18257701Y-8198402D01*
X18422445Y-8144873D01*
X18576788Y-8066232D01*
X18716928Y-7964414D01*
X18839414Y-7841928D01*
X18941232Y-7701788D01*
X19019873Y-7547445D01*
X19073402Y-7382701D01*
X19100500Y-7211611D01*
X19100500Y-6788389D01*
X19399500Y-6788389D01*
X19399500Y-7211611D01*
X19426598Y-7382701D01*
X19480127Y-7547445D01*
X19558768Y-7701788D01*
X19660586Y-7841928D01*
X19783072Y-7964414D01*
X19923212Y-8066232D01*
X20077555Y-8144873D01*
X20242299Y-8198402D01*
X20413389Y-8225500D01*
X20413390Y-8225500D01*
X20586610Y-8225500D01*
X20586611Y-8225500D01*
X20757701Y-8198402D01*
X20922445Y-8144873D01*
X21076788Y-8066232D01*
X21216928Y-7964414D01*
X21339414Y-7841928D01*
X21441232Y-7701788D01*
X21519873Y-7547445D01*
X21573402Y-7382701D01*
X21600500Y-7211611D01*
X21600500Y-6788389D01*
X21573402Y-6617299D01*
X21519873Y-6452555D01*
X21441232Y-6298212D01*
X21427006Y-6278632D01*
X21388049Y-6225013D01*
X30650000Y-6225013D01*
X30650000Y-6750000D01*
X31595854Y-6750000D01*
X31557370Y-6816657D01*
X31525000Y-6937465D01*
X31525000Y-7062535D01*
X31557370Y-7183343D01*
X31595854Y-7250000D01*
X30650001Y-7250000D01*
X30650001Y-7774986D01*
X30660494Y-7877697D01*
X30715641Y-8044119D01*
X30715643Y-8044124D01*
X30807684Y-8193345D01*
X30931654Y-8317315D01*
X31080875Y-8409356D01*
X31080880Y-8409358D01*
X31247302Y-8464505D01*
X31247309Y-8464506D01*
X31350019Y-8474999D01*
X31749999Y-8474999D01*
X31750000Y-8474998D01*
X31750000Y-7404145D01*
X31816657Y-7442630D01*
X31937465Y-7475000D01*
X32062535Y-7475000D01*
X32183343Y-7442630D01*
X32250000Y-7404145D01*
X32250000Y-8474999D01*
X32649972Y-8474999D01*
X32649986Y-8474998D01*
X32752697Y-8464505D01*
X32919119Y-8409358D01*
X32919124Y-8409356D01*
X33068345Y-8317315D01*
X33192315Y-8193345D01*
X33284356Y-8044124D01*
X33284358Y-8044119D01*
X33339505Y-7877697D01*
X33339506Y-7877689D01*
X33349318Y-7781652D01*
X33375714Y-7716960D01*
X33432895Y-7676809D01*
X33502706Y-7673945D01*
X33562982Y-7709279D01*
X33572991Y-7721365D01*
X33660586Y-7841928D01*
X33783072Y-7964414D01*
X33923212Y-8066232D01*
X34077555Y-8144873D01*
X34242299Y-8198402D01*
X34413389Y-8225500D01*
X34413390Y-8225500D01*
X34586610Y-8225500D01*
X34586611Y-8225500D01*
X34757701Y-8198402D01*
X34922445Y-8144873D01*
X35076788Y-8066232D01*
X35216928Y-7964414D01*
X35339414Y-7841928D01*
X35441232Y-7701788D01*
X35519873Y-7547445D01*
X35573402Y-7382701D01*
X35600500Y-7211611D01*
X35600500Y-6788389D01*
X35899500Y-6788389D01*
X35899500Y-7211611D01*
X35926598Y-7382701D01*
X35980127Y-7547445D01*
X36058768Y-7701788D01*
X36160586Y-7841928D01*
X36283072Y-7964414D01*
X36423212Y-8066232D01*
X36577555Y-8144873D01*
X36742299Y-8198402D01*
X36913389Y-8225500D01*
X36913390Y-8225500D01*
X37086610Y-8225500D01*
X37086611Y-8225500D01*
X37257701Y-8198402D01*
X37422445Y-8144873D01*
X37576788Y-8066232D01*
X37716928Y-7964414D01*
X37839414Y-7841928D01*
X37941232Y-7701788D01*
X38019873Y-7547445D01*
X38073402Y-7382701D01*
X38100500Y-7211611D01*
X38100500Y-6788389D01*
X38399500Y-6788389D01*
X38399500Y-7211611D01*
X38426598Y-7382701D01*
X38480127Y-7547445D01*
X38558768Y-7701788D01*
X38660586Y-7841928D01*
X38783072Y-7964414D01*
X38923212Y-8066232D01*
X39077555Y-8144873D01*
X39242299Y-8198402D01*
X39413389Y-8225500D01*
X39413390Y-8225500D01*
X39586610Y-8225500D01*
X39586611Y-8225500D01*
X39757701Y-8198402D01*
X39922445Y-8144873D01*
X40076788Y-8066232D01*
X40216928Y-7964414D01*
X40339414Y-7841928D01*
X40441232Y-7701788D01*
X40519873Y-7547445D01*
X40573402Y-7382701D01*
X40600500Y-7211611D01*
X40600500Y-6788389D01*
X40573402Y-6617299D01*
X40519873Y-6452555D01*
X40441232Y-6298212D01*
X40427006Y-6278632D01*
X40388049Y-6225013D01*
X49650000Y-6225013D01*
X49650000Y-6750000D01*
X50595854Y-6750000D01*
X50557370Y-6816657D01*
X50525000Y-6937465D01*
X50525000Y-7062535D01*
X50557370Y-7183343D01*
X50595854Y-7250000D01*
X49650001Y-7250000D01*
X49650001Y-7774986D01*
X49660494Y-7877697D01*
X49715641Y-8044119D01*
X49715643Y-8044124D01*
X49807684Y-8193345D01*
X49931654Y-8317315D01*
X50080875Y-8409356D01*
X50080880Y-8409358D01*
X50247302Y-8464505D01*
X50247309Y-8464506D01*
X50350019Y-8474999D01*
X50749999Y-8474999D01*
X50750000Y-8474998D01*
X50750000Y-7404145D01*
X50816657Y-7442630D01*
X50937465Y-7475000D01*
X51062535Y-7475000D01*
X51183343Y-7442630D01*
X51250000Y-7404145D01*
X51250000Y-8474999D01*
X51649972Y-8474999D01*
X51649986Y-8474998D01*
X51752697Y-8464505D01*
X51919119Y-8409358D01*
X51919124Y-8409356D01*
X52068345Y-8317315D01*
X52192315Y-8193345D01*
X52284356Y-8044124D01*
X52284358Y-8044119D01*
X52339505Y-7877697D01*
X52339506Y-7877689D01*
X52349318Y-7781652D01*
X52375714Y-7716960D01*
X52432895Y-7676809D01*
X52502706Y-7673945D01*
X52562982Y-7709279D01*
X52572991Y-7721365D01*
X52660586Y-7841928D01*
X52783072Y-7964414D01*
X52923212Y-8066232D01*
X53077555Y-8144873D01*
X53242299Y-8198402D01*
X53413389Y-8225500D01*
X53413390Y-8225500D01*
X53586610Y-8225500D01*
X53586611Y-8225500D01*
X53757701Y-8198402D01*
X53922445Y-8144873D01*
X54076788Y-8066232D01*
X54216928Y-7964414D01*
X54339414Y-7841928D01*
X54441232Y-7701788D01*
X54519873Y-7547445D01*
X54573402Y-7382701D01*
X54600500Y-7211611D01*
X54600500Y-6788389D01*
X54899500Y-6788389D01*
X54899500Y-7211611D01*
X54926598Y-7382701D01*
X54980127Y-7547445D01*
X55058768Y-7701788D01*
X55160586Y-7841928D01*
X55283072Y-7964414D01*
X55423212Y-8066232D01*
X55577555Y-8144873D01*
X55742299Y-8198402D01*
X55913389Y-8225500D01*
X55913390Y-8225500D01*
X56086610Y-8225500D01*
X56086611Y-8225500D01*
X56257701Y-8198402D01*
X56422445Y-8144873D01*
X56576788Y-8066232D01*
X56716928Y-7964414D01*
X56839414Y-7841928D01*
X56941232Y-7701788D01*
X57019873Y-7547445D01*
X57073402Y-7382701D01*
X57100500Y-7211611D01*
X57100500Y-6788389D01*
X57399500Y-6788389D01*
X57399500Y-7211611D01*
X57426598Y-7382701D01*
X57480127Y-7547445D01*
X57558768Y-7701788D01*
X57660586Y-7841928D01*
X57783072Y-7964414D01*
X57923212Y-8066232D01*
X58077555Y-8144873D01*
X58242299Y-8198402D01*
X58413389Y-8225500D01*
X58413390Y-8225500D01*
X58586610Y-8225500D01*
X58586611Y-8225500D01*
X58757701Y-8198402D01*
X58922445Y-8144873D01*
X59076788Y-8066232D01*
X59216928Y-7964414D01*
X59339414Y-7841928D01*
X59441232Y-7701788D01*
X59519873Y-7547445D01*
X59573402Y-7382701D01*
X59600500Y-7211611D01*
X59600500Y-6788389D01*
X59573402Y-6617299D01*
X59519873Y-6452555D01*
X59441232Y-6298212D01*
X59427006Y-6278632D01*
X59388049Y-6225013D01*
X68650000Y-6225013D01*
X68650000Y-6750000D01*
X69595854Y-6750000D01*
X69557370Y-6816657D01*
X69525000Y-6937465D01*
X69525000Y-7062535D01*
X69557370Y-7183343D01*
X69595854Y-7250000D01*
X68650001Y-7250000D01*
X68650001Y-7774986D01*
X68660494Y-7877697D01*
X68715641Y-8044119D01*
X68715643Y-8044124D01*
X68807684Y-8193345D01*
X68931654Y-8317315D01*
X69080875Y-8409356D01*
X69080880Y-8409358D01*
X69247302Y-8464505D01*
X69247309Y-8464506D01*
X69350019Y-8474999D01*
X69749999Y-8474999D01*
X69750000Y-8474998D01*
X69750000Y-7404145D01*
X69816657Y-7442630D01*
X69937465Y-7475000D01*
X70062535Y-7475000D01*
X70183343Y-7442630D01*
X70250000Y-7404145D01*
X70250000Y-8474999D01*
X70649972Y-8474999D01*
X70649986Y-8474998D01*
X70752697Y-8464505D01*
X70919119Y-8409358D01*
X70919124Y-8409356D01*
X71068345Y-8317315D01*
X71192315Y-8193345D01*
X71284356Y-8044124D01*
X71284358Y-8044119D01*
X71339505Y-7877697D01*
X71339506Y-7877689D01*
X71349318Y-7781652D01*
X71375714Y-7716960D01*
X71432895Y-7676809D01*
X71502706Y-7673945D01*
X71562982Y-7709279D01*
X71572991Y-7721365D01*
X71660586Y-7841928D01*
X71783072Y-7964414D01*
X71923212Y-8066232D01*
X72077555Y-8144873D01*
X72242299Y-8198402D01*
X72413389Y-8225500D01*
X72413390Y-8225500D01*
X72586610Y-8225500D01*
X72586611Y-8225500D01*
X72757701Y-8198402D01*
X72922445Y-8144873D01*
X73076788Y-8066232D01*
X73216928Y-7964414D01*
X73339414Y-7841928D01*
X73441232Y-7701788D01*
X73519873Y-7547445D01*
X73573402Y-7382701D01*
X73600500Y-7211611D01*
X73600500Y-6788389D01*
X73899500Y-6788389D01*
X73899500Y-7211611D01*
X73926598Y-7382701D01*
X73980127Y-7547445D01*
X74058768Y-7701788D01*
X74160586Y-7841928D01*
X74283072Y-7964414D01*
X74423212Y-8066232D01*
X74577555Y-8144873D01*
X74742299Y-8198402D01*
X74913389Y-8225500D01*
X74913390Y-8225500D01*
X75086610Y-8225500D01*
X75086611Y-8225500D01*
X75257701Y-8198402D01*
X75422445Y-8144873D01*
X75576788Y-8066232D01*
X75716928Y-7964414D01*
X75839414Y-7841928D01*
X75941232Y-7701788D01*
X76019873Y-7547445D01*
X76073402Y-7382701D01*
X76100500Y-7211611D01*
X76100500Y-6788389D01*
X76399500Y-6788389D01*
X76399500Y-7211611D01*
X76426598Y-7382701D01*
X76480127Y-7547445D01*
X76558768Y-7701788D01*
X76660586Y-7841928D01*
X76783072Y-7964414D01*
X76923212Y-8066232D01*
X77077555Y-8144873D01*
X77242299Y-8198402D01*
X77413389Y-8225500D01*
X77413390Y-8225500D01*
X77586610Y-8225500D01*
X77586611Y-8225500D01*
X77757701Y-8198402D01*
X77922445Y-8144873D01*
X78076788Y-8066232D01*
X78216928Y-7964414D01*
X78339414Y-7841928D01*
X78441232Y-7701788D01*
X78519873Y-7547445D01*
X78573402Y-7382701D01*
X78600500Y-7211611D01*
X78600500Y-6788389D01*
X78573402Y-6617299D01*
X78519873Y-6452555D01*
X78441232Y-6298212D01*
X78427006Y-6278632D01*
X78388049Y-6225013D01*
X87650000Y-6225013D01*
X87650000Y-6750000D01*
X88595854Y-6750000D01*
X88557370Y-6816657D01*
X88525000Y-6937465D01*
X88525000Y-7062535D01*
X88557370Y-7183343D01*
X88595854Y-7250000D01*
X87650001Y-7250000D01*
X87650001Y-7774986D01*
X87660494Y-7877697D01*
X87715641Y-8044119D01*
X87715643Y-8044124D01*
X87807684Y-8193345D01*
X87931654Y-8317315D01*
X88080875Y-8409356D01*
X88080880Y-8409358D01*
X88247302Y-8464505D01*
X88247309Y-8464506D01*
X88350019Y-8474999D01*
X88749999Y-8474999D01*
X88750000Y-8474998D01*
X88750000Y-7404145D01*
X88816657Y-7442630D01*
X88937465Y-7475000D01*
X89062535Y-7475000D01*
X89183343Y-7442630D01*
X89250000Y-7404145D01*
X89250000Y-8474999D01*
X89649972Y-8474999D01*
X89649986Y-8474998D01*
X89752697Y-8464505D01*
X89919119Y-8409358D01*
X89919124Y-8409356D01*
X90068345Y-8317315D01*
X90192315Y-8193345D01*
X90284356Y-8044124D01*
X90284358Y-8044119D01*
X90339505Y-7877697D01*
X90339506Y-7877689D01*
X90349318Y-7781652D01*
X90375714Y-7716960D01*
X90432895Y-7676809D01*
X90502706Y-7673945D01*
X90562982Y-7709279D01*
X90572991Y-7721365D01*
X90660586Y-7841928D01*
X90783072Y-7964414D01*
X90923212Y-8066232D01*
X91077555Y-8144873D01*
X91242299Y-8198402D01*
X91413389Y-8225500D01*
X91413390Y-8225500D01*
X91586610Y-8225500D01*
X91586611Y-8225500D01*
X91757701Y-8198402D01*
X91922445Y-8144873D01*
X92076788Y-8066232D01*
X92216928Y-7964414D01*
X92339414Y-7841928D01*
X92441232Y-7701788D01*
X92519873Y-7547445D01*
X92573402Y-7382701D01*
X92600500Y-7211611D01*
X92600500Y-6788389D01*
X92899500Y-6788389D01*
X92899500Y-7211611D01*
X92926598Y-7382701D01*
X92980127Y-7547445D01*
X93058768Y-7701788D01*
X93160586Y-7841928D01*
X93283072Y-7964414D01*
X93423212Y-8066232D01*
X93577555Y-8144873D01*
X93742299Y-8198402D01*
X93913389Y-8225500D01*
X93913390Y-8225500D01*
X94086610Y-8225500D01*
X94086611Y-8225500D01*
X94257701Y-8198402D01*
X94422445Y-8144873D01*
X94576788Y-8066232D01*
X94716928Y-7964414D01*
X94839414Y-7841928D01*
X94941232Y-7701788D01*
X95019873Y-7547445D01*
X95073402Y-7382701D01*
X95100500Y-7211611D01*
X95100500Y-6788389D01*
X95399500Y-6788389D01*
X95399500Y-7211611D01*
X95426598Y-7382701D01*
X95480127Y-7547445D01*
X95558768Y-7701788D01*
X95660586Y-7841928D01*
X95783072Y-7964414D01*
X95923212Y-8066232D01*
X96077555Y-8144873D01*
X96242299Y-8198402D01*
X96413389Y-8225500D01*
X96413390Y-8225500D01*
X96586610Y-8225500D01*
X96586611Y-8225500D01*
X96757701Y-8198402D01*
X96922445Y-8144873D01*
X97076788Y-8066232D01*
X97216928Y-7964414D01*
X97339414Y-7841928D01*
X97441232Y-7701788D01*
X97519873Y-7547445D01*
X97573402Y-7382701D01*
X97600500Y-7211611D01*
X97600500Y-6788389D01*
X97573402Y-6617299D01*
X97519873Y-6452555D01*
X97441232Y-6298212D01*
X97427006Y-6278632D01*
X97388049Y-6225013D01*
X102650000Y-6225013D01*
X102650000Y-6750000D01*
X103595854Y-6750000D01*
X103557370Y-6816657D01*
X103525000Y-6937465D01*
X103525000Y-7062535D01*
X103557370Y-7183343D01*
X103595854Y-7250000D01*
X102650001Y-7250000D01*
X102650001Y-7774986D01*
X102660494Y-7877697D01*
X102715641Y-8044119D01*
X102715643Y-8044124D01*
X102807684Y-8193345D01*
X102931654Y-8317315D01*
X103080875Y-8409356D01*
X103080880Y-8409358D01*
X103247302Y-8464505D01*
X103247309Y-8464506D01*
X103350019Y-8474999D01*
X103749999Y-8474999D01*
X103750000Y-8474998D01*
X103750000Y-7404145D01*
X103816657Y-7442630D01*
X103937465Y-7475000D01*
X104062535Y-7475000D01*
X104183343Y-7442630D01*
X104250000Y-7404145D01*
X104250000Y-8474999D01*
X104649972Y-8474999D01*
X104649986Y-8474998D01*
X104752697Y-8464505D01*
X104919119Y-8409358D01*
X104919124Y-8409356D01*
X105068345Y-8317315D01*
X105192315Y-8193345D01*
X105284356Y-8044124D01*
X105284358Y-8044119D01*
X105339505Y-7877697D01*
X105339506Y-7877689D01*
X105349318Y-7781652D01*
X105375714Y-7716960D01*
X105432895Y-7676809D01*
X105502706Y-7673945D01*
X105562982Y-7709279D01*
X105572991Y-7721365D01*
X105660586Y-7841928D01*
X105783072Y-7964414D01*
X105923212Y-8066232D01*
X106077555Y-8144873D01*
X106242299Y-8198402D01*
X106413389Y-8225500D01*
X106413390Y-8225500D01*
X106586610Y-8225500D01*
X106586611Y-8225500D01*
X106757701Y-8198402D01*
X106922445Y-8144873D01*
X107076788Y-8066232D01*
X107216928Y-7964414D01*
X107339414Y-7841928D01*
X107441232Y-7701788D01*
X107519873Y-7547445D01*
X107573402Y-7382701D01*
X107600500Y-7211611D01*
X107600500Y-6788389D01*
X107899500Y-6788389D01*
X107899500Y-7211611D01*
X107926598Y-7382701D01*
X107980127Y-7547445D01*
X108058768Y-7701788D01*
X108160586Y-7841928D01*
X108283072Y-7964414D01*
X108423212Y-8066232D01*
X108577555Y-8144873D01*
X108742299Y-8198402D01*
X108913389Y-8225500D01*
X108913390Y-8225500D01*
X109086610Y-8225500D01*
X109086611Y-8225500D01*
X109257701Y-8198402D01*
X109422445Y-8144873D01*
X109576788Y-8066232D01*
X109716928Y-7964414D01*
X109839414Y-7841928D01*
X109941232Y-7701788D01*
X110019873Y-7547445D01*
X110073402Y-7382701D01*
X110100500Y-7211611D01*
X110100500Y-6788389D01*
X110399500Y-6788389D01*
X110399500Y-7211611D01*
X110426598Y-7382701D01*
X110480127Y-7547445D01*
X110558768Y-7701788D01*
X110660586Y-7841928D01*
X110660588Y-7841930D01*
X110713181Y-7894523D01*
X110746666Y-7955846D01*
X110749500Y-7982204D01*
X110749500Y-12573918D01*
X110749500Y-12573920D01*
X110749499Y-12573920D01*
X110778340Y-12718907D01*
X110778343Y-12718917D01*
X110834914Y-12855492D01*
X110867812Y-12904727D01*
X110867813Y-12904730D01*
X110917046Y-12978414D01*
X110917052Y-12978421D01*
X114412707Y-16474074D01*
X114412728Y-16474097D01*
X117413181Y-19474548D01*
X117446666Y-19535871D01*
X117449500Y-19562229D01*
X117449500Y-21097870D01*
X117449501Y-21097876D01*
X117455908Y-21157483D01*
X117506202Y-21292328D01*
X117506206Y-21292335D01*
X117592452Y-21407544D01*
X117592455Y-21407547D01*
X117707664Y-21493793D01*
X117707671Y-21493797D01*
X117804109Y-21529766D01*
X117860043Y-21571637D01*
X117884460Y-21637101D01*
X117882129Y-21671432D01*
X117441924Y-23767641D01*
X117439236Y-23778139D01*
X117438341Y-23781088D01*
X117424832Y-23848997D01*
X117424569Y-23850285D01*
X117410327Y-23918106D01*
X117409993Y-23921171D01*
X117409964Y-23921359D01*
X117409952Y-23921482D01*
X117409832Y-23922642D01*
X117409812Y-23922822D01*
X117409802Y-23923012D01*
X117409500Y-23926079D01*
X117409500Y-23995345D01*
X117409493Y-23996665D01*
X117408755Y-24065930D01*
X117409025Y-24068998D01*
X117409500Y-24079838D01*
X117409500Y-27689172D01*
X117389815Y-27756211D01*
X117358386Y-27789490D01*
X117215061Y-27893622D01*
X117053622Y-28055061D01*
X116919421Y-28239771D01*
X116815770Y-28443196D01*
X116745215Y-28660339D01*
X116709500Y-28885837D01*
X116709500Y-29114162D01*
X116737212Y-29289131D01*
X116728257Y-29358425D01*
X116702420Y-29396210D01*
X115417049Y-30681581D01*
X115376764Y-30741872D01*
X115376765Y-30741873D01*
X115334914Y-30804508D01*
X115278343Y-30941082D01*
X115278340Y-30941092D01*
X115249500Y-31086079D01*
X115249500Y-35633023D01*
X115229815Y-35700062D01*
X115177011Y-35745817D01*
X115149865Y-35753266D01*
X115150068Y-35754124D01*
X115142520Y-35755907D01*
X115007671Y-35806202D01*
X115007664Y-35806206D01*
X114892455Y-35892452D01*
X114892452Y-35892455D01*
X114806206Y-36007664D01*
X114806202Y-36007671D01*
X114755908Y-36142517D01*
X114749596Y-36201231D01*
X114749501Y-36202123D01*
X114749500Y-36202135D01*
X114749500Y-37797870D01*
X114749501Y-37797876D01*
X114755908Y-37857483D01*
X114806202Y-37992328D01*
X114806206Y-37992335D01*
X114892452Y-38107544D01*
X114892455Y-38107547D01*
X115007664Y-38193793D01*
X115007671Y-38193797D01*
X115142517Y-38244091D01*
X115150062Y-38245874D01*
X115149523Y-38248151D01*
X115203287Y-38270408D01*
X115243147Y-38327793D01*
X115249500Y-38366975D01*
X115249500Y-45564739D01*
X115240061Y-45612192D01*
X115182184Y-45751917D01*
X115182182Y-45751925D01*
X115149500Y-45916228D01*
X115149500Y-46083771D01*
X115182182Y-46248074D01*
X115182184Y-46248082D01*
X115246295Y-46402860D01*
X115339373Y-46542162D01*
X115457837Y-46660626D01*
X115550494Y-46722537D01*
X115597137Y-46753703D01*
X115751918Y-46817816D01*
X115891820Y-46845644D01*
X115916228Y-46850499D01*
X115916232Y-46850500D01*
X115916233Y-46850500D01*
X116083768Y-46850500D01*
X116083769Y-46850499D01*
X116248082Y-46817816D01*
X116402863Y-46753703D01*
X116542162Y-46660626D01*
X116660626Y-46542162D01*
X116753703Y-46402863D01*
X116817816Y-46248082D01*
X116850500Y-46083767D01*
X116850500Y-45916233D01*
X116817816Y-45751918D01*
X116759938Y-45612191D01*
X116750500Y-45564739D01*
X116750500Y-38366976D01*
X116770185Y-38299937D01*
X116822989Y-38254182D01*
X116850135Y-38246736D01*
X116849932Y-38245876D01*
X116857479Y-38244092D01*
X116857481Y-38244091D01*
X116857483Y-38244091D01*
X116992331Y-38193796D01*
X117107546Y-38107546D01*
X117193796Y-37992331D01*
X117244091Y-37857483D01*
X117250500Y-37797873D01*
X117250499Y-36881947D01*
X119500000Y-36881947D01*
X119500000Y-37118052D01*
X119536934Y-37351247D01*
X119609897Y-37575802D01*
X119717087Y-37786174D01*
X119777338Y-37869104D01*
X119777340Y-37869105D01*
X120517037Y-37129408D01*
X120534075Y-37192993D01*
X120599901Y-37307007D01*
X120692993Y-37400099D01*
X120807007Y-37465925D01*
X120870590Y-37482962D01*
X120130893Y-38222658D01*
X120213828Y-38282914D01*
X120424197Y-38390102D01*
X120648752Y-38463065D01*
X120648751Y-38463065D01*
X120881948Y-38500000D01*
X121118052Y-38500000D01*
X121351247Y-38463065D01*
X121575802Y-38390102D01*
X121786163Y-38282918D01*
X121786169Y-38282914D01*
X121869104Y-38222658D01*
X121869105Y-38222658D01*
X121129408Y-37482962D01*
X121192993Y-37465925D01*
X121307007Y-37400099D01*
X121400099Y-37307007D01*
X121465925Y-37192993D01*
X121482962Y-37129408D01*
X122222658Y-37869105D01*
X122222658Y-37869104D01*
X122282914Y-37786169D01*
X122282918Y-37786163D01*
X122390102Y-37575802D01*
X122463065Y-37351247D01*
X122500000Y-37118052D01*
X122500000Y-36881947D01*
X122463065Y-36648752D01*
X122390102Y-36424197D01*
X122282914Y-36213828D01*
X122222658Y-36130894D01*
X122222658Y-36130893D01*
X121482962Y-36870590D01*
X121465925Y-36807007D01*
X121400099Y-36692993D01*
X121307007Y-36599901D01*
X121192993Y-36534075D01*
X121129409Y-36517037D01*
X121869105Y-35777340D01*
X121869104Y-35777338D01*
X121786174Y-35717087D01*
X121575802Y-35609897D01*
X121351247Y-35536934D01*
X121351248Y-35536934D01*
X121118052Y-35500000D01*
X120881948Y-35500000D01*
X120648752Y-35536934D01*
X120424197Y-35609897D01*
X120213830Y-35717084D01*
X120130894Y-35777340D01*
X120870591Y-36517037D01*
X120807007Y-36534075D01*
X120692993Y-36599901D01*
X120599901Y-36692993D01*
X120534075Y-36807007D01*
X120517037Y-36870591D01*
X119777340Y-36130894D01*
X119717084Y-36213830D01*
X119609897Y-36424197D01*
X119536934Y-36648752D01*
X119500000Y-36881947D01*
X117250499Y-36881947D01*
X117250499Y-36202128D01*
X117244091Y-36142517D01*
X117242856Y-36139207D01*
X117193797Y-36007671D01*
X117193795Y-36007668D01*
X117188055Y-36000000D01*
X117107546Y-35892454D01*
X117057855Y-35855255D01*
X116992335Y-35806206D01*
X116992328Y-35806202D01*
X116857482Y-35755908D01*
X116849938Y-35754126D01*
X116850474Y-35751853D01*
X116796688Y-35729571D01*
X116756843Y-35672177D01*
X116750500Y-35633024D01*
X116750500Y-31522229D01*
X116770185Y-31455190D01*
X116786819Y-31434548D01*
X117270737Y-30950630D01*
X117763789Y-30457577D01*
X117825110Y-30424094D01*
X117870866Y-30422787D01*
X118045838Y-30450500D01*
X118045843Y-30450500D01*
X118274162Y-30450500D01*
X118499660Y-30414784D01*
X118521576Y-30407663D01*
X118716799Y-30344231D01*
X118920228Y-30240579D01*
X119104937Y-30106379D01*
X119266379Y-29944937D01*
X119400579Y-29760228D01*
X119504231Y-29556799D01*
X119574784Y-29339660D01*
X119595999Y-29205715D01*
X119610500Y-29114162D01*
X119610500Y-28885837D01*
X119574784Y-28660339D01*
X119515966Y-28479318D01*
X119504231Y-28443201D01*
X119504229Y-28443198D01*
X119504229Y-28443196D01*
X119400578Y-28239771D01*
X119266379Y-28055063D01*
X119104937Y-27893621D01*
X118961613Y-27789489D01*
X118918949Y-27734159D01*
X118910500Y-27689172D01*
X118910500Y-24090831D01*
X118913147Y-24065347D01*
X118943385Y-23921359D01*
X119159152Y-22893894D01*
X119420577Y-21649015D01*
X119453619Y-21587452D01*
X119514699Y-21553526D01*
X119541930Y-21550499D01*
X120097871Y-21550499D01*
X120097872Y-21550499D01*
X120157483Y-21544091D01*
X120292331Y-21493796D01*
X120407546Y-21407546D01*
X120493796Y-21292331D01*
X120544091Y-21157483D01*
X120550500Y-21097873D01*
X120550499Y-18902128D01*
X120544091Y-18842517D01*
X120493796Y-18707669D01*
X120493795Y-18707668D01*
X120493793Y-18707664D01*
X120407547Y-18592455D01*
X120407544Y-18592452D01*
X120292335Y-18506206D01*
X120292328Y-18506202D01*
X120157482Y-18455908D01*
X120157483Y-18455908D01*
X120097883Y-18449501D01*
X120097881Y-18449500D01*
X120097873Y-18449500D01*
X120097865Y-18449500D01*
X118562229Y-18449500D01*
X118495190Y-18429815D01*
X118474548Y-18413181D01*
X116458374Y-16397006D01*
X116458373Y-16397005D01*
X115474097Y-15412728D01*
X115474074Y-15412707D01*
X114863381Y-14802014D01*
X117200000Y-14802014D01*
X117200000Y-15037985D01*
X117230799Y-15271914D01*
X117291870Y-15499837D01*
X117382160Y-15717819D01*
X117382165Y-15717828D01*
X117500144Y-15922171D01*
X117500145Y-15922172D01*
X117562721Y-16003723D01*
X118398958Y-15167487D01*
X118423978Y-15227890D01*
X118495112Y-15334351D01*
X118585649Y-15424888D01*
X118692110Y-15496022D01*
X118752511Y-15521041D01*
X117916275Y-16357277D01*
X117997827Y-16419854D01*
X117997828Y-16419855D01*
X118202171Y-16537834D01*
X118202180Y-16537839D01*
X118420163Y-16628129D01*
X118420161Y-16628129D01*
X118648085Y-16689200D01*
X118882014Y-16719999D01*
X118882029Y-16720000D01*
X119117971Y-16720000D01*
X119117985Y-16719999D01*
X119351914Y-16689200D01*
X119579837Y-16628129D01*
X119797819Y-16537839D01*
X119797828Y-16537834D01*
X120002181Y-16419850D01*
X120083723Y-16357279D01*
X120083723Y-16357276D01*
X119247487Y-15521041D01*
X119307890Y-15496022D01*
X119414351Y-15424888D01*
X119504888Y-15334351D01*
X119576022Y-15227890D01*
X119601041Y-15167488D01*
X120437276Y-16003723D01*
X120437279Y-16003723D01*
X120499850Y-15922181D01*
X120617834Y-15717828D01*
X120617839Y-15717819D01*
X120708129Y-15499837D01*
X120769200Y-15271914D01*
X120799999Y-15037985D01*
X120800000Y-15037971D01*
X120800000Y-14802028D01*
X120799999Y-14802014D01*
X120769200Y-14568085D01*
X120708129Y-14340162D01*
X120617839Y-14122180D01*
X120617834Y-14122171D01*
X120499855Y-13917828D01*
X120499854Y-13917827D01*
X120437277Y-13836275D01*
X119601041Y-14672511D01*
X119576022Y-14612110D01*
X119504888Y-14505649D01*
X119414351Y-14415112D01*
X119307890Y-14343978D01*
X119247488Y-14318958D01*
X120083723Y-13482721D01*
X120002172Y-13420145D01*
X120002171Y-13420144D01*
X119797828Y-13302165D01*
X119797819Y-13302160D01*
X119579836Y-13211870D01*
X119579838Y-13211870D01*
X119351914Y-13150799D01*
X119117985Y-13120000D01*
X118882014Y-13120000D01*
X118648085Y-13150799D01*
X118420162Y-13211870D01*
X118202180Y-13302160D01*
X118202171Y-13302165D01*
X117997828Y-13420144D01*
X117997818Y-13420150D01*
X117916275Y-13482720D01*
X117916275Y-13482721D01*
X118752512Y-14318958D01*
X118692110Y-14343978D01*
X118585649Y-14415112D01*
X118495112Y-14505649D01*
X118423978Y-14612110D01*
X118398958Y-14672512D01*
X117562721Y-13836275D01*
X117562720Y-13836275D01*
X117500150Y-13917818D01*
X117500144Y-13917828D01*
X117382165Y-14122171D01*
X117382160Y-14122180D01*
X117291870Y-14340162D01*
X117230799Y-14568085D01*
X117200000Y-14802014D01*
X114863381Y-14802014D01*
X113897642Y-13836275D01*
X112286819Y-12225451D01*
X112253334Y-12164128D01*
X112250500Y-12137770D01*
X112250500Y-7982204D01*
X112270185Y-7915165D01*
X112286819Y-7894523D01*
X112303653Y-7877689D01*
X112339414Y-7841928D01*
X112441232Y-7701788D01*
X112519873Y-7547445D01*
X112573402Y-7382701D01*
X112600500Y-7211611D01*
X112600500Y-6788389D01*
X112573402Y-6617299D01*
X112519873Y-6452555D01*
X112441232Y-6298212D01*
X112339414Y-6158072D01*
X112216928Y-6035586D01*
X112076788Y-5933768D01*
X111922445Y-5855127D01*
X111757701Y-5801598D01*
X111757699Y-5801597D01*
X111757698Y-5801597D01*
X111626271Y-5780781D01*
X111586611Y-5774500D01*
X111413389Y-5774500D01*
X111373728Y-5780781D01*
X111242302Y-5801597D01*
X111077552Y-5855128D01*
X110923211Y-5933768D01*
X110843256Y-5991859D01*
X110783072Y-6035586D01*
X110783070Y-6035588D01*
X110783069Y-6035588D01*
X110660588Y-6158069D01*
X110660588Y-6158070D01*
X110660586Y-6158072D01*
X110660582Y-6158078D01*
X110558768Y-6298211D01*
X110480128Y-6452552D01*
X110426597Y-6617302D01*
X110426185Y-6619905D01*
X110399500Y-6788389D01*
X110100500Y-6788389D01*
X110073402Y-6617299D01*
X110019873Y-6452555D01*
X109941232Y-6298212D01*
X109839414Y-6158072D01*
X109716928Y-6035586D01*
X109576788Y-5933768D01*
X109422445Y-5855127D01*
X109257701Y-5801598D01*
X109257699Y-5801597D01*
X109257698Y-5801597D01*
X109126271Y-5780781D01*
X109086611Y-5774500D01*
X108913389Y-5774500D01*
X108873728Y-5780781D01*
X108742302Y-5801597D01*
X108577552Y-5855128D01*
X108423211Y-5933768D01*
X108343256Y-5991859D01*
X108283072Y-6035586D01*
X108283070Y-6035588D01*
X108283069Y-6035588D01*
X108160588Y-6158069D01*
X108160588Y-6158070D01*
X108160586Y-6158072D01*
X108160582Y-6158078D01*
X108058768Y-6298211D01*
X107980128Y-6452552D01*
X107926597Y-6617302D01*
X107926185Y-6619905D01*
X107899500Y-6788389D01*
X107600500Y-6788389D01*
X107573402Y-6617299D01*
X107519873Y-6452555D01*
X107441232Y-6298212D01*
X107339414Y-6158072D01*
X107216928Y-6035586D01*
X107076788Y-5933768D01*
X106922445Y-5855127D01*
X106757701Y-5801598D01*
X106757699Y-5801597D01*
X106757698Y-5801597D01*
X106626271Y-5780781D01*
X106586611Y-5774500D01*
X106413389Y-5774500D01*
X106373728Y-5780781D01*
X106242302Y-5801597D01*
X106077552Y-5855128D01*
X105923211Y-5933768D01*
X105843256Y-5991859D01*
X105783072Y-6035586D01*
X105783070Y-6035588D01*
X105783069Y-6035588D01*
X105660588Y-6158069D01*
X105660581Y-6158078D01*
X105572992Y-6278632D01*
X105517662Y-6321298D01*
X105448049Y-6327276D01*
X105386254Y-6294670D01*
X105351897Y-6233831D01*
X105349317Y-6218347D01*
X105339506Y-6122303D01*
X105284358Y-5955880D01*
X105284356Y-5955875D01*
X105192315Y-5806654D01*
X105068345Y-5682684D01*
X104919124Y-5590643D01*
X104919119Y-5590641D01*
X104752697Y-5535494D01*
X104752690Y-5535493D01*
X104649986Y-5525000D01*
X104250000Y-5525000D01*
X104250000Y-6595854D01*
X104183343Y-6557370D01*
X104062535Y-6525000D01*
X103937465Y-6525000D01*
X103816657Y-6557370D01*
X103750000Y-6595854D01*
X103750000Y-5525000D01*
X103350028Y-5525000D01*
X103350012Y-5525001D01*
X103247302Y-5535494D01*
X103080880Y-5590641D01*
X103080875Y-5590643D01*
X102931654Y-5682684D01*
X102807684Y-5806654D01*
X102715643Y-5955875D01*
X102715641Y-5955880D01*
X102660494Y-6122302D01*
X102660493Y-6122309D01*
X102650000Y-6225013D01*
X97388049Y-6225013D01*
X97339418Y-6158078D01*
X97339414Y-6158072D01*
X97216928Y-6035586D01*
X97076788Y-5933768D01*
X96922445Y-5855127D01*
X96757701Y-5801598D01*
X96757699Y-5801597D01*
X96757698Y-5801597D01*
X96626271Y-5780781D01*
X96586611Y-5774500D01*
X96413389Y-5774500D01*
X96373728Y-5780781D01*
X96242302Y-5801597D01*
X96077552Y-5855128D01*
X95923211Y-5933768D01*
X95843256Y-5991859D01*
X95783072Y-6035586D01*
X95783070Y-6035588D01*
X95783069Y-6035588D01*
X95660588Y-6158069D01*
X95660588Y-6158070D01*
X95660586Y-6158072D01*
X95660582Y-6158078D01*
X95558768Y-6298211D01*
X95480128Y-6452552D01*
X95426597Y-6617302D01*
X95426185Y-6619905D01*
X95399500Y-6788389D01*
X95100500Y-6788389D01*
X95073402Y-6617299D01*
X95019873Y-6452555D01*
X94941232Y-6298212D01*
X94839414Y-6158072D01*
X94716928Y-6035586D01*
X94576788Y-5933768D01*
X94422445Y-5855127D01*
X94257701Y-5801598D01*
X94257699Y-5801597D01*
X94257698Y-5801597D01*
X94126271Y-5780781D01*
X94086611Y-5774500D01*
X93913389Y-5774500D01*
X93873728Y-5780781D01*
X93742302Y-5801597D01*
X93577552Y-5855128D01*
X93423211Y-5933768D01*
X93343256Y-5991859D01*
X93283072Y-6035586D01*
X93283070Y-6035588D01*
X93283069Y-6035588D01*
X93160588Y-6158069D01*
X93160588Y-6158070D01*
X93160586Y-6158072D01*
X93160582Y-6158078D01*
X93058768Y-6298211D01*
X92980128Y-6452552D01*
X92926597Y-6617302D01*
X92926185Y-6619905D01*
X92899500Y-6788389D01*
X92600500Y-6788389D01*
X92573402Y-6617299D01*
X92519873Y-6452555D01*
X92441232Y-6298212D01*
X92339414Y-6158072D01*
X92216928Y-6035586D01*
X92076788Y-5933768D01*
X91922445Y-5855127D01*
X91757701Y-5801598D01*
X91757699Y-5801597D01*
X91757698Y-5801597D01*
X91626271Y-5780781D01*
X91586611Y-5774500D01*
X91413389Y-5774500D01*
X91373728Y-5780781D01*
X91242302Y-5801597D01*
X91077552Y-5855128D01*
X90923211Y-5933768D01*
X90843256Y-5991859D01*
X90783072Y-6035586D01*
X90783070Y-6035588D01*
X90783069Y-6035588D01*
X90660588Y-6158069D01*
X90660581Y-6158078D01*
X90572992Y-6278632D01*
X90517662Y-6321298D01*
X90448049Y-6327276D01*
X90386254Y-6294670D01*
X90351897Y-6233831D01*
X90349317Y-6218347D01*
X90339506Y-6122303D01*
X90284358Y-5955880D01*
X90284356Y-5955875D01*
X90192315Y-5806654D01*
X90068345Y-5682684D01*
X89919124Y-5590643D01*
X89919119Y-5590641D01*
X89752697Y-5535494D01*
X89752690Y-5535493D01*
X89649986Y-5525000D01*
X89250000Y-5525000D01*
X89250000Y-6595854D01*
X89183343Y-6557370D01*
X89062535Y-6525000D01*
X88937465Y-6525000D01*
X88816657Y-6557370D01*
X88750000Y-6595854D01*
X88750000Y-5525000D01*
X88350028Y-5525000D01*
X88350012Y-5525001D01*
X88247302Y-5535494D01*
X88080880Y-5590641D01*
X88080875Y-5590643D01*
X87931654Y-5682684D01*
X87807684Y-5806654D01*
X87715643Y-5955875D01*
X87715641Y-5955880D01*
X87660494Y-6122302D01*
X87660493Y-6122309D01*
X87650000Y-6225013D01*
X78388049Y-6225013D01*
X78339418Y-6158078D01*
X78339414Y-6158072D01*
X78216928Y-6035586D01*
X78076788Y-5933768D01*
X77922445Y-5855127D01*
X77757701Y-5801598D01*
X77757699Y-5801597D01*
X77757698Y-5801597D01*
X77626271Y-5780781D01*
X77586611Y-5774500D01*
X77413389Y-5774500D01*
X77373728Y-5780781D01*
X77242302Y-5801597D01*
X77077552Y-5855128D01*
X76923211Y-5933768D01*
X76843256Y-5991859D01*
X76783072Y-6035586D01*
X76783070Y-6035588D01*
X76783069Y-6035588D01*
X76660588Y-6158069D01*
X76660588Y-6158070D01*
X76660586Y-6158072D01*
X76660582Y-6158078D01*
X76558768Y-6298211D01*
X76480128Y-6452552D01*
X76426597Y-6617302D01*
X76426185Y-6619905D01*
X76399500Y-6788389D01*
X76100500Y-6788389D01*
X76073402Y-6617299D01*
X76019873Y-6452555D01*
X75941232Y-6298212D01*
X75839414Y-6158072D01*
X75716928Y-6035586D01*
X75576788Y-5933768D01*
X75422445Y-5855127D01*
X75257701Y-5801598D01*
X75257699Y-5801597D01*
X75257698Y-5801597D01*
X75126271Y-5780781D01*
X75086611Y-5774500D01*
X74913389Y-5774500D01*
X74873728Y-5780781D01*
X74742302Y-5801597D01*
X74577552Y-5855128D01*
X74423211Y-5933768D01*
X74343256Y-5991859D01*
X74283072Y-6035586D01*
X74283070Y-6035588D01*
X74283069Y-6035588D01*
X74160588Y-6158069D01*
X74160588Y-6158070D01*
X74160586Y-6158072D01*
X74160582Y-6158078D01*
X74058768Y-6298211D01*
X73980128Y-6452552D01*
X73926597Y-6617302D01*
X73926185Y-6619905D01*
X73899500Y-6788389D01*
X73600500Y-6788389D01*
X73573402Y-6617299D01*
X73519873Y-6452555D01*
X73441232Y-6298212D01*
X73339414Y-6158072D01*
X73216928Y-6035586D01*
X73076788Y-5933768D01*
X72922445Y-5855127D01*
X72757701Y-5801598D01*
X72757699Y-5801597D01*
X72757698Y-5801597D01*
X72626271Y-5780781D01*
X72586611Y-5774500D01*
X72413389Y-5774500D01*
X72373728Y-5780781D01*
X72242302Y-5801597D01*
X72077552Y-5855128D01*
X71923211Y-5933768D01*
X71843256Y-5991859D01*
X71783072Y-6035586D01*
X71783070Y-6035588D01*
X71783069Y-6035588D01*
X71660588Y-6158069D01*
X71660581Y-6158078D01*
X71572992Y-6278632D01*
X71517662Y-6321298D01*
X71448049Y-6327276D01*
X71386254Y-6294670D01*
X71351897Y-6233831D01*
X71349317Y-6218347D01*
X71339506Y-6122303D01*
X71284358Y-5955880D01*
X71284356Y-5955875D01*
X71192315Y-5806654D01*
X71068345Y-5682684D01*
X70919124Y-5590643D01*
X70919119Y-5590641D01*
X70752697Y-5535494D01*
X70752690Y-5535493D01*
X70649986Y-5525000D01*
X70250000Y-5525000D01*
X70250000Y-6595854D01*
X70183343Y-6557370D01*
X70062535Y-6525000D01*
X69937465Y-6525000D01*
X69816657Y-6557370D01*
X69750000Y-6595854D01*
X69750000Y-5525000D01*
X69350028Y-5525000D01*
X69350012Y-5525001D01*
X69247302Y-5535494D01*
X69080880Y-5590641D01*
X69080875Y-5590643D01*
X68931654Y-5682684D01*
X68807684Y-5806654D01*
X68715643Y-5955875D01*
X68715641Y-5955880D01*
X68660494Y-6122302D01*
X68660493Y-6122309D01*
X68650000Y-6225013D01*
X59388049Y-6225013D01*
X59339418Y-6158078D01*
X59339414Y-6158072D01*
X59216928Y-6035586D01*
X59076788Y-5933768D01*
X58922445Y-5855127D01*
X58757701Y-5801598D01*
X58757699Y-5801597D01*
X58757698Y-5801597D01*
X58626271Y-5780781D01*
X58586611Y-5774500D01*
X58413389Y-5774500D01*
X58373728Y-5780781D01*
X58242302Y-5801597D01*
X58077552Y-5855128D01*
X57923211Y-5933768D01*
X57843256Y-5991859D01*
X57783072Y-6035586D01*
X57783070Y-6035588D01*
X57783069Y-6035588D01*
X57660588Y-6158069D01*
X57660588Y-6158070D01*
X57660586Y-6158072D01*
X57660582Y-6158078D01*
X57558768Y-6298211D01*
X57480128Y-6452552D01*
X57426597Y-6617302D01*
X57426185Y-6619905D01*
X57399500Y-6788389D01*
X57100500Y-6788389D01*
X57073402Y-6617299D01*
X57019873Y-6452555D01*
X56941232Y-6298212D01*
X56839414Y-6158072D01*
X56716928Y-6035586D01*
X56576788Y-5933768D01*
X56422445Y-5855127D01*
X56257701Y-5801598D01*
X56257699Y-5801597D01*
X56257698Y-5801597D01*
X56126271Y-5780781D01*
X56086611Y-5774500D01*
X55913389Y-5774500D01*
X55873728Y-5780781D01*
X55742302Y-5801597D01*
X55577552Y-5855128D01*
X55423211Y-5933768D01*
X55343256Y-5991859D01*
X55283072Y-6035586D01*
X55283070Y-6035588D01*
X55283069Y-6035588D01*
X55160588Y-6158069D01*
X55160588Y-6158070D01*
X55160586Y-6158072D01*
X55160582Y-6158078D01*
X55058768Y-6298211D01*
X54980128Y-6452552D01*
X54926597Y-6617302D01*
X54926185Y-6619905D01*
X54899500Y-6788389D01*
X54600500Y-6788389D01*
X54573402Y-6617299D01*
X54519873Y-6452555D01*
X54441232Y-6298212D01*
X54339414Y-6158072D01*
X54216928Y-6035586D01*
X54076788Y-5933768D01*
X53922445Y-5855127D01*
X53757701Y-5801598D01*
X53757699Y-5801597D01*
X53757698Y-5801597D01*
X53626271Y-5780781D01*
X53586611Y-5774500D01*
X53413389Y-5774500D01*
X53373728Y-5780781D01*
X53242302Y-5801597D01*
X53077552Y-5855128D01*
X52923211Y-5933768D01*
X52843256Y-5991859D01*
X52783072Y-6035586D01*
X52783070Y-6035588D01*
X52783069Y-6035588D01*
X52660588Y-6158069D01*
X52660581Y-6158078D01*
X52572992Y-6278632D01*
X52517662Y-6321298D01*
X52448049Y-6327276D01*
X52386254Y-6294670D01*
X52351897Y-6233831D01*
X52349317Y-6218347D01*
X52339506Y-6122303D01*
X52284358Y-5955880D01*
X52284356Y-5955875D01*
X52192315Y-5806654D01*
X52068345Y-5682684D01*
X51919124Y-5590643D01*
X51919119Y-5590641D01*
X51752697Y-5535494D01*
X51752690Y-5535493D01*
X51649986Y-5525000D01*
X51250000Y-5525000D01*
X51250000Y-6595854D01*
X51183343Y-6557370D01*
X51062535Y-6525000D01*
X50937465Y-6525000D01*
X50816657Y-6557370D01*
X50750000Y-6595854D01*
X50750000Y-5525000D01*
X50350028Y-5525000D01*
X50350012Y-5525001D01*
X50247302Y-5535494D01*
X50080880Y-5590641D01*
X50080875Y-5590643D01*
X49931654Y-5682684D01*
X49807684Y-5806654D01*
X49715643Y-5955875D01*
X49715641Y-5955880D01*
X49660494Y-6122302D01*
X49660493Y-6122309D01*
X49650000Y-6225013D01*
X40388049Y-6225013D01*
X40339418Y-6158078D01*
X40339414Y-6158072D01*
X40216928Y-6035586D01*
X40076788Y-5933768D01*
X39922445Y-5855127D01*
X39757701Y-5801598D01*
X39757699Y-5801597D01*
X39757698Y-5801597D01*
X39626271Y-5780781D01*
X39586611Y-5774500D01*
X39413389Y-5774500D01*
X39373728Y-5780781D01*
X39242302Y-5801597D01*
X39077552Y-5855128D01*
X38923211Y-5933768D01*
X38843256Y-5991859D01*
X38783072Y-6035586D01*
X38783070Y-6035588D01*
X38783069Y-6035588D01*
X38660588Y-6158069D01*
X38660588Y-6158070D01*
X38660586Y-6158072D01*
X38660582Y-6158078D01*
X38558768Y-6298211D01*
X38480128Y-6452552D01*
X38426597Y-6617302D01*
X38426185Y-6619905D01*
X38399500Y-6788389D01*
X38100500Y-6788389D01*
X38073402Y-6617299D01*
X38019873Y-6452555D01*
X37941232Y-6298212D01*
X37839414Y-6158072D01*
X37716928Y-6035586D01*
X37576788Y-5933768D01*
X37422445Y-5855127D01*
X37257701Y-5801598D01*
X37257699Y-5801597D01*
X37257698Y-5801597D01*
X37126271Y-5780781D01*
X37086611Y-5774500D01*
X36913389Y-5774500D01*
X36873728Y-5780781D01*
X36742302Y-5801597D01*
X36577552Y-5855128D01*
X36423211Y-5933768D01*
X36343256Y-5991859D01*
X36283072Y-6035586D01*
X36283070Y-6035588D01*
X36283069Y-6035588D01*
X36160588Y-6158069D01*
X36160588Y-6158070D01*
X36160586Y-6158072D01*
X36160582Y-6158078D01*
X36058768Y-6298211D01*
X35980128Y-6452552D01*
X35926597Y-6617302D01*
X35926185Y-6619905D01*
X35899500Y-6788389D01*
X35600500Y-6788389D01*
X35573402Y-6617299D01*
X35519873Y-6452555D01*
X35441232Y-6298212D01*
X35339414Y-6158072D01*
X35216928Y-6035586D01*
X35076788Y-5933768D01*
X34922445Y-5855127D01*
X34757701Y-5801598D01*
X34757699Y-5801597D01*
X34757698Y-5801597D01*
X34626271Y-5780781D01*
X34586611Y-5774500D01*
X34413389Y-5774500D01*
X34373728Y-5780781D01*
X34242302Y-5801597D01*
X34077552Y-5855128D01*
X33923211Y-5933768D01*
X33843256Y-5991859D01*
X33783072Y-6035586D01*
X33783070Y-6035588D01*
X33783069Y-6035588D01*
X33660588Y-6158069D01*
X33660581Y-6158078D01*
X33572992Y-6278632D01*
X33517662Y-6321298D01*
X33448049Y-6327276D01*
X33386254Y-6294670D01*
X33351897Y-6233831D01*
X33349317Y-6218347D01*
X33339506Y-6122303D01*
X33284358Y-5955880D01*
X33284356Y-5955875D01*
X33192315Y-5806654D01*
X33068345Y-5682684D01*
X32919124Y-5590643D01*
X32919119Y-5590641D01*
X32752697Y-5535494D01*
X32752690Y-5535493D01*
X32649986Y-5525000D01*
X32250000Y-5525000D01*
X32250000Y-6595854D01*
X32183343Y-6557370D01*
X32062535Y-6525000D01*
X31937465Y-6525000D01*
X31816657Y-6557370D01*
X31750000Y-6595854D01*
X31750000Y-5525000D01*
X31350028Y-5525000D01*
X31350012Y-5525001D01*
X31247302Y-5535494D01*
X31080880Y-5590641D01*
X31080875Y-5590643D01*
X30931654Y-5682684D01*
X30807684Y-5806654D01*
X30715643Y-5955875D01*
X30715641Y-5955880D01*
X30660494Y-6122302D01*
X30660493Y-6122309D01*
X30650000Y-6225013D01*
X21388049Y-6225013D01*
X21339418Y-6158078D01*
X21339414Y-6158072D01*
X21216928Y-6035586D01*
X21076788Y-5933768D01*
X20922445Y-5855127D01*
X20757701Y-5801598D01*
X20757699Y-5801597D01*
X20757698Y-5801597D01*
X20626271Y-5780781D01*
X20586611Y-5774500D01*
X20413389Y-5774500D01*
X20373728Y-5780781D01*
X20242302Y-5801597D01*
X20077552Y-5855128D01*
X19923211Y-5933768D01*
X19843256Y-5991859D01*
X19783072Y-6035586D01*
X19783070Y-6035588D01*
X19783069Y-6035588D01*
X19660588Y-6158069D01*
X19660588Y-6158070D01*
X19660586Y-6158072D01*
X19660582Y-6158078D01*
X19558768Y-6298211D01*
X19480128Y-6452552D01*
X19426597Y-6617302D01*
X19426185Y-6619905D01*
X19399500Y-6788389D01*
X19100500Y-6788389D01*
X19073402Y-6617299D01*
X19019873Y-6452555D01*
X18941232Y-6298212D01*
X18839414Y-6158072D01*
X18716928Y-6035586D01*
X18576788Y-5933768D01*
X18422445Y-5855127D01*
X18257701Y-5801598D01*
X18257699Y-5801597D01*
X18257698Y-5801597D01*
X18126271Y-5780781D01*
X18086611Y-5774500D01*
X17913389Y-5774500D01*
X17873728Y-5780781D01*
X17742302Y-5801597D01*
X17577552Y-5855128D01*
X17423211Y-5933768D01*
X17343256Y-5991859D01*
X17283072Y-6035586D01*
X17283070Y-6035588D01*
X17283069Y-6035588D01*
X17160588Y-6158069D01*
X17160588Y-6158070D01*
X17160586Y-6158072D01*
X17160582Y-6158078D01*
X17058768Y-6298211D01*
X16980128Y-6452552D01*
X16926597Y-6617302D01*
X16926185Y-6619905D01*
X16899500Y-6788389D01*
X16600500Y-6788389D01*
X16573402Y-6617299D01*
X16519873Y-6452555D01*
X16441232Y-6298212D01*
X16339414Y-6158072D01*
X16216928Y-6035586D01*
X16076788Y-5933768D01*
X15922445Y-5855127D01*
X15757701Y-5801598D01*
X15757699Y-5801597D01*
X15757698Y-5801597D01*
X15626271Y-5780781D01*
X15586611Y-5774500D01*
X15413389Y-5774500D01*
X15373728Y-5780781D01*
X15242302Y-5801597D01*
X15077552Y-5855128D01*
X14923211Y-5933768D01*
X14843256Y-5991859D01*
X14783072Y-6035586D01*
X14783070Y-6035588D01*
X14783069Y-6035588D01*
X14660588Y-6158069D01*
X14660581Y-6158078D01*
X14572992Y-6278632D01*
X14517662Y-6321298D01*
X14448049Y-6327276D01*
X14386254Y-6294670D01*
X14351897Y-6233831D01*
X14349317Y-6218347D01*
X14339506Y-6122303D01*
X14284358Y-5955880D01*
X14284356Y-5955875D01*
X14192315Y-5806654D01*
X14068345Y-5682684D01*
X13919124Y-5590643D01*
X13919119Y-5590641D01*
X13752697Y-5535494D01*
X13752690Y-5535493D01*
X13649986Y-5525000D01*
X13250000Y-5525000D01*
X13250000Y-6595854D01*
X13183343Y-6557370D01*
X13062535Y-6525000D01*
X12937465Y-6525000D01*
X12816657Y-6557370D01*
X12750000Y-6595854D01*
X12750000Y-5525000D01*
X12350028Y-5525000D01*
X12350012Y-5525001D01*
X12247302Y-5535494D01*
X12080880Y-5590641D01*
X12080875Y-5590643D01*
X11931654Y-5682684D01*
X11807684Y-5806654D01*
X11715643Y-5955875D01*
X11715641Y-5955880D01*
X11660494Y-6122302D01*
X11660493Y-6122309D01*
X11650000Y-6225013D01*
X600000Y-6225013D01*
X600000Y-3878711D01*
X2149500Y-3878711D01*
X2149500Y-4121288D01*
X2181161Y-4361785D01*
X2243947Y-4596104D01*
X2336773Y-4820205D01*
X2336776Y-4820212D01*
X2458064Y-5030289D01*
X2458066Y-5030292D01*
X2458067Y-5030293D01*
X2605733Y-5222736D01*
X2605739Y-5222743D01*
X2777256Y-5394260D01*
X2777262Y-5394265D01*
X2969711Y-5541936D01*
X3179788Y-5663224D01*
X3403900Y-5756054D01*
X3638211Y-5818838D01*
X3818586Y-5842584D01*
X3878711Y-5850500D01*
X3878712Y-5850500D01*
X4121289Y-5850500D01*
X4169388Y-5844167D01*
X4361789Y-5818838D01*
X4596100Y-5756054D01*
X4820212Y-5663224D01*
X5030289Y-5541936D01*
X5222738Y-5394265D01*
X5394265Y-5222738D01*
X5541936Y-5030289D01*
X5663224Y-4820212D01*
X5756054Y-4596100D01*
X5818838Y-4361789D01*
X5850500Y-4121288D01*
X5850500Y-3878712D01*
X5850500Y-3878711D01*
X119149500Y-3878711D01*
X119149500Y-4121288D01*
X119181161Y-4361785D01*
X119243947Y-4596104D01*
X119336773Y-4820205D01*
X119336776Y-4820212D01*
X119458064Y-5030289D01*
X119458066Y-5030292D01*
X119458067Y-5030293D01*
X119605733Y-5222736D01*
X119605739Y-5222743D01*
X119777256Y-5394260D01*
X119777262Y-5394265D01*
X119969711Y-5541936D01*
X120179788Y-5663224D01*
X120403900Y-5756054D01*
X120638211Y-5818838D01*
X120818586Y-5842584D01*
X120878711Y-5850500D01*
X120878712Y-5850500D01*
X121121289Y-5850500D01*
X121169388Y-5844167D01*
X121361789Y-5818838D01*
X121596100Y-5756054D01*
X121820212Y-5663224D01*
X122030289Y-5541936D01*
X122222738Y-5394265D01*
X122394265Y-5222738D01*
X122541936Y-5030289D01*
X122663224Y-4820212D01*
X122756054Y-4596100D01*
X122818838Y-4361789D01*
X122850500Y-4121288D01*
X122850500Y-3878712D01*
X122818838Y-3638211D01*
X122756054Y-3403900D01*
X122663224Y-3179788D01*
X122541936Y-2969711D01*
X122394265Y-2777262D01*
X122394260Y-2777256D01*
X122222743Y-2605739D01*
X122222736Y-2605733D01*
X122030293Y-2458067D01*
X122030292Y-2458066D01*
X122030289Y-2458064D01*
X121820212Y-2336776D01*
X121748044Y-2306883D01*
X121596104Y-2243947D01*
X121361785Y-2181161D01*
X121121289Y-2149500D01*
X121121288Y-2149500D01*
X120878712Y-2149500D01*
X120878711Y-2149500D01*
X120638214Y-2181161D01*
X120403895Y-2243947D01*
X120179794Y-2336773D01*
X120179785Y-2336777D01*
X119969706Y-2458067D01*
X119777263Y-2605733D01*
X119777256Y-2605739D01*
X119605739Y-2777256D01*
X119605733Y-2777263D01*
X119458067Y-2969706D01*
X119336777Y-3179785D01*
X119336773Y-3179794D01*
X119243947Y-3403895D01*
X119181161Y-3638214D01*
X119149500Y-3878711D01*
X5850500Y-3878711D01*
X5818838Y-3638211D01*
X5756054Y-3403900D01*
X5663224Y-3179788D01*
X5541936Y-2969711D01*
X5394265Y-2777262D01*
X5394260Y-2777256D01*
X5222743Y-2605739D01*
X5222736Y-2605733D01*
X5030293Y-2458067D01*
X5030292Y-2458066D01*
X5030289Y-2458064D01*
X4820212Y-2336776D01*
X4748044Y-2306883D01*
X4596104Y-2243947D01*
X4361785Y-2181161D01*
X4121289Y-2149500D01*
X4121288Y-2149500D01*
X3878712Y-2149500D01*
X3878711Y-2149500D01*
X3638214Y-2181161D01*
X3403895Y-2243947D01*
X3179794Y-2336773D01*
X3179785Y-2336777D01*
X2969706Y-2458067D01*
X2777263Y-2605733D01*
X2777256Y-2605739D01*
X2605739Y-2777256D01*
X2605733Y-2777263D01*
X2458067Y-2969706D01*
X2336777Y-3179785D01*
X2336773Y-3179794D01*
X2243947Y-3403895D01*
X2181161Y-3638214D01*
X2149500Y-3878711D01*
X600000Y-3878711D01*
X600000Y-2354333D01*
X609439Y-2306881D01*
X832859Y-1767494D01*
X849041Y-1739462D01*
X1225703Y-1248589D01*
X1248591Y-1225702D01*
X1739460Y-849043D01*
X1767488Y-832862D01*
X2306879Y-609438D01*
X2354331Y-600000D01*
X122645665Y-600000D01*
X122693116Y-609438D01*
G37*
%TD.AperFunction*%
%TD*%
M02*
