%TF.GenerationSoftware,KiCad,Pcbnew,10.0.5*%
%TF.CreationDate,2026-08-16T14:43:31-04:00*%
%TF.ProjectId,BU-22-Display-Controller-Rev-B,42552d32-322d-4446-9973-706c61792d43,rev?*%
%TF.SameCoordinates,Original*%
%TF.FileFunction,Soldermask,Top*%
%TF.FilePolarity,Negative*%
%FSLAX46Y46*%
G04 Gerber Fmt 4.6, Leading zero omitted, Abs format (unit mm)*
G04 Created by KiCad (PCBNEW 10.0.5) date 2026-08-16 14:43:31*
%MOMM*%
%LPD*%
G01*
G04 APERTURE LIST*
G04 Aperture macros list*
%AMRoundRect*
0 Rectangle with rounded corners*
0 $1 Rounding radius*
0 $2 $3 $4 $5 $6 $7 $8 $9 X,Y pos of 4 corners*
0 Add a 4 corners polygon primitive as box body*
4,1,4,$2,$3,$4,$5,$6,$7,$8,$9,$2,$3,0*
0 Add four circle primitives for the rounded corners*
1,1,$1+$1,$2,$3*
1,1,$1+$1,$4,$5*
1,1,$1+$1,$6,$7*
1,1,$1+$1,$8,$9*
0 Add four rect primitives between the rounded corners*
20,1,$1+$1,$2,$3,$4,$5,0*
20,1,$1+$1,$4,$5,$6,$7,0*
20,1,$1+$1,$6,$7,$8,$9,0*
20,1,$1+$1,$8,$9,$2,$3,0*%
G04 Aperture macros list end*
%ADD10C,3.200000*%
%ADD11RoundRect,0.250000X0.450000X-0.262500X0.450000X0.262500X-0.450000X0.262500X-0.450000X-0.262500X0*%
%ADD12R,1.050000X1.500000*%
%ADD13O,1.050000X1.500000*%
%ADD14RoundRect,0.250000X-0.600000X-0.725000X0.600000X-0.725000X0.600000X0.725000X-0.600000X0.725000X0*%
%ADD15O,1.700000X1.950000*%
%ADD16RoundRect,0.250000X-0.250000X-0.475000X0.250000X-0.475000X0.250000X0.475000X-0.250000X0.475000X0*%
%ADD17RoundRect,0.250000X-0.750000X-0.750000X0.750000X-0.750000X0.750000X0.750000X-0.750000X0.750000X0*%
%ADD18C,2.000000*%
%ADD19RoundRect,0.150000X-0.825000X-0.150000X0.825000X-0.150000X0.825000X0.150000X-0.825000X0.150000X0*%
%ADD20R,1.800000X1.800000*%
%ADD21C,1.800000*%
%ADD22RoundRect,0.150000X0.625000X-0.150000X0.625000X0.150000X-0.625000X0.150000X-0.625000X-0.150000X0*%
%ADD23RoundRect,0.250000X0.650000X-0.350000X0.650000X0.350000X-0.650000X0.350000X-0.650000X-0.350000X0*%
%ADD24RoundRect,0.250000X-0.550000X-0.550000X0.550000X-0.550000X0.550000X0.550000X-0.550000X0.550000X0*%
%ADD25C,1.600000*%
%ADD26R,1.700000X1.700000*%
%ADD27C,1.700000*%
%ADD28RoundRect,0.250000X0.625000X-0.350000X0.625000X0.350000X-0.625000X0.350000X-0.625000X-0.350000X0*%
%ADD29O,1.750000X1.200000*%
%ADD30RoundRect,0.250000X1.050000X-1.050000X1.050000X1.050000X-1.050000X1.050000X-1.050000X-1.050000X0*%
%ADD31C,2.600000*%
%ADD32C,0.350000*%
G04 APERTURE END LIST*
D10*
%TO.C,H3*%
X4000000Y-51000000D03*
%TD*%
D11*
%TO.C,R15*%
X46000000Y-28912500D03*
X46000000Y-27087500D03*
%TD*%
D12*
%TO.C,Q1*%
X49000000Y-31000000D03*
D13*
X50270000Y-31000000D03*
X51540000Y-31000000D03*
%TD*%
D14*
%TO.C,J5*%
X89000000Y-7000000D03*
D15*
X91500000Y-7000000D03*
X94000000Y-7000000D03*
X96500000Y-7000000D03*
%TD*%
D16*
%TO.C,C1*%
X21550000Y-28500000D03*
X23450000Y-28500000D03*
%TD*%
D10*
%TO.C,H4*%
X121000000Y-51000000D03*
%TD*%
D14*
%TO.C,J4*%
X70000000Y-7000000D03*
D15*
X72500000Y-7000000D03*
X75000000Y-7000000D03*
X77500000Y-7000000D03*
%TD*%
D11*
%TO.C,R5*%
X56000000Y-14912500D03*
X56000000Y-13087500D03*
%TD*%
D17*
%TO.C,C5*%
X116000000Y-32000000D03*
D18*
X121000000Y-32000000D03*
%TD*%
D19*
%TO.C,U2*%
X58025000Y-18690000D03*
X58025000Y-19960000D03*
X58025000Y-21230000D03*
X58025000Y-22500000D03*
X58025000Y-23770000D03*
X58025000Y-25040000D03*
X58025000Y-26310000D03*
X62975000Y-26310000D03*
X62975000Y-25040000D03*
X62975000Y-23770000D03*
X62975000Y-22500000D03*
X62975000Y-21230000D03*
X62975000Y-19960000D03*
X62975000Y-18690000D03*
%TD*%
D10*
%TO.C,H2*%
X121000000Y-4000000D03*
%TD*%
D20*
%TO.C,D1*%
X108000000Y-36000000D03*
D21*
X110540000Y-36000000D03*
%TD*%
D20*
%TO.C,D2*%
X31000000Y-47500000D03*
D21*
X33540000Y-47500000D03*
%TD*%
D11*
%TO.C,R8*%
X72500000Y-14912500D03*
X72500000Y-13087500D03*
%TD*%
%TO.C,R1*%
X18000000Y-14912500D03*
X18000000Y-13087500D03*
%TD*%
%TO.C,R6*%
X53500000Y-14912500D03*
X53500000Y-13087500D03*
%TD*%
%TO.C,R20*%
X35000000Y-42912500D03*
X35000000Y-41087500D03*
%TD*%
%TO.C,R10*%
X91500000Y-14912500D03*
X91500000Y-13087500D03*
%TD*%
%TO.C,R12*%
X106500000Y-14912500D03*
X106500000Y-13087500D03*
%TD*%
D16*
%TO.C,C3*%
X97550000Y-28500000D03*
X99450000Y-28500000D03*
%TD*%
D22*
%TO.C,J9*%
X15325000Y-37500000D03*
X15325000Y-36500000D03*
X15325000Y-35500000D03*
X15325000Y-34500000D03*
D23*
X12800000Y-38800000D03*
X12800000Y-33200000D03*
%TD*%
D11*
%TO.C,R4*%
X34500000Y-14912500D03*
X34500000Y-13087500D03*
%TD*%
%TO.C,R19*%
X114000000Y-43912500D03*
X114000000Y-42087500D03*
%TD*%
%TO.C,R14*%
X42000000Y-28912500D03*
X42000000Y-27087500D03*
%TD*%
D14*
%TO.C,J1*%
X13000000Y-7000000D03*
D15*
X15500000Y-7000000D03*
X18000000Y-7000000D03*
X20500000Y-7000000D03*
%TD*%
D11*
%TO.C,R2*%
X15500000Y-14912500D03*
X15500000Y-13087500D03*
%TD*%
D18*
%TO.C,SW1*%
X20000000Y-47500000D03*
X26500000Y-47500000D03*
X20000000Y-52000000D03*
X26500000Y-52000000D03*
%TD*%
D24*
%TO.C,C4*%
X108000000Y-28500000D03*
D25*
X110000000Y-28500000D03*
%TD*%
D16*
%TO.C,C2*%
X59550000Y-28500000D03*
X61450000Y-28500000D03*
%TD*%
D11*
%TO.C,R16*%
X39000000Y-42912500D03*
X39000000Y-41087500D03*
%TD*%
D19*
%TO.C,U1*%
X20025000Y-18690000D03*
X20025000Y-19960000D03*
X20025000Y-21230000D03*
X20025000Y-22500000D03*
X20025000Y-23770000D03*
X20025000Y-25040000D03*
X20025000Y-26310000D03*
X24975000Y-26310000D03*
X24975000Y-25040000D03*
X24975000Y-23770000D03*
X24975000Y-22500000D03*
X24975000Y-21230000D03*
X24975000Y-19960000D03*
X24975000Y-18690000D03*
%TD*%
D26*
%TO.C,MCU1A*%
X55000000Y-50500000D03*
D27*
X57540000Y-50500000D03*
X60080000Y-50500000D03*
X62620000Y-50500000D03*
X65160000Y-50500000D03*
X67700000Y-50500000D03*
X70240000Y-50500000D03*
X72780000Y-50500000D03*
X75320000Y-50500000D03*
X77860000Y-50500000D03*
X80400000Y-50500000D03*
X82940000Y-50500000D03*
X85480000Y-50500000D03*
%TD*%
D11*
%TO.C,R18*%
X47000000Y-42912500D03*
X47000000Y-41087500D03*
%TD*%
D28*
%TO.C,J10*%
X22000000Y-38500000D03*
D29*
X22000000Y-36500000D03*
X22000000Y-34500000D03*
X22000000Y-32500000D03*
%TD*%
D30*
%TO.C,J7*%
X119000000Y-20000000D03*
D31*
X119000000Y-14920000D03*
%TD*%
D19*
%TO.C,U3*%
X96025000Y-18690000D03*
X96025000Y-19960000D03*
X96025000Y-21230000D03*
X96025000Y-22500000D03*
X96025000Y-23770000D03*
X96025000Y-25040000D03*
X96025000Y-26310000D03*
X100975000Y-26310000D03*
X100975000Y-25040000D03*
X100975000Y-23770000D03*
X100975000Y-22500000D03*
X100975000Y-21230000D03*
X100975000Y-19960000D03*
X100975000Y-18690000D03*
%TD*%
D26*
%TO.C,MCU1B*%
X85480000Y-35260000D03*
D27*
X82940000Y-35260000D03*
X80400000Y-35260000D03*
X77860000Y-35260000D03*
X75320000Y-35260000D03*
X72780000Y-35260000D03*
X70240000Y-35260000D03*
X67700000Y-35260000D03*
X65160000Y-35260000D03*
X62620000Y-35260000D03*
X60080000Y-35260000D03*
X57540000Y-35260000D03*
X55000000Y-35260000D03*
%TD*%
D11*
%TO.C,R11*%
X109000000Y-14912500D03*
X109000000Y-13087500D03*
%TD*%
D22*
%TO.C,J8*%
X9325000Y-37500000D03*
X9325000Y-36500000D03*
X9325000Y-35500000D03*
X9325000Y-34500000D03*
D23*
X6800000Y-38800000D03*
X6800000Y-33200000D03*
%TD*%
D14*
%TO.C,J3*%
X51000000Y-7000000D03*
D15*
X53500000Y-7000000D03*
X56000000Y-7000000D03*
X58500000Y-7000000D03*
%TD*%
D11*
%TO.C,R7*%
X75000000Y-14912500D03*
X75000000Y-13087500D03*
%TD*%
%TO.C,R9*%
X94000000Y-14912500D03*
X94000000Y-13087500D03*
%TD*%
D10*
%TO.C,H1*%
X4000000Y-4000000D03*
%TD*%
D11*
%TO.C,R13*%
X38000000Y-28912500D03*
X38000000Y-27087500D03*
%TD*%
D18*
%TO.C,SW2*%
X9000000Y-47500000D03*
X15500000Y-47500000D03*
X9000000Y-52000000D03*
X15500000Y-52000000D03*
%TD*%
D11*
%TO.C,R3*%
X37000000Y-14912500D03*
X37000000Y-13087500D03*
%TD*%
D14*
%TO.C,J2*%
X32000000Y-7000000D03*
D15*
X34500000Y-7000000D03*
X37000000Y-7000000D03*
X39500000Y-7000000D03*
%TD*%
D14*
%TO.C,J6*%
X104000000Y-7000000D03*
D15*
X106500000Y-7000000D03*
X109000000Y-7000000D03*
X111500000Y-7000000D03*
%TD*%
D11*
%TO.C,R17*%
X43000000Y-42912500D03*
X43000000Y-41087500D03*
%TD*%
D26*
%TO.C,JP1*%
X43000000Y-48000000D03*
D27*
X45540000Y-48000000D03*
X43000000Y-50540000D03*
X45540000Y-50540000D03*
%TD*%
D28*
%TO.C,J11*%
X33000000Y-36000000D03*
D29*
X33000000Y-34000000D03*
%TD*%
D32*
X4000000Y-51000000D03*
X49000000Y-31000000D03*
X50270000Y-31000000D03*
X51540000Y-31000000D03*
X89000000Y-7000000D03*
X91500000Y-7000000D03*
X94000000Y-7000000D03*
X96500000Y-7000000D03*
X121000000Y-51000000D03*
X70000000Y-7000000D03*
X72500000Y-7000000D03*
X75000000Y-7000000D03*
X77500000Y-7000000D03*
X116000000Y-32000000D03*
X121000000Y-32000000D03*
X121000000Y-4000000D03*
X108000000Y-36000000D03*
X110540000Y-36000000D03*
X31000000Y-47500000D03*
X33540000Y-47500000D03*
X13000000Y-7000000D03*
X15500000Y-7000000D03*
X18000000Y-7000000D03*
X20500000Y-7000000D03*
X20000000Y-47500000D03*
X26500000Y-47500000D03*
X20000000Y-52000000D03*
X26500000Y-52000000D03*
X108000000Y-28500000D03*
X110000000Y-28500000D03*
X55000000Y-50500000D03*
X57540000Y-50500000D03*
X60080000Y-50500000D03*
X62620000Y-50500000D03*
X65160000Y-50500000D03*
X67700000Y-50500000D03*
X70240000Y-50500000D03*
X72780000Y-50500000D03*
X75320000Y-50500000D03*
X77860000Y-50500000D03*
X80400000Y-50500000D03*
X82940000Y-50500000D03*
X85480000Y-50500000D03*
X22000000Y-38500000D03*
X22000000Y-36500000D03*
X22000000Y-34500000D03*
X22000000Y-32500000D03*
X119000000Y-20000000D03*
X119000000Y-14920000D03*
X85480000Y-35260000D03*
X82940000Y-35260000D03*
X80400000Y-35260000D03*
X77860000Y-35260000D03*
X75320000Y-35260000D03*
X72780000Y-35260000D03*
X70240000Y-35260000D03*
X67700000Y-35260000D03*
X65160000Y-35260000D03*
X62620000Y-35260000D03*
X60080000Y-35260000D03*
X57540000Y-35260000D03*
X55000000Y-35260000D03*
X51000000Y-7000000D03*
X53500000Y-7000000D03*
X56000000Y-7000000D03*
X58500000Y-7000000D03*
X4000000Y-4000000D03*
X9000000Y-47500000D03*
X15500000Y-47500000D03*
X9000000Y-52000000D03*
X15500000Y-52000000D03*
X32000000Y-7000000D03*
X34500000Y-7000000D03*
X37000000Y-7000000D03*
X39500000Y-7000000D03*
X104000000Y-7000000D03*
X106500000Y-7000000D03*
X109000000Y-7000000D03*
X111500000Y-7000000D03*
X43000000Y-48000000D03*
X45540000Y-48000000D03*
X43000000Y-50540000D03*
X45540000Y-50540000D03*
X33000000Y-36000000D03*
X33000000Y-34000000D03*
M02*
