%TF.GenerationSoftware,KiCad,Pcbnew,10.0.5*%
%TF.CreationDate,2026-08-16T14:43:31-04:00*%
%TF.ProjectId,BU-22-Display-Controller-Rev-B,42552d32-322d-4446-9973-706c61792d43,rev?*%
%TF.SameCoordinates,Original*%
%TF.FileFunction,Copper,L1,Top*%
%TF.FilePolarity,Positive*%
%FSLAX46Y46*%
G04 Gerber Fmt 4.6, Leading zero omitted, Abs format (unit mm)*
G04 Created by KiCad (PCBNEW 10.0.5) date 2026-08-16 14:43:31*
%MOMM*%
%LPD*%
G01*
G04 APERTURE LIST*
G04 Aperture macros list*
%AMRoundRect*
0 Rectangle with rounded corners*
0 $1 Rounding radius*
0 $2 $3 $4 $5 $6 $7 $8 $9 X,Y pos of 4 corners*
0 Add a 4 corners polygon primitive as box body*
4,1,4,$2,$3,$4,$5,$6,$7,$8,$9,$2,$3,0*
0 Add four circle primitives for the rounded corners*
1,1,$1+$1,$2,$3*
1,1,$1+$1,$4,$5*
1,1,$1+$1,$6,$7*
1,1,$1+$1,$8,$9*
0 Add four rect primitives between the rounded corners*
20,1,$1+$1,$2,$3,$4,$5,0*
20,1,$1+$1,$4,$5,$6,$7,0*
20,1,$1+$1,$6,$7,$8,$9,0*
20,1,$1+$1,$8,$9,$2,$3,0*%
G04 Aperture macros list end*
%TA.AperFunction,SMDPad,CuDef*%
%ADD10RoundRect,0.250000X0.450000X-0.262500X0.450000X0.262500X-0.450000X0.262500X-0.450000X-0.262500X0*%
%TD*%
%TA.AperFunction,ComponentPad*%
%ADD11R,1.050000X1.500000*%
%TD*%
%TA.AperFunction,ComponentPad*%
%ADD12O,1.050000X1.500000*%
%TD*%
%TA.AperFunction,ComponentPad*%
%ADD13RoundRect,0.250000X-0.600000X-0.725000X0.600000X-0.725000X0.600000X0.725000X-0.600000X0.725000X0*%
%TD*%
%TA.AperFunction,ComponentPad*%
%ADD14O,1.700000X1.950000*%
%TD*%
%TA.AperFunction,SMDPad,CuDef*%
%ADD15RoundRect,0.250000X-0.250000X-0.475000X0.250000X-0.475000X0.250000X0.475000X-0.250000X0.475000X0*%
%TD*%
%TA.AperFunction,ComponentPad*%
%ADD16RoundRect,0.250000X-0.750000X-0.750000X0.750000X-0.750000X0.750000X0.750000X-0.750000X0.750000X0*%
%TD*%
%TA.AperFunction,ComponentPad*%
%ADD17C,2.000000*%
%TD*%
%TA.AperFunction,SMDPad,CuDef*%
%ADD18RoundRect,0.150000X-0.825000X-0.150000X0.825000X-0.150000X0.825000X0.150000X-0.825000X0.150000X0*%
%TD*%
%TA.AperFunction,ComponentPad*%
%ADD19R,1.800000X1.800000*%
%TD*%
%TA.AperFunction,ComponentPad*%
%ADD20C,1.800000*%
%TD*%
%TA.AperFunction,SMDPad,CuDef*%
%ADD21RoundRect,0.150000X0.625000X-0.150000X0.625000X0.150000X-0.625000X0.150000X-0.625000X-0.150000X0*%
%TD*%
%TA.AperFunction,SMDPad,CuDef*%
%ADD22RoundRect,0.250000X0.650000X-0.350000X0.650000X0.350000X-0.650000X0.350000X-0.650000X-0.350000X0*%
%TD*%
%TA.AperFunction,ComponentPad*%
%ADD23RoundRect,0.250000X-0.550000X-0.550000X0.550000X-0.550000X0.550000X0.550000X-0.550000X0.550000X0*%
%TD*%
%TA.AperFunction,ComponentPad*%
%ADD24C,1.600000*%
%TD*%
%TA.AperFunction,ComponentPad*%
%ADD25R,1.700000X1.700000*%
%TD*%
%TA.AperFunction,ComponentPad*%
%ADD26C,1.700000*%
%TD*%
%TA.AperFunction,ComponentPad*%
%ADD27RoundRect,0.250000X0.625000X-0.350000X0.625000X0.350000X-0.625000X0.350000X-0.625000X-0.350000X0*%
%TD*%
%TA.AperFunction,ComponentPad*%
%ADD28O,1.750000X1.200000*%
%TD*%
%TA.AperFunction,ComponentPad*%
%ADD29RoundRect,0.250000X1.050000X-1.050000X1.050000X1.050000X-1.050000X1.050000X-1.050000X-1.050000X0*%
%TD*%
%TA.AperFunction,ComponentPad*%
%ADD30C,2.600000*%
%TD*%
%TA.AperFunction,ViaPad*%
%ADD31C,0.600000*%
%TD*%
%TA.AperFunction,Conductor*%
%ADD32C,0.200000*%
%TD*%
%ADD33C,0.300000*%
%ADD34C,0.350000*%
G04 APERTURE END LIST*
D10*
%TO.P,R15,1*%
%TO.N,ENABLE_GPIO*%
X46000000Y-28912500D03*
%TO.P,R15,2*%
%TO.N,GND*%
X46000000Y-27087500D03*
%TD*%
D11*
%TO.P,Q1,1*%
%TO.N,GND*%
X49000000Y-31000000D03*
D12*
%TO.P,Q1,2*%
%TO.N,ENABLE_BASE*%
X50270000Y-31000000D03*
%TO.P,Q1,3*%
%TO.N,OE_N*%
X51540000Y-31000000D03*
%TD*%
D13*
%TO.P,J5,1*%
%TO.N,GND*%
X89000000Y-7000000D03*
D14*
%TO.P,J5,2*%
%TO.N,CH5_CLOCK_OUT*%
X91500000Y-7000000D03*
%TO.P,J5,3*%
%TO.N,CH5_DATA_OUT*%
X94000000Y-7000000D03*
%TO.P,J5,4*%
%TO.N,+5V*%
X96500000Y-7000000D03*
%TD*%
D15*
%TO.P,C1,1*%
%TO.N,+5V*%
X21550000Y-28500000D03*
%TO.P,C1,2*%
%TO.N,GND*%
X23450000Y-28500000D03*
%TD*%
D13*
%TO.P,J4,1*%
%TO.N,GND*%
X70000000Y-7000000D03*
D14*
%TO.P,J4,2*%
%TO.N,CH4_CLOCK_OUT*%
X72500000Y-7000000D03*
%TO.P,J4,3*%
%TO.N,CH4_DATA_OUT*%
X75000000Y-7000000D03*
%TO.P,J4,4*%
%TO.N,+5V*%
X77500000Y-7000000D03*
%TD*%
D10*
%TO.P,R5,1*%
%TO.N,CH3_DATA_5V*%
X56000000Y-14912500D03*
%TO.P,R5,2*%
%TO.N,CH3_DATA_OUT*%
X56000000Y-13087500D03*
%TD*%
D16*
%TO.P,C5,1*%
%TO.N,+5V*%
X116000000Y-32000000D03*
D17*
%TO.P,C5,2*%
%TO.N,GND*%
X121000000Y-32000000D03*
%TD*%
D18*
%TO.P,U2,1*%
%TO.N,OE_N*%
X58025000Y-18690000D03*
%TO.P,U2,2*%
%TO.N,CH3_DATA_3V3*%
X58025000Y-19960000D03*
%TO.P,U2,3*%
%TO.N,CH3_DATA_5V*%
X58025000Y-21230000D03*
%TO.P,U2,4*%
%TO.N,OE_N*%
X58025000Y-22500000D03*
%TO.P,U2,5*%
%TO.N,CH3_CLOCK_3V3*%
X58025000Y-23770000D03*
%TO.P,U2,6*%
%TO.N,CH3_CLOCK_5V*%
X58025000Y-25040000D03*
%TO.P,U2,7*%
%TO.N,GND*%
X58025000Y-26310000D03*
%TO.P,U2,8*%
%TO.N,CH4_DATA_5V*%
X62975000Y-26310000D03*
%TO.P,U2,9*%
%TO.N,CH4_DATA_3V3*%
X62975000Y-25040000D03*
%TO.P,U2,10*%
%TO.N,OE_N*%
X62975000Y-23770000D03*
%TO.P,U2,11*%
%TO.N,CH4_CLOCK_5V*%
X62975000Y-22500000D03*
%TO.P,U2,12*%
%TO.N,CH4_CLOCK_3V3*%
X62975000Y-21230000D03*
%TO.P,U2,13*%
%TO.N,OE_N*%
X62975000Y-19960000D03*
%TO.P,U2,14*%
%TO.N,+5V*%
X62975000Y-18690000D03*
%TD*%
D19*
%TO.P,D1,1*%
%TO.N,PWR_LED_A*%
X108000000Y-36000000D03*
D20*
%TO.P,D1,2*%
%TO.N,GND*%
X110540000Y-36000000D03*
%TD*%
D19*
%TO.P,D2,1*%
%TO.N,HEART_LED_A*%
X31000000Y-47500000D03*
D20*
%TO.P,D2,2*%
%TO.N,GND*%
X33540000Y-47500000D03*
%TD*%
D10*
%TO.P,R8,1*%
%TO.N,CH4_CLOCK_5V*%
X72500000Y-14912500D03*
%TO.P,R8,2*%
%TO.N,CH4_CLOCK_OUT*%
X72500000Y-13087500D03*
%TD*%
%TO.P,R1,1*%
%TO.N,CH1_DATA_5V*%
X18000000Y-14912500D03*
%TO.P,R1,2*%
%TO.N,CH1_DATA_OUT*%
X18000000Y-13087500D03*
%TD*%
%TO.P,R6,1*%
%TO.N,CH3_CLOCK_5V*%
X53500000Y-14912500D03*
%TO.P,R6,2*%
%TO.N,CH3_CLOCK_OUT*%
X53500000Y-13087500D03*
%TD*%
%TO.P,R20,1*%
%TO.N,HEARTBEAT*%
X35000000Y-42912500D03*
%TO.P,R20,2*%
%TO.N,HEART_LED_A*%
X35000000Y-41087500D03*
%TD*%
%TO.P,R10,1*%
%TO.N,CH5_CLOCK_5V*%
X91500000Y-14912500D03*
%TO.P,R10,2*%
%TO.N,CH5_CLOCK_OUT*%
X91500000Y-13087500D03*
%TD*%
%TO.P,R12,1*%
%TO.N,CH6_CLOCK_5V*%
X106500000Y-14912500D03*
%TO.P,R12,2*%
%TO.N,CH6_CLOCK_OUT*%
X106500000Y-13087500D03*
%TD*%
D15*
%TO.P,C3,1*%
%TO.N,+5V*%
X97550000Y-28500000D03*
%TO.P,C3,2*%
%TO.N,GND*%
X99450000Y-28500000D03*
%TD*%
D21*
%TO.P,J9,1*%
%TO.N,GND*%
X15325000Y-37500000D03*
%TO.P,J9,2*%
%TO.N,N/C*%
X15325000Y-36500000D03*
%TO.P,J9,3*%
%TO.N,SDA*%
X15325000Y-35500000D03*
%TO.P,J9,4*%
%TO.N,SCL*%
X15325000Y-34500000D03*
D22*
%TO.P,J9,MP*%
%TO.N,N/C*%
X12800000Y-38800000D03*
X12800000Y-33200000D03*
%TD*%
D10*
%TO.P,R4,1*%
%TO.N,CH2_CLOCK_5V*%
X34500000Y-14912500D03*
%TO.P,R4,2*%
%TO.N,CH2_CLOCK_OUT*%
X34500000Y-13087500D03*
%TD*%
%TO.P,R19,1*%
%TO.N,+5V*%
X114000000Y-43912500D03*
%TO.P,R19,2*%
%TO.N,PWR_LED_A*%
X114000000Y-42087500D03*
%TD*%
%TO.P,R14,1*%
%TO.N,ENABLE_GPIO*%
X42000000Y-28912500D03*
%TO.P,R14,2*%
%TO.N,ENABLE_BASE*%
X42000000Y-27087500D03*
%TD*%
D13*
%TO.P,J1,1*%
%TO.N,GND*%
X13000000Y-7000000D03*
D14*
%TO.P,J1,2*%
%TO.N,CH1_CLOCK_OUT*%
X15500000Y-7000000D03*
%TO.P,J1,3*%
%TO.N,CH1_DATA_OUT*%
X18000000Y-7000000D03*
%TO.P,J1,4*%
%TO.N,+5V*%
X20500000Y-7000000D03*
%TD*%
D10*
%TO.P,R2,1*%
%TO.N,CH1_CLOCK_5V*%
X15500000Y-14912500D03*
%TO.P,R2,2*%
%TO.N,CH1_CLOCK_OUT*%
X15500000Y-13087500D03*
%TD*%
D17*
%TO.P,SW1,1*%
%TO.N,TEST*%
X20000000Y-47500000D03*
X26500000Y-47500000D03*
%TO.P,SW1,2*%
%TO.N,GND*%
X20000000Y-52000000D03*
X26500000Y-52000000D03*
%TD*%
D23*
%TO.P,C4,1*%
%TO.N,+5V*%
X108000000Y-28500000D03*
D24*
%TO.P,C4,2*%
%TO.N,GND*%
X110000000Y-28500000D03*
%TD*%
D15*
%TO.P,C2,1*%
%TO.N,+5V*%
X59550000Y-28500000D03*
%TO.P,C2,2*%
%TO.N,GND*%
X61450000Y-28500000D03*
%TD*%
D10*
%TO.P,R16,1*%
%TO.N,3V3_LOCAL*%
X39000000Y-42912500D03*
%TO.P,R16,2*%
%TO.N,ADDRESS*%
X39000000Y-41087500D03*
%TD*%
D18*
%TO.P,U1,1*%
%TO.N,OE_N*%
X20025000Y-18690000D03*
%TO.P,U1,2*%
%TO.N,CH1_DATA_3V3*%
X20025000Y-19960000D03*
%TO.P,U1,3*%
%TO.N,CH1_DATA_5V*%
X20025000Y-21230000D03*
%TO.P,U1,4*%
%TO.N,OE_N*%
X20025000Y-22500000D03*
%TO.P,U1,5*%
%TO.N,CH1_CLOCK_3V3*%
X20025000Y-23770000D03*
%TO.P,U1,6*%
%TO.N,CH1_CLOCK_5V*%
X20025000Y-25040000D03*
%TO.P,U1,7*%
%TO.N,GND*%
X20025000Y-26310000D03*
%TO.P,U1,8*%
%TO.N,CH2_DATA_5V*%
X24975000Y-26310000D03*
%TO.P,U1,9*%
%TO.N,CH2_DATA_3V3*%
X24975000Y-25040000D03*
%TO.P,U1,10*%
%TO.N,OE_N*%
X24975000Y-23770000D03*
%TO.P,U1,11*%
%TO.N,CH2_CLOCK_5V*%
X24975000Y-22500000D03*
%TO.P,U1,12*%
%TO.N,CH2_CLOCK_3V3*%
X24975000Y-21230000D03*
%TO.P,U1,13*%
%TO.N,OE_N*%
X24975000Y-19960000D03*
%TO.P,U1,14*%
%TO.N,+5V*%
X24975000Y-18690000D03*
%TD*%
D25*
%TO.P,MCU1A,1*%
%TO.N,HEARTBEAT*%
X55000000Y-50500000D03*
D26*
%TO.P,MCU1A,2*%
%TO.N,ENABLE_GPIO*%
X57540000Y-50500000D03*
%TO.P,MCU1A,3*%
%TO.N,TEST*%
X60080000Y-50500000D03*
%TO.P,MCU1A,4*%
%TO.N,CH5_DATA_3V3*%
X62620000Y-50500000D03*
%TO.P,MCU1A,5*%
%TO.N,CH5_CLOCK_3V3*%
X65160000Y-50500000D03*
%TO.P,MCU1A,6*%
%TO.N,CH6_DATA_3V3*%
X67700000Y-50500000D03*
%TO.P,MCU1A,7*%
%TO.N,CH6_CLOCK_3V3*%
X70240000Y-50500000D03*
%TO.P,MCU1A,8*%
%TO.N,ADDRESS*%
X72780000Y-50500000D03*
%TO.P,MCU1A,9*%
%TO.N,3V3_LOCAL*%
X75320000Y-50500000D03*
%TO.P,MCU1A,10*%
%TO.N,RESET*%
X77860000Y-50500000D03*
%TO.P,MCU1A,11*%
%TO.N,GND*%
X80400000Y-50500000D03*
%TO.P,MCU1A,12*%
%TO.N,+5V*%
X82940000Y-50500000D03*
%TO.P,MCU1A,13*%
%TO.N,N/C*%
X85480000Y-50500000D03*
%TD*%
D10*
%TO.P,R18,1*%
%TO.N,ADDR_A1*%
X47000000Y-42912500D03*
%TO.P,R18,2*%
%TO.N,GND*%
X47000000Y-41087500D03*
%TD*%
D27*
%TO.P,J10,1*%
%TO.N,GND*%
X22000000Y-38500000D03*
D28*
%TO.P,J10,2*%
%TO.N,3V3_BRAIN*%
X22000000Y-36500000D03*
%TO.P,J10,3*%
%TO.N,SDA*%
X22000000Y-34500000D03*
%TO.P,J10,4*%
%TO.N,SCL*%
X22000000Y-32500000D03*
%TD*%
D29*
%TO.P,J7,1*%
%TO.N,+5V*%
X119000000Y-20000000D03*
D30*
%TO.P,J7,2*%
%TO.N,GND*%
X119000000Y-14920000D03*
%TD*%
D18*
%TO.P,U3,1*%
%TO.N,OE_N*%
X96025000Y-18690000D03*
%TO.P,U3,2*%
%TO.N,CH5_DATA_3V3*%
X96025000Y-19960000D03*
%TO.P,U3,3*%
%TO.N,CH5_DATA_5V*%
X96025000Y-21230000D03*
%TO.P,U3,4*%
%TO.N,OE_N*%
X96025000Y-22500000D03*
%TO.P,U3,5*%
%TO.N,CH5_CLOCK_3V3*%
X96025000Y-23770000D03*
%TO.P,U3,6*%
%TO.N,CH5_CLOCK_5V*%
X96025000Y-25040000D03*
%TO.P,U3,7*%
%TO.N,GND*%
X96025000Y-26310000D03*
%TO.P,U3,8*%
%TO.N,CH6_DATA_5V*%
X100975000Y-26310000D03*
%TO.P,U3,9*%
%TO.N,CH6_DATA_3V3*%
X100975000Y-25040000D03*
%TO.P,U3,10*%
%TO.N,OE_N*%
X100975000Y-23770000D03*
%TO.P,U3,11*%
%TO.N,CH6_CLOCK_5V*%
X100975000Y-22500000D03*
%TO.P,U3,12*%
%TO.N,CH6_CLOCK_3V3*%
X100975000Y-21230000D03*
%TO.P,U3,13*%
%TO.N,OE_N*%
X100975000Y-19960000D03*
%TO.P,U3,14*%
%TO.N,+5V*%
X100975000Y-18690000D03*
%TD*%
D25*
%TO.P,MCU1B,1*%
%TO.N,N/C*%
X85480000Y-35260000D03*
D26*
%TO.P,MCU1B,2*%
%TO.N,SDA*%
X82940000Y-35260000D03*
%TO.P,MCU1B,3*%
%TO.N,SCL*%
X80400000Y-35260000D03*
%TO.P,MCU1B,4*%
%TO.N,GND*%
X77860000Y-35260000D03*
%TO.P,MCU1B,5*%
X75320000Y-35260000D03*
%TO.P,MCU1B,6*%
%TO.N,CH1_DATA_3V3*%
X72780000Y-35260000D03*
%TO.P,MCU1B,7*%
%TO.N,CH1_CLOCK_3V3*%
X70240000Y-35260000D03*
%TO.P,MCU1B,8*%
%TO.N,CH2_DATA_3V3*%
X67700000Y-35260000D03*
%TO.P,MCU1B,9*%
%TO.N,CH2_CLOCK_3V3*%
X65160000Y-35260000D03*
%TO.P,MCU1B,10*%
%TO.N,CH3_DATA_3V3*%
X62620000Y-35260000D03*
%TO.P,MCU1B,11*%
%TO.N,CH3_CLOCK_3V3*%
X60080000Y-35260000D03*
%TO.P,MCU1B,12*%
%TO.N,CH4_DATA_3V3*%
X57540000Y-35260000D03*
%TO.P,MCU1B,13*%
%TO.N,CH4_CLOCK_3V3*%
X55000000Y-35260000D03*
%TD*%
D10*
%TO.P,R11,1*%
%TO.N,CH6_DATA_5V*%
X109000000Y-14912500D03*
%TO.P,R11,2*%
%TO.N,CH6_DATA_OUT*%
X109000000Y-13087500D03*
%TD*%
D21*
%TO.P,J8,1*%
%TO.N,GND*%
X9325000Y-37500000D03*
%TO.P,J8,2*%
%TO.N,3V3_BRAIN*%
X9325000Y-36500000D03*
%TO.P,J8,3*%
%TO.N,SDA*%
X9325000Y-35500000D03*
%TO.P,J8,4*%
%TO.N,SCL*%
X9325000Y-34500000D03*
D22*
%TO.P,J8,MP*%
%TO.N,N/C*%
X6800000Y-38800000D03*
X6800000Y-33200000D03*
%TD*%
D13*
%TO.P,J3,1*%
%TO.N,GND*%
X51000000Y-7000000D03*
D14*
%TO.P,J3,2*%
%TO.N,CH3_CLOCK_OUT*%
X53500000Y-7000000D03*
%TO.P,J3,3*%
%TO.N,CH3_DATA_OUT*%
X56000000Y-7000000D03*
%TO.P,J3,4*%
%TO.N,+5V*%
X58500000Y-7000000D03*
%TD*%
D10*
%TO.P,R7,1*%
%TO.N,CH4_DATA_5V*%
X75000000Y-14912500D03*
%TO.P,R7,2*%
%TO.N,CH4_DATA_OUT*%
X75000000Y-13087500D03*
%TD*%
%TO.P,R9,1*%
%TO.N,CH5_DATA_5V*%
X94000000Y-14912500D03*
%TO.P,R9,2*%
%TO.N,CH5_DATA_OUT*%
X94000000Y-13087500D03*
%TD*%
%TO.P,R13,1*%
%TO.N,+5V*%
X38000000Y-28912500D03*
%TO.P,R13,2*%
%TO.N,OE_N*%
X38000000Y-27087500D03*
%TD*%
D17*
%TO.P,SW2,1*%
%TO.N,RESET*%
X9000000Y-47500000D03*
X15500000Y-47500000D03*
%TO.P,SW2,2*%
%TO.N,GND*%
X9000000Y-52000000D03*
X15500000Y-52000000D03*
%TD*%
D10*
%TO.P,R3,1*%
%TO.N,CH2_DATA_5V*%
X37000000Y-14912500D03*
%TO.P,R3,2*%
%TO.N,CH2_DATA_OUT*%
X37000000Y-13087500D03*
%TD*%
D13*
%TO.P,J2,1*%
%TO.N,GND*%
X32000000Y-7000000D03*
D14*
%TO.P,J2,2*%
%TO.N,CH2_CLOCK_OUT*%
X34500000Y-7000000D03*
%TO.P,J2,3*%
%TO.N,CH2_DATA_OUT*%
X37000000Y-7000000D03*
%TO.P,J2,4*%
%TO.N,+5V*%
X39500000Y-7000000D03*
%TD*%
D13*
%TO.P,J6,1*%
%TO.N,GND*%
X104000000Y-7000000D03*
D14*
%TO.P,J6,2*%
%TO.N,CH6_CLOCK_OUT*%
X106500000Y-7000000D03*
%TO.P,J6,3*%
%TO.N,CH6_DATA_OUT*%
X109000000Y-7000000D03*
%TO.P,J6,4*%
%TO.N,+5V*%
X111500000Y-7000000D03*
%TD*%
D10*
%TO.P,R17,1*%
%TO.N,ADDR_A0*%
X43000000Y-42912500D03*
%TO.P,R17,2*%
%TO.N,GND*%
X43000000Y-41087500D03*
%TD*%
D25*
%TO.P,JP1,1*%
%TO.N,ADDRESS*%
X43000000Y-48000000D03*
D26*
%TO.P,JP1,2*%
%TO.N,ADDR_A0*%
X45540000Y-48000000D03*
%TO.P,JP1,3*%
%TO.N,ADDRESS*%
X43000000Y-50540000D03*
%TO.P,JP1,4*%
%TO.N,ADDR_A1*%
X45540000Y-50540000D03*
%TD*%
D27*
%TO.P,J11,1*%
%TO.N,GND*%
X33000000Y-36000000D03*
D28*
%TO.P,J11,2*%
%TO.N,HEARTBEAT*%
X33000000Y-34000000D03*
%TD*%
D31*
%TO.N,ENABLE_GPIO*%
X47967500Y-29601100D03*
%TO.N,GND*%
X21974800Y-26910500D03*
X48324400Y-27549800D03*
%TO.N,ENABLE_BASE*%
X43658000Y-27533600D03*
%TO.N,OE_N*%
X64460100Y-24137100D03*
X94501600Y-22500000D03*
X39221100Y-27004700D03*
X56540000Y-22500000D03*
%TO.N,+5V*%
X40024500Y-28062500D03*
X112787300Y-43912500D03*
X99463300Y-18595500D03*
X23525700Y-18214300D03*
X96542300Y-27781400D03*
X62194200Y-17885400D03*
%TO.N,CH3_DATA_3V3*%
X59511300Y-19960000D03*
%TO.N,CH3_CLOCK_3V3*%
X60125700Y-23960400D03*
%TO.N,CH4_CLOCK_3V3*%
X61524400Y-21702700D03*
%TO.N,HEARTBEAT*%
X33795900Y-42500000D03*
%TO.N,3V3_LOCAL*%
X40216100Y-43129100D03*
%TO.N,CH1_DATA_3V3*%
X21509800Y-20824500D03*
%TO.N,CH1_CLOCK_3V3*%
X21502300Y-23770000D03*
%TO.N,CH2_DATA_3V3*%
X26487100Y-24839800D03*
%TO.N,CH2_CLOCK_3V3*%
X26435000Y-21689000D03*
%TO.N,CH5_DATA_3V3*%
X94534200Y-19982500D03*
%TO.N,CH5_CLOCK_3V3*%
X97308300Y-24395600D03*
%TO.N,CH6_DATA_3V3*%
X74822500Y-25675000D03*
%TO.N,CH6_CLOCK_3V3*%
X78598300Y-47836700D03*
X99461600Y-21230000D03*
%TO.N,3V3_BRAIN*%
X10604100Y-36500000D03*
%TD*%
%TO.N,ENABLE_GPIO*%
D32*
X46688600Y-29601100D02*
X47967500Y-29601100D01*
X46000000Y-28912500D02*
X46688600Y-29601100D01*
X42000000Y-28912500D02*
X46000000Y-28912500D01*
%TO.N,GND*%
X98401600Y-26310000D02*
X99450000Y-27358400D01*
X99450000Y-27358400D02*
X108858400Y-27358400D01*
X49000000Y-31000000D02*
X48173300Y-31000000D01*
X58025000Y-26310000D02*
X46777500Y-26310000D01*
X59260000Y-26310000D02*
X58025000Y-26310000D01*
X99450000Y-27358400D02*
X99450000Y-28500000D01*
X43000000Y-36000000D02*
X43000000Y-41087500D01*
X15325000Y-37500000D02*
X21000000Y-37500000D01*
X21000000Y-37500000D02*
X22000000Y-38500000D01*
X48324400Y-27549800D02*
X47862100Y-27087500D01*
X96025000Y-26310000D02*
X98401600Y-26310000D01*
X9325000Y-37500000D02*
X15325000Y-37500000D01*
X61450000Y-28500000D02*
X59260000Y-26310000D01*
X43173300Y-36000000D02*
X48173300Y-31000000D01*
X108858400Y-27358400D02*
X110000000Y-28500000D01*
X43000000Y-36000000D02*
X43173300Y-36000000D01*
X46777500Y-26310000D02*
X46000000Y-27087500D01*
X21974800Y-27024800D02*
X23450000Y-28500000D01*
X21974800Y-26910500D02*
X21974800Y-27024800D01*
X20625500Y-26910500D02*
X20025000Y-26310000D01*
X33000000Y-36000000D02*
X43000000Y-36000000D01*
X21974800Y-26910500D02*
X20625500Y-26910500D01*
X43000000Y-41087500D02*
X47000000Y-41087500D01*
X47862100Y-27087500D02*
X46000000Y-27087500D01*
%TO.N,ENABLE_BASE*%
X42446100Y-27533600D02*
X42000000Y-27087500D01*
X43658000Y-27533600D02*
X42446100Y-27533600D01*
%TO.N,OE_N*%
X24300000Y-19960000D02*
X23030000Y-18690000D01*
X62179500Y-23770000D02*
X62975000Y-23770000D01*
X23030000Y-18690000D02*
X20025000Y-18690000D01*
X23679400Y-22871200D02*
X24578200Y-23770000D01*
X24975000Y-19960000D02*
X24773000Y-19960000D01*
X96377200Y-18690000D02*
X98344000Y-20656700D01*
X58025000Y-22500000D02*
X60909500Y-22500000D01*
X23679400Y-20910900D02*
X23679400Y-22500000D01*
X96367500Y-22500000D02*
X96500700Y-22500000D01*
X24773000Y-19960000D02*
X24630300Y-19960000D01*
X97750600Y-23770000D02*
X100975000Y-23770000D01*
X24578200Y-23770000D02*
X24746900Y-23770000D01*
X24746900Y-23770000D02*
X24975000Y-23770000D01*
X24630300Y-19960000D02*
X23679400Y-20910900D01*
X24095500Y-27087500D02*
X38000000Y-27087500D01*
X99973000Y-19960000D02*
X100975000Y-19960000D01*
X60909500Y-22500000D02*
X60909500Y-21430500D01*
X61415000Y-20925000D02*
X62380000Y-19960000D01*
X98637400Y-20363300D02*
X99569700Y-20363300D01*
X96025000Y-22500000D02*
X94501600Y-22500000D01*
X23679400Y-22500000D02*
X20025000Y-22500000D01*
X98344000Y-20656700D02*
X98637400Y-20363300D01*
X96025000Y-18690000D02*
X96377200Y-18690000D01*
X63342100Y-24137100D02*
X62975000Y-23770000D01*
X60909500Y-21430500D02*
X61415000Y-20925000D01*
X96500700Y-22500000D02*
X98344000Y-20656700D01*
X56540000Y-22500000D02*
X58025000Y-22500000D01*
X59180000Y-18690000D02*
X61415000Y-20925000D01*
X23643400Y-26635400D02*
X24095500Y-27087500D01*
X58025000Y-18690000D02*
X59180000Y-18690000D01*
X24523100Y-23770000D02*
X23643400Y-24649700D01*
X23679400Y-22500000D02*
X23679400Y-22871200D01*
X96025000Y-22500000D02*
X96367500Y-22500000D01*
X24746900Y-23770000D02*
X24523100Y-23770000D01*
X99569700Y-20363300D02*
X99973000Y-19960000D01*
X96480600Y-22500000D02*
X97750600Y-23770000D01*
X64460100Y-24137100D02*
X63342100Y-24137100D01*
X23643400Y-24649700D02*
X23643400Y-26635400D01*
X62380000Y-19960000D02*
X62975000Y-19960000D01*
X38082800Y-27004700D02*
X38000000Y-27087500D01*
X96367500Y-22500000D02*
X96480600Y-22500000D01*
X24773000Y-19960000D02*
X24300000Y-19960000D01*
X60909500Y-22500000D02*
X62179500Y-23770000D01*
X39221100Y-27004700D02*
X38082800Y-27004700D01*
%TO.N,CH5_CLOCK_OUT*%
X91500000Y-7000000D02*
X91500000Y-13087500D01*
%TO.N,CH5_DATA_OUT*%
X94000000Y-7000000D02*
X94000000Y-13087500D01*
%TO.N,+5V*%
X24499300Y-18214300D02*
X24975000Y-18690000D01*
X62975000Y-18666200D02*
X62194200Y-17885400D01*
X40024500Y-28062500D02*
X43336100Y-28062500D01*
X62975000Y-18690000D02*
X62975000Y-18666200D01*
X100880500Y-18595500D02*
X100975000Y-18690000D01*
X21550000Y-28500000D02*
X22599000Y-29549000D01*
X99463300Y-18595500D02*
X100880500Y-18595500D01*
X38000000Y-28912500D02*
X38850000Y-28062500D01*
X22599000Y-29549000D02*
X37363500Y-29549000D01*
X23525700Y-18214300D02*
X24499300Y-18214300D01*
X114000000Y-43912500D02*
X112787300Y-43912500D01*
X43907200Y-28135300D02*
X43980000Y-28062500D01*
X96831400Y-27781400D02*
X97550000Y-28500000D01*
X38850000Y-28062500D02*
X40024500Y-28062500D01*
X96542300Y-27781400D02*
X96831400Y-27781400D01*
X37363500Y-29549000D02*
X38000000Y-28912500D01*
X43980000Y-28062500D02*
X47986300Y-28062500D01*
X48423800Y-28500000D02*
X59550000Y-28500000D01*
X43336100Y-28062500D02*
X43408900Y-28135300D01*
X47986300Y-28062500D02*
X48423800Y-28500000D01*
X43408900Y-28135300D02*
X43907200Y-28135300D01*
%TO.N,CH4_CLOCK_OUT*%
X72500000Y-7000000D02*
X72500000Y-13087500D01*
%TO.N,CH4_DATA_OUT*%
X75000000Y-7000000D02*
X75000000Y-13087500D01*
%TO.N,CH3_DATA_5V*%
X58025000Y-21230000D02*
X57611100Y-21230000D01*
X57611100Y-21230000D02*
X56000000Y-19618900D01*
X56000000Y-19618900D02*
X56000000Y-14912500D01*
%TO.N,CH3_DATA_OUT*%
X56000000Y-7000000D02*
X56000000Y-13087500D01*
%TO.N,CH3_DATA_3V3*%
X59511300Y-19960000D02*
X58025000Y-19960000D01*
%TO.N,CH3_CLOCK_3V3*%
X60125700Y-23960400D02*
X59935300Y-23770000D01*
X59935300Y-23770000D02*
X58025000Y-23770000D01*
%TO.N,CH3_CLOCK_5V*%
X58025000Y-25040000D02*
X57626300Y-25040000D01*
X53500000Y-20913700D02*
X53500000Y-14912500D01*
X57626300Y-25040000D02*
X53500000Y-20913700D01*
%TO.N,CH4_DATA_5V*%
X63602500Y-26310000D02*
X75000000Y-14912500D01*
X62975000Y-26310000D02*
X63602500Y-26310000D01*
%TO.N,CH4_DATA_3V3*%
X62628600Y-25040000D02*
X62975000Y-25040000D01*
X61662400Y-26750500D02*
X61662400Y-26006200D01*
X61662400Y-26006200D02*
X62628600Y-25040000D01*
X62282700Y-30517300D02*
X62282700Y-27370800D01*
X62282700Y-27370800D02*
X61662400Y-26750500D01*
X57540000Y-35260000D02*
X62282700Y-30517300D01*
%TO.N,CH4_CLOCK_5V*%
X62975000Y-22500000D02*
X64912500Y-22500000D01*
X64912500Y-22500000D02*
X72500000Y-14912500D01*
%TO.N,CH4_CLOCK_3V3*%
X62502300Y-21702700D02*
X61524400Y-21702700D01*
X62975000Y-21230000D02*
X62502300Y-21702700D01*
%TO.N,PWR_LED_A*%
X108000000Y-37201700D02*
X109114200Y-37201700D01*
X109114200Y-37201700D02*
X114000000Y-42087500D01*
X108000000Y-36000000D02*
X108000000Y-37201700D01*
%TO.N,HEART_LED_A*%
X31000000Y-47500000D02*
X31000000Y-44441400D01*
X34353900Y-41087500D02*
X35000000Y-41087500D01*
X31000000Y-44441400D02*
X34353900Y-41087500D01*
%TO.N,CH1_DATA_5V*%
X19611100Y-21230000D02*
X18000000Y-19618900D01*
X20025000Y-21230000D02*
X19611100Y-21230000D01*
X18000000Y-19618900D02*
X18000000Y-14912500D01*
%TO.N,CH1_DATA_OUT*%
X18000000Y-7000000D02*
X18000000Y-13087500D01*
%TO.N,CH3_CLOCK_OUT*%
X53500000Y-7000000D02*
X53500000Y-13087500D01*
%TO.N,HEARTBEAT*%
X35000000Y-42912500D02*
X34587500Y-42500000D01*
X34587500Y-42500000D02*
X33795900Y-42500000D01*
%TO.N,CH5_CLOCK_5V*%
X91500000Y-20873500D02*
X95666500Y-25040000D01*
X95666500Y-25040000D02*
X96025000Y-25040000D01*
X91500000Y-14912500D02*
X91500000Y-20873500D01*
%TO.N,CH6_CLOCK_5V*%
X101373700Y-22500000D02*
X106500000Y-17373700D01*
X100975000Y-22500000D02*
X101373700Y-22500000D01*
X106500000Y-17373700D02*
X106500000Y-14912500D01*
%TO.N,CH6_CLOCK_OUT*%
X106500000Y-7000000D02*
X106500000Y-13087500D01*
%TO.N,SDA*%
X22000000Y-34500000D02*
X22000000Y-35401700D01*
X9325000Y-35500000D02*
X15325000Y-35500000D01*
X22000000Y-35401700D02*
X15423300Y-35401700D01*
X15423300Y-35401700D02*
X15325000Y-35500000D01*
%TO.N,SCL*%
X22000000Y-32500000D02*
X17325000Y-32500000D01*
X17325000Y-32500000D02*
X15325000Y-34500000D01*
X9325000Y-34500000D02*
X15325000Y-34500000D01*
%TO.N,CH2_CLOCK_5V*%
X24975000Y-22500000D02*
X26912500Y-22500000D01*
X26912500Y-22500000D02*
X34500000Y-14912500D01*
%TO.N,CH2_CLOCK_OUT*%
X34500000Y-7000000D02*
X34500000Y-13087500D01*
%TO.N,CH1_CLOCK_OUT*%
X15500000Y-7000000D02*
X15500000Y-13087500D01*
%TO.N,CH1_CLOCK_5V*%
X15500000Y-20913700D02*
X15500000Y-14912500D01*
X19626300Y-25040000D02*
X15500000Y-20913700D01*
X20025000Y-25040000D02*
X19626300Y-25040000D01*
%TO.N,3V3_LOCAL*%
X40216100Y-43129100D02*
X39216600Y-43129100D01*
X39216600Y-43129100D02*
X39000000Y-42912500D01*
%TO.N,ADDRESS*%
X43000000Y-45003400D02*
X39084100Y-41087500D01*
X43000000Y-48000000D02*
X43000000Y-45003400D01*
X39084100Y-41087500D02*
X39000000Y-41087500D01*
%TO.N,CH1_DATA_3V3*%
X21509800Y-20824500D02*
X20645300Y-19960000D01*
X20645300Y-19960000D02*
X20025000Y-19960000D01*
%TO.N,CH1_CLOCK_3V3*%
X21502300Y-23770000D02*
X20025000Y-23770000D01*
%TO.N,CH2_DATA_5V*%
X24975000Y-26310000D02*
X25894800Y-26310000D01*
X25894800Y-26310000D02*
X37000000Y-15204800D01*
X37000000Y-15204800D02*
X37000000Y-14912500D01*
%TO.N,CH2_DATA_3V3*%
X25175200Y-24839800D02*
X24975000Y-25040000D01*
X26487100Y-24839800D02*
X25175200Y-24839800D01*
%TO.N,CH2_CLOCK_3V3*%
X26435000Y-21689000D02*
X25434000Y-21689000D01*
X25434000Y-21689000D02*
X24975000Y-21230000D01*
%TO.N,CH5_DATA_3V3*%
X96002500Y-19982500D02*
X96025000Y-19960000D01*
X94534200Y-19982500D02*
X96002500Y-19982500D01*
%TO.N,CH5_CLOCK_3V3*%
X96682700Y-23770000D02*
X97308300Y-24395600D01*
X96025000Y-23770000D02*
X96682700Y-23770000D01*
%TO.N,CH6_DATA_3V3*%
X100340000Y-25675000D02*
X74822500Y-25675000D01*
X100975000Y-25040000D02*
X100340000Y-25675000D01*
%TO.N,CH6_CLOCK_3V3*%
X100975000Y-21230000D02*
X99461600Y-21230000D01*
%TO.N,ADDR_A1*%
X45540000Y-50540000D02*
X47000000Y-49080000D01*
X47000000Y-49080000D02*
X47000000Y-42912500D01*
%TO.N,3V3_BRAIN*%
X10604100Y-36500000D02*
X9325000Y-36500000D01*
%TO.N,CH5_DATA_5V*%
X93900100Y-15012400D02*
X93900100Y-20202100D01*
X94000000Y-14912500D02*
X93900100Y-15012400D01*
X94928000Y-21230000D02*
X96025000Y-21230000D01*
X93900100Y-20202100D02*
X94928000Y-21230000D01*
%TO.N,CH6_DATA_5V*%
X109000000Y-18704000D02*
X109000000Y-14912500D01*
X101394000Y-26310000D02*
X109000000Y-18704000D01*
X100975000Y-26310000D02*
X101394000Y-26310000D01*
%TO.N,CH6_DATA_OUT*%
X109000000Y-7000000D02*
X109000000Y-13087500D01*
%TO.N,CH2_DATA_OUT*%
X37000000Y-7000000D02*
X37000000Y-13087500D01*
%TO.N,ADDR_A0*%
X45540000Y-45452500D02*
X43000000Y-42912500D01*
X45540000Y-48000000D02*
X45540000Y-45452500D01*
%TD*%
D33*
X47967500Y-29601100D03*
X21974800Y-26910500D03*
X48324400Y-27549800D03*
X43658000Y-27533600D03*
X64460100Y-24137100D03*
X94501600Y-22500000D03*
X39221100Y-27004700D03*
X56540000Y-22500000D03*
X40024500Y-28062500D03*
X112787300Y-43912500D03*
X99463300Y-18595500D03*
X23525700Y-18214300D03*
X96542300Y-27781400D03*
X62194200Y-17885400D03*
X59511300Y-19960000D03*
X60125700Y-23960400D03*
X61524400Y-21702700D03*
X33795900Y-42500000D03*
X40216100Y-43129100D03*
X21509800Y-20824500D03*
X21502300Y-23770000D03*
X26487100Y-24839800D03*
X26435000Y-21689000D03*
X94534200Y-19982500D03*
X97308300Y-24395600D03*
X74822500Y-25675000D03*
X78598300Y-47836700D03*
X99461600Y-21230000D03*
X10604100Y-36500000D03*
D34*
X4000000Y-51000000D03*
X49000000Y-31000000D03*
X50270000Y-31000000D03*
X51540000Y-31000000D03*
X89000000Y-7000000D03*
X91500000Y-7000000D03*
X94000000Y-7000000D03*
X96500000Y-7000000D03*
X121000000Y-51000000D03*
X70000000Y-7000000D03*
X72500000Y-7000000D03*
X75000000Y-7000000D03*
X77500000Y-7000000D03*
X116000000Y-32000000D03*
X121000000Y-32000000D03*
X121000000Y-4000000D03*
X108000000Y-36000000D03*
X110540000Y-36000000D03*
X31000000Y-47500000D03*
X33540000Y-47500000D03*
X13000000Y-7000000D03*
X15500000Y-7000000D03*
X18000000Y-7000000D03*
X20500000Y-7000000D03*
X20000000Y-47500000D03*
X26500000Y-47500000D03*
X20000000Y-52000000D03*
X26500000Y-52000000D03*
X108000000Y-28500000D03*
X110000000Y-28500000D03*
X55000000Y-50500000D03*
X57540000Y-50500000D03*
X60080000Y-50500000D03*
X62620000Y-50500000D03*
X65160000Y-50500000D03*
X67700000Y-50500000D03*
X70240000Y-50500000D03*
X72780000Y-50500000D03*
X75320000Y-50500000D03*
X77860000Y-50500000D03*
X80400000Y-50500000D03*
X82940000Y-50500000D03*
X85480000Y-50500000D03*
X22000000Y-38500000D03*
X22000000Y-36500000D03*
X22000000Y-34500000D03*
X22000000Y-32500000D03*
X119000000Y-20000000D03*
X119000000Y-14920000D03*
X85480000Y-35260000D03*
X82940000Y-35260000D03*
X80400000Y-35260000D03*
X77860000Y-35260000D03*
X75320000Y-35260000D03*
X72780000Y-35260000D03*
X70240000Y-35260000D03*
X67700000Y-35260000D03*
X65160000Y-35260000D03*
X62620000Y-35260000D03*
X60080000Y-35260000D03*
X57540000Y-35260000D03*
X55000000Y-35260000D03*
X51000000Y-7000000D03*
X53500000Y-7000000D03*
X56000000Y-7000000D03*
X58500000Y-7000000D03*
X4000000Y-4000000D03*
X9000000Y-47500000D03*
X15500000Y-47500000D03*
X9000000Y-52000000D03*
X15500000Y-52000000D03*
X32000000Y-7000000D03*
X34500000Y-7000000D03*
X37000000Y-7000000D03*
X39500000Y-7000000D03*
X104000000Y-7000000D03*
X106500000Y-7000000D03*
X109000000Y-7000000D03*
X111500000Y-7000000D03*
X43000000Y-48000000D03*
X45540000Y-48000000D03*
X43000000Y-50540000D03*
X45540000Y-50540000D03*
X33000000Y-36000000D03*
X33000000Y-34000000D03*
M02*
