%TF.GenerationSoftware,KiCad,Pcbnew,10.0.5*%
%TF.CreationDate,2026-08-16T14:43:31-04:00*%
%TF.ProjectId,BU-22-Display-Controller-Rev-B,42552d32-322d-4446-9973-706c61792d43,rev?*%
%TF.SameCoordinates,Original*%
%TF.FileFunction,Copper,L2,Inr*%
%TF.FilePolarity,Positive*%
%FSLAX46Y46*%
G04 Gerber Fmt 4.6, Leading zero omitted, Abs format (unit mm)*
G04 Created by KiCad (PCBNEW 10.0.5) date 2026-08-16 14:43:31*
%MOMM*%
%LPD*%
G01*
G04 APERTURE LIST*
G04 Aperture macros list*
%AMRoundRect*
0 Rectangle with rounded corners*
0 $1 Rounding radius*
0 $2 $3 $4 $5 $6 $7 $8 $9 X,Y pos of 4 corners*
0 Add a 4 corners polygon primitive as box body*
4,1,4,$2,$3,$4,$5,$6,$7,$8,$9,$2,$3,0*
0 Add four circle primitives for the rounded corners*
1,1,$1+$1,$2,$3*
1,1,$1+$1,$4,$5*
1,1,$1+$1,$6,$7*
1,1,$1+$1,$8,$9*
0 Add four rect primitives between the rounded corners*
20,1,$1+$1,$2,$3,$4,$5,0*
20,1,$1+$1,$4,$5,$6,$7,0*
20,1,$1+$1,$6,$7,$8,$9,0*
20,1,$1+$1,$8,$9,$2,$3,0*%
G04 Aperture macros list end*
%TA.AperFunction,ComponentPad*%
%ADD10R,1.050000X1.500000*%
%TD*%
%TA.AperFunction,ComponentPad*%
%ADD11O,1.050000X1.500000*%
%TD*%
%TA.AperFunction,ComponentPad*%
%ADD12RoundRect,0.250000X-0.600000X-0.725000X0.600000X-0.725000X0.600000X0.725000X-0.600000X0.725000X0*%
%TD*%
%TA.AperFunction,ComponentPad*%
%ADD13O,1.700000X1.950000*%
%TD*%
%TA.AperFunction,ComponentPad*%
%ADD14RoundRect,0.250000X-0.750000X-0.750000X0.750000X-0.750000X0.750000X0.750000X-0.750000X0.750000X0*%
%TD*%
%TA.AperFunction,ComponentPad*%
%ADD15C,2.000000*%
%TD*%
%TA.AperFunction,ComponentPad*%
%ADD16R,1.800000X1.800000*%
%TD*%
%TA.AperFunction,ComponentPad*%
%ADD17C,1.800000*%
%TD*%
%TA.AperFunction,ComponentPad*%
%ADD18RoundRect,0.250000X-0.550000X-0.550000X0.550000X-0.550000X0.550000X0.550000X-0.550000X0.550000X0*%
%TD*%
%TA.AperFunction,ComponentPad*%
%ADD19C,1.600000*%
%TD*%
%TA.AperFunction,ComponentPad*%
%ADD20R,1.700000X1.700000*%
%TD*%
%TA.AperFunction,ComponentPad*%
%ADD21C,1.700000*%
%TD*%
%TA.AperFunction,ComponentPad*%
%ADD22RoundRect,0.250000X0.625000X-0.350000X0.625000X0.350000X-0.625000X0.350000X-0.625000X-0.350000X0*%
%TD*%
%TA.AperFunction,ComponentPad*%
%ADD23O,1.750000X1.200000*%
%TD*%
%TA.AperFunction,ComponentPad*%
%ADD24RoundRect,0.250000X1.050000X-1.050000X1.050000X1.050000X-1.050000X1.050000X-1.050000X-1.050000X0*%
%TD*%
%TA.AperFunction,ComponentPad*%
%ADD25C,2.600000*%
%TD*%
%TA.AperFunction,ViaPad*%
%ADD26C,0.600000*%
%TD*%
%TA.AperFunction,Conductor*%
%ADD27C,0.200000*%
%TD*%
%ADD28C,0.300000*%
%ADD29C,0.350000*%
G04 APERTURE END LIST*
D10*
%TO.N,GND*%
%TO.C,Q1*%
X49000000Y-31000000D03*
D11*
%TO.N,ENABLE_BASE*%
X50270000Y-31000000D03*
%TO.N,OE_N*%
X51540000Y-31000000D03*
%TD*%
D12*
%TO.N,GND*%
%TO.C,J5*%
X89000000Y-7000000D03*
D13*
%TO.N,CH5_CLOCK_OUT*%
X91500000Y-7000000D03*
%TO.N,CH5_DATA_OUT*%
X94000000Y-7000000D03*
%TO.N,+5V*%
X96500000Y-7000000D03*
%TD*%
D12*
%TO.N,GND*%
%TO.C,J4*%
X70000000Y-7000000D03*
D13*
%TO.N,CH4_CLOCK_OUT*%
X72500000Y-7000000D03*
%TO.N,CH4_DATA_OUT*%
X75000000Y-7000000D03*
%TO.N,+5V*%
X77500000Y-7000000D03*
%TD*%
D14*
%TO.N,+5V*%
%TO.C,C5*%
X116000000Y-32000000D03*
D15*
%TO.N,GND*%
X121000000Y-32000000D03*
%TD*%
D16*
%TO.N,PWR_LED_A*%
%TO.C,D1*%
X108000000Y-36000000D03*
D17*
%TO.N,GND*%
X110540000Y-36000000D03*
%TD*%
D16*
%TO.N,HEART_LED_A*%
%TO.C,D2*%
X31000000Y-47500000D03*
D17*
%TO.N,GND*%
X33540000Y-47500000D03*
%TD*%
D12*
%TO.N,GND*%
%TO.C,J1*%
X13000000Y-7000000D03*
D13*
%TO.N,CH1_CLOCK_OUT*%
X15500000Y-7000000D03*
%TO.N,CH1_DATA_OUT*%
X18000000Y-7000000D03*
%TO.N,+5V*%
X20500000Y-7000000D03*
%TD*%
D15*
%TO.N,TEST*%
%TO.C,SW1*%
X20000000Y-47500000D03*
X26500000Y-47500000D03*
%TO.N,GND*%
X20000000Y-52000000D03*
X26500000Y-52000000D03*
%TD*%
D18*
%TO.N,+5V*%
%TO.C,C4*%
X108000000Y-28500000D03*
D19*
%TO.N,GND*%
X110000000Y-28500000D03*
%TD*%
D20*
%TO.N,HEARTBEAT*%
%TO.C,MCU1A*%
X55000000Y-50500000D03*
D21*
%TO.N,ENABLE_GPIO*%
X57540000Y-50500000D03*
%TO.N,TEST*%
X60080000Y-50500000D03*
%TO.N,CH5_DATA_3V3*%
X62620000Y-50500000D03*
%TO.N,CH5_CLOCK_3V3*%
X65160000Y-50500000D03*
%TO.N,CH6_DATA_3V3*%
X67700000Y-50500000D03*
%TO.N,CH6_CLOCK_3V3*%
X70240000Y-50500000D03*
%TO.N,ADDRESS*%
X72780000Y-50500000D03*
%TO.N,3V3_LOCAL*%
X75320000Y-50500000D03*
%TO.N,RESET*%
X77860000Y-50500000D03*
%TO.N,GND*%
X80400000Y-50500000D03*
%TO.N,+5V*%
X82940000Y-50500000D03*
%TO.N,N/C*%
X85480000Y-50500000D03*
%TD*%
D22*
%TO.N,GND*%
%TO.C,J10*%
X22000000Y-38500000D03*
D23*
%TO.N,3V3_BRAIN*%
X22000000Y-36500000D03*
%TO.N,SDA*%
X22000000Y-34500000D03*
%TO.N,SCL*%
X22000000Y-32500000D03*
%TD*%
D24*
%TO.N,+5V*%
%TO.C,J7*%
X119000000Y-20000000D03*
D25*
%TO.N,GND*%
X119000000Y-14920000D03*
%TD*%
D20*
%TO.N,N/C*%
%TO.C,MCU1B*%
X85480000Y-35260000D03*
D21*
%TO.N,SDA*%
X82940000Y-35260000D03*
%TO.N,SCL*%
X80400000Y-35260000D03*
%TO.N,GND*%
X77860000Y-35260000D03*
X75320000Y-35260000D03*
%TO.N,CH1_DATA_3V3*%
X72780000Y-35260000D03*
%TO.N,CH1_CLOCK_3V3*%
X70240000Y-35260000D03*
%TO.N,CH2_DATA_3V3*%
X67700000Y-35260000D03*
%TO.N,CH2_CLOCK_3V3*%
X65160000Y-35260000D03*
%TO.N,CH3_DATA_3V3*%
X62620000Y-35260000D03*
%TO.N,CH3_CLOCK_3V3*%
X60080000Y-35260000D03*
%TO.N,CH4_DATA_3V3*%
X57540000Y-35260000D03*
%TO.N,CH4_CLOCK_3V3*%
X55000000Y-35260000D03*
%TD*%
D12*
%TO.N,GND*%
%TO.C,J3*%
X51000000Y-7000000D03*
D13*
%TO.N,CH3_CLOCK_OUT*%
X53500000Y-7000000D03*
%TO.N,CH3_DATA_OUT*%
X56000000Y-7000000D03*
%TO.N,+5V*%
X58500000Y-7000000D03*
%TD*%
D15*
%TO.N,RESET*%
%TO.C,SW2*%
X9000000Y-47500000D03*
X15500000Y-47500000D03*
%TO.N,GND*%
X9000000Y-52000000D03*
X15500000Y-52000000D03*
%TD*%
D12*
%TO.N,GND*%
%TO.C,J2*%
X32000000Y-7000000D03*
D13*
%TO.N,CH2_CLOCK_OUT*%
X34500000Y-7000000D03*
%TO.N,CH2_DATA_OUT*%
X37000000Y-7000000D03*
%TO.N,+5V*%
X39500000Y-7000000D03*
%TD*%
D12*
%TO.N,GND*%
%TO.C,J6*%
X104000000Y-7000000D03*
D13*
%TO.N,CH6_CLOCK_OUT*%
X106500000Y-7000000D03*
%TO.N,CH6_DATA_OUT*%
X109000000Y-7000000D03*
%TO.N,+5V*%
X111500000Y-7000000D03*
%TD*%
D20*
%TO.N,ADDRESS*%
%TO.C,JP1*%
X43000000Y-48000000D03*
D21*
%TO.N,ADDR_A0*%
X45540000Y-48000000D03*
%TO.N,ADDRESS*%
X43000000Y-50540000D03*
%TO.N,ADDR_A1*%
X45540000Y-50540000D03*
%TD*%
D22*
%TO.N,GND*%
%TO.C,J11*%
X33000000Y-36000000D03*
D23*
%TO.N,HEARTBEAT*%
X33000000Y-34000000D03*
%TD*%
D26*
%TO.N,ENABLE_GPIO*%
X47967500Y-29601100D03*
%TO.N,GND*%
X21974800Y-26910500D03*
X48324400Y-27549800D03*
%TO.N,ENABLE_BASE*%
X43658000Y-27533600D03*
%TO.N,OE_N*%
X64460100Y-24137100D03*
X94501600Y-22500000D03*
X39221100Y-27004700D03*
X56540000Y-22500000D03*
%TO.N,+5V*%
X40024500Y-28062500D03*
X112787300Y-43912500D03*
X99463300Y-18595500D03*
X23525700Y-18214300D03*
X96542300Y-27781400D03*
X62194200Y-17885400D03*
%TO.N,CH3_DATA_3V3*%
X59511300Y-19960000D03*
%TO.N,CH3_CLOCK_3V3*%
X60125700Y-23960400D03*
%TO.N,CH4_CLOCK_3V3*%
X61524400Y-21702700D03*
%TO.N,HEARTBEAT*%
X33795900Y-42500000D03*
%TO.N,3V3_LOCAL*%
X40216100Y-43129100D03*
%TO.N,CH1_DATA_3V3*%
X21509800Y-20824500D03*
%TO.N,CH1_CLOCK_3V3*%
X21502300Y-23770000D03*
%TO.N,CH2_DATA_3V3*%
X26487100Y-24839800D03*
%TO.N,CH2_CLOCK_3V3*%
X26435000Y-21689000D03*
%TO.N,CH5_DATA_3V3*%
X94534200Y-19982500D03*
%TO.N,CH5_CLOCK_3V3*%
X97308300Y-24395600D03*
%TO.N,CH6_DATA_3V3*%
X74822500Y-25675000D03*
%TO.N,CH6_CLOCK_3V3*%
X78598300Y-47836700D03*
X99461600Y-21230000D03*
%TO.N,3V3_BRAIN*%
X10604100Y-36500000D03*
%TD*%
%TO.N,GND*%
D27*
X104000000Y-7000000D02*
X102716500Y-5716500D01*
X110540000Y-29040000D02*
X110540000Y-33340500D01*
X111920000Y-14920000D02*
X104000000Y-7000000D01*
X20776000Y-37276000D02*
X20776000Y-28109300D01*
X83575800Y-12424200D02*
X89000000Y-7000000D01*
X119659500Y-33340500D02*
X121000000Y-32000000D01*
X75424200Y-12424200D02*
X70000000Y-7000000D01*
X110540000Y-33340500D02*
X110540000Y-36000000D01*
X49000000Y-27549800D02*
X48324400Y-27549800D01*
X33000000Y-46960000D02*
X33395900Y-47355900D01*
X110000000Y-28500000D02*
X110540000Y-29040000D01*
X75424200Y-35155800D02*
X75424200Y-12424200D01*
X102716500Y-5716500D02*
X90283500Y-5716500D01*
X75320000Y-35260000D02*
X75424200Y-35155800D01*
X75424200Y-12424200D02*
X83575800Y-12424200D01*
X119000000Y-14920000D02*
X111920000Y-14920000D01*
X90283500Y-5716500D02*
X89000000Y-7000000D01*
X77860000Y-35260000D02*
X77860000Y-47960000D01*
X33395900Y-47355900D02*
X33540000Y-47500000D01*
X28751800Y-52000000D02*
X33395900Y-47355900D01*
X22000000Y-38500000D02*
X20776000Y-37276000D01*
X26500000Y-52000000D02*
X28751800Y-52000000D01*
X33000000Y-36000000D02*
X33000000Y-46960000D01*
X110540000Y-33340500D02*
X119659500Y-33340500D01*
X119000000Y-14920000D02*
X121000000Y-16920000D01*
X77860000Y-47960000D02*
X80400000Y-50500000D01*
X51000000Y-7000000D02*
X49000000Y-9000000D01*
X20776000Y-28109300D02*
X21974800Y-26910500D01*
X121000000Y-16920000D02*
X121000000Y-32000000D01*
X49000000Y-9000000D02*
X49000000Y-27549800D01*
X49000000Y-27549800D02*
X49000000Y-31000000D01*
%TO.N,ENABLE_BASE*%
X50270000Y-32051700D02*
X48176100Y-32051700D01*
X50270000Y-31000000D02*
X50270000Y-32051700D01*
X48176100Y-32051700D02*
X43658000Y-27533600D01*
%TO.N,OE_N*%
X52366700Y-31000000D02*
X52366700Y-26673300D01*
X52366700Y-26673300D02*
X56540000Y-22500000D01*
X51540000Y-31000000D02*
X52366700Y-31000000D01*
%TO.N,+5V*%
X108000000Y-28500000D02*
X109106500Y-27393500D01*
X40651700Y-27435300D02*
X40024500Y-28062500D01*
X20500000Y-15188600D02*
X23525700Y-18214300D01*
X39500000Y-7000000D02*
X40651700Y-7000000D01*
X119000000Y-20000000D02*
X116000000Y-23000000D01*
X82940000Y-50500000D02*
X101100500Y-32339500D01*
X109106500Y-27393500D02*
X111393500Y-27393500D01*
X109300200Y-29800200D02*
X109300200Y-40425400D01*
X101100500Y-32339500D02*
X104940000Y-28500000D01*
X100067000Y-24256700D02*
X96542300Y-27781400D01*
X40651700Y-7000000D02*
X40651700Y-27435300D01*
X109300200Y-40425400D02*
X112787300Y-43912500D01*
X108000000Y-28500000D02*
X109300200Y-29800200D01*
X104940000Y-28500000D02*
X108000000Y-28500000D01*
X99463300Y-18595500D02*
X100067000Y-19199200D01*
X96500000Y-15632200D02*
X99463300Y-18595500D01*
X111393500Y-27393500D02*
X116000000Y-32000000D01*
X101100500Y-32339500D02*
X96542300Y-27781400D01*
X20500000Y-7000000D02*
X20500000Y-15188600D01*
X58500000Y-7000000D02*
X58500000Y-14191200D01*
X58500000Y-14191200D02*
X62194200Y-17885400D01*
X96500000Y-7000000D02*
X96500000Y-15632200D01*
X116000000Y-23000000D02*
X116000000Y-32000000D01*
X100067000Y-19199200D02*
X100067000Y-24256700D01*
%TO.N,CH3_DATA_3V3*%
X62620000Y-35260000D02*
X62620000Y-21937400D01*
X60642600Y-19960000D02*
X59511300Y-19960000D01*
X62620000Y-21937400D02*
X60642600Y-19960000D01*
%TO.N,CH3_CLOCK_3V3*%
X60080000Y-24006100D02*
X60125700Y-23960400D01*
X60080000Y-35260000D02*
X60080000Y-24006100D01*
%TO.N,CH4_CLOCK_3V3*%
X55000000Y-35260000D02*
X55000000Y-28227100D01*
X55000000Y-28227100D02*
X61524400Y-21702700D01*
%TO.N,HEARTBEAT*%
X55000000Y-50500000D02*
X53848300Y-50500000D01*
X34836100Y-41461400D02*
X44809700Y-41461400D01*
X33000000Y-34901700D02*
X33676300Y-34901700D01*
X33797500Y-42500000D02*
X33795900Y-42500000D01*
X34836100Y-36061500D02*
X34836100Y-41461400D01*
X33676300Y-34901700D02*
X34836100Y-36061500D01*
X33000000Y-34000000D02*
X33000000Y-34901700D01*
X34836100Y-41461400D02*
X33797500Y-42500000D01*
X44809700Y-41461400D02*
X53848300Y-50500000D01*
%TO.N,3V3_LOCAL*%
X42297900Y-43129100D02*
X51623900Y-52455100D01*
X40216100Y-43129100D02*
X42297900Y-43129100D01*
X73364900Y-52455100D02*
X75320000Y-50500000D01*
X51623900Y-52455100D02*
X73364900Y-52455100D01*
%TO.N,ADDRESS*%
X43000000Y-50540000D02*
X43000000Y-48000000D01*
%TO.N,CH1_CLOCK_3V3*%
X70240000Y-35260000D02*
X68619500Y-36880500D01*
X40228900Y-36880500D02*
X27118400Y-23770000D01*
X27118400Y-23770000D02*
X21502300Y-23770000D01*
X68619500Y-36880500D02*
X40228900Y-36880500D01*
%TO.N,CH2_CLOCK_3V3*%
X41204600Y-36458600D02*
X26435000Y-21689000D01*
X63961400Y-36458600D02*
X41204600Y-36458600D01*
X65160000Y-35260000D02*
X63961400Y-36458600D01*
%TO.N,CH5_DATA_3V3*%
X66548300Y-50977000D02*
X67223000Y-51651700D01*
X68970000Y-50867300D02*
X68970000Y-49300700D01*
X68970000Y-49300700D02*
X76565500Y-41705200D01*
X63801000Y-49319000D02*
X65632100Y-49319000D01*
X66548300Y-50235200D02*
X66548300Y-50977000D01*
X67223000Y-51651700D02*
X68185600Y-51651700D01*
X62620000Y-50500000D02*
X63801000Y-49319000D01*
X65632100Y-49319000D02*
X66548300Y-50235200D01*
X76565500Y-34861600D02*
X91444600Y-19982500D01*
X91444600Y-19982500D02*
X94534200Y-19982500D01*
X76565500Y-41705200D02*
X76565500Y-34861600D01*
X68185600Y-51651700D02*
X68970000Y-50867300D01*
%TO.N,CH5_CLOCK_3V3*%
X81577600Y-50951700D02*
X81577600Y-46521200D01*
X66713400Y-52053400D02*
X72855400Y-52053400D01*
X76590000Y-50105900D02*
X76590000Y-50878100D01*
X72855400Y-52053400D02*
X74050000Y-50858800D01*
X74050000Y-50858800D02*
X74050000Y-50104300D01*
X95178100Y-26525800D02*
X97308300Y-24395600D01*
X74050000Y-50104300D02*
X74806000Y-49348300D01*
X74806000Y-49348300D02*
X75832400Y-49348300D01*
X76590000Y-50878100D02*
X77367800Y-51655900D01*
X95178100Y-32920700D02*
X95178100Y-26525800D01*
X80873400Y-51655900D02*
X81577600Y-50951700D01*
X75832400Y-49348300D02*
X76590000Y-50105900D01*
X81577600Y-46521200D02*
X95178100Y-32920700D01*
X65160000Y-50500000D02*
X66713400Y-52053400D01*
X77367800Y-51655900D02*
X80873400Y-51655900D01*
%TO.N,CH6_DATA_3V3*%
X71507000Y-28990500D02*
X71507000Y-46125000D01*
X74822500Y-25675000D02*
X71507000Y-28990500D01*
X67700000Y-49932000D02*
X67700000Y-50500000D01*
X71507000Y-46125000D02*
X67700000Y-49932000D01*
%TO.N,CH6_CLOCK_3V3*%
X99461600Y-21230000D02*
X92802700Y-27888900D01*
X92802700Y-27888900D02*
X92802700Y-33632300D01*
X92802700Y-33632300D02*
X78598300Y-47836700D01*
%TD*%
%TA.AperFunction,Conductor*%
%TO.N,GND*%
G36*
X122693116Y-609438D02*
G01*
X123036881Y-751830D01*
X123232506Y-832860D01*
X123260539Y-849045D01*
X123442217Y-988451D01*
X123751408Y-1225702D01*
X123774297Y-1248591D01*
X124150952Y-1739459D01*
X124167137Y-1767492D01*
X124301920Y-2092885D01*
X124364491Y-2243946D01*
X124390561Y-2306883D01*
X124400000Y-2354336D01*
X124400000Y-52645659D01*
X124390561Y-52693112D01*
X124167136Y-53232506D01*
X124150951Y-53260540D01*
X123774295Y-53751406D01*
X123751406Y-53774295D01*
X123260538Y-54150953D01*
X123232504Y-54167138D01*
X122693114Y-54390561D01*
X122645661Y-54400000D01*
X2354337Y-54400000D01*
X2306884Y-54390561D01*
X1767492Y-54167137D01*
X1739459Y-54150952D01*
X1248594Y-53774299D01*
X1225704Y-53751410D01*
X1133047Y-53630657D01*
X849042Y-53260536D01*
X832858Y-53232502D01*
X609439Y-52693116D01*
X600000Y-52645664D01*
X600000Y-50878711D01*
X2149500Y-50878711D01*
X2149500Y-51121288D01*
X2181161Y-51361785D01*
X2243947Y-51596104D01*
X2280030Y-51683215D01*
X2336776Y-51820212D01*
X2458064Y-52030289D01*
X2458066Y-52030292D01*
X2458067Y-52030293D01*
X2605733Y-52222736D01*
X2605739Y-52222743D01*
X2777256Y-52394260D01*
X2777262Y-52394265D01*
X2969711Y-52541936D01*
X3179788Y-52663224D01*
X3403900Y-52756054D01*
X3638211Y-52818838D01*
X3818586Y-52842584D01*
X3878711Y-52850500D01*
X3878712Y-52850500D01*
X4121289Y-52850500D01*
X4169388Y-52844167D01*
X4361789Y-52818838D01*
X4596100Y-52756054D01*
X4820212Y-52663224D01*
X5030289Y-52541936D01*
X5222738Y-52394265D01*
X5394265Y-52222738D01*
X5541936Y-52030289D01*
X5663224Y-51820212D01*
X5756054Y-51596100D01*
X5818838Y-51361789D01*
X5850500Y-51121288D01*
X5850500Y-50878712D01*
X5818838Y-50638211D01*
X5756054Y-50403900D01*
X5663224Y-50179788D01*
X5541936Y-49969711D01*
X5445350Y-49843837D01*
X5394266Y-49777263D01*
X5394260Y-49777256D01*
X5222743Y-49605739D01*
X5222736Y-49605733D01*
X5030293Y-49458067D01*
X5030292Y-49458066D01*
X5030289Y-49458064D01*
X4820212Y-49336776D01*
X4820205Y-49336773D01*
X4596104Y-49243947D01*
X4361785Y-49181161D01*
X4121289Y-49149500D01*
X4121288Y-49149500D01*
X3878712Y-49149500D01*
X3878711Y-49149500D01*
X3638214Y-49181161D01*
X3403895Y-49243947D01*
X3179794Y-49336773D01*
X3179785Y-49336777D01*
X2969706Y-49458067D01*
X2777263Y-49605733D01*
X2777256Y-49605739D01*
X2605739Y-49777256D01*
X2605733Y-49777263D01*
X2458067Y-49969706D01*
X2336777Y-50179785D01*
X2336773Y-50179794D01*
X2243947Y-50403895D01*
X2181161Y-50638214D01*
X2149500Y-50878711D01*
X600000Y-50878711D01*
X600000Y-47401577D01*
X7749500Y-47401577D01*
X7749500Y-47598422D01*
X7780290Y-47792826D01*
X7841117Y-47980029D01*
X7895423Y-48086610D01*
X7930476Y-48155405D01*
X8046172Y-48314646D01*
X8185354Y-48453828D01*
X8344595Y-48569524D01*
X8427455Y-48611743D01*
X8519970Y-48658882D01*
X8519972Y-48658882D01*
X8519975Y-48658884D01*
X8620317Y-48691487D01*
X8707173Y-48719709D01*
X8901578Y-48750500D01*
X8901583Y-48750500D01*
X9098422Y-48750500D01*
X9292826Y-48719709D01*
X9301385Y-48716928D01*
X9480025Y-48658884D01*
X9655405Y-48569524D01*
X9814646Y-48453828D01*
X9953828Y-48314646D01*
X10069524Y-48155405D01*
X10158884Y-47980025D01*
X10219709Y-47792826D01*
X10227712Y-47742299D01*
X10250500Y-47598422D01*
X10250500Y-47401577D01*
X14249500Y-47401577D01*
X14249500Y-47598422D01*
X14280290Y-47792826D01*
X14341117Y-47980029D01*
X14395423Y-48086610D01*
X14430476Y-48155405D01*
X14546172Y-48314646D01*
X14685354Y-48453828D01*
X14844595Y-48569524D01*
X14927455Y-48611743D01*
X15019970Y-48658882D01*
X15019972Y-48658882D01*
X15019975Y-48658884D01*
X15120317Y-48691487D01*
X15207173Y-48719709D01*
X15401578Y-48750500D01*
X15401583Y-48750500D01*
X15598422Y-48750500D01*
X15792826Y-48719709D01*
X15801385Y-48716928D01*
X15980025Y-48658884D01*
X16155405Y-48569524D01*
X16314646Y-48453828D01*
X16453828Y-48314646D01*
X16569524Y-48155405D01*
X16658884Y-47980025D01*
X16719709Y-47792826D01*
X16727712Y-47742299D01*
X16750500Y-47598422D01*
X16750500Y-47401577D01*
X18749500Y-47401577D01*
X18749500Y-47598422D01*
X18780290Y-47792826D01*
X18841117Y-47980029D01*
X18895423Y-48086610D01*
X18930476Y-48155405D01*
X19046172Y-48314646D01*
X19185354Y-48453828D01*
X19344595Y-48569524D01*
X19427455Y-48611743D01*
X19519970Y-48658882D01*
X19519972Y-48658882D01*
X19519975Y-48658884D01*
X19620317Y-48691487D01*
X19707173Y-48719709D01*
X19901578Y-48750500D01*
X19901583Y-48750500D01*
X20098422Y-48750500D01*
X20292826Y-48719709D01*
X20301385Y-48716928D01*
X20480025Y-48658884D01*
X20655405Y-48569524D01*
X20814646Y-48453828D01*
X20953828Y-48314646D01*
X21069524Y-48155405D01*
X21158884Y-47980025D01*
X21219709Y-47792826D01*
X21227712Y-47742299D01*
X21250500Y-47598422D01*
X21250500Y-47401577D01*
X25249500Y-47401577D01*
X25249500Y-47598422D01*
X25280290Y-47792826D01*
X25341117Y-47980029D01*
X25395423Y-48086610D01*
X25430476Y-48155405D01*
X25546172Y-48314646D01*
X25685354Y-48453828D01*
X25844595Y-48569524D01*
X25927455Y-48611743D01*
X26019970Y-48658882D01*
X26019972Y-48658882D01*
X26019975Y-48658884D01*
X26120317Y-48691487D01*
X26207173Y-48719709D01*
X26401578Y-48750500D01*
X26401583Y-48750500D01*
X26598422Y-48750500D01*
X26792826Y-48719709D01*
X26801385Y-48716928D01*
X26980025Y-48658884D01*
X27155405Y-48569524D01*
X27314646Y-48453828D01*
X27453828Y-48314646D01*
X27569524Y-48155405D01*
X27658884Y-47980025D01*
X27719709Y-47792826D01*
X27727712Y-47742299D01*
X27750500Y-47598422D01*
X27750500Y-47401577D01*
X27719709Y-47207173D01*
X27691487Y-47120317D01*
X27658884Y-47019975D01*
X27658882Y-47019972D01*
X27658882Y-47019970D01*
X27597499Y-46899500D01*
X27569524Y-46844595D01*
X27453828Y-46685354D01*
X27343795Y-46575321D01*
X29849500Y-46575321D01*
X29849500Y-48424678D01*
X29864032Y-48497735D01*
X29864033Y-48497739D01*
X29864034Y-48497740D01*
X29919399Y-48580601D01*
X30002260Y-48635966D01*
X30002264Y-48635967D01*
X30075321Y-48650499D01*
X30075324Y-48650500D01*
X30075326Y-48650500D01*
X31924676Y-48650500D01*
X31924677Y-48650499D01*
X31997740Y-48635966D01*
X32080601Y-48580601D01*
X32135966Y-48497740D01*
X32150500Y-48424674D01*
X32150500Y-47125321D01*
X41899500Y-47125321D01*
X41899500Y-48874678D01*
X41914032Y-48947735D01*
X41914033Y-48947739D01*
X41914034Y-48947740D01*
X41969399Y-49030601D01*
X42052260Y-49085966D01*
X42052264Y-49085967D01*
X42125321Y-49100499D01*
X42125324Y-49100500D01*
X42125326Y-49100500D01*
X42525500Y-49100500D01*
X42592539Y-49120185D01*
X42638294Y-49172989D01*
X42649500Y-49224500D01*
X42649500Y-49407481D01*
X42629815Y-49474520D01*
X42581795Y-49517966D01*
X42423211Y-49598768D01*
X42386665Y-49625321D01*
X42283072Y-49700586D01*
X42283070Y-49700588D01*
X42283069Y-49700588D01*
X42160588Y-49823069D01*
X42160588Y-49823070D01*
X42160586Y-49823072D01*
X42127254Y-49868950D01*
X42058768Y-49963211D01*
X41980128Y-50117552D01*
X41926597Y-50282302D01*
X41899500Y-50453389D01*
X41899500Y-50626610D01*
X41923868Y-50780468D01*
X41926598Y-50797701D01*
X41980127Y-50962445D01*
X42058768Y-51116788D01*
X42160586Y-51256928D01*
X42283072Y-51379414D01*
X42423212Y-51481232D01*
X42577555Y-51559873D01*
X42742299Y-51613402D01*
X42913389Y-51640500D01*
X42913390Y-51640500D01*
X43086610Y-51640500D01*
X43086611Y-51640500D01*
X43257701Y-51613402D01*
X43422445Y-51559873D01*
X43576788Y-51481232D01*
X43716928Y-51379414D01*
X43839414Y-51256928D01*
X43941232Y-51116788D01*
X44019873Y-50962445D01*
X44073402Y-50797701D01*
X44100500Y-50626611D01*
X44100500Y-50453389D01*
X44439500Y-50453389D01*
X44439500Y-50626610D01*
X44463868Y-50780468D01*
X44466598Y-50797701D01*
X44520127Y-50962445D01*
X44598768Y-51116788D01*
X44700586Y-51256928D01*
X44823072Y-51379414D01*
X44963212Y-51481232D01*
X45117555Y-51559873D01*
X45282299Y-51613402D01*
X45453389Y-51640500D01*
X45453390Y-51640500D01*
X45626610Y-51640500D01*
X45626611Y-51640500D01*
X45797701Y-51613402D01*
X45962445Y-51559873D01*
X46116788Y-51481232D01*
X46256928Y-51379414D01*
X46379414Y-51256928D01*
X46481232Y-51116788D01*
X46559873Y-50962445D01*
X46613402Y-50797701D01*
X46640500Y-50626611D01*
X46640500Y-50453389D01*
X46613402Y-50282299D01*
X46559873Y-50117555D01*
X46481232Y-49963212D01*
X46379414Y-49823072D01*
X46256928Y-49700586D01*
X46116788Y-49598768D01*
X45962445Y-49520127D01*
X45797701Y-49466598D01*
X45797699Y-49466597D01*
X45797698Y-49466597D01*
X45666271Y-49445781D01*
X45626611Y-49439500D01*
X45453389Y-49439500D01*
X45413728Y-49445781D01*
X45282302Y-49466597D01*
X45117552Y-49520128D01*
X44963211Y-49598768D01*
X44926665Y-49625321D01*
X44823072Y-49700586D01*
X44823070Y-49700588D01*
X44823069Y-49700588D01*
X44700588Y-49823069D01*
X44700588Y-49823070D01*
X44700586Y-49823072D01*
X44667254Y-49868950D01*
X44598768Y-49963211D01*
X44520128Y-50117552D01*
X44466597Y-50282302D01*
X44439500Y-50453389D01*
X44100500Y-50453389D01*
X44073402Y-50282299D01*
X44019873Y-50117555D01*
X43941232Y-49963212D01*
X43839414Y-49823072D01*
X43716928Y-49700586D01*
X43576788Y-49598768D01*
X43418205Y-49517966D01*
X43367409Y-49469991D01*
X43350500Y-49407481D01*
X43350500Y-49224500D01*
X43370185Y-49157461D01*
X43422989Y-49111706D01*
X43474500Y-49100500D01*
X43874676Y-49100500D01*
X43874677Y-49100499D01*
X43947740Y-49085966D01*
X44030601Y-49030601D01*
X44085966Y-48947740D01*
X44100500Y-48874674D01*
X44100500Y-47125326D01*
X44100500Y-47125323D01*
X44100499Y-47125321D01*
X44085967Y-47052264D01*
X44085966Y-47052260D01*
X44064394Y-47019975D01*
X44030601Y-46969399D01*
X43947740Y-46914034D01*
X43947739Y-46914033D01*
X43947735Y-46914032D01*
X43874677Y-46899500D01*
X43874674Y-46899500D01*
X42125326Y-46899500D01*
X42125323Y-46899500D01*
X42052264Y-46914032D01*
X42052260Y-46914033D01*
X41969399Y-46969399D01*
X41914033Y-47052260D01*
X41914032Y-47052264D01*
X41899500Y-47125321D01*
X32150500Y-47125321D01*
X32150500Y-46575326D01*
X32150500Y-46575323D01*
X32150499Y-46575321D01*
X32135967Y-46502264D01*
X32135966Y-46502260D01*
X32117789Y-46475056D01*
X32080601Y-46419399D01*
X31997740Y-46364034D01*
X31997739Y-46364033D01*
X31997735Y-46364032D01*
X31924677Y-46349500D01*
X31924674Y-46349500D01*
X30075326Y-46349500D01*
X30075323Y-46349500D01*
X30002264Y-46364032D01*
X30002260Y-46364033D01*
X29919399Y-46419399D01*
X29864033Y-46502260D01*
X29864032Y-46502264D01*
X29849500Y-46575321D01*
X27343795Y-46575321D01*
X27314646Y-46546172D01*
X27155405Y-46430476D01*
X27133665Y-46419399D01*
X26980029Y-46341117D01*
X26792826Y-46280290D01*
X26598422Y-46249500D01*
X26598417Y-46249500D01*
X26401583Y-46249500D01*
X26401578Y-46249500D01*
X26207173Y-46280290D01*
X26019970Y-46341117D01*
X25844594Y-46430476D01*
X25783236Y-46475056D01*
X25685354Y-46546172D01*
X25685352Y-46546174D01*
X25685351Y-46546174D01*
X25546174Y-46685351D01*
X25546174Y-46685352D01*
X25546172Y-46685354D01*
X25522639Y-46717744D01*
X25430476Y-46844594D01*
X25341117Y-47019970D01*
X25280290Y-47207173D01*
X25249500Y-47401577D01*
X21250500Y-47401577D01*
X21219709Y-47207173D01*
X21191487Y-47120317D01*
X21158884Y-47019975D01*
X21158882Y-47019972D01*
X21158882Y-47019970D01*
X21097499Y-46899500D01*
X21069524Y-46844595D01*
X20953828Y-46685354D01*
X20814646Y-46546172D01*
X20655405Y-46430476D01*
X20633665Y-46419399D01*
X20480029Y-46341117D01*
X20292826Y-46280290D01*
X20098422Y-46249500D01*
X20098417Y-46249500D01*
X19901583Y-46249500D01*
X19901578Y-46249500D01*
X19707173Y-46280290D01*
X19519970Y-46341117D01*
X19344594Y-46430476D01*
X19283236Y-46475056D01*
X19185354Y-46546172D01*
X19185352Y-46546174D01*
X19185351Y-46546174D01*
X19046174Y-46685351D01*
X19046174Y-46685352D01*
X19046172Y-46685354D01*
X19022639Y-46717744D01*
X18930476Y-46844594D01*
X18841117Y-47019970D01*
X18780290Y-47207173D01*
X18749500Y-47401577D01*
X16750500Y-47401577D01*
X16719709Y-47207173D01*
X16691487Y-47120317D01*
X16658884Y-47019975D01*
X16658882Y-47019972D01*
X16658882Y-47019970D01*
X16597499Y-46899500D01*
X16569524Y-46844595D01*
X16453828Y-46685354D01*
X16314646Y-46546172D01*
X16155405Y-46430476D01*
X16133665Y-46419399D01*
X15980029Y-46341117D01*
X15792826Y-46280290D01*
X15598422Y-46249500D01*
X15598417Y-46249500D01*
X15401583Y-46249500D01*
X15401578Y-46249500D01*
X15207173Y-46280290D01*
X15019970Y-46341117D01*
X14844594Y-46430476D01*
X14783236Y-46475056D01*
X14685354Y-46546172D01*
X14685352Y-46546174D01*
X14685351Y-46546174D01*
X14546174Y-46685351D01*
X14546174Y-46685352D01*
X14546172Y-46685354D01*
X14522639Y-46717744D01*
X14430476Y-46844594D01*
X14341117Y-47019970D01*
X14280290Y-47207173D01*
X14249500Y-47401577D01*
X10250500Y-47401577D01*
X10219709Y-47207173D01*
X10191487Y-47120317D01*
X10158884Y-47019975D01*
X10158882Y-47019972D01*
X10158882Y-47019970D01*
X10097499Y-46899500D01*
X10069524Y-46844595D01*
X9953828Y-46685354D01*
X9814646Y-46546172D01*
X9655405Y-46430476D01*
X9633665Y-46419399D01*
X9480029Y-46341117D01*
X9292826Y-46280290D01*
X9098422Y-46249500D01*
X9098417Y-46249500D01*
X8901583Y-46249500D01*
X8901578Y-46249500D01*
X8707173Y-46280290D01*
X8519970Y-46341117D01*
X8344594Y-46430476D01*
X8283236Y-46475056D01*
X8185354Y-46546172D01*
X8185352Y-46546174D01*
X8185351Y-46546174D01*
X8046174Y-46685351D01*
X8046174Y-46685352D01*
X8046172Y-46685354D01*
X8022639Y-46717744D01*
X7930476Y-46844594D01*
X7841117Y-47019970D01*
X7780290Y-47207173D01*
X7749500Y-47401577D01*
X600000Y-47401577D01*
X600000Y-36427525D01*
X10053600Y-36427525D01*
X10053600Y-36572475D01*
X10091116Y-36712485D01*
X10091117Y-36712488D01*
X10163588Y-36838011D01*
X10163590Y-36838013D01*
X10163591Y-36838015D01*
X10266085Y-36940509D01*
X10266086Y-36940510D01*
X10266088Y-36940511D01*
X10391611Y-37012982D01*
X10391612Y-37012982D01*
X10391615Y-37012984D01*
X10531625Y-37050500D01*
X10531628Y-37050500D01*
X10676572Y-37050500D01*
X10676575Y-37050500D01*
X10816585Y-37012984D01*
X10942115Y-36940509D01*
X11044609Y-36838015D01*
X11117084Y-36712485D01*
X11154600Y-36572475D01*
X11154600Y-36427525D01*
X11151573Y-36416228D01*
X20874500Y-36416228D01*
X20874500Y-36583771D01*
X20907182Y-36748074D01*
X20907184Y-36748082D01*
X20971295Y-36902860D01*
X21064373Y-37042162D01*
X21182837Y-37160626D01*
X21252409Y-37207112D01*
X21322137Y-37253703D01*
X21476918Y-37317816D01*
X21641228Y-37350499D01*
X21641232Y-37350500D01*
X21641233Y-37350500D01*
X22358768Y-37350500D01*
X22358769Y-37350499D01*
X22523082Y-37317816D01*
X22677863Y-37253703D01*
X22817162Y-37160626D01*
X22935626Y-37042162D01*
X23028703Y-36902863D01*
X23092816Y-36748082D01*
X23125500Y-36583767D01*
X23125500Y-36416233D01*
X23092816Y-36251918D01*
X23029279Y-36098528D01*
X23028704Y-36097139D01*
X23028310Y-36096550D01*
X22993916Y-36045075D01*
X22935626Y-35957837D01*
X22817162Y-35839373D01*
X22677860Y-35746295D01*
X22523082Y-35682184D01*
X22523074Y-35682182D01*
X22358771Y-35649500D01*
X22358767Y-35649500D01*
X21641233Y-35649500D01*
X21641228Y-35649500D01*
X21476925Y-35682182D01*
X21476917Y-35682184D01*
X21322139Y-35746295D01*
X21182837Y-35839373D01*
X21064373Y-35957837D01*
X20971295Y-36097139D01*
X20907184Y-36251917D01*
X20907182Y-36251925D01*
X20874500Y-36416228D01*
X11151573Y-36416228D01*
X11117084Y-36287515D01*
X11109954Y-36275166D01*
X11044611Y-36161988D01*
X11044606Y-36161982D01*
X10942117Y-36059493D01*
X10942111Y-36059488D01*
X10816588Y-35987017D01*
X10816589Y-35987017D01*
X10805106Y-35983940D01*
X10676575Y-35949500D01*
X10531625Y-35949500D01*
X10403093Y-35983940D01*
X10391611Y-35987017D01*
X10266088Y-36059488D01*
X10266082Y-36059493D01*
X10163593Y-36161982D01*
X10163588Y-36161988D01*
X10091117Y-36287511D01*
X10090289Y-36290600D01*
X10053600Y-36427525D01*
X600000Y-36427525D01*
X600000Y-34416228D01*
X20874500Y-34416228D01*
X20874500Y-34583771D01*
X20907182Y-34748074D01*
X20907184Y-34748082D01*
X20971295Y-34902860D01*
X21064373Y-35042162D01*
X21182837Y-35160626D01*
X21215079Y-35182169D01*
X21322137Y-35253703D01*
X21476918Y-35317816D01*
X21621682Y-35346611D01*
X21641228Y-35350499D01*
X21641232Y-35350500D01*
X21641233Y-35350500D01*
X22358768Y-35350500D01*
X22358769Y-35350499D01*
X22523082Y-35317816D01*
X22677863Y-35253703D01*
X22817162Y-35160626D01*
X22935626Y-35042162D01*
X23028703Y-34902863D01*
X23092816Y-34748082D01*
X23125500Y-34583767D01*
X23125500Y-34416233D01*
X23092816Y-34251918D01*
X23028703Y-34097137D01*
X23019770Y-34083768D01*
X22949791Y-33979036D01*
X22949788Y-33979033D01*
X22935623Y-33957834D01*
X22894017Y-33916228D01*
X31874500Y-33916228D01*
X31874500Y-34083771D01*
X31907182Y-34248074D01*
X31907184Y-34248082D01*
X31971295Y-34402860D01*
X32064373Y-34542162D01*
X32182837Y-34660626D01*
X32275494Y-34722537D01*
X32322137Y-34753703D01*
X32476918Y-34817816D01*
X32549693Y-34832291D01*
X32611601Y-34864675D01*
X32646176Y-34925390D01*
X32647862Y-34939859D01*
X32648439Y-34939784D01*
X32649500Y-34947843D01*
X32649500Y-34947844D01*
X32665292Y-35006782D01*
X32673387Y-35036990D01*
X32673388Y-35036993D01*
X32719526Y-35116905D01*
X32719529Y-35116909D01*
X32719531Y-35116912D01*
X32784788Y-35182169D01*
X32784791Y-35182170D01*
X32784794Y-35182173D01*
X32864706Y-35228311D01*
X32864707Y-35228311D01*
X32864712Y-35228314D01*
X32953856Y-35252200D01*
X33046144Y-35252200D01*
X33479756Y-35252200D01*
X33546795Y-35271885D01*
X33567437Y-35288519D01*
X34449281Y-36170363D01*
X34482766Y-36231686D01*
X34485600Y-36258044D01*
X34485600Y-41264856D01*
X34465915Y-41331895D01*
X34449281Y-41352537D01*
X33888637Y-41913181D01*
X33827314Y-41946666D01*
X33800956Y-41949500D01*
X33723425Y-41949500D01*
X33594893Y-41983940D01*
X33583411Y-41987017D01*
X33457888Y-42059488D01*
X33457882Y-42059493D01*
X33355393Y-42161982D01*
X33355388Y-42161988D01*
X33282917Y-42287511D01*
X33282916Y-42287515D01*
X33245400Y-42427525D01*
X33245400Y-42572475D01*
X33276513Y-42688588D01*
X33282917Y-42712488D01*
X33355388Y-42838011D01*
X33355390Y-42838013D01*
X33355391Y-42838015D01*
X33457885Y-42940509D01*
X33457886Y-42940510D01*
X33457888Y-42940511D01*
X33583411Y-43012982D01*
X33583412Y-43012982D01*
X33583415Y-43012984D01*
X33723425Y-43050500D01*
X33723428Y-43050500D01*
X33868372Y-43050500D01*
X33868375Y-43050500D01*
X34008385Y-43012984D01*
X34133915Y-42940509D01*
X34236409Y-42838015D01*
X34308884Y-42712485D01*
X34346400Y-42572475D01*
X34346400Y-42498144D01*
X34366085Y-42431105D01*
X34382719Y-42410463D01*
X34944963Y-41848219D01*
X35006286Y-41814734D01*
X35032644Y-41811900D01*
X44613156Y-41811900D01*
X44680195Y-41831585D01*
X44700837Y-41848219D01*
X53633088Y-50780470D01*
X53713012Y-50826614D01*
X53802156Y-50850500D01*
X53802157Y-50850500D01*
X53802159Y-50850500D01*
X53807593Y-50851956D01*
X53867254Y-50888321D01*
X53897783Y-50951167D01*
X53899500Y-50971731D01*
X53899500Y-51374678D01*
X53914032Y-51447735D01*
X53914033Y-51447739D01*
X53914034Y-51447740D01*
X53969399Y-51530601D01*
X54049632Y-51584210D01*
X54052260Y-51585966D01*
X54052264Y-51585967D01*
X54125321Y-51600499D01*
X54125324Y-51600500D01*
X54125326Y-51600500D01*
X55874676Y-51600500D01*
X55874677Y-51600499D01*
X55947740Y-51585966D01*
X56030601Y-51530601D01*
X56085966Y-51447740D01*
X56100500Y-51374674D01*
X56100500Y-50413389D01*
X56439500Y-50413389D01*
X56439500Y-50586610D01*
X56466597Y-50757697D01*
X56466597Y-50757699D01*
X56466598Y-50757701D01*
X56520127Y-50922445D01*
X56598768Y-51076788D01*
X56700586Y-51216928D01*
X56823072Y-51339414D01*
X56963212Y-51441232D01*
X57117555Y-51519873D01*
X57282299Y-51573402D01*
X57453389Y-51600500D01*
X57453390Y-51600500D01*
X57626610Y-51600500D01*
X57626611Y-51600500D01*
X57797701Y-51573402D01*
X57962445Y-51519873D01*
X58116788Y-51441232D01*
X58256928Y-51339414D01*
X58379414Y-51216928D01*
X58481232Y-51076788D01*
X58559873Y-50922445D01*
X58613402Y-50757701D01*
X58640500Y-50586611D01*
X58640500Y-50413389D01*
X58979500Y-50413389D01*
X58979500Y-50586610D01*
X59006597Y-50757697D01*
X59006597Y-50757699D01*
X59006598Y-50757701D01*
X59060127Y-50922445D01*
X59138768Y-51076788D01*
X59240586Y-51216928D01*
X59363072Y-51339414D01*
X59503212Y-51441232D01*
X59657555Y-51519873D01*
X59822299Y-51573402D01*
X59993389Y-51600500D01*
X59993390Y-51600500D01*
X60166610Y-51600500D01*
X60166611Y-51600500D01*
X60337701Y-51573402D01*
X60502445Y-51519873D01*
X60656788Y-51441232D01*
X60796928Y-51339414D01*
X60919414Y-51216928D01*
X61021232Y-51076788D01*
X61099873Y-50922445D01*
X61153402Y-50757701D01*
X61180500Y-50586611D01*
X61180500Y-50413389D01*
X61153402Y-50242299D01*
X61099873Y-50077555D01*
X61021232Y-49923212D01*
X60919414Y-49783072D01*
X60796928Y-49660586D01*
X60656788Y-49558768D01*
X60502445Y-49480127D01*
X60337701Y-49426598D01*
X60337699Y-49426597D01*
X60337698Y-49426597D01*
X60206271Y-49405781D01*
X60166611Y-49399500D01*
X59993389Y-49399500D01*
X59953728Y-49405781D01*
X59822302Y-49426597D01*
X59657552Y-49480128D01*
X59503211Y-49558768D01*
X59438562Y-49605739D01*
X59363072Y-49660586D01*
X59363070Y-49660588D01*
X59363069Y-49660588D01*
X59240588Y-49783069D01*
X59240588Y-49783070D01*
X59240586Y-49783072D01*
X59211526Y-49823070D01*
X59138768Y-49923211D01*
X59060128Y-50077552D01*
X59006597Y-50242302D01*
X58979500Y-50413389D01*
X58640500Y-50413389D01*
X58613402Y-50242299D01*
X58559873Y-50077555D01*
X58481232Y-49923212D01*
X58379414Y-49783072D01*
X58256928Y-49660586D01*
X58116788Y-49558768D01*
X57962445Y-49480127D01*
X57797701Y-49426598D01*
X57797699Y-49426597D01*
X57797698Y-49426597D01*
X57666271Y-49405781D01*
X57626611Y-49399500D01*
X57453389Y-49399500D01*
X57413728Y-49405781D01*
X57282302Y-49426597D01*
X57117552Y-49480128D01*
X56963211Y-49558768D01*
X56898562Y-49605739D01*
X56823072Y-49660586D01*
X56823070Y-49660588D01*
X56823069Y-49660588D01*
X56700588Y-49783069D01*
X56700588Y-49783070D01*
X56700586Y-49783072D01*
X56671526Y-49823070D01*
X56598768Y-49923211D01*
X56520128Y-50077552D01*
X56466597Y-50242302D01*
X56439500Y-50413389D01*
X56100500Y-50413389D01*
X56100500Y-49625326D01*
X56100500Y-49625323D01*
X56100499Y-49625321D01*
X56085967Y-49552264D01*
X56085966Y-49552260D01*
X56064496Y-49520128D01*
X56030601Y-49469399D01*
X55947740Y-49414034D01*
X55947739Y-49414033D01*
X55947735Y-49414032D01*
X55874677Y-49399500D01*
X55874674Y-49399500D01*
X54125326Y-49399500D01*
X54125323Y-49399500D01*
X54052264Y-49414032D01*
X54052260Y-49414033D01*
X53969399Y-49469399D01*
X53914033Y-49552260D01*
X53914032Y-49552264D01*
X53899500Y-49625321D01*
X53899500Y-49756156D01*
X53879815Y-49823195D01*
X53827011Y-49868950D01*
X53757853Y-49878894D01*
X53694297Y-49849869D01*
X53687819Y-49843837D01*
X45024913Y-41180931D01*
X45024908Y-41180927D01*
X44944990Y-41134787D01*
X44944989Y-41134786D01*
X44944988Y-41134786D01*
X44855844Y-41110900D01*
X44855843Y-41110900D01*
X35310600Y-41110900D01*
X35243561Y-41091215D01*
X35197806Y-41038411D01*
X35186600Y-40986900D01*
X35186600Y-36015358D01*
X35186600Y-36015356D01*
X35162714Y-35926212D01*
X35132858Y-35874500D01*
X35132859Y-35874500D01*
X35132856Y-35874497D01*
X35116570Y-35846288D01*
X33958244Y-34687962D01*
X33924759Y-34626639D01*
X33929743Y-34556947D01*
X33942820Y-34531394D01*
X34028703Y-34402863D01*
X34092816Y-34248082D01*
X34125500Y-34083767D01*
X34125500Y-33916233D01*
X34092816Y-33751918D01*
X34028703Y-33597137D01*
X33979458Y-33523437D01*
X33935626Y-33457837D01*
X33817162Y-33339373D01*
X33677860Y-33246295D01*
X33523082Y-33182184D01*
X33523074Y-33182182D01*
X33358771Y-33149500D01*
X33358767Y-33149500D01*
X32641233Y-33149500D01*
X32641228Y-33149500D01*
X32476925Y-33182182D01*
X32476917Y-33182184D01*
X32322139Y-33246295D01*
X32182837Y-33339373D01*
X32064373Y-33457837D01*
X31971295Y-33597139D01*
X31907184Y-33751917D01*
X31907182Y-33751925D01*
X31874500Y-33916228D01*
X22894017Y-33916228D01*
X22817162Y-33839373D01*
X22677860Y-33746295D01*
X22677859Y-33746295D01*
X22523082Y-33682184D01*
X22523074Y-33682182D01*
X22358771Y-33649500D01*
X22358767Y-33649500D01*
X21641233Y-33649500D01*
X21641228Y-33649500D01*
X21476925Y-33682182D01*
X21476917Y-33682184D01*
X21322141Y-33746295D01*
X21322139Y-33746295D01*
X21182837Y-33839373D01*
X21064373Y-33957837D01*
X20971295Y-34097139D01*
X20907184Y-34251917D01*
X20907182Y-34251925D01*
X20874500Y-34416228D01*
X600000Y-34416228D01*
X600000Y-32416228D01*
X20874500Y-32416228D01*
X20874500Y-32583771D01*
X20907182Y-32748074D01*
X20907184Y-32748082D01*
X20971295Y-32902860D01*
X21064373Y-33042162D01*
X21182837Y-33160626D01*
X21275494Y-33222537D01*
X21322137Y-33253703D01*
X21476918Y-33317816D01*
X21641228Y-33350499D01*
X21641232Y-33350500D01*
X21641233Y-33350500D01*
X22358768Y-33350500D01*
X22358769Y-33350499D01*
X22523082Y-33317816D01*
X22677863Y-33253703D01*
X22817162Y-33160626D01*
X22935626Y-33042162D01*
X23028703Y-32902863D01*
X23092816Y-32748082D01*
X23125500Y-32583767D01*
X23125500Y-32416233D01*
X23092816Y-32251918D01*
X23028996Y-32097844D01*
X23028704Y-32097139D01*
X22935626Y-31957837D01*
X22817162Y-31839373D01*
X22677860Y-31746295D01*
X22523082Y-31682184D01*
X22523074Y-31682182D01*
X22358771Y-31649500D01*
X22358767Y-31649500D01*
X21641233Y-31649500D01*
X21641228Y-31649500D01*
X21476925Y-31682182D01*
X21476917Y-31682184D01*
X21322139Y-31746295D01*
X21182837Y-31839373D01*
X21064373Y-31957837D01*
X20971295Y-32097139D01*
X20907184Y-32251917D01*
X20907182Y-32251925D01*
X20874500Y-32416228D01*
X600000Y-32416228D01*
X600000Y-23697525D01*
X20951800Y-23697525D01*
X20951800Y-23842475D01*
X20989316Y-23982485D01*
X20989317Y-23982488D01*
X21061788Y-24108011D01*
X21061790Y-24108013D01*
X21061791Y-24108015D01*
X21164285Y-24210509D01*
X21164286Y-24210510D01*
X21164288Y-24210511D01*
X21289811Y-24282982D01*
X21289812Y-24282982D01*
X21289815Y-24282984D01*
X21429825Y-24320500D01*
X21429828Y-24320500D01*
X21574772Y-24320500D01*
X21574775Y-24320500D01*
X21714785Y-24282984D01*
X21840315Y-24210509D01*
X21894005Y-24156819D01*
X21955328Y-24123334D01*
X21981686Y-24120500D01*
X26169190Y-24120500D01*
X26236229Y-24140185D01*
X26281984Y-24192989D01*
X26291928Y-24262147D01*
X26262903Y-24325703D01*
X26231191Y-24351887D01*
X26149085Y-24399291D01*
X26149082Y-24399293D01*
X26046593Y-24501782D01*
X26046588Y-24501788D01*
X25974117Y-24627311D01*
X25974116Y-24627315D01*
X25936600Y-24767325D01*
X25936600Y-24912275D01*
X25974116Y-25052285D01*
X25974117Y-25052288D01*
X26046588Y-25177811D01*
X26046590Y-25177813D01*
X26046591Y-25177815D01*
X26149085Y-25280309D01*
X26149086Y-25280310D01*
X26149088Y-25280311D01*
X26274611Y-25352782D01*
X26274612Y-25352782D01*
X26274615Y-25352784D01*
X26414625Y-25390300D01*
X26414628Y-25390300D01*
X26559572Y-25390300D01*
X26559575Y-25390300D01*
X26699585Y-25352784D01*
X26825115Y-25280309D01*
X26927609Y-25177815D01*
X27000084Y-25052285D01*
X27037600Y-24912275D01*
X27037600Y-24767325D01*
X27000084Y-24627315D01*
X26988983Y-24608088D01*
X26927611Y-24501788D01*
X26927606Y-24501782D01*
X26825117Y-24399293D01*
X26825115Y-24399291D01*
X26743008Y-24351886D01*
X26694794Y-24301319D01*
X26681572Y-24232712D01*
X26707540Y-24167848D01*
X26764454Y-24127320D01*
X26805010Y-24120500D01*
X26921856Y-24120500D01*
X26988895Y-24140185D01*
X27009537Y-24156819D01*
X40013688Y-37160970D01*
X40093612Y-37207114D01*
X40182756Y-37231000D01*
X40182758Y-37231000D01*
X68665642Y-37231000D01*
X68665644Y-37231000D01*
X68754788Y-37207114D01*
X68834712Y-37160970D01*
X69687031Y-36308649D01*
X69748352Y-36275166D01*
X69813029Y-36278401D01*
X69817547Y-36279869D01*
X69817555Y-36279873D01*
X69982299Y-36333402D01*
X70153389Y-36360500D01*
X70153390Y-36360500D01*
X70326610Y-36360500D01*
X70326611Y-36360500D01*
X70497701Y-36333402D01*
X70662445Y-36279873D01*
X70816788Y-36201232D01*
X70956928Y-36099414D01*
X70956933Y-36099408D01*
X70959614Y-36097461D01*
X71025420Y-36073981D01*
X71093474Y-36089806D01*
X71142169Y-36139911D01*
X71156500Y-36197779D01*
X71156500Y-45928456D01*
X71136815Y-45995495D01*
X71120181Y-46016137D01*
X67773137Y-49363181D01*
X67711814Y-49396666D01*
X67685456Y-49399500D01*
X67613389Y-49399500D01*
X67573728Y-49405781D01*
X67442302Y-49426597D01*
X67277552Y-49480128D01*
X67123211Y-49558768D01*
X67058562Y-49605739D01*
X66983072Y-49660586D01*
X66983070Y-49660588D01*
X66983069Y-49660588D01*
X66860588Y-49783069D01*
X66860588Y-49783070D01*
X66860586Y-49783072D01*
X66832839Y-49821263D01*
X66777509Y-49863928D01*
X66707895Y-49869907D01*
X66646100Y-49837301D01*
X66644840Y-49836058D01*
X65847313Y-49038531D01*
X65847308Y-49038527D01*
X65767390Y-48992387D01*
X65767389Y-48992386D01*
X65767388Y-48992386D01*
X65678244Y-48968500D01*
X63754856Y-48968500D01*
X63665712Y-48992386D01*
X63665709Y-48992387D01*
X63585791Y-49038527D01*
X63585786Y-49038531D01*
X63172969Y-49451347D01*
X63111646Y-49484832D01*
X63046970Y-49481597D01*
X62877698Y-49426597D01*
X62746271Y-49405781D01*
X62706611Y-49399500D01*
X62533389Y-49399500D01*
X62493728Y-49405781D01*
X62362302Y-49426597D01*
X62197552Y-49480128D01*
X62043211Y-49558768D01*
X61978562Y-49605739D01*
X61903072Y-49660586D01*
X61903070Y-49660588D01*
X61903069Y-49660588D01*
X61780588Y-49783069D01*
X61780588Y-49783070D01*
X61780586Y-49783072D01*
X61751526Y-49823070D01*
X61678768Y-49923211D01*
X61600128Y-50077552D01*
X61546597Y-50242302D01*
X61519500Y-50413389D01*
X61519500Y-50586610D01*
X61546597Y-50757697D01*
X61546597Y-50757699D01*
X61546598Y-50757701D01*
X61600127Y-50922445D01*
X61678768Y-51076788D01*
X61780586Y-51216928D01*
X61903072Y-51339414D01*
X62043212Y-51441232D01*
X62197555Y-51519873D01*
X62362299Y-51573402D01*
X62533389Y-51600500D01*
X62533390Y-51600500D01*
X62706610Y-51600500D01*
X62706611Y-51600500D01*
X62877701Y-51573402D01*
X63042445Y-51519873D01*
X63196788Y-51441232D01*
X63336928Y-51339414D01*
X63459414Y-51216928D01*
X63561232Y-51076788D01*
X63639873Y-50922445D01*
X63693402Y-50757701D01*
X63720500Y-50586611D01*
X63720500Y-50413389D01*
X63693402Y-50242299D01*
X63639873Y-50077555D01*
X63639869Y-50077547D01*
X63638401Y-50073029D01*
X63636406Y-50003188D01*
X63668648Y-49947033D01*
X63909864Y-49705816D01*
X63971186Y-49672334D01*
X63997544Y-49669500D01*
X64159737Y-49669500D01*
X64226776Y-49689185D01*
X64272531Y-49741989D01*
X64282475Y-49811147D01*
X64260055Y-49866384D01*
X64250967Y-49878894D01*
X64218768Y-49923211D01*
X64140128Y-50077552D01*
X64086597Y-50242302D01*
X64059500Y-50413389D01*
X64059500Y-50586610D01*
X64086597Y-50757697D01*
X64086597Y-50757699D01*
X64086598Y-50757701D01*
X64140127Y-50922445D01*
X64218768Y-51076788D01*
X64320586Y-51216928D01*
X64443072Y-51339414D01*
X64583212Y-51441232D01*
X64737555Y-51519873D01*
X64902299Y-51573402D01*
X65073389Y-51600500D01*
X65073390Y-51600500D01*
X65246610Y-51600500D01*
X65246611Y-51600500D01*
X65417701Y-51573402D01*
X65582445Y-51519873D01*
X65582454Y-51519868D01*
X65586970Y-51518401D01*
X65656811Y-51516406D01*
X65712970Y-51548651D01*
X66057238Y-51892919D01*
X66090723Y-51954242D01*
X66085739Y-52023934D01*
X66043867Y-52079867D01*
X65978403Y-52104284D01*
X65969557Y-52104600D01*
X51820444Y-52104600D01*
X51753405Y-52084915D01*
X51732763Y-52068281D01*
X42513113Y-42848631D01*
X42513108Y-42848627D01*
X42433190Y-42802487D01*
X42433189Y-42802486D01*
X42433188Y-42802486D01*
X42344044Y-42778600D01*
X42344043Y-42778600D01*
X40695486Y-42778600D01*
X40628447Y-42758915D01*
X40607805Y-42742281D01*
X40554117Y-42688593D01*
X40554111Y-42688588D01*
X40428588Y-42616117D01*
X40428589Y-42616117D01*
X40417106Y-42613040D01*
X40288575Y-42578600D01*
X40143625Y-42578600D01*
X40015093Y-42613040D01*
X40003611Y-42616117D01*
X39878088Y-42688588D01*
X39878082Y-42688593D01*
X39775593Y-42791082D01*
X39775588Y-42791088D01*
X39703117Y-42916611D01*
X39703116Y-42916615D01*
X39665600Y-43056625D01*
X39665600Y-43201575D01*
X39703116Y-43341585D01*
X39703117Y-43341588D01*
X39775588Y-43467111D01*
X39775590Y-43467113D01*
X39775591Y-43467115D01*
X39878085Y-43569609D01*
X39878086Y-43569610D01*
X39878088Y-43569611D01*
X40003611Y-43642082D01*
X40003612Y-43642082D01*
X40003615Y-43642084D01*
X40143625Y-43679600D01*
X40143628Y-43679600D01*
X40288572Y-43679600D01*
X40288575Y-43679600D01*
X40428585Y-43642084D01*
X40554115Y-43569609D01*
X40607805Y-43515919D01*
X40669128Y-43482434D01*
X40695486Y-43479600D01*
X42101356Y-43479600D01*
X42168395Y-43499285D01*
X42189037Y-43515919D01*
X45384232Y-46711114D01*
X45417717Y-46772437D01*
X45412733Y-46842129D01*
X45370861Y-46898062D01*
X45315950Y-46921268D01*
X45282301Y-46926597D01*
X45117552Y-46980128D01*
X44963211Y-47058768D01*
X44883256Y-47116859D01*
X44823072Y-47160586D01*
X44823070Y-47160588D01*
X44823069Y-47160588D01*
X44700588Y-47283069D01*
X44700588Y-47283070D01*
X44700586Y-47283072D01*
X44671056Y-47323716D01*
X44598768Y-47423211D01*
X44520128Y-47577552D01*
X44466597Y-47742302D01*
X44440168Y-47909172D01*
X44439500Y-47913389D01*
X44439500Y-48086611D01*
X44445577Y-48124981D01*
X44461268Y-48224053D01*
X44466598Y-48257701D01*
X44520127Y-48422445D01*
X44598768Y-48576788D01*
X44700586Y-48716928D01*
X44823072Y-48839414D01*
X44963212Y-48941232D01*
X45117555Y-49019873D01*
X45282299Y-49073402D01*
X45453389Y-49100500D01*
X45453390Y-49100500D01*
X45626610Y-49100500D01*
X45626611Y-49100500D01*
X45797701Y-49073402D01*
X45962445Y-49019873D01*
X46116788Y-48941232D01*
X46256928Y-48839414D01*
X46379414Y-48716928D01*
X46481232Y-48576788D01*
X46559873Y-48422445D01*
X46613402Y-48257701D01*
X46618731Y-48224048D01*
X46648658Y-48160918D01*
X46707969Y-48123985D01*
X46777831Y-48124981D01*
X46828885Y-48155767D01*
X51408688Y-52735570D01*
X51479504Y-52776455D01*
X51479506Y-52776457D01*
X51488610Y-52781713D01*
X51488612Y-52781714D01*
X51577756Y-52805600D01*
X51577757Y-52805600D01*
X51577758Y-52805600D01*
X73411042Y-52805600D01*
X73411044Y-52805600D01*
X73500188Y-52781714D01*
X73509293Y-52776457D01*
X73580112Y-52735570D01*
X74767031Y-51548649D01*
X74828352Y-51515166D01*
X74893029Y-51518401D01*
X74897547Y-51519869D01*
X74897555Y-51519873D01*
X75062299Y-51573402D01*
X75233389Y-51600500D01*
X75233390Y-51600500D01*
X75406610Y-51600500D01*
X75406611Y-51600500D01*
X75577701Y-51573402D01*
X75742445Y-51519873D01*
X75896788Y-51441232D01*
X76036928Y-51339414D01*
X76159414Y-51216928D01*
X76189266Y-51175839D01*
X76244591Y-51133176D01*
X76314205Y-51127195D01*
X76376000Y-51159800D01*
X76377263Y-51161045D01*
X76732608Y-51516389D01*
X77087331Y-51871112D01*
X77152588Y-51936369D01*
X77152591Y-51936370D01*
X77152594Y-51936373D01*
X77232506Y-51982511D01*
X77232507Y-51982511D01*
X77232512Y-51982514D01*
X77321656Y-52006400D01*
X77321658Y-52006400D01*
X80919542Y-52006400D01*
X80919544Y-52006400D01*
X81008688Y-51982514D01*
X81088612Y-51936370D01*
X81858070Y-51166912D01*
X81858075Y-51166901D01*
X81862884Y-51160637D01*
X81919312Y-51119435D01*
X81989058Y-51115280D01*
X82049979Y-51149493D01*
X82061576Y-51163236D01*
X82100586Y-51216928D01*
X82223072Y-51339414D01*
X82363212Y-51441232D01*
X82517555Y-51519873D01*
X82682299Y-51573402D01*
X82853389Y-51600500D01*
X82853390Y-51600500D01*
X83026610Y-51600500D01*
X83026611Y-51600500D01*
X83197701Y-51573402D01*
X83362445Y-51519873D01*
X83516788Y-51441232D01*
X83656928Y-51339414D01*
X83779414Y-51216928D01*
X83881232Y-51076788D01*
X83959873Y-50922445D01*
X84013402Y-50757701D01*
X84040500Y-50586611D01*
X84040500Y-50413389D01*
X84379500Y-50413389D01*
X84379500Y-50586610D01*
X84406597Y-50757697D01*
X84406597Y-50757699D01*
X84406598Y-50757701D01*
X84460127Y-50922445D01*
X84538768Y-51076788D01*
X84640586Y-51216928D01*
X84763072Y-51339414D01*
X84903212Y-51441232D01*
X85057555Y-51519873D01*
X85222299Y-51573402D01*
X85393389Y-51600500D01*
X85393390Y-51600500D01*
X85566610Y-51600500D01*
X85566611Y-51600500D01*
X85737701Y-51573402D01*
X85902445Y-51519873D01*
X86056788Y-51441232D01*
X86196928Y-51339414D01*
X86319414Y-51216928D01*
X86421232Y-51076788D01*
X86499873Y-50922445D01*
X86514083Y-50878711D01*
X119149500Y-50878711D01*
X119149500Y-51121288D01*
X119181161Y-51361785D01*
X119243947Y-51596104D01*
X119280030Y-51683215D01*
X119336776Y-51820212D01*
X119458064Y-52030289D01*
X119458066Y-52030292D01*
X119458067Y-52030293D01*
X119605733Y-52222736D01*
X119605739Y-52222743D01*
X119777256Y-52394260D01*
X119777262Y-52394265D01*
X119969711Y-52541936D01*
X120179788Y-52663224D01*
X120403900Y-52756054D01*
X120638211Y-52818838D01*
X120818586Y-52842584D01*
X120878711Y-52850500D01*
X120878712Y-52850500D01*
X121121289Y-52850500D01*
X121169388Y-52844167D01*
X121361789Y-52818838D01*
X121596100Y-52756054D01*
X121820212Y-52663224D01*
X122030289Y-52541936D01*
X122222738Y-52394265D01*
X122394265Y-52222738D01*
X122541936Y-52030289D01*
X122663224Y-51820212D01*
X122756054Y-51596100D01*
X122818838Y-51361789D01*
X122850500Y-51121288D01*
X122850500Y-50878712D01*
X122818838Y-50638211D01*
X122756054Y-50403900D01*
X122663224Y-50179788D01*
X122541936Y-49969711D01*
X122445350Y-49843837D01*
X122394266Y-49777263D01*
X122394260Y-49777256D01*
X122222743Y-49605739D01*
X122222736Y-49605733D01*
X122030293Y-49458067D01*
X122030292Y-49458066D01*
X122030289Y-49458064D01*
X121820212Y-49336776D01*
X121820205Y-49336773D01*
X121596104Y-49243947D01*
X121361785Y-49181161D01*
X121121289Y-49149500D01*
X121121288Y-49149500D01*
X120878712Y-49149500D01*
X120878711Y-49149500D01*
X120638214Y-49181161D01*
X120403895Y-49243947D01*
X120179794Y-49336773D01*
X120179785Y-49336777D01*
X119969706Y-49458067D01*
X119777263Y-49605733D01*
X119777256Y-49605739D01*
X119605739Y-49777256D01*
X119605733Y-49777263D01*
X119458067Y-49969706D01*
X119336777Y-50179785D01*
X119336773Y-50179794D01*
X119243947Y-50403895D01*
X119181161Y-50638214D01*
X119149500Y-50878711D01*
X86514083Y-50878711D01*
X86553402Y-50757701D01*
X86580500Y-50586611D01*
X86580500Y-50413389D01*
X86553402Y-50242299D01*
X86499873Y-50077555D01*
X86421232Y-49923212D01*
X86319414Y-49783072D01*
X86196928Y-49660586D01*
X86056788Y-49558768D01*
X85902445Y-49480127D01*
X85737701Y-49426598D01*
X85737699Y-49426597D01*
X85737698Y-49426597D01*
X85606271Y-49405781D01*
X85566611Y-49399500D01*
X85393389Y-49399500D01*
X85353728Y-49405781D01*
X85222302Y-49426597D01*
X85057552Y-49480128D01*
X84903211Y-49558768D01*
X84838562Y-49605739D01*
X84763072Y-49660586D01*
X84763070Y-49660588D01*
X84763069Y-49660588D01*
X84640588Y-49783069D01*
X84640588Y-49783070D01*
X84640586Y-49783072D01*
X84611526Y-49823070D01*
X84538768Y-49923211D01*
X84460128Y-50077552D01*
X84406597Y-50242302D01*
X84379500Y-50413389D01*
X84040500Y-50413389D01*
X84013402Y-50242299D01*
X83959873Y-50077555D01*
X83959869Y-50077547D01*
X83958401Y-50073029D01*
X83956406Y-50003188D01*
X83988649Y-49947031D01*
X101308638Y-32627041D01*
X101308659Y-32627024D01*
X101315713Y-32619969D01*
X101315716Y-32619968D01*
X101365482Y-32570200D01*
X105048863Y-28886819D01*
X105110186Y-28853334D01*
X105136544Y-28850500D01*
X106825501Y-28850500D01*
X106892540Y-28870185D01*
X106938295Y-28922989D01*
X106949501Y-28974500D01*
X106949501Y-29097876D01*
X106955908Y-29157483D01*
X107006202Y-29292328D01*
X107006206Y-29292335D01*
X107092452Y-29407544D01*
X107092455Y-29407547D01*
X107207664Y-29493793D01*
X107207671Y-29493797D01*
X107342517Y-29544091D01*
X107342516Y-29544091D01*
X107349444Y-29544835D01*
X107402127Y-29550500D01*
X108503455Y-29550499D01*
X108570494Y-29570184D01*
X108591136Y-29586818D01*
X108913381Y-29909063D01*
X108946866Y-29970386D01*
X108949700Y-29996744D01*
X108949700Y-34725500D01*
X108930015Y-34792539D01*
X108877211Y-34838294D01*
X108825700Y-34849500D01*
X107075323Y-34849500D01*
X107002264Y-34864032D01*
X107002260Y-34864033D01*
X106919399Y-34919399D01*
X106864033Y-35002260D01*
X106864032Y-35002264D01*
X106849500Y-35075321D01*
X106849500Y-36924678D01*
X106864032Y-36997735D01*
X106864033Y-36997739D01*
X106882405Y-37025235D01*
X106919399Y-37080601D01*
X107002260Y-37135966D01*
X107002264Y-37135967D01*
X107075321Y-37150499D01*
X107075324Y-37150500D01*
X108825700Y-37150500D01*
X108892739Y-37170185D01*
X108938494Y-37222989D01*
X108949700Y-37274500D01*
X108949700Y-40471543D01*
X108973586Y-40560687D01*
X108973587Y-40560690D01*
X109019727Y-40640608D01*
X109019731Y-40640613D01*
X112200481Y-43821363D01*
X112233966Y-43882686D01*
X112236800Y-43909044D01*
X112236800Y-43984975D01*
X112274316Y-44124985D01*
X112274317Y-44124988D01*
X112346788Y-44250511D01*
X112346790Y-44250513D01*
X112346791Y-44250515D01*
X112449285Y-44353009D01*
X112449286Y-44353010D01*
X112449288Y-44353011D01*
X112574811Y-44425482D01*
X112574812Y-44425482D01*
X112574815Y-44425484D01*
X112714825Y-44463000D01*
X112714828Y-44463000D01*
X112859772Y-44463000D01*
X112859775Y-44463000D01*
X112999785Y-44425484D01*
X113125315Y-44353009D01*
X113227809Y-44250515D01*
X113300284Y-44124985D01*
X113337800Y-43984975D01*
X113337800Y-43840025D01*
X113300284Y-43700015D01*
X113288497Y-43679600D01*
X113227811Y-43574488D01*
X113227806Y-43574482D01*
X113125317Y-43471993D01*
X113125311Y-43471988D01*
X112999788Y-43399517D01*
X112999789Y-43399517D01*
X112988306Y-43396440D01*
X112859775Y-43362000D01*
X112859772Y-43362000D01*
X112783844Y-43362000D01*
X112716805Y-43342315D01*
X112696163Y-43325681D01*
X109687019Y-40316537D01*
X109653534Y-40255214D01*
X109650700Y-40228856D01*
X109650700Y-29754058D01*
X109650700Y-29754056D01*
X109626814Y-29664912D01*
X109620414Y-29653827D01*
X109580669Y-29584987D01*
X109086818Y-29091136D01*
X109053333Y-29029813D01*
X109050499Y-29003455D01*
X109050499Y-27996544D01*
X109070184Y-27929505D01*
X109086818Y-27908863D01*
X109215362Y-27780319D01*
X109276685Y-27746834D01*
X109303043Y-27744000D01*
X111196956Y-27744000D01*
X111263995Y-27763685D01*
X111284637Y-27780319D01*
X114713181Y-31208863D01*
X114746666Y-31270186D01*
X114749500Y-31296544D01*
X114749500Y-32797870D01*
X114749501Y-32797876D01*
X114755908Y-32857483D01*
X114806202Y-32992328D01*
X114806206Y-32992335D01*
X114892452Y-33107544D01*
X114892455Y-33107547D01*
X115007664Y-33193793D01*
X115007671Y-33193797D01*
X115142517Y-33244091D01*
X115142516Y-33244091D01*
X115149444Y-33244835D01*
X115202127Y-33250500D01*
X116797872Y-33250499D01*
X116857483Y-33244091D01*
X116992331Y-33193796D01*
X117107546Y-33107546D01*
X117193796Y-32992331D01*
X117244091Y-32857483D01*
X117250500Y-32797873D01*
X117250499Y-31202128D01*
X117244091Y-31142517D01*
X117208146Y-31046144D01*
X117193797Y-31007671D01*
X117193793Y-31007664D01*
X117107547Y-30892455D01*
X117107544Y-30892452D01*
X116992335Y-30806206D01*
X116992328Y-30806202D01*
X116857482Y-30755908D01*
X116857483Y-30755908D01*
X116797883Y-30749501D01*
X116797881Y-30749500D01*
X116797873Y-30749500D01*
X116797865Y-30749500D01*
X116474500Y-30749500D01*
X116407461Y-30729815D01*
X116361706Y-30677011D01*
X116350500Y-30625500D01*
X116350500Y-23196543D01*
X116370185Y-23129504D01*
X116386814Y-23108867D01*
X117908863Y-21586817D01*
X117970186Y-21553333D01*
X117996544Y-21550499D01*
X120097871Y-21550499D01*
X120097872Y-21550499D01*
X120157483Y-21544091D01*
X120292331Y-21493796D01*
X120407546Y-21407546D01*
X120493796Y-21292331D01*
X120544091Y-21157483D01*
X120550500Y-21097873D01*
X120550499Y-18902128D01*
X120544091Y-18842517D01*
X120531211Y-18807985D01*
X120493797Y-18707671D01*
X120493793Y-18707664D01*
X120407547Y-18592455D01*
X120407544Y-18592452D01*
X120292335Y-18506206D01*
X120292328Y-18506202D01*
X120157482Y-18455908D01*
X120157483Y-18455908D01*
X120097883Y-18449501D01*
X120097881Y-18449500D01*
X120097873Y-18449500D01*
X120097864Y-18449500D01*
X117902129Y-18449500D01*
X117902123Y-18449501D01*
X117842516Y-18455908D01*
X117707671Y-18506202D01*
X117707664Y-18506206D01*
X117592455Y-18592452D01*
X117592452Y-18592455D01*
X117506206Y-18707664D01*
X117506202Y-18707671D01*
X117455908Y-18842517D01*
X117449501Y-18902116D01*
X117449501Y-18902123D01*
X117449500Y-18902135D01*
X117449500Y-21003455D01*
X117429815Y-21070494D01*
X117413181Y-21091136D01*
X115719531Y-22784786D01*
X115719527Y-22784791D01*
X115673387Y-22864709D01*
X115673386Y-22864712D01*
X115649500Y-22953856D01*
X115649500Y-30625500D01*
X115629815Y-30692539D01*
X115577011Y-30738294D01*
X115525500Y-30749500D01*
X115296544Y-30749500D01*
X115229505Y-30729815D01*
X115208863Y-30713181D01*
X111608713Y-27113031D01*
X111608708Y-27113027D01*
X111528790Y-27066887D01*
X111528789Y-27066886D01*
X111528788Y-27066886D01*
X111439644Y-27043000D01*
X109060356Y-27043000D01*
X108971212Y-27066886D01*
X108971211Y-27066886D01*
X108971209Y-27066887D01*
X108971206Y-27066888D01*
X108891294Y-27113026D01*
X108891285Y-27113033D01*
X108591137Y-27413181D01*
X108529814Y-27446666D01*
X108503456Y-27449500D01*
X107402129Y-27449500D01*
X107402123Y-27449501D01*
X107342516Y-27455908D01*
X107207671Y-27506202D01*
X107207664Y-27506206D01*
X107092455Y-27592452D01*
X107092452Y-27592455D01*
X107006206Y-27707664D01*
X107006202Y-27707671D01*
X106955908Y-27842517D01*
X106949501Y-27902116D01*
X106949500Y-27902135D01*
X106949500Y-28025500D01*
X106929815Y-28092539D01*
X106877011Y-28138294D01*
X106825500Y-28149500D01*
X104893856Y-28149500D01*
X104804712Y-28173386D01*
X104804709Y-28173387D01*
X104724791Y-28219527D01*
X104724786Y-28219531D01*
X101188177Y-31756139D01*
X101126854Y-31789624D01*
X101057162Y-31784640D01*
X101012816Y-31756140D01*
X97129120Y-27872530D01*
X97095634Y-27811207D01*
X97092800Y-27784848D01*
X97092800Y-27777944D01*
X97112485Y-27710905D01*
X97129119Y-27690263D01*
X98703876Y-26115506D01*
X100347470Y-24471912D01*
X100393614Y-24391988D01*
X100417500Y-24302843D01*
X100417500Y-24210556D01*
X100417500Y-19153056D01*
X100393614Y-19063912D01*
X100377504Y-19036009D01*
X100377504Y-19036008D01*
X100377502Y-19036006D01*
X100347472Y-18983991D01*
X100347468Y-18983986D01*
X100050119Y-18686637D01*
X100016634Y-18625314D01*
X100013800Y-18598956D01*
X100013800Y-18523027D01*
X100013800Y-18523025D01*
X99976284Y-18383015D01*
X99903809Y-18257485D01*
X99801315Y-18154991D01*
X99801313Y-18154990D01*
X99801311Y-18154988D01*
X99675788Y-18082517D01*
X99675789Y-18082517D01*
X99664306Y-18079440D01*
X99535775Y-18045000D01*
X99535772Y-18045000D01*
X99459844Y-18045000D01*
X99392805Y-18025315D01*
X99372163Y-18008681D01*
X96886819Y-15523337D01*
X96853334Y-15462014D01*
X96850500Y-15435656D01*
X96850500Y-8257518D01*
X96870185Y-8190479D01*
X96918206Y-8147033D01*
X97076786Y-8066233D01*
X97076785Y-8066233D01*
X97076788Y-8066232D01*
X97216928Y-7964414D01*
X97339414Y-7841928D01*
X97441232Y-7701788D01*
X97519873Y-7547445D01*
X97573402Y-7382701D01*
X97600500Y-7211611D01*
X97600500Y-6788389D01*
X105399500Y-6788389D01*
X105399500Y-7211611D01*
X105426598Y-7382701D01*
X105480127Y-7547445D01*
X105558768Y-7701788D01*
X105660586Y-7841928D01*
X105783072Y-7964414D01*
X105923212Y-8066232D01*
X106077555Y-8144873D01*
X106242299Y-8198402D01*
X106413389Y-8225500D01*
X106413390Y-8225500D01*
X106586610Y-8225500D01*
X106586611Y-8225500D01*
X106757701Y-8198402D01*
X106922445Y-8144873D01*
X107076788Y-8066232D01*
X107216928Y-7964414D01*
X107339414Y-7841928D01*
X107441232Y-7701788D01*
X107519873Y-7547445D01*
X107573402Y-7382701D01*
X107600500Y-7211611D01*
X107600500Y-6788389D01*
X107899500Y-6788389D01*
X107899500Y-7211611D01*
X107926598Y-7382701D01*
X107980127Y-7547445D01*
X108058768Y-7701788D01*
X108160586Y-7841928D01*
X108283072Y-7964414D01*
X108423212Y-8066232D01*
X108577555Y-8144873D01*
X108742299Y-8198402D01*
X108913389Y-8225500D01*
X108913390Y-8225500D01*
X109086610Y-8225500D01*
X109086611Y-8225500D01*
X109257701Y-8198402D01*
X109422445Y-8144873D01*
X109576788Y-8066232D01*
X109716928Y-7964414D01*
X109839414Y-7841928D01*
X109941232Y-7701788D01*
X110019873Y-7547445D01*
X110073402Y-7382701D01*
X110100500Y-7211611D01*
X110100500Y-6788389D01*
X110399500Y-6788389D01*
X110399500Y-7211611D01*
X110426598Y-7382701D01*
X110480127Y-7547445D01*
X110558768Y-7701788D01*
X110660586Y-7841928D01*
X110783072Y-7964414D01*
X110923212Y-8066232D01*
X111077555Y-8144873D01*
X111242299Y-8198402D01*
X111413389Y-8225500D01*
X111413390Y-8225500D01*
X111586610Y-8225500D01*
X111586611Y-8225500D01*
X111757701Y-8198402D01*
X111922445Y-8144873D01*
X112076788Y-8066232D01*
X112216928Y-7964414D01*
X112339414Y-7841928D01*
X112441232Y-7701788D01*
X112519873Y-7547445D01*
X112573402Y-7382701D01*
X112600500Y-7211611D01*
X112600500Y-6788389D01*
X112573402Y-6617299D01*
X112519873Y-6452555D01*
X112441232Y-6298212D01*
X112339414Y-6158072D01*
X112216928Y-6035586D01*
X112076788Y-5933768D01*
X111922445Y-5855127D01*
X111757701Y-5801598D01*
X111757699Y-5801597D01*
X111757698Y-5801597D01*
X111626271Y-5780781D01*
X111586611Y-5774500D01*
X111413389Y-5774500D01*
X111373728Y-5780781D01*
X111242302Y-5801597D01*
X111077552Y-5855128D01*
X110923211Y-5933768D01*
X110843256Y-5991859D01*
X110783072Y-6035586D01*
X110783070Y-6035588D01*
X110783069Y-6035588D01*
X110660588Y-6158069D01*
X110660588Y-6158070D01*
X110660586Y-6158072D01*
X110616859Y-6218256D01*
X110558768Y-6298211D01*
X110480128Y-6452552D01*
X110426597Y-6617302D01*
X110417714Y-6673388D01*
X110399500Y-6788389D01*
X110100500Y-6788389D01*
X110073402Y-6617299D01*
X110019873Y-6452555D01*
X109941232Y-6298212D01*
X109839414Y-6158072D01*
X109716928Y-6035586D01*
X109576788Y-5933768D01*
X109422445Y-5855127D01*
X109257701Y-5801598D01*
X109257699Y-5801597D01*
X109257698Y-5801597D01*
X109126271Y-5780781D01*
X109086611Y-5774500D01*
X108913389Y-5774500D01*
X108873728Y-5780781D01*
X108742302Y-5801597D01*
X108577552Y-5855128D01*
X108423211Y-5933768D01*
X108343256Y-5991859D01*
X108283072Y-6035586D01*
X108283070Y-6035588D01*
X108283069Y-6035588D01*
X108160588Y-6158069D01*
X108160588Y-6158070D01*
X108160586Y-6158072D01*
X108116859Y-6218256D01*
X108058768Y-6298211D01*
X107980128Y-6452552D01*
X107926597Y-6617302D01*
X107917714Y-6673388D01*
X107899500Y-6788389D01*
X107600500Y-6788389D01*
X107573402Y-6617299D01*
X107519873Y-6452555D01*
X107441232Y-6298212D01*
X107339414Y-6158072D01*
X107216928Y-6035586D01*
X107076788Y-5933768D01*
X106922445Y-5855127D01*
X106757701Y-5801598D01*
X106757699Y-5801597D01*
X106757698Y-5801597D01*
X106626271Y-5780781D01*
X106586611Y-5774500D01*
X106413389Y-5774500D01*
X106373728Y-5780781D01*
X106242302Y-5801597D01*
X106077552Y-5855128D01*
X105923211Y-5933768D01*
X105843256Y-5991859D01*
X105783072Y-6035586D01*
X105783070Y-6035588D01*
X105783069Y-6035588D01*
X105660588Y-6158069D01*
X105660588Y-6158070D01*
X105660586Y-6158072D01*
X105616859Y-6218256D01*
X105558768Y-6298211D01*
X105480128Y-6452552D01*
X105426597Y-6617302D01*
X105417714Y-6673388D01*
X105399500Y-6788389D01*
X97600500Y-6788389D01*
X97573402Y-6617299D01*
X97519873Y-6452555D01*
X97441232Y-6298212D01*
X97339414Y-6158072D01*
X97216928Y-6035586D01*
X97076788Y-5933768D01*
X96922445Y-5855127D01*
X96757701Y-5801598D01*
X96757699Y-5801597D01*
X96757698Y-5801597D01*
X96626271Y-5780781D01*
X96586611Y-5774500D01*
X96413389Y-5774500D01*
X96373728Y-5780781D01*
X96242302Y-5801597D01*
X96077552Y-5855128D01*
X95923211Y-5933768D01*
X95843256Y-5991859D01*
X95783072Y-6035586D01*
X95783070Y-6035588D01*
X95783069Y-6035588D01*
X95660588Y-6158069D01*
X95660588Y-6158070D01*
X95660586Y-6158072D01*
X95616859Y-6218256D01*
X95558768Y-6298211D01*
X95480128Y-6452552D01*
X95426597Y-6617302D01*
X95417714Y-6673388D01*
X95399500Y-6788389D01*
X95399500Y-7211611D01*
X95426598Y-7382701D01*
X95480127Y-7547445D01*
X95558768Y-7701788D01*
X95660586Y-7841928D01*
X95783072Y-7964414D01*
X95863367Y-8022752D01*
X95923213Y-8066233D01*
X96081794Y-8147033D01*
X96132591Y-8195007D01*
X96149500Y-8257518D01*
X96149500Y-15678343D01*
X96173386Y-15767487D01*
X96173387Y-15767490D01*
X96219527Y-15847408D01*
X96219531Y-15847413D01*
X98876481Y-18504363D01*
X98909966Y-18565686D01*
X98912800Y-18592044D01*
X98912800Y-18667975D01*
X98950316Y-18807985D01*
X98950317Y-18807988D01*
X99022788Y-18933511D01*
X99022790Y-18933513D01*
X99022791Y-18933515D01*
X99125285Y-19036009D01*
X99125286Y-19036010D01*
X99125288Y-19036011D01*
X99250811Y-19108482D01*
X99250812Y-19108482D01*
X99250815Y-19108484D01*
X99390825Y-19146000D01*
X99466756Y-19146000D01*
X99533795Y-19165685D01*
X99554437Y-19182319D01*
X99680181Y-19308063D01*
X99713666Y-19369386D01*
X99716500Y-19395744D01*
X99716500Y-20566781D01*
X99696815Y-20633820D01*
X99644011Y-20679575D01*
X99574853Y-20689519D01*
X99560411Y-20686556D01*
X99534075Y-20679500D01*
X99389125Y-20679500D01*
X99260593Y-20713940D01*
X99249111Y-20717017D01*
X99123588Y-20789488D01*
X99123582Y-20789493D01*
X99021093Y-20891982D01*
X99021088Y-20891988D01*
X98948617Y-21017511D01*
X98948616Y-21017515D01*
X98911100Y-21157525D01*
X98911100Y-21157527D01*
X98911100Y-21233456D01*
X98891415Y-21300495D01*
X98874781Y-21321137D01*
X92522231Y-27673686D01*
X92522229Y-27673688D01*
X92506095Y-27701635D01*
X92480432Y-27746085D01*
X92480430Y-27746089D01*
X92476086Y-27753611D01*
X92452200Y-27842756D01*
X92452200Y-33435756D01*
X92432515Y-33502795D01*
X92415881Y-33523437D01*
X78689437Y-47249881D01*
X78628114Y-47283366D01*
X78601756Y-47286200D01*
X78525825Y-47286200D01*
X78397293Y-47320640D01*
X78385811Y-47323717D01*
X78260288Y-47396188D01*
X78260282Y-47396193D01*
X78157793Y-47498682D01*
X78157788Y-47498688D01*
X78085317Y-47624211D01*
X78085316Y-47624215D01*
X78047800Y-47764225D01*
X78047800Y-47909175D01*
X78085316Y-48049185D01*
X78085317Y-48049188D01*
X78157788Y-48174711D01*
X78157790Y-48174713D01*
X78157791Y-48174715D01*
X78260285Y-48277209D01*
X78260286Y-48277210D01*
X78260288Y-48277211D01*
X78385811Y-48349682D01*
X78385812Y-48349682D01*
X78385815Y-48349684D01*
X78525825Y-48387200D01*
X78525828Y-48387200D01*
X78670772Y-48387200D01*
X78670775Y-48387200D01*
X78810785Y-48349684D01*
X78936315Y-48277209D01*
X79038809Y-48174715D01*
X79111284Y-48049185D01*
X79148800Y-47909175D01*
X79148800Y-47833244D01*
X79168485Y-47766205D01*
X79185119Y-47745563D01*
X85943782Y-40986900D01*
X93083170Y-33847512D01*
X93129314Y-33767588D01*
X93135019Y-33746297D01*
X93153200Y-33678444D01*
X93153200Y-28085444D01*
X93172885Y-28018405D01*
X93189519Y-27997763D01*
X94615919Y-26571363D01*
X94677242Y-26537878D01*
X94746934Y-26542862D01*
X94802867Y-26584734D01*
X94827284Y-26650198D01*
X94827600Y-26659044D01*
X94827600Y-32724156D01*
X94807915Y-32791195D01*
X94791281Y-32811837D01*
X81297131Y-46305986D01*
X81297127Y-46305991D01*
X81250987Y-46385909D01*
X81250986Y-46385912D01*
X81227100Y-46475056D01*
X81227100Y-50755156D01*
X81207415Y-50822195D01*
X81190781Y-50842837D01*
X80764537Y-51269081D01*
X80703214Y-51302566D01*
X80676856Y-51305400D01*
X78878499Y-51305400D01*
X78811460Y-51285715D01*
X78765705Y-51232911D01*
X78755761Y-51163753D01*
X78778182Y-51108513D01*
X78789227Y-51093312D01*
X78801232Y-51076788D01*
X78879873Y-50922445D01*
X78933402Y-50757701D01*
X78960500Y-50586611D01*
X78960500Y-50413389D01*
X78933402Y-50242299D01*
X78879873Y-50077555D01*
X78801232Y-49923212D01*
X78699414Y-49783072D01*
X78576928Y-49660586D01*
X78436788Y-49558768D01*
X78282445Y-49480127D01*
X78117701Y-49426598D01*
X78117699Y-49426597D01*
X78117698Y-49426597D01*
X77986271Y-49405781D01*
X77946611Y-49399500D01*
X77773389Y-49399500D01*
X77733728Y-49405781D01*
X77602302Y-49426597D01*
X77437552Y-49480128D01*
X77283211Y-49558768D01*
X77218562Y-49605739D01*
X77143072Y-49660586D01*
X77143070Y-49660588D01*
X77143069Y-49660588D01*
X77020588Y-49783069D01*
X77020588Y-49783070D01*
X77020586Y-49783072D01*
X77011779Y-49795193D01*
X76997465Y-49814894D01*
X76942133Y-49857558D01*
X76872520Y-49863534D01*
X76810726Y-49830926D01*
X76809468Y-49829686D01*
X76047613Y-49067831D01*
X76047608Y-49067827D01*
X75967691Y-49021687D01*
X75967687Y-49021685D01*
X75962255Y-49020230D01*
X75962255Y-49020229D01*
X75893863Y-49001904D01*
X75878544Y-48997800D01*
X74759856Y-48997800D01*
X74676144Y-49020229D01*
X74676145Y-49020230D01*
X74670712Y-49021685D01*
X74590787Y-49067831D01*
X74590784Y-49067833D01*
X73829857Y-49828760D01*
X73768534Y-49862245D01*
X73698842Y-49857261D01*
X73642909Y-49815389D01*
X73641946Y-49814085D01*
X73619414Y-49783072D01*
X73496928Y-49660586D01*
X73356788Y-49558768D01*
X73202445Y-49480127D01*
X73037701Y-49426598D01*
X73037699Y-49426597D01*
X73037698Y-49426597D01*
X72906271Y-49405781D01*
X72866611Y-49399500D01*
X72693389Y-49399500D01*
X72653728Y-49405781D01*
X72522302Y-49426597D01*
X72357552Y-49480128D01*
X72203211Y-49558768D01*
X72138562Y-49605739D01*
X72063072Y-49660586D01*
X72063070Y-49660588D01*
X72063069Y-49660588D01*
X71940588Y-49783069D01*
X71940588Y-49783070D01*
X71940586Y-49783072D01*
X71911526Y-49823070D01*
X71838768Y-49923211D01*
X71760128Y-50077552D01*
X71706597Y-50242302D01*
X71679500Y-50413389D01*
X71679500Y-50586610D01*
X71706597Y-50757697D01*
X71706597Y-50757699D01*
X71706598Y-50757701D01*
X71760127Y-50922445D01*
X71838768Y-51076788D01*
X71940586Y-51216928D01*
X72063072Y-51339414D01*
X72203212Y-51441232D01*
X72215985Y-51447740D01*
X72256562Y-51468415D01*
X72307358Y-51516389D01*
X72324153Y-51584210D01*
X72301616Y-51650345D01*
X72246901Y-51693797D01*
X72200267Y-51702900D01*
X70819733Y-51702900D01*
X70752694Y-51683215D01*
X70706939Y-51630411D01*
X70696995Y-51561253D01*
X70726020Y-51497697D01*
X70763438Y-51468415D01*
X70766197Y-51467008D01*
X70816788Y-51441232D01*
X70956928Y-51339414D01*
X71079414Y-51216928D01*
X71181232Y-51076788D01*
X71259873Y-50922445D01*
X71313402Y-50757701D01*
X71340500Y-50586611D01*
X71340500Y-50413389D01*
X71313402Y-50242299D01*
X71259873Y-50077555D01*
X71181232Y-49923212D01*
X71079414Y-49783072D01*
X70956928Y-49660586D01*
X70816788Y-49558768D01*
X70662445Y-49480127D01*
X70497701Y-49426598D01*
X70497699Y-49426597D01*
X70497698Y-49426597D01*
X70366271Y-49405781D01*
X70326611Y-49399500D01*
X70153389Y-49399500D01*
X70113728Y-49405781D01*
X69982302Y-49426597D01*
X69817552Y-49480128D01*
X69663211Y-49558768D01*
X69608157Y-49598768D01*
X69523072Y-49660586D01*
X69523069Y-49660588D01*
X69519131Y-49663450D01*
X69518094Y-49662024D01*
X69461255Y-49687485D01*
X69392171Y-49677039D01*
X69339700Y-49630902D01*
X69320500Y-49564622D01*
X69320500Y-49497244D01*
X69340185Y-49430205D01*
X69356819Y-49409563D01*
X73073916Y-45692466D01*
X76845970Y-41920412D01*
X76892114Y-41840488D01*
X76906174Y-41788014D01*
X76916000Y-41751344D01*
X76916000Y-35173389D01*
X79299500Y-35173389D01*
X79299500Y-35346610D01*
X79326597Y-35517697D01*
X79326597Y-35517699D01*
X79326598Y-35517701D01*
X79380127Y-35682445D01*
X79458768Y-35836788D01*
X79560586Y-35976928D01*
X79683072Y-36099414D01*
X79823212Y-36201232D01*
X79977555Y-36279873D01*
X80142299Y-36333402D01*
X80313389Y-36360500D01*
X80313390Y-36360500D01*
X80486610Y-36360500D01*
X80486611Y-36360500D01*
X80657701Y-36333402D01*
X80822445Y-36279873D01*
X80976788Y-36201232D01*
X81116928Y-36099414D01*
X81239414Y-35976928D01*
X81341232Y-35836788D01*
X81419873Y-35682445D01*
X81473402Y-35517701D01*
X81500500Y-35346611D01*
X81500500Y-35173389D01*
X81839500Y-35173389D01*
X81839500Y-35346610D01*
X81866597Y-35517697D01*
X81866597Y-35517699D01*
X81866598Y-35517701D01*
X81920127Y-35682445D01*
X81998768Y-35836788D01*
X82100586Y-35976928D01*
X82223072Y-36099414D01*
X82363212Y-36201232D01*
X82517555Y-36279873D01*
X82682299Y-36333402D01*
X82853389Y-36360500D01*
X82853390Y-36360500D01*
X83026610Y-36360500D01*
X83026611Y-36360500D01*
X83197701Y-36333402D01*
X83362445Y-36279873D01*
X83516788Y-36201232D01*
X83656928Y-36099414D01*
X83779414Y-35976928D01*
X83881232Y-35836788D01*
X83959873Y-35682445D01*
X84013402Y-35517701D01*
X84040500Y-35346611D01*
X84040500Y-35173389D01*
X84013402Y-35002299D01*
X83959873Y-34837555D01*
X83881232Y-34683212D01*
X83779414Y-34543072D01*
X83656928Y-34420586D01*
X83608390Y-34385321D01*
X84379500Y-34385321D01*
X84379500Y-36134678D01*
X84394032Y-36207735D01*
X84394033Y-36207739D01*
X84394034Y-36207740D01*
X84449399Y-36290601D01*
X84532260Y-36345966D01*
X84532264Y-36345967D01*
X84605321Y-36360499D01*
X84605324Y-36360500D01*
X84605326Y-36360500D01*
X86354676Y-36360500D01*
X86354677Y-36360499D01*
X86427740Y-36345966D01*
X86510601Y-36290601D01*
X86565966Y-36207740D01*
X86580500Y-36134674D01*
X86580500Y-34385326D01*
X86580500Y-34385323D01*
X86580499Y-34385321D01*
X86565967Y-34312264D01*
X86565966Y-34312260D01*
X86510601Y-34229399D01*
X86427740Y-34174034D01*
X86427739Y-34174033D01*
X86427735Y-34174032D01*
X86354677Y-34159500D01*
X86354674Y-34159500D01*
X84605326Y-34159500D01*
X84605323Y-34159500D01*
X84532264Y-34174032D01*
X84532260Y-34174033D01*
X84449399Y-34229399D01*
X84394033Y-34312260D01*
X84394032Y-34312264D01*
X84379500Y-34385321D01*
X83608390Y-34385321D01*
X83516788Y-34318768D01*
X83362445Y-34240127D01*
X83197701Y-34186598D01*
X83197699Y-34186597D01*
X83197698Y-34186597D01*
X83066271Y-34165781D01*
X83026611Y-34159500D01*
X82853389Y-34159500D01*
X82813728Y-34165781D01*
X82682302Y-34186597D01*
X82517552Y-34240128D01*
X82363211Y-34318768D01*
X82351628Y-34327184D01*
X82223072Y-34420586D01*
X82223070Y-34420588D01*
X82223069Y-34420588D01*
X82100588Y-34543069D01*
X82100588Y-34543070D01*
X82100586Y-34543072D01*
X82056859Y-34603256D01*
X81998768Y-34683211D01*
X81920128Y-34837552D01*
X81866597Y-35002302D01*
X81839500Y-35173389D01*
X81500500Y-35173389D01*
X81473402Y-35002299D01*
X81419873Y-34837555D01*
X81341232Y-34683212D01*
X81239414Y-34543072D01*
X81116928Y-34420586D01*
X80976788Y-34318768D01*
X80822445Y-34240127D01*
X80657701Y-34186598D01*
X80657699Y-34186597D01*
X80657698Y-34186597D01*
X80526271Y-34165781D01*
X80486611Y-34159500D01*
X80313389Y-34159500D01*
X80273728Y-34165781D01*
X80142302Y-34186597D01*
X79977552Y-34240128D01*
X79823211Y-34318768D01*
X79811628Y-34327184D01*
X79683072Y-34420586D01*
X79683070Y-34420588D01*
X79683069Y-34420588D01*
X79560588Y-34543069D01*
X79560588Y-34543070D01*
X79560586Y-34543072D01*
X79516859Y-34603256D01*
X79458768Y-34683211D01*
X79380128Y-34837552D01*
X79326597Y-35002302D01*
X79299500Y-35173389D01*
X76916000Y-35173389D01*
X76916000Y-35058144D01*
X76935685Y-34991105D01*
X76952319Y-34970463D01*
X89495257Y-22427525D01*
X93951100Y-22427525D01*
X93951100Y-22572475D01*
X93956101Y-22591137D01*
X93988617Y-22712488D01*
X94061088Y-22838011D01*
X94061090Y-22838013D01*
X94061091Y-22838015D01*
X94163585Y-22940509D01*
X94163586Y-22940510D01*
X94163588Y-22940511D01*
X94289111Y-23012982D01*
X94289112Y-23012982D01*
X94289115Y-23012984D01*
X94429125Y-23050500D01*
X94429128Y-23050500D01*
X94574072Y-23050500D01*
X94574075Y-23050500D01*
X94714085Y-23012984D01*
X94839615Y-22940509D01*
X94942109Y-22838015D01*
X95014584Y-22712485D01*
X95052100Y-22572475D01*
X95052100Y-22427525D01*
X95014584Y-22287515D01*
X95007831Y-22275819D01*
X94942111Y-22161988D01*
X94942106Y-22161982D01*
X94839617Y-22059493D01*
X94839611Y-22059488D01*
X94714088Y-21987017D01*
X94714089Y-21987017D01*
X94682788Y-21978630D01*
X94574075Y-21949500D01*
X94429125Y-21949500D01*
X94320412Y-21978630D01*
X94289111Y-21987017D01*
X94163588Y-22059488D01*
X94163582Y-22059493D01*
X94061093Y-22161982D01*
X94061088Y-22161988D01*
X93988617Y-22287511D01*
X93988616Y-22287515D01*
X93951100Y-22427525D01*
X89495257Y-22427525D01*
X91553463Y-20369319D01*
X91614786Y-20335834D01*
X91641144Y-20333000D01*
X94054814Y-20333000D01*
X94121853Y-20352685D01*
X94142495Y-20369319D01*
X94196185Y-20423009D01*
X94196186Y-20423010D01*
X94196188Y-20423011D01*
X94321711Y-20495482D01*
X94321712Y-20495482D01*
X94321715Y-20495484D01*
X94461725Y-20533000D01*
X94461728Y-20533000D01*
X94606672Y-20533000D01*
X94606675Y-20533000D01*
X94746685Y-20495484D01*
X94872215Y-20423009D01*
X94974709Y-20320515D01*
X95047184Y-20194985D01*
X95084700Y-20054975D01*
X95084700Y-19910025D01*
X95047184Y-19770015D01*
X95034191Y-19747511D01*
X94974711Y-19644488D01*
X94974706Y-19644482D01*
X94872217Y-19541993D01*
X94872211Y-19541988D01*
X94746688Y-19469517D01*
X94746689Y-19469517D01*
X94735206Y-19466440D01*
X94606675Y-19432000D01*
X94461725Y-19432000D01*
X94333193Y-19466440D01*
X94321711Y-19469517D01*
X94196188Y-19541988D01*
X94196182Y-19541993D01*
X94142495Y-19595681D01*
X94081172Y-19629166D01*
X94054814Y-19632000D01*
X91398456Y-19632000D01*
X91309312Y-19655886D01*
X91309309Y-19655887D01*
X91229391Y-19702027D01*
X91229386Y-19702031D01*
X76285031Y-34646386D01*
X76285027Y-34646391D01*
X76238887Y-34726309D01*
X76238886Y-34726312D01*
X76215000Y-34815456D01*
X76215000Y-41508656D01*
X76195315Y-41575695D01*
X76178681Y-41596337D01*
X72069181Y-45705837D01*
X72007858Y-45739322D01*
X71938166Y-45734338D01*
X71882233Y-45692466D01*
X71857816Y-45627002D01*
X71857500Y-45618156D01*
X71857500Y-36192815D01*
X71877185Y-36125776D01*
X71929989Y-36080021D01*
X71999147Y-36070077D01*
X72058768Y-36097049D01*
X72059131Y-36096550D01*
X72061552Y-36098309D01*
X72062036Y-36098528D01*
X72063061Y-36099403D01*
X72063072Y-36099414D01*
X72203212Y-36201232D01*
X72357555Y-36279873D01*
X72522299Y-36333402D01*
X72693389Y-36360500D01*
X72693390Y-36360500D01*
X72866610Y-36360500D01*
X72866611Y-36360500D01*
X73037701Y-36333402D01*
X73202445Y-36279873D01*
X73356788Y-36201232D01*
X73496928Y-36099414D01*
X73619414Y-35976928D01*
X73721232Y-35836788D01*
X73799873Y-35682445D01*
X73853402Y-35517701D01*
X73880500Y-35346611D01*
X73880500Y-35173389D01*
X73853402Y-35002299D01*
X73799873Y-34837555D01*
X73721232Y-34683212D01*
X73619414Y-34543072D01*
X73496928Y-34420586D01*
X73356788Y-34318768D01*
X73202445Y-34240127D01*
X73037701Y-34186598D01*
X73037699Y-34186597D01*
X73037698Y-34186597D01*
X72906271Y-34165781D01*
X72866611Y-34159500D01*
X72693389Y-34159500D01*
X72653728Y-34165781D01*
X72522302Y-34186597D01*
X72357552Y-34240128D01*
X72203211Y-34318768D01*
X72063066Y-34420590D01*
X72062025Y-34421480D01*
X72061548Y-34421693D01*
X72059131Y-34423450D01*
X72058761Y-34422941D01*
X71998261Y-34450046D01*
X71929176Y-34439604D01*
X71876704Y-34393469D01*
X71857500Y-34327184D01*
X71857500Y-29187044D01*
X71877185Y-29120005D01*
X71893819Y-29099363D01*
X74731363Y-26261819D01*
X74792686Y-26228334D01*
X74819044Y-26225500D01*
X74894972Y-26225500D01*
X74894975Y-26225500D01*
X75034985Y-26187984D01*
X75160515Y-26115509D01*
X75263009Y-26013015D01*
X75335484Y-25887485D01*
X75373000Y-25747475D01*
X75373000Y-25602525D01*
X75335484Y-25462515D01*
X75272129Y-25352782D01*
X75263011Y-25336988D01*
X75263006Y-25336982D01*
X75160517Y-25234493D01*
X75160511Y-25234488D01*
X75034988Y-25162017D01*
X75034989Y-25162017D01*
X75023506Y-25158940D01*
X74894975Y-25124500D01*
X74750025Y-25124500D01*
X74621493Y-25158940D01*
X74610011Y-25162017D01*
X74484488Y-25234488D01*
X74484482Y-25234493D01*
X74381993Y-25336982D01*
X74381988Y-25336988D01*
X74309517Y-25462511D01*
X74309516Y-25462515D01*
X74272000Y-25602525D01*
X74272000Y-25602527D01*
X74272000Y-25678456D01*
X74252315Y-25745495D01*
X74235681Y-25766137D01*
X71226531Y-28775286D01*
X71226527Y-28775291D01*
X71180387Y-28855209D01*
X71180386Y-28855212D01*
X71156500Y-28944356D01*
X71156500Y-34322220D01*
X71136815Y-34389259D01*
X71084011Y-34435014D01*
X71014853Y-34444958D01*
X70959614Y-34422538D01*
X70956929Y-34420587D01*
X70956928Y-34420586D01*
X70816788Y-34318768D01*
X70662445Y-34240127D01*
X70497701Y-34186598D01*
X70497699Y-34186597D01*
X70497698Y-34186597D01*
X70366271Y-34165781D01*
X70326611Y-34159500D01*
X70153389Y-34159500D01*
X70113728Y-34165781D01*
X69982302Y-34186597D01*
X69817552Y-34240128D01*
X69663211Y-34318768D01*
X69651628Y-34327184D01*
X69523072Y-34420586D01*
X69523070Y-34420588D01*
X69523069Y-34420588D01*
X69400588Y-34543069D01*
X69400588Y-34543070D01*
X69400586Y-34543072D01*
X69356859Y-34603256D01*
X69298768Y-34683211D01*
X69220128Y-34837552D01*
X69166597Y-35002302D01*
X69139500Y-35173389D01*
X69139500Y-35346610D01*
X69166597Y-35517698D01*
X69221597Y-35686970D01*
X69223592Y-35756811D01*
X69191347Y-35812969D01*
X68510637Y-36493681D01*
X68449314Y-36527166D01*
X68422956Y-36530000D01*
X68135538Y-36530000D01*
X68068499Y-36510315D01*
X68022744Y-36457511D01*
X68012800Y-36388353D01*
X68041825Y-36324797D01*
X68097217Y-36288069D01*
X68122445Y-36279873D01*
X68276788Y-36201232D01*
X68416928Y-36099414D01*
X68539414Y-35976928D01*
X68641232Y-35836788D01*
X68719873Y-35682445D01*
X68773402Y-35517701D01*
X68800500Y-35346611D01*
X68800500Y-35173389D01*
X68773402Y-35002299D01*
X68719873Y-34837555D01*
X68641232Y-34683212D01*
X68539414Y-34543072D01*
X68416928Y-34420586D01*
X68276788Y-34318768D01*
X68122445Y-34240127D01*
X67957701Y-34186598D01*
X67957699Y-34186597D01*
X67957698Y-34186597D01*
X67826271Y-34165781D01*
X67786611Y-34159500D01*
X67613389Y-34159500D01*
X67573728Y-34165781D01*
X67442302Y-34186597D01*
X67277552Y-34240128D01*
X67123211Y-34318768D01*
X67111628Y-34327184D01*
X66983072Y-34420586D01*
X66983070Y-34420588D01*
X66983069Y-34420588D01*
X66860588Y-34543069D01*
X66860588Y-34543070D01*
X66860586Y-34543072D01*
X66816859Y-34603256D01*
X66758768Y-34683211D01*
X66680128Y-34837552D01*
X66626597Y-35002302D01*
X66599500Y-35173389D01*
X66599500Y-35346610D01*
X66626597Y-35517697D01*
X66626597Y-35517699D01*
X66626598Y-35517701D01*
X66680127Y-35682445D01*
X66758768Y-35836788D01*
X66860586Y-35976928D01*
X66983072Y-36099414D01*
X67123212Y-36201232D01*
X67182982Y-36231686D01*
X67277550Y-36279871D01*
X67277552Y-36279871D01*
X67277555Y-36279873D01*
X67302782Y-36288069D01*
X67360456Y-36327507D01*
X67387654Y-36391866D01*
X67375739Y-36460712D01*
X67328495Y-36512188D01*
X67264462Y-36530000D01*
X65595538Y-36530000D01*
X65528499Y-36510315D01*
X65482744Y-36457511D01*
X65472800Y-36388353D01*
X65501825Y-36324797D01*
X65557217Y-36288069D01*
X65582445Y-36279873D01*
X65736788Y-36201232D01*
X65876928Y-36099414D01*
X65999414Y-35976928D01*
X66101232Y-35836788D01*
X66179873Y-35682445D01*
X66233402Y-35517701D01*
X66260500Y-35346611D01*
X66260500Y-35173389D01*
X66233402Y-35002299D01*
X66179873Y-34837555D01*
X66101232Y-34683212D01*
X65999414Y-34543072D01*
X65876928Y-34420586D01*
X65736788Y-34318768D01*
X65582445Y-34240127D01*
X65417701Y-34186598D01*
X65417699Y-34186597D01*
X65417698Y-34186597D01*
X65286271Y-34165781D01*
X65246611Y-34159500D01*
X65073389Y-34159500D01*
X65033728Y-34165781D01*
X64902302Y-34186597D01*
X64737552Y-34240128D01*
X64583211Y-34318768D01*
X64571628Y-34327184D01*
X64443072Y-34420586D01*
X64443070Y-34420588D01*
X64443069Y-34420588D01*
X64320588Y-34543069D01*
X64320588Y-34543070D01*
X64320586Y-34543072D01*
X64276859Y-34603256D01*
X64218768Y-34683211D01*
X64140128Y-34837552D01*
X64086597Y-35002302D01*
X64059500Y-35173389D01*
X64059500Y-35346610D01*
X64086597Y-35517698D01*
X64141597Y-35686971D01*
X64143592Y-35756812D01*
X64111347Y-35812970D01*
X63852537Y-36071781D01*
X63791214Y-36105266D01*
X63764856Y-36108100D01*
X63607476Y-36108100D01*
X63540437Y-36088415D01*
X63494682Y-36035611D01*
X63484738Y-35966453D01*
X63507158Y-35911214D01*
X63561232Y-35836788D01*
X63639873Y-35682445D01*
X63693402Y-35517701D01*
X63720500Y-35346611D01*
X63720500Y-35173389D01*
X63693402Y-35002299D01*
X63639873Y-34837555D01*
X63561232Y-34683212D01*
X63459414Y-34543072D01*
X63336928Y-34420586D01*
X63196788Y-34318768D01*
X63184015Y-34312260D01*
X63038205Y-34237966D01*
X62987409Y-34189991D01*
X62970500Y-34127481D01*
X62970500Y-24064625D01*
X63909600Y-24064625D01*
X63909600Y-24209575D01*
X63935546Y-24306405D01*
X63947117Y-24349588D01*
X64019588Y-24475111D01*
X64019590Y-24475113D01*
X64019591Y-24475115D01*
X64122085Y-24577609D01*
X64122086Y-24577610D01*
X64122088Y-24577611D01*
X64247611Y-24650082D01*
X64247612Y-24650082D01*
X64247615Y-24650084D01*
X64387625Y-24687600D01*
X64387628Y-24687600D01*
X64532572Y-24687600D01*
X64532575Y-24687600D01*
X64672585Y-24650084D01*
X64798115Y-24577609D01*
X64900609Y-24475115D01*
X64973084Y-24349585D01*
X65010600Y-24209575D01*
X65010600Y-24064625D01*
X64973084Y-23924615D01*
X64925660Y-23842475D01*
X64900611Y-23799088D01*
X64900606Y-23799082D01*
X64798117Y-23696593D01*
X64798111Y-23696588D01*
X64672588Y-23624117D01*
X64672589Y-23624117D01*
X64661106Y-23621040D01*
X64532575Y-23586600D01*
X64387625Y-23586600D01*
X64259093Y-23621040D01*
X64247611Y-23624117D01*
X64122088Y-23696588D01*
X64122082Y-23696593D01*
X64019593Y-23799082D01*
X64019588Y-23799088D01*
X63947117Y-23924611D01*
X63947116Y-23924615D01*
X63909600Y-24064625D01*
X62970500Y-24064625D01*
X62970500Y-21891258D01*
X62970500Y-21891256D01*
X62946614Y-21802112D01*
X62919660Y-21755427D01*
X62900470Y-21722188D01*
X60857812Y-19679530D01*
X60857811Y-19679529D01*
X60857808Y-19679527D01*
X60777886Y-19633385D01*
X60777888Y-19633385D01*
X60772716Y-19632000D01*
X60730729Y-19620750D01*
X60688744Y-19609500D01*
X60688743Y-19609500D01*
X59990686Y-19609500D01*
X59923647Y-19589815D01*
X59903005Y-19573181D01*
X59849317Y-19519493D01*
X59849311Y-19519488D01*
X59723788Y-19447017D01*
X59723789Y-19447017D01*
X59712306Y-19443940D01*
X59583775Y-19409500D01*
X59438825Y-19409500D01*
X59310293Y-19443940D01*
X59298811Y-19447017D01*
X59173288Y-19519488D01*
X59173282Y-19519493D01*
X59070793Y-19621982D01*
X59070788Y-19621988D01*
X58998317Y-19747511D01*
X58998316Y-19747515D01*
X58960800Y-19887525D01*
X58960800Y-20032475D01*
X58998316Y-20172485D01*
X58998317Y-20172488D01*
X59070788Y-20298011D01*
X59070790Y-20298013D01*
X59070791Y-20298015D01*
X59173285Y-20400509D01*
X59173286Y-20400510D01*
X59173288Y-20400511D01*
X59298811Y-20472982D01*
X59298812Y-20472982D01*
X59298815Y-20472984D01*
X59438825Y-20510500D01*
X59438828Y-20510500D01*
X59583772Y-20510500D01*
X59583775Y-20510500D01*
X59723785Y-20472984D01*
X59849315Y-20400509D01*
X59903005Y-20346819D01*
X59964328Y-20313334D01*
X59990686Y-20310500D01*
X60446056Y-20310500D01*
X60513095Y-20330185D01*
X60533737Y-20346819D01*
X61238676Y-21051758D01*
X61272161Y-21113081D01*
X61267177Y-21182773D01*
X61225305Y-21238706D01*
X61212999Y-21246824D01*
X61186388Y-21262188D01*
X61186382Y-21262193D01*
X61083893Y-21364682D01*
X61083888Y-21364688D01*
X61011417Y-21490211D01*
X61011416Y-21490215D01*
X60973900Y-21630225D01*
X60973900Y-21630227D01*
X60973900Y-21706156D01*
X60954215Y-21773195D01*
X60937581Y-21793837D01*
X54719531Y-28011886D01*
X54719530Y-28011888D01*
X54699499Y-28046584D01*
X54690674Y-28061869D01*
X54690673Y-28061870D01*
X54673387Y-28091809D01*
X54673386Y-28091812D01*
X54649500Y-28180956D01*
X54649500Y-34127481D01*
X54629815Y-34194520D01*
X54581795Y-34237966D01*
X54423211Y-34318768D01*
X54411628Y-34327184D01*
X54283072Y-34420586D01*
X54283070Y-34420588D01*
X54283069Y-34420588D01*
X54160588Y-34543069D01*
X54160588Y-34543070D01*
X54160586Y-34543072D01*
X54116859Y-34603256D01*
X54058768Y-34683211D01*
X53980128Y-34837552D01*
X53926597Y-35002302D01*
X53899500Y-35173389D01*
X53899500Y-35346610D01*
X53926597Y-35517697D01*
X53926597Y-35517699D01*
X53926598Y-35517701D01*
X53980127Y-35682445D01*
X54058768Y-35836788D01*
X54086167Y-35874500D01*
X54112842Y-35911214D01*
X54136322Y-35977021D01*
X54120497Y-36045075D01*
X54070391Y-36093770D01*
X54012524Y-36108100D01*
X41401144Y-36108100D01*
X41334105Y-36088415D01*
X41313463Y-36071781D01*
X32173907Y-26932225D01*
X38670600Y-26932225D01*
X38670600Y-27077175D01*
X38702329Y-27195588D01*
X38708117Y-27217188D01*
X38780588Y-27342711D01*
X38780589Y-27342712D01*
X38780591Y-27342715D01*
X38883085Y-27445209D01*
X38883086Y-27445210D01*
X38883088Y-27445211D01*
X39008611Y-27517682D01*
X39008612Y-27517682D01*
X39008615Y-27517684D01*
X39148625Y-27555200D01*
X39148628Y-27555200D01*
X39293572Y-27555200D01*
X39293575Y-27555200D01*
X39433585Y-27517684D01*
X39559115Y-27445209D01*
X39661609Y-27342715D01*
X39734084Y-27217185D01*
X39771600Y-27077175D01*
X39771600Y-26932225D01*
X39734084Y-26792215D01*
X39728280Y-26782163D01*
X39661611Y-26666688D01*
X39661606Y-26666682D01*
X39559117Y-26564193D01*
X39559111Y-26564188D01*
X39433588Y-26491717D01*
X39433589Y-26491717D01*
X39422106Y-26488640D01*
X39293575Y-26454200D01*
X39148625Y-26454200D01*
X39020093Y-26488640D01*
X39008611Y-26491717D01*
X38883088Y-26564188D01*
X38883082Y-26564193D01*
X38780593Y-26666682D01*
X38780588Y-26666688D01*
X38708117Y-26792211D01*
X38708116Y-26792215D01*
X38670600Y-26932225D01*
X32173907Y-26932225D01*
X27021819Y-21780137D01*
X26988334Y-21718814D01*
X26985500Y-21692456D01*
X26985500Y-21616527D01*
X26985500Y-21616525D01*
X26947984Y-21476515D01*
X26908163Y-21407544D01*
X26875511Y-21350988D01*
X26875506Y-21350982D01*
X26773017Y-21248493D01*
X26773011Y-21248488D01*
X26647488Y-21176017D01*
X26647489Y-21176017D01*
X26636006Y-21172940D01*
X26507475Y-21138500D01*
X26362525Y-21138500D01*
X26233993Y-21172940D01*
X26222511Y-21176017D01*
X26096988Y-21248488D01*
X26096982Y-21248493D01*
X25994493Y-21350982D01*
X25994488Y-21350988D01*
X25922017Y-21476511D01*
X25922016Y-21476515D01*
X25884500Y-21616525D01*
X25884500Y-21761475D01*
X25899330Y-21816819D01*
X25922017Y-21901488D01*
X25994488Y-22027011D01*
X25994490Y-22027013D01*
X25994491Y-22027015D01*
X26096985Y-22129509D01*
X26096986Y-22129510D01*
X26096988Y-22129511D01*
X26222511Y-22201982D01*
X26222512Y-22201982D01*
X26222515Y-22201984D01*
X26362525Y-22239500D01*
X26438456Y-22239500D01*
X26505495Y-22259185D01*
X26526137Y-22275819D01*
X40568637Y-36318319D01*
X40602122Y-36379642D01*
X40597138Y-36449334D01*
X40555266Y-36505267D01*
X40489802Y-36529684D01*
X40480956Y-36530000D01*
X40425444Y-36530000D01*
X40358405Y-36510315D01*
X40337763Y-36493681D01*
X27333613Y-23489531D01*
X27333608Y-23489527D01*
X27253690Y-23443387D01*
X27253689Y-23443386D01*
X27253688Y-23443386D01*
X27164544Y-23419500D01*
X27164543Y-23419500D01*
X21981686Y-23419500D01*
X21914647Y-23399815D01*
X21894005Y-23383181D01*
X21840317Y-23329493D01*
X21840311Y-23329488D01*
X21714788Y-23257017D01*
X21714789Y-23257017D01*
X21703306Y-23253940D01*
X21574775Y-23219500D01*
X21429825Y-23219500D01*
X21301293Y-23253940D01*
X21289811Y-23257017D01*
X21164288Y-23329488D01*
X21164282Y-23329493D01*
X21061793Y-23431982D01*
X21061788Y-23431988D01*
X20989317Y-23557511D01*
X20989316Y-23557515D01*
X20951800Y-23697525D01*
X600000Y-23697525D01*
X600000Y-20752025D01*
X20959300Y-20752025D01*
X20959300Y-20896975D01*
X20987832Y-21003455D01*
X20996817Y-21036988D01*
X21069288Y-21162511D01*
X21069290Y-21162513D01*
X21069291Y-21162515D01*
X21171785Y-21265009D01*
X21171786Y-21265010D01*
X21171788Y-21265011D01*
X21297311Y-21337482D01*
X21297312Y-21337482D01*
X21297315Y-21337484D01*
X21437325Y-21375000D01*
X21437328Y-21375000D01*
X21582272Y-21375000D01*
X21582275Y-21375000D01*
X21722285Y-21337484D01*
X21847815Y-21265009D01*
X21950309Y-21162515D01*
X22022784Y-21036985D01*
X22060300Y-20896975D01*
X22060300Y-20752025D01*
X22022784Y-20612015D01*
X21955503Y-20495482D01*
X21950311Y-20486488D01*
X21950306Y-20486482D01*
X21847817Y-20383993D01*
X21847811Y-20383988D01*
X21722288Y-20311517D01*
X21722289Y-20311517D01*
X21710806Y-20308440D01*
X21582275Y-20274000D01*
X21437325Y-20274000D01*
X21308793Y-20308440D01*
X21297311Y-20311517D01*
X21171788Y-20383988D01*
X21171782Y-20383993D01*
X21069293Y-20486482D01*
X21069288Y-20486488D01*
X20996817Y-20612011D01*
X20996816Y-20612015D01*
X20959300Y-20752025D01*
X600000Y-20752025D01*
X600000Y-6788389D01*
X14399500Y-6788389D01*
X14399500Y-7211611D01*
X14426598Y-7382701D01*
X14480127Y-7547445D01*
X14558768Y-7701788D01*
X14660586Y-7841928D01*
X14783072Y-7964414D01*
X14923212Y-8066232D01*
X15077555Y-8144873D01*
X15242299Y-8198402D01*
X15413389Y-8225500D01*
X15413390Y-8225500D01*
X15586610Y-8225500D01*
X15586611Y-8225500D01*
X15757701Y-8198402D01*
X15922445Y-8144873D01*
X16076788Y-8066232D01*
X16216928Y-7964414D01*
X16339414Y-7841928D01*
X16441232Y-7701788D01*
X16519873Y-7547445D01*
X16573402Y-7382701D01*
X16600500Y-7211611D01*
X16600500Y-6788389D01*
X16899500Y-6788389D01*
X16899500Y-7211611D01*
X16926598Y-7382701D01*
X16980127Y-7547445D01*
X17058768Y-7701788D01*
X17160586Y-7841928D01*
X17283072Y-7964414D01*
X17423212Y-8066232D01*
X17577555Y-8144873D01*
X17742299Y-8198402D01*
X17913389Y-8225500D01*
X17913390Y-8225500D01*
X18086610Y-8225500D01*
X18086611Y-8225500D01*
X18257701Y-8198402D01*
X18422445Y-8144873D01*
X18576788Y-8066232D01*
X18716928Y-7964414D01*
X18839414Y-7841928D01*
X18941232Y-7701788D01*
X19019873Y-7547445D01*
X19073402Y-7382701D01*
X19100500Y-7211611D01*
X19100500Y-6788389D01*
X19399500Y-6788389D01*
X19399500Y-7211611D01*
X19426598Y-7382701D01*
X19480127Y-7547445D01*
X19558768Y-7701788D01*
X19660586Y-7841928D01*
X19783072Y-7964414D01*
X19863367Y-8022752D01*
X19923213Y-8066233D01*
X20081794Y-8147033D01*
X20132591Y-8195007D01*
X20149500Y-8257518D01*
X20149500Y-15234743D01*
X20168481Y-15305584D01*
X20173384Y-15323883D01*
X20173387Y-15323890D01*
X20219527Y-15403808D01*
X20219531Y-15403813D01*
X22938881Y-18123163D01*
X22972366Y-18184486D01*
X22975200Y-18210844D01*
X22975200Y-18286775D01*
X23005106Y-18398384D01*
X23012717Y-18426788D01*
X23085188Y-18552311D01*
X23085190Y-18552313D01*
X23085191Y-18552315D01*
X23187685Y-18654809D01*
X23187686Y-18654810D01*
X23187688Y-18654811D01*
X23313211Y-18727282D01*
X23313212Y-18727282D01*
X23313215Y-18727284D01*
X23453225Y-18764800D01*
X23453228Y-18764800D01*
X23598172Y-18764800D01*
X23598175Y-18764800D01*
X23738185Y-18727284D01*
X23863715Y-18654809D01*
X23966209Y-18552315D01*
X24038684Y-18426785D01*
X24076200Y-18286775D01*
X24076200Y-18141825D01*
X24038684Y-18001815D01*
X24013313Y-17957872D01*
X23966211Y-17876288D01*
X23966206Y-17876282D01*
X23863717Y-17773793D01*
X23863711Y-17773788D01*
X23738188Y-17701317D01*
X23738189Y-17701317D01*
X23726706Y-17698240D01*
X23598175Y-17663800D01*
X23598172Y-17663800D01*
X23522244Y-17663800D01*
X23455205Y-17644115D01*
X23434563Y-17627481D01*
X20886819Y-15079737D01*
X20853334Y-15018414D01*
X20850500Y-14992056D01*
X20850500Y-8257518D01*
X20870185Y-8190479D01*
X20918206Y-8147033D01*
X21076786Y-8066233D01*
X21076785Y-8066233D01*
X21076788Y-8066232D01*
X21216928Y-7964414D01*
X21339414Y-7841928D01*
X21441232Y-7701788D01*
X21519873Y-7547445D01*
X21573402Y-7382701D01*
X21600500Y-7211611D01*
X21600500Y-6788389D01*
X33399500Y-6788389D01*
X33399500Y-7211611D01*
X33426598Y-7382701D01*
X33480127Y-7547445D01*
X33558768Y-7701788D01*
X33660586Y-7841928D01*
X33783072Y-7964414D01*
X33923212Y-8066232D01*
X34077555Y-8144873D01*
X34242299Y-8198402D01*
X34413389Y-8225500D01*
X34413390Y-8225500D01*
X34586610Y-8225500D01*
X34586611Y-8225500D01*
X34757701Y-8198402D01*
X34922445Y-8144873D01*
X35076788Y-8066232D01*
X35216928Y-7964414D01*
X35339414Y-7841928D01*
X35441232Y-7701788D01*
X35519873Y-7547445D01*
X35573402Y-7382701D01*
X35600500Y-7211611D01*
X35600500Y-6788389D01*
X35899500Y-6788389D01*
X35899500Y-7211611D01*
X35926598Y-7382701D01*
X35980127Y-7547445D01*
X36058768Y-7701788D01*
X36160586Y-7841928D01*
X36283072Y-7964414D01*
X36423212Y-8066232D01*
X36577555Y-8144873D01*
X36742299Y-8198402D01*
X36913389Y-8225500D01*
X36913390Y-8225500D01*
X37086610Y-8225500D01*
X37086611Y-8225500D01*
X37257701Y-8198402D01*
X37422445Y-8144873D01*
X37576788Y-8066232D01*
X37716928Y-7964414D01*
X37839414Y-7841928D01*
X37941232Y-7701788D01*
X38019873Y-7547445D01*
X38073402Y-7382701D01*
X38100500Y-7211611D01*
X38100500Y-6788389D01*
X38399500Y-6788389D01*
X38399500Y-7211611D01*
X38426598Y-7382701D01*
X38480127Y-7547445D01*
X38558768Y-7701788D01*
X38660586Y-7841928D01*
X38783072Y-7964414D01*
X38923212Y-8066232D01*
X39077555Y-8144873D01*
X39242299Y-8198402D01*
X39413389Y-8225500D01*
X39413390Y-8225500D01*
X39586610Y-8225500D01*
X39586611Y-8225500D01*
X39757701Y-8198402D01*
X39922445Y-8144873D01*
X40076788Y-8066232D01*
X40104313Y-8046233D01*
X40170118Y-8022752D01*
X40238172Y-8038576D01*
X40286868Y-8088681D01*
X40301200Y-8146550D01*
X40301200Y-27238756D01*
X40281515Y-27305795D01*
X40264881Y-27326437D01*
X40115637Y-27475681D01*
X40054314Y-27509166D01*
X40027956Y-27512000D01*
X39952025Y-27512000D01*
X39812015Y-27549516D01*
X39812014Y-27549516D01*
X39812012Y-27549517D01*
X39789387Y-27562579D01*
X39789379Y-27562584D01*
X39686485Y-27621991D01*
X39606844Y-27701631D01*
X39606840Y-27701635D01*
X39583991Y-27724485D01*
X39583988Y-27724488D01*
X39511517Y-27850011D01*
X39510482Y-27853875D01*
X39474000Y-27990025D01*
X39474000Y-28134975D01*
X39497295Y-28221911D01*
X39511517Y-28274988D01*
X39583988Y-28400511D01*
X39583990Y-28400513D01*
X39583991Y-28400515D01*
X39686485Y-28503009D01*
X39686486Y-28503010D01*
X39686488Y-28503011D01*
X39812011Y-28575482D01*
X39812012Y-28575482D01*
X39812015Y-28575484D01*
X39952025Y-28613000D01*
X39952028Y-28613000D01*
X40096972Y-28613000D01*
X40096975Y-28613000D01*
X40236985Y-28575484D01*
X40362515Y-28503009D01*
X40465009Y-28400515D01*
X40537484Y-28274985D01*
X40575000Y-28134975D01*
X40575000Y-28059044D01*
X40594685Y-27992005D01*
X40611319Y-27971363D01*
X40771475Y-27811207D01*
X40932170Y-27650512D01*
X40978314Y-27570588D01*
X40978880Y-27568473D01*
X40979495Y-27566183D01*
X40987299Y-27537056D01*
X41002200Y-27481444D01*
X41002200Y-27461125D01*
X43107500Y-27461125D01*
X43107500Y-27606075D01*
X43145015Y-27746081D01*
X43145017Y-27746088D01*
X43217488Y-27871611D01*
X43217490Y-27871613D01*
X43217491Y-27871615D01*
X43319985Y-27974109D01*
X43319986Y-27974110D01*
X43319988Y-27974111D01*
X43445511Y-28046582D01*
X43445512Y-28046582D01*
X43445515Y-28046584D01*
X43585525Y-28084100D01*
X43661456Y-28084100D01*
X43728495Y-28103785D01*
X43749137Y-28120419D01*
X47895631Y-32266912D01*
X47960888Y-32332169D01*
X47960891Y-32332170D01*
X47960894Y-32332173D01*
X48040806Y-32378311D01*
X48040807Y-32378311D01*
X48040812Y-32378314D01*
X48129956Y-32402200D01*
X48129958Y-32402200D01*
X50316142Y-32402200D01*
X50316144Y-32402200D01*
X50405288Y-32378314D01*
X50485212Y-32332169D01*
X50550469Y-32266912D01*
X50596614Y-32186988D01*
X50620500Y-32097844D01*
X50620500Y-31989768D01*
X50640185Y-31922729D01*
X50675610Y-31886666D01*
X50739733Y-31843820D01*
X50764352Y-31827370D01*
X50764355Y-31827367D01*
X50817319Y-31774404D01*
X50878642Y-31740919D01*
X50948334Y-31745903D01*
X50992681Y-31774404D01*
X51045644Y-31827367D01*
X51045648Y-31827370D01*
X51172656Y-31912235D01*
X51172665Y-31912240D01*
X51197988Y-31922729D01*
X51313795Y-31970698D01*
X51409667Y-31989768D01*
X51463615Y-32000499D01*
X51463619Y-32000500D01*
X51463620Y-32000500D01*
X51616381Y-32000500D01*
X51616382Y-32000499D01*
X51766205Y-31970698D01*
X51907337Y-31912239D01*
X52034352Y-31827370D01*
X52142370Y-31719352D01*
X52227239Y-31592337D01*
X52285698Y-31451205D01*
X52285700Y-31451195D01*
X52285878Y-31450304D01*
X52286099Y-31449880D01*
X52287467Y-31445373D01*
X52288321Y-31445632D01*
X52318265Y-31388394D01*
X52378982Y-31353822D01*
X52407494Y-31350500D01*
X52412842Y-31350500D01*
X52412844Y-31350500D01*
X52501988Y-31326614D01*
X52581912Y-31280469D01*
X52647169Y-31215212D01*
X52693314Y-31135288D01*
X52717200Y-31046144D01*
X52717200Y-26869844D01*
X52736885Y-26802805D01*
X52753519Y-26782163D01*
X56448863Y-23086819D01*
X56510186Y-23053334D01*
X56536544Y-23050500D01*
X56612472Y-23050500D01*
X56612475Y-23050500D01*
X56752485Y-23012984D01*
X56878015Y-22940509D01*
X56980509Y-22838015D01*
X57052984Y-22712485D01*
X57090500Y-22572475D01*
X57090500Y-22427525D01*
X57052984Y-22287515D01*
X57046231Y-22275819D01*
X56980511Y-22161988D01*
X56980506Y-22161982D01*
X56878017Y-22059493D01*
X56878011Y-22059488D01*
X56752488Y-21987017D01*
X56752489Y-21987017D01*
X56721188Y-21978630D01*
X56612475Y-21949500D01*
X56467525Y-21949500D01*
X56358812Y-21978630D01*
X56327511Y-21987017D01*
X56201988Y-22059488D01*
X56201982Y-22059493D01*
X56099493Y-22161982D01*
X56099488Y-22161988D01*
X56027017Y-22287511D01*
X56027016Y-22287515D01*
X55989500Y-22427525D01*
X55989500Y-22427527D01*
X55989500Y-22503456D01*
X55969815Y-22570495D01*
X55953181Y-22591137D01*
X52086231Y-26458086D01*
X52086227Y-26458091D01*
X52040087Y-26538009D01*
X52040086Y-26538012D01*
X52016200Y-26627156D01*
X52016200Y-29947274D01*
X51996515Y-30014313D01*
X51943711Y-30060068D01*
X51874553Y-30070012D01*
X51844748Y-30061835D01*
X51766209Y-30029303D01*
X51766197Y-30029300D01*
X51616384Y-29999500D01*
X51616380Y-29999500D01*
X51463620Y-29999500D01*
X51463615Y-29999500D01*
X51313802Y-30029300D01*
X51313794Y-30029302D01*
X51172665Y-30087759D01*
X51172656Y-30087764D01*
X51045648Y-30172629D01*
X51045644Y-30172632D01*
X50992681Y-30225596D01*
X50931358Y-30259081D01*
X50861666Y-30254097D01*
X50817319Y-30225596D01*
X50764355Y-30172632D01*
X50764351Y-30172629D01*
X50637343Y-30087764D01*
X50637334Y-30087759D01*
X50496205Y-30029302D01*
X50496197Y-30029300D01*
X50346384Y-29999500D01*
X50346380Y-29999500D01*
X50193620Y-29999500D01*
X50193615Y-29999500D01*
X50043802Y-30029300D01*
X50043794Y-30029302D01*
X49902665Y-30087759D01*
X49902656Y-30087764D01*
X49775648Y-30172629D01*
X49775644Y-30172632D01*
X49667632Y-30280644D01*
X49667629Y-30280648D01*
X49582764Y-30407656D01*
X49582759Y-30407665D01*
X49524302Y-30548794D01*
X49524300Y-30548802D01*
X49494500Y-30698615D01*
X49494500Y-31301384D01*
X49524300Y-31451197D01*
X49524303Y-31451209D01*
X49556835Y-31529748D01*
X49564304Y-31599217D01*
X49533029Y-31661696D01*
X49472940Y-31697348D01*
X49442274Y-31701200D01*
X48372643Y-31701200D01*
X48305604Y-31681515D01*
X48284962Y-31664881D01*
X46228261Y-29608179D01*
X46148707Y-29528625D01*
X47417000Y-29528625D01*
X47417000Y-29673575D01*
X47438566Y-29754058D01*
X47454517Y-29813588D01*
X47526988Y-29939111D01*
X47526990Y-29939113D01*
X47526991Y-29939115D01*
X47629485Y-30041609D01*
X47629486Y-30041610D01*
X47629488Y-30041611D01*
X47755011Y-30114082D01*
X47755012Y-30114082D01*
X47755015Y-30114084D01*
X47895025Y-30151600D01*
X47895028Y-30151600D01*
X48039972Y-30151600D01*
X48039975Y-30151600D01*
X48179985Y-30114084D01*
X48305515Y-30041609D01*
X48408009Y-29939115D01*
X48480484Y-29813585D01*
X48518000Y-29673575D01*
X48518000Y-29528625D01*
X48480484Y-29388615D01*
X48424894Y-29292331D01*
X48408011Y-29263088D01*
X48408006Y-29263082D01*
X48305517Y-29160593D01*
X48305511Y-29160588D01*
X48179988Y-29088117D01*
X48179989Y-29088117D01*
X48168506Y-29085040D01*
X48039975Y-29050600D01*
X47895025Y-29050600D01*
X47766493Y-29085040D01*
X47755011Y-29088117D01*
X47629488Y-29160588D01*
X47629482Y-29160593D01*
X47526993Y-29263082D01*
X47526988Y-29263088D01*
X47454517Y-29388611D01*
X47454516Y-29388615D01*
X47417000Y-29528625D01*
X46148707Y-29528625D01*
X44244819Y-27624737D01*
X44211334Y-27563414D01*
X44208500Y-27537056D01*
X44208500Y-27461127D01*
X44208500Y-27461125D01*
X44170984Y-27321115D01*
X44098509Y-27195585D01*
X43996015Y-27093091D01*
X43996013Y-27093090D01*
X43996011Y-27093088D01*
X43870488Y-27020617D01*
X43870489Y-27020617D01*
X43859006Y-27017540D01*
X43730475Y-26983100D01*
X43585525Y-26983100D01*
X43456993Y-27017540D01*
X43445511Y-27020617D01*
X43319988Y-27093088D01*
X43319982Y-27093093D01*
X43217493Y-27195582D01*
X43217488Y-27195588D01*
X43145017Y-27321111D01*
X43145016Y-27321115D01*
X43107500Y-27461125D01*
X41002200Y-27461125D01*
X41002200Y-6953856D01*
X40978314Y-6864712D01*
X40978311Y-6864706D01*
X40967233Y-6845518D01*
X40934249Y-6788389D01*
X52399500Y-6788389D01*
X52399500Y-7211611D01*
X52426598Y-7382701D01*
X52480127Y-7547445D01*
X52558768Y-7701788D01*
X52660586Y-7841928D01*
X52783072Y-7964414D01*
X52923212Y-8066232D01*
X53077555Y-8144873D01*
X53242299Y-8198402D01*
X53413389Y-8225500D01*
X53413390Y-8225500D01*
X53586610Y-8225500D01*
X53586611Y-8225500D01*
X53757701Y-8198402D01*
X53922445Y-8144873D01*
X54076788Y-8066232D01*
X54216928Y-7964414D01*
X54339414Y-7841928D01*
X54441232Y-7701788D01*
X54519873Y-7547445D01*
X54573402Y-7382701D01*
X54600500Y-7211611D01*
X54600500Y-6788389D01*
X54899500Y-6788389D01*
X54899500Y-7211611D01*
X54926598Y-7382701D01*
X54980127Y-7547445D01*
X55058768Y-7701788D01*
X55160586Y-7841928D01*
X55283072Y-7964414D01*
X55423212Y-8066232D01*
X55577555Y-8144873D01*
X55742299Y-8198402D01*
X55913389Y-8225500D01*
X55913390Y-8225500D01*
X56086610Y-8225500D01*
X56086611Y-8225500D01*
X56257701Y-8198402D01*
X56422445Y-8144873D01*
X56576788Y-8066232D01*
X56716928Y-7964414D01*
X56839414Y-7841928D01*
X56941232Y-7701788D01*
X57019873Y-7547445D01*
X57073402Y-7382701D01*
X57100500Y-7211611D01*
X57100500Y-6788389D01*
X57399500Y-6788389D01*
X57399500Y-7211611D01*
X57426598Y-7382701D01*
X57480127Y-7547445D01*
X57558768Y-7701788D01*
X57660586Y-7841928D01*
X57783072Y-7964414D01*
X57863367Y-8022752D01*
X57923213Y-8066233D01*
X58081794Y-8147033D01*
X58132591Y-8195007D01*
X58149500Y-8257518D01*
X58149500Y-14237343D01*
X58173386Y-14326487D01*
X58173387Y-14326490D01*
X58219527Y-14406408D01*
X58219531Y-14406413D01*
X61607381Y-17794263D01*
X61640866Y-17855586D01*
X61643700Y-17881944D01*
X61643700Y-17957875D01*
X61677098Y-18082516D01*
X61681217Y-18097888D01*
X61753688Y-18223411D01*
X61753690Y-18223413D01*
X61753691Y-18223415D01*
X61856185Y-18325909D01*
X61856186Y-18325910D01*
X61856188Y-18325911D01*
X61981711Y-18398382D01*
X61981712Y-18398382D01*
X61981715Y-18398384D01*
X62121725Y-18435900D01*
X62121728Y-18435900D01*
X62266672Y-18435900D01*
X62266675Y-18435900D01*
X62406685Y-18398384D01*
X62532215Y-18325909D01*
X62634709Y-18223415D01*
X62707184Y-18097885D01*
X62744700Y-17957875D01*
X62744700Y-17812925D01*
X62707184Y-17672915D01*
X62701921Y-17663800D01*
X62634711Y-17547388D01*
X62634706Y-17547382D01*
X62532217Y-17444893D01*
X62532211Y-17444888D01*
X62406688Y-17372417D01*
X62406689Y-17372417D01*
X62395206Y-17369340D01*
X62266675Y-17334900D01*
X62266672Y-17334900D01*
X62190744Y-17334900D01*
X62123705Y-17315215D01*
X62103063Y-17298581D01*
X58886819Y-14082337D01*
X58853334Y-14021014D01*
X58850500Y-13994656D01*
X58850500Y-8257518D01*
X58870185Y-8190479D01*
X58918206Y-8147033D01*
X59076786Y-8066233D01*
X59076785Y-8066233D01*
X59076788Y-8066232D01*
X59216928Y-7964414D01*
X59339414Y-7841928D01*
X59441232Y-7701788D01*
X59519873Y-7547445D01*
X59573402Y-7382701D01*
X59600500Y-7211611D01*
X59600500Y-6788389D01*
X71399500Y-6788389D01*
X71399500Y-7211611D01*
X71426598Y-7382701D01*
X71480127Y-7547445D01*
X71558768Y-7701788D01*
X71660586Y-7841928D01*
X71783072Y-7964414D01*
X71923212Y-8066232D01*
X72077555Y-8144873D01*
X72242299Y-8198402D01*
X72413389Y-8225500D01*
X72413390Y-8225500D01*
X72586610Y-8225500D01*
X72586611Y-8225500D01*
X72757701Y-8198402D01*
X72922445Y-8144873D01*
X73076788Y-8066232D01*
X73216928Y-7964414D01*
X73339414Y-7841928D01*
X73441232Y-7701788D01*
X73519873Y-7547445D01*
X73573402Y-7382701D01*
X73600500Y-7211611D01*
X73600500Y-6788389D01*
X73899500Y-6788389D01*
X73899500Y-7211611D01*
X73926598Y-7382701D01*
X73980127Y-7547445D01*
X74058768Y-7701788D01*
X74160586Y-7841928D01*
X74283072Y-7964414D01*
X74423212Y-8066232D01*
X74577555Y-8144873D01*
X74742299Y-8198402D01*
X74913389Y-8225500D01*
X74913390Y-8225500D01*
X75086610Y-8225500D01*
X75086611Y-8225500D01*
X75257701Y-8198402D01*
X75422445Y-8144873D01*
X75576788Y-8066232D01*
X75716928Y-7964414D01*
X75839414Y-7841928D01*
X75941232Y-7701788D01*
X76019873Y-7547445D01*
X76073402Y-7382701D01*
X76100500Y-7211611D01*
X76100500Y-6788389D01*
X76399500Y-6788389D01*
X76399500Y-7211611D01*
X76426598Y-7382701D01*
X76480127Y-7547445D01*
X76558768Y-7701788D01*
X76660586Y-7841928D01*
X76783072Y-7964414D01*
X76923212Y-8066232D01*
X77077555Y-8144873D01*
X77242299Y-8198402D01*
X77413389Y-8225500D01*
X77413390Y-8225500D01*
X77586610Y-8225500D01*
X77586611Y-8225500D01*
X77757701Y-8198402D01*
X77922445Y-8144873D01*
X78076788Y-8066232D01*
X78216928Y-7964414D01*
X78339414Y-7841928D01*
X78441232Y-7701788D01*
X78519873Y-7547445D01*
X78573402Y-7382701D01*
X78600500Y-7211611D01*
X78600500Y-6788389D01*
X90399500Y-6788389D01*
X90399500Y-7211611D01*
X90426598Y-7382701D01*
X90480127Y-7547445D01*
X90558768Y-7701788D01*
X90660586Y-7841928D01*
X90783072Y-7964414D01*
X90923212Y-8066232D01*
X91077555Y-8144873D01*
X91242299Y-8198402D01*
X91413389Y-8225500D01*
X91413390Y-8225500D01*
X91586610Y-8225500D01*
X91586611Y-8225500D01*
X91757701Y-8198402D01*
X91922445Y-8144873D01*
X92076788Y-8066232D01*
X92216928Y-7964414D01*
X92339414Y-7841928D01*
X92441232Y-7701788D01*
X92519873Y-7547445D01*
X92573402Y-7382701D01*
X92600500Y-7211611D01*
X92600500Y-6788389D01*
X92899500Y-6788389D01*
X92899500Y-7211611D01*
X92926598Y-7382701D01*
X92980127Y-7547445D01*
X93058768Y-7701788D01*
X93160586Y-7841928D01*
X93283072Y-7964414D01*
X93423212Y-8066232D01*
X93577555Y-8144873D01*
X93742299Y-8198402D01*
X93913389Y-8225500D01*
X93913390Y-8225500D01*
X94086610Y-8225500D01*
X94086611Y-8225500D01*
X94257701Y-8198402D01*
X94422445Y-8144873D01*
X94576788Y-8066232D01*
X94716928Y-7964414D01*
X94839414Y-7841928D01*
X94941232Y-7701788D01*
X95019873Y-7547445D01*
X95073402Y-7382701D01*
X95100500Y-7211611D01*
X95100500Y-6788389D01*
X95073402Y-6617299D01*
X95019873Y-6452555D01*
X94941232Y-6298212D01*
X94839414Y-6158072D01*
X94716928Y-6035586D01*
X94576788Y-5933768D01*
X94422445Y-5855127D01*
X94257701Y-5801598D01*
X94257699Y-5801597D01*
X94257698Y-5801597D01*
X94126271Y-5780781D01*
X94086611Y-5774500D01*
X93913389Y-5774500D01*
X93873728Y-5780781D01*
X93742302Y-5801597D01*
X93577552Y-5855128D01*
X93423211Y-5933768D01*
X93343256Y-5991859D01*
X93283072Y-6035586D01*
X93283070Y-6035588D01*
X93283069Y-6035588D01*
X93160588Y-6158069D01*
X93160588Y-6158070D01*
X93160586Y-6158072D01*
X93116859Y-6218256D01*
X93058768Y-6298211D01*
X92980128Y-6452552D01*
X92926597Y-6617302D01*
X92917714Y-6673388D01*
X92899500Y-6788389D01*
X92600500Y-6788389D01*
X92573402Y-6617299D01*
X92519873Y-6452555D01*
X92441232Y-6298212D01*
X92339414Y-6158072D01*
X92216928Y-6035586D01*
X92076788Y-5933768D01*
X91922445Y-5855127D01*
X91757701Y-5801598D01*
X91757699Y-5801597D01*
X91757698Y-5801597D01*
X91626271Y-5780781D01*
X91586611Y-5774500D01*
X91413389Y-5774500D01*
X91373728Y-5780781D01*
X91242302Y-5801597D01*
X91077552Y-5855128D01*
X90923211Y-5933768D01*
X90843256Y-5991859D01*
X90783072Y-6035586D01*
X90783070Y-6035588D01*
X90783069Y-6035588D01*
X90660588Y-6158069D01*
X90660588Y-6158070D01*
X90660586Y-6158072D01*
X90616859Y-6218256D01*
X90558768Y-6298211D01*
X90480128Y-6452552D01*
X90426597Y-6617302D01*
X90417714Y-6673388D01*
X90399500Y-6788389D01*
X78600500Y-6788389D01*
X78573402Y-6617299D01*
X78519873Y-6452555D01*
X78441232Y-6298212D01*
X78339414Y-6158072D01*
X78216928Y-6035586D01*
X78076788Y-5933768D01*
X77922445Y-5855127D01*
X77757701Y-5801598D01*
X77757699Y-5801597D01*
X77757698Y-5801597D01*
X77626271Y-5780781D01*
X77586611Y-5774500D01*
X77413389Y-5774500D01*
X77373728Y-5780781D01*
X77242302Y-5801597D01*
X77077552Y-5855128D01*
X76923211Y-5933768D01*
X76843256Y-5991859D01*
X76783072Y-6035586D01*
X76783070Y-6035588D01*
X76783069Y-6035588D01*
X76660588Y-6158069D01*
X76660588Y-6158070D01*
X76660586Y-6158072D01*
X76616859Y-6218256D01*
X76558768Y-6298211D01*
X76480128Y-6452552D01*
X76426597Y-6617302D01*
X76417714Y-6673388D01*
X76399500Y-6788389D01*
X76100500Y-6788389D01*
X76073402Y-6617299D01*
X76019873Y-6452555D01*
X75941232Y-6298212D01*
X75839414Y-6158072D01*
X75716928Y-6035586D01*
X75576788Y-5933768D01*
X75422445Y-5855127D01*
X75257701Y-5801598D01*
X75257699Y-5801597D01*
X75257698Y-5801597D01*
X75126271Y-5780781D01*
X75086611Y-5774500D01*
X74913389Y-5774500D01*
X74873728Y-5780781D01*
X74742302Y-5801597D01*
X74577552Y-5855128D01*
X74423211Y-5933768D01*
X74343256Y-5991859D01*
X74283072Y-6035586D01*
X74283070Y-6035588D01*
X74283069Y-6035588D01*
X74160588Y-6158069D01*
X74160588Y-6158070D01*
X74160586Y-6158072D01*
X74116859Y-6218256D01*
X74058768Y-6298211D01*
X73980128Y-6452552D01*
X73926597Y-6617302D01*
X73917714Y-6673388D01*
X73899500Y-6788389D01*
X73600500Y-6788389D01*
X73573402Y-6617299D01*
X73519873Y-6452555D01*
X73441232Y-6298212D01*
X73339414Y-6158072D01*
X73216928Y-6035586D01*
X73076788Y-5933768D01*
X72922445Y-5855127D01*
X72757701Y-5801598D01*
X72757699Y-5801597D01*
X72757698Y-5801597D01*
X72626271Y-5780781D01*
X72586611Y-5774500D01*
X72413389Y-5774500D01*
X72373728Y-5780781D01*
X72242302Y-5801597D01*
X72077552Y-5855128D01*
X71923211Y-5933768D01*
X71843256Y-5991859D01*
X71783072Y-6035586D01*
X71783070Y-6035588D01*
X71783069Y-6035588D01*
X71660588Y-6158069D01*
X71660588Y-6158070D01*
X71660586Y-6158072D01*
X71616859Y-6218256D01*
X71558768Y-6298211D01*
X71480128Y-6452552D01*
X71426597Y-6617302D01*
X71417714Y-6673388D01*
X71399500Y-6788389D01*
X59600500Y-6788389D01*
X59573402Y-6617299D01*
X59519873Y-6452555D01*
X59441232Y-6298212D01*
X59339414Y-6158072D01*
X59216928Y-6035586D01*
X59076788Y-5933768D01*
X58922445Y-5855127D01*
X58757701Y-5801598D01*
X58757699Y-5801597D01*
X58757698Y-5801597D01*
X58626271Y-5780781D01*
X58586611Y-5774500D01*
X58413389Y-5774500D01*
X58373728Y-5780781D01*
X58242302Y-5801597D01*
X58077552Y-5855128D01*
X57923211Y-5933768D01*
X57843256Y-5991859D01*
X57783072Y-6035586D01*
X57783070Y-6035588D01*
X57783069Y-6035588D01*
X57660588Y-6158069D01*
X57660588Y-6158070D01*
X57660586Y-6158072D01*
X57616859Y-6218256D01*
X57558768Y-6298211D01*
X57480128Y-6452552D01*
X57426597Y-6617302D01*
X57417714Y-6673388D01*
X57399500Y-6788389D01*
X57100500Y-6788389D01*
X57073402Y-6617299D01*
X57019873Y-6452555D01*
X56941232Y-6298212D01*
X56839414Y-6158072D01*
X56716928Y-6035586D01*
X56576788Y-5933768D01*
X56422445Y-5855127D01*
X56257701Y-5801598D01*
X56257699Y-5801597D01*
X56257698Y-5801597D01*
X56126271Y-5780781D01*
X56086611Y-5774500D01*
X55913389Y-5774500D01*
X55873728Y-5780781D01*
X55742302Y-5801597D01*
X55577552Y-5855128D01*
X55423211Y-5933768D01*
X55343256Y-5991859D01*
X55283072Y-6035586D01*
X55283070Y-6035588D01*
X55283069Y-6035588D01*
X55160588Y-6158069D01*
X55160588Y-6158070D01*
X55160586Y-6158072D01*
X55116859Y-6218256D01*
X55058768Y-6298211D01*
X54980128Y-6452552D01*
X54926597Y-6617302D01*
X54917714Y-6673388D01*
X54899500Y-6788389D01*
X54600500Y-6788389D01*
X54573402Y-6617299D01*
X54519873Y-6452555D01*
X54441232Y-6298212D01*
X54339414Y-6158072D01*
X54216928Y-6035586D01*
X54076788Y-5933768D01*
X53922445Y-5855127D01*
X53757701Y-5801598D01*
X53757699Y-5801597D01*
X53757698Y-5801597D01*
X53626271Y-5780781D01*
X53586611Y-5774500D01*
X53413389Y-5774500D01*
X53373728Y-5780781D01*
X53242302Y-5801597D01*
X53077552Y-5855128D01*
X52923211Y-5933768D01*
X52843256Y-5991859D01*
X52783072Y-6035586D01*
X52783070Y-6035588D01*
X52783069Y-6035588D01*
X52660588Y-6158069D01*
X52660588Y-6158070D01*
X52660586Y-6158072D01*
X52616859Y-6218256D01*
X52558768Y-6298211D01*
X52480128Y-6452552D01*
X52426597Y-6617302D01*
X52417714Y-6673388D01*
X52399500Y-6788389D01*
X40934249Y-6788389D01*
X40932173Y-6784794D01*
X40932170Y-6784791D01*
X40932169Y-6784788D01*
X40866912Y-6719531D01*
X40866909Y-6719529D01*
X40866905Y-6719526D01*
X40786993Y-6673388D01*
X40786990Y-6673387D01*
X40786989Y-6673386D01*
X40786988Y-6673386D01*
X40697844Y-6649500D01*
X40697843Y-6649500D01*
X40673956Y-6649500D01*
X40606917Y-6629815D01*
X40561162Y-6577011D01*
X40556025Y-6563819D01*
X40519871Y-6452550D01*
X40441231Y-6298211D01*
X40339414Y-6158072D01*
X40216928Y-6035586D01*
X40076788Y-5933768D01*
X39922445Y-5855127D01*
X39757701Y-5801598D01*
X39757699Y-5801597D01*
X39757698Y-5801597D01*
X39626271Y-5780781D01*
X39586611Y-5774500D01*
X39413389Y-5774500D01*
X39373728Y-5780781D01*
X39242302Y-5801597D01*
X39077552Y-5855128D01*
X38923211Y-5933768D01*
X38843256Y-5991859D01*
X38783072Y-6035586D01*
X38783070Y-6035588D01*
X38783069Y-6035588D01*
X38660588Y-6158069D01*
X38660588Y-6158070D01*
X38660586Y-6158072D01*
X38616859Y-6218256D01*
X38558768Y-6298211D01*
X38480128Y-6452552D01*
X38426597Y-6617302D01*
X38417714Y-6673388D01*
X38399500Y-6788389D01*
X38100500Y-6788389D01*
X38073402Y-6617299D01*
X38019873Y-6452555D01*
X37941232Y-6298212D01*
X37839414Y-6158072D01*
X37716928Y-6035586D01*
X37576788Y-5933768D01*
X37422445Y-5855127D01*
X37257701Y-5801598D01*
X37257699Y-5801597D01*
X37257698Y-5801597D01*
X37126271Y-5780781D01*
X37086611Y-5774500D01*
X36913389Y-5774500D01*
X36873728Y-5780781D01*
X36742302Y-5801597D01*
X36577552Y-5855128D01*
X36423211Y-5933768D01*
X36343256Y-5991859D01*
X36283072Y-6035586D01*
X36283070Y-6035588D01*
X36283069Y-6035588D01*
X36160588Y-6158069D01*
X36160588Y-6158070D01*
X36160586Y-6158072D01*
X36116859Y-6218256D01*
X36058768Y-6298211D01*
X35980128Y-6452552D01*
X35926597Y-6617302D01*
X35917714Y-6673388D01*
X35899500Y-6788389D01*
X35600500Y-6788389D01*
X35573402Y-6617299D01*
X35519873Y-6452555D01*
X35441232Y-6298212D01*
X35339414Y-6158072D01*
X35216928Y-6035586D01*
X35076788Y-5933768D01*
X34922445Y-5855127D01*
X34757701Y-5801598D01*
X34757699Y-5801597D01*
X34757698Y-5801597D01*
X34626271Y-5780781D01*
X34586611Y-5774500D01*
X34413389Y-5774500D01*
X34373728Y-5780781D01*
X34242302Y-5801597D01*
X34077552Y-5855128D01*
X33923211Y-5933768D01*
X33843256Y-5991859D01*
X33783072Y-6035586D01*
X33783070Y-6035588D01*
X33783069Y-6035588D01*
X33660588Y-6158069D01*
X33660588Y-6158070D01*
X33660586Y-6158072D01*
X33616859Y-6218256D01*
X33558768Y-6298211D01*
X33480128Y-6452552D01*
X33426597Y-6617302D01*
X33417714Y-6673388D01*
X33399500Y-6788389D01*
X21600500Y-6788389D01*
X21573402Y-6617299D01*
X21519873Y-6452555D01*
X21441232Y-6298212D01*
X21339414Y-6158072D01*
X21216928Y-6035586D01*
X21076788Y-5933768D01*
X20922445Y-5855127D01*
X20757701Y-5801598D01*
X20757699Y-5801597D01*
X20757698Y-5801597D01*
X20626271Y-5780781D01*
X20586611Y-5774500D01*
X20413389Y-5774500D01*
X20373728Y-5780781D01*
X20242302Y-5801597D01*
X20077552Y-5855128D01*
X19923211Y-5933768D01*
X19843256Y-5991859D01*
X19783072Y-6035586D01*
X19783070Y-6035588D01*
X19783069Y-6035588D01*
X19660588Y-6158069D01*
X19660588Y-6158070D01*
X19660586Y-6158072D01*
X19616859Y-6218256D01*
X19558768Y-6298211D01*
X19480128Y-6452552D01*
X19426597Y-6617302D01*
X19417714Y-6673388D01*
X19399500Y-6788389D01*
X19100500Y-6788389D01*
X19073402Y-6617299D01*
X19019873Y-6452555D01*
X18941232Y-6298212D01*
X18839414Y-6158072D01*
X18716928Y-6035586D01*
X18576788Y-5933768D01*
X18422445Y-5855127D01*
X18257701Y-5801598D01*
X18257699Y-5801597D01*
X18257698Y-5801597D01*
X18126271Y-5780781D01*
X18086611Y-5774500D01*
X17913389Y-5774500D01*
X17873728Y-5780781D01*
X17742302Y-5801597D01*
X17577552Y-5855128D01*
X17423211Y-5933768D01*
X17343256Y-5991859D01*
X17283072Y-6035586D01*
X17283070Y-6035588D01*
X17283069Y-6035588D01*
X17160588Y-6158069D01*
X17160588Y-6158070D01*
X17160586Y-6158072D01*
X17116859Y-6218256D01*
X17058768Y-6298211D01*
X16980128Y-6452552D01*
X16926597Y-6617302D01*
X16917714Y-6673388D01*
X16899500Y-6788389D01*
X16600500Y-6788389D01*
X16573402Y-6617299D01*
X16519873Y-6452555D01*
X16441232Y-6298212D01*
X16339414Y-6158072D01*
X16216928Y-6035586D01*
X16076788Y-5933768D01*
X15922445Y-5855127D01*
X15757701Y-5801598D01*
X15757699Y-5801597D01*
X15757698Y-5801597D01*
X15626271Y-5780781D01*
X15586611Y-5774500D01*
X15413389Y-5774500D01*
X15373728Y-5780781D01*
X15242302Y-5801597D01*
X15077552Y-5855128D01*
X14923211Y-5933768D01*
X14843256Y-5991859D01*
X14783072Y-6035586D01*
X14783070Y-6035588D01*
X14783069Y-6035588D01*
X14660588Y-6158069D01*
X14660588Y-6158070D01*
X14660586Y-6158072D01*
X14616859Y-6218256D01*
X14558768Y-6298211D01*
X14480128Y-6452552D01*
X14426597Y-6617302D01*
X14417714Y-6673388D01*
X14399500Y-6788389D01*
X600000Y-6788389D01*
X600000Y-3878711D01*
X2149500Y-3878711D01*
X2149500Y-4121288D01*
X2181161Y-4361785D01*
X2243947Y-4596104D01*
X2336773Y-4820205D01*
X2336776Y-4820212D01*
X2458064Y-5030289D01*
X2458066Y-5030292D01*
X2458067Y-5030293D01*
X2605733Y-5222736D01*
X2605739Y-5222743D01*
X2777256Y-5394260D01*
X2777262Y-5394265D01*
X2969711Y-5541936D01*
X3179788Y-5663224D01*
X3403900Y-5756054D01*
X3638211Y-5818838D01*
X3818586Y-5842584D01*
X3878711Y-5850500D01*
X3878712Y-5850500D01*
X4121289Y-5850500D01*
X4169388Y-5844167D01*
X4361789Y-5818838D01*
X4596100Y-5756054D01*
X4820212Y-5663224D01*
X5030289Y-5541936D01*
X5222738Y-5394265D01*
X5394265Y-5222738D01*
X5541936Y-5030289D01*
X5663224Y-4820212D01*
X5756054Y-4596100D01*
X5818838Y-4361789D01*
X5850500Y-4121288D01*
X5850500Y-3878712D01*
X5850500Y-3878711D01*
X119149500Y-3878711D01*
X119149500Y-4121288D01*
X119181161Y-4361785D01*
X119243947Y-4596104D01*
X119336773Y-4820205D01*
X119336776Y-4820212D01*
X119458064Y-5030289D01*
X119458066Y-5030292D01*
X119458067Y-5030293D01*
X119605733Y-5222736D01*
X119605739Y-5222743D01*
X119777256Y-5394260D01*
X119777262Y-5394265D01*
X119969711Y-5541936D01*
X120179788Y-5663224D01*
X120403900Y-5756054D01*
X120638211Y-5818838D01*
X120818586Y-5842584D01*
X120878711Y-5850500D01*
X120878712Y-5850500D01*
X121121289Y-5850500D01*
X121169388Y-5844167D01*
X121361789Y-5818838D01*
X121596100Y-5756054D01*
X121820212Y-5663224D01*
X122030289Y-5541936D01*
X122222738Y-5394265D01*
X122394265Y-5222738D01*
X122541936Y-5030289D01*
X122663224Y-4820212D01*
X122756054Y-4596100D01*
X122818838Y-4361789D01*
X122850500Y-4121288D01*
X122850500Y-3878712D01*
X122818838Y-3638211D01*
X122756054Y-3403900D01*
X122663224Y-3179788D01*
X122541936Y-2969711D01*
X122394265Y-2777262D01*
X122394260Y-2777256D01*
X122222743Y-2605739D01*
X122222736Y-2605733D01*
X122030293Y-2458067D01*
X122030292Y-2458066D01*
X122030289Y-2458064D01*
X121820212Y-2336776D01*
X121748044Y-2306883D01*
X121596104Y-2243947D01*
X121361785Y-2181161D01*
X121121289Y-2149500D01*
X121121288Y-2149500D01*
X120878712Y-2149500D01*
X120878711Y-2149500D01*
X120638214Y-2181161D01*
X120403895Y-2243947D01*
X120179794Y-2336773D01*
X120179785Y-2336777D01*
X119969706Y-2458067D01*
X119777263Y-2605733D01*
X119777256Y-2605739D01*
X119605739Y-2777256D01*
X119605733Y-2777263D01*
X119458067Y-2969706D01*
X119336777Y-3179785D01*
X119336773Y-3179794D01*
X119243947Y-3403895D01*
X119181161Y-3638214D01*
X119149500Y-3878711D01*
X5850500Y-3878711D01*
X5818838Y-3638211D01*
X5756054Y-3403900D01*
X5663224Y-3179788D01*
X5541936Y-2969711D01*
X5394265Y-2777262D01*
X5394260Y-2777256D01*
X5222743Y-2605739D01*
X5222736Y-2605733D01*
X5030293Y-2458067D01*
X5030292Y-2458066D01*
X5030289Y-2458064D01*
X4820212Y-2336776D01*
X4748044Y-2306883D01*
X4596104Y-2243947D01*
X4361785Y-2181161D01*
X4121289Y-2149500D01*
X4121288Y-2149500D01*
X3878712Y-2149500D01*
X3878711Y-2149500D01*
X3638214Y-2181161D01*
X3403895Y-2243947D01*
X3179794Y-2336773D01*
X3179785Y-2336777D01*
X2969706Y-2458067D01*
X2777263Y-2605733D01*
X2777256Y-2605739D01*
X2605739Y-2777256D01*
X2605733Y-2777263D01*
X2458067Y-2969706D01*
X2336777Y-3179785D01*
X2336773Y-3179794D01*
X2243947Y-3403895D01*
X2181161Y-3638214D01*
X2149500Y-3878711D01*
X600000Y-3878711D01*
X600000Y-2354333D01*
X609439Y-2306881D01*
X832859Y-1767494D01*
X849041Y-1739462D01*
X1225703Y-1248589D01*
X1248591Y-1225702D01*
X1739460Y-849043D01*
X1767488Y-832862D01*
X2306879Y-609438D01*
X2354331Y-600000D01*
X122645665Y-600000D01*
X122693116Y-609438D01*
G37*
%TD.AperFunction*%
%TD*%
D28*
X47967500Y-29601100D03*
X21974800Y-26910500D03*
X48324400Y-27549800D03*
X43658000Y-27533600D03*
X64460100Y-24137100D03*
X94501600Y-22500000D03*
X39221100Y-27004700D03*
X56540000Y-22500000D03*
X40024500Y-28062500D03*
X112787300Y-43912500D03*
X99463300Y-18595500D03*
X23525700Y-18214300D03*
X96542300Y-27781400D03*
X62194200Y-17885400D03*
X59511300Y-19960000D03*
X60125700Y-23960400D03*
X61524400Y-21702700D03*
X33795900Y-42500000D03*
X40216100Y-43129100D03*
X21509800Y-20824500D03*
X21502300Y-23770000D03*
X26487100Y-24839800D03*
X26435000Y-21689000D03*
X94534200Y-19982500D03*
X97308300Y-24395600D03*
X74822500Y-25675000D03*
X78598300Y-47836700D03*
X99461600Y-21230000D03*
X10604100Y-36500000D03*
D29*
X4000000Y-51000000D03*
X49000000Y-31000000D03*
X50270000Y-31000000D03*
X51540000Y-31000000D03*
X89000000Y-7000000D03*
X91500000Y-7000000D03*
X94000000Y-7000000D03*
X96500000Y-7000000D03*
X121000000Y-51000000D03*
X70000000Y-7000000D03*
X72500000Y-7000000D03*
X75000000Y-7000000D03*
X77500000Y-7000000D03*
X116000000Y-32000000D03*
X121000000Y-32000000D03*
X121000000Y-4000000D03*
X108000000Y-36000000D03*
X110540000Y-36000000D03*
X31000000Y-47500000D03*
X33540000Y-47500000D03*
X13000000Y-7000000D03*
X15500000Y-7000000D03*
X18000000Y-7000000D03*
X20500000Y-7000000D03*
X20000000Y-47500000D03*
X26500000Y-47500000D03*
X20000000Y-52000000D03*
X26500000Y-52000000D03*
X108000000Y-28500000D03*
X110000000Y-28500000D03*
X55000000Y-50500000D03*
X57540000Y-50500000D03*
X60080000Y-50500000D03*
X62620000Y-50500000D03*
X65160000Y-50500000D03*
X67700000Y-50500000D03*
X70240000Y-50500000D03*
X72780000Y-50500000D03*
X75320000Y-50500000D03*
X77860000Y-50500000D03*
X80400000Y-50500000D03*
X82940000Y-50500000D03*
X85480000Y-50500000D03*
X22000000Y-38500000D03*
X22000000Y-36500000D03*
X22000000Y-34500000D03*
X22000000Y-32500000D03*
X119000000Y-20000000D03*
X119000000Y-14920000D03*
X85480000Y-35260000D03*
X82940000Y-35260000D03*
X80400000Y-35260000D03*
X77860000Y-35260000D03*
X75320000Y-35260000D03*
X72780000Y-35260000D03*
X70240000Y-35260000D03*
X67700000Y-35260000D03*
X65160000Y-35260000D03*
X62620000Y-35260000D03*
X60080000Y-35260000D03*
X57540000Y-35260000D03*
X55000000Y-35260000D03*
X51000000Y-7000000D03*
X53500000Y-7000000D03*
X56000000Y-7000000D03*
X58500000Y-7000000D03*
X4000000Y-4000000D03*
X9000000Y-47500000D03*
X15500000Y-47500000D03*
X9000000Y-52000000D03*
X15500000Y-52000000D03*
X32000000Y-7000000D03*
X34500000Y-7000000D03*
X37000000Y-7000000D03*
X39500000Y-7000000D03*
X104000000Y-7000000D03*
X106500000Y-7000000D03*
X109000000Y-7000000D03*
X111500000Y-7000000D03*
X43000000Y-48000000D03*
X45540000Y-48000000D03*
X43000000Y-50540000D03*
X45540000Y-50540000D03*
X33000000Y-36000000D03*
X33000000Y-34000000D03*
M02*
