M48
; DRILL file KiCad 10.0.5 date 2026-08-16T14:43:49
; FORMAT={-:-/ absolute / metric / decimal}
; #@! TF.CreationDate,2026-08-16T14:43:49-04:00
; #@! TF.GenerationSoftware,Kicad,Pcbnew,10.0.5
; #@! TF.FileFunction,Plated,1,4,PTH
FMAT,2
METRIC
; #@! TA.AperFunction,Plated,PTH,ViaDrill
T1C0.300
; #@! TA.AperFunction,Plated,PTH,ComponentDrill
T2C0.750
; #@! TA.AperFunction,Plated,PTH,ComponentDrill
T3C0.800
; #@! TA.AperFunction,Plated,PTH,ComponentDrill
T4C0.900
; #@! TA.AperFunction,Plated,PTH,ComponentDrill
T5C0.950
; #@! TA.AperFunction,Plated,PTH,ComponentDrill
T6C1.000
; #@! TA.AperFunction,Plated,PTH,ComponentDrill
T7C1.100
; #@! TA.AperFunction,Plated,PTH,ComponentDrill
T8C1.300
%
G90
G05
T1
X10.604Y-36.5
X21.502Y-23.77
X21.51Y-20.825
X21.975Y-26.91
X23.526Y-18.214
X26.435Y-21.689
X26.487Y-24.84
X33.796Y-42.5
X39.221Y-27.005
X40.024Y-28.062
X40.216Y-43.129
X43.658Y-27.534
X47.968Y-29.601
X48.324Y-27.55
X56.54Y-22.5
X59.511Y-19.96
X60.126Y-23.96
X61.524Y-21.703
X62.194Y-17.885
X64.46Y-24.137
X74.822Y-25.675
X78.598Y-47.837
X94.502Y-22.5
X94.534Y-19.982
X96.542Y-27.781
X97.308Y-24.396
X99.462Y-21.23
X99.463Y-18.595
X112.787Y-43.913
T2
X22.0Y-32.5
X22.0Y-34.5
X22.0Y-36.5
X22.0Y-38.5
X33.0Y-34.0
X33.0Y-36.0
X49.0Y-31.0
X50.27Y-31.0
X51.54Y-31.0
T3
X108.0Y-28.5
X110.0Y-28.5
T4
X31.0Y-47.5
X33.54Y-47.5
X108.0Y-36.0
X110.54Y-36.0
T5
X13.0Y-7.0
X15.5Y-7.0
X18.0Y-7.0
X20.5Y-7.0
X32.0Y-7.0
X34.5Y-7.0
X37.0Y-7.0
X39.5Y-7.0
X51.0Y-7.0
X53.5Y-7.0
X56.0Y-7.0
X58.5Y-7.0
X70.0Y-7.0
X72.5Y-7.0
X75.0Y-7.0
X77.5Y-7.0
X89.0Y-7.0
X91.5Y-7.0
X94.0Y-7.0
X96.5Y-7.0
X104.0Y-7.0
X106.5Y-7.0
X109.0Y-7.0
X111.5Y-7.0
T6
X43.0Y-48.0
X43.0Y-50.54
X45.54Y-48.0
X45.54Y-50.54
X55.0Y-35.26
X55.0Y-50.5
X57.54Y-35.26
X57.54Y-50.5
X60.08Y-35.26
X60.08Y-50.5
X62.62Y-35.26
X62.62Y-50.5
X65.16Y-35.26
X65.16Y-50.5
X67.7Y-35.26
X67.7Y-50.5
X70.24Y-35.26
X70.24Y-50.5
X72.78Y-35.26
X72.78Y-50.5
X75.32Y-35.26
X75.32Y-50.5
X77.86Y-35.26
X77.86Y-50.5
X80.4Y-35.26
X80.4Y-50.5
X82.94Y-35.26
X82.94Y-50.5
X85.48Y-35.26
X85.48Y-50.5
X116.0Y-32.0
X121.0Y-32.0
T7
X9.0Y-47.5
X9.0Y-52.0
X15.5Y-47.5
X15.5Y-52.0
X20.0Y-47.5
X20.0Y-52.0
X26.5Y-47.5
X26.5Y-52.0
T8
X119.0Y-14.92
X119.0Y-20.0
M30
