%TF.GenerationSoftware,KiCad,Pcbnew,10.0.5*%
%TF.CreationDate,2026-08-16T14:43:31-04:00*%
%TF.ProjectId,BU-22-Display-Controller-Rev-B,42552d32-322d-4446-9973-706c61792d43,rev?*%
%TF.SameCoordinates,Original*%
%TF.FileFunction,Copper,L3,Inr*%
%TF.FilePolarity,Positive*%
%FSLAX46Y46*%
G04 Gerber Fmt 4.6, Leading zero omitted, Abs format (unit mm)*
G04 Created by KiCad (PCBNEW 10.0.5) date 2026-08-16 14:43:31*
%MOMM*%
%LPD*%
G01*
G04 APERTURE LIST*
G04 Aperture macros list*
%AMRoundRect*
0 Rectangle with rounded corners*
0 $1 Rounding radius*
0 $2 $3 $4 $5 $6 $7 $8 $9 X,Y pos of 4 corners*
0 Add a 4 corners polygon primitive as box body*
4,1,4,$2,$3,$4,$5,$6,$7,$8,$9,$2,$3,0*
0 Add four circle primitives for the rounded corners*
1,1,$1+$1,$2,$3*
1,1,$1+$1,$4,$5*
1,1,$1+$1,$6,$7*
1,1,$1+$1,$8,$9*
0 Add four rect primitives between the rounded corners*
20,1,$1+$1,$2,$3,$4,$5,0*
20,1,$1+$1,$4,$5,$6,$7,0*
20,1,$1+$1,$6,$7,$8,$9,0*
20,1,$1+$1,$8,$9,$2,$3,0*%
G04 Aperture macros list end*
%TA.AperFunction,ComponentPad*%
%ADD10R,1.050000X1.500000*%
%TD*%
%TA.AperFunction,ComponentPad*%
%ADD11O,1.050000X1.500000*%
%TD*%
%TA.AperFunction,ComponentPad*%
%ADD12RoundRect,0.250000X-0.600000X-0.725000X0.600000X-0.725000X0.600000X0.725000X-0.600000X0.725000X0*%
%TD*%
%TA.AperFunction,ComponentPad*%
%ADD13O,1.700000X1.950000*%
%TD*%
%TA.AperFunction,ComponentPad*%
%ADD14RoundRect,0.250000X-0.750000X-0.750000X0.750000X-0.750000X0.750000X0.750000X-0.750000X0.750000X0*%
%TD*%
%TA.AperFunction,ComponentPad*%
%ADD15C,2.000000*%
%TD*%
%TA.AperFunction,ComponentPad*%
%ADD16R,1.800000X1.800000*%
%TD*%
%TA.AperFunction,ComponentPad*%
%ADD17C,1.800000*%
%TD*%
%TA.AperFunction,ComponentPad*%
%ADD18RoundRect,0.250000X-0.550000X-0.550000X0.550000X-0.550000X0.550000X0.550000X-0.550000X0.550000X0*%
%TD*%
%TA.AperFunction,ComponentPad*%
%ADD19C,1.600000*%
%TD*%
%TA.AperFunction,ComponentPad*%
%ADD20R,1.700000X1.700000*%
%TD*%
%TA.AperFunction,ComponentPad*%
%ADD21C,1.700000*%
%TD*%
%TA.AperFunction,ComponentPad*%
%ADD22RoundRect,0.250000X0.625000X-0.350000X0.625000X0.350000X-0.625000X0.350000X-0.625000X-0.350000X0*%
%TD*%
%TA.AperFunction,ComponentPad*%
%ADD23O,1.750000X1.200000*%
%TD*%
%TA.AperFunction,ComponentPad*%
%ADD24RoundRect,0.250000X1.050000X-1.050000X1.050000X1.050000X-1.050000X1.050000X-1.050000X-1.050000X0*%
%TD*%
%TA.AperFunction,ComponentPad*%
%ADD25C,2.600000*%
%TD*%
%TA.AperFunction,ViaPad*%
%ADD26C,0.600000*%
%TD*%
%TA.AperFunction,Conductor*%
%ADD27C,0.200000*%
%TD*%
%ADD28C,0.300000*%
%ADD29C,0.350000*%
G04 APERTURE END LIST*
D10*
%TO.N,GND*%
%TO.C,Q1*%
X49000000Y-31000000D03*
D11*
%TO.N,ENABLE_BASE*%
X50270000Y-31000000D03*
%TO.N,OE_N*%
X51540000Y-31000000D03*
%TD*%
D12*
%TO.N,GND*%
%TO.C,J5*%
X89000000Y-7000000D03*
D13*
%TO.N,CH5_CLOCK_OUT*%
X91500000Y-7000000D03*
%TO.N,CH5_DATA_OUT*%
X94000000Y-7000000D03*
%TO.N,+5V*%
X96500000Y-7000000D03*
%TD*%
D12*
%TO.N,GND*%
%TO.C,J4*%
X70000000Y-7000000D03*
D13*
%TO.N,CH4_CLOCK_OUT*%
X72500000Y-7000000D03*
%TO.N,CH4_DATA_OUT*%
X75000000Y-7000000D03*
%TO.N,+5V*%
X77500000Y-7000000D03*
%TD*%
D14*
%TO.N,+5V*%
%TO.C,C5*%
X116000000Y-32000000D03*
D15*
%TO.N,GND*%
X121000000Y-32000000D03*
%TD*%
D16*
%TO.N,PWR_LED_A*%
%TO.C,D1*%
X108000000Y-36000000D03*
D17*
%TO.N,GND*%
X110540000Y-36000000D03*
%TD*%
D16*
%TO.N,HEART_LED_A*%
%TO.C,D2*%
X31000000Y-47500000D03*
D17*
%TO.N,GND*%
X33540000Y-47500000D03*
%TD*%
D12*
%TO.N,GND*%
%TO.C,J1*%
X13000000Y-7000000D03*
D13*
%TO.N,CH1_CLOCK_OUT*%
X15500000Y-7000000D03*
%TO.N,CH1_DATA_OUT*%
X18000000Y-7000000D03*
%TO.N,+5V*%
X20500000Y-7000000D03*
%TD*%
D15*
%TO.N,TEST*%
%TO.C,SW1*%
X20000000Y-47500000D03*
X26500000Y-47500000D03*
%TO.N,GND*%
X20000000Y-52000000D03*
X26500000Y-52000000D03*
%TD*%
D18*
%TO.N,+5V*%
%TO.C,C4*%
X108000000Y-28500000D03*
D19*
%TO.N,GND*%
X110000000Y-28500000D03*
%TD*%
D20*
%TO.N,HEARTBEAT*%
%TO.C,MCU1A*%
X55000000Y-50500000D03*
D21*
%TO.N,ENABLE_GPIO*%
X57540000Y-50500000D03*
%TO.N,TEST*%
X60080000Y-50500000D03*
%TO.N,CH5_DATA_3V3*%
X62620000Y-50500000D03*
%TO.N,CH5_CLOCK_3V3*%
X65160000Y-50500000D03*
%TO.N,CH6_DATA_3V3*%
X67700000Y-50500000D03*
%TO.N,CH6_CLOCK_3V3*%
X70240000Y-50500000D03*
%TO.N,ADDRESS*%
X72780000Y-50500000D03*
%TO.N,3V3_LOCAL*%
X75320000Y-50500000D03*
%TO.N,RESET*%
X77860000Y-50500000D03*
%TO.N,GND*%
X80400000Y-50500000D03*
%TO.N,+5V*%
X82940000Y-50500000D03*
%TO.N,N/C*%
X85480000Y-50500000D03*
%TD*%
D22*
%TO.N,GND*%
%TO.C,J10*%
X22000000Y-38500000D03*
D23*
%TO.N,3V3_BRAIN*%
X22000000Y-36500000D03*
%TO.N,SDA*%
X22000000Y-34500000D03*
%TO.N,SCL*%
X22000000Y-32500000D03*
%TD*%
D24*
%TO.N,+5V*%
%TO.C,J7*%
X119000000Y-20000000D03*
D25*
%TO.N,GND*%
X119000000Y-14920000D03*
%TD*%
D20*
%TO.N,N/C*%
%TO.C,MCU1B*%
X85480000Y-35260000D03*
D21*
%TO.N,SDA*%
X82940000Y-35260000D03*
%TO.N,SCL*%
X80400000Y-35260000D03*
%TO.N,GND*%
X77860000Y-35260000D03*
X75320000Y-35260000D03*
%TO.N,CH1_DATA_3V3*%
X72780000Y-35260000D03*
%TO.N,CH1_CLOCK_3V3*%
X70240000Y-35260000D03*
%TO.N,CH2_DATA_3V3*%
X67700000Y-35260000D03*
%TO.N,CH2_CLOCK_3V3*%
X65160000Y-35260000D03*
%TO.N,CH3_DATA_3V3*%
X62620000Y-35260000D03*
%TO.N,CH3_CLOCK_3V3*%
X60080000Y-35260000D03*
%TO.N,CH4_DATA_3V3*%
X57540000Y-35260000D03*
%TO.N,CH4_CLOCK_3V3*%
X55000000Y-35260000D03*
%TD*%
D12*
%TO.N,GND*%
%TO.C,J3*%
X51000000Y-7000000D03*
D13*
%TO.N,CH3_CLOCK_OUT*%
X53500000Y-7000000D03*
%TO.N,CH3_DATA_OUT*%
X56000000Y-7000000D03*
%TO.N,+5V*%
X58500000Y-7000000D03*
%TD*%
D15*
%TO.N,RESET*%
%TO.C,SW2*%
X9000000Y-47500000D03*
X15500000Y-47500000D03*
%TO.N,GND*%
X9000000Y-52000000D03*
X15500000Y-52000000D03*
%TD*%
D12*
%TO.N,GND*%
%TO.C,J2*%
X32000000Y-7000000D03*
D13*
%TO.N,CH2_CLOCK_OUT*%
X34500000Y-7000000D03*
%TO.N,CH2_DATA_OUT*%
X37000000Y-7000000D03*
%TO.N,+5V*%
X39500000Y-7000000D03*
%TD*%
D12*
%TO.N,GND*%
%TO.C,J6*%
X104000000Y-7000000D03*
D13*
%TO.N,CH6_CLOCK_OUT*%
X106500000Y-7000000D03*
%TO.N,CH6_DATA_OUT*%
X109000000Y-7000000D03*
%TO.N,+5V*%
X111500000Y-7000000D03*
%TD*%
D20*
%TO.N,ADDRESS*%
%TO.C,JP1*%
X43000000Y-48000000D03*
D21*
%TO.N,ADDR_A0*%
X45540000Y-48000000D03*
%TO.N,ADDRESS*%
X43000000Y-50540000D03*
%TO.N,ADDR_A1*%
X45540000Y-50540000D03*
%TD*%
D22*
%TO.N,GND*%
%TO.C,J11*%
X33000000Y-36000000D03*
D23*
%TO.N,HEARTBEAT*%
X33000000Y-34000000D03*
%TD*%
D26*
%TO.N,ENABLE_GPIO*%
X47967500Y-29601100D03*
%TO.N,GND*%
X21974800Y-26910500D03*
X48324400Y-27549800D03*
%TO.N,ENABLE_BASE*%
X43658000Y-27533600D03*
%TO.N,OE_N*%
X64460100Y-24137100D03*
X94501600Y-22500000D03*
X39221100Y-27004700D03*
X56540000Y-22500000D03*
%TO.N,+5V*%
X40024500Y-28062500D03*
X112787300Y-43912500D03*
X99463300Y-18595500D03*
X23525700Y-18214300D03*
X96542300Y-27781400D03*
X62194200Y-17885400D03*
%TO.N,CH3_DATA_3V3*%
X59511300Y-19960000D03*
%TO.N,CH3_CLOCK_3V3*%
X60125700Y-23960400D03*
%TO.N,CH4_CLOCK_3V3*%
X61524400Y-21702700D03*
%TO.N,HEARTBEAT*%
X33795900Y-42500000D03*
%TO.N,3V3_LOCAL*%
X40216100Y-43129100D03*
%TO.N,CH1_DATA_3V3*%
X21509800Y-20824500D03*
%TO.N,CH1_CLOCK_3V3*%
X21502300Y-23770000D03*
%TO.N,CH2_DATA_3V3*%
X26487100Y-24839800D03*
%TO.N,CH2_CLOCK_3V3*%
X26435000Y-21689000D03*
%TO.N,CH5_DATA_3V3*%
X94534200Y-19982500D03*
%TO.N,CH5_CLOCK_3V3*%
X97308300Y-24395600D03*
%TO.N,CH6_DATA_3V3*%
X74822500Y-25675000D03*
%TO.N,CH6_CLOCK_3V3*%
X78598300Y-47836700D03*
X99461600Y-21230000D03*
%TO.N,3V3_BRAIN*%
X10604100Y-36500000D03*
%TD*%
%TO.N,GND*%
D27*
X9000000Y-52000000D02*
X15500000Y-52000000D01*
X32000000Y-8300200D02*
X49699800Y-8300200D01*
X26500000Y-52000000D02*
X20000000Y-52000000D01*
X14300200Y-8300200D02*
X32000000Y-8300200D01*
X15500000Y-52000000D02*
X20000000Y-52000000D01*
X68723300Y-8276700D02*
X52276700Y-8276700D01*
X70000000Y-7000000D02*
X68723300Y-8276700D01*
X22000000Y-38500000D02*
X30500000Y-38500000D01*
X49699800Y-8300200D02*
X51000000Y-7000000D01*
X75320000Y-35260000D02*
X77860000Y-35260000D01*
X30500000Y-38500000D02*
X33000000Y-36000000D01*
X52276700Y-8276700D02*
X51000000Y-7000000D01*
X13000000Y-7000000D02*
X14300200Y-8300200D01*
X32000000Y-7000000D02*
X32000000Y-8300200D01*
%TO.N,OE_N*%
X39293900Y-26931900D02*
X48557400Y-26931900D01*
X66097200Y-22500000D02*
X94501600Y-22500000D01*
X64460100Y-24137100D02*
X66097200Y-22500000D01*
X39221100Y-27004700D02*
X39293900Y-26931900D01*
X48557400Y-26931900D02*
X51540000Y-29914500D01*
X51540000Y-31000000D02*
X51540000Y-29948300D01*
X51540000Y-29914500D02*
X51540000Y-29948300D01*
%TO.N,+5V*%
X111500000Y-7000000D02*
X110348300Y-7000000D01*
X110348300Y-7000000D02*
X110348300Y-6568100D01*
X20500000Y-7000000D02*
X21651700Y-7000000D01*
X39500000Y-7000000D02*
X40651700Y-7000000D01*
X59651700Y-7000000D02*
X60935200Y-5716500D01*
X109470500Y-5690300D02*
X98961400Y-5690300D01*
X58500000Y-7000000D02*
X59651700Y-7000000D01*
X98961400Y-5690300D02*
X97651700Y-7000000D01*
X38348300Y-7000000D02*
X38348300Y-6568100D01*
X77500000Y-7000000D02*
X78651700Y-7000000D01*
X110348300Y-6568100D02*
X109470500Y-5690300D01*
X39500000Y-7000000D02*
X38348300Y-7000000D01*
X96500000Y-7000000D02*
X97651700Y-7000000D01*
X38348300Y-6568100D02*
X37470500Y-5690300D01*
X41961400Y-5690300D02*
X40651700Y-7000000D01*
X22961400Y-5690300D02*
X21651700Y-7000000D01*
X58500000Y-7000000D02*
X57348300Y-7000000D01*
X57348300Y-7000000D02*
X57348300Y-6568100D01*
X75516500Y-5716500D02*
X76348300Y-6548300D01*
X56470500Y-5690300D02*
X41961400Y-5690300D01*
X76348300Y-6548300D02*
X76348300Y-7000000D01*
X37470500Y-5690300D02*
X22961400Y-5690300D01*
X57348300Y-6568100D02*
X56470500Y-5690300D01*
X96338600Y-5686900D02*
X97651700Y-7000000D01*
X60935200Y-5716500D02*
X75516500Y-5716500D01*
X77500000Y-7000000D02*
X76348300Y-7000000D01*
X79964800Y-5686900D02*
X96338600Y-5686900D01*
X78651700Y-7000000D02*
X79964800Y-5686900D01*
%TO.N,SDA*%
X82940000Y-35260000D02*
X81329800Y-36870200D01*
X37417800Y-34931800D02*
X23608500Y-34931800D01*
X39356200Y-36870200D02*
X37417800Y-34931800D01*
X22000000Y-34500000D02*
X23176700Y-34500000D01*
X23608500Y-34931800D02*
X23176700Y-34500000D01*
X81329800Y-36870200D02*
X39356200Y-36870200D01*
%TO.N,SCL*%
X64083800Y-32500000D02*
X22000000Y-32500000D01*
X67228600Y-36460900D02*
X66311700Y-35544000D01*
X66311700Y-34727900D02*
X64083800Y-32500000D01*
X80400000Y-35260000D02*
X79199100Y-36460900D01*
X79199100Y-36460900D02*
X67228600Y-36460900D01*
X66311700Y-35544000D02*
X66311700Y-34727900D01*
%TO.N,TEST*%
X28270000Y-49270000D02*
X26500000Y-47500000D01*
X60080000Y-50500000D02*
X58850000Y-49270000D01*
X58850000Y-49270000D02*
X28270000Y-49270000D01*
X26500000Y-47500000D02*
X20000000Y-47500000D01*
%TO.N,ADDRESS*%
X71587300Y-51692700D02*
X44152700Y-51692700D01*
X72780000Y-50500000D02*
X71587300Y-51692700D01*
X44152700Y-51692700D02*
X43000000Y-50540000D01*
%TO.N,CH1_DATA_3V3*%
X72780000Y-35260000D02*
X58344500Y-20824500D01*
X58344500Y-20824500D02*
X21509800Y-20824500D01*
%TO.N,CH2_DATA_3V3*%
X57279800Y-24839800D02*
X26487100Y-24839800D01*
X67700000Y-35260000D02*
X57279800Y-24839800D01*
%TO.N,RESET*%
X16816900Y-46183100D02*
X73543100Y-46183100D01*
X15500000Y-47500000D02*
X16816900Y-46183100D01*
X73543100Y-46183100D02*
X77860000Y-50500000D01*
X15500000Y-47500000D02*
X9000000Y-47500000D01*
%TO.N,3V3_BRAIN*%
X22000000Y-36500000D02*
X10604100Y-36500000D01*
%TD*%
%TA.AperFunction,Conductor*%
%TO.N,+5V*%
G36*
X122693116Y-609438D02*
G01*
X123036881Y-751830D01*
X123232506Y-832860D01*
X123260539Y-849045D01*
X123442217Y-988451D01*
X123751408Y-1225702D01*
X123774297Y-1248591D01*
X124150952Y-1739459D01*
X124167137Y-1767492D01*
X124301920Y-2092885D01*
X124364491Y-2243946D01*
X124390561Y-2306883D01*
X124400000Y-2354336D01*
X124400000Y-52645659D01*
X124390561Y-52693112D01*
X124167136Y-53232506D01*
X124150951Y-53260540D01*
X123774295Y-53751406D01*
X123751406Y-53774295D01*
X123260538Y-54150953D01*
X123232504Y-54167138D01*
X122693114Y-54390561D01*
X122645661Y-54400000D01*
X2354337Y-54400000D01*
X2306884Y-54390561D01*
X1767492Y-54167137D01*
X1739459Y-54150952D01*
X1248594Y-53774299D01*
X1225704Y-53751410D01*
X1133047Y-53630657D01*
X849042Y-53260536D01*
X832858Y-53232502D01*
X609439Y-52693116D01*
X600000Y-52645664D01*
X600000Y-50878711D01*
X2149500Y-50878711D01*
X2149500Y-51121288D01*
X2181161Y-51361785D01*
X2243947Y-51596104D01*
X2289954Y-51707174D01*
X2336776Y-51820212D01*
X2458064Y-52030289D01*
X2458066Y-52030292D01*
X2458067Y-52030293D01*
X2605733Y-52222736D01*
X2605739Y-52222743D01*
X2777256Y-52394260D01*
X2777262Y-52394265D01*
X2969711Y-52541936D01*
X3179788Y-52663224D01*
X3403900Y-52756054D01*
X3638211Y-52818838D01*
X3818586Y-52842584D01*
X3878711Y-52850500D01*
X3878712Y-52850500D01*
X4121289Y-52850500D01*
X4169388Y-52844167D01*
X4361789Y-52818838D01*
X4596100Y-52756054D01*
X4820212Y-52663224D01*
X5030289Y-52541936D01*
X5222738Y-52394265D01*
X5394265Y-52222738D01*
X5541936Y-52030289D01*
X5616248Y-51901577D01*
X7749500Y-51901577D01*
X7749500Y-52098422D01*
X7780290Y-52292826D01*
X7841117Y-52480029D01*
X7930476Y-52655405D01*
X8046172Y-52814646D01*
X8185354Y-52953828D01*
X8344595Y-53069524D01*
X8427455Y-53111743D01*
X8519970Y-53158882D01*
X8519972Y-53158882D01*
X8519975Y-53158884D01*
X8620317Y-53191487D01*
X8707173Y-53219709D01*
X8901578Y-53250500D01*
X8901583Y-53250500D01*
X9098422Y-53250500D01*
X9292826Y-53219709D01*
X9480025Y-53158884D01*
X9655405Y-53069524D01*
X9814646Y-52953828D01*
X9953828Y-52814646D01*
X10069524Y-52655405D01*
X10158884Y-52480025D01*
X10173130Y-52436181D01*
X10212568Y-52378506D01*
X10276927Y-52351308D01*
X10291061Y-52350500D01*
X14208939Y-52350500D01*
X14275978Y-52370185D01*
X14321733Y-52422989D01*
X14326870Y-52436181D01*
X14341116Y-52480025D01*
X14430476Y-52655405D01*
X14546172Y-52814646D01*
X14685354Y-52953828D01*
X14844595Y-53069524D01*
X14927455Y-53111743D01*
X15019970Y-53158882D01*
X15019972Y-53158882D01*
X15019975Y-53158884D01*
X15120317Y-53191487D01*
X15207173Y-53219709D01*
X15401578Y-53250500D01*
X15401583Y-53250500D01*
X15598422Y-53250500D01*
X15792826Y-53219709D01*
X15980025Y-53158884D01*
X16155405Y-53069524D01*
X16314646Y-52953828D01*
X16453828Y-52814646D01*
X16569524Y-52655405D01*
X16658884Y-52480025D01*
X16673130Y-52436181D01*
X16712568Y-52378506D01*
X16776927Y-52351308D01*
X16791061Y-52350500D01*
X18708939Y-52350500D01*
X18775978Y-52370185D01*
X18821733Y-52422989D01*
X18826870Y-52436181D01*
X18841116Y-52480025D01*
X18930476Y-52655405D01*
X19046172Y-52814646D01*
X19185354Y-52953828D01*
X19344595Y-53069524D01*
X19427455Y-53111743D01*
X19519970Y-53158882D01*
X19519972Y-53158882D01*
X19519975Y-53158884D01*
X19620317Y-53191487D01*
X19707173Y-53219709D01*
X19901578Y-53250500D01*
X19901583Y-53250500D01*
X20098422Y-53250500D01*
X20292826Y-53219709D01*
X20480025Y-53158884D01*
X20655405Y-53069524D01*
X20814646Y-52953828D01*
X20953828Y-52814646D01*
X21069524Y-52655405D01*
X21158884Y-52480025D01*
X21173130Y-52436181D01*
X21212568Y-52378506D01*
X21276927Y-52351308D01*
X21291061Y-52350500D01*
X25208939Y-52350500D01*
X25275978Y-52370185D01*
X25321733Y-52422989D01*
X25326870Y-52436181D01*
X25341116Y-52480025D01*
X25430476Y-52655405D01*
X25546172Y-52814646D01*
X25685354Y-52953828D01*
X25844595Y-53069524D01*
X25927455Y-53111743D01*
X26019970Y-53158882D01*
X26019972Y-53158882D01*
X26019975Y-53158884D01*
X26120317Y-53191487D01*
X26207173Y-53219709D01*
X26401578Y-53250500D01*
X26401583Y-53250500D01*
X26598422Y-53250500D01*
X26792826Y-53219709D01*
X26980025Y-53158884D01*
X27155405Y-53069524D01*
X27314646Y-52953828D01*
X27453828Y-52814646D01*
X27569524Y-52655405D01*
X27658884Y-52480025D01*
X27719709Y-52292826D01*
X27730810Y-52222736D01*
X27750500Y-52098422D01*
X27750500Y-51901577D01*
X27719709Y-51707173D01*
X27677416Y-51577011D01*
X27658884Y-51519975D01*
X27658882Y-51519972D01*
X27658882Y-51519970D01*
X27587265Y-51379414D01*
X27569524Y-51344595D01*
X27453828Y-51185354D01*
X27314646Y-51046172D01*
X27155405Y-50930476D01*
X27139643Y-50922445D01*
X26980029Y-50841117D01*
X26792826Y-50780290D01*
X26598422Y-50749500D01*
X26598417Y-50749500D01*
X26401583Y-50749500D01*
X26401578Y-50749500D01*
X26207173Y-50780290D01*
X26019970Y-50841117D01*
X25844594Y-50930476D01*
X25794364Y-50966971D01*
X25685354Y-51046172D01*
X25685352Y-51046174D01*
X25685351Y-51046174D01*
X25546174Y-51185351D01*
X25546174Y-51185352D01*
X25546172Y-51185354D01*
X25523231Y-51216930D01*
X25430476Y-51344594D01*
X25341116Y-51519974D01*
X25326870Y-51563819D01*
X25287432Y-51621494D01*
X25223073Y-51648692D01*
X25208939Y-51649500D01*
X21291061Y-51649500D01*
X21224022Y-51629815D01*
X21178267Y-51577011D01*
X21173130Y-51563819D01*
X21168201Y-51548651D01*
X21158884Y-51519975D01*
X21069524Y-51344595D01*
X20953828Y-51185354D01*
X20814646Y-51046172D01*
X20655405Y-50930476D01*
X20639643Y-50922445D01*
X20480029Y-50841117D01*
X20292826Y-50780290D01*
X20098422Y-50749500D01*
X20098417Y-50749500D01*
X19901583Y-50749500D01*
X19901578Y-50749500D01*
X19707173Y-50780290D01*
X19519970Y-50841117D01*
X19344594Y-50930476D01*
X19294364Y-50966971D01*
X19185354Y-51046172D01*
X19185352Y-51046174D01*
X19185351Y-51046174D01*
X19046174Y-51185351D01*
X19046174Y-51185352D01*
X19046172Y-51185354D01*
X19023231Y-51216930D01*
X18930476Y-51344594D01*
X18841116Y-51519974D01*
X18826870Y-51563819D01*
X18787432Y-51621494D01*
X18723073Y-51648692D01*
X18708939Y-51649500D01*
X16791061Y-51649500D01*
X16724022Y-51629815D01*
X16678267Y-51577011D01*
X16673130Y-51563819D01*
X16668201Y-51548651D01*
X16658884Y-51519975D01*
X16569524Y-51344595D01*
X16453828Y-51185354D01*
X16314646Y-51046172D01*
X16155405Y-50930476D01*
X16139643Y-50922445D01*
X15980029Y-50841117D01*
X15792826Y-50780290D01*
X15598422Y-50749500D01*
X15598417Y-50749500D01*
X15401583Y-50749500D01*
X15401578Y-50749500D01*
X15207173Y-50780290D01*
X15019970Y-50841117D01*
X14844594Y-50930476D01*
X14794364Y-50966971D01*
X14685354Y-51046172D01*
X14685352Y-51046174D01*
X14685351Y-51046174D01*
X14546174Y-51185351D01*
X14546174Y-51185352D01*
X14546172Y-51185354D01*
X14523231Y-51216930D01*
X14430476Y-51344594D01*
X14341116Y-51519974D01*
X14326870Y-51563819D01*
X14287432Y-51621494D01*
X14223073Y-51648692D01*
X14208939Y-51649500D01*
X10291061Y-51649500D01*
X10224022Y-51629815D01*
X10178267Y-51577011D01*
X10173130Y-51563819D01*
X10168201Y-51548651D01*
X10158884Y-51519975D01*
X10069524Y-51344595D01*
X9953828Y-51185354D01*
X9814646Y-51046172D01*
X9655405Y-50930476D01*
X9639643Y-50922445D01*
X9480029Y-50841117D01*
X9292826Y-50780290D01*
X9098422Y-50749500D01*
X9098417Y-50749500D01*
X8901583Y-50749500D01*
X8901578Y-50749500D01*
X8707173Y-50780290D01*
X8519970Y-50841117D01*
X8344594Y-50930476D01*
X8294364Y-50966971D01*
X8185354Y-51046172D01*
X8185352Y-51046174D01*
X8185351Y-51046174D01*
X8046174Y-51185351D01*
X8046174Y-51185352D01*
X8046172Y-51185354D01*
X8023231Y-51216930D01*
X7930476Y-51344594D01*
X7841117Y-51519970D01*
X7780290Y-51707173D01*
X7749500Y-51901577D01*
X5616248Y-51901577D01*
X5663224Y-51820212D01*
X5756054Y-51596100D01*
X5818838Y-51361789D01*
X5850500Y-51121288D01*
X5850500Y-50878712D01*
X5845550Y-50841116D01*
X5818838Y-50638214D01*
X5818838Y-50638211D01*
X5756054Y-50403900D01*
X5663224Y-50179788D01*
X5541936Y-49969711D01*
X5426392Y-49819131D01*
X5394266Y-49777263D01*
X5394260Y-49777256D01*
X5222743Y-49605739D01*
X5222736Y-49605733D01*
X5030293Y-49458067D01*
X5030292Y-49458066D01*
X5030289Y-49458064D01*
X4820212Y-49336776D01*
X4820205Y-49336773D01*
X4596104Y-49243947D01*
X4361785Y-49181161D01*
X4121289Y-49149500D01*
X4121288Y-49149500D01*
X3878712Y-49149500D01*
X3878711Y-49149500D01*
X3638214Y-49181161D01*
X3403895Y-49243947D01*
X3179794Y-49336773D01*
X3179785Y-49336777D01*
X2969706Y-49458067D01*
X2777263Y-49605733D01*
X2777256Y-49605739D01*
X2605739Y-49777256D01*
X2605733Y-49777263D01*
X2458067Y-49969706D01*
X2336777Y-50179785D01*
X2336773Y-50179794D01*
X2243947Y-50403895D01*
X2181161Y-50638214D01*
X2149500Y-50878711D01*
X600000Y-50878711D01*
X600000Y-47401577D01*
X7749500Y-47401577D01*
X7749500Y-47598422D01*
X7780290Y-47792826D01*
X7841117Y-47980029D01*
X7895423Y-48086610D01*
X7930476Y-48155405D01*
X8046172Y-48314646D01*
X8185354Y-48453828D01*
X8344595Y-48569524D01*
X8398626Y-48597054D01*
X8519970Y-48658882D01*
X8519972Y-48658882D01*
X8519975Y-48658884D01*
X8620317Y-48691487D01*
X8707173Y-48719709D01*
X8901578Y-48750500D01*
X8901583Y-48750500D01*
X9098422Y-48750500D01*
X9292826Y-48719709D01*
X9301385Y-48716928D01*
X9480025Y-48658884D01*
X9655405Y-48569524D01*
X9814646Y-48453828D01*
X9953828Y-48314646D01*
X10069524Y-48155405D01*
X10158884Y-47980025D01*
X10173130Y-47936181D01*
X10212568Y-47878506D01*
X10276927Y-47851308D01*
X10291061Y-47850500D01*
X14208939Y-47850500D01*
X14275978Y-47870185D01*
X14321733Y-47922989D01*
X14326870Y-47936181D01*
X14341116Y-47980025D01*
X14430476Y-48155405D01*
X14546172Y-48314646D01*
X14685354Y-48453828D01*
X14844595Y-48569524D01*
X14898626Y-48597054D01*
X15019970Y-48658882D01*
X15019972Y-48658882D01*
X15019975Y-48658884D01*
X15120317Y-48691487D01*
X15207173Y-48719709D01*
X15401578Y-48750500D01*
X15401583Y-48750500D01*
X15598422Y-48750500D01*
X15792826Y-48719709D01*
X15801385Y-48716928D01*
X15980025Y-48658884D01*
X16155405Y-48569524D01*
X16314646Y-48453828D01*
X16453828Y-48314646D01*
X16569524Y-48155405D01*
X16658884Y-47980025D01*
X16719709Y-47792826D01*
X16741201Y-47657131D01*
X16750500Y-47598422D01*
X16750500Y-47401577D01*
X16719709Y-47207173D01*
X16677416Y-47077011D01*
X16658884Y-47019975D01*
X16658881Y-47019971D01*
X16658881Y-47019968D01*
X16637955Y-46978899D01*
X16625058Y-46910229D01*
X16651334Y-46845489D01*
X16660740Y-46834941D01*
X16925764Y-46569916D01*
X16987086Y-46536434D01*
X17013444Y-46533600D01*
X18913064Y-46533600D01*
X18980103Y-46553285D01*
X19025858Y-46606089D01*
X19035802Y-46675247D01*
X19013382Y-46730484D01*
X18998837Y-46750505D01*
X18930476Y-46844594D01*
X18841117Y-47019970D01*
X18780290Y-47207173D01*
X18749500Y-47401577D01*
X18749500Y-47598422D01*
X18780290Y-47792826D01*
X18841117Y-47980029D01*
X18895423Y-48086610D01*
X18930476Y-48155405D01*
X19046172Y-48314646D01*
X19185354Y-48453828D01*
X19344595Y-48569524D01*
X19398626Y-48597054D01*
X19519970Y-48658882D01*
X19519972Y-48658882D01*
X19519975Y-48658884D01*
X19620317Y-48691487D01*
X19707173Y-48719709D01*
X19901578Y-48750500D01*
X19901583Y-48750500D01*
X20098422Y-48750500D01*
X20292826Y-48719709D01*
X20301385Y-48716928D01*
X20480025Y-48658884D01*
X20655405Y-48569524D01*
X20814646Y-48453828D01*
X20953828Y-48314646D01*
X21069524Y-48155405D01*
X21158884Y-47980025D01*
X21173130Y-47936181D01*
X21212568Y-47878506D01*
X21276927Y-47851308D01*
X21291061Y-47850500D01*
X25208939Y-47850500D01*
X25275978Y-47870185D01*
X25321733Y-47922989D01*
X25326870Y-47936181D01*
X25341116Y-47980025D01*
X25430476Y-48155405D01*
X25546172Y-48314646D01*
X25685354Y-48453828D01*
X25844595Y-48569524D01*
X25898626Y-48597054D01*
X26019970Y-48658882D01*
X26019972Y-48658882D01*
X26019975Y-48658884D01*
X26120317Y-48691487D01*
X26207173Y-48719709D01*
X26401578Y-48750500D01*
X26401583Y-48750500D01*
X26598422Y-48750500D01*
X26792826Y-48719709D01*
X26801385Y-48716928D01*
X26980025Y-48658884D01*
X27021100Y-48637954D01*
X27089769Y-48625058D01*
X27154509Y-48651334D01*
X27165076Y-48660758D01*
X28054788Y-49550470D01*
X28054789Y-49550471D01*
X28054791Y-49550472D01*
X28094750Y-49573542D01*
X28134712Y-49596614D01*
X28223856Y-49620500D01*
X42064622Y-49620500D01*
X42131661Y-49640185D01*
X42177416Y-49692989D01*
X42187360Y-49762147D01*
X42162046Y-49818111D01*
X42163450Y-49819131D01*
X42160588Y-49823069D01*
X42160586Y-49823072D01*
X42112587Y-49889135D01*
X42058768Y-49963211D01*
X41980128Y-50117552D01*
X41926597Y-50282302D01*
X41899500Y-50453389D01*
X41899500Y-50626610D01*
X41923840Y-50780291D01*
X41926598Y-50797701D01*
X41980127Y-50962445D01*
X42058768Y-51116788D01*
X42160586Y-51256928D01*
X42283072Y-51379414D01*
X42423212Y-51481232D01*
X42577555Y-51559873D01*
X42742299Y-51613402D01*
X42913389Y-51640500D01*
X42913390Y-51640500D01*
X43086610Y-51640500D01*
X43086611Y-51640500D01*
X43257701Y-51613402D01*
X43422445Y-51559873D01*
X43422447Y-51559871D01*
X43426971Y-51558402D01*
X43496812Y-51556407D01*
X43552970Y-51588652D01*
X43937488Y-51973170D01*
X44017412Y-52019314D01*
X44106556Y-52043200D01*
X44106558Y-52043200D01*
X71633442Y-52043200D01*
X71633444Y-52043200D01*
X71722588Y-52019314D01*
X71802512Y-51973170D01*
X72227031Y-51548649D01*
X72288352Y-51515166D01*
X72353029Y-51518401D01*
X72357547Y-51519869D01*
X72357555Y-51519873D01*
X72522299Y-51573402D01*
X72693389Y-51600500D01*
X72693390Y-51600500D01*
X72866610Y-51600500D01*
X72866611Y-51600500D01*
X73037701Y-51573402D01*
X73202445Y-51519873D01*
X73356788Y-51441232D01*
X73496928Y-51339414D01*
X73619414Y-51216928D01*
X73721232Y-51076788D01*
X73799873Y-50922445D01*
X73853402Y-50757701D01*
X73880500Y-50586611D01*
X73880500Y-50413389D01*
X74219500Y-50413389D01*
X74219500Y-50586610D01*
X74246597Y-50757697D01*
X74246597Y-50757699D01*
X74246598Y-50757701D01*
X74300127Y-50922445D01*
X74378768Y-51076788D01*
X74480586Y-51216928D01*
X74603072Y-51339414D01*
X74743212Y-51441232D01*
X74897555Y-51519873D01*
X75062299Y-51573402D01*
X75233389Y-51600500D01*
X75233390Y-51600500D01*
X75406610Y-51600500D01*
X75406611Y-51600500D01*
X75577701Y-51573402D01*
X75742445Y-51519873D01*
X75896788Y-51441232D01*
X76036928Y-51339414D01*
X76159414Y-51216928D01*
X76261232Y-51076788D01*
X76339873Y-50922445D01*
X76393402Y-50757701D01*
X76420500Y-50586611D01*
X76420500Y-50413389D01*
X76393402Y-50242299D01*
X76339873Y-50077555D01*
X76261232Y-49923212D01*
X76159414Y-49783072D01*
X76036928Y-49660586D01*
X75896788Y-49558768D01*
X75742445Y-49480127D01*
X75577701Y-49426598D01*
X75577699Y-49426597D01*
X75577698Y-49426597D01*
X75446271Y-49405781D01*
X75406611Y-49399500D01*
X75233389Y-49399500D01*
X75193728Y-49405781D01*
X75062302Y-49426597D01*
X74897552Y-49480128D01*
X74743211Y-49558768D01*
X74678562Y-49605739D01*
X74603072Y-49660586D01*
X74603070Y-49660588D01*
X74603069Y-49660588D01*
X74480588Y-49783069D01*
X74480588Y-49783070D01*
X74480586Y-49783072D01*
X74455141Y-49818094D01*
X74378768Y-49923211D01*
X74300128Y-50077552D01*
X74246597Y-50242302D01*
X74219500Y-50413389D01*
X73880500Y-50413389D01*
X73853402Y-50242299D01*
X73799873Y-50077555D01*
X73721232Y-49923212D01*
X73619414Y-49783072D01*
X73496928Y-49660586D01*
X73356788Y-49558768D01*
X73202445Y-49480127D01*
X73037701Y-49426598D01*
X73037699Y-49426597D01*
X73037698Y-49426597D01*
X72906271Y-49405781D01*
X72866611Y-49399500D01*
X72693389Y-49399500D01*
X72653728Y-49405781D01*
X72522302Y-49426597D01*
X72357552Y-49480128D01*
X72203211Y-49558768D01*
X72138562Y-49605739D01*
X72063072Y-49660586D01*
X72063070Y-49660588D01*
X72063069Y-49660588D01*
X71940588Y-49783069D01*
X71940588Y-49783070D01*
X71940586Y-49783072D01*
X71915141Y-49818094D01*
X71838768Y-49923211D01*
X71760128Y-50077552D01*
X71706597Y-50242302D01*
X71679500Y-50413389D01*
X71679500Y-50586610D01*
X71706597Y-50757698D01*
X71761597Y-50926970D01*
X71763592Y-50996811D01*
X71731347Y-51052969D01*
X71478435Y-51305882D01*
X71417115Y-51339366D01*
X71390756Y-51342200D01*
X71231762Y-51342200D01*
X71164723Y-51322515D01*
X71118968Y-51269711D01*
X71109024Y-51200553D01*
X71131443Y-51145316D01*
X71181232Y-51076788D01*
X71259873Y-50922445D01*
X71313402Y-50757701D01*
X71340500Y-50586611D01*
X71340500Y-50413389D01*
X71313402Y-50242299D01*
X71259873Y-50077555D01*
X71181232Y-49923212D01*
X71079414Y-49783072D01*
X70956928Y-49660586D01*
X70816788Y-49558768D01*
X70662445Y-49480127D01*
X70497701Y-49426598D01*
X70497699Y-49426597D01*
X70497698Y-49426597D01*
X70366271Y-49405781D01*
X70326611Y-49399500D01*
X70153389Y-49399500D01*
X70113728Y-49405781D01*
X69982302Y-49426597D01*
X69817552Y-49480128D01*
X69663211Y-49558768D01*
X69598562Y-49605739D01*
X69523072Y-49660586D01*
X69523070Y-49660588D01*
X69523069Y-49660588D01*
X69400588Y-49783069D01*
X69400588Y-49783070D01*
X69400586Y-49783072D01*
X69375141Y-49818094D01*
X69298768Y-49923211D01*
X69220128Y-50077552D01*
X69166597Y-50242302D01*
X69139500Y-50413389D01*
X69139500Y-50586610D01*
X69166597Y-50757697D01*
X69166597Y-50757699D01*
X69166598Y-50757701D01*
X69220127Y-50922445D01*
X69298768Y-51076788D01*
X69348556Y-51145316D01*
X69372036Y-51211120D01*
X69356211Y-51279174D01*
X69306106Y-51327869D01*
X69248238Y-51342200D01*
X68691762Y-51342200D01*
X68624723Y-51322515D01*
X68578968Y-51269711D01*
X68569024Y-51200553D01*
X68591443Y-51145316D01*
X68641232Y-51076788D01*
X68719873Y-50922445D01*
X68773402Y-50757701D01*
X68800500Y-50586611D01*
X68800500Y-50413389D01*
X68773402Y-50242299D01*
X68719873Y-50077555D01*
X68641232Y-49923212D01*
X68539414Y-49783072D01*
X68416928Y-49660586D01*
X68276788Y-49558768D01*
X68122445Y-49480127D01*
X67957701Y-49426598D01*
X67957699Y-49426597D01*
X67957698Y-49426597D01*
X67826271Y-49405781D01*
X67786611Y-49399500D01*
X67613389Y-49399500D01*
X67573728Y-49405781D01*
X67442302Y-49426597D01*
X67277552Y-49480128D01*
X67123211Y-49558768D01*
X67058562Y-49605739D01*
X66983072Y-49660586D01*
X66983070Y-49660588D01*
X66983069Y-49660588D01*
X66860588Y-49783069D01*
X66860588Y-49783070D01*
X66860586Y-49783072D01*
X66835141Y-49818094D01*
X66758768Y-49923211D01*
X66680128Y-50077552D01*
X66626597Y-50242302D01*
X66599500Y-50413389D01*
X66599500Y-50586610D01*
X66626597Y-50757697D01*
X66626597Y-50757699D01*
X66626598Y-50757701D01*
X66680127Y-50922445D01*
X66758768Y-51076788D01*
X66808556Y-51145316D01*
X66832036Y-51211120D01*
X66816211Y-51279174D01*
X66766106Y-51327869D01*
X66708238Y-51342200D01*
X66151762Y-51342200D01*
X66084723Y-51322515D01*
X66038968Y-51269711D01*
X66029024Y-51200553D01*
X66051443Y-51145316D01*
X66101232Y-51076788D01*
X66179873Y-50922445D01*
X66233402Y-50757701D01*
X66260500Y-50586611D01*
X66260500Y-50413389D01*
X66233402Y-50242299D01*
X66179873Y-50077555D01*
X66101232Y-49923212D01*
X65999414Y-49783072D01*
X65876928Y-49660586D01*
X65736788Y-49558768D01*
X65582445Y-49480127D01*
X65417701Y-49426598D01*
X65417699Y-49426597D01*
X65417698Y-49426597D01*
X65286271Y-49405781D01*
X65246611Y-49399500D01*
X65073389Y-49399500D01*
X65033728Y-49405781D01*
X64902302Y-49426597D01*
X64737552Y-49480128D01*
X64583211Y-49558768D01*
X64518562Y-49605739D01*
X64443072Y-49660586D01*
X64443070Y-49660588D01*
X64443069Y-49660588D01*
X64320588Y-49783069D01*
X64320588Y-49783070D01*
X64320586Y-49783072D01*
X64295141Y-49818094D01*
X64218768Y-49923211D01*
X64140128Y-50077552D01*
X64086597Y-50242302D01*
X64059500Y-50413389D01*
X64059500Y-50586610D01*
X64086597Y-50757697D01*
X64086597Y-50757699D01*
X64086598Y-50757701D01*
X64140127Y-50922445D01*
X64218768Y-51076788D01*
X64268556Y-51145316D01*
X64292036Y-51211120D01*
X64276211Y-51279174D01*
X64226106Y-51327869D01*
X64168238Y-51342200D01*
X63611762Y-51342200D01*
X63544723Y-51322515D01*
X63498968Y-51269711D01*
X63489024Y-51200553D01*
X63511443Y-51145316D01*
X63561232Y-51076788D01*
X63639873Y-50922445D01*
X63693402Y-50757701D01*
X63720500Y-50586611D01*
X63720500Y-50413389D01*
X63693402Y-50242299D01*
X63639873Y-50077555D01*
X63561232Y-49923212D01*
X63459414Y-49783072D01*
X63336928Y-49660586D01*
X63196788Y-49558768D01*
X63042445Y-49480127D01*
X62877701Y-49426598D01*
X62877699Y-49426597D01*
X62877698Y-49426597D01*
X62746271Y-49405781D01*
X62706611Y-49399500D01*
X62533389Y-49399500D01*
X62493728Y-49405781D01*
X62362302Y-49426597D01*
X62197552Y-49480128D01*
X62043211Y-49558768D01*
X61978562Y-49605739D01*
X61903072Y-49660586D01*
X61903070Y-49660588D01*
X61903069Y-49660588D01*
X61780588Y-49783069D01*
X61780588Y-49783070D01*
X61780586Y-49783072D01*
X61755141Y-49818094D01*
X61678768Y-49923211D01*
X61600128Y-50077552D01*
X61546597Y-50242302D01*
X61519500Y-50413389D01*
X61519500Y-50586610D01*
X61546597Y-50757697D01*
X61546597Y-50757699D01*
X61546598Y-50757701D01*
X61600127Y-50922445D01*
X61678768Y-51076788D01*
X61728556Y-51145316D01*
X61752036Y-51211120D01*
X61736211Y-51279174D01*
X61686106Y-51327869D01*
X61628238Y-51342200D01*
X61071762Y-51342200D01*
X61004723Y-51322515D01*
X60958968Y-51269711D01*
X60949024Y-51200553D01*
X60971443Y-51145316D01*
X61021232Y-51076788D01*
X61099873Y-50922445D01*
X61153402Y-50757701D01*
X61180500Y-50586611D01*
X61180500Y-50413389D01*
X61153402Y-50242299D01*
X61099873Y-50077555D01*
X61021232Y-49923212D01*
X60919414Y-49783072D01*
X60796928Y-49660586D01*
X60656788Y-49558768D01*
X60502445Y-49480127D01*
X60337701Y-49426598D01*
X60337699Y-49426597D01*
X60337698Y-49426597D01*
X60206271Y-49405781D01*
X60166611Y-49399500D01*
X59993389Y-49399500D01*
X59961192Y-49404599D01*
X59822301Y-49426597D01*
X59653028Y-49481597D01*
X59583186Y-49483592D01*
X59527029Y-49451347D01*
X59065213Y-48989531D01*
X59065208Y-48989527D01*
X58985290Y-48943387D01*
X58985285Y-48943385D01*
X58977246Y-48941231D01*
X58977245Y-48941230D01*
X58914310Y-48924367D01*
X58896144Y-48919500D01*
X58896143Y-48919500D01*
X46475378Y-48919500D01*
X46408339Y-48899815D01*
X46362584Y-48847011D01*
X46352640Y-48777853D01*
X46377953Y-48721888D01*
X46376550Y-48720869D01*
X46379411Y-48716930D01*
X46379414Y-48716928D01*
X46481232Y-48576788D01*
X46559873Y-48422445D01*
X46613402Y-48257701D01*
X46640500Y-48086611D01*
X46640500Y-47913389D01*
X46613402Y-47742299D01*
X46559873Y-47577555D01*
X46481232Y-47423212D01*
X46379414Y-47283072D01*
X46256928Y-47160586D01*
X46116788Y-47058768D01*
X45962445Y-46980127D01*
X45797701Y-46926598D01*
X45797699Y-46926597D01*
X45797698Y-46926597D01*
X45666271Y-46905781D01*
X45626611Y-46899500D01*
X45453389Y-46899500D01*
X45413728Y-46905781D01*
X45282302Y-46926597D01*
X45117552Y-46980128D01*
X44963211Y-47058768D01*
X44883256Y-47116859D01*
X44823072Y-47160586D01*
X44823070Y-47160588D01*
X44823069Y-47160588D01*
X44700588Y-47283069D01*
X44700588Y-47283070D01*
X44700586Y-47283072D01*
X44671056Y-47323716D01*
X44598768Y-47423211D01*
X44520128Y-47577552D01*
X44466597Y-47742302D01*
X44446343Y-47870185D01*
X44439500Y-47913389D01*
X44439500Y-48086611D01*
X44466598Y-48257701D01*
X44520127Y-48422445D01*
X44598768Y-48576788D01*
X44700586Y-48716928D01*
X44700588Y-48716930D01*
X44703450Y-48720869D01*
X44702024Y-48721905D01*
X44727485Y-48778745D01*
X44717039Y-48847829D01*
X44670902Y-48900300D01*
X44604622Y-48919500D01*
X44224500Y-48919500D01*
X44157461Y-48899815D01*
X44111706Y-48847011D01*
X44100500Y-48795500D01*
X44100500Y-47125323D01*
X44100499Y-47125321D01*
X44085967Y-47052264D01*
X44085966Y-47052260D01*
X44064394Y-47019975D01*
X44030601Y-46969399D01*
X43947740Y-46914034D01*
X43947739Y-46914033D01*
X43947735Y-46914032D01*
X43874677Y-46899500D01*
X43874674Y-46899500D01*
X42125326Y-46899500D01*
X42125323Y-46899500D01*
X42052264Y-46914032D01*
X42052260Y-46914033D01*
X41969399Y-46969399D01*
X41914033Y-47052260D01*
X41914032Y-47052264D01*
X41899500Y-47125321D01*
X41899500Y-48795500D01*
X41879815Y-48862539D01*
X41827011Y-48908294D01*
X41775500Y-48919500D01*
X28466544Y-48919500D01*
X28399505Y-48899815D01*
X28378863Y-48883181D01*
X27660758Y-48165076D01*
X27627273Y-48103753D01*
X27632257Y-48034061D01*
X27637951Y-48021106D01*
X27658884Y-47980025D01*
X27719709Y-47792826D01*
X27741201Y-47657131D01*
X27750500Y-47598422D01*
X27750500Y-47401577D01*
X27719709Y-47207173D01*
X27673130Y-47063819D01*
X27658884Y-47019975D01*
X27658882Y-47019972D01*
X27658882Y-47019970D01*
X27597499Y-46899500D01*
X27569524Y-46844595D01*
X27486617Y-46730484D01*
X27463138Y-46664680D01*
X27478963Y-46596626D01*
X27529069Y-46547931D01*
X27586936Y-46533600D01*
X29725500Y-46533600D01*
X29792539Y-46553285D01*
X29838294Y-46606089D01*
X29849500Y-46657600D01*
X29849500Y-48424678D01*
X29864032Y-48497735D01*
X29864033Y-48497739D01*
X29864034Y-48497740D01*
X29919399Y-48580601D01*
X29981614Y-48622171D01*
X30002260Y-48635966D01*
X30002264Y-48635967D01*
X30075321Y-48650499D01*
X30075324Y-48650500D01*
X30075326Y-48650500D01*
X31924676Y-48650500D01*
X31924677Y-48650499D01*
X31997740Y-48635966D01*
X32080601Y-48580601D01*
X32135966Y-48497740D01*
X32150500Y-48424674D01*
X32150500Y-47657131D01*
X32170185Y-47590092D01*
X32222989Y-47544337D01*
X32292147Y-47534393D01*
X32355703Y-47563418D01*
X32393477Y-47622196D01*
X32396973Y-47637733D01*
X32417829Y-47769410D01*
X32473787Y-47941636D01*
X32473788Y-47941639D01*
X32514276Y-48021099D01*
X32547656Y-48086611D01*
X32556006Y-48102997D01*
X32662441Y-48249494D01*
X32662445Y-48249499D01*
X32790500Y-48377554D01*
X32790505Y-48377558D01*
X32855361Y-48424678D01*
X32937006Y-48483996D01*
X33042484Y-48537740D01*
X33098360Y-48566211D01*
X33098363Y-48566212D01*
X33184476Y-48594191D01*
X33270591Y-48622171D01*
X33353429Y-48635291D01*
X33449449Y-48650500D01*
X33449454Y-48650500D01*
X33630551Y-48650500D01*
X33722310Y-48635966D01*
X33809409Y-48622171D01*
X33981639Y-48566211D01*
X34142994Y-48483996D01*
X34289501Y-48377553D01*
X34417553Y-48249501D01*
X34523996Y-48102994D01*
X34606211Y-47941639D01*
X34662171Y-47769409D01*
X34679954Y-47657131D01*
X34690500Y-47590551D01*
X34690500Y-47409448D01*
X34674019Y-47305397D01*
X34662171Y-47230591D01*
X34612271Y-47077011D01*
X34606212Y-47058363D01*
X34606211Y-47058360D01*
X34566349Y-46980128D01*
X34523996Y-46897006D01*
X34486567Y-46845489D01*
X34417558Y-46750505D01*
X34417554Y-46750500D01*
X34412335Y-46745281D01*
X34378850Y-46683958D01*
X34383834Y-46614266D01*
X34425706Y-46558333D01*
X34491170Y-46533916D01*
X34500016Y-46533600D01*
X73346556Y-46533600D01*
X73413595Y-46553285D01*
X73434237Y-46569919D01*
X76811347Y-49947029D01*
X76844832Y-50008352D01*
X76841597Y-50073028D01*
X76786597Y-50242301D01*
X76759500Y-50413389D01*
X76759500Y-50586610D01*
X76786597Y-50757697D01*
X76786597Y-50757699D01*
X76786598Y-50757701D01*
X76840127Y-50922445D01*
X76918768Y-51076788D01*
X77020586Y-51216928D01*
X77143072Y-51339414D01*
X77283212Y-51441232D01*
X77437555Y-51519873D01*
X77602299Y-51573402D01*
X77773389Y-51600500D01*
X77773390Y-51600500D01*
X77946610Y-51600500D01*
X77946611Y-51600500D01*
X78117701Y-51573402D01*
X78282445Y-51519873D01*
X78436788Y-51441232D01*
X78576928Y-51339414D01*
X78699414Y-51216928D01*
X78801232Y-51076788D01*
X78879873Y-50922445D01*
X78933402Y-50757701D01*
X78960500Y-50586611D01*
X78960500Y-50413389D01*
X79299500Y-50413389D01*
X79299500Y-50586610D01*
X79326597Y-50757697D01*
X79326597Y-50757699D01*
X79326598Y-50757701D01*
X79380127Y-50922445D01*
X79458768Y-51076788D01*
X79560586Y-51216928D01*
X79683072Y-51339414D01*
X79823212Y-51441232D01*
X79977555Y-51519873D01*
X80142299Y-51573402D01*
X80313389Y-51600500D01*
X80313390Y-51600500D01*
X80486610Y-51600500D01*
X80486611Y-51600500D01*
X80657701Y-51573402D01*
X80822445Y-51519873D01*
X80976788Y-51441232D01*
X81116928Y-51339414D01*
X81239414Y-51216928D01*
X81341232Y-51076788D01*
X81419873Y-50922445D01*
X81473402Y-50757701D01*
X81500500Y-50586611D01*
X81500500Y-50413389D01*
X84379500Y-50413389D01*
X84379500Y-50586610D01*
X84406597Y-50757697D01*
X84406597Y-50757699D01*
X84406598Y-50757701D01*
X84460127Y-50922445D01*
X84538768Y-51076788D01*
X84640586Y-51216928D01*
X84763072Y-51339414D01*
X84903212Y-51441232D01*
X85057555Y-51519873D01*
X85222299Y-51573402D01*
X85393389Y-51600500D01*
X85393390Y-51600500D01*
X85566610Y-51600500D01*
X85566611Y-51600500D01*
X85737701Y-51573402D01*
X85902445Y-51519873D01*
X86056788Y-51441232D01*
X86196928Y-51339414D01*
X86319414Y-51216928D01*
X86421232Y-51076788D01*
X86499873Y-50922445D01*
X86514083Y-50878711D01*
X119149500Y-50878711D01*
X119149500Y-51121288D01*
X119181161Y-51361785D01*
X119243947Y-51596104D01*
X119289954Y-51707174D01*
X119336776Y-51820212D01*
X119458064Y-52030289D01*
X119458066Y-52030292D01*
X119458067Y-52030293D01*
X119605733Y-52222736D01*
X119605739Y-52222743D01*
X119777256Y-52394260D01*
X119777262Y-52394265D01*
X119969711Y-52541936D01*
X120179788Y-52663224D01*
X120403900Y-52756054D01*
X120638211Y-52818838D01*
X120818586Y-52842584D01*
X120878711Y-52850500D01*
X120878712Y-52850500D01*
X121121289Y-52850500D01*
X121169388Y-52844167D01*
X121361789Y-52818838D01*
X121596100Y-52756054D01*
X121820212Y-52663224D01*
X122030289Y-52541936D01*
X122222738Y-52394265D01*
X122394265Y-52222738D01*
X122541936Y-52030289D01*
X122663224Y-51820212D01*
X122756054Y-51596100D01*
X122818838Y-51361789D01*
X122850500Y-51121288D01*
X122850500Y-50878712D01*
X122845550Y-50841116D01*
X122818838Y-50638214D01*
X122818838Y-50638211D01*
X122756054Y-50403900D01*
X122663224Y-50179788D01*
X122541936Y-49969711D01*
X122426392Y-49819131D01*
X122394266Y-49777263D01*
X122394260Y-49777256D01*
X122222743Y-49605739D01*
X122222736Y-49605733D01*
X122030293Y-49458067D01*
X122030292Y-49458066D01*
X122030289Y-49458064D01*
X121820212Y-49336776D01*
X121820205Y-49336773D01*
X121596104Y-49243947D01*
X121361785Y-49181161D01*
X121121289Y-49149500D01*
X121121288Y-49149500D01*
X120878712Y-49149500D01*
X120878711Y-49149500D01*
X120638214Y-49181161D01*
X120403895Y-49243947D01*
X120179794Y-49336773D01*
X120179785Y-49336777D01*
X119969706Y-49458067D01*
X119777263Y-49605733D01*
X119777256Y-49605739D01*
X119605739Y-49777256D01*
X119605733Y-49777263D01*
X119458067Y-49969706D01*
X119336777Y-50179785D01*
X119336773Y-50179794D01*
X119243947Y-50403895D01*
X119181161Y-50638214D01*
X119149500Y-50878711D01*
X86514083Y-50878711D01*
X86553402Y-50757701D01*
X86580500Y-50586611D01*
X86580500Y-50413389D01*
X86553402Y-50242299D01*
X86499873Y-50077555D01*
X86421232Y-49923212D01*
X86319414Y-49783072D01*
X86196928Y-49660586D01*
X86056788Y-49558768D01*
X85902445Y-49480127D01*
X85737701Y-49426598D01*
X85737699Y-49426597D01*
X85737698Y-49426597D01*
X85606271Y-49405781D01*
X85566611Y-49399500D01*
X85393389Y-49399500D01*
X85353728Y-49405781D01*
X85222302Y-49426597D01*
X85057552Y-49480128D01*
X84903211Y-49558768D01*
X84838562Y-49605739D01*
X84763072Y-49660586D01*
X84763070Y-49660588D01*
X84763069Y-49660588D01*
X84640588Y-49783069D01*
X84640588Y-49783070D01*
X84640586Y-49783072D01*
X84615141Y-49818094D01*
X84538768Y-49923211D01*
X84460128Y-50077552D01*
X84406597Y-50242302D01*
X84379500Y-50413389D01*
X81500500Y-50413389D01*
X81473402Y-50242299D01*
X81419873Y-50077555D01*
X81341232Y-49923212D01*
X81239414Y-49783072D01*
X81116928Y-49660586D01*
X80976788Y-49558768D01*
X80822445Y-49480127D01*
X80657701Y-49426598D01*
X80657699Y-49426597D01*
X80657698Y-49426597D01*
X80526271Y-49405781D01*
X80486611Y-49399500D01*
X80313389Y-49399500D01*
X80273728Y-49405781D01*
X80142302Y-49426597D01*
X79977552Y-49480128D01*
X79823211Y-49558768D01*
X79758562Y-49605739D01*
X79683072Y-49660586D01*
X79683070Y-49660588D01*
X79683069Y-49660588D01*
X79560588Y-49783069D01*
X79560588Y-49783070D01*
X79560586Y-49783072D01*
X79535141Y-49818094D01*
X79458768Y-49923211D01*
X79380128Y-50077552D01*
X79326597Y-50242302D01*
X79299500Y-50413389D01*
X78960500Y-50413389D01*
X78933402Y-50242299D01*
X78879873Y-50077555D01*
X78801232Y-49923212D01*
X78699414Y-49783072D01*
X78576928Y-49660586D01*
X78436788Y-49558768D01*
X78282445Y-49480127D01*
X78117701Y-49426598D01*
X78117699Y-49426597D01*
X78117698Y-49426597D01*
X77986271Y-49405781D01*
X77946611Y-49399500D01*
X77773389Y-49399500D01*
X77741192Y-49404599D01*
X77602301Y-49426597D01*
X77433028Y-49481597D01*
X77363186Y-49483592D01*
X77307029Y-49451347D01*
X75619907Y-47764225D01*
X78047800Y-47764225D01*
X78047800Y-47909175D01*
X78085316Y-48049185D01*
X78085317Y-48049188D01*
X78157788Y-48174711D01*
X78157790Y-48174713D01*
X78157791Y-48174715D01*
X78260285Y-48277209D01*
X78260286Y-48277210D01*
X78260288Y-48277211D01*
X78385811Y-48349682D01*
X78385812Y-48349682D01*
X78385815Y-48349684D01*
X78525825Y-48387200D01*
X78525828Y-48387200D01*
X78670772Y-48387200D01*
X78670775Y-48387200D01*
X78810785Y-48349684D01*
X78936315Y-48277209D01*
X79038809Y-48174715D01*
X79111284Y-48049185D01*
X79148800Y-47909175D01*
X79148800Y-47764225D01*
X79111284Y-47624215D01*
X79110118Y-47622196D01*
X79038811Y-47498688D01*
X79038806Y-47498682D01*
X78936317Y-47396193D01*
X78936311Y-47396188D01*
X78810788Y-47323717D01*
X78810789Y-47323717D01*
X78799306Y-47320640D01*
X78670775Y-47286200D01*
X78525825Y-47286200D01*
X78397293Y-47320640D01*
X78385811Y-47323717D01*
X78260288Y-47396188D01*
X78260282Y-47396193D01*
X78157793Y-47498682D01*
X78157788Y-47498688D01*
X78085317Y-47624211D01*
X78085316Y-47624215D01*
X78047800Y-47764225D01*
X75619907Y-47764225D01*
X73758313Y-45902631D01*
X73758308Y-45902627D01*
X73678390Y-45856487D01*
X73678389Y-45856486D01*
X73678388Y-45856486D01*
X73589244Y-45832600D01*
X16863044Y-45832600D01*
X16770756Y-45832600D01*
X16681612Y-45856486D01*
X16681609Y-45856487D01*
X16601691Y-45902627D01*
X16601686Y-45902631D01*
X16165076Y-46339240D01*
X16103753Y-46372725D01*
X16034061Y-46367741D01*
X16021101Y-46362044D01*
X15980032Y-46341118D01*
X15792826Y-46280290D01*
X15598422Y-46249500D01*
X15598417Y-46249500D01*
X15401583Y-46249500D01*
X15401578Y-46249500D01*
X15207173Y-46280290D01*
X15019970Y-46341117D01*
X14844594Y-46430476D01*
X14753741Y-46496485D01*
X14685354Y-46546172D01*
X14685352Y-46546174D01*
X14685351Y-46546174D01*
X14546174Y-46685351D01*
X14546174Y-46685352D01*
X14546172Y-46685354D01*
X14513382Y-46730486D01*
X14430476Y-46844594D01*
X14341116Y-47019974D01*
X14326870Y-47063819D01*
X14287432Y-47121494D01*
X14223073Y-47148692D01*
X14208939Y-47149500D01*
X10291061Y-47149500D01*
X10224022Y-47129815D01*
X10178267Y-47077011D01*
X10173130Y-47063819D01*
X10168781Y-47050437D01*
X10158884Y-47019975D01*
X10069524Y-46844595D01*
X9953828Y-46685354D01*
X9814646Y-46546172D01*
X9655405Y-46430476D01*
X9480029Y-46341117D01*
X9292826Y-46280290D01*
X9098422Y-46249500D01*
X9098417Y-46249500D01*
X8901583Y-46249500D01*
X8901578Y-46249500D01*
X8707173Y-46280290D01*
X8519970Y-46341117D01*
X8344594Y-46430476D01*
X8253741Y-46496485D01*
X8185354Y-46546172D01*
X8185352Y-46546174D01*
X8185351Y-46546174D01*
X8046174Y-46685351D01*
X8046174Y-46685352D01*
X8046172Y-46685354D01*
X8013382Y-46730486D01*
X7930476Y-46844594D01*
X7841117Y-47019970D01*
X7780290Y-47207173D01*
X7749500Y-47401577D01*
X600000Y-47401577D01*
X600000Y-43056625D01*
X39665600Y-43056625D01*
X39665600Y-43201575D01*
X39703116Y-43341585D01*
X39703117Y-43341588D01*
X39775588Y-43467111D01*
X39775590Y-43467113D01*
X39775591Y-43467115D01*
X39878085Y-43569609D01*
X39878086Y-43569610D01*
X39878088Y-43569611D01*
X40003611Y-43642082D01*
X40003612Y-43642082D01*
X40003615Y-43642084D01*
X40143625Y-43679600D01*
X40143628Y-43679600D01*
X40288572Y-43679600D01*
X40288575Y-43679600D01*
X40428585Y-43642084D01*
X40554115Y-43569609D01*
X40656609Y-43467115D01*
X40729084Y-43341585D01*
X40766600Y-43201575D01*
X40766600Y-43056625D01*
X40729084Y-42916615D01*
X40683705Y-42838017D01*
X40656611Y-42791088D01*
X40656606Y-42791082D01*
X40554117Y-42688593D01*
X40554111Y-42688588D01*
X40428588Y-42616117D01*
X40428589Y-42616117D01*
X40417106Y-42613040D01*
X40288575Y-42578600D01*
X40143625Y-42578600D01*
X40015093Y-42613040D01*
X40003611Y-42616117D01*
X39878088Y-42688588D01*
X39878082Y-42688593D01*
X39775593Y-42791082D01*
X39775588Y-42791088D01*
X39703117Y-42916611D01*
X39703116Y-42916615D01*
X39665600Y-43056625D01*
X600000Y-43056625D01*
X600000Y-42427525D01*
X33245400Y-42427525D01*
X33245400Y-42572475D01*
X33276513Y-42688588D01*
X33282917Y-42712488D01*
X33355388Y-42838011D01*
X33355390Y-42838013D01*
X33355391Y-42838015D01*
X33457885Y-42940509D01*
X33457886Y-42940510D01*
X33457888Y-42940511D01*
X33583411Y-43012982D01*
X33583412Y-43012982D01*
X33583415Y-43012984D01*
X33723425Y-43050500D01*
X33723428Y-43050500D01*
X33868372Y-43050500D01*
X33868375Y-43050500D01*
X34008385Y-43012984D01*
X34133915Y-42940509D01*
X34236409Y-42838015D01*
X34308884Y-42712485D01*
X34346400Y-42572475D01*
X34346400Y-42427525D01*
X34308884Y-42287515D01*
X34236409Y-42161985D01*
X34133915Y-42059491D01*
X34133913Y-42059490D01*
X34133911Y-42059488D01*
X34008388Y-41987017D01*
X34008389Y-41987017D01*
X33996906Y-41983940D01*
X33868375Y-41949500D01*
X33723425Y-41949500D01*
X33594893Y-41983940D01*
X33583411Y-41987017D01*
X33457888Y-42059488D01*
X33457882Y-42059493D01*
X33355393Y-42161982D01*
X33355388Y-42161988D01*
X33282917Y-42287511D01*
X33282916Y-42287515D01*
X33245400Y-42427525D01*
X600000Y-42427525D01*
X600000Y-36427525D01*
X10053600Y-36427525D01*
X10053600Y-36572475D01*
X10070269Y-36634683D01*
X10091117Y-36712488D01*
X10163588Y-36838011D01*
X10163590Y-36838013D01*
X10163591Y-36838015D01*
X10266085Y-36940509D01*
X10266086Y-36940510D01*
X10266088Y-36940511D01*
X10391611Y-37012982D01*
X10391612Y-37012982D01*
X10391615Y-37012984D01*
X10531625Y-37050500D01*
X10531628Y-37050500D01*
X10676572Y-37050500D01*
X10676575Y-37050500D01*
X10816585Y-37012984D01*
X10942115Y-36940509D01*
X10995805Y-36886819D01*
X11057128Y-36853334D01*
X11083486Y-36850500D01*
X20870030Y-36850500D01*
X20937069Y-36870185D01*
X20973132Y-36905609D01*
X21064373Y-37042162D01*
X21182837Y-37160626D01*
X21236994Y-37196812D01*
X21322137Y-37253703D01*
X21476918Y-37317816D01*
X21641228Y-37350499D01*
X21641232Y-37350500D01*
X21641233Y-37350500D01*
X22358768Y-37350500D01*
X22358769Y-37350499D01*
X22523082Y-37317816D01*
X22677863Y-37253703D01*
X22817162Y-37160626D01*
X22935626Y-37042162D01*
X23028703Y-36902863D01*
X23092816Y-36748082D01*
X23125500Y-36583767D01*
X23125500Y-36416233D01*
X23092816Y-36251918D01*
X23028703Y-36097137D01*
X22955123Y-35987017D01*
X22935626Y-35957837D01*
X22817162Y-35839373D01*
X22677860Y-35746295D01*
X22523082Y-35682184D01*
X22523074Y-35682182D01*
X22358771Y-35649500D01*
X22358767Y-35649500D01*
X21641233Y-35649500D01*
X21641228Y-35649500D01*
X21476925Y-35682182D01*
X21476917Y-35682184D01*
X21322139Y-35746295D01*
X21182837Y-35839373D01*
X21064373Y-35957837D01*
X20973132Y-36094391D01*
X20919520Y-36139196D01*
X20870030Y-36149500D01*
X11083486Y-36149500D01*
X11016447Y-36129815D01*
X10995805Y-36113181D01*
X10942117Y-36059493D01*
X10942111Y-36059488D01*
X10816588Y-35987017D01*
X10816589Y-35987017D01*
X10787867Y-35979321D01*
X10676575Y-35949500D01*
X10531625Y-35949500D01*
X10420333Y-35979321D01*
X10391611Y-35987017D01*
X10266088Y-36059488D01*
X10266082Y-36059493D01*
X10163593Y-36161982D01*
X10163588Y-36161988D01*
X10091117Y-36287511D01*
X10091116Y-36287515D01*
X10053600Y-36427525D01*
X600000Y-36427525D01*
X600000Y-32416228D01*
X20874500Y-32416228D01*
X20874500Y-32583771D01*
X20907182Y-32748074D01*
X20907184Y-32748082D01*
X20971295Y-32902860D01*
X21064373Y-33042162D01*
X21182837Y-33160626D01*
X21271262Y-33219709D01*
X21322137Y-33253703D01*
X21476918Y-33317816D01*
X21641228Y-33350499D01*
X21641232Y-33350500D01*
X21641233Y-33350500D01*
X22358768Y-33350500D01*
X22358769Y-33350499D01*
X22523082Y-33317816D01*
X22677863Y-33253703D01*
X22817162Y-33160626D01*
X22935626Y-33042162D01*
X23026868Y-32905608D01*
X23080480Y-32860804D01*
X23129970Y-32850500D01*
X63887256Y-32850500D01*
X63954295Y-32870185D01*
X63974937Y-32886819D01*
X65051712Y-33963594D01*
X65085197Y-34024917D01*
X65080213Y-34094609D01*
X65038341Y-34150542D01*
X64983429Y-34173748D01*
X64902302Y-34186597D01*
X64737552Y-34240128D01*
X64583211Y-34318768D01*
X64503256Y-34376859D01*
X64443072Y-34420586D01*
X64443070Y-34420588D01*
X64443069Y-34420588D01*
X64320588Y-34543069D01*
X64320588Y-34543070D01*
X64320586Y-34543072D01*
X64276859Y-34603256D01*
X64218768Y-34683211D01*
X64140128Y-34837552D01*
X64086597Y-35002302D01*
X64059500Y-35173389D01*
X64059500Y-35346610D01*
X64086597Y-35517697D01*
X64086597Y-35517699D01*
X64086598Y-35517701D01*
X64140127Y-35682445D01*
X64218768Y-35836788D01*
X64320586Y-35976928D01*
X64443072Y-36099414D01*
X64583212Y-36201232D01*
X64737555Y-36279873D01*
X64737559Y-36279874D01*
X64740604Y-36281136D01*
X64741585Y-36281926D01*
X64741896Y-36282085D01*
X64741862Y-36282150D01*
X64795010Y-36324973D01*
X64817080Y-36391265D01*
X64799805Y-36458966D01*
X64748671Y-36506580D01*
X64693159Y-36519700D01*
X63086841Y-36519700D01*
X63019802Y-36500015D01*
X62974047Y-36447211D01*
X62964103Y-36378053D01*
X62993128Y-36314497D01*
X63039396Y-36281136D01*
X63042435Y-36279876D01*
X63042445Y-36279873D01*
X63196788Y-36201232D01*
X63336928Y-36099414D01*
X63459414Y-35976928D01*
X63561232Y-35836788D01*
X63639873Y-35682445D01*
X63693402Y-35517701D01*
X63720500Y-35346611D01*
X63720500Y-35173389D01*
X63693402Y-35002299D01*
X63639873Y-34837555D01*
X63561232Y-34683212D01*
X63459414Y-34543072D01*
X63336928Y-34420586D01*
X63196788Y-34318768D01*
X63042445Y-34240127D01*
X62877701Y-34186598D01*
X62877699Y-34186597D01*
X62877698Y-34186597D01*
X62746271Y-34165781D01*
X62706611Y-34159500D01*
X62533389Y-34159500D01*
X62493728Y-34165781D01*
X62362302Y-34186597D01*
X62197552Y-34240128D01*
X62043211Y-34318768D01*
X61963256Y-34376859D01*
X61903072Y-34420586D01*
X61903070Y-34420588D01*
X61903069Y-34420588D01*
X61780588Y-34543069D01*
X61780588Y-34543070D01*
X61780586Y-34543072D01*
X61736859Y-34603256D01*
X61678768Y-34683211D01*
X61600128Y-34837552D01*
X61546597Y-35002302D01*
X61519500Y-35173389D01*
X61519500Y-35346610D01*
X61546597Y-35517697D01*
X61546597Y-35517699D01*
X61546598Y-35517701D01*
X61600127Y-35682445D01*
X61678768Y-35836788D01*
X61780586Y-35976928D01*
X61903072Y-36099414D01*
X62043212Y-36201232D01*
X62197555Y-36279873D01*
X62197559Y-36279874D01*
X62200604Y-36281136D01*
X62201585Y-36281926D01*
X62201896Y-36282085D01*
X62201862Y-36282150D01*
X62255010Y-36324973D01*
X62277080Y-36391265D01*
X62259805Y-36458966D01*
X62208671Y-36506580D01*
X62153159Y-36519700D01*
X60546841Y-36519700D01*
X60479802Y-36500015D01*
X60434047Y-36447211D01*
X60424103Y-36378053D01*
X60453128Y-36314497D01*
X60499396Y-36281136D01*
X60502435Y-36279876D01*
X60502445Y-36279873D01*
X60656788Y-36201232D01*
X60796928Y-36099414D01*
X60919414Y-35976928D01*
X61021232Y-35836788D01*
X61099873Y-35682445D01*
X61153402Y-35517701D01*
X61180500Y-35346611D01*
X61180500Y-35173389D01*
X61153402Y-35002299D01*
X61099873Y-34837555D01*
X61021232Y-34683212D01*
X60919414Y-34543072D01*
X60796928Y-34420586D01*
X60656788Y-34318768D01*
X60502445Y-34240127D01*
X60337701Y-34186598D01*
X60337699Y-34186597D01*
X60337698Y-34186597D01*
X60206271Y-34165781D01*
X60166611Y-34159500D01*
X59993389Y-34159500D01*
X59953728Y-34165781D01*
X59822302Y-34186597D01*
X59657552Y-34240128D01*
X59503211Y-34318768D01*
X59423256Y-34376859D01*
X59363072Y-34420586D01*
X59363070Y-34420588D01*
X59363069Y-34420588D01*
X59240588Y-34543069D01*
X59240588Y-34543070D01*
X59240586Y-34543072D01*
X59196859Y-34603256D01*
X59138768Y-34683211D01*
X59060128Y-34837552D01*
X59006597Y-35002302D01*
X58979500Y-35173389D01*
X58979500Y-35346610D01*
X59006597Y-35517697D01*
X59006597Y-35517699D01*
X59006598Y-35517701D01*
X59060127Y-35682445D01*
X59138768Y-35836788D01*
X59240586Y-35976928D01*
X59363072Y-36099414D01*
X59503212Y-36201232D01*
X59657555Y-36279873D01*
X59657559Y-36279874D01*
X59660604Y-36281136D01*
X59661585Y-36281926D01*
X59661896Y-36282085D01*
X59661862Y-36282150D01*
X59715010Y-36324973D01*
X59737080Y-36391265D01*
X59719805Y-36458966D01*
X59668671Y-36506580D01*
X59613159Y-36519700D01*
X58006841Y-36519700D01*
X57939802Y-36500015D01*
X57894047Y-36447211D01*
X57884103Y-36378053D01*
X57913128Y-36314497D01*
X57959396Y-36281136D01*
X57962435Y-36279876D01*
X57962445Y-36279873D01*
X58116788Y-36201232D01*
X58256928Y-36099414D01*
X58379414Y-35976928D01*
X58481232Y-35836788D01*
X58559873Y-35682445D01*
X58613402Y-35517701D01*
X58640500Y-35346611D01*
X58640500Y-35173389D01*
X58613402Y-35002299D01*
X58559873Y-34837555D01*
X58481232Y-34683212D01*
X58379414Y-34543072D01*
X58256928Y-34420586D01*
X58116788Y-34318768D01*
X57962445Y-34240127D01*
X57797701Y-34186598D01*
X57797699Y-34186597D01*
X57797698Y-34186597D01*
X57666271Y-34165781D01*
X57626611Y-34159500D01*
X57453389Y-34159500D01*
X57413728Y-34165781D01*
X57282302Y-34186597D01*
X57117552Y-34240128D01*
X56963211Y-34318768D01*
X56883256Y-34376859D01*
X56823072Y-34420586D01*
X56823070Y-34420588D01*
X56823069Y-34420588D01*
X56700588Y-34543069D01*
X56700588Y-34543070D01*
X56700586Y-34543072D01*
X56656859Y-34603256D01*
X56598768Y-34683211D01*
X56520128Y-34837552D01*
X56466597Y-35002302D01*
X56439500Y-35173389D01*
X56439500Y-35346610D01*
X56466597Y-35517697D01*
X56466597Y-35517699D01*
X56466598Y-35517701D01*
X56520127Y-35682445D01*
X56598768Y-35836788D01*
X56700586Y-35976928D01*
X56823072Y-36099414D01*
X56963212Y-36201232D01*
X57117555Y-36279873D01*
X57117559Y-36279874D01*
X57120604Y-36281136D01*
X57121585Y-36281926D01*
X57121896Y-36282085D01*
X57121862Y-36282150D01*
X57175010Y-36324973D01*
X57197080Y-36391265D01*
X57179805Y-36458966D01*
X57128671Y-36506580D01*
X57073159Y-36519700D01*
X55466841Y-36519700D01*
X55399802Y-36500015D01*
X55354047Y-36447211D01*
X55344103Y-36378053D01*
X55373128Y-36314497D01*
X55419396Y-36281136D01*
X55422435Y-36279876D01*
X55422445Y-36279873D01*
X55576788Y-36201232D01*
X55716928Y-36099414D01*
X55839414Y-35976928D01*
X55941232Y-35836788D01*
X56019873Y-35682445D01*
X56073402Y-35517701D01*
X56100500Y-35346611D01*
X56100500Y-35173389D01*
X56073402Y-35002299D01*
X56019873Y-34837555D01*
X55941232Y-34683212D01*
X55839414Y-34543072D01*
X55716928Y-34420586D01*
X55576788Y-34318768D01*
X55422445Y-34240127D01*
X55257701Y-34186598D01*
X55257699Y-34186597D01*
X55257698Y-34186597D01*
X55126271Y-34165781D01*
X55086611Y-34159500D01*
X54913389Y-34159500D01*
X54873728Y-34165781D01*
X54742302Y-34186597D01*
X54577552Y-34240128D01*
X54423211Y-34318768D01*
X54343256Y-34376859D01*
X54283072Y-34420586D01*
X54283070Y-34420588D01*
X54283069Y-34420588D01*
X54160588Y-34543069D01*
X54160588Y-34543070D01*
X54160586Y-34543072D01*
X54116859Y-34603256D01*
X54058768Y-34683211D01*
X53980128Y-34837552D01*
X53926597Y-35002302D01*
X53899500Y-35173389D01*
X53899500Y-35346610D01*
X53926597Y-35517697D01*
X53926597Y-35517699D01*
X53926598Y-35517701D01*
X53980127Y-35682445D01*
X54058768Y-35836788D01*
X54160586Y-35976928D01*
X54283072Y-36099414D01*
X54423212Y-36201232D01*
X54577555Y-36279873D01*
X54577559Y-36279874D01*
X54580604Y-36281136D01*
X54581585Y-36281926D01*
X54581896Y-36282085D01*
X54581862Y-36282150D01*
X54635010Y-36324973D01*
X54657080Y-36391265D01*
X54639805Y-36458966D01*
X54588671Y-36506580D01*
X54533159Y-36519700D01*
X39552744Y-36519700D01*
X39485705Y-36500015D01*
X39465063Y-36483381D01*
X37633013Y-34651331D01*
X37633008Y-34651327D01*
X37553090Y-34605187D01*
X37553089Y-34605186D01*
X37553088Y-34605186D01*
X37463944Y-34581300D01*
X37463943Y-34581300D01*
X34140208Y-34581300D01*
X34073169Y-34561615D01*
X34027414Y-34508811D01*
X34017470Y-34439653D01*
X34027532Y-34408971D01*
X34026372Y-34408491D01*
X34038180Y-34379983D01*
X34092816Y-34248082D01*
X34125500Y-34083767D01*
X34125500Y-33916233D01*
X34092816Y-33751918D01*
X34028703Y-33597137D01*
X33997537Y-33550494D01*
X33935626Y-33457837D01*
X33817162Y-33339373D01*
X33677860Y-33246295D01*
X33523082Y-33182184D01*
X33523074Y-33182182D01*
X33358771Y-33149500D01*
X33358767Y-33149500D01*
X32641233Y-33149500D01*
X32641228Y-33149500D01*
X32476925Y-33182182D01*
X32476917Y-33182184D01*
X32322139Y-33246295D01*
X32182837Y-33339373D01*
X32064373Y-33457837D01*
X31971295Y-33597139D01*
X31907184Y-33751917D01*
X31907182Y-33751925D01*
X31874500Y-33916228D01*
X31874500Y-34083771D01*
X31907182Y-34248074D01*
X31907184Y-34248082D01*
X31973628Y-34408491D01*
X31971351Y-34409434D01*
X31983393Y-34467235D01*
X31958401Y-34532482D01*
X31902100Y-34573859D01*
X31859792Y-34581300D01*
X23805043Y-34581300D01*
X23738004Y-34561615D01*
X23717362Y-34544981D01*
X23557707Y-34385326D01*
X23391912Y-34219530D01*
X23391911Y-34219529D01*
X23391908Y-34219527D01*
X23311990Y-34173387D01*
X23311989Y-34173386D01*
X23311988Y-34173386D01*
X23222844Y-34149500D01*
X23222843Y-34149500D01*
X23129970Y-34149500D01*
X23062931Y-34129815D01*
X23026868Y-34094391D01*
X22935626Y-33957837D01*
X22817162Y-33839373D01*
X22677860Y-33746295D01*
X22523082Y-33682184D01*
X22523074Y-33682182D01*
X22358771Y-33649500D01*
X22358767Y-33649500D01*
X21641233Y-33649500D01*
X21641228Y-33649500D01*
X21476925Y-33682182D01*
X21476917Y-33682184D01*
X21322139Y-33746295D01*
X21182837Y-33839373D01*
X21064373Y-33957837D01*
X20971295Y-34097139D01*
X20907184Y-34251917D01*
X20907182Y-34251925D01*
X20874500Y-34416228D01*
X20874500Y-34583771D01*
X20907182Y-34748074D01*
X20907184Y-34748082D01*
X20971295Y-34902860D01*
X21064373Y-35042162D01*
X21182837Y-35160626D01*
X21260122Y-35212266D01*
X21322137Y-35253703D01*
X21476918Y-35317816D01*
X21621682Y-35346611D01*
X21641228Y-35350499D01*
X21641232Y-35350500D01*
X21641233Y-35350500D01*
X22358768Y-35350500D01*
X22358769Y-35350499D01*
X22523082Y-35317816D01*
X22677863Y-35253703D01*
X22817162Y-35160626D01*
X22935626Y-35042162D01*
X22966861Y-34995414D01*
X23020472Y-34950611D01*
X23089797Y-34941902D01*
X23152825Y-34972057D01*
X23157632Y-34976614D01*
X23328031Y-35147012D01*
X23393288Y-35212269D01*
X23393291Y-35212270D01*
X23393294Y-35212273D01*
X23473206Y-35258411D01*
X23473207Y-35258411D01*
X23473212Y-35258414D01*
X23562356Y-35282300D01*
X31799370Y-35282300D01*
X31866409Y-35301985D01*
X31912164Y-35354789D01*
X31922108Y-35423947D01*
X31915552Y-35449633D01*
X31880908Y-35542517D01*
X31879205Y-35558363D01*
X31874501Y-35602123D01*
X31874500Y-35602135D01*
X31874500Y-36397870D01*
X31874501Y-36397876D01*
X31880908Y-36457482D01*
X31898135Y-36503671D01*
X31903118Y-36573363D01*
X31869633Y-36634683D01*
X30391137Y-38113181D01*
X30329814Y-38146666D01*
X30303456Y-38149500D01*
X23241977Y-38149500D01*
X23174938Y-38129815D01*
X23129183Y-38077011D01*
X23121733Y-38049865D01*
X23120876Y-38050068D01*
X23119092Y-38042520D01*
X23068797Y-37907671D01*
X23068793Y-37907664D01*
X22982547Y-37792455D01*
X22982544Y-37792452D01*
X22867335Y-37706206D01*
X22867328Y-37706202D01*
X22732482Y-37655908D01*
X22732483Y-37655908D01*
X22672883Y-37649501D01*
X22672881Y-37649500D01*
X22672873Y-37649500D01*
X22672864Y-37649500D01*
X21327129Y-37649500D01*
X21327123Y-37649501D01*
X21267516Y-37655908D01*
X21132671Y-37706202D01*
X21132664Y-37706206D01*
X21017455Y-37792452D01*
X21017452Y-37792455D01*
X20931206Y-37907664D01*
X20931202Y-37907671D01*
X20880908Y-38042517D01*
X20874501Y-38102116D01*
X20874500Y-38102135D01*
X20874500Y-38897870D01*
X20874501Y-38897876D01*
X20880908Y-38957483D01*
X20931202Y-39092328D01*
X20931206Y-39092335D01*
X21017452Y-39207544D01*
X21017455Y-39207547D01*
X21132664Y-39293793D01*
X21132671Y-39293797D01*
X21267517Y-39344091D01*
X21267516Y-39344091D01*
X21274444Y-39344835D01*
X21327127Y-39350500D01*
X22672872Y-39350499D01*
X22732483Y-39344091D01*
X22867331Y-39293796D01*
X22982546Y-39207546D01*
X23068796Y-39092331D01*
X23119091Y-38957483D01*
X23119091Y-38957481D01*
X23120874Y-38949938D01*
X23123146Y-38950474D01*
X23145429Y-38896688D01*
X23202823Y-38856843D01*
X23241976Y-38850500D01*
X30546142Y-38850500D01*
X30546144Y-38850500D01*
X30635288Y-38826614D01*
X30715212Y-38780470D01*
X32608863Y-36886817D01*
X32670186Y-36853333D01*
X32696544Y-36850499D01*
X33672871Y-36850499D01*
X33672872Y-36850499D01*
X33732483Y-36844091D01*
X33867331Y-36793796D01*
X33982546Y-36707546D01*
X34068796Y-36592331D01*
X34119091Y-36457483D01*
X34125500Y-36397873D01*
X34125499Y-35602128D01*
X34119091Y-35542517D01*
X34119091Y-35542516D01*
X34084448Y-35449633D01*
X34079464Y-35379941D01*
X34112949Y-35318618D01*
X34174273Y-35285134D01*
X34200630Y-35282300D01*
X37221256Y-35282300D01*
X37288295Y-35301985D01*
X37308936Y-35318618D01*
X39140988Y-37150670D01*
X39220912Y-37196814D01*
X39310056Y-37220700D01*
X39310057Y-37220700D01*
X39310058Y-37220700D01*
X81375942Y-37220700D01*
X81375944Y-37220700D01*
X81465088Y-37196814D01*
X81545012Y-37150670D01*
X82387031Y-36308649D01*
X82448352Y-36275166D01*
X82513029Y-36278401D01*
X82517547Y-36279869D01*
X82517555Y-36279873D01*
X82682299Y-36333402D01*
X82853389Y-36360500D01*
X82853390Y-36360500D01*
X83026610Y-36360500D01*
X83026611Y-36360500D01*
X83197701Y-36333402D01*
X83362445Y-36279873D01*
X83516788Y-36201232D01*
X83656928Y-36099414D01*
X83779414Y-35976928D01*
X83881232Y-35836788D01*
X83959873Y-35682445D01*
X84013402Y-35517701D01*
X84040500Y-35346611D01*
X84040500Y-35173389D01*
X84013402Y-35002299D01*
X83959873Y-34837555D01*
X83881232Y-34683212D01*
X83779414Y-34543072D01*
X83656928Y-34420586D01*
X83608390Y-34385321D01*
X84379500Y-34385321D01*
X84379500Y-36134678D01*
X84394032Y-36207735D01*
X84394033Y-36207739D01*
X84394034Y-36207740D01*
X84449399Y-36290601D01*
X84532260Y-36345966D01*
X84532264Y-36345967D01*
X84605321Y-36360499D01*
X84605324Y-36360500D01*
X84605326Y-36360500D01*
X86354676Y-36360500D01*
X86354677Y-36360499D01*
X86427740Y-36345966D01*
X86510601Y-36290601D01*
X86565966Y-36207740D01*
X86580500Y-36134674D01*
X86580500Y-35075321D01*
X106849500Y-35075321D01*
X106849500Y-36924678D01*
X106864032Y-36997735D01*
X106864033Y-36997739D01*
X106882405Y-37025235D01*
X106919399Y-37080601D01*
X106981614Y-37122171D01*
X107002260Y-37135966D01*
X107002264Y-37135967D01*
X107075321Y-37150499D01*
X107075324Y-37150500D01*
X107075326Y-37150500D01*
X108924676Y-37150500D01*
X108924677Y-37150499D01*
X108997740Y-37135966D01*
X109080601Y-37080601D01*
X109135966Y-36997740D01*
X109150500Y-36924674D01*
X109150500Y-36157131D01*
X109170185Y-36090092D01*
X109222989Y-36044337D01*
X109292147Y-36034393D01*
X109355703Y-36063418D01*
X109393477Y-36122196D01*
X109396973Y-36137733D01*
X109417829Y-36269410D01*
X109473787Y-36441636D01*
X109473788Y-36441639D01*
X109500961Y-36494967D01*
X109550569Y-36592328D01*
X109556006Y-36602997D01*
X109662441Y-36749494D01*
X109662445Y-36749499D01*
X109790500Y-36877554D01*
X109790505Y-36877558D01*
X109918287Y-36970396D01*
X109937006Y-36983996D01*
X110042484Y-37037740D01*
X110098360Y-37066211D01*
X110098363Y-37066212D01*
X110184476Y-37094191D01*
X110270591Y-37122171D01*
X110353429Y-37135291D01*
X110449449Y-37150500D01*
X110449454Y-37150500D01*
X110630551Y-37150500D01*
X110722310Y-37135966D01*
X110809409Y-37122171D01*
X110981639Y-37066211D01*
X111142994Y-36983996D01*
X111289501Y-36877553D01*
X111417553Y-36749501D01*
X111523996Y-36602994D01*
X111606211Y-36441639D01*
X111662171Y-36269409D01*
X111682795Y-36139196D01*
X111690500Y-36090551D01*
X111690500Y-35909448D01*
X111674019Y-35805397D01*
X111662171Y-35730591D01*
X111606211Y-35558361D01*
X111606211Y-35558360D01*
X111577740Y-35502484D01*
X111523996Y-35397006D01*
X111487382Y-35346611D01*
X111417558Y-35250505D01*
X111417554Y-35250500D01*
X111289499Y-35122445D01*
X111289494Y-35122441D01*
X111142997Y-35016006D01*
X111142996Y-35016005D01*
X111142994Y-35016004D01*
X111056744Y-34972057D01*
X110981639Y-34933788D01*
X110981636Y-34933787D01*
X110809410Y-34877829D01*
X110630551Y-34849500D01*
X110630546Y-34849500D01*
X110449454Y-34849500D01*
X110449449Y-34849500D01*
X110270589Y-34877829D01*
X110098363Y-34933787D01*
X110098360Y-34933788D01*
X109937002Y-35016006D01*
X109790505Y-35122441D01*
X109790500Y-35122445D01*
X109662445Y-35250500D01*
X109662441Y-35250505D01*
X109556006Y-35397002D01*
X109473788Y-35558360D01*
X109473787Y-35558363D01*
X109417829Y-35730589D01*
X109396973Y-35862266D01*
X109367044Y-35925401D01*
X109307732Y-35962332D01*
X109237869Y-35961334D01*
X109179637Y-35922724D01*
X109151523Y-35858760D01*
X109150500Y-35842868D01*
X109150500Y-35075323D01*
X109150499Y-35075321D01*
X109135967Y-35002264D01*
X109135966Y-35002260D01*
X109131393Y-34995416D01*
X109080601Y-34919399D01*
X108997740Y-34864034D01*
X108997739Y-34864033D01*
X108997735Y-34864032D01*
X108924677Y-34849500D01*
X108924674Y-34849500D01*
X107075326Y-34849500D01*
X107075323Y-34849500D01*
X107002264Y-34864032D01*
X107002260Y-34864033D01*
X106919399Y-34919399D01*
X106864033Y-35002260D01*
X106864032Y-35002264D01*
X106849500Y-35075321D01*
X86580500Y-35075321D01*
X86580500Y-34385326D01*
X86580500Y-34385323D01*
X86580499Y-34385321D01*
X86565967Y-34312264D01*
X86565966Y-34312260D01*
X86540716Y-34274470D01*
X86510601Y-34229399D01*
X86427740Y-34174034D01*
X86427739Y-34174033D01*
X86427735Y-34174032D01*
X86354677Y-34159500D01*
X86354674Y-34159500D01*
X84605326Y-34159500D01*
X84605323Y-34159500D01*
X84532264Y-34174032D01*
X84532260Y-34174033D01*
X84449399Y-34229399D01*
X84394033Y-34312260D01*
X84394032Y-34312264D01*
X84379500Y-34385321D01*
X83608390Y-34385321D01*
X83516788Y-34318768D01*
X83362445Y-34240127D01*
X83197701Y-34186598D01*
X83197699Y-34186597D01*
X83197698Y-34186597D01*
X83066271Y-34165781D01*
X83026611Y-34159500D01*
X82853389Y-34159500D01*
X82813728Y-34165781D01*
X82682302Y-34186597D01*
X82517552Y-34240128D01*
X82363211Y-34318768D01*
X82283256Y-34376859D01*
X82223072Y-34420586D01*
X82223070Y-34420588D01*
X82223069Y-34420588D01*
X82100588Y-34543069D01*
X82100588Y-34543070D01*
X82100586Y-34543072D01*
X82056859Y-34603256D01*
X81998768Y-34683211D01*
X81920128Y-34837552D01*
X81866597Y-35002302D01*
X81839500Y-35173389D01*
X81839500Y-35346610D01*
X81866597Y-35517698D01*
X81921597Y-35686970D01*
X81923592Y-35756811D01*
X81891347Y-35812969D01*
X81220937Y-36483381D01*
X81159614Y-36516866D01*
X81133256Y-36519700D01*
X80866841Y-36519700D01*
X80799802Y-36500015D01*
X80754047Y-36447211D01*
X80744103Y-36378053D01*
X80773128Y-36314497D01*
X80819396Y-36281136D01*
X80822435Y-36279876D01*
X80822445Y-36279873D01*
X80976788Y-36201232D01*
X81116928Y-36099414D01*
X81239414Y-35976928D01*
X81341232Y-35836788D01*
X81419873Y-35682445D01*
X81473402Y-35517701D01*
X81500500Y-35346611D01*
X81500500Y-35173389D01*
X81473402Y-35002299D01*
X81419873Y-34837555D01*
X81341232Y-34683212D01*
X81239414Y-34543072D01*
X81116928Y-34420586D01*
X80976788Y-34318768D01*
X80822445Y-34240127D01*
X80657701Y-34186598D01*
X80657699Y-34186597D01*
X80657698Y-34186597D01*
X80526271Y-34165781D01*
X80486611Y-34159500D01*
X80313389Y-34159500D01*
X80273728Y-34165781D01*
X80142302Y-34186597D01*
X79977552Y-34240128D01*
X79823211Y-34318768D01*
X79743256Y-34376859D01*
X79683072Y-34420586D01*
X79683070Y-34420588D01*
X79683069Y-34420588D01*
X79560588Y-34543069D01*
X79560588Y-34543070D01*
X79560586Y-34543072D01*
X79516859Y-34603256D01*
X79458768Y-34683211D01*
X79380128Y-34837552D01*
X79326597Y-35002302D01*
X79299500Y-35173389D01*
X79299500Y-35346610D01*
X79326597Y-35517698D01*
X79381597Y-35686970D01*
X79383592Y-35756811D01*
X79351347Y-35812969D01*
X79090235Y-36074082D01*
X79028915Y-36107566D01*
X79002556Y-36110400D01*
X78845805Y-36110400D01*
X78778766Y-36090715D01*
X78733011Y-36037911D01*
X78723067Y-35968753D01*
X78745487Y-35913514D01*
X78754425Y-35901212D01*
X78801232Y-35836788D01*
X78879873Y-35682445D01*
X78933402Y-35517701D01*
X78960500Y-35346611D01*
X78960500Y-35173389D01*
X78933402Y-35002299D01*
X78879873Y-34837555D01*
X78801232Y-34683212D01*
X78699414Y-34543072D01*
X78576928Y-34420586D01*
X78436788Y-34318768D01*
X78282445Y-34240127D01*
X78117701Y-34186598D01*
X78117699Y-34186597D01*
X78117698Y-34186597D01*
X77986271Y-34165781D01*
X77946611Y-34159500D01*
X77773389Y-34159500D01*
X77733728Y-34165781D01*
X77602302Y-34186597D01*
X77437552Y-34240128D01*
X77283211Y-34318768D01*
X77203256Y-34376859D01*
X77143072Y-34420586D01*
X77143070Y-34420588D01*
X77143069Y-34420588D01*
X77020588Y-34543069D01*
X77020588Y-34543070D01*
X77020586Y-34543072D01*
X76976859Y-34603256D01*
X76918768Y-34683211D01*
X76837966Y-34841795D01*
X76789991Y-34892591D01*
X76727481Y-34909500D01*
X76452519Y-34909500D01*
X76385480Y-34889815D01*
X76342034Y-34841795D01*
X76261231Y-34683211D01*
X76159414Y-34543072D01*
X76036928Y-34420586D01*
X75896788Y-34318768D01*
X75742445Y-34240127D01*
X75577701Y-34186598D01*
X75577699Y-34186597D01*
X75577698Y-34186597D01*
X75446271Y-34165781D01*
X75406611Y-34159500D01*
X75233389Y-34159500D01*
X75193728Y-34165781D01*
X75062302Y-34186597D01*
X74897552Y-34240128D01*
X74743211Y-34318768D01*
X74663256Y-34376859D01*
X74603072Y-34420586D01*
X74603070Y-34420588D01*
X74603069Y-34420588D01*
X74480588Y-34543069D01*
X74480588Y-34543070D01*
X74480586Y-34543072D01*
X74436859Y-34603256D01*
X74378768Y-34683211D01*
X74300128Y-34837552D01*
X74246597Y-35002302D01*
X74219500Y-35173389D01*
X74219500Y-35346610D01*
X74246597Y-35517697D01*
X74246597Y-35517699D01*
X74246598Y-35517701D01*
X74300042Y-35682184D01*
X74300128Y-35682447D01*
X74378768Y-35836788D01*
X74434513Y-35913514D01*
X74457993Y-35979321D01*
X74442168Y-36047375D01*
X74392062Y-36096070D01*
X74334195Y-36110400D01*
X73765805Y-36110400D01*
X73698766Y-36090715D01*
X73653011Y-36037911D01*
X73643067Y-35968753D01*
X73665487Y-35913514D01*
X73674425Y-35901212D01*
X73721232Y-35836788D01*
X73799873Y-35682445D01*
X73853402Y-35517701D01*
X73880500Y-35346611D01*
X73880500Y-35173389D01*
X73853402Y-35002299D01*
X73799873Y-34837555D01*
X73721232Y-34683212D01*
X73619414Y-34543072D01*
X73496928Y-34420586D01*
X73356788Y-34318768D01*
X73202445Y-34240127D01*
X73037701Y-34186598D01*
X73037699Y-34186597D01*
X73037698Y-34186597D01*
X72906271Y-34165781D01*
X72866611Y-34159500D01*
X72693389Y-34159500D01*
X72661192Y-34164599D01*
X72522301Y-34186597D01*
X72353028Y-34241597D01*
X72283186Y-34243592D01*
X72227029Y-34211347D01*
X69917259Y-31901577D01*
X119749500Y-31901577D01*
X119749500Y-32098422D01*
X119780290Y-32292826D01*
X119841117Y-32480029D01*
X119930476Y-32655405D01*
X120046172Y-32814646D01*
X120185354Y-32953828D01*
X120344595Y-33069524D01*
X120427455Y-33111743D01*
X120519970Y-33158882D01*
X120519972Y-33158882D01*
X120519975Y-33158884D01*
X120591685Y-33182184D01*
X120707173Y-33219709D01*
X120901578Y-33250500D01*
X120901583Y-33250500D01*
X121098422Y-33250500D01*
X121292826Y-33219709D01*
X121480025Y-33158884D01*
X121655405Y-33069524D01*
X121814646Y-32953828D01*
X121953828Y-32814646D01*
X122069524Y-32655405D01*
X122158884Y-32480025D01*
X122219709Y-32292826D01*
X122226188Y-32251917D01*
X122250500Y-32098422D01*
X122250500Y-31901577D01*
X122219709Y-31707173D01*
X122158882Y-31519970D01*
X122069523Y-31344594D01*
X122038129Y-31301384D01*
X121953828Y-31185354D01*
X121814646Y-31046172D01*
X121655405Y-30930476D01*
X121480029Y-30841117D01*
X121292826Y-30780290D01*
X121098422Y-30749500D01*
X121098417Y-30749500D01*
X120901583Y-30749500D01*
X120901578Y-30749500D01*
X120707173Y-30780290D01*
X120519970Y-30841117D01*
X120344594Y-30930476D01*
X120253741Y-30996485D01*
X120185354Y-31046172D01*
X120185352Y-31046174D01*
X120185351Y-31046174D01*
X120046174Y-31185351D01*
X120046174Y-31185352D01*
X120046172Y-31185354D01*
X119996485Y-31253741D01*
X119930476Y-31344594D01*
X119841117Y-31519970D01*
X119780290Y-31707173D01*
X119749500Y-31901577D01*
X69917259Y-31901577D01*
X66412212Y-28396530D01*
X108949500Y-28396530D01*
X108949500Y-28603469D01*
X108989868Y-28806412D01*
X108989870Y-28806420D01*
X109069058Y-28997596D01*
X109184024Y-29169657D01*
X109330342Y-29315975D01*
X109330345Y-29315977D01*
X109502402Y-29430941D01*
X109693580Y-29510130D01*
X109896530Y-29550499D01*
X109896534Y-29550500D01*
X109896535Y-29550500D01*
X110103466Y-29550500D01*
X110103467Y-29550499D01*
X110306420Y-29510130D01*
X110497598Y-29430941D01*
X110669655Y-29315977D01*
X110815977Y-29169655D01*
X110930941Y-28997598D01*
X111010130Y-28806420D01*
X111050500Y-28603465D01*
X111050500Y-28396535D01*
X111010130Y-28193580D01*
X110930941Y-28002402D01*
X110815977Y-27830345D01*
X110815975Y-27830342D01*
X110669657Y-27684024D01*
X110552992Y-27606072D01*
X110497598Y-27569059D01*
X110306420Y-27489870D01*
X110306412Y-27489868D01*
X110103469Y-27449500D01*
X110103465Y-27449500D01*
X109896535Y-27449500D01*
X109896530Y-27449500D01*
X109693587Y-27489868D01*
X109693579Y-27489870D01*
X109502403Y-27569058D01*
X109330342Y-27684024D01*
X109184024Y-27830342D01*
X109069058Y-28002403D01*
X108989870Y-28193579D01*
X108989868Y-28193587D01*
X108949500Y-28396530D01*
X66412212Y-28396530D01*
X63618207Y-25602525D01*
X74272000Y-25602525D01*
X74272000Y-25747475D01*
X74309516Y-25887485D01*
X74309517Y-25887488D01*
X74381988Y-26013011D01*
X74381990Y-26013013D01*
X74381991Y-26013015D01*
X74484485Y-26115509D01*
X74484486Y-26115510D01*
X74484488Y-26115511D01*
X74610011Y-26187982D01*
X74610012Y-26187982D01*
X74610015Y-26187984D01*
X74750025Y-26225500D01*
X74750028Y-26225500D01*
X74894972Y-26225500D01*
X74894975Y-26225500D01*
X75034985Y-26187984D01*
X75160515Y-26115509D01*
X75263009Y-26013015D01*
X75335484Y-25887485D01*
X75373000Y-25747475D01*
X75373000Y-25602525D01*
X75335484Y-25462515D01*
X75272129Y-25352782D01*
X75263011Y-25336988D01*
X75263006Y-25336982D01*
X75160517Y-25234493D01*
X75160511Y-25234488D01*
X75034988Y-25162017D01*
X75034989Y-25162017D01*
X75023506Y-25158940D01*
X74894975Y-25124500D01*
X74750025Y-25124500D01*
X74621493Y-25158940D01*
X74610011Y-25162017D01*
X74484488Y-25234488D01*
X74484482Y-25234493D01*
X74381993Y-25336982D01*
X74381988Y-25336988D01*
X74309517Y-25462511D01*
X74309516Y-25462515D01*
X74272000Y-25602525D01*
X63618207Y-25602525D01*
X62080307Y-24064625D01*
X63909600Y-24064625D01*
X63909600Y-24209575D01*
X63947116Y-24349585D01*
X63947117Y-24349588D01*
X64019588Y-24475111D01*
X64019590Y-24475113D01*
X64019591Y-24475115D01*
X64122085Y-24577609D01*
X64122086Y-24577610D01*
X64122088Y-24577611D01*
X64247611Y-24650082D01*
X64247612Y-24650082D01*
X64247615Y-24650084D01*
X64387625Y-24687600D01*
X64387628Y-24687600D01*
X64532572Y-24687600D01*
X64532575Y-24687600D01*
X64672585Y-24650084D01*
X64798115Y-24577609D01*
X64900609Y-24475115D01*
X64973084Y-24349585D01*
X64980174Y-24323125D01*
X96757800Y-24323125D01*
X96757800Y-24468075D01*
X96795316Y-24608085D01*
X96795317Y-24608088D01*
X96867788Y-24733611D01*
X96867790Y-24733613D01*
X96867791Y-24733615D01*
X96970285Y-24836109D01*
X96970286Y-24836110D01*
X96970288Y-24836111D01*
X97095811Y-24908582D01*
X97095812Y-24908582D01*
X97095815Y-24908584D01*
X97235825Y-24946100D01*
X97235828Y-24946100D01*
X97380772Y-24946100D01*
X97380775Y-24946100D01*
X97520785Y-24908584D01*
X97646315Y-24836109D01*
X97748809Y-24733615D01*
X97821284Y-24608085D01*
X97858800Y-24468075D01*
X97858800Y-24323125D01*
X97821284Y-24183115D01*
X97815379Y-24172888D01*
X97748811Y-24057588D01*
X97748806Y-24057582D01*
X97646317Y-23955093D01*
X97646311Y-23955088D01*
X97520788Y-23882617D01*
X97520789Y-23882617D01*
X97509306Y-23879540D01*
X97380775Y-23845100D01*
X97235825Y-23845100D01*
X97107293Y-23879540D01*
X97095811Y-23882617D01*
X96970288Y-23955088D01*
X96970282Y-23955093D01*
X96867793Y-24057582D01*
X96867788Y-24057588D01*
X96795317Y-24183111D01*
X96795316Y-24183115D01*
X96757800Y-24323125D01*
X64980174Y-24323125D01*
X65010600Y-24209575D01*
X65010600Y-24125519D01*
X65011661Y-24117460D01*
X65022639Y-24092642D01*
X65030285Y-24066605D01*
X65038870Y-24055950D01*
X65039927Y-24053563D01*
X65041779Y-24052341D01*
X65046919Y-24045963D01*
X66206063Y-22886819D01*
X66267386Y-22853334D01*
X66293744Y-22850500D01*
X94022214Y-22850500D01*
X94089253Y-22870185D01*
X94109895Y-22886819D01*
X94163585Y-22940509D01*
X94163586Y-22940510D01*
X94163588Y-22940511D01*
X94289111Y-23012982D01*
X94289112Y-23012982D01*
X94289115Y-23012984D01*
X94429125Y-23050500D01*
X94429128Y-23050500D01*
X94574072Y-23050500D01*
X94574075Y-23050500D01*
X94714085Y-23012984D01*
X94839615Y-22940509D01*
X94942109Y-22838015D01*
X95014584Y-22712485D01*
X95052100Y-22572475D01*
X95052100Y-22427525D01*
X95014584Y-22287515D01*
X94986862Y-22239500D01*
X94942111Y-22161988D01*
X94942106Y-22161982D01*
X94839617Y-22059493D01*
X94839611Y-22059488D01*
X94714088Y-21987017D01*
X94714089Y-21987017D01*
X94702606Y-21983940D01*
X94574075Y-21949500D01*
X94429125Y-21949500D01*
X94300593Y-21983940D01*
X94289111Y-21987017D01*
X94163588Y-22059488D01*
X94163582Y-22059493D01*
X94109895Y-22113181D01*
X94048572Y-22146666D01*
X94022214Y-22149500D01*
X66051056Y-22149500D01*
X65961912Y-22173386D01*
X65961909Y-22173387D01*
X65881991Y-22219527D01*
X65881986Y-22219531D01*
X64551237Y-23550281D01*
X64489914Y-23583766D01*
X64463556Y-23586600D01*
X64387625Y-23586600D01*
X64259093Y-23621040D01*
X64247611Y-23624117D01*
X64122088Y-23696588D01*
X64122082Y-23696593D01*
X64019593Y-23799082D01*
X64019588Y-23799088D01*
X63947117Y-23924611D01*
X63947116Y-23924615D01*
X63909600Y-24064625D01*
X62080307Y-24064625D01*
X59645907Y-21630225D01*
X60973900Y-21630225D01*
X60973900Y-21775175D01*
X61007745Y-21901485D01*
X61011417Y-21915188D01*
X61083888Y-22040711D01*
X61083890Y-22040713D01*
X61083891Y-22040715D01*
X61186385Y-22143209D01*
X61186386Y-22143210D01*
X61186388Y-22143211D01*
X61311911Y-22215682D01*
X61311912Y-22215682D01*
X61311915Y-22215684D01*
X61451925Y-22253200D01*
X61451928Y-22253200D01*
X61596872Y-22253200D01*
X61596875Y-22253200D01*
X61736885Y-22215684D01*
X61862415Y-22143209D01*
X61964909Y-22040715D01*
X62037384Y-21915185D01*
X62074900Y-21775175D01*
X62074900Y-21630225D01*
X62037384Y-21490215D01*
X62029474Y-21476515D01*
X61964911Y-21364688D01*
X61964906Y-21364682D01*
X61862417Y-21262193D01*
X61862415Y-21262191D01*
X61862412Y-21262189D01*
X61862408Y-21262186D01*
X61853053Y-21256785D01*
X61853052Y-21256785D01*
X61736888Y-21189717D01*
X61736889Y-21189717D01*
X61685756Y-21176016D01*
X61616748Y-21157525D01*
X98911100Y-21157525D01*
X98911100Y-21302475D01*
X98948616Y-21442485D01*
X98948617Y-21442488D01*
X99021088Y-21568011D01*
X99021090Y-21568013D01*
X99021091Y-21568015D01*
X99123585Y-21670509D01*
X99123586Y-21670510D01*
X99123588Y-21670511D01*
X99249111Y-21742982D01*
X99249112Y-21742982D01*
X99249115Y-21742984D01*
X99389125Y-21780500D01*
X99389128Y-21780500D01*
X99534072Y-21780500D01*
X99534075Y-21780500D01*
X99674085Y-21742984D01*
X99799615Y-21670509D01*
X99902109Y-21568015D01*
X99974584Y-21442485D01*
X100012100Y-21302475D01*
X100012100Y-21157525D01*
X99974584Y-21017515D01*
X99904988Y-20896972D01*
X99902111Y-20891988D01*
X99902106Y-20891982D01*
X99799617Y-20789493D01*
X99799611Y-20789488D01*
X99674088Y-20717017D01*
X99674089Y-20717017D01*
X99662606Y-20713940D01*
X99534075Y-20679500D01*
X99389125Y-20679500D01*
X99260593Y-20713940D01*
X99249111Y-20717017D01*
X99123588Y-20789488D01*
X99123582Y-20789493D01*
X99021093Y-20891982D01*
X99021088Y-20891988D01*
X98948617Y-21017511D01*
X98948616Y-21017515D01*
X98911100Y-21157525D01*
X61616748Y-21157525D01*
X61596875Y-21152200D01*
X61451925Y-21152200D01*
X61363044Y-21176016D01*
X61311911Y-21189717D01*
X61186388Y-21262188D01*
X61186382Y-21262193D01*
X61083893Y-21364682D01*
X61083888Y-21364688D01*
X61011417Y-21490211D01*
X61011416Y-21490215D01*
X60973900Y-21630225D01*
X59645907Y-21630225D01*
X58559713Y-20544031D01*
X58559708Y-20544027D01*
X58479790Y-20497887D01*
X58479789Y-20497886D01*
X58479788Y-20497886D01*
X58390644Y-20474000D01*
X58390643Y-20474000D01*
X21989186Y-20474000D01*
X21922147Y-20454315D01*
X21901505Y-20437681D01*
X21847817Y-20383993D01*
X21847811Y-20383988D01*
X21722288Y-20311517D01*
X21722289Y-20311517D01*
X21710806Y-20308440D01*
X21582275Y-20274000D01*
X21437325Y-20274000D01*
X21308793Y-20308440D01*
X21297311Y-20311517D01*
X21171788Y-20383988D01*
X21171782Y-20383993D01*
X21069293Y-20486482D01*
X21069288Y-20486488D01*
X20996817Y-20612011D01*
X20996816Y-20612015D01*
X20959300Y-20752025D01*
X20959300Y-20896975D01*
X20991598Y-21017511D01*
X20996817Y-21036988D01*
X21069288Y-21162511D01*
X21069290Y-21162513D01*
X21069291Y-21162515D01*
X21171785Y-21265009D01*
X21171786Y-21265010D01*
X21171788Y-21265011D01*
X21297311Y-21337482D01*
X21297312Y-21337482D01*
X21297315Y-21337484D01*
X21437325Y-21375000D01*
X21437328Y-21375000D01*
X21582272Y-21375000D01*
X21582275Y-21375000D01*
X21722285Y-21337484D01*
X21847815Y-21265009D01*
X21901505Y-21211319D01*
X21962828Y-21177834D01*
X21989186Y-21175000D01*
X25881322Y-21175000D01*
X25948361Y-21194685D01*
X25994116Y-21247489D01*
X26004060Y-21316647D01*
X25988710Y-21360997D01*
X25922016Y-21476515D01*
X25884500Y-21616525D01*
X25884500Y-21761475D01*
X25922016Y-21901485D01*
X25922017Y-21901488D01*
X25994488Y-22027011D01*
X25994490Y-22027013D01*
X25994491Y-22027015D01*
X26096985Y-22129509D01*
X26096986Y-22129510D01*
X26096988Y-22129511D01*
X26222511Y-22201982D01*
X26222512Y-22201982D01*
X26222515Y-22201984D01*
X26362525Y-22239500D01*
X26362528Y-22239500D01*
X26507472Y-22239500D01*
X26507475Y-22239500D01*
X26647485Y-22201984D01*
X26773015Y-22129509D01*
X26875509Y-22027015D01*
X26947984Y-21901485D01*
X26985500Y-21761475D01*
X26985500Y-21616525D01*
X26947984Y-21476515D01*
X26881290Y-21360998D01*
X26864818Y-21293101D01*
X26887670Y-21227074D01*
X26942591Y-21183883D01*
X26988678Y-21175000D01*
X58147956Y-21175000D01*
X58214995Y-21194685D01*
X58235637Y-21211319D01*
X60222537Y-23198219D01*
X60256022Y-23259542D01*
X60251038Y-23329234D01*
X60209166Y-23385167D01*
X60143702Y-23409584D01*
X60134856Y-23409900D01*
X60053225Y-23409900D01*
X59924693Y-23444340D01*
X59913211Y-23447417D01*
X59787688Y-23519888D01*
X59787682Y-23519893D01*
X59685193Y-23622382D01*
X59685188Y-23622388D01*
X59612717Y-23747911D01*
X59612716Y-23747915D01*
X59575200Y-23887925D01*
X59575200Y-24032875D01*
X59597865Y-24117460D01*
X59612717Y-24172888D01*
X59685188Y-24298411D01*
X59685190Y-24298413D01*
X59685191Y-24298415D01*
X59787685Y-24400909D01*
X59787686Y-24400910D01*
X59787688Y-24400911D01*
X59913211Y-24473382D01*
X59913212Y-24473382D01*
X59913215Y-24473384D01*
X60053225Y-24510900D01*
X60053228Y-24510900D01*
X60198172Y-24510900D01*
X60198175Y-24510900D01*
X60338185Y-24473384D01*
X60463715Y-24400909D01*
X60566209Y-24298415D01*
X60638684Y-24172885D01*
X60676200Y-24032875D01*
X60676200Y-23951244D01*
X60695885Y-23884205D01*
X60748689Y-23838450D01*
X60817847Y-23828506D01*
X60881403Y-23857531D01*
X60887881Y-23863563D01*
X71731347Y-34707029D01*
X71764832Y-34768352D01*
X71761597Y-34833028D01*
X71706597Y-35002301D01*
X71679500Y-35173389D01*
X71679500Y-35346610D01*
X71706597Y-35517697D01*
X71706597Y-35517699D01*
X71706598Y-35517701D01*
X71760042Y-35682184D01*
X71760128Y-35682447D01*
X71838768Y-35836788D01*
X71894513Y-35913514D01*
X71917993Y-35979321D01*
X71902168Y-36047375D01*
X71852062Y-36096070D01*
X71794195Y-36110400D01*
X71225805Y-36110400D01*
X71158766Y-36090715D01*
X71113011Y-36037911D01*
X71103067Y-35968753D01*
X71125487Y-35913514D01*
X71134425Y-35901212D01*
X71181232Y-35836788D01*
X71259873Y-35682445D01*
X71313402Y-35517701D01*
X71340500Y-35346611D01*
X71340500Y-35173389D01*
X71313402Y-35002299D01*
X71259873Y-34837555D01*
X71181232Y-34683212D01*
X71079414Y-34543072D01*
X70956928Y-34420586D01*
X70816788Y-34318768D01*
X70662445Y-34240127D01*
X70497701Y-34186598D01*
X70497699Y-34186597D01*
X70497698Y-34186597D01*
X70366271Y-34165781D01*
X70326611Y-34159500D01*
X70153389Y-34159500D01*
X70113728Y-34165781D01*
X69982302Y-34186597D01*
X69817552Y-34240128D01*
X69663211Y-34318768D01*
X69583256Y-34376859D01*
X69523072Y-34420586D01*
X69523070Y-34420588D01*
X69523069Y-34420588D01*
X69400588Y-34543069D01*
X69400588Y-34543070D01*
X69400586Y-34543072D01*
X69356859Y-34603256D01*
X69298768Y-34683211D01*
X69220128Y-34837552D01*
X69166597Y-35002302D01*
X69139500Y-35173389D01*
X69139500Y-35346610D01*
X69166597Y-35517697D01*
X69166597Y-35517699D01*
X69166598Y-35517701D01*
X69220042Y-35682184D01*
X69220128Y-35682447D01*
X69298768Y-35836788D01*
X69354513Y-35913514D01*
X69377993Y-35979321D01*
X69362168Y-36047375D01*
X69312062Y-36096070D01*
X69254195Y-36110400D01*
X68685805Y-36110400D01*
X68618766Y-36090715D01*
X68573011Y-36037911D01*
X68563067Y-35968753D01*
X68585487Y-35913514D01*
X68594425Y-35901212D01*
X68641232Y-35836788D01*
X68719873Y-35682445D01*
X68773402Y-35517701D01*
X68800500Y-35346611D01*
X68800500Y-35173389D01*
X68773402Y-35002299D01*
X68719873Y-34837555D01*
X68641232Y-34683212D01*
X68539414Y-34543072D01*
X68416928Y-34420586D01*
X68276788Y-34318768D01*
X68122445Y-34240127D01*
X67957701Y-34186598D01*
X67957699Y-34186597D01*
X67957698Y-34186597D01*
X67826271Y-34165781D01*
X67786611Y-34159500D01*
X67613389Y-34159500D01*
X67581192Y-34164599D01*
X67442301Y-34186597D01*
X67273028Y-34241597D01*
X67203186Y-34243592D01*
X67147029Y-34211347D01*
X57495013Y-24559331D01*
X57495008Y-24559327D01*
X57415090Y-24513187D01*
X57415089Y-24513186D01*
X57415088Y-24513186D01*
X57325944Y-24489300D01*
X57325943Y-24489300D01*
X26966486Y-24489300D01*
X26899447Y-24469615D01*
X26878805Y-24452981D01*
X26825117Y-24399293D01*
X26825111Y-24399288D01*
X26699588Y-24326817D01*
X26699589Y-24326817D01*
X26685810Y-24323125D01*
X26559575Y-24289300D01*
X26414625Y-24289300D01*
X26288390Y-24323125D01*
X26274611Y-24326817D01*
X26149088Y-24399288D01*
X26149082Y-24399293D01*
X26046593Y-24501782D01*
X26046588Y-24501788D01*
X25974117Y-24627311D01*
X25974116Y-24627315D01*
X25936600Y-24767325D01*
X25936600Y-24912275D01*
X25974116Y-25052285D01*
X25974117Y-25052288D01*
X26046588Y-25177811D01*
X26046590Y-25177813D01*
X26046591Y-25177815D01*
X26149085Y-25280309D01*
X26149086Y-25280310D01*
X26149088Y-25280311D01*
X26274611Y-25352782D01*
X26274612Y-25352782D01*
X26274615Y-25352784D01*
X26414625Y-25390300D01*
X26414628Y-25390300D01*
X26559572Y-25390300D01*
X26559575Y-25390300D01*
X26699585Y-25352784D01*
X26825115Y-25280309D01*
X26878805Y-25226619D01*
X26940128Y-25193134D01*
X26966486Y-25190300D01*
X57083256Y-25190300D01*
X57150295Y-25209985D01*
X57170937Y-25226619D01*
X63882137Y-31937819D01*
X63915622Y-31999142D01*
X63910638Y-32068834D01*
X63868766Y-32124767D01*
X63803302Y-32149184D01*
X63794456Y-32149500D01*
X51957929Y-32149500D01*
X51890890Y-32129815D01*
X51845135Y-32077011D01*
X51835191Y-32007853D01*
X51864216Y-31944297D01*
X51902725Y-31916527D01*
X51901967Y-31915109D01*
X51907330Y-31912241D01*
X51907337Y-31912239D01*
X52034352Y-31827370D01*
X52142370Y-31719352D01*
X52227239Y-31592337D01*
X52285698Y-31451205D01*
X52315500Y-31301380D01*
X52315500Y-30698620D01*
X52285698Y-30548795D01*
X52227239Y-30407663D01*
X52227238Y-30407662D01*
X52227235Y-30407656D01*
X52142370Y-30280648D01*
X52142367Y-30280644D01*
X52034355Y-30172632D01*
X52034351Y-30172629D01*
X51945609Y-30113333D01*
X51900804Y-30059721D01*
X51890500Y-30010231D01*
X51890500Y-29868358D01*
X51890500Y-29868356D01*
X51866614Y-29779212D01*
X51866611Y-29779206D01*
X51820473Y-29699294D01*
X51820470Y-29699291D01*
X51820469Y-29699288D01*
X51755212Y-29634031D01*
X48772612Y-26651430D01*
X48772611Y-26651429D01*
X48772608Y-26651427D01*
X48692690Y-26605287D01*
X48692689Y-26605286D01*
X48692688Y-26605286D01*
X48692685Y-26605285D01*
X48692682Y-26605284D01*
X48688636Y-26604199D01*
X48688636Y-26604200D01*
X48646089Y-26592800D01*
X48603544Y-26581400D01*
X48603543Y-26581400D01*
X39622147Y-26581400D01*
X39560146Y-26564787D01*
X39559116Y-26564192D01*
X39559115Y-26564191D01*
X39433585Y-26491716D01*
X39293575Y-26454200D01*
X39148625Y-26454200D01*
X39020093Y-26488640D01*
X39008611Y-26491717D01*
X38883088Y-26564188D01*
X38883082Y-26564193D01*
X38780593Y-26666682D01*
X38780588Y-26666688D01*
X38708117Y-26792211D01*
X38708116Y-26792215D01*
X38670600Y-26932225D01*
X38670600Y-27077175D01*
X38682875Y-27122985D01*
X38708117Y-27217188D01*
X38780588Y-27342711D01*
X38780590Y-27342713D01*
X38780591Y-27342715D01*
X38883085Y-27445209D01*
X38883086Y-27445210D01*
X38883088Y-27445211D01*
X39008611Y-27517682D01*
X39008612Y-27517682D01*
X39008615Y-27517684D01*
X39148625Y-27555200D01*
X39148628Y-27555200D01*
X39293572Y-27555200D01*
X39293575Y-27555200D01*
X39433585Y-27517684D01*
X39559115Y-27445209D01*
X39661609Y-27342715D01*
X39661613Y-27342707D01*
X39666557Y-27336266D01*
X39668003Y-27337375D01*
X39711201Y-27296185D01*
X39768023Y-27282400D01*
X42993790Y-27282400D01*
X43060829Y-27302085D01*
X43106584Y-27354889D01*
X43116528Y-27424047D01*
X43113564Y-27438495D01*
X43107500Y-27461123D01*
X43107500Y-27461125D01*
X43107500Y-27606075D01*
X43128387Y-27684024D01*
X43145017Y-27746088D01*
X43217488Y-27871611D01*
X43217490Y-27871613D01*
X43217491Y-27871615D01*
X43319985Y-27974109D01*
X43319986Y-27974110D01*
X43319988Y-27974111D01*
X43445511Y-28046582D01*
X43445512Y-28046582D01*
X43445515Y-28046584D01*
X43585525Y-28084100D01*
X43585528Y-28084100D01*
X43730472Y-28084100D01*
X43730475Y-28084100D01*
X43870485Y-28046584D01*
X43996015Y-27974109D01*
X44098509Y-27871615D01*
X44170984Y-27746085D01*
X44208500Y-27606075D01*
X44208500Y-27461125D01*
X44202436Y-27438494D01*
X44204098Y-27368645D01*
X44243259Y-27310782D01*
X44307487Y-27283277D01*
X44322210Y-27282400D01*
X47664531Y-27282400D01*
X47731570Y-27302085D01*
X47777325Y-27354889D01*
X47787269Y-27424047D01*
X47784306Y-27438488D01*
X47782506Y-27445209D01*
X47773900Y-27477323D01*
X47773900Y-27477325D01*
X47773900Y-27622275D01*
X47807075Y-27746085D01*
X47811417Y-27762288D01*
X47883888Y-27887811D01*
X47883890Y-27887813D01*
X47883891Y-27887815D01*
X47986385Y-27990309D01*
X47986386Y-27990310D01*
X47986388Y-27990311D01*
X48111911Y-28062782D01*
X48111912Y-28062782D01*
X48111915Y-28062784D01*
X48251925Y-28100300D01*
X48251928Y-28100300D01*
X48396872Y-28100300D01*
X48396875Y-28100300D01*
X48536885Y-28062784D01*
X48662415Y-27990309D01*
X48764909Y-27887815D01*
X48776612Y-27867543D01*
X48827176Y-27819329D01*
X48895783Y-27806104D01*
X48960648Y-27832070D01*
X48971680Y-27841862D01*
X51092748Y-29962929D01*
X51126233Y-30024252D01*
X51121249Y-30093944D01*
X51079377Y-30149877D01*
X51073961Y-30153710D01*
X51045649Y-30172628D01*
X51045644Y-30172632D01*
X50992681Y-30225596D01*
X50931358Y-30259081D01*
X50861666Y-30254097D01*
X50817319Y-30225596D01*
X50764355Y-30172632D01*
X50764351Y-30172629D01*
X50637343Y-30087764D01*
X50637334Y-30087759D01*
X50496205Y-30029302D01*
X50496197Y-30029300D01*
X50346384Y-29999500D01*
X50346380Y-29999500D01*
X50193620Y-29999500D01*
X50193615Y-29999500D01*
X50043802Y-30029300D01*
X50043794Y-30029302D01*
X49902665Y-30087759D01*
X49902653Y-30087766D01*
X49878007Y-30104234D01*
X49811330Y-30125111D01*
X49743950Y-30106625D01*
X49714279Y-30077992D01*
X49714237Y-30078035D01*
X49711868Y-30075666D01*
X49706013Y-30070016D01*
X49705601Y-30069399D01*
X49622740Y-30014034D01*
X49622739Y-30014033D01*
X49622735Y-30014032D01*
X49549677Y-29999500D01*
X49549674Y-29999500D01*
X48587921Y-29999500D01*
X48520882Y-29979815D01*
X48475127Y-29927011D01*
X48465183Y-29857853D01*
X48477836Y-29821291D01*
X48477372Y-29821099D01*
X48480482Y-29813589D01*
X48480482Y-29813587D01*
X48480484Y-29813585D01*
X48518000Y-29673575D01*
X48518000Y-29528625D01*
X48480484Y-29388615D01*
X48438546Y-29315977D01*
X48408011Y-29263088D01*
X48408006Y-29263082D01*
X48305517Y-29160593D01*
X48305511Y-29160588D01*
X48179988Y-29088117D01*
X48179989Y-29088117D01*
X48168506Y-29085040D01*
X48039975Y-29050600D01*
X47895025Y-29050600D01*
X47766493Y-29085040D01*
X47755011Y-29088117D01*
X47629488Y-29160588D01*
X47629482Y-29160593D01*
X47526993Y-29263082D01*
X47526988Y-29263088D01*
X47454517Y-29388611D01*
X47454516Y-29388615D01*
X47417000Y-29528625D01*
X47417000Y-29673575D01*
X47445304Y-29779206D01*
X47454517Y-29813588D01*
X47526988Y-29939111D01*
X47526990Y-29939113D01*
X47526991Y-29939115D01*
X47629485Y-30041609D01*
X47629486Y-30041610D01*
X47629488Y-30041611D01*
X47755011Y-30114082D01*
X47755012Y-30114082D01*
X47755015Y-30114084D01*
X47895025Y-30151600D01*
X47895028Y-30151600D01*
X48039972Y-30151600D01*
X48039975Y-30151600D01*
X48068408Y-30143981D01*
X48138256Y-30145644D01*
X48196118Y-30184806D01*
X48223623Y-30249034D01*
X48224500Y-30263756D01*
X48224500Y-31774678D01*
X48239032Y-31847735D01*
X48239033Y-31847739D01*
X48239034Y-31847740D01*
X48294399Y-31930601D01*
X48294400Y-31930601D01*
X48294401Y-31930603D01*
X48301617Y-31937819D01*
X48335102Y-31999142D01*
X48330118Y-32068834D01*
X48288246Y-32124767D01*
X48222782Y-32149184D01*
X48213936Y-32149500D01*
X23129970Y-32149500D01*
X23062931Y-32129815D01*
X23026868Y-32094391D01*
X22935626Y-31957837D01*
X22817162Y-31839373D01*
X22677860Y-31746295D01*
X22523082Y-31682184D01*
X22523074Y-31682182D01*
X22358771Y-31649500D01*
X22358767Y-31649500D01*
X21641233Y-31649500D01*
X21641228Y-31649500D01*
X21476925Y-31682182D01*
X21476917Y-31682184D01*
X21322139Y-31746295D01*
X21182837Y-31839373D01*
X21064373Y-31957837D01*
X20971295Y-32097139D01*
X20907184Y-32251917D01*
X20907182Y-32251925D01*
X20874500Y-32416228D01*
X600000Y-32416228D01*
X600000Y-26838025D01*
X21424300Y-26838025D01*
X21424300Y-26982975D01*
X21461816Y-27122985D01*
X21461817Y-27122988D01*
X21534288Y-27248511D01*
X21534290Y-27248513D01*
X21534291Y-27248515D01*
X21636785Y-27351009D01*
X21636786Y-27351010D01*
X21636788Y-27351011D01*
X21762311Y-27423482D01*
X21762312Y-27423482D01*
X21762315Y-27423484D01*
X21902325Y-27461000D01*
X21902328Y-27461000D01*
X22047272Y-27461000D01*
X22047275Y-27461000D01*
X22187285Y-27423484D01*
X22312815Y-27351009D01*
X22415309Y-27248515D01*
X22487784Y-27122985D01*
X22525300Y-26982975D01*
X22525300Y-26838025D01*
X22487784Y-26698015D01*
X22469697Y-26666688D01*
X22415311Y-26572488D01*
X22415306Y-26572482D01*
X22312817Y-26469993D01*
X22312811Y-26469988D01*
X22187288Y-26397517D01*
X22187289Y-26397517D01*
X22175806Y-26394440D01*
X22047275Y-26360000D01*
X21902325Y-26360000D01*
X21773793Y-26394440D01*
X21762311Y-26397517D01*
X21636788Y-26469988D01*
X21636782Y-26469993D01*
X21534293Y-26572482D01*
X21534288Y-26572488D01*
X21461817Y-26698011D01*
X21461816Y-26698015D01*
X21424300Y-26838025D01*
X600000Y-26838025D01*
X600000Y-23697525D01*
X20951800Y-23697525D01*
X20951800Y-23842475D01*
X20989316Y-23982485D01*
X20989317Y-23982488D01*
X21061788Y-24108011D01*
X21061790Y-24108013D01*
X21061791Y-24108015D01*
X21164285Y-24210509D01*
X21164286Y-24210510D01*
X21164288Y-24210511D01*
X21289811Y-24282982D01*
X21289812Y-24282982D01*
X21289815Y-24282984D01*
X21429825Y-24320500D01*
X21429828Y-24320500D01*
X21574772Y-24320500D01*
X21574775Y-24320500D01*
X21714785Y-24282984D01*
X21840315Y-24210509D01*
X21942809Y-24108015D01*
X22015284Y-23982485D01*
X22052800Y-23842475D01*
X22052800Y-23697525D01*
X22015284Y-23557515D01*
X22011107Y-23550281D01*
X21942811Y-23431988D01*
X21942806Y-23431982D01*
X21840317Y-23329493D01*
X21840311Y-23329488D01*
X21714788Y-23257017D01*
X21714789Y-23257017D01*
X21703306Y-23253940D01*
X21574775Y-23219500D01*
X21429825Y-23219500D01*
X21301293Y-23253940D01*
X21289811Y-23257017D01*
X21164288Y-23329488D01*
X21164282Y-23329493D01*
X21061793Y-23431982D01*
X21061788Y-23431988D01*
X20989317Y-23557511D01*
X20989316Y-23557515D01*
X20951800Y-23697525D01*
X600000Y-23697525D01*
X600000Y-22427525D01*
X55989500Y-22427525D01*
X55989500Y-22572475D01*
X56027016Y-22712485D01*
X56027017Y-22712488D01*
X56099488Y-22838011D01*
X56099490Y-22838013D01*
X56099491Y-22838015D01*
X56201985Y-22940509D01*
X56201986Y-22940510D01*
X56201988Y-22940511D01*
X56327511Y-23012982D01*
X56327512Y-23012982D01*
X56327515Y-23012984D01*
X56467525Y-23050500D01*
X56467528Y-23050500D01*
X56612472Y-23050500D01*
X56612475Y-23050500D01*
X56752485Y-23012984D01*
X56878015Y-22940509D01*
X56980509Y-22838015D01*
X57052984Y-22712485D01*
X57090500Y-22572475D01*
X57090500Y-22427525D01*
X57052984Y-22287515D01*
X57025262Y-22239500D01*
X56980511Y-22161988D01*
X56980506Y-22161982D01*
X56878017Y-22059493D01*
X56878011Y-22059488D01*
X56752488Y-21987017D01*
X56752489Y-21987017D01*
X56741006Y-21983940D01*
X56612475Y-21949500D01*
X56467525Y-21949500D01*
X56338993Y-21983940D01*
X56327511Y-21987017D01*
X56201988Y-22059488D01*
X56201982Y-22059493D01*
X56099493Y-22161982D01*
X56099488Y-22161988D01*
X56027017Y-22287511D01*
X56027016Y-22287515D01*
X55989500Y-22427525D01*
X600000Y-22427525D01*
X600000Y-19887525D01*
X58960800Y-19887525D01*
X58960800Y-20032475D01*
X58998316Y-20172485D01*
X58998317Y-20172488D01*
X59070788Y-20298011D01*
X59070790Y-20298013D01*
X59070791Y-20298015D01*
X59173285Y-20400509D01*
X59173286Y-20400510D01*
X59173288Y-20400511D01*
X59298811Y-20472982D01*
X59298812Y-20472982D01*
X59298815Y-20472984D01*
X59438825Y-20510500D01*
X59438828Y-20510500D01*
X59583772Y-20510500D01*
X59583775Y-20510500D01*
X59723785Y-20472984D01*
X59849315Y-20400509D01*
X59951809Y-20298015D01*
X60024284Y-20172485D01*
X60061800Y-20032475D01*
X60061800Y-19910025D01*
X93983700Y-19910025D01*
X93983700Y-20054975D01*
X94015187Y-20172485D01*
X94021217Y-20194988D01*
X94093688Y-20320511D01*
X94093690Y-20320513D01*
X94093691Y-20320515D01*
X94196185Y-20423009D01*
X94196186Y-20423010D01*
X94196188Y-20423011D01*
X94321711Y-20495482D01*
X94321712Y-20495482D01*
X94321715Y-20495484D01*
X94461725Y-20533000D01*
X94461728Y-20533000D01*
X94606672Y-20533000D01*
X94606675Y-20533000D01*
X94746685Y-20495484D01*
X94872215Y-20423009D01*
X94974709Y-20320515D01*
X95047184Y-20194985D01*
X95084700Y-20054975D01*
X95084700Y-19910025D01*
X95047184Y-19770015D01*
X95034191Y-19747511D01*
X94974711Y-19644488D01*
X94974706Y-19644482D01*
X94872217Y-19541993D01*
X94872211Y-19541988D01*
X94746688Y-19469517D01*
X94746689Y-19469517D01*
X94735206Y-19466440D01*
X94606675Y-19432000D01*
X94461725Y-19432000D01*
X94333193Y-19466440D01*
X94321711Y-19469517D01*
X94196188Y-19541988D01*
X94196182Y-19541993D01*
X94093693Y-19644482D01*
X94093688Y-19644488D01*
X94021217Y-19770011D01*
X94021216Y-19770015D01*
X93983700Y-19910025D01*
X60061800Y-19910025D01*
X60061800Y-19887525D01*
X60024284Y-19747515D01*
X59964799Y-19644485D01*
X59951811Y-19621988D01*
X59951806Y-19621982D01*
X59849317Y-19519493D01*
X59849311Y-19519488D01*
X59723788Y-19447017D01*
X59723789Y-19447017D01*
X59712306Y-19443940D01*
X59583775Y-19409500D01*
X59438825Y-19409500D01*
X59310293Y-19443940D01*
X59298811Y-19447017D01*
X59173288Y-19519488D01*
X59173282Y-19519493D01*
X59070793Y-19621982D01*
X59070788Y-19621988D01*
X58998317Y-19747511D01*
X58998316Y-19747515D01*
X58960800Y-19887525D01*
X600000Y-19887525D01*
X600000Y-14797973D01*
X117449500Y-14797973D01*
X117449500Y-15042026D01*
X117487678Y-15283072D01*
X117563097Y-15515187D01*
X117673896Y-15732642D01*
X117817339Y-15930076D01*
X117817343Y-15930081D01*
X117989918Y-16102656D01*
X117989923Y-16102660D01*
X118162136Y-16227779D01*
X118187361Y-16246106D01*
X118404815Y-16356904D01*
X118636924Y-16432321D01*
X118877973Y-16470500D01*
X118877974Y-16470500D01*
X119122026Y-16470500D01*
X119122027Y-16470500D01*
X119363076Y-16432321D01*
X119595185Y-16356904D01*
X119812639Y-16246106D01*
X120010083Y-16102655D01*
X120182655Y-15930083D01*
X120326106Y-15732639D01*
X120436904Y-15515185D01*
X120512321Y-15283076D01*
X120550500Y-15042027D01*
X120550500Y-14797973D01*
X120512321Y-14556924D01*
X120436904Y-14324815D01*
X120326106Y-14107361D01*
X120307779Y-14082136D01*
X120182660Y-13909923D01*
X120182656Y-13909918D01*
X120010081Y-13737343D01*
X120010076Y-13737339D01*
X119812642Y-13593896D01*
X119812641Y-13593895D01*
X119812639Y-13593894D01*
X119595185Y-13483096D01*
X119363076Y-13407679D01*
X119363074Y-13407678D01*
X119363072Y-13407678D01*
X119194769Y-13381021D01*
X119122027Y-13369500D01*
X118877973Y-13369500D01*
X118822093Y-13378350D01*
X118636927Y-13407678D01*
X118404812Y-13483097D01*
X118187357Y-13593896D01*
X117989923Y-13737339D01*
X117989918Y-13737343D01*
X117817343Y-13909918D01*
X117817339Y-13909923D01*
X117673896Y-14107357D01*
X117563097Y-14324812D01*
X117487678Y-14556927D01*
X117449500Y-14797973D01*
X600000Y-14797973D01*
X600000Y-6227135D01*
X11899500Y-6227135D01*
X11899500Y-7772870D01*
X11899501Y-7772876D01*
X11905908Y-7832483D01*
X11956202Y-7967328D01*
X11956206Y-7967335D01*
X12042452Y-8082544D01*
X12042455Y-8082547D01*
X12157664Y-8168793D01*
X12157671Y-8168797D01*
X12292517Y-8219091D01*
X12292516Y-8219091D01*
X12299444Y-8219835D01*
X12352127Y-8225500D01*
X13647872Y-8225499D01*
X13662873Y-8223886D01*
X13731631Y-8236289D01*
X13763812Y-8259494D01*
X14084987Y-8580669D01*
X14164912Y-8626814D01*
X14254056Y-8650700D01*
X14254058Y-8650700D01*
X49745942Y-8650700D01*
X49745944Y-8650700D01*
X49835088Y-8626814D01*
X49915012Y-8580670D01*
X50236189Y-8259491D01*
X50297509Y-8226009D01*
X50337119Y-8223886D01*
X50352127Y-8225500D01*
X51647872Y-8225499D01*
X51662873Y-8223886D01*
X51731631Y-8236289D01*
X51763812Y-8259494D01*
X52061487Y-8557169D01*
X52102185Y-8580666D01*
X52102190Y-8580669D01*
X52102191Y-8580670D01*
X52141406Y-8603311D01*
X52141407Y-8603311D01*
X52141412Y-8603314D01*
X52230556Y-8627200D01*
X52230558Y-8627200D01*
X68769442Y-8627200D01*
X68769444Y-8627200D01*
X68858588Y-8603314D01*
X68938512Y-8557170D01*
X69236189Y-8259491D01*
X69297509Y-8226009D01*
X69337119Y-8223886D01*
X69352127Y-8225500D01*
X70647872Y-8225499D01*
X70707483Y-8219091D01*
X70842331Y-8168796D01*
X70957546Y-8082546D01*
X71043796Y-7967331D01*
X71094091Y-7832483D01*
X71100500Y-7772873D01*
X71100499Y-6788389D01*
X71399500Y-6788389D01*
X71399500Y-7211611D01*
X71426598Y-7382701D01*
X71480127Y-7547445D01*
X71558768Y-7701788D01*
X71660586Y-7841928D01*
X71783072Y-7964414D01*
X71923212Y-8066232D01*
X72077555Y-8144873D01*
X72242299Y-8198402D01*
X72413389Y-8225500D01*
X72413390Y-8225500D01*
X72586610Y-8225500D01*
X72586611Y-8225500D01*
X72757701Y-8198402D01*
X72922445Y-8144873D01*
X73076788Y-8066232D01*
X73216928Y-7964414D01*
X73339414Y-7841928D01*
X73441232Y-7701788D01*
X73519873Y-7547445D01*
X73573402Y-7382701D01*
X73600500Y-7211611D01*
X73600500Y-6788389D01*
X73899500Y-6788389D01*
X73899500Y-7211611D01*
X73926598Y-7382701D01*
X73980127Y-7547445D01*
X74058768Y-7701788D01*
X74160586Y-7841928D01*
X74283072Y-7964414D01*
X74423212Y-8066232D01*
X74577555Y-8144873D01*
X74742299Y-8198402D01*
X74913389Y-8225500D01*
X74913390Y-8225500D01*
X75086610Y-8225500D01*
X75086611Y-8225500D01*
X75257701Y-8198402D01*
X75422445Y-8144873D01*
X75576788Y-8066232D01*
X75716928Y-7964414D01*
X75839414Y-7841928D01*
X75941232Y-7701788D01*
X76019873Y-7547445D01*
X76073402Y-7382701D01*
X76100500Y-7211611D01*
X76100500Y-6788389D01*
X76073402Y-6617299D01*
X76019873Y-6452555D01*
X75941232Y-6298212D01*
X75941230Y-6298209D01*
X75941229Y-6298207D01*
X75940130Y-6296693D01*
X75940128Y-6296692D01*
X75889591Y-6227135D01*
X87899500Y-6227135D01*
X87899500Y-7772870D01*
X87899501Y-7772876D01*
X87905908Y-7832483D01*
X87956202Y-7967328D01*
X87956206Y-7967335D01*
X88042452Y-8082544D01*
X88042455Y-8082547D01*
X88157664Y-8168793D01*
X88157671Y-8168797D01*
X88292517Y-8219091D01*
X88292516Y-8219091D01*
X88299444Y-8219835D01*
X88352127Y-8225500D01*
X89647872Y-8225499D01*
X89707483Y-8219091D01*
X89842331Y-8168796D01*
X89957546Y-8082546D01*
X90043796Y-7967331D01*
X90094091Y-7832483D01*
X90100500Y-7772873D01*
X90100499Y-6788389D01*
X90399500Y-6788389D01*
X90399500Y-7211611D01*
X90426598Y-7382701D01*
X90480127Y-7547445D01*
X90558768Y-7701788D01*
X90660586Y-7841928D01*
X90783072Y-7964414D01*
X90923212Y-8066232D01*
X91077555Y-8144873D01*
X91242299Y-8198402D01*
X91413389Y-8225500D01*
X91413390Y-8225500D01*
X91586610Y-8225500D01*
X91586611Y-8225500D01*
X91757701Y-8198402D01*
X91922445Y-8144873D01*
X92076788Y-8066232D01*
X92216928Y-7964414D01*
X92339414Y-7841928D01*
X92441232Y-7701788D01*
X92519873Y-7547445D01*
X92573402Y-7382701D01*
X92600500Y-7211611D01*
X92600500Y-6788389D01*
X92899500Y-6788389D01*
X92899500Y-7211611D01*
X92926598Y-7382701D01*
X92980127Y-7547445D01*
X93058768Y-7701788D01*
X93160586Y-7841928D01*
X93283072Y-7964414D01*
X93423212Y-8066232D01*
X93577555Y-8144873D01*
X93742299Y-8198402D01*
X93913389Y-8225500D01*
X93913390Y-8225500D01*
X94086610Y-8225500D01*
X94086611Y-8225500D01*
X94257701Y-8198402D01*
X94422445Y-8144873D01*
X94576788Y-8066232D01*
X94716928Y-7964414D01*
X94839414Y-7841928D01*
X94941232Y-7701788D01*
X95019873Y-7547445D01*
X95073402Y-7382701D01*
X95100500Y-7211611D01*
X95100500Y-6788389D01*
X95073402Y-6617299D01*
X95019873Y-6452555D01*
X94941232Y-6298212D01*
X94941230Y-6298209D01*
X94941229Y-6298207D01*
X94940130Y-6296693D01*
X94940128Y-6296692D01*
X94889591Y-6227135D01*
X102899500Y-6227135D01*
X102899500Y-7772870D01*
X102899501Y-7772876D01*
X102905908Y-7832483D01*
X102956202Y-7967328D01*
X102956206Y-7967335D01*
X103042452Y-8082544D01*
X103042455Y-8082547D01*
X103157664Y-8168793D01*
X103157671Y-8168797D01*
X103292517Y-8219091D01*
X103292516Y-8219091D01*
X103299444Y-8219835D01*
X103352127Y-8225500D01*
X104647872Y-8225499D01*
X104707483Y-8219091D01*
X104842331Y-8168796D01*
X104957546Y-8082546D01*
X105043796Y-7967331D01*
X105094091Y-7832483D01*
X105100500Y-7772873D01*
X105100499Y-6788389D01*
X105399500Y-6788389D01*
X105399500Y-7211611D01*
X105426598Y-7382701D01*
X105480127Y-7547445D01*
X105558768Y-7701788D01*
X105660586Y-7841928D01*
X105783072Y-7964414D01*
X105923212Y-8066232D01*
X106077555Y-8144873D01*
X106242299Y-8198402D01*
X106413389Y-8225500D01*
X106413390Y-8225500D01*
X106586610Y-8225500D01*
X106586611Y-8225500D01*
X106757701Y-8198402D01*
X106922445Y-8144873D01*
X107076788Y-8066232D01*
X107216928Y-7964414D01*
X107339414Y-7841928D01*
X107441232Y-7701788D01*
X107519873Y-7547445D01*
X107573402Y-7382701D01*
X107600500Y-7211611D01*
X107600500Y-6788389D01*
X107899500Y-6788389D01*
X107899500Y-7211611D01*
X107926598Y-7382701D01*
X107980127Y-7547445D01*
X108058768Y-7701788D01*
X108160586Y-7841928D01*
X108283072Y-7964414D01*
X108423212Y-8066232D01*
X108577555Y-8144873D01*
X108742299Y-8198402D01*
X108913389Y-8225500D01*
X108913390Y-8225500D01*
X109086610Y-8225500D01*
X109086611Y-8225500D01*
X109257701Y-8198402D01*
X109422445Y-8144873D01*
X109576788Y-8066232D01*
X109716928Y-7964414D01*
X109839414Y-7841928D01*
X109941232Y-7701788D01*
X110019873Y-7547445D01*
X110073402Y-7382701D01*
X110100500Y-7211611D01*
X110100500Y-6788389D01*
X110073402Y-6617299D01*
X110019873Y-6452555D01*
X109941232Y-6298212D01*
X109839414Y-6158072D01*
X109716928Y-6035586D01*
X109576788Y-5933768D01*
X109422445Y-5855127D01*
X109257701Y-5801598D01*
X109257699Y-5801597D01*
X109257698Y-5801597D01*
X109126271Y-5780781D01*
X109086611Y-5774500D01*
X108913389Y-5774500D01*
X108873728Y-5780781D01*
X108742302Y-5801597D01*
X108577552Y-5855128D01*
X108423211Y-5933768D01*
X108343256Y-5991859D01*
X108283072Y-6035586D01*
X108283070Y-6035588D01*
X108283069Y-6035588D01*
X108160588Y-6158069D01*
X108160588Y-6158070D01*
X108160586Y-6158072D01*
X108153725Y-6167516D01*
X108058768Y-6298211D01*
X107980128Y-6452552D01*
X107926597Y-6617302D01*
X107899500Y-6788389D01*
X107600500Y-6788389D01*
X107573402Y-6617299D01*
X107519873Y-6452555D01*
X107441232Y-6298212D01*
X107339414Y-6158072D01*
X107216928Y-6035586D01*
X107076788Y-5933768D01*
X106922445Y-5855127D01*
X106757701Y-5801598D01*
X106757699Y-5801597D01*
X106757698Y-5801597D01*
X106626271Y-5780781D01*
X106586611Y-5774500D01*
X106413389Y-5774500D01*
X106373728Y-5780781D01*
X106242302Y-5801597D01*
X106077552Y-5855128D01*
X105923211Y-5933768D01*
X105843256Y-5991859D01*
X105783072Y-6035586D01*
X105783070Y-6035588D01*
X105783069Y-6035588D01*
X105660588Y-6158069D01*
X105660588Y-6158070D01*
X105660586Y-6158072D01*
X105653725Y-6167516D01*
X105558768Y-6298211D01*
X105480128Y-6452552D01*
X105426597Y-6617302D01*
X105399500Y-6788389D01*
X105100499Y-6788389D01*
X105100499Y-6227128D01*
X105094091Y-6167517D01*
X105090568Y-6158072D01*
X105043797Y-6032671D01*
X105043793Y-6032664D01*
X104957547Y-5917455D01*
X104957544Y-5917452D01*
X104842335Y-5831206D01*
X104842328Y-5831202D01*
X104707482Y-5780908D01*
X104707483Y-5780908D01*
X104647883Y-5774501D01*
X104647881Y-5774500D01*
X104647873Y-5774500D01*
X104647864Y-5774500D01*
X103352129Y-5774500D01*
X103352123Y-5774501D01*
X103292516Y-5780908D01*
X103157671Y-5831202D01*
X103157664Y-5831206D01*
X103042455Y-5917452D01*
X103042452Y-5917455D01*
X102956206Y-6032664D01*
X102956202Y-6032671D01*
X102905908Y-6167517D01*
X102899501Y-6227116D01*
X102899501Y-6227123D01*
X102899500Y-6227135D01*
X94889591Y-6227135D01*
X94889586Y-6227128D01*
X94839414Y-6158072D01*
X94716928Y-6035586D01*
X94576788Y-5933768D01*
X94422445Y-5855127D01*
X94257701Y-5801598D01*
X94257699Y-5801597D01*
X94257698Y-5801597D01*
X94126271Y-5780781D01*
X94086611Y-5774500D01*
X93913389Y-5774500D01*
X93873728Y-5780781D01*
X93742302Y-5801597D01*
X93577552Y-5855128D01*
X93423211Y-5933768D01*
X93343256Y-5991859D01*
X93283072Y-6035586D01*
X93283070Y-6035588D01*
X93283069Y-6035588D01*
X93160588Y-6158069D01*
X93160588Y-6158070D01*
X93160586Y-6158072D01*
X93153725Y-6167516D01*
X93058768Y-6298211D01*
X92980128Y-6452552D01*
X92926597Y-6617302D01*
X92899500Y-6788389D01*
X92600500Y-6788389D01*
X92573402Y-6617299D01*
X92519873Y-6452555D01*
X92441232Y-6298212D01*
X92339414Y-6158072D01*
X92216928Y-6035586D01*
X92076788Y-5933768D01*
X91922445Y-5855127D01*
X91757701Y-5801598D01*
X91757699Y-5801597D01*
X91757698Y-5801597D01*
X91626271Y-5780781D01*
X91586611Y-5774500D01*
X91413389Y-5774500D01*
X91373728Y-5780781D01*
X91242302Y-5801597D01*
X91077552Y-5855128D01*
X90923211Y-5933768D01*
X90843256Y-5991859D01*
X90783072Y-6035586D01*
X90783070Y-6035588D01*
X90783069Y-6035588D01*
X90660588Y-6158069D01*
X90660588Y-6158070D01*
X90660586Y-6158072D01*
X90653725Y-6167516D01*
X90558768Y-6298211D01*
X90480128Y-6452552D01*
X90426597Y-6617302D01*
X90399500Y-6788389D01*
X90100499Y-6788389D01*
X90100499Y-6227128D01*
X90094091Y-6167517D01*
X90090568Y-6158072D01*
X90043797Y-6032671D01*
X90043793Y-6032664D01*
X89957547Y-5917455D01*
X89957544Y-5917452D01*
X89842335Y-5831206D01*
X89842328Y-5831202D01*
X89707482Y-5780908D01*
X89707483Y-5780908D01*
X89647883Y-5774501D01*
X89647881Y-5774500D01*
X89647873Y-5774500D01*
X89647864Y-5774500D01*
X88352129Y-5774500D01*
X88352123Y-5774501D01*
X88292516Y-5780908D01*
X88157671Y-5831202D01*
X88157664Y-5831206D01*
X88042455Y-5917452D01*
X88042452Y-5917455D01*
X87956206Y-6032664D01*
X87956202Y-6032671D01*
X87905908Y-6167517D01*
X87899501Y-6227116D01*
X87899501Y-6227123D01*
X87899500Y-6227135D01*
X75889591Y-6227135D01*
X75889586Y-6227128D01*
X75839414Y-6158072D01*
X75716928Y-6035586D01*
X75576788Y-5933768D01*
X75422445Y-5855127D01*
X75257701Y-5801598D01*
X75257699Y-5801597D01*
X75257698Y-5801597D01*
X75126271Y-5780781D01*
X75086611Y-5774500D01*
X74913389Y-5774500D01*
X74873728Y-5780781D01*
X74742302Y-5801597D01*
X74577552Y-5855128D01*
X74423211Y-5933768D01*
X74343256Y-5991859D01*
X74283072Y-6035586D01*
X74283070Y-6035588D01*
X74283069Y-6035588D01*
X74160588Y-6158069D01*
X74160588Y-6158070D01*
X74160586Y-6158072D01*
X74153725Y-6167516D01*
X74058768Y-6298211D01*
X73980128Y-6452552D01*
X73926597Y-6617302D01*
X73899500Y-6788389D01*
X73600500Y-6788389D01*
X73573402Y-6617299D01*
X73519873Y-6452555D01*
X73441232Y-6298212D01*
X73339414Y-6158072D01*
X73216928Y-6035586D01*
X73076788Y-5933768D01*
X72922445Y-5855127D01*
X72757701Y-5801598D01*
X72757699Y-5801597D01*
X72757698Y-5801597D01*
X72626271Y-5780781D01*
X72586611Y-5774500D01*
X72413389Y-5774500D01*
X72373728Y-5780781D01*
X72242302Y-5801597D01*
X72077552Y-5855128D01*
X71923211Y-5933768D01*
X71843256Y-5991859D01*
X71783072Y-6035586D01*
X71783070Y-6035588D01*
X71783069Y-6035588D01*
X71660588Y-6158069D01*
X71660588Y-6158070D01*
X71660586Y-6158072D01*
X71653725Y-6167516D01*
X71558768Y-6298211D01*
X71480128Y-6452552D01*
X71426597Y-6617302D01*
X71399500Y-6788389D01*
X71100499Y-6788389D01*
X71100499Y-6227128D01*
X71094091Y-6167517D01*
X71090568Y-6158072D01*
X71043797Y-6032671D01*
X71043793Y-6032664D01*
X70957547Y-5917455D01*
X70957544Y-5917452D01*
X70842335Y-5831206D01*
X70842328Y-5831202D01*
X70707482Y-5780908D01*
X70707483Y-5780908D01*
X70647883Y-5774501D01*
X70647881Y-5774500D01*
X70647873Y-5774500D01*
X70647864Y-5774500D01*
X69352129Y-5774500D01*
X69352123Y-5774501D01*
X69292516Y-5780908D01*
X69157671Y-5831202D01*
X69157664Y-5831206D01*
X69042455Y-5917452D01*
X69042452Y-5917455D01*
X68956206Y-6032664D01*
X68956202Y-6032671D01*
X68905908Y-6167517D01*
X68899501Y-6227116D01*
X68899501Y-6227123D01*
X68899500Y-6227135D01*
X68899500Y-7553455D01*
X68879815Y-7620494D01*
X68863181Y-7641136D01*
X68614437Y-7889881D01*
X68553114Y-7923366D01*
X68526756Y-7926200D01*
X57021551Y-7926200D01*
X56954512Y-7906515D01*
X56908757Y-7853711D01*
X56898813Y-7784553D01*
X56921233Y-7729314D01*
X56941232Y-7701788D01*
X57019873Y-7547445D01*
X57073402Y-7382701D01*
X57100500Y-7211611D01*
X57100500Y-6788389D01*
X57073402Y-6617299D01*
X57019873Y-6452555D01*
X56941232Y-6298212D01*
X56839414Y-6158072D01*
X56716928Y-6035586D01*
X56576788Y-5933768D01*
X56422445Y-5855127D01*
X56257701Y-5801598D01*
X56257699Y-5801597D01*
X56257698Y-5801597D01*
X56126271Y-5780781D01*
X56086611Y-5774500D01*
X55913389Y-5774500D01*
X55873728Y-5780781D01*
X55742302Y-5801597D01*
X55577552Y-5855128D01*
X55423211Y-5933768D01*
X55343256Y-5991859D01*
X55283072Y-6035586D01*
X55283070Y-6035588D01*
X55283069Y-6035588D01*
X55160588Y-6158069D01*
X55160588Y-6158070D01*
X55160586Y-6158072D01*
X55153725Y-6167516D01*
X55058768Y-6298211D01*
X54980128Y-6452552D01*
X54926597Y-6617302D01*
X54899500Y-6788389D01*
X54899500Y-7211610D01*
X54926597Y-7382697D01*
X54980128Y-7547447D01*
X55058768Y-7701788D01*
X55078767Y-7729314D01*
X55102247Y-7795121D01*
X55086422Y-7863175D01*
X55036316Y-7911869D01*
X54978449Y-7926200D01*
X54521551Y-7926200D01*
X54454512Y-7906515D01*
X54408757Y-7853711D01*
X54398813Y-7784553D01*
X54421233Y-7729314D01*
X54441232Y-7701788D01*
X54519873Y-7547445D01*
X54573402Y-7382701D01*
X54600500Y-7211611D01*
X54600500Y-6788389D01*
X54573402Y-6617299D01*
X54519873Y-6452555D01*
X54441232Y-6298212D01*
X54339414Y-6158072D01*
X54216928Y-6035586D01*
X54076788Y-5933768D01*
X53922445Y-5855127D01*
X53757701Y-5801598D01*
X53757699Y-5801597D01*
X53757698Y-5801597D01*
X53626271Y-5780781D01*
X53586611Y-5774500D01*
X53413389Y-5774500D01*
X53373728Y-5780781D01*
X53242302Y-5801597D01*
X53077552Y-5855128D01*
X52923211Y-5933768D01*
X52843256Y-5991859D01*
X52783072Y-6035586D01*
X52783070Y-6035588D01*
X52783069Y-6035588D01*
X52660588Y-6158069D01*
X52660588Y-6158070D01*
X52660586Y-6158072D01*
X52653725Y-6167516D01*
X52558768Y-6298211D01*
X52480128Y-6452552D01*
X52426597Y-6617302D01*
X52399500Y-6788389D01*
X52399500Y-7211610D01*
X52426597Y-7382697D01*
X52480128Y-7547447D01*
X52558768Y-7701788D01*
X52578767Y-7729314D01*
X52602247Y-7795121D01*
X52586422Y-7863175D01*
X52536316Y-7911869D01*
X52478449Y-7926200D01*
X52473244Y-7926200D01*
X52406205Y-7906515D01*
X52385563Y-7889881D01*
X52136818Y-7641136D01*
X52103333Y-7579813D01*
X52100499Y-7553455D01*
X52100499Y-6227129D01*
X52100498Y-6227123D01*
X52100497Y-6227116D01*
X52094091Y-6167517D01*
X52090568Y-6158072D01*
X52043797Y-6032671D01*
X52043793Y-6032664D01*
X51957547Y-5917455D01*
X51957544Y-5917452D01*
X51842335Y-5831206D01*
X51842328Y-5831202D01*
X51707482Y-5780908D01*
X51707483Y-5780908D01*
X51647883Y-5774501D01*
X51647881Y-5774500D01*
X51647873Y-5774500D01*
X51647864Y-5774500D01*
X50352129Y-5774500D01*
X50352123Y-5774501D01*
X50292516Y-5780908D01*
X50157671Y-5831202D01*
X50157664Y-5831206D01*
X50042455Y-5917452D01*
X50042452Y-5917455D01*
X49956206Y-6032664D01*
X49956202Y-6032671D01*
X49905908Y-6167517D01*
X49899501Y-6227116D01*
X49899501Y-6227123D01*
X49899500Y-6227135D01*
X49899500Y-7553455D01*
X49879815Y-7620494D01*
X49863181Y-7641136D01*
X49590937Y-7913381D01*
X49529614Y-7946866D01*
X49503256Y-7949700D01*
X38004477Y-7949700D01*
X37937438Y-7930015D01*
X37891683Y-7877211D01*
X37881739Y-7808053D01*
X37904159Y-7752814D01*
X37907404Y-7748348D01*
X37941232Y-7701788D01*
X38019873Y-7547445D01*
X38073402Y-7382701D01*
X38100500Y-7211611D01*
X38100500Y-6788389D01*
X38073402Y-6617299D01*
X38019873Y-6452555D01*
X37941232Y-6298212D01*
X37839414Y-6158072D01*
X37716928Y-6035586D01*
X37576788Y-5933768D01*
X37422445Y-5855127D01*
X37257701Y-5801598D01*
X37257699Y-5801597D01*
X37257698Y-5801597D01*
X37126271Y-5780781D01*
X37086611Y-5774500D01*
X36913389Y-5774500D01*
X36873728Y-5780781D01*
X36742302Y-5801597D01*
X36577552Y-5855128D01*
X36423211Y-5933768D01*
X36343256Y-5991859D01*
X36283072Y-6035586D01*
X36283070Y-6035588D01*
X36283069Y-6035588D01*
X36160588Y-6158069D01*
X36160588Y-6158070D01*
X36160586Y-6158072D01*
X36153725Y-6167516D01*
X36058768Y-6298211D01*
X35980128Y-6452552D01*
X35926597Y-6617302D01*
X35899500Y-6788389D01*
X35899500Y-7211610D01*
X35926597Y-7382697D01*
X35980128Y-7547447D01*
X36058768Y-7701788D01*
X36095841Y-7752814D01*
X36119321Y-7818620D01*
X36103496Y-7886674D01*
X36053390Y-7935369D01*
X35995523Y-7949700D01*
X35504477Y-7949700D01*
X35437438Y-7930015D01*
X35391683Y-7877211D01*
X35381739Y-7808053D01*
X35404159Y-7752814D01*
X35407404Y-7748348D01*
X35441232Y-7701788D01*
X35519873Y-7547445D01*
X35573402Y-7382701D01*
X35600500Y-7211611D01*
X35600500Y-6788389D01*
X35573402Y-6617299D01*
X35519873Y-6452555D01*
X35441232Y-6298212D01*
X35339414Y-6158072D01*
X35216928Y-6035586D01*
X35076788Y-5933768D01*
X34922445Y-5855127D01*
X34757701Y-5801598D01*
X34757699Y-5801597D01*
X34757698Y-5801597D01*
X34626271Y-5780781D01*
X34586611Y-5774500D01*
X34413389Y-5774500D01*
X34373728Y-5780781D01*
X34242302Y-5801597D01*
X34077552Y-5855128D01*
X33923211Y-5933768D01*
X33843256Y-5991859D01*
X33783072Y-6035586D01*
X33783070Y-6035588D01*
X33783069Y-6035588D01*
X33660588Y-6158069D01*
X33660588Y-6158070D01*
X33660586Y-6158072D01*
X33653725Y-6167516D01*
X33558768Y-6298211D01*
X33480128Y-6452552D01*
X33426597Y-6617302D01*
X33399500Y-6788389D01*
X33399500Y-7211610D01*
X33426597Y-7382697D01*
X33480128Y-7547447D01*
X33558768Y-7701788D01*
X33595841Y-7752814D01*
X33619321Y-7818620D01*
X33603496Y-7886674D01*
X33553390Y-7935369D01*
X33495523Y-7949700D01*
X33219535Y-7949700D01*
X33152496Y-7930015D01*
X33106741Y-7877211D01*
X33096245Y-7812446D01*
X33100500Y-7772873D01*
X33100499Y-6227128D01*
X33094091Y-6167517D01*
X33090568Y-6158072D01*
X33043797Y-6032671D01*
X33043793Y-6032664D01*
X32957547Y-5917455D01*
X32957544Y-5917452D01*
X32842335Y-5831206D01*
X32842328Y-5831202D01*
X32707482Y-5780908D01*
X32707483Y-5780908D01*
X32647883Y-5774501D01*
X32647881Y-5774500D01*
X32647873Y-5774500D01*
X32647864Y-5774500D01*
X31352129Y-5774500D01*
X31352123Y-5774501D01*
X31292516Y-5780908D01*
X31157671Y-5831202D01*
X31157664Y-5831206D01*
X31042455Y-5917452D01*
X31042452Y-5917455D01*
X30956206Y-6032664D01*
X30956202Y-6032671D01*
X30905908Y-6167517D01*
X30899501Y-6227116D01*
X30899501Y-6227123D01*
X30899500Y-6227135D01*
X30899500Y-7772870D01*
X30899501Y-7772876D01*
X30903755Y-7812447D01*
X30891348Y-7881206D01*
X30843737Y-7932343D01*
X30780465Y-7949700D01*
X19004477Y-7949700D01*
X18937438Y-7930015D01*
X18891683Y-7877211D01*
X18881739Y-7808053D01*
X18904159Y-7752814D01*
X18907404Y-7748348D01*
X18941232Y-7701788D01*
X19019873Y-7547445D01*
X19073402Y-7382701D01*
X19100500Y-7211611D01*
X19100500Y-6788389D01*
X19073402Y-6617299D01*
X19019873Y-6452555D01*
X18941232Y-6298212D01*
X18839414Y-6158072D01*
X18716928Y-6035586D01*
X18576788Y-5933768D01*
X18422445Y-5855127D01*
X18257701Y-5801598D01*
X18257699Y-5801597D01*
X18257698Y-5801597D01*
X18126271Y-5780781D01*
X18086611Y-5774500D01*
X17913389Y-5774500D01*
X17873728Y-5780781D01*
X17742302Y-5801597D01*
X17577552Y-5855128D01*
X17423211Y-5933768D01*
X17343256Y-5991859D01*
X17283072Y-6035586D01*
X17283070Y-6035588D01*
X17283069Y-6035588D01*
X17160588Y-6158069D01*
X17160588Y-6158070D01*
X17160586Y-6158072D01*
X17153725Y-6167516D01*
X17058768Y-6298211D01*
X16980128Y-6452552D01*
X16926597Y-6617302D01*
X16899500Y-6788389D01*
X16899500Y-7211610D01*
X16926597Y-7382697D01*
X16980128Y-7547447D01*
X17058768Y-7701788D01*
X17095841Y-7752814D01*
X17119321Y-7818620D01*
X17103496Y-7886674D01*
X17053390Y-7935369D01*
X16995523Y-7949700D01*
X16504477Y-7949700D01*
X16437438Y-7930015D01*
X16391683Y-7877211D01*
X16381739Y-7808053D01*
X16404159Y-7752814D01*
X16407404Y-7748348D01*
X16441232Y-7701788D01*
X16519873Y-7547445D01*
X16573402Y-7382701D01*
X16600500Y-7211611D01*
X16600500Y-6788389D01*
X16573402Y-6617299D01*
X16519873Y-6452555D01*
X16441232Y-6298212D01*
X16339414Y-6158072D01*
X16216928Y-6035586D01*
X16076788Y-5933768D01*
X15922445Y-5855127D01*
X15757701Y-5801598D01*
X15757699Y-5801597D01*
X15757698Y-5801597D01*
X15626271Y-5780781D01*
X15586611Y-5774500D01*
X15413389Y-5774500D01*
X15373728Y-5780781D01*
X15242302Y-5801597D01*
X15077552Y-5855128D01*
X14923211Y-5933768D01*
X14843256Y-5991859D01*
X14783072Y-6035586D01*
X14783070Y-6035588D01*
X14783069Y-6035588D01*
X14660588Y-6158069D01*
X14660588Y-6158070D01*
X14660586Y-6158072D01*
X14653725Y-6167516D01*
X14558768Y-6298211D01*
X14480128Y-6452552D01*
X14426597Y-6617302D01*
X14399500Y-6788389D01*
X14399500Y-7211610D01*
X14426597Y-7382697D01*
X14480128Y-7547447D01*
X14558768Y-7701788D01*
X14592596Y-7748348D01*
X14616076Y-7814155D01*
X14600251Y-7882209D01*
X14550145Y-7930904D01*
X14481667Y-7944779D01*
X14416558Y-7919430D01*
X14404597Y-7908915D01*
X14136818Y-7641136D01*
X14103333Y-7579813D01*
X14100499Y-7553455D01*
X14100499Y-6227129D01*
X14100498Y-6227123D01*
X14100497Y-6227116D01*
X14094091Y-6167517D01*
X14090568Y-6158072D01*
X14043797Y-6032671D01*
X14043793Y-6032664D01*
X13957547Y-5917455D01*
X13957544Y-5917452D01*
X13842335Y-5831206D01*
X13842328Y-5831202D01*
X13707482Y-5780908D01*
X13707483Y-5780908D01*
X13647883Y-5774501D01*
X13647881Y-5774500D01*
X13647873Y-5774500D01*
X13647864Y-5774500D01*
X12352129Y-5774500D01*
X12352123Y-5774501D01*
X12292516Y-5780908D01*
X12157671Y-5831202D01*
X12157664Y-5831206D01*
X12042455Y-5917452D01*
X12042452Y-5917455D01*
X11956206Y-6032664D01*
X11956202Y-6032671D01*
X11905908Y-6167517D01*
X11899501Y-6227116D01*
X11899501Y-6227123D01*
X11899500Y-6227135D01*
X600000Y-6227135D01*
X600000Y-3878711D01*
X2149500Y-3878711D01*
X2149500Y-4121288D01*
X2181161Y-4361785D01*
X2243947Y-4596104D01*
X2336773Y-4820205D01*
X2336776Y-4820212D01*
X2458064Y-5030289D01*
X2458066Y-5030292D01*
X2458067Y-5030293D01*
X2605733Y-5222736D01*
X2605739Y-5222743D01*
X2777256Y-5394260D01*
X2777262Y-5394265D01*
X2969711Y-5541936D01*
X3179788Y-5663224D01*
X3403900Y-5756054D01*
X3638211Y-5818838D01*
X3818586Y-5842584D01*
X3878711Y-5850500D01*
X3878712Y-5850500D01*
X4121289Y-5850500D01*
X4169388Y-5844167D01*
X4361789Y-5818838D01*
X4596100Y-5756054D01*
X4820212Y-5663224D01*
X5030289Y-5541936D01*
X5222738Y-5394265D01*
X5394265Y-5222738D01*
X5541936Y-5030289D01*
X5663224Y-4820212D01*
X5756054Y-4596100D01*
X5818838Y-4361789D01*
X5850500Y-4121288D01*
X5850500Y-3878712D01*
X5850500Y-3878711D01*
X119149500Y-3878711D01*
X119149500Y-4121288D01*
X119181161Y-4361785D01*
X119243947Y-4596104D01*
X119336773Y-4820205D01*
X119336776Y-4820212D01*
X119458064Y-5030289D01*
X119458066Y-5030292D01*
X119458067Y-5030293D01*
X119605733Y-5222736D01*
X119605739Y-5222743D01*
X119777256Y-5394260D01*
X119777262Y-5394265D01*
X119969711Y-5541936D01*
X120179788Y-5663224D01*
X120403900Y-5756054D01*
X120638211Y-5818838D01*
X120818586Y-5842584D01*
X120878711Y-5850500D01*
X120878712Y-5850500D01*
X121121289Y-5850500D01*
X121169388Y-5844167D01*
X121361789Y-5818838D01*
X121596100Y-5756054D01*
X121820212Y-5663224D01*
X122030289Y-5541936D01*
X122222738Y-5394265D01*
X122394265Y-5222738D01*
X122541936Y-5030289D01*
X122663224Y-4820212D01*
X122756054Y-4596100D01*
X122818838Y-4361789D01*
X122850500Y-4121288D01*
X122850500Y-3878712D01*
X122818838Y-3638211D01*
X122756054Y-3403900D01*
X122663224Y-3179788D01*
X122541936Y-2969711D01*
X122394265Y-2777262D01*
X122394260Y-2777256D01*
X122222743Y-2605739D01*
X122222736Y-2605733D01*
X122030293Y-2458067D01*
X122030292Y-2458066D01*
X122030289Y-2458064D01*
X121820212Y-2336776D01*
X121748044Y-2306883D01*
X121596104Y-2243947D01*
X121361785Y-2181161D01*
X121121289Y-2149500D01*
X121121288Y-2149500D01*
X120878712Y-2149500D01*
X120878711Y-2149500D01*
X120638214Y-2181161D01*
X120403895Y-2243947D01*
X120179794Y-2336773D01*
X120179785Y-2336777D01*
X119969706Y-2458067D01*
X119777263Y-2605733D01*
X119777256Y-2605739D01*
X119605739Y-2777256D01*
X119605733Y-2777263D01*
X119458067Y-2969706D01*
X119336777Y-3179785D01*
X119336773Y-3179794D01*
X119243947Y-3403895D01*
X119181161Y-3638214D01*
X119149500Y-3878711D01*
X5850500Y-3878711D01*
X5818838Y-3638211D01*
X5756054Y-3403900D01*
X5663224Y-3179788D01*
X5541936Y-2969711D01*
X5394265Y-2777262D01*
X5394260Y-2777256D01*
X5222743Y-2605739D01*
X5222736Y-2605733D01*
X5030293Y-2458067D01*
X5030292Y-2458066D01*
X5030289Y-2458064D01*
X4820212Y-2336776D01*
X4748044Y-2306883D01*
X4596104Y-2243947D01*
X4361785Y-2181161D01*
X4121289Y-2149500D01*
X4121288Y-2149500D01*
X3878712Y-2149500D01*
X3878711Y-2149500D01*
X3638214Y-2181161D01*
X3403895Y-2243947D01*
X3179794Y-2336773D01*
X3179785Y-2336777D01*
X2969706Y-2458067D01*
X2777263Y-2605733D01*
X2777256Y-2605739D01*
X2605739Y-2777256D01*
X2605733Y-2777263D01*
X2458067Y-2969706D01*
X2336777Y-3179785D01*
X2336773Y-3179794D01*
X2243947Y-3403895D01*
X2181161Y-3638214D01*
X2149500Y-3878711D01*
X600000Y-3878711D01*
X600000Y-2354333D01*
X609439Y-2306881D01*
X832859Y-1767494D01*
X849041Y-1739462D01*
X1225703Y-1248589D01*
X1248591Y-1225702D01*
X1739460Y-849043D01*
X1767488Y-832862D01*
X2306879Y-609438D01*
X2354331Y-600000D01*
X122645665Y-600000D01*
X122693116Y-609438D01*
G37*
%TD.AperFunction*%
%TD*%
D28*
X47967500Y-29601100D03*
X21974800Y-26910500D03*
X48324400Y-27549800D03*
X43658000Y-27533600D03*
X64460100Y-24137100D03*
X94501600Y-22500000D03*
X39221100Y-27004700D03*
X56540000Y-22500000D03*
X40024500Y-28062500D03*
X112787300Y-43912500D03*
X99463300Y-18595500D03*
X23525700Y-18214300D03*
X96542300Y-27781400D03*
X62194200Y-17885400D03*
X59511300Y-19960000D03*
X60125700Y-23960400D03*
X61524400Y-21702700D03*
X33795900Y-42500000D03*
X40216100Y-43129100D03*
X21509800Y-20824500D03*
X21502300Y-23770000D03*
X26487100Y-24839800D03*
X26435000Y-21689000D03*
X94534200Y-19982500D03*
X97308300Y-24395600D03*
X74822500Y-25675000D03*
X78598300Y-47836700D03*
X99461600Y-21230000D03*
X10604100Y-36500000D03*
D29*
X4000000Y-51000000D03*
X49000000Y-31000000D03*
X50270000Y-31000000D03*
X51540000Y-31000000D03*
X89000000Y-7000000D03*
X91500000Y-7000000D03*
X94000000Y-7000000D03*
X96500000Y-7000000D03*
X121000000Y-51000000D03*
X70000000Y-7000000D03*
X72500000Y-7000000D03*
X75000000Y-7000000D03*
X77500000Y-7000000D03*
X116000000Y-32000000D03*
X121000000Y-32000000D03*
X121000000Y-4000000D03*
X108000000Y-36000000D03*
X110540000Y-36000000D03*
X31000000Y-47500000D03*
X33540000Y-47500000D03*
X13000000Y-7000000D03*
X15500000Y-7000000D03*
X18000000Y-7000000D03*
X20500000Y-7000000D03*
X20000000Y-47500000D03*
X26500000Y-47500000D03*
X20000000Y-52000000D03*
X26500000Y-52000000D03*
X108000000Y-28500000D03*
X110000000Y-28500000D03*
X55000000Y-50500000D03*
X57540000Y-50500000D03*
X60080000Y-50500000D03*
X62620000Y-50500000D03*
X65160000Y-50500000D03*
X67700000Y-50500000D03*
X70240000Y-50500000D03*
X72780000Y-50500000D03*
X75320000Y-50500000D03*
X77860000Y-50500000D03*
X80400000Y-50500000D03*
X82940000Y-50500000D03*
X85480000Y-50500000D03*
X22000000Y-38500000D03*
X22000000Y-36500000D03*
X22000000Y-34500000D03*
X22000000Y-32500000D03*
X119000000Y-20000000D03*
X119000000Y-14920000D03*
X85480000Y-35260000D03*
X82940000Y-35260000D03*
X80400000Y-35260000D03*
X77860000Y-35260000D03*
X75320000Y-35260000D03*
X72780000Y-35260000D03*
X70240000Y-35260000D03*
X67700000Y-35260000D03*
X65160000Y-35260000D03*
X62620000Y-35260000D03*
X60080000Y-35260000D03*
X57540000Y-35260000D03*
X55000000Y-35260000D03*
X51000000Y-7000000D03*
X53500000Y-7000000D03*
X56000000Y-7000000D03*
X58500000Y-7000000D03*
X4000000Y-4000000D03*
X9000000Y-47500000D03*
X15500000Y-47500000D03*
X9000000Y-52000000D03*
X15500000Y-52000000D03*
X32000000Y-7000000D03*
X34500000Y-7000000D03*
X37000000Y-7000000D03*
X39500000Y-7000000D03*
X104000000Y-7000000D03*
X106500000Y-7000000D03*
X109000000Y-7000000D03*
X111500000Y-7000000D03*
X43000000Y-48000000D03*
X45540000Y-48000000D03*
X43000000Y-50540000D03*
X45540000Y-50540000D03*
X33000000Y-36000000D03*
X33000000Y-34000000D03*
M02*
