%TF.GenerationSoftware,KiCad,Pcbnew,10.0.5*%
%TF.CreationDate,2026-08-16T14:43:31-04:00*%
%TF.ProjectId,BU-22-Display-Controller-Rev-B,42552d32-322d-4446-9973-706c61792d43,rev?*%
%TF.SameCoordinates,Original*%
%TF.FileFunction,Legend,Top*%
%TF.FilePolarity,Positive*%
%FSLAX46Y46*%
G04 Gerber Fmt 4.6, Leading zero omitted, Abs format (unit mm)*
G04 Created by KiCad (PCBNEW 10.0.5) date 2026-08-16 14:43:31*
%MOMM*%
%LPD*%
G01*
G04 APERTURE LIST*
G04 Aperture macros list*
%AMRoundRect*
0 Rectangle with rounded corners*
0 $1 Rounding radius*
0 $2 $3 $4 $5 $6 $7 $8 $9 X,Y pos of 4 corners*
0 Add a 4 corners polygon primitive as box body*
4,1,4,$2,$3,$4,$5,$6,$7,$8,$9,$2,$3,0*
0 Add four circle primitives for the rounded corners*
1,1,$1+$1,$2,$3*
1,1,$1+$1,$4,$5*
1,1,$1+$1,$6,$7*
1,1,$1+$1,$8,$9*
0 Add four rect primitives between the rounded corners*
20,1,$1+$1,$2,$3,$4,$5,0*
20,1,$1+$1,$4,$5,$6,$7,0*
20,1,$1+$1,$6,$7,$8,$9,0*
20,1,$1+$1,$8,$9,$2,$3,0*%
G04 Aperture macros list end*
%ADD10C,0.280000*%
%ADD11C,0.260000*%
%ADD12C,0.150000*%
%ADD13C,0.120000*%
%ADD14C,3.200000*%
%ADD15RoundRect,0.250000X0.450000X-0.262500X0.450000X0.262500X-0.450000X0.262500X-0.450000X-0.262500X0*%
%ADD16R,1.050000X1.500000*%
%ADD17O,1.050000X1.500000*%
%ADD18RoundRect,0.250000X-0.600000X-0.725000X0.600000X-0.725000X0.600000X0.725000X-0.600000X0.725000X0*%
%ADD19O,1.700000X1.950000*%
%ADD20RoundRect,0.250000X-0.250000X-0.475000X0.250000X-0.475000X0.250000X0.475000X-0.250000X0.475000X0*%
%ADD21RoundRect,0.250000X-0.750000X-0.750000X0.750000X-0.750000X0.750000X0.750000X-0.750000X0.750000X0*%
%ADD22C,2.000000*%
%ADD23RoundRect,0.150000X-0.825000X-0.150000X0.825000X-0.150000X0.825000X0.150000X-0.825000X0.150000X0*%
%ADD24R,1.800000X1.800000*%
%ADD25C,1.800000*%
%ADD26RoundRect,0.150000X0.625000X-0.150000X0.625000X0.150000X-0.625000X0.150000X-0.625000X-0.150000X0*%
%ADD27RoundRect,0.250000X0.650000X-0.350000X0.650000X0.350000X-0.650000X0.350000X-0.650000X-0.350000X0*%
%ADD28RoundRect,0.250000X-0.550000X-0.550000X0.550000X-0.550000X0.550000X0.550000X-0.550000X0.550000X0*%
%ADD29C,1.600000*%
%ADD30R,1.700000X1.700000*%
%ADD31C,1.700000*%
%ADD32RoundRect,0.250000X0.625000X-0.350000X0.625000X0.350000X-0.625000X0.350000X-0.625000X-0.350000X0*%
%ADD33O,1.750000X1.200000*%
%ADD34RoundRect,0.250000X1.050000X-1.050000X1.050000X1.050000X-1.050000X1.050000X-1.050000X-1.050000X0*%
%ADD35C,2.600000*%
G04 APERTURE END LIST*
D10*
X97214400Y-41619600D02*
X97313600Y-41148400D01*
X97313600Y-41148400D02*
X97586400Y-40788800D01*
X97313600Y-42115600D02*
X97214400Y-41619600D01*
X97586400Y-40788800D02*
X97995600Y-40590400D01*
X97586400Y-42574400D02*
X97313600Y-42115600D01*
X97933600Y-42884400D02*
X97586400Y-42574400D01*
X97995600Y-40590400D02*
X98429600Y-40615200D01*
X98039000Y-43399000D02*
X98071745Y-43150274D01*
X98071745Y-43150274D02*
X98167749Y-42918500D01*
X98071745Y-43647725D02*
X98039000Y-43399000D01*
X98167749Y-42918500D02*
X98320470Y-42719470D01*
X98167749Y-43879500D02*
X98071745Y-43647725D01*
X98320470Y-42719470D02*
X98519500Y-42566749D01*
X98320470Y-44078529D02*
X98167749Y-43879500D01*
X98429600Y-40615200D02*
X98752000Y-40788800D01*
X98473000Y-43585000D02*
X98721000Y-43802000D01*
X98519500Y-42566749D02*
X98751274Y-42470745D01*
X98519500Y-44231250D02*
X98320470Y-44078529D01*
D11*
X98559800Y-43163400D02*
X98573090Y-43113800D01*
X98573090Y-43113800D02*
X98609400Y-43077490D01*
X98573090Y-43213000D02*
X98559800Y-43163400D01*
X98609400Y-43077490D02*
X98659000Y-43064200D01*
X98609400Y-43249309D02*
X98573090Y-43213000D01*
X98659000Y-43064200D02*
X98708600Y-43077490D01*
X98659000Y-43262600D02*
X98609400Y-43249309D01*
X98708600Y-43077490D02*
X98744909Y-43113800D01*
X98708600Y-43249309D02*
X98659000Y-43262600D01*
D10*
X98721000Y-43802000D02*
X99000000Y-43882600D01*
D11*
X98744909Y-43113800D02*
X98758200Y-43163400D01*
X98744909Y-43213000D02*
X98708600Y-43249309D01*
D10*
X98751274Y-42470745D02*
X99000000Y-42438000D01*
X98751274Y-44327254D02*
X98519500Y-44231250D01*
X98752000Y-40788800D02*
X99000000Y-41123600D01*
D11*
X98758200Y-43163400D02*
X98744909Y-43213000D01*
D10*
X99000000Y-41123600D02*
X99248000Y-40788800D01*
X99000000Y-42438000D02*
X99248725Y-42470745D01*
X99000000Y-43882600D02*
X99279000Y-43802000D01*
X99000000Y-44360000D02*
X98751274Y-44327254D01*
D11*
X99241800Y-43163400D02*
X99255090Y-43113800D01*
D10*
X99248000Y-40788800D02*
X99570400Y-40615200D01*
X99248725Y-42470745D02*
X99480500Y-42566749D01*
X99248725Y-44327254D02*
X99000000Y-44360000D01*
D11*
X99255090Y-43113800D02*
X99291400Y-43077490D01*
X99255090Y-43213000D02*
X99241800Y-43163400D01*
D10*
X99279000Y-43802000D02*
X99527000Y-43585000D01*
D11*
X99291400Y-43077490D02*
X99341000Y-43064200D01*
X99291400Y-43249309D02*
X99255090Y-43213000D01*
X99341000Y-43064200D02*
X99390600Y-43077490D01*
X99341000Y-43262600D02*
X99291400Y-43249309D01*
X99390600Y-43077490D02*
X99426909Y-43113800D01*
X99390600Y-43249309D02*
X99341000Y-43262600D01*
X99426909Y-43113800D02*
X99440200Y-43163400D01*
X99426909Y-43213000D02*
X99390600Y-43249309D01*
X99440200Y-43163400D02*
X99426909Y-43213000D01*
D10*
X99480500Y-42566749D02*
X99679529Y-42719470D01*
X99480500Y-44231250D02*
X99248725Y-44327254D01*
X99570400Y-40615200D02*
X100004400Y-40590400D01*
X99679529Y-42719470D02*
X99832250Y-42918500D01*
X99679529Y-44078529D02*
X99480500Y-44231250D01*
X99832250Y-42918500D02*
X99928254Y-43150274D01*
X99832250Y-43879500D02*
X99679529Y-44078529D01*
X99928254Y-43150274D02*
X99961000Y-43399000D01*
X99928254Y-43647725D02*
X99832250Y-43879500D01*
X99961000Y-43399000D02*
X99928254Y-43647725D01*
X100004400Y-40590400D02*
X100413600Y-40788800D01*
X100413600Y-40788800D02*
X100686400Y-41148400D01*
X100413600Y-42574400D02*
X100066400Y-42884400D01*
X100686400Y-41148400D02*
X100785600Y-41619600D01*
X100686400Y-42115600D02*
X100413600Y-42574400D01*
X100785600Y-41619600D02*
X100686400Y-42115600D01*
D12*
X7219048Y-31862295D02*
X7219048Y-31062295D01*
X7561904Y-31138485D02*
X7600000Y-31100390D01*
X7600000Y-31100390D02*
X7676190Y-31062295D01*
X7676190Y-31062295D02*
X7866666Y-31062295D01*
X7866666Y-31062295D02*
X7942857Y-31100390D01*
X7942857Y-31100390D02*
X7980952Y-31138485D01*
X7980952Y-31138485D02*
X8019047Y-31214676D01*
X8019047Y-31214676D02*
X8019047Y-31290866D01*
X8019047Y-31290866D02*
X7980952Y-31405152D01*
X7980952Y-31405152D02*
X7523809Y-31862295D01*
X7523809Y-31862295D02*
X8019047Y-31862295D01*
X8819048Y-31786104D02*
X8780952Y-31824200D01*
X8780952Y-31824200D02*
X8666667Y-31862295D01*
X8666667Y-31862295D02*
X8590476Y-31862295D01*
X8590476Y-31862295D02*
X8476190Y-31824200D01*
X8476190Y-31824200D02*
X8400000Y-31748009D01*
X8400000Y-31748009D02*
X8361905Y-31671819D01*
X8361905Y-31671819D02*
X8323809Y-31519438D01*
X8323809Y-31519438D02*
X8323809Y-31405152D01*
X8323809Y-31405152D02*
X8361905Y-31252771D01*
X8361905Y-31252771D02*
X8400000Y-31176580D01*
X8400000Y-31176580D02*
X8476190Y-31100390D01*
X8476190Y-31100390D02*
X8590476Y-31062295D01*
X8590476Y-31062295D02*
X8666667Y-31062295D01*
X8666667Y-31062295D02*
X8780952Y-31100390D01*
X8780952Y-31100390D02*
X8819048Y-31138485D01*
X11088095Y-43362295D02*
X10821428Y-42981342D01*
X10630952Y-43362295D02*
X10630952Y-42562295D01*
X10630952Y-42562295D02*
X10935714Y-42562295D01*
X10935714Y-42562295D02*
X11011904Y-42600390D01*
X11011904Y-42600390D02*
X11049999Y-42638485D01*
X11049999Y-42638485D02*
X11088095Y-42714676D01*
X11088095Y-42714676D02*
X11088095Y-42828961D01*
X11088095Y-42828961D02*
X11049999Y-42905152D01*
X11049999Y-42905152D02*
X11011904Y-42943247D01*
X11011904Y-42943247D02*
X10935714Y-42981342D01*
X10935714Y-42981342D02*
X10630952Y-42981342D01*
X11430952Y-42943247D02*
X11697618Y-42943247D01*
X11811904Y-43362295D02*
X11430952Y-43362295D01*
X11430952Y-43362295D02*
X11430952Y-42562295D01*
X11430952Y-42562295D02*
X11811904Y-42562295D01*
X12116666Y-43324200D02*
X12230952Y-43362295D01*
X12230952Y-43362295D02*
X12421428Y-43362295D01*
X12421428Y-43362295D02*
X12497619Y-43324200D01*
X12497619Y-43324200D02*
X12535714Y-43286104D01*
X12535714Y-43286104D02*
X12573809Y-43209914D01*
X12573809Y-43209914D02*
X12573809Y-43133723D01*
X12573809Y-43133723D02*
X12535714Y-43057533D01*
X12535714Y-43057533D02*
X12497619Y-43019438D01*
X12497619Y-43019438D02*
X12421428Y-42981342D01*
X12421428Y-42981342D02*
X12269047Y-42943247D01*
X12269047Y-42943247D02*
X12192857Y-42905152D01*
X12192857Y-42905152D02*
X12154762Y-42867057D01*
X12154762Y-42867057D02*
X12116666Y-42790866D01*
X12116666Y-42790866D02*
X12116666Y-42714676D01*
X12116666Y-42714676D02*
X12154762Y-42638485D01*
X12154762Y-42638485D02*
X12192857Y-42600390D01*
X12192857Y-42600390D02*
X12269047Y-42562295D01*
X12269047Y-42562295D02*
X12459524Y-42562295D01*
X12459524Y-42562295D02*
X12573809Y-42600390D01*
X12916667Y-42943247D02*
X13183333Y-42943247D01*
X13297619Y-43362295D02*
X12916667Y-43362295D01*
X12916667Y-43362295D02*
X12916667Y-42562295D01*
X12916667Y-42562295D02*
X13297619Y-42562295D01*
X13526191Y-42562295D02*
X13983334Y-42562295D01*
X13754762Y-43362295D02*
X13754762Y-42562295D01*
X12666667Y-13562295D02*
X12400000Y-13181342D01*
X12209524Y-13562295D02*
X12209524Y-12762295D01*
X12209524Y-12762295D02*
X12514286Y-12762295D01*
X12514286Y-12762295D02*
X12590476Y-12800390D01*
X12590476Y-12800390D02*
X12628571Y-12838485D01*
X12628571Y-12838485D02*
X12666667Y-12914676D01*
X12666667Y-12914676D02*
X12666667Y-13028961D01*
X12666667Y-13028961D02*
X12628571Y-13105152D01*
X12628571Y-13105152D02*
X12590476Y-13143247D01*
X12590476Y-13143247D02*
X12514286Y-13181342D01*
X12514286Y-13181342D02*
X12209524Y-13181342D01*
X12971428Y-12838485D02*
X13009524Y-12800390D01*
X13009524Y-12800390D02*
X13085714Y-12762295D01*
X13085714Y-12762295D02*
X13276190Y-12762295D01*
X13276190Y-12762295D02*
X13352381Y-12800390D01*
X13352381Y-12800390D02*
X13390476Y-12838485D01*
X13390476Y-12838485D02*
X13428571Y-12914676D01*
X13428571Y-12914676D02*
X13428571Y-12990866D01*
X13428571Y-12990866D02*
X13390476Y-13105152D01*
X13390476Y-13105152D02*
X12933333Y-13562295D01*
X12933333Y-13562295D02*
X13428571Y-13562295D01*
X12266666Y-15062295D02*
X11809523Y-15062295D01*
X12038095Y-15062295D02*
X12038095Y-14262295D01*
X12038095Y-14262295D02*
X11961904Y-14376580D01*
X11961904Y-14376580D02*
X11885714Y-14452771D01*
X11885714Y-14452771D02*
X11809523Y-14490866D01*
X12761905Y-14262295D02*
X12838095Y-14262295D01*
X12838095Y-14262295D02*
X12914286Y-14300390D01*
X12914286Y-14300390D02*
X12952381Y-14338485D01*
X12952381Y-14338485D02*
X12990476Y-14414676D01*
X12990476Y-14414676D02*
X13028571Y-14567057D01*
X13028571Y-14567057D02*
X13028571Y-14757533D01*
X13028571Y-14757533D02*
X12990476Y-14909914D01*
X12990476Y-14909914D02*
X12952381Y-14986104D01*
X12952381Y-14986104D02*
X12914286Y-15024200D01*
X12914286Y-15024200D02*
X12838095Y-15062295D01*
X12838095Y-15062295D02*
X12761905Y-15062295D01*
X12761905Y-15062295D02*
X12685714Y-15024200D01*
X12685714Y-15024200D02*
X12647619Y-14986104D01*
X12647619Y-14986104D02*
X12609524Y-14909914D01*
X12609524Y-14909914D02*
X12571428Y-14757533D01*
X12571428Y-14757533D02*
X12571428Y-14567057D01*
X12571428Y-14567057D02*
X12609524Y-14414676D01*
X12609524Y-14414676D02*
X12647619Y-14338485D01*
X12647619Y-14338485D02*
X12685714Y-14300390D01*
X12685714Y-14300390D02*
X12761905Y-14262295D01*
X13790476Y-15062295D02*
X13333333Y-15062295D01*
X13561905Y-15062295D02*
X13561905Y-14262295D01*
X13561905Y-14262295D02*
X13485714Y-14376580D01*
X13485714Y-14376580D02*
X13409524Y-14452771D01*
X13409524Y-14452771D02*
X13333333Y-14490866D01*
X16197619Y-2286104D02*
X16159523Y-2324200D01*
X16159523Y-2324200D02*
X16045238Y-2362295D01*
X16045238Y-2362295D02*
X15969047Y-2362295D01*
X15969047Y-2362295D02*
X15854761Y-2324200D01*
X15854761Y-2324200D02*
X15778571Y-2248009D01*
X15778571Y-2248009D02*
X15740476Y-2171819D01*
X15740476Y-2171819D02*
X15702380Y-2019438D01*
X15702380Y-2019438D02*
X15702380Y-1905152D01*
X15702380Y-1905152D02*
X15740476Y-1752771D01*
X15740476Y-1752771D02*
X15778571Y-1676580D01*
X15778571Y-1676580D02*
X15854761Y-1600390D01*
X15854761Y-1600390D02*
X15969047Y-1562295D01*
X15969047Y-1562295D02*
X16045238Y-1562295D01*
X16045238Y-1562295D02*
X16159523Y-1600390D01*
X16159523Y-1600390D02*
X16197619Y-1638485D01*
X16540476Y-2362295D02*
X16540476Y-1562295D01*
X16540476Y-1943247D02*
X16997619Y-1943247D01*
X16997619Y-2362295D02*
X16997619Y-1562295D01*
X17797618Y-2362295D02*
X17340475Y-2362295D01*
X17569047Y-2362295D02*
X17569047Y-1562295D01*
X17569047Y-1562295D02*
X17492856Y-1676580D01*
X17492856Y-1676580D02*
X17416666Y-1752771D01*
X17416666Y-1752771D02*
X17340475Y-1790866D01*
X19166667Y-28786104D02*
X19128571Y-28824200D01*
X19128571Y-28824200D02*
X19014286Y-28862295D01*
X19014286Y-28862295D02*
X18938095Y-28862295D01*
X18938095Y-28862295D02*
X18823809Y-28824200D01*
X18823809Y-28824200D02*
X18747619Y-28748009D01*
X18747619Y-28748009D02*
X18709524Y-28671819D01*
X18709524Y-28671819D02*
X18671428Y-28519438D01*
X18671428Y-28519438D02*
X18671428Y-28405152D01*
X18671428Y-28405152D02*
X18709524Y-28252771D01*
X18709524Y-28252771D02*
X18747619Y-28176580D01*
X18747619Y-28176580D02*
X18823809Y-28100390D01*
X18823809Y-28100390D02*
X18938095Y-28062295D01*
X18938095Y-28062295D02*
X19014286Y-28062295D01*
X19014286Y-28062295D02*
X19128571Y-28100390D01*
X19128571Y-28100390D02*
X19166667Y-28138485D01*
X19928571Y-28862295D02*
X19471428Y-28862295D01*
X19700000Y-28862295D02*
X19700000Y-28062295D01*
X19700000Y-28062295D02*
X19623809Y-28176580D01*
X19623809Y-28176580D02*
X19547619Y-28252771D01*
X19547619Y-28252771D02*
X19471428Y-28290866D01*
X20566667Y-13562295D02*
X20300000Y-13181342D01*
X20109524Y-13562295D02*
X20109524Y-12762295D01*
X20109524Y-12762295D02*
X20414286Y-12762295D01*
X20414286Y-12762295D02*
X20490476Y-12800390D01*
X20490476Y-12800390D02*
X20528571Y-12838485D01*
X20528571Y-12838485D02*
X20566667Y-12914676D01*
X20566667Y-12914676D02*
X20566667Y-13028961D01*
X20566667Y-13028961D02*
X20528571Y-13105152D01*
X20528571Y-13105152D02*
X20490476Y-13143247D01*
X20490476Y-13143247D02*
X20414286Y-13181342D01*
X20414286Y-13181342D02*
X20109524Y-13181342D01*
X21328571Y-13562295D02*
X20871428Y-13562295D01*
X21100000Y-13562295D02*
X21100000Y-12762295D01*
X21100000Y-12762295D02*
X21023809Y-12876580D01*
X21023809Y-12876580D02*
X20947619Y-12952771D01*
X20947619Y-12952771D02*
X20871428Y-12990866D01*
X20166666Y-15062295D02*
X19709523Y-15062295D01*
X19938095Y-15062295D02*
X19938095Y-14262295D01*
X19938095Y-14262295D02*
X19861904Y-14376580D01*
X19861904Y-14376580D02*
X19785714Y-14452771D01*
X19785714Y-14452771D02*
X19709523Y-14490866D01*
X20661905Y-14262295D02*
X20738095Y-14262295D01*
X20738095Y-14262295D02*
X20814286Y-14300390D01*
X20814286Y-14300390D02*
X20852381Y-14338485D01*
X20852381Y-14338485D02*
X20890476Y-14414676D01*
X20890476Y-14414676D02*
X20928571Y-14567057D01*
X20928571Y-14567057D02*
X20928571Y-14757533D01*
X20928571Y-14757533D02*
X20890476Y-14909914D01*
X20890476Y-14909914D02*
X20852381Y-14986104D01*
X20852381Y-14986104D02*
X20814286Y-15024200D01*
X20814286Y-15024200D02*
X20738095Y-15062295D01*
X20738095Y-15062295D02*
X20661905Y-15062295D01*
X20661905Y-15062295D02*
X20585714Y-15024200D01*
X20585714Y-15024200D02*
X20547619Y-14986104D01*
X20547619Y-14986104D02*
X20509524Y-14909914D01*
X20509524Y-14909914D02*
X20471428Y-14757533D01*
X20471428Y-14757533D02*
X20471428Y-14567057D01*
X20471428Y-14567057D02*
X20509524Y-14414676D01*
X20509524Y-14414676D02*
X20547619Y-14338485D01*
X20547619Y-14338485D02*
X20585714Y-14300390D01*
X20585714Y-14300390D02*
X20661905Y-14262295D01*
X21690476Y-15062295D02*
X21233333Y-15062295D01*
X21461905Y-15062295D02*
X21461905Y-14262295D01*
X21461905Y-14262295D02*
X21385714Y-14376580D01*
X21385714Y-14376580D02*
X21309524Y-14452771D01*
X21309524Y-14452771D02*
X21233333Y-14490866D01*
X21890476Y-16362295D02*
X21890476Y-17009914D01*
X21890476Y-17009914D02*
X21928571Y-17086104D01*
X21928571Y-17086104D02*
X21966666Y-17124200D01*
X21966666Y-17124200D02*
X22042857Y-17162295D01*
X22042857Y-17162295D02*
X22195238Y-17162295D01*
X22195238Y-17162295D02*
X22271428Y-17124200D01*
X22271428Y-17124200D02*
X22309523Y-17086104D01*
X22309523Y-17086104D02*
X22347619Y-17009914D01*
X22347619Y-17009914D02*
X22347619Y-16362295D01*
X23147618Y-17162295D02*
X22690475Y-17162295D01*
X22919047Y-17162295D02*
X22919047Y-16362295D01*
X22919047Y-16362295D02*
X22842856Y-16476580D01*
X22842856Y-16476580D02*
X22766666Y-16552771D01*
X22766666Y-16552771D02*
X22690475Y-16590866D01*
X21973809Y-42562295D02*
X22430952Y-42562295D01*
X22202380Y-43362295D02*
X22202380Y-42562295D01*
X22697619Y-42943247D02*
X22964285Y-42943247D01*
X23078571Y-43362295D02*
X22697619Y-43362295D01*
X22697619Y-43362295D02*
X22697619Y-42562295D01*
X22697619Y-42562295D02*
X23078571Y-42562295D01*
X23383333Y-43324200D02*
X23497619Y-43362295D01*
X23497619Y-43362295D02*
X23688095Y-43362295D01*
X23688095Y-43362295D02*
X23764286Y-43324200D01*
X23764286Y-43324200D02*
X23802381Y-43286104D01*
X23802381Y-43286104D02*
X23840476Y-43209914D01*
X23840476Y-43209914D02*
X23840476Y-43133723D01*
X23840476Y-43133723D02*
X23802381Y-43057533D01*
X23802381Y-43057533D02*
X23764286Y-43019438D01*
X23764286Y-43019438D02*
X23688095Y-42981342D01*
X23688095Y-42981342D02*
X23535714Y-42943247D01*
X23535714Y-42943247D02*
X23459524Y-42905152D01*
X23459524Y-42905152D02*
X23421429Y-42867057D01*
X23421429Y-42867057D02*
X23383333Y-42790866D01*
X23383333Y-42790866D02*
X23383333Y-42714676D01*
X23383333Y-42714676D02*
X23421429Y-42638485D01*
X23421429Y-42638485D02*
X23459524Y-42600390D01*
X23459524Y-42600390D02*
X23535714Y-42562295D01*
X23535714Y-42562295D02*
X23726191Y-42562295D01*
X23726191Y-42562295D02*
X23840476Y-42600390D01*
X24069048Y-42562295D02*
X24526191Y-42562295D01*
X24297619Y-43362295D02*
X24297619Y-42562295D01*
X25466666Y-28862295D02*
X25009523Y-28862295D01*
X25238095Y-28862295D02*
X25238095Y-28062295D01*
X25238095Y-28062295D02*
X25161904Y-28176580D01*
X25161904Y-28176580D02*
X25085714Y-28252771D01*
X25085714Y-28252771D02*
X25009523Y-28290866D01*
X25961905Y-28062295D02*
X26038095Y-28062295D01*
X26038095Y-28062295D02*
X26114286Y-28100390D01*
X26114286Y-28100390D02*
X26152381Y-28138485D01*
X26152381Y-28138485D02*
X26190476Y-28214676D01*
X26190476Y-28214676D02*
X26228571Y-28367057D01*
X26228571Y-28367057D02*
X26228571Y-28557533D01*
X26228571Y-28557533D02*
X26190476Y-28709914D01*
X26190476Y-28709914D02*
X26152381Y-28786104D01*
X26152381Y-28786104D02*
X26114286Y-28824200D01*
X26114286Y-28824200D02*
X26038095Y-28862295D01*
X26038095Y-28862295D02*
X25961905Y-28862295D01*
X25961905Y-28862295D02*
X25885714Y-28824200D01*
X25885714Y-28824200D02*
X25847619Y-28786104D01*
X25847619Y-28786104D02*
X25809524Y-28709914D01*
X25809524Y-28709914D02*
X25771428Y-28557533D01*
X25771428Y-28557533D02*
X25771428Y-28367057D01*
X25771428Y-28367057D02*
X25809524Y-28214676D01*
X25809524Y-28214676D02*
X25847619Y-28138485D01*
X25847619Y-28138485D02*
X25885714Y-28100390D01*
X25885714Y-28100390D02*
X25961905Y-28062295D01*
X26914286Y-28328961D02*
X26914286Y-28862295D01*
X26723810Y-28024200D02*
X26533333Y-28595628D01*
X26533333Y-28595628D02*
X27028572Y-28595628D01*
X31666667Y-13562295D02*
X31400000Y-13181342D01*
X31209524Y-13562295D02*
X31209524Y-12762295D01*
X31209524Y-12762295D02*
X31514286Y-12762295D01*
X31514286Y-12762295D02*
X31590476Y-12800390D01*
X31590476Y-12800390D02*
X31628571Y-12838485D01*
X31628571Y-12838485D02*
X31666667Y-12914676D01*
X31666667Y-12914676D02*
X31666667Y-13028961D01*
X31666667Y-13028961D02*
X31628571Y-13105152D01*
X31628571Y-13105152D02*
X31590476Y-13143247D01*
X31590476Y-13143247D02*
X31514286Y-13181342D01*
X31514286Y-13181342D02*
X31209524Y-13181342D01*
X32352381Y-13028961D02*
X32352381Y-13562295D01*
X32161905Y-12724200D02*
X31971428Y-13295628D01*
X31971428Y-13295628D02*
X32466667Y-13295628D01*
X31266666Y-15062295D02*
X30809523Y-15062295D01*
X31038095Y-15062295D02*
X31038095Y-14262295D01*
X31038095Y-14262295D02*
X30961904Y-14376580D01*
X30961904Y-14376580D02*
X30885714Y-14452771D01*
X30885714Y-14452771D02*
X30809523Y-14490866D01*
X31761905Y-14262295D02*
X31838095Y-14262295D01*
X31838095Y-14262295D02*
X31914286Y-14300390D01*
X31914286Y-14300390D02*
X31952381Y-14338485D01*
X31952381Y-14338485D02*
X31990476Y-14414676D01*
X31990476Y-14414676D02*
X32028571Y-14567057D01*
X32028571Y-14567057D02*
X32028571Y-14757533D01*
X32028571Y-14757533D02*
X31990476Y-14909914D01*
X31990476Y-14909914D02*
X31952381Y-14986104D01*
X31952381Y-14986104D02*
X31914286Y-15024200D01*
X31914286Y-15024200D02*
X31838095Y-15062295D01*
X31838095Y-15062295D02*
X31761905Y-15062295D01*
X31761905Y-15062295D02*
X31685714Y-15024200D01*
X31685714Y-15024200D02*
X31647619Y-14986104D01*
X31647619Y-14986104D02*
X31609524Y-14909914D01*
X31609524Y-14909914D02*
X31571428Y-14757533D01*
X31571428Y-14757533D02*
X31571428Y-14567057D01*
X31571428Y-14567057D02*
X31609524Y-14414676D01*
X31609524Y-14414676D02*
X31647619Y-14338485D01*
X31647619Y-14338485D02*
X31685714Y-14300390D01*
X31685714Y-14300390D02*
X31761905Y-14262295D01*
X32790476Y-15062295D02*
X32333333Y-15062295D01*
X32561905Y-15062295D02*
X32561905Y-14262295D01*
X32561905Y-14262295D02*
X32485714Y-14376580D01*
X32485714Y-14376580D02*
X32409524Y-14452771D01*
X32409524Y-14452771D02*
X32333333Y-14490866D01*
X30631905Y-53362295D02*
X30631905Y-52562295D01*
X30631905Y-52943247D02*
X31089048Y-52943247D01*
X31089048Y-53362295D02*
X31089048Y-52562295D01*
X31470000Y-52943247D02*
X31736666Y-52943247D01*
X31850952Y-53362295D02*
X31470000Y-53362295D01*
X31470000Y-53362295D02*
X31470000Y-52562295D01*
X31470000Y-52562295D02*
X31850952Y-52562295D01*
X32155714Y-53133723D02*
X32536667Y-53133723D01*
X32079524Y-53362295D02*
X32346191Y-52562295D01*
X32346191Y-52562295D02*
X32612857Y-53362295D01*
X33336667Y-53362295D02*
X33070000Y-52981342D01*
X32879524Y-53362295D02*
X32879524Y-52562295D01*
X32879524Y-52562295D02*
X33184286Y-52562295D01*
X33184286Y-52562295D02*
X33260476Y-52600390D01*
X33260476Y-52600390D02*
X33298571Y-52638485D01*
X33298571Y-52638485D02*
X33336667Y-52714676D01*
X33336667Y-52714676D02*
X33336667Y-52828961D01*
X33336667Y-52828961D02*
X33298571Y-52905152D01*
X33298571Y-52905152D02*
X33260476Y-52943247D01*
X33260476Y-52943247D02*
X33184286Y-52981342D01*
X33184286Y-52981342D02*
X32879524Y-52981342D01*
X33565238Y-52562295D02*
X34022381Y-52562295D01*
X33793809Y-53362295D02*
X33793809Y-52562295D01*
X29952381Y-29862295D02*
X29952381Y-29062295D01*
X29952381Y-29443247D02*
X30409524Y-29443247D01*
X30409524Y-29862295D02*
X30409524Y-29062295D01*
X30790476Y-29443247D02*
X31057142Y-29443247D01*
X31171428Y-29862295D02*
X30790476Y-29862295D01*
X30790476Y-29862295D02*
X30790476Y-29062295D01*
X30790476Y-29062295D02*
X31171428Y-29062295D01*
X31476190Y-29633723D02*
X31857143Y-29633723D01*
X31400000Y-29862295D02*
X31666667Y-29062295D01*
X31666667Y-29062295D02*
X31933333Y-29862295D01*
X32657143Y-29862295D02*
X32390476Y-29481342D01*
X32200000Y-29862295D02*
X32200000Y-29062295D01*
X32200000Y-29062295D02*
X32504762Y-29062295D01*
X32504762Y-29062295D02*
X32580952Y-29100390D01*
X32580952Y-29100390D02*
X32619047Y-29138485D01*
X32619047Y-29138485D02*
X32657143Y-29214676D01*
X32657143Y-29214676D02*
X32657143Y-29328961D01*
X32657143Y-29328961D02*
X32619047Y-29405152D01*
X32619047Y-29405152D02*
X32580952Y-29443247D01*
X32580952Y-29443247D02*
X32504762Y-29481342D01*
X32504762Y-29481342D02*
X32200000Y-29481342D01*
X32885714Y-29062295D02*
X33342857Y-29062295D01*
X33114285Y-29862295D02*
X33114285Y-29062295D01*
X33876190Y-29443247D02*
X33990476Y-29481342D01*
X33990476Y-29481342D02*
X34028571Y-29519438D01*
X34028571Y-29519438D02*
X34066667Y-29595628D01*
X34066667Y-29595628D02*
X34066667Y-29709914D01*
X34066667Y-29709914D02*
X34028571Y-29786104D01*
X34028571Y-29786104D02*
X33990476Y-29824200D01*
X33990476Y-29824200D02*
X33914286Y-29862295D01*
X33914286Y-29862295D02*
X33609524Y-29862295D01*
X33609524Y-29862295D02*
X33609524Y-29062295D01*
X33609524Y-29062295D02*
X33876190Y-29062295D01*
X33876190Y-29062295D02*
X33952381Y-29100390D01*
X33952381Y-29100390D02*
X33990476Y-29138485D01*
X33990476Y-29138485D02*
X34028571Y-29214676D01*
X34028571Y-29214676D02*
X34028571Y-29290866D01*
X34028571Y-29290866D02*
X33990476Y-29367057D01*
X33990476Y-29367057D02*
X33952381Y-29405152D01*
X33952381Y-29405152D02*
X33876190Y-29443247D01*
X33876190Y-29443247D02*
X33609524Y-29443247D01*
X34409524Y-29443247D02*
X34676190Y-29443247D01*
X34790476Y-29862295D02*
X34409524Y-29862295D01*
X34409524Y-29862295D02*
X34409524Y-29062295D01*
X34409524Y-29062295D02*
X34790476Y-29062295D01*
X35095238Y-29633723D02*
X35476191Y-29633723D01*
X35019048Y-29862295D02*
X35285715Y-29062295D01*
X35285715Y-29062295D02*
X35552381Y-29862295D01*
X35704762Y-29062295D02*
X36161905Y-29062295D01*
X35933333Y-29862295D02*
X35933333Y-29062295D01*
X34485714Y-39862295D02*
X34219047Y-39481342D01*
X34028571Y-39862295D02*
X34028571Y-39062295D01*
X34028571Y-39062295D02*
X34333333Y-39062295D01*
X34333333Y-39062295D02*
X34409523Y-39100390D01*
X34409523Y-39100390D02*
X34447618Y-39138485D01*
X34447618Y-39138485D02*
X34485714Y-39214676D01*
X34485714Y-39214676D02*
X34485714Y-39328961D01*
X34485714Y-39328961D02*
X34447618Y-39405152D01*
X34447618Y-39405152D02*
X34409523Y-39443247D01*
X34409523Y-39443247D02*
X34333333Y-39481342D01*
X34333333Y-39481342D02*
X34028571Y-39481342D01*
X34790475Y-39138485D02*
X34828571Y-39100390D01*
X34828571Y-39100390D02*
X34904761Y-39062295D01*
X34904761Y-39062295D02*
X35095237Y-39062295D01*
X35095237Y-39062295D02*
X35171428Y-39100390D01*
X35171428Y-39100390D02*
X35209523Y-39138485D01*
X35209523Y-39138485D02*
X35247618Y-39214676D01*
X35247618Y-39214676D02*
X35247618Y-39290866D01*
X35247618Y-39290866D02*
X35209523Y-39405152D01*
X35209523Y-39405152D02*
X34752380Y-39862295D01*
X34752380Y-39862295D02*
X35247618Y-39862295D01*
X35742857Y-39062295D02*
X35819047Y-39062295D01*
X35819047Y-39062295D02*
X35895238Y-39100390D01*
X35895238Y-39100390D02*
X35933333Y-39138485D01*
X35933333Y-39138485D02*
X35971428Y-39214676D01*
X35971428Y-39214676D02*
X36009523Y-39367057D01*
X36009523Y-39367057D02*
X36009523Y-39557533D01*
X36009523Y-39557533D02*
X35971428Y-39709914D01*
X35971428Y-39709914D02*
X35933333Y-39786104D01*
X35933333Y-39786104D02*
X35895238Y-39824200D01*
X35895238Y-39824200D02*
X35819047Y-39862295D01*
X35819047Y-39862295D02*
X35742857Y-39862295D01*
X35742857Y-39862295D02*
X35666666Y-39824200D01*
X35666666Y-39824200D02*
X35628571Y-39786104D01*
X35628571Y-39786104D02*
X35590476Y-39709914D01*
X35590476Y-39709914D02*
X35552380Y-39557533D01*
X35552380Y-39557533D02*
X35552380Y-39367057D01*
X35552380Y-39367057D02*
X35590476Y-39214676D01*
X35590476Y-39214676D02*
X35628571Y-39138485D01*
X35628571Y-39138485D02*
X35666666Y-39100390D01*
X35666666Y-39100390D02*
X35742857Y-39062295D01*
X34009523Y-44138485D02*
X34047619Y-44100390D01*
X34047619Y-44100390D02*
X34123809Y-44062295D01*
X34123809Y-44062295D02*
X34314285Y-44062295D01*
X34314285Y-44062295D02*
X34390476Y-44100390D01*
X34390476Y-44100390D02*
X34428571Y-44138485D01*
X34428571Y-44138485D02*
X34466666Y-44214676D01*
X34466666Y-44214676D02*
X34466666Y-44290866D01*
X34466666Y-44290866D02*
X34428571Y-44405152D01*
X34428571Y-44405152D02*
X33971428Y-44862295D01*
X33971428Y-44862295D02*
X34466666Y-44862295D01*
X34771428Y-44138485D02*
X34809524Y-44100390D01*
X34809524Y-44100390D02*
X34885714Y-44062295D01*
X34885714Y-44062295D02*
X35076190Y-44062295D01*
X35076190Y-44062295D02*
X35152381Y-44100390D01*
X35152381Y-44100390D02*
X35190476Y-44138485D01*
X35190476Y-44138485D02*
X35228571Y-44214676D01*
X35228571Y-44214676D02*
X35228571Y-44290866D01*
X35228571Y-44290866D02*
X35190476Y-44405152D01*
X35190476Y-44405152D02*
X34733333Y-44862295D01*
X34733333Y-44862295D02*
X35228571Y-44862295D01*
X35533333Y-44138485D02*
X35571429Y-44100390D01*
X35571429Y-44100390D02*
X35647619Y-44062295D01*
X35647619Y-44062295D02*
X35838095Y-44062295D01*
X35838095Y-44062295D02*
X35914286Y-44100390D01*
X35914286Y-44100390D02*
X35952381Y-44138485D01*
X35952381Y-44138485D02*
X35990476Y-44214676D01*
X35990476Y-44214676D02*
X35990476Y-44290866D01*
X35990476Y-44290866D02*
X35952381Y-44405152D01*
X35952381Y-44405152D02*
X35495238Y-44862295D01*
X35495238Y-44862295D02*
X35990476Y-44862295D01*
X35197619Y-2286104D02*
X35159523Y-2324200D01*
X35159523Y-2324200D02*
X35045238Y-2362295D01*
X35045238Y-2362295D02*
X34969047Y-2362295D01*
X34969047Y-2362295D02*
X34854761Y-2324200D01*
X34854761Y-2324200D02*
X34778571Y-2248009D01*
X34778571Y-2248009D02*
X34740476Y-2171819D01*
X34740476Y-2171819D02*
X34702380Y-2019438D01*
X34702380Y-2019438D02*
X34702380Y-1905152D01*
X34702380Y-1905152D02*
X34740476Y-1752771D01*
X34740476Y-1752771D02*
X34778571Y-1676580D01*
X34778571Y-1676580D02*
X34854761Y-1600390D01*
X34854761Y-1600390D02*
X34969047Y-1562295D01*
X34969047Y-1562295D02*
X35045238Y-1562295D01*
X35045238Y-1562295D02*
X35159523Y-1600390D01*
X35159523Y-1600390D02*
X35197619Y-1638485D01*
X35540476Y-2362295D02*
X35540476Y-1562295D01*
X35540476Y-1943247D02*
X35997619Y-1943247D01*
X35997619Y-2362295D02*
X35997619Y-1562295D01*
X36340475Y-1638485D02*
X36378571Y-1600390D01*
X36378571Y-1600390D02*
X36454761Y-1562295D01*
X36454761Y-1562295D02*
X36645237Y-1562295D01*
X36645237Y-1562295D02*
X36721428Y-1600390D01*
X36721428Y-1600390D02*
X36759523Y-1638485D01*
X36759523Y-1638485D02*
X36797618Y-1714676D01*
X36797618Y-1714676D02*
X36797618Y-1790866D01*
X36797618Y-1790866D02*
X36759523Y-1905152D01*
X36759523Y-1905152D02*
X36302380Y-2362295D01*
X36302380Y-2362295D02*
X36797618Y-2362295D01*
X37485714Y-25862295D02*
X37219047Y-25481342D01*
X37028571Y-25862295D02*
X37028571Y-25062295D01*
X37028571Y-25062295D02*
X37333333Y-25062295D01*
X37333333Y-25062295D02*
X37409523Y-25100390D01*
X37409523Y-25100390D02*
X37447618Y-25138485D01*
X37447618Y-25138485D02*
X37485714Y-25214676D01*
X37485714Y-25214676D02*
X37485714Y-25328961D01*
X37485714Y-25328961D02*
X37447618Y-25405152D01*
X37447618Y-25405152D02*
X37409523Y-25443247D01*
X37409523Y-25443247D02*
X37333333Y-25481342D01*
X37333333Y-25481342D02*
X37028571Y-25481342D01*
X38247618Y-25862295D02*
X37790475Y-25862295D01*
X38019047Y-25862295D02*
X38019047Y-25062295D01*
X38019047Y-25062295D02*
X37942856Y-25176580D01*
X37942856Y-25176580D02*
X37866666Y-25252771D01*
X37866666Y-25252771D02*
X37790475Y-25290866D01*
X38514285Y-25062295D02*
X39009523Y-25062295D01*
X39009523Y-25062295D02*
X38742857Y-25367057D01*
X38742857Y-25367057D02*
X38857142Y-25367057D01*
X38857142Y-25367057D02*
X38933333Y-25405152D01*
X38933333Y-25405152D02*
X38971428Y-25443247D01*
X38971428Y-25443247D02*
X39009523Y-25519438D01*
X39009523Y-25519438D02*
X39009523Y-25709914D01*
X39009523Y-25709914D02*
X38971428Y-25786104D01*
X38971428Y-25786104D02*
X38933333Y-25824200D01*
X38933333Y-25824200D02*
X38857142Y-25862295D01*
X38857142Y-25862295D02*
X38628571Y-25862295D01*
X38628571Y-25862295D02*
X38552380Y-25824200D01*
X38552380Y-25824200D02*
X38514285Y-25786104D01*
X37466666Y-30862295D02*
X37009523Y-30862295D01*
X37238095Y-30862295D02*
X37238095Y-30062295D01*
X37238095Y-30062295D02*
X37161904Y-30176580D01*
X37161904Y-30176580D02*
X37085714Y-30252771D01*
X37085714Y-30252771D02*
X37009523Y-30290866D01*
X37961905Y-30062295D02*
X38038095Y-30062295D01*
X38038095Y-30062295D02*
X38114286Y-30100390D01*
X38114286Y-30100390D02*
X38152381Y-30138485D01*
X38152381Y-30138485D02*
X38190476Y-30214676D01*
X38190476Y-30214676D02*
X38228571Y-30367057D01*
X38228571Y-30367057D02*
X38228571Y-30557533D01*
X38228571Y-30557533D02*
X38190476Y-30709914D01*
X38190476Y-30709914D02*
X38152381Y-30786104D01*
X38152381Y-30786104D02*
X38114286Y-30824200D01*
X38114286Y-30824200D02*
X38038095Y-30862295D01*
X38038095Y-30862295D02*
X37961905Y-30862295D01*
X37961905Y-30862295D02*
X37885714Y-30824200D01*
X37885714Y-30824200D02*
X37847619Y-30786104D01*
X37847619Y-30786104D02*
X37809524Y-30709914D01*
X37809524Y-30709914D02*
X37771428Y-30557533D01*
X37771428Y-30557533D02*
X37771428Y-30367057D01*
X37771428Y-30367057D02*
X37809524Y-30214676D01*
X37809524Y-30214676D02*
X37847619Y-30138485D01*
X37847619Y-30138485D02*
X37885714Y-30100390D01*
X37885714Y-30100390D02*
X37961905Y-30062295D01*
X38495238Y-30062295D02*
X38990476Y-30062295D01*
X38990476Y-30062295D02*
X38723810Y-30367057D01*
X38723810Y-30367057D02*
X38838095Y-30367057D01*
X38838095Y-30367057D02*
X38914286Y-30405152D01*
X38914286Y-30405152D02*
X38952381Y-30443247D01*
X38952381Y-30443247D02*
X38990476Y-30519438D01*
X38990476Y-30519438D02*
X38990476Y-30709914D01*
X38990476Y-30709914D02*
X38952381Y-30786104D01*
X38952381Y-30786104D02*
X38914286Y-30824200D01*
X38914286Y-30824200D02*
X38838095Y-30862295D01*
X38838095Y-30862295D02*
X38609524Y-30862295D01*
X38609524Y-30862295D02*
X38533333Y-30824200D01*
X38533333Y-30824200D02*
X38495238Y-30786104D01*
X37242857Y-52943247D02*
X37509523Y-52943247D01*
X37623809Y-53362295D02*
X37242857Y-53362295D01*
X37242857Y-53362295D02*
X37242857Y-52562295D01*
X37242857Y-52562295D02*
X37623809Y-52562295D01*
X38119048Y-52981342D02*
X38119048Y-53362295D01*
X37852381Y-52562295D02*
X38119048Y-52981342D01*
X38119048Y-52981342D02*
X38385714Y-52562295D01*
X38652381Y-52943247D02*
X38919047Y-52943247D01*
X39033333Y-53362295D02*
X38652381Y-53362295D01*
X38652381Y-53362295D02*
X38652381Y-52562295D01*
X38652381Y-52562295D02*
X39033333Y-52562295D01*
X39338095Y-53324200D02*
X39452381Y-53362295D01*
X39452381Y-53362295D02*
X39642857Y-53362295D01*
X39642857Y-53362295D02*
X39719048Y-53324200D01*
X39719048Y-53324200D02*
X39757143Y-53286104D01*
X39757143Y-53286104D02*
X39795238Y-53209914D01*
X39795238Y-53209914D02*
X39795238Y-53133723D01*
X39795238Y-53133723D02*
X39757143Y-53057533D01*
X39757143Y-53057533D02*
X39719048Y-53019438D01*
X39719048Y-53019438D02*
X39642857Y-52981342D01*
X39642857Y-52981342D02*
X39490476Y-52943247D01*
X39490476Y-52943247D02*
X39414286Y-52905152D01*
X39414286Y-52905152D02*
X39376191Y-52867057D01*
X39376191Y-52867057D02*
X39338095Y-52790866D01*
X39338095Y-52790866D02*
X39338095Y-52714676D01*
X39338095Y-52714676D02*
X39376191Y-52638485D01*
X39376191Y-52638485D02*
X39414286Y-52600390D01*
X39414286Y-52600390D02*
X39490476Y-52562295D01*
X39490476Y-52562295D02*
X39680953Y-52562295D01*
X39680953Y-52562295D02*
X39795238Y-52600390D01*
X38485714Y-39862295D02*
X38219047Y-39481342D01*
X38028571Y-39862295D02*
X38028571Y-39062295D01*
X38028571Y-39062295D02*
X38333333Y-39062295D01*
X38333333Y-39062295D02*
X38409523Y-39100390D01*
X38409523Y-39100390D02*
X38447618Y-39138485D01*
X38447618Y-39138485D02*
X38485714Y-39214676D01*
X38485714Y-39214676D02*
X38485714Y-39328961D01*
X38485714Y-39328961D02*
X38447618Y-39405152D01*
X38447618Y-39405152D02*
X38409523Y-39443247D01*
X38409523Y-39443247D02*
X38333333Y-39481342D01*
X38333333Y-39481342D02*
X38028571Y-39481342D01*
X39247618Y-39862295D02*
X38790475Y-39862295D01*
X39019047Y-39862295D02*
X39019047Y-39062295D01*
X39019047Y-39062295D02*
X38942856Y-39176580D01*
X38942856Y-39176580D02*
X38866666Y-39252771D01*
X38866666Y-39252771D02*
X38790475Y-39290866D01*
X39933333Y-39062295D02*
X39780952Y-39062295D01*
X39780952Y-39062295D02*
X39704761Y-39100390D01*
X39704761Y-39100390D02*
X39666666Y-39138485D01*
X39666666Y-39138485D02*
X39590476Y-39252771D01*
X39590476Y-39252771D02*
X39552380Y-39405152D01*
X39552380Y-39405152D02*
X39552380Y-39709914D01*
X39552380Y-39709914D02*
X39590476Y-39786104D01*
X39590476Y-39786104D02*
X39628571Y-39824200D01*
X39628571Y-39824200D02*
X39704761Y-39862295D01*
X39704761Y-39862295D02*
X39857142Y-39862295D01*
X39857142Y-39862295D02*
X39933333Y-39824200D01*
X39933333Y-39824200D02*
X39971428Y-39786104D01*
X39971428Y-39786104D02*
X40009523Y-39709914D01*
X40009523Y-39709914D02*
X40009523Y-39519438D01*
X40009523Y-39519438D02*
X39971428Y-39443247D01*
X39971428Y-39443247D02*
X39933333Y-39405152D01*
X39933333Y-39405152D02*
X39857142Y-39367057D01*
X39857142Y-39367057D02*
X39704761Y-39367057D01*
X39704761Y-39367057D02*
X39628571Y-39405152D01*
X39628571Y-39405152D02*
X39590476Y-39443247D01*
X39590476Y-39443247D02*
X39552380Y-39519438D01*
X38466666Y-44862295D02*
X38009523Y-44862295D01*
X38238095Y-44862295D02*
X38238095Y-44062295D01*
X38238095Y-44062295D02*
X38161904Y-44176580D01*
X38161904Y-44176580D02*
X38085714Y-44252771D01*
X38085714Y-44252771D02*
X38009523Y-44290866D01*
X38961905Y-44062295D02*
X39038095Y-44062295D01*
X39038095Y-44062295D02*
X39114286Y-44100390D01*
X39114286Y-44100390D02*
X39152381Y-44138485D01*
X39152381Y-44138485D02*
X39190476Y-44214676D01*
X39190476Y-44214676D02*
X39228571Y-44367057D01*
X39228571Y-44367057D02*
X39228571Y-44557533D01*
X39228571Y-44557533D02*
X39190476Y-44709914D01*
X39190476Y-44709914D02*
X39152381Y-44786104D01*
X39152381Y-44786104D02*
X39114286Y-44824200D01*
X39114286Y-44824200D02*
X39038095Y-44862295D01*
X39038095Y-44862295D02*
X38961905Y-44862295D01*
X38961905Y-44862295D02*
X38885714Y-44824200D01*
X38885714Y-44824200D02*
X38847619Y-44786104D01*
X38847619Y-44786104D02*
X38809524Y-44709914D01*
X38809524Y-44709914D02*
X38771428Y-44557533D01*
X38771428Y-44557533D02*
X38771428Y-44367057D01*
X38771428Y-44367057D02*
X38809524Y-44214676D01*
X38809524Y-44214676D02*
X38847619Y-44138485D01*
X38847619Y-44138485D02*
X38885714Y-44100390D01*
X38885714Y-44100390D02*
X38961905Y-44062295D01*
X39495238Y-44062295D02*
X39990476Y-44062295D01*
X39990476Y-44062295D02*
X39723810Y-44367057D01*
X39723810Y-44367057D02*
X39838095Y-44367057D01*
X39838095Y-44367057D02*
X39914286Y-44405152D01*
X39914286Y-44405152D02*
X39952381Y-44443247D01*
X39952381Y-44443247D02*
X39990476Y-44519438D01*
X39990476Y-44519438D02*
X39990476Y-44709914D01*
X39990476Y-44709914D02*
X39952381Y-44786104D01*
X39952381Y-44786104D02*
X39914286Y-44824200D01*
X39914286Y-44824200D02*
X39838095Y-44862295D01*
X39838095Y-44862295D02*
X39609524Y-44862295D01*
X39609524Y-44862295D02*
X39533333Y-44824200D01*
X39533333Y-44824200D02*
X39495238Y-44786104D01*
X39566667Y-13562295D02*
X39300000Y-13181342D01*
X39109524Y-13562295D02*
X39109524Y-12762295D01*
X39109524Y-12762295D02*
X39414286Y-12762295D01*
X39414286Y-12762295D02*
X39490476Y-12800390D01*
X39490476Y-12800390D02*
X39528571Y-12838485D01*
X39528571Y-12838485D02*
X39566667Y-12914676D01*
X39566667Y-12914676D02*
X39566667Y-13028961D01*
X39566667Y-13028961D02*
X39528571Y-13105152D01*
X39528571Y-13105152D02*
X39490476Y-13143247D01*
X39490476Y-13143247D02*
X39414286Y-13181342D01*
X39414286Y-13181342D02*
X39109524Y-13181342D01*
X39833333Y-12762295D02*
X40328571Y-12762295D01*
X40328571Y-12762295D02*
X40061905Y-13067057D01*
X40061905Y-13067057D02*
X40176190Y-13067057D01*
X40176190Y-13067057D02*
X40252381Y-13105152D01*
X40252381Y-13105152D02*
X40290476Y-13143247D01*
X40290476Y-13143247D02*
X40328571Y-13219438D01*
X40328571Y-13219438D02*
X40328571Y-13409914D01*
X40328571Y-13409914D02*
X40290476Y-13486104D01*
X40290476Y-13486104D02*
X40252381Y-13524200D01*
X40252381Y-13524200D02*
X40176190Y-13562295D01*
X40176190Y-13562295D02*
X39947619Y-13562295D01*
X39947619Y-13562295D02*
X39871428Y-13524200D01*
X39871428Y-13524200D02*
X39833333Y-13486104D01*
X39166666Y-15062295D02*
X38709523Y-15062295D01*
X38938095Y-15062295D02*
X38938095Y-14262295D01*
X38938095Y-14262295D02*
X38861904Y-14376580D01*
X38861904Y-14376580D02*
X38785714Y-14452771D01*
X38785714Y-14452771D02*
X38709523Y-14490866D01*
X39661905Y-14262295D02*
X39738095Y-14262295D01*
X39738095Y-14262295D02*
X39814286Y-14300390D01*
X39814286Y-14300390D02*
X39852381Y-14338485D01*
X39852381Y-14338485D02*
X39890476Y-14414676D01*
X39890476Y-14414676D02*
X39928571Y-14567057D01*
X39928571Y-14567057D02*
X39928571Y-14757533D01*
X39928571Y-14757533D02*
X39890476Y-14909914D01*
X39890476Y-14909914D02*
X39852381Y-14986104D01*
X39852381Y-14986104D02*
X39814286Y-15024200D01*
X39814286Y-15024200D02*
X39738095Y-15062295D01*
X39738095Y-15062295D02*
X39661905Y-15062295D01*
X39661905Y-15062295D02*
X39585714Y-15024200D01*
X39585714Y-15024200D02*
X39547619Y-14986104D01*
X39547619Y-14986104D02*
X39509524Y-14909914D01*
X39509524Y-14909914D02*
X39471428Y-14757533D01*
X39471428Y-14757533D02*
X39471428Y-14567057D01*
X39471428Y-14567057D02*
X39509524Y-14414676D01*
X39509524Y-14414676D02*
X39547619Y-14338485D01*
X39547619Y-14338485D02*
X39585714Y-14300390D01*
X39585714Y-14300390D02*
X39661905Y-14262295D01*
X40690476Y-15062295D02*
X40233333Y-15062295D01*
X40461905Y-15062295D02*
X40461905Y-14262295D01*
X40461905Y-14262295D02*
X40385714Y-14376580D01*
X40385714Y-14376580D02*
X40309524Y-14452771D01*
X40309524Y-14452771D02*
X40233333Y-14490866D01*
X41485714Y-25862295D02*
X41219047Y-25481342D01*
X41028571Y-25862295D02*
X41028571Y-25062295D01*
X41028571Y-25062295D02*
X41333333Y-25062295D01*
X41333333Y-25062295D02*
X41409523Y-25100390D01*
X41409523Y-25100390D02*
X41447618Y-25138485D01*
X41447618Y-25138485D02*
X41485714Y-25214676D01*
X41485714Y-25214676D02*
X41485714Y-25328961D01*
X41485714Y-25328961D02*
X41447618Y-25405152D01*
X41447618Y-25405152D02*
X41409523Y-25443247D01*
X41409523Y-25443247D02*
X41333333Y-25481342D01*
X41333333Y-25481342D02*
X41028571Y-25481342D01*
X42247618Y-25862295D02*
X41790475Y-25862295D01*
X42019047Y-25862295D02*
X42019047Y-25062295D01*
X42019047Y-25062295D02*
X41942856Y-25176580D01*
X41942856Y-25176580D02*
X41866666Y-25252771D01*
X41866666Y-25252771D02*
X41790475Y-25290866D01*
X42933333Y-25328961D02*
X42933333Y-25862295D01*
X42742857Y-25024200D02*
X42552380Y-25595628D01*
X42552380Y-25595628D02*
X43047619Y-25595628D01*
X41466666Y-30862295D02*
X41009523Y-30862295D01*
X41238095Y-30862295D02*
X41238095Y-30062295D01*
X41238095Y-30062295D02*
X41161904Y-30176580D01*
X41161904Y-30176580D02*
X41085714Y-30252771D01*
X41085714Y-30252771D02*
X41009523Y-30290866D01*
X41961905Y-30062295D02*
X42038095Y-30062295D01*
X42038095Y-30062295D02*
X42114286Y-30100390D01*
X42114286Y-30100390D02*
X42152381Y-30138485D01*
X42152381Y-30138485D02*
X42190476Y-30214676D01*
X42190476Y-30214676D02*
X42228571Y-30367057D01*
X42228571Y-30367057D02*
X42228571Y-30557533D01*
X42228571Y-30557533D02*
X42190476Y-30709914D01*
X42190476Y-30709914D02*
X42152381Y-30786104D01*
X42152381Y-30786104D02*
X42114286Y-30824200D01*
X42114286Y-30824200D02*
X42038095Y-30862295D01*
X42038095Y-30862295D02*
X41961905Y-30862295D01*
X41961905Y-30862295D02*
X41885714Y-30824200D01*
X41885714Y-30824200D02*
X41847619Y-30786104D01*
X41847619Y-30786104D02*
X41809524Y-30709914D01*
X41809524Y-30709914D02*
X41771428Y-30557533D01*
X41771428Y-30557533D02*
X41771428Y-30367057D01*
X41771428Y-30367057D02*
X41809524Y-30214676D01*
X41809524Y-30214676D02*
X41847619Y-30138485D01*
X41847619Y-30138485D02*
X41885714Y-30100390D01*
X41885714Y-30100390D02*
X41961905Y-30062295D01*
X42495238Y-30062295D02*
X42990476Y-30062295D01*
X42990476Y-30062295D02*
X42723810Y-30367057D01*
X42723810Y-30367057D02*
X42838095Y-30367057D01*
X42838095Y-30367057D02*
X42914286Y-30405152D01*
X42914286Y-30405152D02*
X42952381Y-30443247D01*
X42952381Y-30443247D02*
X42990476Y-30519438D01*
X42990476Y-30519438D02*
X42990476Y-30709914D01*
X42990476Y-30709914D02*
X42952381Y-30786104D01*
X42952381Y-30786104D02*
X42914286Y-30824200D01*
X42914286Y-30824200D02*
X42838095Y-30862295D01*
X42838095Y-30862295D02*
X42609524Y-30862295D01*
X42609524Y-30862295D02*
X42533333Y-30824200D01*
X42533333Y-30824200D02*
X42495238Y-30786104D01*
X42485714Y-39862295D02*
X42219047Y-39481342D01*
X42028571Y-39862295D02*
X42028571Y-39062295D01*
X42028571Y-39062295D02*
X42333333Y-39062295D01*
X42333333Y-39062295D02*
X42409523Y-39100390D01*
X42409523Y-39100390D02*
X42447618Y-39138485D01*
X42447618Y-39138485D02*
X42485714Y-39214676D01*
X42485714Y-39214676D02*
X42485714Y-39328961D01*
X42485714Y-39328961D02*
X42447618Y-39405152D01*
X42447618Y-39405152D02*
X42409523Y-39443247D01*
X42409523Y-39443247D02*
X42333333Y-39481342D01*
X42333333Y-39481342D02*
X42028571Y-39481342D01*
X43247618Y-39862295D02*
X42790475Y-39862295D01*
X43019047Y-39862295D02*
X43019047Y-39062295D01*
X43019047Y-39062295D02*
X42942856Y-39176580D01*
X42942856Y-39176580D02*
X42866666Y-39252771D01*
X42866666Y-39252771D02*
X42790475Y-39290866D01*
X43514285Y-39062295D02*
X44047619Y-39062295D01*
X44047619Y-39062295D02*
X43704761Y-39862295D01*
X42466666Y-44862295D02*
X42009523Y-44862295D01*
X42238095Y-44862295D02*
X42238095Y-44062295D01*
X42238095Y-44062295D02*
X42161904Y-44176580D01*
X42161904Y-44176580D02*
X42085714Y-44252771D01*
X42085714Y-44252771D02*
X42009523Y-44290866D01*
X42961905Y-44062295D02*
X43038095Y-44062295D01*
X43038095Y-44062295D02*
X43114286Y-44100390D01*
X43114286Y-44100390D02*
X43152381Y-44138485D01*
X43152381Y-44138485D02*
X43190476Y-44214676D01*
X43190476Y-44214676D02*
X43228571Y-44367057D01*
X43228571Y-44367057D02*
X43228571Y-44557533D01*
X43228571Y-44557533D02*
X43190476Y-44709914D01*
X43190476Y-44709914D02*
X43152381Y-44786104D01*
X43152381Y-44786104D02*
X43114286Y-44824200D01*
X43114286Y-44824200D02*
X43038095Y-44862295D01*
X43038095Y-44862295D02*
X42961905Y-44862295D01*
X42961905Y-44862295D02*
X42885714Y-44824200D01*
X42885714Y-44824200D02*
X42847619Y-44786104D01*
X42847619Y-44786104D02*
X42809524Y-44709914D01*
X42809524Y-44709914D02*
X42771428Y-44557533D01*
X42771428Y-44557533D02*
X42771428Y-44367057D01*
X42771428Y-44367057D02*
X42809524Y-44214676D01*
X42809524Y-44214676D02*
X42847619Y-44138485D01*
X42847619Y-44138485D02*
X42885714Y-44100390D01*
X42885714Y-44100390D02*
X42961905Y-44062295D01*
X43495238Y-44062295D02*
X43990476Y-44062295D01*
X43990476Y-44062295D02*
X43723810Y-44367057D01*
X43723810Y-44367057D02*
X43838095Y-44367057D01*
X43838095Y-44367057D02*
X43914286Y-44405152D01*
X43914286Y-44405152D02*
X43952381Y-44443247D01*
X43952381Y-44443247D02*
X43990476Y-44519438D01*
X43990476Y-44519438D02*
X43990476Y-44709914D01*
X43990476Y-44709914D02*
X43952381Y-44786104D01*
X43952381Y-44786104D02*
X43914286Y-44824200D01*
X43914286Y-44824200D02*
X43838095Y-44862295D01*
X43838095Y-44862295D02*
X43609524Y-44862295D01*
X43609524Y-44862295D02*
X43533333Y-44824200D01*
X43533333Y-44824200D02*
X43495238Y-44786104D01*
X45485714Y-25862295D02*
X45219047Y-25481342D01*
X45028571Y-25862295D02*
X45028571Y-25062295D01*
X45028571Y-25062295D02*
X45333333Y-25062295D01*
X45333333Y-25062295D02*
X45409523Y-25100390D01*
X45409523Y-25100390D02*
X45447618Y-25138485D01*
X45447618Y-25138485D02*
X45485714Y-25214676D01*
X45485714Y-25214676D02*
X45485714Y-25328961D01*
X45485714Y-25328961D02*
X45447618Y-25405152D01*
X45447618Y-25405152D02*
X45409523Y-25443247D01*
X45409523Y-25443247D02*
X45333333Y-25481342D01*
X45333333Y-25481342D02*
X45028571Y-25481342D01*
X46247618Y-25862295D02*
X45790475Y-25862295D01*
X46019047Y-25862295D02*
X46019047Y-25062295D01*
X46019047Y-25062295D02*
X45942856Y-25176580D01*
X45942856Y-25176580D02*
X45866666Y-25252771D01*
X45866666Y-25252771D02*
X45790475Y-25290866D01*
X46971428Y-25062295D02*
X46590476Y-25062295D01*
X46590476Y-25062295D02*
X46552380Y-25443247D01*
X46552380Y-25443247D02*
X46590476Y-25405152D01*
X46590476Y-25405152D02*
X46666666Y-25367057D01*
X46666666Y-25367057D02*
X46857142Y-25367057D01*
X46857142Y-25367057D02*
X46933333Y-25405152D01*
X46933333Y-25405152D02*
X46971428Y-25443247D01*
X46971428Y-25443247D02*
X47009523Y-25519438D01*
X47009523Y-25519438D02*
X47009523Y-25709914D01*
X47009523Y-25709914D02*
X46971428Y-25786104D01*
X46971428Y-25786104D02*
X46933333Y-25824200D01*
X46933333Y-25824200D02*
X46857142Y-25862295D01*
X46857142Y-25862295D02*
X46666666Y-25862295D01*
X46666666Y-25862295D02*
X46590476Y-25824200D01*
X46590476Y-25824200D02*
X46552380Y-25786104D01*
X45466666Y-30862295D02*
X45009523Y-30862295D01*
X45238095Y-30862295D02*
X45238095Y-30062295D01*
X45238095Y-30062295D02*
X45161904Y-30176580D01*
X45161904Y-30176580D02*
X45085714Y-30252771D01*
X45085714Y-30252771D02*
X45009523Y-30290866D01*
X45961905Y-30062295D02*
X46038095Y-30062295D01*
X46038095Y-30062295D02*
X46114286Y-30100390D01*
X46114286Y-30100390D02*
X46152381Y-30138485D01*
X46152381Y-30138485D02*
X46190476Y-30214676D01*
X46190476Y-30214676D02*
X46228571Y-30367057D01*
X46228571Y-30367057D02*
X46228571Y-30557533D01*
X46228571Y-30557533D02*
X46190476Y-30709914D01*
X46190476Y-30709914D02*
X46152381Y-30786104D01*
X46152381Y-30786104D02*
X46114286Y-30824200D01*
X46114286Y-30824200D02*
X46038095Y-30862295D01*
X46038095Y-30862295D02*
X45961905Y-30862295D01*
X45961905Y-30862295D02*
X45885714Y-30824200D01*
X45885714Y-30824200D02*
X45847619Y-30786104D01*
X45847619Y-30786104D02*
X45809524Y-30709914D01*
X45809524Y-30709914D02*
X45771428Y-30557533D01*
X45771428Y-30557533D02*
X45771428Y-30367057D01*
X45771428Y-30367057D02*
X45809524Y-30214676D01*
X45809524Y-30214676D02*
X45847619Y-30138485D01*
X45847619Y-30138485D02*
X45885714Y-30100390D01*
X45885714Y-30100390D02*
X45961905Y-30062295D01*
X46914286Y-30328961D02*
X46914286Y-30862295D01*
X46723810Y-30024200D02*
X46533333Y-30595628D01*
X46533333Y-30595628D02*
X47028572Y-30595628D01*
X46485714Y-39862295D02*
X46219047Y-39481342D01*
X46028571Y-39862295D02*
X46028571Y-39062295D01*
X46028571Y-39062295D02*
X46333333Y-39062295D01*
X46333333Y-39062295D02*
X46409523Y-39100390D01*
X46409523Y-39100390D02*
X46447618Y-39138485D01*
X46447618Y-39138485D02*
X46485714Y-39214676D01*
X46485714Y-39214676D02*
X46485714Y-39328961D01*
X46485714Y-39328961D02*
X46447618Y-39405152D01*
X46447618Y-39405152D02*
X46409523Y-39443247D01*
X46409523Y-39443247D02*
X46333333Y-39481342D01*
X46333333Y-39481342D02*
X46028571Y-39481342D01*
X47247618Y-39862295D02*
X46790475Y-39862295D01*
X47019047Y-39862295D02*
X47019047Y-39062295D01*
X47019047Y-39062295D02*
X46942856Y-39176580D01*
X46942856Y-39176580D02*
X46866666Y-39252771D01*
X46866666Y-39252771D02*
X46790475Y-39290866D01*
X47704761Y-39405152D02*
X47628571Y-39367057D01*
X47628571Y-39367057D02*
X47590476Y-39328961D01*
X47590476Y-39328961D02*
X47552380Y-39252771D01*
X47552380Y-39252771D02*
X47552380Y-39214676D01*
X47552380Y-39214676D02*
X47590476Y-39138485D01*
X47590476Y-39138485D02*
X47628571Y-39100390D01*
X47628571Y-39100390D02*
X47704761Y-39062295D01*
X47704761Y-39062295D02*
X47857142Y-39062295D01*
X47857142Y-39062295D02*
X47933333Y-39100390D01*
X47933333Y-39100390D02*
X47971428Y-39138485D01*
X47971428Y-39138485D02*
X48009523Y-39214676D01*
X48009523Y-39214676D02*
X48009523Y-39252771D01*
X48009523Y-39252771D02*
X47971428Y-39328961D01*
X47971428Y-39328961D02*
X47933333Y-39367057D01*
X47933333Y-39367057D02*
X47857142Y-39405152D01*
X47857142Y-39405152D02*
X47704761Y-39405152D01*
X47704761Y-39405152D02*
X47628571Y-39443247D01*
X47628571Y-39443247D02*
X47590476Y-39481342D01*
X47590476Y-39481342D02*
X47552380Y-39557533D01*
X47552380Y-39557533D02*
X47552380Y-39709914D01*
X47552380Y-39709914D02*
X47590476Y-39786104D01*
X47590476Y-39786104D02*
X47628571Y-39824200D01*
X47628571Y-39824200D02*
X47704761Y-39862295D01*
X47704761Y-39862295D02*
X47857142Y-39862295D01*
X47857142Y-39862295D02*
X47933333Y-39824200D01*
X47933333Y-39824200D02*
X47971428Y-39786104D01*
X47971428Y-39786104D02*
X48009523Y-39709914D01*
X48009523Y-39709914D02*
X48009523Y-39557533D01*
X48009523Y-39557533D02*
X47971428Y-39481342D01*
X47971428Y-39481342D02*
X47933333Y-39443247D01*
X47933333Y-39443247D02*
X47857142Y-39405152D01*
X46009523Y-44138485D02*
X46047619Y-44100390D01*
X46047619Y-44100390D02*
X46123809Y-44062295D01*
X46123809Y-44062295D02*
X46314285Y-44062295D01*
X46314285Y-44062295D02*
X46390476Y-44100390D01*
X46390476Y-44100390D02*
X46428571Y-44138485D01*
X46428571Y-44138485D02*
X46466666Y-44214676D01*
X46466666Y-44214676D02*
X46466666Y-44290866D01*
X46466666Y-44290866D02*
X46428571Y-44405152D01*
X46428571Y-44405152D02*
X45971428Y-44862295D01*
X45971428Y-44862295D02*
X46466666Y-44862295D01*
X46961905Y-44062295D02*
X47038095Y-44062295D01*
X47038095Y-44062295D02*
X47114286Y-44100390D01*
X47114286Y-44100390D02*
X47152381Y-44138485D01*
X47152381Y-44138485D02*
X47190476Y-44214676D01*
X47190476Y-44214676D02*
X47228571Y-44367057D01*
X47228571Y-44367057D02*
X47228571Y-44557533D01*
X47228571Y-44557533D02*
X47190476Y-44709914D01*
X47190476Y-44709914D02*
X47152381Y-44786104D01*
X47152381Y-44786104D02*
X47114286Y-44824200D01*
X47114286Y-44824200D02*
X47038095Y-44862295D01*
X47038095Y-44862295D02*
X46961905Y-44862295D01*
X46961905Y-44862295D02*
X46885714Y-44824200D01*
X46885714Y-44824200D02*
X46847619Y-44786104D01*
X46847619Y-44786104D02*
X46809524Y-44709914D01*
X46809524Y-44709914D02*
X46771428Y-44557533D01*
X46771428Y-44557533D02*
X46771428Y-44367057D01*
X46771428Y-44367057D02*
X46809524Y-44214676D01*
X46809524Y-44214676D02*
X46847619Y-44138485D01*
X46847619Y-44138485D02*
X46885714Y-44100390D01*
X46885714Y-44100390D02*
X46961905Y-44062295D01*
X47495238Y-44062295D02*
X47990476Y-44062295D01*
X47990476Y-44062295D02*
X47723810Y-44367057D01*
X47723810Y-44367057D02*
X47838095Y-44367057D01*
X47838095Y-44367057D02*
X47914286Y-44405152D01*
X47914286Y-44405152D02*
X47952381Y-44443247D01*
X47952381Y-44443247D02*
X47990476Y-44519438D01*
X47990476Y-44519438D02*
X47990476Y-44709914D01*
X47990476Y-44709914D02*
X47952381Y-44786104D01*
X47952381Y-44786104D02*
X47914286Y-44824200D01*
X47914286Y-44824200D02*
X47838095Y-44862295D01*
X47838095Y-44862295D02*
X47609524Y-44862295D01*
X47609524Y-44862295D02*
X47533333Y-44824200D01*
X47533333Y-44824200D02*
X47495238Y-44786104D01*
X46671429Y-53362295D02*
X46671429Y-52562295D01*
X46671429Y-52562295D02*
X46938095Y-53133723D01*
X46938095Y-53133723D02*
X47204762Y-52562295D01*
X47204762Y-52562295D02*
X47204762Y-53362295D01*
X47738096Y-52562295D02*
X47890477Y-52562295D01*
X47890477Y-52562295D02*
X47966667Y-52600390D01*
X47966667Y-52600390D02*
X48042858Y-52676580D01*
X48042858Y-52676580D02*
X48080953Y-52828961D01*
X48080953Y-52828961D02*
X48080953Y-53095628D01*
X48080953Y-53095628D02*
X48042858Y-53248009D01*
X48042858Y-53248009D02*
X47966667Y-53324200D01*
X47966667Y-53324200D02*
X47890477Y-53362295D01*
X47890477Y-53362295D02*
X47738096Y-53362295D01*
X47738096Y-53362295D02*
X47661905Y-53324200D01*
X47661905Y-53324200D02*
X47585715Y-53248009D01*
X47585715Y-53248009D02*
X47547619Y-53095628D01*
X47547619Y-53095628D02*
X47547619Y-52828961D01*
X47547619Y-52828961D02*
X47585715Y-52676580D01*
X47585715Y-52676580D02*
X47661905Y-52600390D01*
X47661905Y-52600390D02*
X47738096Y-52562295D01*
X48423810Y-52562295D02*
X48423810Y-53209914D01*
X48423810Y-53209914D02*
X48461905Y-53286104D01*
X48461905Y-53286104D02*
X48500000Y-53324200D01*
X48500000Y-53324200D02*
X48576191Y-53362295D01*
X48576191Y-53362295D02*
X48728572Y-53362295D01*
X48728572Y-53362295D02*
X48804762Y-53324200D01*
X48804762Y-53324200D02*
X48842857Y-53286104D01*
X48842857Y-53286104D02*
X48880953Y-53209914D01*
X48880953Y-53209914D02*
X48880953Y-52562295D01*
X49147619Y-52562295D02*
X49604762Y-52562295D01*
X49376190Y-53362295D02*
X49376190Y-52562295D01*
X49871429Y-53362295D02*
X49871429Y-52562295D01*
X49871429Y-52943247D02*
X50328572Y-52943247D01*
X50328572Y-53362295D02*
X50328572Y-52562295D01*
X46295237Y-34438485D02*
X46219047Y-34400390D01*
X46219047Y-34400390D02*
X46142856Y-34324200D01*
X46142856Y-34324200D02*
X46028570Y-34209914D01*
X46028570Y-34209914D02*
X45952380Y-34171819D01*
X45952380Y-34171819D02*
X45876189Y-34171819D01*
X45914285Y-34362295D02*
X45838094Y-34324200D01*
X45838094Y-34324200D02*
X45761904Y-34248009D01*
X45761904Y-34248009D02*
X45723808Y-34095628D01*
X45723808Y-34095628D02*
X45723808Y-33828961D01*
X45723808Y-33828961D02*
X45761904Y-33676580D01*
X45761904Y-33676580D02*
X45838094Y-33600390D01*
X45838094Y-33600390D02*
X45914285Y-33562295D01*
X45914285Y-33562295D02*
X46066666Y-33562295D01*
X46066666Y-33562295D02*
X46142856Y-33600390D01*
X46142856Y-33600390D02*
X46219047Y-33676580D01*
X46219047Y-33676580D02*
X46257142Y-33828961D01*
X46257142Y-33828961D02*
X46257142Y-34095628D01*
X46257142Y-34095628D02*
X46219047Y-34248009D01*
X46219047Y-34248009D02*
X46142856Y-34324200D01*
X46142856Y-34324200D02*
X46066666Y-34362295D01*
X46066666Y-34362295D02*
X45914285Y-34362295D01*
X47019046Y-34362295D02*
X46561903Y-34362295D01*
X46790475Y-34362295D02*
X46790475Y-33562295D01*
X46790475Y-33562295D02*
X46714284Y-33676580D01*
X46714284Y-33676580D02*
X46638094Y-33752771D01*
X46638094Y-33752771D02*
X46561903Y-33790866D01*
X47933332Y-33638485D02*
X47971428Y-33600390D01*
X47971428Y-33600390D02*
X48047618Y-33562295D01*
X48047618Y-33562295D02*
X48238094Y-33562295D01*
X48238094Y-33562295D02*
X48314285Y-33600390D01*
X48314285Y-33600390D02*
X48352380Y-33638485D01*
X48352380Y-33638485D02*
X48390475Y-33714676D01*
X48390475Y-33714676D02*
X48390475Y-33790866D01*
X48390475Y-33790866D02*
X48352380Y-33905152D01*
X48352380Y-33905152D02*
X47895237Y-34362295D01*
X47895237Y-34362295D02*
X48390475Y-34362295D01*
X48733333Y-34362295D02*
X48733333Y-33562295D01*
X48733333Y-33562295D02*
X49190476Y-34362295D01*
X49190476Y-34362295D02*
X49190476Y-33562295D01*
X49495237Y-33562295D02*
X49990475Y-33562295D01*
X49990475Y-33562295D02*
X49723809Y-33867057D01*
X49723809Y-33867057D02*
X49838094Y-33867057D01*
X49838094Y-33867057D02*
X49914285Y-33905152D01*
X49914285Y-33905152D02*
X49952380Y-33943247D01*
X49952380Y-33943247D02*
X49990475Y-34019438D01*
X49990475Y-34019438D02*
X49990475Y-34209914D01*
X49990475Y-34209914D02*
X49952380Y-34286104D01*
X49952380Y-34286104D02*
X49914285Y-34324200D01*
X49914285Y-34324200D02*
X49838094Y-34362295D01*
X49838094Y-34362295D02*
X49609523Y-34362295D01*
X49609523Y-34362295D02*
X49533332Y-34324200D01*
X49533332Y-34324200D02*
X49495237Y-34286104D01*
X50371428Y-34362295D02*
X50523809Y-34362295D01*
X50523809Y-34362295D02*
X50599999Y-34324200D01*
X50599999Y-34324200D02*
X50638095Y-34286104D01*
X50638095Y-34286104D02*
X50714285Y-34171819D01*
X50714285Y-34171819D02*
X50752380Y-34019438D01*
X50752380Y-34019438D02*
X50752380Y-33714676D01*
X50752380Y-33714676D02*
X50714285Y-33638485D01*
X50714285Y-33638485D02*
X50676190Y-33600390D01*
X50676190Y-33600390D02*
X50599999Y-33562295D01*
X50599999Y-33562295D02*
X50447618Y-33562295D01*
X50447618Y-33562295D02*
X50371428Y-33600390D01*
X50371428Y-33600390D02*
X50333333Y-33638485D01*
X50333333Y-33638485D02*
X50295237Y-33714676D01*
X50295237Y-33714676D02*
X50295237Y-33905152D01*
X50295237Y-33905152D02*
X50333333Y-33981342D01*
X50333333Y-33981342D02*
X50371428Y-34019438D01*
X50371428Y-34019438D02*
X50447618Y-34057533D01*
X50447618Y-34057533D02*
X50599999Y-34057533D01*
X50599999Y-34057533D02*
X50676190Y-34019438D01*
X50676190Y-34019438D02*
X50714285Y-33981342D01*
X50714285Y-33981342D02*
X50752380Y-33905152D01*
X51247619Y-33562295D02*
X51323809Y-33562295D01*
X51323809Y-33562295D02*
X51400000Y-33600390D01*
X51400000Y-33600390D02*
X51438095Y-33638485D01*
X51438095Y-33638485D02*
X51476190Y-33714676D01*
X51476190Y-33714676D02*
X51514285Y-33867057D01*
X51514285Y-33867057D02*
X51514285Y-34057533D01*
X51514285Y-34057533D02*
X51476190Y-34209914D01*
X51476190Y-34209914D02*
X51438095Y-34286104D01*
X51438095Y-34286104D02*
X51400000Y-34324200D01*
X51400000Y-34324200D02*
X51323809Y-34362295D01*
X51323809Y-34362295D02*
X51247619Y-34362295D01*
X51247619Y-34362295D02*
X51171428Y-34324200D01*
X51171428Y-34324200D02*
X51133333Y-34286104D01*
X51133333Y-34286104D02*
X51095238Y-34209914D01*
X51095238Y-34209914D02*
X51057142Y-34057533D01*
X51057142Y-34057533D02*
X51057142Y-33867057D01*
X51057142Y-33867057D02*
X51095238Y-33714676D01*
X51095238Y-33714676D02*
X51133333Y-33638485D01*
X51133333Y-33638485D02*
X51171428Y-33600390D01*
X51171428Y-33600390D02*
X51247619Y-33562295D01*
X52200000Y-33828961D02*
X52200000Y-34362295D01*
X52009524Y-33524200D02*
X51819047Y-34095628D01*
X51819047Y-34095628D02*
X52314286Y-34095628D01*
X50666667Y-13562295D02*
X50400000Y-13181342D01*
X50209524Y-13562295D02*
X50209524Y-12762295D01*
X50209524Y-12762295D02*
X50514286Y-12762295D01*
X50514286Y-12762295D02*
X50590476Y-12800390D01*
X50590476Y-12800390D02*
X50628571Y-12838485D01*
X50628571Y-12838485D02*
X50666667Y-12914676D01*
X50666667Y-12914676D02*
X50666667Y-13028961D01*
X50666667Y-13028961D02*
X50628571Y-13105152D01*
X50628571Y-13105152D02*
X50590476Y-13143247D01*
X50590476Y-13143247D02*
X50514286Y-13181342D01*
X50514286Y-13181342D02*
X50209524Y-13181342D01*
X51352381Y-12762295D02*
X51200000Y-12762295D01*
X51200000Y-12762295D02*
X51123809Y-12800390D01*
X51123809Y-12800390D02*
X51085714Y-12838485D01*
X51085714Y-12838485D02*
X51009524Y-12952771D01*
X51009524Y-12952771D02*
X50971428Y-13105152D01*
X50971428Y-13105152D02*
X50971428Y-13409914D01*
X50971428Y-13409914D02*
X51009524Y-13486104D01*
X51009524Y-13486104D02*
X51047619Y-13524200D01*
X51047619Y-13524200D02*
X51123809Y-13562295D01*
X51123809Y-13562295D02*
X51276190Y-13562295D01*
X51276190Y-13562295D02*
X51352381Y-13524200D01*
X51352381Y-13524200D02*
X51390476Y-13486104D01*
X51390476Y-13486104D02*
X51428571Y-13409914D01*
X51428571Y-13409914D02*
X51428571Y-13219438D01*
X51428571Y-13219438D02*
X51390476Y-13143247D01*
X51390476Y-13143247D02*
X51352381Y-13105152D01*
X51352381Y-13105152D02*
X51276190Y-13067057D01*
X51276190Y-13067057D02*
X51123809Y-13067057D01*
X51123809Y-13067057D02*
X51047619Y-13105152D01*
X51047619Y-13105152D02*
X51009524Y-13143247D01*
X51009524Y-13143247D02*
X50971428Y-13219438D01*
X50266666Y-15062295D02*
X49809523Y-15062295D01*
X50038095Y-15062295D02*
X50038095Y-14262295D01*
X50038095Y-14262295D02*
X49961904Y-14376580D01*
X49961904Y-14376580D02*
X49885714Y-14452771D01*
X49885714Y-14452771D02*
X49809523Y-14490866D01*
X50761905Y-14262295D02*
X50838095Y-14262295D01*
X50838095Y-14262295D02*
X50914286Y-14300390D01*
X50914286Y-14300390D02*
X50952381Y-14338485D01*
X50952381Y-14338485D02*
X50990476Y-14414676D01*
X50990476Y-14414676D02*
X51028571Y-14567057D01*
X51028571Y-14567057D02*
X51028571Y-14757533D01*
X51028571Y-14757533D02*
X50990476Y-14909914D01*
X50990476Y-14909914D02*
X50952381Y-14986104D01*
X50952381Y-14986104D02*
X50914286Y-15024200D01*
X50914286Y-15024200D02*
X50838095Y-15062295D01*
X50838095Y-15062295D02*
X50761905Y-15062295D01*
X50761905Y-15062295D02*
X50685714Y-15024200D01*
X50685714Y-15024200D02*
X50647619Y-14986104D01*
X50647619Y-14986104D02*
X50609524Y-14909914D01*
X50609524Y-14909914D02*
X50571428Y-14757533D01*
X50571428Y-14757533D02*
X50571428Y-14567057D01*
X50571428Y-14567057D02*
X50609524Y-14414676D01*
X50609524Y-14414676D02*
X50647619Y-14338485D01*
X50647619Y-14338485D02*
X50685714Y-14300390D01*
X50685714Y-14300390D02*
X50761905Y-14262295D01*
X51790476Y-15062295D02*
X51333333Y-15062295D01*
X51561905Y-15062295D02*
X51561905Y-14262295D01*
X51561905Y-14262295D02*
X51485714Y-14376580D01*
X51485714Y-14376580D02*
X51409524Y-14452771D01*
X51409524Y-14452771D02*
X51333333Y-14490866D01*
X54197619Y-2286104D02*
X54159523Y-2324200D01*
X54159523Y-2324200D02*
X54045238Y-2362295D01*
X54045238Y-2362295D02*
X53969047Y-2362295D01*
X53969047Y-2362295D02*
X53854761Y-2324200D01*
X53854761Y-2324200D02*
X53778571Y-2248009D01*
X53778571Y-2248009D02*
X53740476Y-2171819D01*
X53740476Y-2171819D02*
X53702380Y-2019438D01*
X53702380Y-2019438D02*
X53702380Y-1905152D01*
X53702380Y-1905152D02*
X53740476Y-1752771D01*
X53740476Y-1752771D02*
X53778571Y-1676580D01*
X53778571Y-1676580D02*
X53854761Y-1600390D01*
X53854761Y-1600390D02*
X53969047Y-1562295D01*
X53969047Y-1562295D02*
X54045238Y-1562295D01*
X54045238Y-1562295D02*
X54159523Y-1600390D01*
X54159523Y-1600390D02*
X54197619Y-1638485D01*
X54540476Y-2362295D02*
X54540476Y-1562295D01*
X54540476Y-1943247D02*
X54997619Y-1943247D01*
X54997619Y-2362295D02*
X54997619Y-1562295D01*
X55302380Y-1562295D02*
X55797618Y-1562295D01*
X55797618Y-1562295D02*
X55530952Y-1867057D01*
X55530952Y-1867057D02*
X55645237Y-1867057D01*
X55645237Y-1867057D02*
X55721428Y-1905152D01*
X55721428Y-1905152D02*
X55759523Y-1943247D01*
X55759523Y-1943247D02*
X55797618Y-2019438D01*
X55797618Y-2019438D02*
X55797618Y-2209914D01*
X55797618Y-2209914D02*
X55759523Y-2286104D01*
X55759523Y-2286104D02*
X55721428Y-2324200D01*
X55721428Y-2324200D02*
X55645237Y-2362295D01*
X55645237Y-2362295D02*
X55416666Y-2362295D01*
X55416666Y-2362295D02*
X55340475Y-2324200D01*
X55340475Y-2324200D02*
X55302380Y-2286104D01*
X57166667Y-28786104D02*
X57128571Y-28824200D01*
X57128571Y-28824200D02*
X57014286Y-28862295D01*
X57014286Y-28862295D02*
X56938095Y-28862295D01*
X56938095Y-28862295D02*
X56823809Y-28824200D01*
X56823809Y-28824200D02*
X56747619Y-28748009D01*
X56747619Y-28748009D02*
X56709524Y-28671819D01*
X56709524Y-28671819D02*
X56671428Y-28519438D01*
X56671428Y-28519438D02*
X56671428Y-28405152D01*
X56671428Y-28405152D02*
X56709524Y-28252771D01*
X56709524Y-28252771D02*
X56747619Y-28176580D01*
X56747619Y-28176580D02*
X56823809Y-28100390D01*
X56823809Y-28100390D02*
X56938095Y-28062295D01*
X56938095Y-28062295D02*
X57014286Y-28062295D01*
X57014286Y-28062295D02*
X57128571Y-28100390D01*
X57128571Y-28100390D02*
X57166667Y-28138485D01*
X57471428Y-28138485D02*
X57509524Y-28100390D01*
X57509524Y-28100390D02*
X57585714Y-28062295D01*
X57585714Y-28062295D02*
X57776190Y-28062295D01*
X57776190Y-28062295D02*
X57852381Y-28100390D01*
X57852381Y-28100390D02*
X57890476Y-28138485D01*
X57890476Y-28138485D02*
X57928571Y-28214676D01*
X57928571Y-28214676D02*
X57928571Y-28290866D01*
X57928571Y-28290866D02*
X57890476Y-28405152D01*
X57890476Y-28405152D02*
X57433333Y-28862295D01*
X57433333Y-28862295D02*
X57928571Y-28862295D01*
X58566667Y-13562295D02*
X58300000Y-13181342D01*
X58109524Y-13562295D02*
X58109524Y-12762295D01*
X58109524Y-12762295D02*
X58414286Y-12762295D01*
X58414286Y-12762295D02*
X58490476Y-12800390D01*
X58490476Y-12800390D02*
X58528571Y-12838485D01*
X58528571Y-12838485D02*
X58566667Y-12914676D01*
X58566667Y-12914676D02*
X58566667Y-13028961D01*
X58566667Y-13028961D02*
X58528571Y-13105152D01*
X58528571Y-13105152D02*
X58490476Y-13143247D01*
X58490476Y-13143247D02*
X58414286Y-13181342D01*
X58414286Y-13181342D02*
X58109524Y-13181342D01*
X59290476Y-12762295D02*
X58909524Y-12762295D01*
X58909524Y-12762295D02*
X58871428Y-13143247D01*
X58871428Y-13143247D02*
X58909524Y-13105152D01*
X58909524Y-13105152D02*
X58985714Y-13067057D01*
X58985714Y-13067057D02*
X59176190Y-13067057D01*
X59176190Y-13067057D02*
X59252381Y-13105152D01*
X59252381Y-13105152D02*
X59290476Y-13143247D01*
X59290476Y-13143247D02*
X59328571Y-13219438D01*
X59328571Y-13219438D02*
X59328571Y-13409914D01*
X59328571Y-13409914D02*
X59290476Y-13486104D01*
X59290476Y-13486104D02*
X59252381Y-13524200D01*
X59252381Y-13524200D02*
X59176190Y-13562295D01*
X59176190Y-13562295D02*
X58985714Y-13562295D01*
X58985714Y-13562295D02*
X58909524Y-13524200D01*
X58909524Y-13524200D02*
X58871428Y-13486104D01*
X58166666Y-15062295D02*
X57709523Y-15062295D01*
X57938095Y-15062295D02*
X57938095Y-14262295D01*
X57938095Y-14262295D02*
X57861904Y-14376580D01*
X57861904Y-14376580D02*
X57785714Y-14452771D01*
X57785714Y-14452771D02*
X57709523Y-14490866D01*
X58661905Y-14262295D02*
X58738095Y-14262295D01*
X58738095Y-14262295D02*
X58814286Y-14300390D01*
X58814286Y-14300390D02*
X58852381Y-14338485D01*
X58852381Y-14338485D02*
X58890476Y-14414676D01*
X58890476Y-14414676D02*
X58928571Y-14567057D01*
X58928571Y-14567057D02*
X58928571Y-14757533D01*
X58928571Y-14757533D02*
X58890476Y-14909914D01*
X58890476Y-14909914D02*
X58852381Y-14986104D01*
X58852381Y-14986104D02*
X58814286Y-15024200D01*
X58814286Y-15024200D02*
X58738095Y-15062295D01*
X58738095Y-15062295D02*
X58661905Y-15062295D01*
X58661905Y-15062295D02*
X58585714Y-15024200D01*
X58585714Y-15024200D02*
X58547619Y-14986104D01*
X58547619Y-14986104D02*
X58509524Y-14909914D01*
X58509524Y-14909914D02*
X58471428Y-14757533D01*
X58471428Y-14757533D02*
X58471428Y-14567057D01*
X58471428Y-14567057D02*
X58509524Y-14414676D01*
X58509524Y-14414676D02*
X58547619Y-14338485D01*
X58547619Y-14338485D02*
X58585714Y-14300390D01*
X58585714Y-14300390D02*
X58661905Y-14262295D01*
X59690476Y-15062295D02*
X59233333Y-15062295D01*
X59461905Y-15062295D02*
X59461905Y-14262295D01*
X59461905Y-14262295D02*
X59385714Y-14376580D01*
X59385714Y-14376580D02*
X59309524Y-14452771D01*
X59309524Y-14452771D02*
X59233333Y-14490866D01*
X59890476Y-16362295D02*
X59890476Y-17009914D01*
X59890476Y-17009914D02*
X59928571Y-17086104D01*
X59928571Y-17086104D02*
X59966666Y-17124200D01*
X59966666Y-17124200D02*
X60042857Y-17162295D01*
X60042857Y-17162295D02*
X60195238Y-17162295D01*
X60195238Y-17162295D02*
X60271428Y-17124200D01*
X60271428Y-17124200D02*
X60309523Y-17086104D01*
X60309523Y-17086104D02*
X60347619Y-17009914D01*
X60347619Y-17009914D02*
X60347619Y-16362295D01*
X60690475Y-16438485D02*
X60728571Y-16400390D01*
X60728571Y-16400390D02*
X60804761Y-16362295D01*
X60804761Y-16362295D02*
X60995237Y-16362295D01*
X60995237Y-16362295D02*
X61071428Y-16400390D01*
X61071428Y-16400390D02*
X61109523Y-16438485D01*
X61109523Y-16438485D02*
X61147618Y-16514676D01*
X61147618Y-16514676D02*
X61147618Y-16590866D01*
X61147618Y-16590866D02*
X61109523Y-16705152D01*
X61109523Y-16705152D02*
X60652380Y-17162295D01*
X60652380Y-17162295D02*
X61147618Y-17162295D01*
X63466666Y-28862295D02*
X63009523Y-28862295D01*
X63238095Y-28862295D02*
X63238095Y-28062295D01*
X63238095Y-28062295D02*
X63161904Y-28176580D01*
X63161904Y-28176580D02*
X63085714Y-28252771D01*
X63085714Y-28252771D02*
X63009523Y-28290866D01*
X63961905Y-28062295D02*
X64038095Y-28062295D01*
X64038095Y-28062295D02*
X64114286Y-28100390D01*
X64114286Y-28100390D02*
X64152381Y-28138485D01*
X64152381Y-28138485D02*
X64190476Y-28214676D01*
X64190476Y-28214676D02*
X64228571Y-28367057D01*
X64228571Y-28367057D02*
X64228571Y-28557533D01*
X64228571Y-28557533D02*
X64190476Y-28709914D01*
X64190476Y-28709914D02*
X64152381Y-28786104D01*
X64152381Y-28786104D02*
X64114286Y-28824200D01*
X64114286Y-28824200D02*
X64038095Y-28862295D01*
X64038095Y-28862295D02*
X63961905Y-28862295D01*
X63961905Y-28862295D02*
X63885714Y-28824200D01*
X63885714Y-28824200D02*
X63847619Y-28786104D01*
X63847619Y-28786104D02*
X63809524Y-28709914D01*
X63809524Y-28709914D02*
X63771428Y-28557533D01*
X63771428Y-28557533D02*
X63771428Y-28367057D01*
X63771428Y-28367057D02*
X63809524Y-28214676D01*
X63809524Y-28214676D02*
X63847619Y-28138485D01*
X63847619Y-28138485D02*
X63885714Y-28100390D01*
X63885714Y-28100390D02*
X63961905Y-28062295D01*
X64914286Y-28328961D02*
X64914286Y-28862295D01*
X64723810Y-28024200D02*
X64533333Y-28595628D01*
X64533333Y-28595628D02*
X65028572Y-28595628D01*
X69666667Y-13562295D02*
X69400000Y-13181342D01*
X69209524Y-13562295D02*
X69209524Y-12762295D01*
X69209524Y-12762295D02*
X69514286Y-12762295D01*
X69514286Y-12762295D02*
X69590476Y-12800390D01*
X69590476Y-12800390D02*
X69628571Y-12838485D01*
X69628571Y-12838485D02*
X69666667Y-12914676D01*
X69666667Y-12914676D02*
X69666667Y-13028961D01*
X69666667Y-13028961D02*
X69628571Y-13105152D01*
X69628571Y-13105152D02*
X69590476Y-13143247D01*
X69590476Y-13143247D02*
X69514286Y-13181342D01*
X69514286Y-13181342D02*
X69209524Y-13181342D01*
X70123809Y-13105152D02*
X70047619Y-13067057D01*
X70047619Y-13067057D02*
X70009524Y-13028961D01*
X70009524Y-13028961D02*
X69971428Y-12952771D01*
X69971428Y-12952771D02*
X69971428Y-12914676D01*
X69971428Y-12914676D02*
X70009524Y-12838485D01*
X70009524Y-12838485D02*
X70047619Y-12800390D01*
X70047619Y-12800390D02*
X70123809Y-12762295D01*
X70123809Y-12762295D02*
X70276190Y-12762295D01*
X70276190Y-12762295D02*
X70352381Y-12800390D01*
X70352381Y-12800390D02*
X70390476Y-12838485D01*
X70390476Y-12838485D02*
X70428571Y-12914676D01*
X70428571Y-12914676D02*
X70428571Y-12952771D01*
X70428571Y-12952771D02*
X70390476Y-13028961D01*
X70390476Y-13028961D02*
X70352381Y-13067057D01*
X70352381Y-13067057D02*
X70276190Y-13105152D01*
X70276190Y-13105152D02*
X70123809Y-13105152D01*
X70123809Y-13105152D02*
X70047619Y-13143247D01*
X70047619Y-13143247D02*
X70009524Y-13181342D01*
X70009524Y-13181342D02*
X69971428Y-13257533D01*
X69971428Y-13257533D02*
X69971428Y-13409914D01*
X69971428Y-13409914D02*
X70009524Y-13486104D01*
X70009524Y-13486104D02*
X70047619Y-13524200D01*
X70047619Y-13524200D02*
X70123809Y-13562295D01*
X70123809Y-13562295D02*
X70276190Y-13562295D01*
X70276190Y-13562295D02*
X70352381Y-13524200D01*
X70352381Y-13524200D02*
X70390476Y-13486104D01*
X70390476Y-13486104D02*
X70428571Y-13409914D01*
X70428571Y-13409914D02*
X70428571Y-13257533D01*
X70428571Y-13257533D02*
X70390476Y-13181342D01*
X70390476Y-13181342D02*
X70352381Y-13143247D01*
X70352381Y-13143247D02*
X70276190Y-13105152D01*
X69266666Y-15062295D02*
X68809523Y-15062295D01*
X69038095Y-15062295D02*
X69038095Y-14262295D01*
X69038095Y-14262295D02*
X68961904Y-14376580D01*
X68961904Y-14376580D02*
X68885714Y-14452771D01*
X68885714Y-14452771D02*
X68809523Y-14490866D01*
X69761905Y-14262295D02*
X69838095Y-14262295D01*
X69838095Y-14262295D02*
X69914286Y-14300390D01*
X69914286Y-14300390D02*
X69952381Y-14338485D01*
X69952381Y-14338485D02*
X69990476Y-14414676D01*
X69990476Y-14414676D02*
X70028571Y-14567057D01*
X70028571Y-14567057D02*
X70028571Y-14757533D01*
X70028571Y-14757533D02*
X69990476Y-14909914D01*
X69990476Y-14909914D02*
X69952381Y-14986104D01*
X69952381Y-14986104D02*
X69914286Y-15024200D01*
X69914286Y-15024200D02*
X69838095Y-15062295D01*
X69838095Y-15062295D02*
X69761905Y-15062295D01*
X69761905Y-15062295D02*
X69685714Y-15024200D01*
X69685714Y-15024200D02*
X69647619Y-14986104D01*
X69647619Y-14986104D02*
X69609524Y-14909914D01*
X69609524Y-14909914D02*
X69571428Y-14757533D01*
X69571428Y-14757533D02*
X69571428Y-14567057D01*
X69571428Y-14567057D02*
X69609524Y-14414676D01*
X69609524Y-14414676D02*
X69647619Y-14338485D01*
X69647619Y-14338485D02*
X69685714Y-14300390D01*
X69685714Y-14300390D02*
X69761905Y-14262295D01*
X70790476Y-15062295D02*
X70333333Y-15062295D01*
X70561905Y-15062295D02*
X70561905Y-14262295D01*
X70561905Y-14262295D02*
X70485714Y-14376580D01*
X70485714Y-14376580D02*
X70409524Y-14452771D01*
X70409524Y-14452771D02*
X70333333Y-14490866D01*
X64980952Y-53133723D02*
X65361905Y-53133723D01*
X64904762Y-53362295D02*
X65171429Y-52562295D01*
X65171429Y-52562295D02*
X65438095Y-53362295D01*
X65704762Y-53362295D02*
X65704762Y-52562295D01*
X65704762Y-52562295D02*
X65895238Y-52562295D01*
X65895238Y-52562295D02*
X66009524Y-52600390D01*
X66009524Y-52600390D02*
X66085714Y-52676580D01*
X66085714Y-52676580D02*
X66123809Y-52752771D01*
X66123809Y-52752771D02*
X66161905Y-52905152D01*
X66161905Y-52905152D02*
X66161905Y-53019438D01*
X66161905Y-53019438D02*
X66123809Y-53171819D01*
X66123809Y-53171819D02*
X66085714Y-53248009D01*
X66085714Y-53248009D02*
X66009524Y-53324200D01*
X66009524Y-53324200D02*
X65895238Y-53362295D01*
X65895238Y-53362295D02*
X65704762Y-53362295D01*
X66466666Y-53133723D02*
X66847619Y-53133723D01*
X66390476Y-53362295D02*
X66657143Y-52562295D01*
X66657143Y-52562295D02*
X66923809Y-53362295D01*
X67457142Y-52943247D02*
X67190476Y-52943247D01*
X67190476Y-53362295D02*
X67190476Y-52562295D01*
X67190476Y-52562295D02*
X67571428Y-52562295D01*
X68333333Y-53362295D02*
X68066666Y-52981342D01*
X67876190Y-53362295D02*
X67876190Y-52562295D01*
X67876190Y-52562295D02*
X68180952Y-52562295D01*
X68180952Y-52562295D02*
X68257142Y-52600390D01*
X68257142Y-52600390D02*
X68295237Y-52638485D01*
X68295237Y-52638485D02*
X68333333Y-52714676D01*
X68333333Y-52714676D02*
X68333333Y-52828961D01*
X68333333Y-52828961D02*
X68295237Y-52905152D01*
X68295237Y-52905152D02*
X68257142Y-52943247D01*
X68257142Y-52943247D02*
X68180952Y-52981342D01*
X68180952Y-52981342D02*
X67876190Y-52981342D01*
X68676190Y-52562295D02*
X68676190Y-53209914D01*
X68676190Y-53209914D02*
X68714285Y-53286104D01*
X68714285Y-53286104D02*
X68752380Y-53324200D01*
X68752380Y-53324200D02*
X68828571Y-53362295D01*
X68828571Y-53362295D02*
X68980952Y-53362295D01*
X68980952Y-53362295D02*
X69057142Y-53324200D01*
X69057142Y-53324200D02*
X69095237Y-53286104D01*
X69095237Y-53286104D02*
X69133333Y-53209914D01*
X69133333Y-53209914D02*
X69133333Y-52562295D01*
X69514285Y-53362295D02*
X69514285Y-52562295D01*
X69780951Y-52562295D02*
X70238094Y-52562295D01*
X70009522Y-53362295D02*
X70009522Y-52562295D01*
X71114285Y-53362295D02*
X71114285Y-52562295D01*
X71571428Y-53362295D02*
X71228570Y-52905152D01*
X71571428Y-52562295D02*
X71114285Y-53019438D01*
X72180951Y-52943247D02*
X72295237Y-52981342D01*
X72295237Y-52981342D02*
X72333332Y-53019438D01*
X72333332Y-53019438D02*
X72371428Y-53095628D01*
X72371428Y-53095628D02*
X72371428Y-53209914D01*
X72371428Y-53209914D02*
X72333332Y-53286104D01*
X72333332Y-53286104D02*
X72295237Y-53324200D01*
X72295237Y-53324200D02*
X72219047Y-53362295D01*
X72219047Y-53362295D02*
X71914285Y-53362295D01*
X71914285Y-53362295D02*
X71914285Y-52562295D01*
X71914285Y-52562295D02*
X72180951Y-52562295D01*
X72180951Y-52562295D02*
X72257142Y-52600390D01*
X72257142Y-52600390D02*
X72295237Y-52638485D01*
X72295237Y-52638485D02*
X72333332Y-52714676D01*
X72333332Y-52714676D02*
X72333332Y-52790866D01*
X72333332Y-52790866D02*
X72295237Y-52867057D01*
X72295237Y-52867057D02*
X72257142Y-52905152D01*
X72257142Y-52905152D02*
X72180951Y-52943247D01*
X72180951Y-52943247D02*
X71914285Y-52943247D01*
X72676189Y-52638485D02*
X72714285Y-52600390D01*
X72714285Y-52600390D02*
X72790475Y-52562295D01*
X72790475Y-52562295D02*
X72980951Y-52562295D01*
X72980951Y-52562295D02*
X73057142Y-52600390D01*
X73057142Y-52600390D02*
X73095237Y-52638485D01*
X73095237Y-52638485D02*
X73133332Y-52714676D01*
X73133332Y-52714676D02*
X73133332Y-52790866D01*
X73133332Y-52790866D02*
X73095237Y-52905152D01*
X73095237Y-52905152D02*
X72638094Y-53362295D01*
X72638094Y-53362295D02*
X73133332Y-53362295D01*
X73628571Y-52562295D02*
X73704761Y-52562295D01*
X73704761Y-52562295D02*
X73780952Y-52600390D01*
X73780952Y-52600390D02*
X73819047Y-52638485D01*
X73819047Y-52638485D02*
X73857142Y-52714676D01*
X73857142Y-52714676D02*
X73895237Y-52867057D01*
X73895237Y-52867057D02*
X73895237Y-53057533D01*
X73895237Y-53057533D02*
X73857142Y-53209914D01*
X73857142Y-53209914D02*
X73819047Y-53286104D01*
X73819047Y-53286104D02*
X73780952Y-53324200D01*
X73780952Y-53324200D02*
X73704761Y-53362295D01*
X73704761Y-53362295D02*
X73628571Y-53362295D01*
X73628571Y-53362295D02*
X73552380Y-53324200D01*
X73552380Y-53324200D02*
X73514285Y-53286104D01*
X73514285Y-53286104D02*
X73476190Y-53209914D01*
X73476190Y-53209914D02*
X73438094Y-53057533D01*
X73438094Y-53057533D02*
X73438094Y-52867057D01*
X73438094Y-52867057D02*
X73476190Y-52714676D01*
X73476190Y-52714676D02*
X73514285Y-52638485D01*
X73514285Y-52638485D02*
X73552380Y-52600390D01*
X73552380Y-52600390D02*
X73628571Y-52562295D01*
X74580952Y-52828961D02*
X74580952Y-53362295D01*
X74390476Y-52524200D02*
X74199999Y-53095628D01*
X74199999Y-53095628D02*
X74695238Y-53095628D01*
X75152381Y-52562295D02*
X75228571Y-52562295D01*
X75228571Y-52562295D02*
X75304762Y-52600390D01*
X75304762Y-52600390D02*
X75342857Y-52638485D01*
X75342857Y-52638485D02*
X75380952Y-52714676D01*
X75380952Y-52714676D02*
X75419047Y-52867057D01*
X75419047Y-52867057D02*
X75419047Y-53057533D01*
X75419047Y-53057533D02*
X75380952Y-53209914D01*
X75380952Y-53209914D02*
X75342857Y-53286104D01*
X75342857Y-53286104D02*
X75304762Y-53324200D01*
X75304762Y-53324200D02*
X75228571Y-53362295D01*
X75228571Y-53362295D02*
X75152381Y-53362295D01*
X75152381Y-53362295D02*
X75076190Y-53324200D01*
X75076190Y-53324200D02*
X75038095Y-53286104D01*
X75038095Y-53286104D02*
X75000000Y-53209914D01*
X75000000Y-53209914D02*
X74961904Y-53057533D01*
X74961904Y-53057533D02*
X74961904Y-52867057D01*
X74961904Y-52867057D02*
X75000000Y-52714676D01*
X75000000Y-52714676D02*
X75038095Y-52638485D01*
X75038095Y-52638485D02*
X75076190Y-52600390D01*
X75076190Y-52600390D02*
X75152381Y-52562295D01*
X73197619Y-2286104D02*
X73159523Y-2324200D01*
X73159523Y-2324200D02*
X73045238Y-2362295D01*
X73045238Y-2362295D02*
X72969047Y-2362295D01*
X72969047Y-2362295D02*
X72854761Y-2324200D01*
X72854761Y-2324200D02*
X72778571Y-2248009D01*
X72778571Y-2248009D02*
X72740476Y-2171819D01*
X72740476Y-2171819D02*
X72702380Y-2019438D01*
X72702380Y-2019438D02*
X72702380Y-1905152D01*
X72702380Y-1905152D02*
X72740476Y-1752771D01*
X72740476Y-1752771D02*
X72778571Y-1676580D01*
X72778571Y-1676580D02*
X72854761Y-1600390D01*
X72854761Y-1600390D02*
X72969047Y-1562295D01*
X72969047Y-1562295D02*
X73045238Y-1562295D01*
X73045238Y-1562295D02*
X73159523Y-1600390D01*
X73159523Y-1600390D02*
X73197619Y-1638485D01*
X73540476Y-2362295D02*
X73540476Y-1562295D01*
X73540476Y-1943247D02*
X73997619Y-1943247D01*
X73997619Y-2362295D02*
X73997619Y-1562295D01*
X74721428Y-1828961D02*
X74721428Y-2362295D01*
X74530952Y-1524200D02*
X74340475Y-2095628D01*
X74340475Y-2095628D02*
X74835714Y-2095628D01*
X77566667Y-13562295D02*
X77300000Y-13181342D01*
X77109524Y-13562295D02*
X77109524Y-12762295D01*
X77109524Y-12762295D02*
X77414286Y-12762295D01*
X77414286Y-12762295D02*
X77490476Y-12800390D01*
X77490476Y-12800390D02*
X77528571Y-12838485D01*
X77528571Y-12838485D02*
X77566667Y-12914676D01*
X77566667Y-12914676D02*
X77566667Y-13028961D01*
X77566667Y-13028961D02*
X77528571Y-13105152D01*
X77528571Y-13105152D02*
X77490476Y-13143247D01*
X77490476Y-13143247D02*
X77414286Y-13181342D01*
X77414286Y-13181342D02*
X77109524Y-13181342D01*
X77833333Y-12762295D02*
X78366667Y-12762295D01*
X78366667Y-12762295D02*
X78023809Y-13562295D01*
X77166666Y-15062295D02*
X76709523Y-15062295D01*
X76938095Y-15062295D02*
X76938095Y-14262295D01*
X76938095Y-14262295D02*
X76861904Y-14376580D01*
X76861904Y-14376580D02*
X76785714Y-14452771D01*
X76785714Y-14452771D02*
X76709523Y-14490866D01*
X77661905Y-14262295D02*
X77738095Y-14262295D01*
X77738095Y-14262295D02*
X77814286Y-14300390D01*
X77814286Y-14300390D02*
X77852381Y-14338485D01*
X77852381Y-14338485D02*
X77890476Y-14414676D01*
X77890476Y-14414676D02*
X77928571Y-14567057D01*
X77928571Y-14567057D02*
X77928571Y-14757533D01*
X77928571Y-14757533D02*
X77890476Y-14909914D01*
X77890476Y-14909914D02*
X77852381Y-14986104D01*
X77852381Y-14986104D02*
X77814286Y-15024200D01*
X77814286Y-15024200D02*
X77738095Y-15062295D01*
X77738095Y-15062295D02*
X77661905Y-15062295D01*
X77661905Y-15062295D02*
X77585714Y-15024200D01*
X77585714Y-15024200D02*
X77547619Y-14986104D01*
X77547619Y-14986104D02*
X77509524Y-14909914D01*
X77509524Y-14909914D02*
X77471428Y-14757533D01*
X77471428Y-14757533D02*
X77471428Y-14567057D01*
X77471428Y-14567057D02*
X77509524Y-14414676D01*
X77509524Y-14414676D02*
X77547619Y-14338485D01*
X77547619Y-14338485D02*
X77585714Y-14300390D01*
X77585714Y-14300390D02*
X77661905Y-14262295D01*
X78690476Y-15062295D02*
X78233333Y-15062295D01*
X78461905Y-15062295D02*
X78461905Y-14262295D01*
X78461905Y-14262295D02*
X78385714Y-14376580D01*
X78385714Y-14376580D02*
X78309524Y-14452771D01*
X78309524Y-14452771D02*
X78233333Y-14490866D01*
X88285714Y-13562295D02*
X88019047Y-13181342D01*
X87828571Y-13562295D02*
X87828571Y-12762295D01*
X87828571Y-12762295D02*
X88133333Y-12762295D01*
X88133333Y-12762295D02*
X88209523Y-12800390D01*
X88209523Y-12800390D02*
X88247618Y-12838485D01*
X88247618Y-12838485D02*
X88285714Y-12914676D01*
X88285714Y-12914676D02*
X88285714Y-13028961D01*
X88285714Y-13028961D02*
X88247618Y-13105152D01*
X88247618Y-13105152D02*
X88209523Y-13143247D01*
X88209523Y-13143247D02*
X88133333Y-13181342D01*
X88133333Y-13181342D02*
X87828571Y-13181342D01*
X89047618Y-13562295D02*
X88590475Y-13562295D01*
X88819047Y-13562295D02*
X88819047Y-12762295D01*
X88819047Y-12762295D02*
X88742856Y-12876580D01*
X88742856Y-12876580D02*
X88666666Y-12952771D01*
X88666666Y-12952771D02*
X88590475Y-12990866D01*
X89542857Y-12762295D02*
X89619047Y-12762295D01*
X89619047Y-12762295D02*
X89695238Y-12800390D01*
X89695238Y-12800390D02*
X89733333Y-12838485D01*
X89733333Y-12838485D02*
X89771428Y-12914676D01*
X89771428Y-12914676D02*
X89809523Y-13067057D01*
X89809523Y-13067057D02*
X89809523Y-13257533D01*
X89809523Y-13257533D02*
X89771428Y-13409914D01*
X89771428Y-13409914D02*
X89733333Y-13486104D01*
X89733333Y-13486104D02*
X89695238Y-13524200D01*
X89695238Y-13524200D02*
X89619047Y-13562295D01*
X89619047Y-13562295D02*
X89542857Y-13562295D01*
X89542857Y-13562295D02*
X89466666Y-13524200D01*
X89466666Y-13524200D02*
X89428571Y-13486104D01*
X89428571Y-13486104D02*
X89390476Y-13409914D01*
X89390476Y-13409914D02*
X89352380Y-13257533D01*
X89352380Y-13257533D02*
X89352380Y-13067057D01*
X89352380Y-13067057D02*
X89390476Y-12914676D01*
X89390476Y-12914676D02*
X89428571Y-12838485D01*
X89428571Y-12838485D02*
X89466666Y-12800390D01*
X89466666Y-12800390D02*
X89542857Y-12762295D01*
X88266666Y-15062295D02*
X87809523Y-15062295D01*
X88038095Y-15062295D02*
X88038095Y-14262295D01*
X88038095Y-14262295D02*
X87961904Y-14376580D01*
X87961904Y-14376580D02*
X87885714Y-14452771D01*
X87885714Y-14452771D02*
X87809523Y-14490866D01*
X88761905Y-14262295D02*
X88838095Y-14262295D01*
X88838095Y-14262295D02*
X88914286Y-14300390D01*
X88914286Y-14300390D02*
X88952381Y-14338485D01*
X88952381Y-14338485D02*
X88990476Y-14414676D01*
X88990476Y-14414676D02*
X89028571Y-14567057D01*
X89028571Y-14567057D02*
X89028571Y-14757533D01*
X89028571Y-14757533D02*
X88990476Y-14909914D01*
X88990476Y-14909914D02*
X88952381Y-14986104D01*
X88952381Y-14986104D02*
X88914286Y-15024200D01*
X88914286Y-15024200D02*
X88838095Y-15062295D01*
X88838095Y-15062295D02*
X88761905Y-15062295D01*
X88761905Y-15062295D02*
X88685714Y-15024200D01*
X88685714Y-15024200D02*
X88647619Y-14986104D01*
X88647619Y-14986104D02*
X88609524Y-14909914D01*
X88609524Y-14909914D02*
X88571428Y-14757533D01*
X88571428Y-14757533D02*
X88571428Y-14567057D01*
X88571428Y-14567057D02*
X88609524Y-14414676D01*
X88609524Y-14414676D02*
X88647619Y-14338485D01*
X88647619Y-14338485D02*
X88685714Y-14300390D01*
X88685714Y-14300390D02*
X88761905Y-14262295D01*
X89790476Y-15062295D02*
X89333333Y-15062295D01*
X89561905Y-15062295D02*
X89561905Y-14262295D01*
X89561905Y-14262295D02*
X89485714Y-14376580D01*
X89485714Y-14376580D02*
X89409524Y-14452771D01*
X89409524Y-14452771D02*
X89333333Y-14490866D01*
X92197619Y-2286104D02*
X92159523Y-2324200D01*
X92159523Y-2324200D02*
X92045238Y-2362295D01*
X92045238Y-2362295D02*
X91969047Y-2362295D01*
X91969047Y-2362295D02*
X91854761Y-2324200D01*
X91854761Y-2324200D02*
X91778571Y-2248009D01*
X91778571Y-2248009D02*
X91740476Y-2171819D01*
X91740476Y-2171819D02*
X91702380Y-2019438D01*
X91702380Y-2019438D02*
X91702380Y-1905152D01*
X91702380Y-1905152D02*
X91740476Y-1752771D01*
X91740476Y-1752771D02*
X91778571Y-1676580D01*
X91778571Y-1676580D02*
X91854761Y-1600390D01*
X91854761Y-1600390D02*
X91969047Y-1562295D01*
X91969047Y-1562295D02*
X92045238Y-1562295D01*
X92045238Y-1562295D02*
X92159523Y-1600390D01*
X92159523Y-1600390D02*
X92197619Y-1638485D01*
X92540476Y-2362295D02*
X92540476Y-1562295D01*
X92540476Y-1943247D02*
X92997619Y-1943247D01*
X92997619Y-2362295D02*
X92997619Y-1562295D01*
X93759523Y-1562295D02*
X93378571Y-1562295D01*
X93378571Y-1562295D02*
X93340475Y-1943247D01*
X93340475Y-1943247D02*
X93378571Y-1905152D01*
X93378571Y-1905152D02*
X93454761Y-1867057D01*
X93454761Y-1867057D02*
X93645237Y-1867057D01*
X93645237Y-1867057D02*
X93721428Y-1905152D01*
X93721428Y-1905152D02*
X93759523Y-1943247D01*
X93759523Y-1943247D02*
X93797618Y-2019438D01*
X93797618Y-2019438D02*
X93797618Y-2209914D01*
X93797618Y-2209914D02*
X93759523Y-2286104D01*
X93759523Y-2286104D02*
X93721428Y-2324200D01*
X93721428Y-2324200D02*
X93645237Y-2362295D01*
X93645237Y-2362295D02*
X93454761Y-2362295D01*
X93454761Y-2362295D02*
X93378571Y-2324200D01*
X93378571Y-2324200D02*
X93340475Y-2286104D01*
X95166667Y-28786104D02*
X95128571Y-28824200D01*
X95128571Y-28824200D02*
X95014286Y-28862295D01*
X95014286Y-28862295D02*
X94938095Y-28862295D01*
X94938095Y-28862295D02*
X94823809Y-28824200D01*
X94823809Y-28824200D02*
X94747619Y-28748009D01*
X94747619Y-28748009D02*
X94709524Y-28671819D01*
X94709524Y-28671819D02*
X94671428Y-28519438D01*
X94671428Y-28519438D02*
X94671428Y-28405152D01*
X94671428Y-28405152D02*
X94709524Y-28252771D01*
X94709524Y-28252771D02*
X94747619Y-28176580D01*
X94747619Y-28176580D02*
X94823809Y-28100390D01*
X94823809Y-28100390D02*
X94938095Y-28062295D01*
X94938095Y-28062295D02*
X95014286Y-28062295D01*
X95014286Y-28062295D02*
X95128571Y-28100390D01*
X95128571Y-28100390D02*
X95166667Y-28138485D01*
X95433333Y-28062295D02*
X95928571Y-28062295D01*
X95928571Y-28062295D02*
X95661905Y-28367057D01*
X95661905Y-28367057D02*
X95776190Y-28367057D01*
X95776190Y-28367057D02*
X95852381Y-28405152D01*
X95852381Y-28405152D02*
X95890476Y-28443247D01*
X95890476Y-28443247D02*
X95928571Y-28519438D01*
X95928571Y-28519438D02*
X95928571Y-28709914D01*
X95928571Y-28709914D02*
X95890476Y-28786104D01*
X95890476Y-28786104D02*
X95852381Y-28824200D01*
X95852381Y-28824200D02*
X95776190Y-28862295D01*
X95776190Y-28862295D02*
X95547619Y-28862295D01*
X95547619Y-28862295D02*
X95471428Y-28824200D01*
X95471428Y-28824200D02*
X95433333Y-28786104D01*
X96566667Y-13562295D02*
X96300000Y-13181342D01*
X96109524Y-13562295D02*
X96109524Y-12762295D01*
X96109524Y-12762295D02*
X96414286Y-12762295D01*
X96414286Y-12762295D02*
X96490476Y-12800390D01*
X96490476Y-12800390D02*
X96528571Y-12838485D01*
X96528571Y-12838485D02*
X96566667Y-12914676D01*
X96566667Y-12914676D02*
X96566667Y-13028961D01*
X96566667Y-13028961D02*
X96528571Y-13105152D01*
X96528571Y-13105152D02*
X96490476Y-13143247D01*
X96490476Y-13143247D02*
X96414286Y-13181342D01*
X96414286Y-13181342D02*
X96109524Y-13181342D01*
X96947619Y-13562295D02*
X97100000Y-13562295D01*
X97100000Y-13562295D02*
X97176190Y-13524200D01*
X97176190Y-13524200D02*
X97214286Y-13486104D01*
X97214286Y-13486104D02*
X97290476Y-13371819D01*
X97290476Y-13371819D02*
X97328571Y-13219438D01*
X97328571Y-13219438D02*
X97328571Y-12914676D01*
X97328571Y-12914676D02*
X97290476Y-12838485D01*
X97290476Y-12838485D02*
X97252381Y-12800390D01*
X97252381Y-12800390D02*
X97176190Y-12762295D01*
X97176190Y-12762295D02*
X97023809Y-12762295D01*
X97023809Y-12762295D02*
X96947619Y-12800390D01*
X96947619Y-12800390D02*
X96909524Y-12838485D01*
X96909524Y-12838485D02*
X96871428Y-12914676D01*
X96871428Y-12914676D02*
X96871428Y-13105152D01*
X96871428Y-13105152D02*
X96909524Y-13181342D01*
X96909524Y-13181342D02*
X96947619Y-13219438D01*
X96947619Y-13219438D02*
X97023809Y-13257533D01*
X97023809Y-13257533D02*
X97176190Y-13257533D01*
X97176190Y-13257533D02*
X97252381Y-13219438D01*
X97252381Y-13219438D02*
X97290476Y-13181342D01*
X97290476Y-13181342D02*
X97328571Y-13105152D01*
X96166666Y-15062295D02*
X95709523Y-15062295D01*
X95938095Y-15062295D02*
X95938095Y-14262295D01*
X95938095Y-14262295D02*
X95861904Y-14376580D01*
X95861904Y-14376580D02*
X95785714Y-14452771D01*
X95785714Y-14452771D02*
X95709523Y-14490866D01*
X96661905Y-14262295D02*
X96738095Y-14262295D01*
X96738095Y-14262295D02*
X96814286Y-14300390D01*
X96814286Y-14300390D02*
X96852381Y-14338485D01*
X96852381Y-14338485D02*
X96890476Y-14414676D01*
X96890476Y-14414676D02*
X96928571Y-14567057D01*
X96928571Y-14567057D02*
X96928571Y-14757533D01*
X96928571Y-14757533D02*
X96890476Y-14909914D01*
X96890476Y-14909914D02*
X96852381Y-14986104D01*
X96852381Y-14986104D02*
X96814286Y-15024200D01*
X96814286Y-15024200D02*
X96738095Y-15062295D01*
X96738095Y-15062295D02*
X96661905Y-15062295D01*
X96661905Y-15062295D02*
X96585714Y-15024200D01*
X96585714Y-15024200D02*
X96547619Y-14986104D01*
X96547619Y-14986104D02*
X96509524Y-14909914D01*
X96509524Y-14909914D02*
X96471428Y-14757533D01*
X96471428Y-14757533D02*
X96471428Y-14567057D01*
X96471428Y-14567057D02*
X96509524Y-14414676D01*
X96509524Y-14414676D02*
X96547619Y-14338485D01*
X96547619Y-14338485D02*
X96585714Y-14300390D01*
X96585714Y-14300390D02*
X96661905Y-14262295D01*
X97690476Y-15062295D02*
X97233333Y-15062295D01*
X97461905Y-15062295D02*
X97461905Y-14262295D01*
X97461905Y-14262295D02*
X97385714Y-14376580D01*
X97385714Y-14376580D02*
X97309524Y-14452771D01*
X97309524Y-14452771D02*
X97233333Y-14490866D01*
X97890476Y-16362295D02*
X97890476Y-17009914D01*
X97890476Y-17009914D02*
X97928571Y-17086104D01*
X97928571Y-17086104D02*
X97966666Y-17124200D01*
X97966666Y-17124200D02*
X98042857Y-17162295D01*
X98042857Y-17162295D02*
X98195238Y-17162295D01*
X98195238Y-17162295D02*
X98271428Y-17124200D01*
X98271428Y-17124200D02*
X98309523Y-17086104D01*
X98309523Y-17086104D02*
X98347619Y-17009914D01*
X98347619Y-17009914D02*
X98347619Y-16362295D01*
X98652380Y-16362295D02*
X99147618Y-16362295D01*
X99147618Y-16362295D02*
X98880952Y-16667057D01*
X98880952Y-16667057D02*
X98995237Y-16667057D01*
X98995237Y-16667057D02*
X99071428Y-16705152D01*
X99071428Y-16705152D02*
X99109523Y-16743247D01*
X99109523Y-16743247D02*
X99147618Y-16819438D01*
X99147618Y-16819438D02*
X99147618Y-17009914D01*
X99147618Y-17009914D02*
X99109523Y-17086104D01*
X99109523Y-17086104D02*
X99071428Y-17124200D01*
X99071428Y-17124200D02*
X98995237Y-17162295D01*
X98995237Y-17162295D02*
X98766666Y-17162295D01*
X98766666Y-17162295D02*
X98690475Y-17124200D01*
X98690475Y-17124200D02*
X98652380Y-17086104D01*
X94161904Y-47143247D02*
X94276190Y-47181342D01*
X94276190Y-47181342D02*
X94314285Y-47219438D01*
X94314285Y-47219438D02*
X94352381Y-47295628D01*
X94352381Y-47295628D02*
X94352381Y-47409914D01*
X94352381Y-47409914D02*
X94314285Y-47486104D01*
X94314285Y-47486104D02*
X94276190Y-47524200D01*
X94276190Y-47524200D02*
X94200000Y-47562295D01*
X94200000Y-47562295D02*
X93895238Y-47562295D01*
X93895238Y-47562295D02*
X93895238Y-46762295D01*
X93895238Y-46762295D02*
X94161904Y-46762295D01*
X94161904Y-46762295D02*
X94238095Y-46800390D01*
X94238095Y-46800390D02*
X94276190Y-46838485D01*
X94276190Y-46838485D02*
X94314285Y-46914676D01*
X94314285Y-46914676D02*
X94314285Y-46990866D01*
X94314285Y-46990866D02*
X94276190Y-47067057D01*
X94276190Y-47067057D02*
X94238095Y-47105152D01*
X94238095Y-47105152D02*
X94161904Y-47143247D01*
X94161904Y-47143247D02*
X93895238Y-47143247D01*
X94695238Y-47143247D02*
X94961904Y-47143247D01*
X95076190Y-47562295D02*
X94695238Y-47562295D01*
X94695238Y-47562295D02*
X94695238Y-46762295D01*
X94695238Y-46762295D02*
X95076190Y-46762295D01*
X95419048Y-47562295D02*
X95419048Y-46762295D01*
X95419048Y-46762295D02*
X95876191Y-47562295D01*
X95876191Y-47562295D02*
X95876191Y-46762295D01*
X96257143Y-47562295D02*
X96257143Y-46762295D01*
X96257143Y-46762295D02*
X96447619Y-46762295D01*
X96447619Y-46762295D02*
X96561905Y-46800390D01*
X96561905Y-46800390D02*
X96638095Y-46876580D01*
X96638095Y-46876580D02*
X96676190Y-46952771D01*
X96676190Y-46952771D02*
X96714286Y-47105152D01*
X96714286Y-47105152D02*
X96714286Y-47219438D01*
X96714286Y-47219438D02*
X96676190Y-47371819D01*
X96676190Y-47371819D02*
X96638095Y-47448009D01*
X96638095Y-47448009D02*
X96561905Y-47524200D01*
X96561905Y-47524200D02*
X96447619Y-47562295D01*
X96447619Y-47562295D02*
X96257143Y-47562295D01*
X97057143Y-47562295D02*
X97057143Y-46762295D01*
X97438095Y-47562295D02*
X97438095Y-46762295D01*
X97438095Y-46762295D02*
X97895238Y-47562295D01*
X97895238Y-47562295D02*
X97895238Y-46762295D01*
X98695237Y-46800390D02*
X98619047Y-46762295D01*
X98619047Y-46762295D02*
X98504761Y-46762295D01*
X98504761Y-46762295D02*
X98390475Y-46800390D01*
X98390475Y-46800390D02*
X98314285Y-46876580D01*
X98314285Y-46876580D02*
X98276190Y-46952771D01*
X98276190Y-46952771D02*
X98238094Y-47105152D01*
X98238094Y-47105152D02*
X98238094Y-47219438D01*
X98238094Y-47219438D02*
X98276190Y-47371819D01*
X98276190Y-47371819D02*
X98314285Y-47448009D01*
X98314285Y-47448009D02*
X98390475Y-47524200D01*
X98390475Y-47524200D02*
X98504761Y-47562295D01*
X98504761Y-47562295D02*
X98580952Y-47562295D01*
X98580952Y-47562295D02*
X98695237Y-47524200D01*
X98695237Y-47524200D02*
X98733333Y-47486104D01*
X98733333Y-47486104D02*
X98733333Y-47219438D01*
X98733333Y-47219438D02*
X98580952Y-47219438D01*
X99685714Y-46762295D02*
X99685714Y-47409914D01*
X99685714Y-47409914D02*
X99723809Y-47486104D01*
X99723809Y-47486104D02*
X99761904Y-47524200D01*
X99761904Y-47524200D02*
X99838095Y-47562295D01*
X99838095Y-47562295D02*
X99990476Y-47562295D01*
X99990476Y-47562295D02*
X100066666Y-47524200D01*
X100066666Y-47524200D02*
X100104761Y-47486104D01*
X100104761Y-47486104D02*
X100142857Y-47409914D01*
X100142857Y-47409914D02*
X100142857Y-46762295D01*
X100523809Y-47562295D02*
X100523809Y-46762295D01*
X100523809Y-46762295D02*
X100980952Y-47562295D01*
X100980952Y-47562295D02*
X100980952Y-46762295D01*
X101361904Y-47562295D02*
X101361904Y-46762295D01*
X101628570Y-46762295D02*
X102085713Y-46762295D01*
X101857141Y-47562295D02*
X101857141Y-46762295D01*
X102923808Y-46838485D02*
X102961904Y-46800390D01*
X102961904Y-46800390D02*
X103038094Y-46762295D01*
X103038094Y-46762295D02*
X103228570Y-46762295D01*
X103228570Y-46762295D02*
X103304761Y-46800390D01*
X103304761Y-46800390D02*
X103342856Y-46838485D01*
X103342856Y-46838485D02*
X103380951Y-46914676D01*
X103380951Y-46914676D02*
X103380951Y-46990866D01*
X103380951Y-46990866D02*
X103342856Y-47105152D01*
X103342856Y-47105152D02*
X102885713Y-47562295D01*
X102885713Y-47562295D02*
X103380951Y-47562295D01*
X103685713Y-46838485D02*
X103723809Y-46800390D01*
X103723809Y-46800390D02*
X103799999Y-46762295D01*
X103799999Y-46762295D02*
X103990475Y-46762295D01*
X103990475Y-46762295D02*
X104066666Y-46800390D01*
X104066666Y-46800390D02*
X104104761Y-46838485D01*
X104104761Y-46838485D02*
X104142856Y-46914676D01*
X104142856Y-46914676D02*
X104142856Y-46990866D01*
X104142856Y-46990866D02*
X104104761Y-47105152D01*
X104104761Y-47105152D02*
X103647618Y-47562295D01*
X103647618Y-47562295D02*
X104142856Y-47562295D01*
X92733334Y-49562295D02*
X92733334Y-48762295D01*
X92733334Y-48762295D02*
X92923810Y-48762295D01*
X92923810Y-48762295D02*
X93038096Y-48800390D01*
X93038096Y-48800390D02*
X93114286Y-48876580D01*
X93114286Y-48876580D02*
X93152381Y-48952771D01*
X93152381Y-48952771D02*
X93190477Y-49105152D01*
X93190477Y-49105152D02*
X93190477Y-49219438D01*
X93190477Y-49219438D02*
X93152381Y-49371819D01*
X93152381Y-49371819D02*
X93114286Y-49448009D01*
X93114286Y-49448009D02*
X93038096Y-49524200D01*
X93038096Y-49524200D02*
X92923810Y-49562295D01*
X92923810Y-49562295D02*
X92733334Y-49562295D01*
X93533334Y-49562295D02*
X93533334Y-48762295D01*
X93876190Y-49524200D02*
X93990476Y-49562295D01*
X93990476Y-49562295D02*
X94180952Y-49562295D01*
X94180952Y-49562295D02*
X94257143Y-49524200D01*
X94257143Y-49524200D02*
X94295238Y-49486104D01*
X94295238Y-49486104D02*
X94333333Y-49409914D01*
X94333333Y-49409914D02*
X94333333Y-49333723D01*
X94333333Y-49333723D02*
X94295238Y-49257533D01*
X94295238Y-49257533D02*
X94257143Y-49219438D01*
X94257143Y-49219438D02*
X94180952Y-49181342D01*
X94180952Y-49181342D02*
X94028571Y-49143247D01*
X94028571Y-49143247D02*
X93952381Y-49105152D01*
X93952381Y-49105152D02*
X93914286Y-49067057D01*
X93914286Y-49067057D02*
X93876190Y-48990866D01*
X93876190Y-48990866D02*
X93876190Y-48914676D01*
X93876190Y-48914676D02*
X93914286Y-48838485D01*
X93914286Y-48838485D02*
X93952381Y-48800390D01*
X93952381Y-48800390D02*
X94028571Y-48762295D01*
X94028571Y-48762295D02*
X94219048Y-48762295D01*
X94219048Y-48762295D02*
X94333333Y-48800390D01*
X94676191Y-49562295D02*
X94676191Y-48762295D01*
X94676191Y-48762295D02*
X94980953Y-48762295D01*
X94980953Y-48762295D02*
X95057143Y-48800390D01*
X95057143Y-48800390D02*
X95095238Y-48838485D01*
X95095238Y-48838485D02*
X95133334Y-48914676D01*
X95133334Y-48914676D02*
X95133334Y-49028961D01*
X95133334Y-49028961D02*
X95095238Y-49105152D01*
X95095238Y-49105152D02*
X95057143Y-49143247D01*
X95057143Y-49143247D02*
X94980953Y-49181342D01*
X94980953Y-49181342D02*
X94676191Y-49181342D01*
X95857143Y-49562295D02*
X95476191Y-49562295D01*
X95476191Y-49562295D02*
X95476191Y-48762295D01*
X96085714Y-49333723D02*
X96466667Y-49333723D01*
X96009524Y-49562295D02*
X96276191Y-48762295D01*
X96276191Y-48762295D02*
X96542857Y-49562295D01*
X96961905Y-49181342D02*
X96961905Y-49562295D01*
X96695238Y-48762295D02*
X96961905Y-49181342D01*
X96961905Y-49181342D02*
X97228571Y-48762295D01*
X98561905Y-49486104D02*
X98523809Y-49524200D01*
X98523809Y-49524200D02*
X98409524Y-49562295D01*
X98409524Y-49562295D02*
X98333333Y-49562295D01*
X98333333Y-49562295D02*
X98219047Y-49524200D01*
X98219047Y-49524200D02*
X98142857Y-49448009D01*
X98142857Y-49448009D02*
X98104762Y-49371819D01*
X98104762Y-49371819D02*
X98066666Y-49219438D01*
X98066666Y-49219438D02*
X98066666Y-49105152D01*
X98066666Y-49105152D02*
X98104762Y-48952771D01*
X98104762Y-48952771D02*
X98142857Y-48876580D01*
X98142857Y-48876580D02*
X98219047Y-48800390D01*
X98219047Y-48800390D02*
X98333333Y-48762295D01*
X98333333Y-48762295D02*
X98409524Y-48762295D01*
X98409524Y-48762295D02*
X98523809Y-48800390D01*
X98523809Y-48800390D02*
X98561905Y-48838485D01*
X99057143Y-48762295D02*
X99209524Y-48762295D01*
X99209524Y-48762295D02*
X99285714Y-48800390D01*
X99285714Y-48800390D02*
X99361905Y-48876580D01*
X99361905Y-48876580D02*
X99400000Y-49028961D01*
X99400000Y-49028961D02*
X99400000Y-49295628D01*
X99400000Y-49295628D02*
X99361905Y-49448009D01*
X99361905Y-49448009D02*
X99285714Y-49524200D01*
X99285714Y-49524200D02*
X99209524Y-49562295D01*
X99209524Y-49562295D02*
X99057143Y-49562295D01*
X99057143Y-49562295D02*
X98980952Y-49524200D01*
X98980952Y-49524200D02*
X98904762Y-49448009D01*
X98904762Y-49448009D02*
X98866666Y-49295628D01*
X98866666Y-49295628D02*
X98866666Y-49028961D01*
X98866666Y-49028961D02*
X98904762Y-48876580D01*
X98904762Y-48876580D02*
X98980952Y-48800390D01*
X98980952Y-48800390D02*
X99057143Y-48762295D01*
X99742857Y-49562295D02*
X99742857Y-48762295D01*
X99742857Y-48762295D02*
X100200000Y-49562295D01*
X100200000Y-49562295D02*
X100200000Y-48762295D01*
X100466666Y-48762295D02*
X100923809Y-48762295D01*
X100695237Y-49562295D02*
X100695237Y-48762295D01*
X101647619Y-49562295D02*
X101380952Y-49181342D01*
X101190476Y-49562295D02*
X101190476Y-48762295D01*
X101190476Y-48762295D02*
X101495238Y-48762295D01*
X101495238Y-48762295D02*
X101571428Y-48800390D01*
X101571428Y-48800390D02*
X101609523Y-48838485D01*
X101609523Y-48838485D02*
X101647619Y-48914676D01*
X101647619Y-48914676D02*
X101647619Y-49028961D01*
X101647619Y-49028961D02*
X101609523Y-49105152D01*
X101609523Y-49105152D02*
X101571428Y-49143247D01*
X101571428Y-49143247D02*
X101495238Y-49181342D01*
X101495238Y-49181342D02*
X101190476Y-49181342D01*
X102142857Y-48762295D02*
X102295238Y-48762295D01*
X102295238Y-48762295D02*
X102371428Y-48800390D01*
X102371428Y-48800390D02*
X102447619Y-48876580D01*
X102447619Y-48876580D02*
X102485714Y-49028961D01*
X102485714Y-49028961D02*
X102485714Y-49295628D01*
X102485714Y-49295628D02*
X102447619Y-49448009D01*
X102447619Y-49448009D02*
X102371428Y-49524200D01*
X102371428Y-49524200D02*
X102295238Y-49562295D01*
X102295238Y-49562295D02*
X102142857Y-49562295D01*
X102142857Y-49562295D02*
X102066666Y-49524200D01*
X102066666Y-49524200D02*
X101990476Y-49448009D01*
X101990476Y-49448009D02*
X101952380Y-49295628D01*
X101952380Y-49295628D02*
X101952380Y-49028961D01*
X101952380Y-49028961D02*
X101990476Y-48876580D01*
X101990476Y-48876580D02*
X102066666Y-48800390D01*
X102066666Y-48800390D02*
X102142857Y-48762295D01*
X103209523Y-49562295D02*
X102828571Y-49562295D01*
X102828571Y-49562295D02*
X102828571Y-48762295D01*
X103857142Y-49562295D02*
X103476190Y-49562295D01*
X103476190Y-49562295D02*
X103476190Y-48762295D01*
X104123809Y-49143247D02*
X104390475Y-49143247D01*
X104504761Y-49562295D02*
X104123809Y-49562295D01*
X104123809Y-49562295D02*
X104123809Y-48762295D01*
X104123809Y-48762295D02*
X104504761Y-48762295D01*
X105304762Y-49562295D02*
X105038095Y-49181342D01*
X104847619Y-49562295D02*
X104847619Y-48762295D01*
X104847619Y-48762295D02*
X105152381Y-48762295D01*
X105152381Y-48762295D02*
X105228571Y-48800390D01*
X105228571Y-48800390D02*
X105266666Y-48838485D01*
X105266666Y-48838485D02*
X105304762Y-48914676D01*
X105304762Y-48914676D02*
X105304762Y-49028961D01*
X105304762Y-49028961D02*
X105266666Y-49105152D01*
X105266666Y-49105152D02*
X105228571Y-49143247D01*
X105228571Y-49143247D02*
X105152381Y-49181342D01*
X105152381Y-49181342D02*
X104847619Y-49181342D01*
X93780951Y-51524200D02*
X93895237Y-51562295D01*
X93895237Y-51562295D02*
X94085713Y-51562295D01*
X94085713Y-51562295D02*
X94161904Y-51524200D01*
X94161904Y-51524200D02*
X94199999Y-51486104D01*
X94199999Y-51486104D02*
X94238094Y-51409914D01*
X94238094Y-51409914D02*
X94238094Y-51333723D01*
X94238094Y-51333723D02*
X94199999Y-51257533D01*
X94199999Y-51257533D02*
X94161904Y-51219438D01*
X94161904Y-51219438D02*
X94085713Y-51181342D01*
X94085713Y-51181342D02*
X93933332Y-51143247D01*
X93933332Y-51143247D02*
X93857142Y-51105152D01*
X93857142Y-51105152D02*
X93819047Y-51067057D01*
X93819047Y-51067057D02*
X93780951Y-50990866D01*
X93780951Y-50990866D02*
X93780951Y-50914676D01*
X93780951Y-50914676D02*
X93819047Y-50838485D01*
X93819047Y-50838485D02*
X93857142Y-50800390D01*
X93857142Y-50800390D02*
X93933332Y-50762295D01*
X93933332Y-50762295D02*
X94123809Y-50762295D01*
X94123809Y-50762295D02*
X94238094Y-50800390D01*
X94580952Y-51143247D02*
X94847618Y-51143247D01*
X94961904Y-51562295D02*
X94580952Y-51562295D01*
X94580952Y-51562295D02*
X94580952Y-50762295D01*
X94580952Y-50762295D02*
X94961904Y-50762295D01*
X95761905Y-51562295D02*
X95495238Y-51181342D01*
X95304762Y-51562295D02*
X95304762Y-50762295D01*
X95304762Y-50762295D02*
X95609524Y-50762295D01*
X95609524Y-50762295D02*
X95685714Y-50800390D01*
X95685714Y-50800390D02*
X95723809Y-50838485D01*
X95723809Y-50838485D02*
X95761905Y-50914676D01*
X95761905Y-50914676D02*
X95761905Y-51028961D01*
X95761905Y-51028961D02*
X95723809Y-51105152D01*
X95723809Y-51105152D02*
X95685714Y-51143247D01*
X95685714Y-51143247D02*
X95609524Y-51181342D01*
X95609524Y-51181342D02*
X95304762Y-51181342D01*
X96104762Y-51562295D02*
X96104762Y-50762295D01*
X96447618Y-51333723D02*
X96828571Y-51333723D01*
X96371428Y-51562295D02*
X96638095Y-50762295D01*
X96638095Y-50762295D02*
X96904761Y-51562295D01*
X97552380Y-51562295D02*
X97171428Y-51562295D01*
X97171428Y-51562295D02*
X97171428Y-50762295D01*
X97780951Y-51028961D02*
X98352380Y-51028961D01*
X98009523Y-50686104D02*
X97780951Y-51714676D01*
X98276190Y-51371819D02*
X97704761Y-51371819D01*
X98047618Y-51714676D02*
X98276190Y-50686104D01*
X99190475Y-50838485D02*
X99228571Y-50800390D01*
X99228571Y-50800390D02*
X99304761Y-50762295D01*
X99304761Y-50762295D02*
X99495237Y-50762295D01*
X99495237Y-50762295D02*
X99571428Y-50800390D01*
X99571428Y-50800390D02*
X99609523Y-50838485D01*
X99609523Y-50838485D02*
X99647618Y-50914676D01*
X99647618Y-50914676D02*
X99647618Y-50990866D01*
X99647618Y-50990866D02*
X99609523Y-51105152D01*
X99609523Y-51105152D02*
X99152380Y-51562295D01*
X99152380Y-51562295D02*
X99647618Y-51562295D01*
X99914285Y-50762295D02*
X100447619Y-50762295D01*
X100447619Y-50762295D02*
X100104761Y-51562295D01*
X101171428Y-51562295D02*
X100714285Y-51562295D01*
X100942857Y-51562295D02*
X100942857Y-50762295D01*
X100942857Y-50762295D02*
X100866666Y-50876580D01*
X100866666Y-50876580D02*
X100790476Y-50952771D01*
X100790476Y-50952771D02*
X100714285Y-50990866D01*
X101857143Y-50762295D02*
X101704762Y-50762295D01*
X101704762Y-50762295D02*
X101628571Y-50800390D01*
X101628571Y-50800390D02*
X101590476Y-50838485D01*
X101590476Y-50838485D02*
X101514286Y-50952771D01*
X101514286Y-50952771D02*
X101476190Y-51105152D01*
X101476190Y-51105152D02*
X101476190Y-51409914D01*
X101476190Y-51409914D02*
X101514286Y-51486104D01*
X101514286Y-51486104D02*
X101552381Y-51524200D01*
X101552381Y-51524200D02*
X101628571Y-51562295D01*
X101628571Y-51562295D02*
X101780952Y-51562295D01*
X101780952Y-51562295D02*
X101857143Y-51524200D01*
X101857143Y-51524200D02*
X101895238Y-51486104D01*
X101895238Y-51486104D02*
X101933333Y-51409914D01*
X101933333Y-51409914D02*
X101933333Y-51219438D01*
X101933333Y-51219438D02*
X101895238Y-51143247D01*
X101895238Y-51143247D02*
X101857143Y-51105152D01*
X101857143Y-51105152D02*
X101780952Y-51067057D01*
X101780952Y-51067057D02*
X101628571Y-51067057D01*
X101628571Y-51067057D02*
X101552381Y-51105152D01*
X101552381Y-51105152D02*
X101514286Y-51143247D01*
X101514286Y-51143247D02*
X101476190Y-51219438D01*
X102428572Y-50762295D02*
X102504762Y-50762295D01*
X102504762Y-50762295D02*
X102580953Y-50800390D01*
X102580953Y-50800390D02*
X102619048Y-50838485D01*
X102619048Y-50838485D02*
X102657143Y-50914676D01*
X102657143Y-50914676D02*
X102695238Y-51067057D01*
X102695238Y-51067057D02*
X102695238Y-51257533D01*
X102695238Y-51257533D02*
X102657143Y-51409914D01*
X102657143Y-51409914D02*
X102619048Y-51486104D01*
X102619048Y-51486104D02*
X102580953Y-51524200D01*
X102580953Y-51524200D02*
X102504762Y-51562295D01*
X102504762Y-51562295D02*
X102428572Y-51562295D01*
X102428572Y-51562295D02*
X102352381Y-51524200D01*
X102352381Y-51524200D02*
X102314286Y-51486104D01*
X102314286Y-51486104D02*
X102276191Y-51409914D01*
X102276191Y-51409914D02*
X102238095Y-51257533D01*
X102238095Y-51257533D02*
X102238095Y-51067057D01*
X102238095Y-51067057D02*
X102276191Y-50914676D01*
X102276191Y-50914676D02*
X102314286Y-50838485D01*
X102314286Y-50838485D02*
X102352381Y-50800390D01*
X102352381Y-50800390D02*
X102428572Y-50762295D01*
X103419048Y-50762295D02*
X103038096Y-50762295D01*
X103038096Y-50762295D02*
X103000000Y-51143247D01*
X103000000Y-51143247D02*
X103038096Y-51105152D01*
X103038096Y-51105152D02*
X103114286Y-51067057D01*
X103114286Y-51067057D02*
X103304762Y-51067057D01*
X103304762Y-51067057D02*
X103380953Y-51105152D01*
X103380953Y-51105152D02*
X103419048Y-51143247D01*
X103419048Y-51143247D02*
X103457143Y-51219438D01*
X103457143Y-51219438D02*
X103457143Y-51409914D01*
X103457143Y-51409914D02*
X103419048Y-51486104D01*
X103419048Y-51486104D02*
X103380953Y-51524200D01*
X103380953Y-51524200D02*
X103304762Y-51562295D01*
X103304762Y-51562295D02*
X103114286Y-51562295D01*
X103114286Y-51562295D02*
X103038096Y-51524200D01*
X103038096Y-51524200D02*
X103000000Y-51486104D01*
X103723810Y-50762295D02*
X104257144Y-50762295D01*
X104257144Y-50762295D02*
X103914286Y-51562295D01*
X97838095Y-53362295D02*
X97571428Y-52981342D01*
X97380952Y-53362295D02*
X97380952Y-52562295D01*
X97380952Y-52562295D02*
X97685714Y-52562295D01*
X97685714Y-52562295D02*
X97761904Y-52600390D01*
X97761904Y-52600390D02*
X97799999Y-52638485D01*
X97799999Y-52638485D02*
X97838095Y-52714676D01*
X97838095Y-52714676D02*
X97838095Y-52828961D01*
X97838095Y-52828961D02*
X97799999Y-52905152D01*
X97799999Y-52905152D02*
X97761904Y-52943247D01*
X97761904Y-52943247D02*
X97685714Y-52981342D01*
X97685714Y-52981342D02*
X97380952Y-52981342D01*
X98180952Y-52943247D02*
X98447618Y-52943247D01*
X98561904Y-53362295D02*
X98180952Y-53362295D01*
X98180952Y-53362295D02*
X98180952Y-52562295D01*
X98180952Y-52562295D02*
X98561904Y-52562295D01*
X98790476Y-52562295D02*
X99057143Y-53362295D01*
X99057143Y-53362295D02*
X99323809Y-52562295D01*
X100466666Y-52943247D02*
X100580952Y-52981342D01*
X100580952Y-52981342D02*
X100619047Y-53019438D01*
X100619047Y-53019438D02*
X100657143Y-53095628D01*
X100657143Y-53095628D02*
X100657143Y-53209914D01*
X100657143Y-53209914D02*
X100619047Y-53286104D01*
X100619047Y-53286104D02*
X100580952Y-53324200D01*
X100580952Y-53324200D02*
X100504762Y-53362295D01*
X100504762Y-53362295D02*
X100200000Y-53362295D01*
X100200000Y-53362295D02*
X100200000Y-52562295D01*
X100200000Y-52562295D02*
X100466666Y-52562295D01*
X100466666Y-52562295D02*
X100542857Y-52600390D01*
X100542857Y-52600390D02*
X100580952Y-52638485D01*
X100580952Y-52638485D02*
X100619047Y-52714676D01*
X100619047Y-52714676D02*
X100619047Y-52790866D01*
X100619047Y-52790866D02*
X100580952Y-52867057D01*
X100580952Y-52867057D02*
X100542857Y-52905152D01*
X100542857Y-52905152D02*
X100466666Y-52943247D01*
X100466666Y-52943247D02*
X100200000Y-52943247D01*
X101466666Y-28862295D02*
X101009523Y-28862295D01*
X101238095Y-28862295D02*
X101238095Y-28062295D01*
X101238095Y-28062295D02*
X101161904Y-28176580D01*
X101161904Y-28176580D02*
X101085714Y-28252771D01*
X101085714Y-28252771D02*
X101009523Y-28290866D01*
X101961905Y-28062295D02*
X102038095Y-28062295D01*
X102038095Y-28062295D02*
X102114286Y-28100390D01*
X102114286Y-28100390D02*
X102152381Y-28138485D01*
X102152381Y-28138485D02*
X102190476Y-28214676D01*
X102190476Y-28214676D02*
X102228571Y-28367057D01*
X102228571Y-28367057D02*
X102228571Y-28557533D01*
X102228571Y-28557533D02*
X102190476Y-28709914D01*
X102190476Y-28709914D02*
X102152381Y-28786104D01*
X102152381Y-28786104D02*
X102114286Y-28824200D01*
X102114286Y-28824200D02*
X102038095Y-28862295D01*
X102038095Y-28862295D02*
X101961905Y-28862295D01*
X101961905Y-28862295D02*
X101885714Y-28824200D01*
X101885714Y-28824200D02*
X101847619Y-28786104D01*
X101847619Y-28786104D02*
X101809524Y-28709914D01*
X101809524Y-28709914D02*
X101771428Y-28557533D01*
X101771428Y-28557533D02*
X101771428Y-28367057D01*
X101771428Y-28367057D02*
X101809524Y-28214676D01*
X101809524Y-28214676D02*
X101847619Y-28138485D01*
X101847619Y-28138485D02*
X101885714Y-28100390D01*
X101885714Y-28100390D02*
X101961905Y-28062295D01*
X102914286Y-28328961D02*
X102914286Y-28862295D01*
X102723810Y-28024200D02*
X102533333Y-28595628D01*
X102533333Y-28595628D02*
X103028572Y-28595628D01*
X103095238Y-31786104D02*
X103057142Y-31824200D01*
X103057142Y-31824200D02*
X102942857Y-31862295D01*
X102942857Y-31862295D02*
X102866666Y-31862295D01*
X102866666Y-31862295D02*
X102752380Y-31824200D01*
X102752380Y-31824200D02*
X102676190Y-31748009D01*
X102676190Y-31748009D02*
X102638095Y-31671819D01*
X102638095Y-31671819D02*
X102599999Y-31519438D01*
X102599999Y-31519438D02*
X102599999Y-31405152D01*
X102599999Y-31405152D02*
X102638095Y-31252771D01*
X102638095Y-31252771D02*
X102676190Y-31176580D01*
X102676190Y-31176580D02*
X102752380Y-31100390D01*
X102752380Y-31100390D02*
X102866666Y-31062295D01*
X102866666Y-31062295D02*
X102942857Y-31062295D01*
X102942857Y-31062295D02*
X103057142Y-31100390D01*
X103057142Y-31100390D02*
X103095238Y-31138485D01*
X103780952Y-31328961D02*
X103780952Y-31862295D01*
X103590476Y-31024200D02*
X103399999Y-31595628D01*
X103399999Y-31595628D02*
X103895238Y-31595628D01*
X105228571Y-31862295D02*
X104771428Y-31862295D01*
X105000000Y-31862295D02*
X105000000Y-31062295D01*
X105000000Y-31062295D02*
X104923809Y-31176580D01*
X104923809Y-31176580D02*
X104847619Y-31252771D01*
X104847619Y-31252771D02*
X104771428Y-31290866D01*
X105723810Y-31062295D02*
X105800000Y-31062295D01*
X105800000Y-31062295D02*
X105876191Y-31100390D01*
X105876191Y-31100390D02*
X105914286Y-31138485D01*
X105914286Y-31138485D02*
X105952381Y-31214676D01*
X105952381Y-31214676D02*
X105990476Y-31367057D01*
X105990476Y-31367057D02*
X105990476Y-31557533D01*
X105990476Y-31557533D02*
X105952381Y-31709914D01*
X105952381Y-31709914D02*
X105914286Y-31786104D01*
X105914286Y-31786104D02*
X105876191Y-31824200D01*
X105876191Y-31824200D02*
X105800000Y-31862295D01*
X105800000Y-31862295D02*
X105723810Y-31862295D01*
X105723810Y-31862295D02*
X105647619Y-31824200D01*
X105647619Y-31824200D02*
X105609524Y-31786104D01*
X105609524Y-31786104D02*
X105571429Y-31709914D01*
X105571429Y-31709914D02*
X105533333Y-31557533D01*
X105533333Y-31557533D02*
X105533333Y-31367057D01*
X105533333Y-31367057D02*
X105571429Y-31214676D01*
X105571429Y-31214676D02*
X105609524Y-31138485D01*
X105609524Y-31138485D02*
X105647619Y-31100390D01*
X105647619Y-31100390D02*
X105723810Y-31062295D01*
X106676191Y-31328961D02*
X106676191Y-31862295D01*
X106333334Y-31328961D02*
X106333334Y-31748009D01*
X106333334Y-31748009D02*
X106371429Y-31824200D01*
X106371429Y-31824200D02*
X106447619Y-31862295D01*
X106447619Y-31862295D02*
X106561905Y-31862295D01*
X106561905Y-31862295D02*
X106638096Y-31824200D01*
X106638096Y-31824200D02*
X106676191Y-31786104D01*
X107323810Y-31443247D02*
X107057144Y-31443247D01*
X107057144Y-31862295D02*
X107057144Y-31062295D01*
X107057144Y-31062295D02*
X107438096Y-31062295D01*
X105985714Y-17562295D02*
X105719047Y-17181342D01*
X105528571Y-17562295D02*
X105528571Y-16762295D01*
X105528571Y-16762295D02*
X105833333Y-16762295D01*
X105833333Y-16762295D02*
X105909523Y-16800390D01*
X105909523Y-16800390D02*
X105947618Y-16838485D01*
X105947618Y-16838485D02*
X105985714Y-16914676D01*
X105985714Y-16914676D02*
X105985714Y-17028961D01*
X105985714Y-17028961D02*
X105947618Y-17105152D01*
X105947618Y-17105152D02*
X105909523Y-17143247D01*
X105909523Y-17143247D02*
X105833333Y-17181342D01*
X105833333Y-17181342D02*
X105528571Y-17181342D01*
X106747618Y-17562295D02*
X106290475Y-17562295D01*
X106519047Y-17562295D02*
X106519047Y-16762295D01*
X106519047Y-16762295D02*
X106442856Y-16876580D01*
X106442856Y-16876580D02*
X106366666Y-16952771D01*
X106366666Y-16952771D02*
X106290475Y-16990866D01*
X107052380Y-16838485D02*
X107090476Y-16800390D01*
X107090476Y-16800390D02*
X107166666Y-16762295D01*
X107166666Y-16762295D02*
X107357142Y-16762295D01*
X107357142Y-16762295D02*
X107433333Y-16800390D01*
X107433333Y-16800390D02*
X107471428Y-16838485D01*
X107471428Y-16838485D02*
X107509523Y-16914676D01*
X107509523Y-16914676D02*
X107509523Y-16990866D01*
X107509523Y-16990866D02*
X107471428Y-17105152D01*
X107471428Y-17105152D02*
X107014285Y-17562295D01*
X107014285Y-17562295D02*
X107509523Y-17562295D01*
X105966666Y-19062295D02*
X105509523Y-19062295D01*
X105738095Y-19062295D02*
X105738095Y-18262295D01*
X105738095Y-18262295D02*
X105661904Y-18376580D01*
X105661904Y-18376580D02*
X105585714Y-18452771D01*
X105585714Y-18452771D02*
X105509523Y-18490866D01*
X106461905Y-18262295D02*
X106538095Y-18262295D01*
X106538095Y-18262295D02*
X106614286Y-18300390D01*
X106614286Y-18300390D02*
X106652381Y-18338485D01*
X106652381Y-18338485D02*
X106690476Y-18414676D01*
X106690476Y-18414676D02*
X106728571Y-18567057D01*
X106728571Y-18567057D02*
X106728571Y-18757533D01*
X106728571Y-18757533D02*
X106690476Y-18909914D01*
X106690476Y-18909914D02*
X106652381Y-18986104D01*
X106652381Y-18986104D02*
X106614286Y-19024200D01*
X106614286Y-19024200D02*
X106538095Y-19062295D01*
X106538095Y-19062295D02*
X106461905Y-19062295D01*
X106461905Y-19062295D02*
X106385714Y-19024200D01*
X106385714Y-19024200D02*
X106347619Y-18986104D01*
X106347619Y-18986104D02*
X106309524Y-18909914D01*
X106309524Y-18909914D02*
X106271428Y-18757533D01*
X106271428Y-18757533D02*
X106271428Y-18567057D01*
X106271428Y-18567057D02*
X106309524Y-18414676D01*
X106309524Y-18414676D02*
X106347619Y-18338485D01*
X106347619Y-18338485D02*
X106385714Y-18300390D01*
X106385714Y-18300390D02*
X106461905Y-18262295D01*
X107490476Y-19062295D02*
X107033333Y-19062295D01*
X107261905Y-19062295D02*
X107261905Y-18262295D01*
X107261905Y-18262295D02*
X107185714Y-18376580D01*
X107185714Y-18376580D02*
X107109524Y-18452771D01*
X107109524Y-18452771D02*
X107033333Y-18490866D01*
X107197619Y-2286104D02*
X107159523Y-2324200D01*
X107159523Y-2324200D02*
X107045238Y-2362295D01*
X107045238Y-2362295D02*
X106969047Y-2362295D01*
X106969047Y-2362295D02*
X106854761Y-2324200D01*
X106854761Y-2324200D02*
X106778571Y-2248009D01*
X106778571Y-2248009D02*
X106740476Y-2171819D01*
X106740476Y-2171819D02*
X106702380Y-2019438D01*
X106702380Y-2019438D02*
X106702380Y-1905152D01*
X106702380Y-1905152D02*
X106740476Y-1752771D01*
X106740476Y-1752771D02*
X106778571Y-1676580D01*
X106778571Y-1676580D02*
X106854761Y-1600390D01*
X106854761Y-1600390D02*
X106969047Y-1562295D01*
X106969047Y-1562295D02*
X107045238Y-1562295D01*
X107045238Y-1562295D02*
X107159523Y-1600390D01*
X107159523Y-1600390D02*
X107197619Y-1638485D01*
X107540476Y-2362295D02*
X107540476Y-1562295D01*
X107540476Y-1943247D02*
X107997619Y-1943247D01*
X107997619Y-2362295D02*
X107997619Y-1562295D01*
X108721428Y-1562295D02*
X108569047Y-1562295D01*
X108569047Y-1562295D02*
X108492856Y-1600390D01*
X108492856Y-1600390D02*
X108454761Y-1638485D01*
X108454761Y-1638485D02*
X108378571Y-1752771D01*
X108378571Y-1752771D02*
X108340475Y-1905152D01*
X108340475Y-1905152D02*
X108340475Y-2209914D01*
X108340475Y-2209914D02*
X108378571Y-2286104D01*
X108378571Y-2286104D02*
X108416666Y-2324200D01*
X108416666Y-2324200D02*
X108492856Y-2362295D01*
X108492856Y-2362295D02*
X108645237Y-2362295D01*
X108645237Y-2362295D02*
X108721428Y-2324200D01*
X108721428Y-2324200D02*
X108759523Y-2286104D01*
X108759523Y-2286104D02*
X108797618Y-2209914D01*
X108797618Y-2209914D02*
X108797618Y-2019438D01*
X108797618Y-2019438D02*
X108759523Y-1943247D01*
X108759523Y-1943247D02*
X108721428Y-1905152D01*
X108721428Y-1905152D02*
X108645237Y-1867057D01*
X108645237Y-1867057D02*
X108492856Y-1867057D01*
X108492856Y-1867057D02*
X108416666Y-1905152D01*
X108416666Y-1905152D02*
X108378571Y-1943247D01*
X108378571Y-1943247D02*
X108340475Y-2019438D01*
X108485714Y-17562295D02*
X108219047Y-17181342D01*
X108028571Y-17562295D02*
X108028571Y-16762295D01*
X108028571Y-16762295D02*
X108333333Y-16762295D01*
X108333333Y-16762295D02*
X108409523Y-16800390D01*
X108409523Y-16800390D02*
X108447618Y-16838485D01*
X108447618Y-16838485D02*
X108485714Y-16914676D01*
X108485714Y-16914676D02*
X108485714Y-17028961D01*
X108485714Y-17028961D02*
X108447618Y-17105152D01*
X108447618Y-17105152D02*
X108409523Y-17143247D01*
X108409523Y-17143247D02*
X108333333Y-17181342D01*
X108333333Y-17181342D02*
X108028571Y-17181342D01*
X109247618Y-17562295D02*
X108790475Y-17562295D01*
X109019047Y-17562295D02*
X109019047Y-16762295D01*
X109019047Y-16762295D02*
X108942856Y-16876580D01*
X108942856Y-16876580D02*
X108866666Y-16952771D01*
X108866666Y-16952771D02*
X108790475Y-16990866D01*
X110009523Y-17562295D02*
X109552380Y-17562295D01*
X109780952Y-17562295D02*
X109780952Y-16762295D01*
X109780952Y-16762295D02*
X109704761Y-16876580D01*
X109704761Y-16876580D02*
X109628571Y-16952771D01*
X109628571Y-16952771D02*
X109552380Y-16990866D01*
X108466666Y-19062295D02*
X108009523Y-19062295D01*
X108238095Y-19062295D02*
X108238095Y-18262295D01*
X108238095Y-18262295D02*
X108161904Y-18376580D01*
X108161904Y-18376580D02*
X108085714Y-18452771D01*
X108085714Y-18452771D02*
X108009523Y-18490866D01*
X108961905Y-18262295D02*
X109038095Y-18262295D01*
X109038095Y-18262295D02*
X109114286Y-18300390D01*
X109114286Y-18300390D02*
X109152381Y-18338485D01*
X109152381Y-18338485D02*
X109190476Y-18414676D01*
X109190476Y-18414676D02*
X109228571Y-18567057D01*
X109228571Y-18567057D02*
X109228571Y-18757533D01*
X109228571Y-18757533D02*
X109190476Y-18909914D01*
X109190476Y-18909914D02*
X109152381Y-18986104D01*
X109152381Y-18986104D02*
X109114286Y-19024200D01*
X109114286Y-19024200D02*
X109038095Y-19062295D01*
X109038095Y-19062295D02*
X108961905Y-19062295D01*
X108961905Y-19062295D02*
X108885714Y-19024200D01*
X108885714Y-19024200D02*
X108847619Y-18986104D01*
X108847619Y-18986104D02*
X108809524Y-18909914D01*
X108809524Y-18909914D02*
X108771428Y-18757533D01*
X108771428Y-18757533D02*
X108771428Y-18567057D01*
X108771428Y-18567057D02*
X108809524Y-18414676D01*
X108809524Y-18414676D02*
X108847619Y-18338485D01*
X108847619Y-18338485D02*
X108885714Y-18300390D01*
X108885714Y-18300390D02*
X108961905Y-18262295D01*
X109990476Y-19062295D02*
X109533333Y-19062295D01*
X109761905Y-19062295D02*
X109761905Y-18262295D01*
X109761905Y-18262295D02*
X109685714Y-18376580D01*
X109685714Y-18376580D02*
X109609524Y-18452771D01*
X109609524Y-18452771D02*
X109533333Y-18490866D01*
X107422381Y-39862295D02*
X107422381Y-39062295D01*
X107422381Y-39062295D02*
X107727143Y-39062295D01*
X107727143Y-39062295D02*
X107803333Y-39100390D01*
X107803333Y-39100390D02*
X107841428Y-39138485D01*
X107841428Y-39138485D02*
X107879524Y-39214676D01*
X107879524Y-39214676D02*
X107879524Y-39328961D01*
X107879524Y-39328961D02*
X107841428Y-39405152D01*
X107841428Y-39405152D02*
X107803333Y-39443247D01*
X107803333Y-39443247D02*
X107727143Y-39481342D01*
X107727143Y-39481342D02*
X107422381Y-39481342D01*
X108374762Y-39062295D02*
X108527143Y-39062295D01*
X108527143Y-39062295D02*
X108603333Y-39100390D01*
X108603333Y-39100390D02*
X108679524Y-39176580D01*
X108679524Y-39176580D02*
X108717619Y-39328961D01*
X108717619Y-39328961D02*
X108717619Y-39595628D01*
X108717619Y-39595628D02*
X108679524Y-39748009D01*
X108679524Y-39748009D02*
X108603333Y-39824200D01*
X108603333Y-39824200D02*
X108527143Y-39862295D01*
X108527143Y-39862295D02*
X108374762Y-39862295D01*
X108374762Y-39862295D02*
X108298571Y-39824200D01*
X108298571Y-39824200D02*
X108222381Y-39748009D01*
X108222381Y-39748009D02*
X108184285Y-39595628D01*
X108184285Y-39595628D02*
X108184285Y-39328961D01*
X108184285Y-39328961D02*
X108222381Y-39176580D01*
X108222381Y-39176580D02*
X108298571Y-39100390D01*
X108298571Y-39100390D02*
X108374762Y-39062295D01*
X108984285Y-39062295D02*
X109174761Y-39862295D01*
X109174761Y-39862295D02*
X109327142Y-39290866D01*
X109327142Y-39290866D02*
X109479523Y-39862295D01*
X109479523Y-39862295D02*
X109670000Y-39062295D01*
X109974762Y-39443247D02*
X110241428Y-39443247D01*
X110355714Y-39862295D02*
X109974762Y-39862295D01*
X109974762Y-39862295D02*
X109974762Y-39062295D01*
X109974762Y-39062295D02*
X110355714Y-39062295D01*
X111155715Y-39862295D02*
X110889048Y-39481342D01*
X110698572Y-39862295D02*
X110698572Y-39062295D01*
X110698572Y-39062295D02*
X111003334Y-39062295D01*
X111003334Y-39062295D02*
X111079524Y-39100390D01*
X111079524Y-39100390D02*
X111117619Y-39138485D01*
X111117619Y-39138485D02*
X111155715Y-39214676D01*
X111155715Y-39214676D02*
X111155715Y-39328961D01*
X111155715Y-39328961D02*
X111117619Y-39405152D01*
X111117619Y-39405152D02*
X111079524Y-39443247D01*
X111079524Y-39443247D02*
X111003334Y-39481342D01*
X111003334Y-39481342D02*
X110698572Y-39481342D01*
X113485714Y-40862295D02*
X113219047Y-40481342D01*
X113028571Y-40862295D02*
X113028571Y-40062295D01*
X113028571Y-40062295D02*
X113333333Y-40062295D01*
X113333333Y-40062295D02*
X113409523Y-40100390D01*
X113409523Y-40100390D02*
X113447618Y-40138485D01*
X113447618Y-40138485D02*
X113485714Y-40214676D01*
X113485714Y-40214676D02*
X113485714Y-40328961D01*
X113485714Y-40328961D02*
X113447618Y-40405152D01*
X113447618Y-40405152D02*
X113409523Y-40443247D01*
X113409523Y-40443247D02*
X113333333Y-40481342D01*
X113333333Y-40481342D02*
X113028571Y-40481342D01*
X114247618Y-40862295D02*
X113790475Y-40862295D01*
X114019047Y-40862295D02*
X114019047Y-40062295D01*
X114019047Y-40062295D02*
X113942856Y-40176580D01*
X113942856Y-40176580D02*
X113866666Y-40252771D01*
X113866666Y-40252771D02*
X113790475Y-40290866D01*
X114628571Y-40862295D02*
X114780952Y-40862295D01*
X114780952Y-40862295D02*
X114857142Y-40824200D01*
X114857142Y-40824200D02*
X114895238Y-40786104D01*
X114895238Y-40786104D02*
X114971428Y-40671819D01*
X114971428Y-40671819D02*
X115009523Y-40519438D01*
X115009523Y-40519438D02*
X115009523Y-40214676D01*
X115009523Y-40214676D02*
X114971428Y-40138485D01*
X114971428Y-40138485D02*
X114933333Y-40100390D01*
X114933333Y-40100390D02*
X114857142Y-40062295D01*
X114857142Y-40062295D02*
X114704761Y-40062295D01*
X114704761Y-40062295D02*
X114628571Y-40100390D01*
X114628571Y-40100390D02*
X114590476Y-40138485D01*
X114590476Y-40138485D02*
X114552380Y-40214676D01*
X114552380Y-40214676D02*
X114552380Y-40405152D01*
X114552380Y-40405152D02*
X114590476Y-40481342D01*
X114590476Y-40481342D02*
X114628571Y-40519438D01*
X114628571Y-40519438D02*
X114704761Y-40557533D01*
X114704761Y-40557533D02*
X114857142Y-40557533D01*
X114857142Y-40557533D02*
X114933333Y-40519438D01*
X114933333Y-40519438D02*
X114971428Y-40481342D01*
X114971428Y-40481342D02*
X115009523Y-40405152D01*
X113466666Y-45862295D02*
X113009523Y-45862295D01*
X113238095Y-45862295D02*
X113238095Y-45062295D01*
X113238095Y-45062295D02*
X113161904Y-45176580D01*
X113161904Y-45176580D02*
X113085714Y-45252771D01*
X113085714Y-45252771D02*
X113009523Y-45290866D01*
X113961905Y-45062295D02*
X114038095Y-45062295D01*
X114038095Y-45062295D02*
X114114286Y-45100390D01*
X114114286Y-45100390D02*
X114152381Y-45138485D01*
X114152381Y-45138485D02*
X114190476Y-45214676D01*
X114190476Y-45214676D02*
X114228571Y-45367057D01*
X114228571Y-45367057D02*
X114228571Y-45557533D01*
X114228571Y-45557533D02*
X114190476Y-45709914D01*
X114190476Y-45709914D02*
X114152381Y-45786104D01*
X114152381Y-45786104D02*
X114114286Y-45824200D01*
X114114286Y-45824200D02*
X114038095Y-45862295D01*
X114038095Y-45862295D02*
X113961905Y-45862295D01*
X113961905Y-45862295D02*
X113885714Y-45824200D01*
X113885714Y-45824200D02*
X113847619Y-45786104D01*
X113847619Y-45786104D02*
X113809524Y-45709914D01*
X113809524Y-45709914D02*
X113771428Y-45557533D01*
X113771428Y-45557533D02*
X113771428Y-45367057D01*
X113771428Y-45367057D02*
X113809524Y-45214676D01*
X113809524Y-45214676D02*
X113847619Y-45138485D01*
X113847619Y-45138485D02*
X113885714Y-45100390D01*
X113885714Y-45100390D02*
X113961905Y-45062295D01*
X114533333Y-45138485D02*
X114571429Y-45100390D01*
X114571429Y-45100390D02*
X114647619Y-45062295D01*
X114647619Y-45062295D02*
X114838095Y-45062295D01*
X114838095Y-45062295D02*
X114914286Y-45100390D01*
X114914286Y-45100390D02*
X114952381Y-45138485D01*
X114952381Y-45138485D02*
X114990476Y-45214676D01*
X114990476Y-45214676D02*
X114990476Y-45290866D01*
X114990476Y-45290866D02*
X114952381Y-45405152D01*
X114952381Y-45405152D02*
X114495238Y-45862295D01*
X114495238Y-45862295D02*
X114990476Y-45862295D01*
X113714285Y-38786104D02*
X113676189Y-38824200D01*
X113676189Y-38824200D02*
X113561904Y-38862295D01*
X113561904Y-38862295D02*
X113485713Y-38862295D01*
X113485713Y-38862295D02*
X113371427Y-38824200D01*
X113371427Y-38824200D02*
X113295237Y-38748009D01*
X113295237Y-38748009D02*
X113257142Y-38671819D01*
X113257142Y-38671819D02*
X113219046Y-38519438D01*
X113219046Y-38519438D02*
X113219046Y-38405152D01*
X113219046Y-38405152D02*
X113257142Y-38252771D01*
X113257142Y-38252771D02*
X113295237Y-38176580D01*
X113295237Y-38176580D02*
X113371427Y-38100390D01*
X113371427Y-38100390D02*
X113485713Y-38062295D01*
X113485713Y-38062295D02*
X113561904Y-38062295D01*
X113561904Y-38062295D02*
X113676189Y-38100390D01*
X113676189Y-38100390D02*
X113714285Y-38138485D01*
X114438094Y-38062295D02*
X114057142Y-38062295D01*
X114057142Y-38062295D02*
X114019046Y-38443247D01*
X114019046Y-38443247D02*
X114057142Y-38405152D01*
X114057142Y-38405152D02*
X114133332Y-38367057D01*
X114133332Y-38367057D02*
X114323808Y-38367057D01*
X114323808Y-38367057D02*
X114399999Y-38405152D01*
X114399999Y-38405152D02*
X114438094Y-38443247D01*
X114438094Y-38443247D02*
X114476189Y-38519438D01*
X114476189Y-38519438D02*
X114476189Y-38709914D01*
X114476189Y-38709914D02*
X114438094Y-38786104D01*
X114438094Y-38786104D02*
X114399999Y-38824200D01*
X114399999Y-38824200D02*
X114323808Y-38862295D01*
X114323808Y-38862295D02*
X114133332Y-38862295D01*
X114133332Y-38862295D02*
X114057142Y-38824200D01*
X114057142Y-38824200D02*
X114019046Y-38786104D01*
X115771428Y-38328961D02*
X115771428Y-38862295D01*
X115580952Y-38024200D02*
X115390475Y-38595628D01*
X115390475Y-38595628D02*
X115885714Y-38595628D01*
X116114285Y-38062295D02*
X116647619Y-38062295D01*
X116647619Y-38062295D02*
X116304761Y-38862295D01*
X117104762Y-38062295D02*
X117180952Y-38062295D01*
X117180952Y-38062295D02*
X117257143Y-38100390D01*
X117257143Y-38100390D02*
X117295238Y-38138485D01*
X117295238Y-38138485D02*
X117333333Y-38214676D01*
X117333333Y-38214676D02*
X117371428Y-38367057D01*
X117371428Y-38367057D02*
X117371428Y-38557533D01*
X117371428Y-38557533D02*
X117333333Y-38709914D01*
X117333333Y-38709914D02*
X117295238Y-38786104D01*
X117295238Y-38786104D02*
X117257143Y-38824200D01*
X117257143Y-38824200D02*
X117180952Y-38862295D01*
X117180952Y-38862295D02*
X117104762Y-38862295D01*
X117104762Y-38862295D02*
X117028571Y-38824200D01*
X117028571Y-38824200D02*
X116990476Y-38786104D01*
X116990476Y-38786104D02*
X116952381Y-38709914D01*
X116952381Y-38709914D02*
X116914285Y-38557533D01*
X116914285Y-38557533D02*
X116914285Y-38367057D01*
X116914285Y-38367057D02*
X116952381Y-38214676D01*
X116952381Y-38214676D02*
X116990476Y-38138485D01*
X116990476Y-38138485D02*
X117028571Y-38100390D01*
X117028571Y-38100390D02*
X117104762Y-38062295D01*
X118057143Y-38328961D02*
X118057143Y-38862295D01*
X117714286Y-38328961D02*
X117714286Y-38748009D01*
X117714286Y-38748009D02*
X117752381Y-38824200D01*
X117752381Y-38824200D02*
X117828571Y-38862295D01*
X117828571Y-38862295D02*
X117942857Y-38862295D01*
X117942857Y-38862295D02*
X118019048Y-38824200D01*
X118019048Y-38824200D02*
X118057143Y-38786104D01*
X118704762Y-38443247D02*
X118438096Y-38443247D01*
X118438096Y-38862295D02*
X118438096Y-38062295D01*
X118438096Y-38062295D02*
X118819048Y-38062295D01*
X74814286Y-27322842D02*
X74771429Y-27365700D01*
X74771429Y-27365700D02*
X74642857Y-27408557D01*
X74642857Y-27408557D02*
X74557143Y-27408557D01*
X74557143Y-27408557D02*
X74428572Y-27365700D01*
X74428572Y-27365700D02*
X74342857Y-27279985D01*
X74342857Y-27279985D02*
X74300000Y-27194271D01*
X74300000Y-27194271D02*
X74257143Y-27022842D01*
X74257143Y-27022842D02*
X74257143Y-26894271D01*
X74257143Y-26894271D02*
X74300000Y-26722842D01*
X74300000Y-26722842D02*
X74342857Y-26637128D01*
X74342857Y-26637128D02*
X74428572Y-26551414D01*
X74428572Y-26551414D02*
X74557143Y-26508557D01*
X74557143Y-26508557D02*
X74642857Y-26508557D01*
X74642857Y-26508557D02*
X74771429Y-26551414D01*
X74771429Y-26551414D02*
X74814286Y-26594271D01*
X75200000Y-27408557D02*
X75200000Y-26508557D01*
X75200000Y-26937128D02*
X75714286Y-26937128D01*
X75714286Y-27408557D02*
X75714286Y-26508557D01*
X76100000Y-27151414D02*
X76528572Y-27151414D01*
X76014286Y-27408557D02*
X76314286Y-26508557D01*
X76314286Y-26508557D02*
X76614286Y-27408557D01*
X76914286Y-27408557D02*
X76914286Y-26508557D01*
X76914286Y-26508557D02*
X77428572Y-27408557D01*
X77428572Y-27408557D02*
X77428572Y-26508557D01*
X77857143Y-27408557D02*
X77857143Y-26508557D01*
X77857143Y-26508557D02*
X78371429Y-27408557D01*
X78371429Y-27408557D02*
X78371429Y-26508557D01*
X78800000Y-26937128D02*
X79100000Y-26937128D01*
X79228572Y-27408557D02*
X78800000Y-27408557D01*
X78800000Y-27408557D02*
X78800000Y-26508557D01*
X78800000Y-26508557D02*
X79228572Y-26508557D01*
X80042858Y-27408557D02*
X79614286Y-27408557D01*
X79614286Y-27408557D02*
X79614286Y-26508557D01*
X81200000Y-26508557D02*
X81371428Y-26508557D01*
X81371428Y-26508557D02*
X81457143Y-26551414D01*
X81457143Y-26551414D02*
X81542857Y-26637128D01*
X81542857Y-26637128D02*
X81585714Y-26808557D01*
X81585714Y-26808557D02*
X81585714Y-27108557D01*
X81585714Y-27108557D02*
X81542857Y-27279985D01*
X81542857Y-27279985D02*
X81457143Y-27365700D01*
X81457143Y-27365700D02*
X81371428Y-27408557D01*
X81371428Y-27408557D02*
X81200000Y-27408557D01*
X81200000Y-27408557D02*
X81114286Y-27365700D01*
X81114286Y-27365700D02*
X81028571Y-27279985D01*
X81028571Y-27279985D02*
X80985714Y-27108557D01*
X80985714Y-27108557D02*
X80985714Y-26808557D01*
X80985714Y-26808557D02*
X81028571Y-26637128D01*
X81028571Y-26637128D02*
X81114286Y-26551414D01*
X81114286Y-26551414D02*
X81200000Y-26508557D01*
X81971428Y-26508557D02*
X81971428Y-27237128D01*
X81971428Y-27237128D02*
X82014285Y-27322842D01*
X82014285Y-27322842D02*
X82057143Y-27365700D01*
X82057143Y-27365700D02*
X82142857Y-27408557D01*
X82142857Y-27408557D02*
X82314285Y-27408557D01*
X82314285Y-27408557D02*
X82400000Y-27365700D01*
X82400000Y-27365700D02*
X82442857Y-27322842D01*
X82442857Y-27322842D02*
X82485714Y-27237128D01*
X82485714Y-27237128D02*
X82485714Y-26508557D01*
X82785714Y-26508557D02*
X83300000Y-26508557D01*
X83042857Y-27408557D02*
X83042857Y-26508557D01*
X83599999Y-27408557D02*
X83599999Y-26508557D01*
X83599999Y-26508557D02*
X83942856Y-26508557D01*
X83942856Y-26508557D02*
X84028571Y-26551414D01*
X84028571Y-26551414D02*
X84071428Y-26594271D01*
X84071428Y-26594271D02*
X84114285Y-26679985D01*
X84114285Y-26679985D02*
X84114285Y-26808557D01*
X84114285Y-26808557D02*
X84071428Y-26894271D01*
X84071428Y-26894271D02*
X84028571Y-26937128D01*
X84028571Y-26937128D02*
X83942856Y-26979985D01*
X83942856Y-26979985D02*
X83599999Y-26979985D01*
X84499999Y-26508557D02*
X84499999Y-27237128D01*
X84499999Y-27237128D02*
X84542856Y-27322842D01*
X84542856Y-27322842D02*
X84585714Y-27365700D01*
X84585714Y-27365700D02*
X84671428Y-27408557D01*
X84671428Y-27408557D02*
X84842856Y-27408557D01*
X84842856Y-27408557D02*
X84928571Y-27365700D01*
X84928571Y-27365700D02*
X84971428Y-27322842D01*
X84971428Y-27322842D02*
X85014285Y-27237128D01*
X85014285Y-27237128D02*
X85014285Y-26508557D01*
X85314285Y-26508557D02*
X85828571Y-26508557D01*
X85571428Y-27408557D02*
X85571428Y-26508557D01*
X77492857Y-28551414D02*
X77407143Y-28508557D01*
X77407143Y-28508557D02*
X77278571Y-28508557D01*
X77278571Y-28508557D02*
X77150000Y-28551414D01*
X77150000Y-28551414D02*
X77064285Y-28637128D01*
X77064285Y-28637128D02*
X77021428Y-28722842D01*
X77021428Y-28722842D02*
X76978571Y-28894271D01*
X76978571Y-28894271D02*
X76978571Y-29022842D01*
X76978571Y-29022842D02*
X77021428Y-29194271D01*
X77021428Y-29194271D02*
X77064285Y-29279985D01*
X77064285Y-29279985D02*
X77150000Y-29365700D01*
X77150000Y-29365700D02*
X77278571Y-29408557D01*
X77278571Y-29408557D02*
X77364285Y-29408557D01*
X77364285Y-29408557D02*
X77492857Y-29365700D01*
X77492857Y-29365700D02*
X77535714Y-29322842D01*
X77535714Y-29322842D02*
X77535714Y-29022842D01*
X77535714Y-29022842D02*
X77364285Y-29022842D01*
X79121428Y-29322842D02*
X79078571Y-29365700D01*
X79078571Y-29365700D02*
X78949999Y-29408557D01*
X78949999Y-29408557D02*
X78864285Y-29408557D01*
X78864285Y-29408557D02*
X78735714Y-29365700D01*
X78735714Y-29365700D02*
X78649999Y-29279985D01*
X78649999Y-29279985D02*
X78607142Y-29194271D01*
X78607142Y-29194271D02*
X78564285Y-29022842D01*
X78564285Y-29022842D02*
X78564285Y-28894271D01*
X78564285Y-28894271D02*
X78607142Y-28722842D01*
X78607142Y-28722842D02*
X78649999Y-28637128D01*
X78649999Y-28637128D02*
X78735714Y-28551414D01*
X78735714Y-28551414D02*
X78864285Y-28508557D01*
X78864285Y-28508557D02*
X78949999Y-28508557D01*
X78949999Y-28508557D02*
X79078571Y-28551414D01*
X79078571Y-28551414D02*
X79121428Y-28594271D01*
X80192856Y-29408557D02*
X80192856Y-28508557D01*
X80192856Y-28508557D02*
X80407142Y-28508557D01*
X80407142Y-28508557D02*
X80535713Y-28551414D01*
X80535713Y-28551414D02*
X80621428Y-28637128D01*
X80621428Y-28637128D02*
X80664285Y-28722842D01*
X80664285Y-28722842D02*
X80707142Y-28894271D01*
X80707142Y-28894271D02*
X80707142Y-29022842D01*
X80707142Y-29022842D02*
X80664285Y-29194271D01*
X80664285Y-29194271D02*
X80621428Y-29279985D01*
X80621428Y-29279985D02*
X80535713Y-29365700D01*
X80535713Y-29365700D02*
X80407142Y-29408557D01*
X80407142Y-29408557D02*
X80192856Y-29408557D01*
X82207142Y-28508557D02*
X81778570Y-28508557D01*
X81778570Y-28508557D02*
X81735713Y-28937128D01*
X81735713Y-28937128D02*
X81778570Y-28894271D01*
X81778570Y-28894271D02*
X81864285Y-28851414D01*
X81864285Y-28851414D02*
X82078570Y-28851414D01*
X82078570Y-28851414D02*
X82164285Y-28894271D01*
X82164285Y-28894271D02*
X82207142Y-28937128D01*
X82207142Y-28937128D02*
X82249999Y-29022842D01*
X82249999Y-29022842D02*
X82249999Y-29237128D01*
X82249999Y-29237128D02*
X82207142Y-29322842D01*
X82207142Y-29322842D02*
X82164285Y-29365700D01*
X82164285Y-29365700D02*
X82078570Y-29408557D01*
X82078570Y-29408557D02*
X81864285Y-29408557D01*
X81864285Y-29408557D02*
X81778570Y-29365700D01*
X81778570Y-29365700D02*
X81735713Y-29322842D01*
X82507142Y-28508557D02*
X82807142Y-29408557D01*
X82807142Y-29408557D02*
X83107142Y-28508557D01*
X117414286Y-10751414D02*
X117328572Y-10708557D01*
X117328572Y-10708557D02*
X117200000Y-10708557D01*
X117200000Y-10708557D02*
X117071429Y-10751414D01*
X117071429Y-10751414D02*
X116985714Y-10837128D01*
X116985714Y-10837128D02*
X116942857Y-10922842D01*
X116942857Y-10922842D02*
X116900000Y-11094271D01*
X116900000Y-11094271D02*
X116900000Y-11222842D01*
X116900000Y-11222842D02*
X116942857Y-11394271D01*
X116942857Y-11394271D02*
X116985714Y-11479985D01*
X116985714Y-11479985D02*
X117071429Y-11565700D01*
X117071429Y-11565700D02*
X117200000Y-11608557D01*
X117200000Y-11608557D02*
X117285714Y-11608557D01*
X117285714Y-11608557D02*
X117414286Y-11565700D01*
X117414286Y-11565700D02*
X117457143Y-11522842D01*
X117457143Y-11522842D02*
X117457143Y-11222842D01*
X117457143Y-11222842D02*
X117285714Y-11222842D01*
X117842857Y-11608557D02*
X117842857Y-10708557D01*
X117842857Y-10708557D02*
X118357143Y-11608557D01*
X118357143Y-11608557D02*
X118357143Y-10708557D01*
X118785714Y-11608557D02*
X118785714Y-10708557D01*
X118785714Y-10708557D02*
X119000000Y-10708557D01*
X119000000Y-10708557D02*
X119128571Y-10751414D01*
X119128571Y-10751414D02*
X119214286Y-10837128D01*
X119214286Y-10837128D02*
X119257143Y-10922842D01*
X119257143Y-10922842D02*
X119300000Y-11094271D01*
X119300000Y-11094271D02*
X119300000Y-11222842D01*
X119300000Y-11222842D02*
X119257143Y-11394271D01*
X119257143Y-11394271D02*
X119214286Y-11479985D01*
X119214286Y-11479985D02*
X119128571Y-11565700D01*
X119128571Y-11565700D02*
X119000000Y-11608557D01*
X119000000Y-11608557D02*
X118785714Y-11608557D01*
X120371428Y-11265700D02*
X121057143Y-11265700D01*
X28419048Y-47573866D02*
X29180953Y-47573866D01*
X28800000Y-47954819D02*
X28800000Y-47192914D01*
X68119048Y-41454819D02*
X68119048Y-42264342D01*
X68119048Y-42264342D02*
X68166667Y-42359580D01*
X68166667Y-42359580D02*
X68214286Y-42407200D01*
X68214286Y-42407200D02*
X68309524Y-42454819D01*
X68309524Y-42454819D02*
X68500000Y-42454819D01*
X68500000Y-42454819D02*
X68595238Y-42407200D01*
X68595238Y-42407200D02*
X68642857Y-42359580D01*
X68642857Y-42359580D02*
X68690476Y-42264342D01*
X68690476Y-42264342D02*
X68690476Y-41454819D01*
X69119048Y-42407200D02*
X69261905Y-42454819D01*
X69261905Y-42454819D02*
X69500000Y-42454819D01*
X69500000Y-42454819D02*
X69595238Y-42407200D01*
X69595238Y-42407200D02*
X69642857Y-42359580D01*
X69642857Y-42359580D02*
X69690476Y-42264342D01*
X69690476Y-42264342D02*
X69690476Y-42169104D01*
X69690476Y-42169104D02*
X69642857Y-42073866D01*
X69642857Y-42073866D02*
X69595238Y-42026247D01*
X69595238Y-42026247D02*
X69500000Y-41978628D01*
X69500000Y-41978628D02*
X69309524Y-41931009D01*
X69309524Y-41931009D02*
X69214286Y-41883390D01*
X69214286Y-41883390D02*
X69166667Y-41835771D01*
X69166667Y-41835771D02*
X69119048Y-41740533D01*
X69119048Y-41740533D02*
X69119048Y-41645295D01*
X69119048Y-41645295D02*
X69166667Y-41550057D01*
X69166667Y-41550057D02*
X69214286Y-41502438D01*
X69214286Y-41502438D02*
X69309524Y-41454819D01*
X69309524Y-41454819D02*
X69547619Y-41454819D01*
X69547619Y-41454819D02*
X69690476Y-41502438D01*
X70452381Y-41931009D02*
X70595238Y-41978628D01*
X70595238Y-41978628D02*
X70642857Y-42026247D01*
X70642857Y-42026247D02*
X70690476Y-42121485D01*
X70690476Y-42121485D02*
X70690476Y-42264342D01*
X70690476Y-42264342D02*
X70642857Y-42359580D01*
X70642857Y-42359580D02*
X70595238Y-42407200D01*
X70595238Y-42407200D02*
X70500000Y-42454819D01*
X70500000Y-42454819D02*
X70119048Y-42454819D01*
X70119048Y-42454819D02*
X70119048Y-41454819D01*
X70119048Y-41454819D02*
X70452381Y-41454819D01*
X70452381Y-41454819D02*
X70547619Y-41502438D01*
X70547619Y-41502438D02*
X70595238Y-41550057D01*
X70595238Y-41550057D02*
X70642857Y-41645295D01*
X70642857Y-41645295D02*
X70642857Y-41740533D01*
X70642857Y-41740533D02*
X70595238Y-41835771D01*
X70595238Y-41835771D02*
X70547619Y-41883390D01*
X70547619Y-41883390D02*
X70452381Y-41931009D01*
X70452381Y-41931009D02*
X70119048Y-41931009D01*
X71880953Y-42073866D02*
X72642858Y-42073866D01*
X73119048Y-41788152D02*
X73880953Y-42073866D01*
X73880953Y-42073866D02*
X73119048Y-42359580D01*
X105419048Y-36073866D02*
X106180953Y-36073866D01*
X105800000Y-36454819D02*
X105800000Y-35692914D01*
X117714286Y-25073866D02*
X118476191Y-25073866D01*
X118095238Y-25454819D02*
X118095238Y-24692914D01*
X119428571Y-24454819D02*
X118952381Y-24454819D01*
X118952381Y-24454819D02*
X118904762Y-24931009D01*
X118904762Y-24931009D02*
X118952381Y-24883390D01*
X118952381Y-24883390D02*
X119047619Y-24835771D01*
X119047619Y-24835771D02*
X119285714Y-24835771D01*
X119285714Y-24835771D02*
X119380952Y-24883390D01*
X119380952Y-24883390D02*
X119428571Y-24931009D01*
X119428571Y-24931009D02*
X119476190Y-25026247D01*
X119476190Y-25026247D02*
X119476190Y-25264342D01*
X119476190Y-25264342D02*
X119428571Y-25359580D01*
X119428571Y-25359580D02*
X119380952Y-25407200D01*
X119380952Y-25407200D02*
X119285714Y-25454819D01*
X119285714Y-25454819D02*
X119047619Y-25454819D01*
X119047619Y-25454819D02*
X118952381Y-25407200D01*
X118952381Y-25407200D02*
X118904762Y-25359580D01*
X119761905Y-24454819D02*
X120095238Y-25454819D01*
X120095238Y-25454819D02*
X120428571Y-24454819D01*
%TO.C,R15*%
D13*
X45265000Y-28227064D02*
X45265000Y-27772936D01*
X46735000Y-28227064D02*
X46735000Y-27772936D01*
%TO.C,Q1*%
X48470000Y-32850000D02*
X52070000Y-32850000D01*
X48431522Y-32838478D02*
G75*
G02*
X50270000Y-28399999I1838478J1838478D01*
G01*
X50270000Y-28400000D02*
G75*
G02*
X52108478Y-32838478I0J-2600000D01*
G01*
%TO.C,J5*%
X86150000Y-4250000D02*
X86150000Y-5500000D01*
X86450000Y-6800000D02*
X87200000Y-6800000D01*
X87200000Y-6800000D02*
X87200000Y-9750000D01*
X87200000Y-9750000D02*
X92750000Y-9750000D01*
X87400000Y-4250000D02*
X86150000Y-4250000D01*
X98300000Y-6800000D02*
X98300000Y-9750000D01*
X98300000Y-9750000D02*
X92750000Y-9750000D01*
X99050000Y-6800000D02*
X98300000Y-6800000D01*
X86440000Y-4540000D02*
X99060000Y-4540000D01*
X99060000Y-10510000D01*
X86440000Y-10510000D01*
X86440000Y-4540000D01*
X86450000Y-4550000D02*
X88250000Y-4550000D01*
X88250000Y-5300000D01*
X86450000Y-5300000D01*
X86450000Y-4550000D01*
X89750000Y-4550000D02*
X95750000Y-4550000D01*
X95750000Y-5300000D01*
X89750000Y-5300000D01*
X89750000Y-4550000D01*
X97250000Y-4550000D02*
X99050000Y-4550000D01*
X99050000Y-5300000D01*
X97250000Y-5300000D01*
X97250000Y-4550000D01*
%TO.C,C1*%
X22238748Y-27765000D02*
X22761252Y-27765000D01*
X22238748Y-29235000D02*
X22761252Y-29235000D01*
%TO.C,J4*%
X67150000Y-4250000D02*
X67150000Y-5500000D01*
X67450000Y-6800000D02*
X68200000Y-6800000D01*
X68200000Y-6800000D02*
X68200000Y-9750000D01*
X68200000Y-9750000D02*
X73750000Y-9750000D01*
X68400000Y-4250000D02*
X67150000Y-4250000D01*
X79300000Y-6800000D02*
X79300000Y-9750000D01*
X79300000Y-9750000D02*
X73750000Y-9750000D01*
X80050000Y-6800000D02*
X79300000Y-6800000D01*
X67440000Y-4540000D02*
X80060000Y-4540000D01*
X80060000Y-10510000D01*
X67440000Y-10510000D01*
X67440000Y-4540000D01*
X67450000Y-4550000D02*
X69250000Y-4550000D01*
X69250000Y-5300000D01*
X67450000Y-5300000D01*
X67450000Y-4550000D01*
X70750000Y-4550000D02*
X76750000Y-4550000D01*
X76750000Y-5300000D01*
X70750000Y-5300000D01*
X70750000Y-4550000D01*
X78250000Y-4550000D02*
X80050000Y-4550000D01*
X80050000Y-5300000D01*
X78250000Y-5300000D01*
X78250000Y-4550000D01*
%TO.C,R5*%
X55265000Y-14227064D02*
X55265000Y-13772936D01*
X56735000Y-14227064D02*
X56735000Y-13772936D01*
%TO.C,C5*%
X113020354Y-29125000D02*
X114020354Y-29125000D01*
X113520354Y-28625000D02*
X113520354Y-29625000D01*
X118500000Y-26920000D02*
X118500000Y-37080000D01*
X118540000Y-26920000D02*
X118540000Y-37080000D01*
X118580000Y-26921000D02*
X118580000Y-37079000D01*
X118620000Y-26921000D02*
X118620000Y-37079000D01*
X118660000Y-26923000D02*
X118660000Y-37077000D01*
X118700000Y-26924000D02*
X118700000Y-37076000D01*
X118740000Y-26926000D02*
X118740000Y-37074000D01*
X118780000Y-26928000D02*
X118780000Y-37072000D01*
X118820000Y-26930000D02*
X118820000Y-37070000D01*
X118860000Y-26933000D02*
X118860000Y-37067000D01*
X118900000Y-26936000D02*
X118900000Y-37064000D01*
X118940000Y-26939000D02*
X118940000Y-37061000D01*
X118980000Y-26943000D02*
X118980000Y-37057000D01*
X119020000Y-26946000D02*
X119020000Y-37054000D01*
X119060000Y-26951000D02*
X119060000Y-37049000D01*
X119100000Y-26955000D02*
X119100000Y-37045000D01*
X119140000Y-26960000D02*
X119140000Y-37040000D01*
X119180000Y-26965000D02*
X119180000Y-37035000D01*
X119220000Y-26971000D02*
X119220000Y-37029000D01*
X119260000Y-26977000D02*
X119260000Y-37023000D01*
X119300000Y-26983000D02*
X119300000Y-37017000D01*
X119340000Y-26989000D02*
X119340000Y-37011000D01*
X119380000Y-26996000D02*
X119380000Y-37004000D01*
X119420000Y-27003000D02*
X119420000Y-36997000D01*
X119460000Y-27011000D02*
X119460000Y-36989000D01*
X119500000Y-27019000D02*
X119500000Y-36981000D01*
X119540000Y-27027000D02*
X119540000Y-36973000D01*
X119580000Y-27035000D02*
X119580000Y-36965000D01*
X119620000Y-27044000D02*
X119620000Y-36956000D01*
X119660000Y-27053000D02*
X119660000Y-36947000D01*
X119700000Y-27063000D02*
X119700000Y-36937000D01*
X119740000Y-27072000D02*
X119740000Y-36928000D01*
X119780000Y-27083000D02*
X119780000Y-30760000D01*
X119780000Y-33240000D02*
X119780000Y-36917000D01*
X119820000Y-27093000D02*
X119820000Y-30760000D01*
X119820000Y-33240000D02*
X119820000Y-36907000D01*
X119860000Y-27104000D02*
X119860000Y-30760000D01*
X119860000Y-33240000D02*
X119860000Y-36896000D01*
X119900000Y-27115000D02*
X119900000Y-30760000D01*
X119900000Y-33240000D02*
X119900000Y-36885000D01*
X119940000Y-27127000D02*
X119940000Y-30760000D01*
X119940000Y-33240000D02*
X119940000Y-36873000D01*
X119980000Y-27139000D02*
X119980000Y-30760000D01*
X119980000Y-33240000D02*
X119980000Y-36861000D01*
X120020000Y-27151000D02*
X120020000Y-30760000D01*
X120020000Y-33240000D02*
X120020000Y-36849000D01*
X120060000Y-27163000D02*
X120060000Y-30760000D01*
X120060000Y-33240000D02*
X120060000Y-36837000D01*
X120100000Y-27176000D02*
X120100000Y-30760000D01*
X120100000Y-33240000D02*
X120100000Y-36824000D01*
X120140000Y-27190000D02*
X120140000Y-30760000D01*
X120140000Y-33240000D02*
X120140000Y-36810000D01*
X120180000Y-27203000D02*
X120180000Y-30760000D01*
X120180000Y-33240000D02*
X120180000Y-36797000D01*
X120220000Y-27218000D02*
X120220000Y-30760000D01*
X120220000Y-33240000D02*
X120220000Y-36782000D01*
X120260000Y-27232000D02*
X120260000Y-30760000D01*
X120260000Y-33240000D02*
X120260000Y-36768000D01*
X120300000Y-27247000D02*
X120300000Y-30760000D01*
X120300000Y-33240000D02*
X120300000Y-36753000D01*
X120340000Y-27262000D02*
X120340000Y-30760000D01*
X120340000Y-33240000D02*
X120340000Y-36738000D01*
X120380000Y-27278000D02*
X120380000Y-30760000D01*
X120380000Y-33240000D02*
X120380000Y-36722000D01*
X120420000Y-27294000D02*
X120420000Y-30760000D01*
X120420000Y-33240000D02*
X120420000Y-36706000D01*
X120460000Y-27310000D02*
X120460000Y-30760000D01*
X120460000Y-33240000D02*
X120460000Y-36690000D01*
X120500000Y-27327000D02*
X120500000Y-30760000D01*
X120500000Y-33240000D02*
X120500000Y-36673000D01*
X120540000Y-27344000D02*
X120540000Y-30760000D01*
X120540000Y-33240000D02*
X120540000Y-36656000D01*
X120580000Y-27362000D02*
X120580000Y-30760000D01*
X120580000Y-33240000D02*
X120580000Y-36638000D01*
X120620000Y-27380000D02*
X120620000Y-30760000D01*
X120620000Y-33240000D02*
X120620000Y-36620000D01*
X120660000Y-27398000D02*
X120660000Y-30760000D01*
X120660000Y-33240000D02*
X120660000Y-36602000D01*
X120700000Y-27417000D02*
X120700000Y-30760000D01*
X120700000Y-33240000D02*
X120700000Y-36583000D01*
X120740000Y-27436000D02*
X120740000Y-30760000D01*
X120740000Y-33240000D02*
X120740000Y-36564000D01*
X120780000Y-27456000D02*
X120780000Y-30760000D01*
X120780000Y-33240000D02*
X120780000Y-36544000D01*
X120820000Y-27476000D02*
X120820000Y-30760000D01*
X120820000Y-33240000D02*
X120820000Y-36524000D01*
X120860000Y-27496000D02*
X120860000Y-30760000D01*
X120860000Y-33240000D02*
X120860000Y-36504000D01*
X120900000Y-27517000D02*
X120900000Y-30760000D01*
X120900000Y-33240000D02*
X120900000Y-36483000D01*
X120940000Y-27539000D02*
X120940000Y-30760000D01*
X120940000Y-33240000D02*
X120940000Y-36461000D01*
X120980000Y-27561000D02*
X120980000Y-30760000D01*
X120980000Y-33240000D02*
X120980000Y-36439000D01*
X121020000Y-27583000D02*
X121020000Y-30760000D01*
X121020000Y-33240000D02*
X121020000Y-36417000D01*
X121060000Y-27606000D02*
X121060000Y-30760000D01*
X121060000Y-33240000D02*
X121060000Y-36394000D01*
X121100000Y-27629000D02*
X121100000Y-30760000D01*
X121100000Y-33240000D02*
X121100000Y-36371000D01*
X121140000Y-27653000D02*
X121140000Y-30760000D01*
X121140000Y-33240000D02*
X121140000Y-36347000D01*
X121180000Y-27677000D02*
X121180000Y-30760000D01*
X121180000Y-33240000D02*
X121180000Y-36323000D01*
X121220000Y-27702000D02*
X121220000Y-30760000D01*
X121220000Y-33240000D02*
X121220000Y-36298000D01*
X121260000Y-27728000D02*
X121260000Y-30760000D01*
X121260000Y-33240000D02*
X121260000Y-36272000D01*
X121300000Y-27753000D02*
X121300000Y-30760000D01*
X121300000Y-33240000D02*
X121300000Y-36247000D01*
X121340000Y-27780000D02*
X121340000Y-30760000D01*
X121340000Y-33240000D02*
X121340000Y-36220000D01*
X121380000Y-27807000D02*
X121380000Y-30760000D01*
X121380000Y-33240000D02*
X121380000Y-36193000D01*
X121420000Y-27834000D02*
X121420000Y-30760000D01*
X121420000Y-33240000D02*
X121420000Y-36166000D01*
X121460000Y-27862000D02*
X121460000Y-30760000D01*
X121460000Y-33240000D02*
X121460000Y-36138000D01*
X121500000Y-27891000D02*
X121500000Y-30760000D01*
X121500000Y-33240000D02*
X121500000Y-36109000D01*
X121540000Y-27920000D02*
X121540000Y-30760000D01*
X121540000Y-33240000D02*
X121540000Y-36080000D01*
X121580000Y-27950000D02*
X121580000Y-30760000D01*
X121580000Y-33240000D02*
X121580000Y-36050000D01*
X121620000Y-27980000D02*
X121620000Y-30760000D01*
X121620000Y-33240000D02*
X121620000Y-36020000D01*
X121660000Y-28012000D02*
X121660000Y-30760000D01*
X121660000Y-33240000D02*
X121660000Y-35988000D01*
X121700000Y-28043000D02*
X121700000Y-30760000D01*
X121700000Y-33240000D02*
X121700000Y-35957000D01*
X121740000Y-28076000D02*
X121740000Y-30760000D01*
X121740000Y-33240000D02*
X121740000Y-35924000D01*
X121780000Y-28109000D02*
X121780000Y-30760000D01*
X121780000Y-33240000D02*
X121780000Y-35891000D01*
X121820000Y-28142000D02*
X121820000Y-30760000D01*
X121820000Y-33240000D02*
X121820000Y-35858000D01*
X121860000Y-28177000D02*
X121860000Y-30760000D01*
X121860000Y-33240000D02*
X121860000Y-35823000D01*
X121900000Y-28212000D02*
X121900000Y-30760000D01*
X121900000Y-33240000D02*
X121900000Y-35788000D01*
X121940000Y-28248000D02*
X121940000Y-30760000D01*
X121940000Y-33240000D02*
X121940000Y-35752000D01*
X121980000Y-28284000D02*
X121980000Y-30760000D01*
X121980000Y-33240000D02*
X121980000Y-35716000D01*
X122020000Y-28322000D02*
X122020000Y-30760000D01*
X122020000Y-33240000D02*
X122020000Y-35678000D01*
X122060000Y-28360000D02*
X122060000Y-30760000D01*
X122060000Y-33240000D02*
X122060000Y-35640000D01*
X122100000Y-28399000D02*
X122100000Y-30760000D01*
X122100000Y-33240000D02*
X122100000Y-35601000D01*
X122140000Y-28439000D02*
X122140000Y-30760000D01*
X122140000Y-33240000D02*
X122140000Y-35561000D01*
X122180000Y-28480000D02*
X122180000Y-30760000D01*
X122180000Y-33240000D02*
X122180000Y-35520000D01*
X122220000Y-28522000D02*
X122220000Y-30760000D01*
X122220000Y-33240000D02*
X122220000Y-35478000D01*
X122260000Y-28565000D02*
X122260000Y-35435000D01*
X122300000Y-28609000D02*
X122300000Y-35391000D01*
X122340000Y-28653000D02*
X122340000Y-35347000D01*
X122380000Y-28699000D02*
X122380000Y-35301000D01*
X122420000Y-28746000D02*
X122420000Y-35254000D01*
X122460000Y-28795000D02*
X122460000Y-35205000D01*
X122500000Y-28844000D02*
X122500000Y-35156000D01*
X122540000Y-28895000D02*
X122540000Y-35105000D01*
X122580000Y-28947000D02*
X122580000Y-35053000D01*
X122620000Y-29000000D02*
X122620000Y-35000000D01*
X122660000Y-29055000D02*
X122660000Y-34945000D01*
X122700000Y-29112000D02*
X122700000Y-34888000D01*
X122740000Y-29170000D02*
X122740000Y-34830000D01*
X122780000Y-29230000D02*
X122780000Y-34770000D01*
X122820000Y-29292000D02*
X122820000Y-34708000D01*
X122860000Y-29356000D02*
X122860000Y-34644000D01*
X122900000Y-29422000D02*
X122900000Y-34578000D01*
X122940000Y-29490000D02*
X122940000Y-34510000D01*
X122980000Y-29561000D02*
X122980000Y-34439000D01*
X123020000Y-29635000D02*
X123020000Y-34365000D01*
X123060000Y-29712000D02*
X123060000Y-34288000D01*
X123100000Y-29792000D02*
X123100000Y-34208000D01*
X123140000Y-29876000D02*
X123140000Y-34124000D01*
X123180000Y-29963000D02*
X123180000Y-34037000D01*
X123220000Y-30056000D02*
X123220000Y-33944000D01*
X123260000Y-30154000D02*
X123260000Y-33846000D01*
X123300000Y-30258000D02*
X123300000Y-33742000D01*
X123340000Y-30370000D02*
X123340000Y-33630000D01*
X123380000Y-30491000D02*
X123380000Y-33509000D01*
X123420000Y-30623000D02*
X123420000Y-33377000D01*
X123460000Y-30770000D02*
X123460000Y-33230000D01*
X123500000Y-30938000D02*
X123500000Y-33062000D01*
X123540000Y-31138000D02*
X123540000Y-32862000D01*
X123580000Y-31401000D02*
X123580000Y-32599000D01*
X123620000Y-32000000D02*
G75*
G02*
X113380000Y-32000000I-5120000J0D01*
G01*
X113380000Y-32000000D02*
G75*
G02*
X123620000Y-32000000I5120000J0D01*
G01*
%TO.C,U2*%
X58440000Y-18065000D02*
X62560000Y-18065000D01*
X58440000Y-18130000D02*
X58440000Y-18065000D01*
X58440000Y-26935000D02*
X58440000Y-26870000D01*
X62560000Y-18065000D02*
X62560000Y-18130000D01*
X62560000Y-26870000D02*
X62560000Y-26935000D01*
X62560000Y-26935000D02*
X58440000Y-26935000D01*
X57900000Y-18130000D02*
X57660000Y-17800000D01*
X58140000Y-17800000D01*
X57900000Y-18130000D01*
G36*
X57900000Y-18130000D02*
G01*
X57660000Y-17800000D01*
X58140000Y-17800000D01*
X57900000Y-18130000D01*
G37*
%TO.C,D1*%
X107710000Y-34764000D02*
X107710000Y-34920000D01*
X107710000Y-37080000D02*
X107710000Y-37236000D01*
X107710000Y-34764484D02*
G75*
G02*
X110941437Y-34920000I1560000J-1235516D01*
G01*
X108229039Y-34920000D02*
G75*
G02*
X110310961Y-34920000I1040961J-1080000D01*
G01*
X110310961Y-37080000D02*
G75*
G02*
X108229039Y-37080000I-1040961J1080000D01*
G01*
X110941437Y-37080000D02*
G75*
G02*
X107710000Y-37235516I-1671437J1080000D01*
G01*
%TO.C,D2*%
X30710000Y-46264000D02*
X30710000Y-46420000D01*
X30710000Y-48580000D02*
X30710000Y-48736000D01*
X30710000Y-46264484D02*
G75*
G02*
X33941437Y-46420000I1560000J-1235516D01*
G01*
X31229039Y-46420000D02*
G75*
G02*
X33310961Y-46420000I1040961J-1080000D01*
G01*
X33310961Y-48580000D02*
G75*
G02*
X31229039Y-48580000I-1040961J1080000D01*
G01*
X33941437Y-48580000D02*
G75*
G02*
X30710000Y-48735516I-1671437J1080000D01*
G01*
%TO.C,R8*%
X71765000Y-14227064D02*
X71765000Y-13772936D01*
X73235000Y-14227064D02*
X73235000Y-13772936D01*
%TO.C,R1*%
X17265000Y-14227064D02*
X17265000Y-13772936D01*
X18735000Y-14227064D02*
X18735000Y-13772936D01*
%TO.C,R6*%
X52765000Y-14227064D02*
X52765000Y-13772936D01*
X54235000Y-14227064D02*
X54235000Y-13772936D01*
%TO.C,R20*%
X34265000Y-42227064D02*
X34265000Y-41772936D01*
X35735000Y-42227064D02*
X35735000Y-41772936D01*
%TO.C,R10*%
X90765000Y-14227064D02*
X90765000Y-13772936D01*
X92235000Y-14227064D02*
X92235000Y-13772936D01*
%TO.C,R12*%
X105765000Y-14227064D02*
X105765000Y-13772936D01*
X107235000Y-14227064D02*
X107235000Y-13772936D01*
%TO.C,C3*%
X98238748Y-27765000D02*
X98761252Y-27765000D01*
X98238748Y-29235000D02*
X98761252Y-29235000D01*
%TO.C,J9*%
X11990000Y-37940000D02*
X11990000Y-34060000D01*
X13960000Y-32890000D02*
X15110000Y-32890000D01*
X13960000Y-39110000D02*
X15110000Y-39110000D01*
X15110000Y-32890000D02*
X15110000Y-33940000D01*
X15110000Y-38060000D02*
X16100000Y-38060000D01*
X15110000Y-39110000D02*
X15110000Y-38060000D01*
%TO.C,R4*%
X33765000Y-14227064D02*
X33765000Y-13772936D01*
X35235000Y-14227064D02*
X35235000Y-13772936D01*
%TO.C,R19*%
X113265000Y-43227064D02*
X113265000Y-42772936D01*
X114735000Y-43227064D02*
X114735000Y-42772936D01*
%TO.C,R14*%
X41265000Y-28227064D02*
X41265000Y-27772936D01*
X42735000Y-28227064D02*
X42735000Y-27772936D01*
%TO.C,J1*%
X10150000Y-4250000D02*
X10150000Y-5500000D01*
X10450000Y-6800000D02*
X11200000Y-6800000D01*
X11200000Y-6800000D02*
X11200000Y-9750000D01*
X11200000Y-9750000D02*
X16750000Y-9750000D01*
X11400000Y-4250000D02*
X10150000Y-4250000D01*
X22300000Y-6800000D02*
X22300000Y-9750000D01*
X22300000Y-9750000D02*
X16750000Y-9750000D01*
X23050000Y-6800000D02*
X22300000Y-6800000D01*
X10440000Y-4540000D02*
X23060000Y-4540000D01*
X23060000Y-10510000D01*
X10440000Y-10510000D01*
X10440000Y-4540000D01*
X10450000Y-4550000D02*
X12250000Y-4550000D01*
X12250000Y-5300000D01*
X10450000Y-5300000D01*
X10450000Y-4550000D01*
X13750000Y-4550000D02*
X19750000Y-4550000D01*
X19750000Y-5300000D01*
X13750000Y-5300000D01*
X13750000Y-4550000D01*
X21250000Y-4550000D02*
X23050000Y-4550000D01*
X23050000Y-5300000D01*
X21250000Y-5300000D01*
X21250000Y-4550000D01*
%TO.C,R2*%
X14765000Y-14227064D02*
X14765000Y-13772936D01*
X16235000Y-14227064D02*
X16235000Y-13772936D01*
%TO.C,SW1*%
X19750000Y-49000000D02*
X19750000Y-50500000D01*
X21000000Y-53000000D02*
X25500000Y-53000000D01*
X25500000Y-46500000D02*
X21000000Y-46500000D01*
X26750000Y-50500000D02*
X26750000Y-49000000D01*
%TO.C,C4*%
X106195225Y-27025000D02*
X106695225Y-27025000D01*
X106445225Y-26775000D02*
X106445225Y-27275000D01*
X109000000Y-25920000D02*
X109000000Y-27460000D01*
X109000000Y-29540000D02*
X109000000Y-31080000D01*
X109040000Y-25920000D02*
X109040000Y-27460000D01*
X109040000Y-29540000D02*
X109040000Y-31080000D01*
X109080000Y-25921000D02*
X109080000Y-27460000D01*
X109080000Y-29540000D02*
X109080000Y-31079000D01*
X109120000Y-25923000D02*
X109120000Y-27460000D01*
X109120000Y-29540000D02*
X109120000Y-31077000D01*
X109160000Y-25925000D02*
X109160000Y-27460000D01*
X109160000Y-29540000D02*
X109160000Y-31075000D01*
X109200000Y-25928000D02*
X109200000Y-27460000D01*
X109200000Y-29540000D02*
X109200000Y-31072000D01*
X109240000Y-25931000D02*
X109240000Y-27460000D01*
X109240000Y-29540000D02*
X109240000Y-31069000D01*
X109280000Y-25935000D02*
X109280000Y-27460000D01*
X109280000Y-29540000D02*
X109280000Y-31065000D01*
X109320000Y-25940000D02*
X109320000Y-27460000D01*
X109320000Y-29540000D02*
X109320000Y-31060000D01*
X109360000Y-25945000D02*
X109360000Y-27460000D01*
X109360000Y-29540000D02*
X109360000Y-31055000D01*
X109400000Y-25951000D02*
X109400000Y-27460000D01*
X109400000Y-29540000D02*
X109400000Y-31049000D01*
X109440000Y-25957000D02*
X109440000Y-27460000D01*
X109440000Y-29540000D02*
X109440000Y-31043000D01*
X109480000Y-25964000D02*
X109480000Y-27460000D01*
X109480000Y-29540000D02*
X109480000Y-31036000D01*
X109520000Y-25972000D02*
X109520000Y-27460000D01*
X109520000Y-29540000D02*
X109520000Y-31028000D01*
X109560000Y-25981000D02*
X109560000Y-27460000D01*
X109560000Y-29540000D02*
X109560000Y-31019000D01*
X109600000Y-25990000D02*
X109600000Y-27460000D01*
X109600000Y-29540000D02*
X109600000Y-31010000D01*
X109640000Y-25999000D02*
X109640000Y-27460000D01*
X109640000Y-29540000D02*
X109640000Y-31001000D01*
X109680000Y-26010000D02*
X109680000Y-27460000D01*
X109680000Y-29540000D02*
X109680000Y-30990000D01*
X109720000Y-26021000D02*
X109720000Y-27460000D01*
X109720000Y-29540000D02*
X109720000Y-30979000D01*
X109760000Y-26033000D02*
X109760000Y-27460000D01*
X109760000Y-29540000D02*
X109760000Y-30967000D01*
X109800000Y-26045000D02*
X109800000Y-27460000D01*
X109800000Y-29540000D02*
X109800000Y-30955000D01*
X109840000Y-26058000D02*
X109840000Y-27460000D01*
X109840000Y-29540000D02*
X109840000Y-30942000D01*
X109880000Y-26072000D02*
X109880000Y-27460000D01*
X109880000Y-29540000D02*
X109880000Y-30928000D01*
X109920000Y-26087000D02*
X109920000Y-27460000D01*
X109920000Y-29540000D02*
X109920000Y-30913000D01*
X109960000Y-26102000D02*
X109960000Y-27460000D01*
X109960000Y-29540000D02*
X109960000Y-30898000D01*
X110000000Y-26118000D02*
X110000000Y-27460000D01*
X110000000Y-29540000D02*
X110000000Y-30882000D01*
X110040000Y-26135000D02*
X110040000Y-27460000D01*
X110040000Y-29540000D02*
X110040000Y-30865000D01*
X110080000Y-26153000D02*
X110080000Y-27460000D01*
X110080000Y-29540000D02*
X110080000Y-30847000D01*
X110120000Y-26171000D02*
X110120000Y-27460000D01*
X110120000Y-29540000D02*
X110120000Y-30829000D01*
X110160000Y-26191000D02*
X110160000Y-27460000D01*
X110160000Y-29540000D02*
X110160000Y-30809000D01*
X110200000Y-26211000D02*
X110200000Y-27460000D01*
X110200000Y-29540000D02*
X110200000Y-30789000D01*
X110240000Y-26232000D02*
X110240000Y-27460000D01*
X110240000Y-29540000D02*
X110240000Y-30768000D01*
X110280000Y-26254000D02*
X110280000Y-27460000D01*
X110280000Y-29540000D02*
X110280000Y-30746000D01*
X110320000Y-26277000D02*
X110320000Y-27460000D01*
X110320000Y-29540000D02*
X110320000Y-30723000D01*
X110360000Y-26301000D02*
X110360000Y-27460000D01*
X110360000Y-29540000D02*
X110360000Y-30699000D01*
X110400000Y-26325000D02*
X110400000Y-27460000D01*
X110400000Y-29540000D02*
X110400000Y-30675000D01*
X110440000Y-26351000D02*
X110440000Y-27460000D01*
X110440000Y-29540000D02*
X110440000Y-30649000D01*
X110480000Y-26378000D02*
X110480000Y-27460000D01*
X110480000Y-29540000D02*
X110480000Y-30622000D01*
X110520000Y-26406000D02*
X110520000Y-27460000D01*
X110520000Y-29540000D02*
X110520000Y-30594000D01*
X110560000Y-26435000D02*
X110560000Y-27460000D01*
X110560000Y-29540000D02*
X110560000Y-30565000D01*
X110600000Y-26465000D02*
X110600000Y-27460000D01*
X110600000Y-29540000D02*
X110600000Y-30535000D01*
X110640000Y-26497000D02*
X110640000Y-27460000D01*
X110640000Y-29540000D02*
X110640000Y-30503000D01*
X110680000Y-26530000D02*
X110680000Y-27460000D01*
X110680000Y-29540000D02*
X110680000Y-30470000D01*
X110720000Y-26564000D02*
X110720000Y-27460000D01*
X110720000Y-29540000D02*
X110720000Y-30436000D01*
X110760000Y-26599000D02*
X110760000Y-27460000D01*
X110760000Y-29540000D02*
X110760000Y-30401000D01*
X110800000Y-26636000D02*
X110800000Y-27460000D01*
X110800000Y-29540000D02*
X110800000Y-30364000D01*
X110840000Y-26675000D02*
X110840000Y-27460000D01*
X110840000Y-29540000D02*
X110840000Y-30325000D01*
X110880000Y-26715000D02*
X110880000Y-27460000D01*
X110880000Y-29540000D02*
X110880000Y-30285000D01*
X110920000Y-26757000D02*
X110920000Y-27460000D01*
X110920000Y-29540000D02*
X110920000Y-30243000D01*
X110960000Y-26801000D02*
X110960000Y-27460000D01*
X110960000Y-29540000D02*
X110960000Y-30199000D01*
X111000000Y-26848000D02*
X111000000Y-27460000D01*
X111000000Y-29540000D02*
X111000000Y-30152000D01*
X111040000Y-26896000D02*
X111040000Y-30104000D01*
X111080000Y-26947000D02*
X111080000Y-30053000D01*
X111120000Y-27001000D02*
X111120000Y-29999000D01*
X111160000Y-27057000D02*
X111160000Y-29943000D01*
X111200000Y-27117000D02*
X111200000Y-29883000D01*
X111240000Y-27181000D02*
X111240000Y-29819000D01*
X111280000Y-27249000D02*
X111280000Y-29751000D01*
X111320000Y-27323000D02*
X111320000Y-29677000D01*
X111360000Y-27402000D02*
X111360000Y-29598000D01*
X111400000Y-27489000D02*
X111400000Y-29511000D01*
X111440000Y-27586000D02*
X111440000Y-29414000D01*
X111480000Y-27695000D02*
X111480000Y-29305000D01*
X111520000Y-27823000D02*
X111520000Y-29177000D01*
X111560000Y-27983000D02*
X111560000Y-29017000D01*
X111600000Y-28217000D02*
X111600000Y-28783000D01*
X111620000Y-28500000D02*
G75*
G02*
X106380000Y-28500000I-2620000J0D01*
G01*
X106380000Y-28500000D02*
G75*
G02*
X111620000Y-28500000I2620000J0D01*
G01*
%TO.C,C2*%
X60238748Y-27765000D02*
X60761252Y-27765000D01*
X60238748Y-29235000D02*
X60761252Y-29235000D01*
%TO.C,R16*%
X38265000Y-42227064D02*
X38265000Y-41772936D01*
X39735000Y-42227064D02*
X39735000Y-41772936D01*
%TO.C,U1*%
X20440000Y-18065000D02*
X24560000Y-18065000D01*
X20440000Y-18130000D02*
X20440000Y-18065000D01*
X20440000Y-26935000D02*
X20440000Y-26870000D01*
X24560000Y-18065000D02*
X24560000Y-18130000D01*
X24560000Y-26870000D02*
X24560000Y-26935000D01*
X24560000Y-26935000D02*
X20440000Y-26935000D01*
X19900000Y-18130000D02*
X19660000Y-17800000D01*
X20140000Y-17800000D01*
X19900000Y-18130000D01*
G36*
X19900000Y-18130000D02*
G01*
X19660000Y-17800000D01*
X20140000Y-17800000D01*
X19900000Y-18130000D01*
G37*
%TO.C,MCU1A*%
X53670000Y-49170000D02*
X55000000Y-49170000D01*
X53670000Y-50500000D02*
X53670000Y-49170000D01*
X56270000Y-49170000D02*
X86810000Y-49170000D01*
X56270000Y-51830000D02*
X56270000Y-49170000D01*
X56270000Y-51830000D02*
X86810000Y-51830000D01*
X86810000Y-51830000D02*
X86810000Y-49170000D01*
%TO.C,R18*%
X46265000Y-42227064D02*
X46265000Y-41772936D01*
X47735000Y-42227064D02*
X47735000Y-41772936D01*
%TO.C,J10*%
X19890000Y-39610000D02*
X19890000Y-40860000D01*
X19890000Y-40860000D02*
X21140000Y-40860000D01*
X19990000Y-38800000D02*
X19990000Y-39100000D01*
X19990000Y-39100000D02*
X20190000Y-39100000D01*
X20090000Y-38800000D02*
X20090000Y-39100000D01*
X20190000Y-38000000D02*
X20800000Y-38000000D01*
X20190000Y-38800000D02*
X19990000Y-38800000D01*
X20800000Y-31050000D02*
X20800000Y-33000000D01*
X20800000Y-33000000D02*
X20190000Y-33000000D01*
X20800000Y-38000000D02*
X20800000Y-39950000D01*
X20800000Y-39950000D02*
X24300000Y-39950000D01*
X21500000Y-30440000D02*
X21500000Y-31050000D01*
X21500000Y-40560000D02*
X21500000Y-39950000D01*
X22800000Y-30440000D02*
X22800000Y-31050000D01*
X22800000Y-40560000D02*
X22800000Y-39950000D01*
X23800000Y-33400000D02*
X24300000Y-33400000D01*
X23800000Y-33600000D02*
X23800000Y-33400000D01*
X23800000Y-35400000D02*
X24300000Y-35400000D01*
X23800000Y-35600000D02*
X23800000Y-35400000D01*
X23800000Y-37400000D02*
X24300000Y-37400000D01*
X23800000Y-37600000D02*
X23800000Y-37400000D01*
X24300000Y-31050000D02*
X20800000Y-31050000D01*
X24300000Y-33500000D02*
X23800000Y-33500000D01*
X24300000Y-33600000D02*
X23800000Y-33600000D01*
X24300000Y-35500000D02*
X23800000Y-35500000D01*
X24300000Y-35600000D02*
X23800000Y-35600000D01*
X24300000Y-37500000D02*
X23800000Y-37500000D01*
X24300000Y-37600000D02*
X23800000Y-37600000D01*
X24300000Y-39950000D02*
X24300000Y-31050000D01*
X20190000Y-30440000D02*
X24910000Y-30440000D01*
X24910000Y-40560000D01*
X20190000Y-40560000D01*
X20190000Y-30440000D01*
%TO.C,J7*%
X113680000Y-12260000D02*
X123720000Y-12260000D01*
X113680000Y-22660000D02*
X113680000Y-12260000D01*
X116700000Y-22660000D02*
X116700000Y-12260000D01*
X121600000Y-22660000D02*
X121600000Y-12260000D01*
X123100000Y-22660000D02*
X123100000Y-12260000D01*
X123720000Y-12260000D02*
X123720000Y-19700000D01*
X123720000Y-20300000D02*
X123720000Y-22660000D01*
X123720000Y-22660000D02*
X113680000Y-22660000D01*
X123720000Y-20000000D02*
X124330000Y-19560000D01*
X124330000Y-20440000D01*
X123720000Y-20000000D01*
G36*
X124330000Y-20440000D02*
G01*
X123720000Y-20000000D01*
X124330000Y-19560000D01*
X124330000Y-20440000D01*
G37*
%TO.C,U3*%
X96440000Y-18065000D02*
X100560000Y-18065000D01*
X96440000Y-18130000D02*
X96440000Y-18065000D01*
X96440000Y-26935000D02*
X96440000Y-26870000D01*
X100560000Y-18065000D02*
X100560000Y-18130000D01*
X100560000Y-26870000D02*
X100560000Y-26935000D01*
X100560000Y-26935000D02*
X96440000Y-26935000D01*
X95900000Y-18130000D02*
X95660000Y-17800000D01*
X96140000Y-17800000D01*
X95900000Y-18130000D01*
G36*
X95900000Y-18130000D02*
G01*
X95660000Y-17800000D01*
X96140000Y-17800000D01*
X95900000Y-18130000D01*
G37*
%TO.C,MCU1B*%
X53670000Y-33930000D02*
X53670000Y-36590000D01*
X84210000Y-33930000D02*
X53670000Y-33930000D01*
X84210000Y-33930000D02*
X84210000Y-36590000D01*
X84210000Y-36590000D02*
X53670000Y-36590000D01*
X86810000Y-35260000D02*
X86810000Y-36590000D01*
X86810000Y-36590000D02*
X85480000Y-36590000D01*
%TO.C,R11*%
X108265000Y-14227064D02*
X108265000Y-13772936D01*
X109735000Y-14227064D02*
X109735000Y-13772936D01*
%TO.C,J8*%
X5990000Y-37940000D02*
X5990000Y-34060000D01*
X7960000Y-32890000D02*
X9110000Y-32890000D01*
X7960000Y-39110000D02*
X9110000Y-39110000D01*
X9110000Y-32890000D02*
X9110000Y-33940000D01*
X9110000Y-38060000D02*
X10100000Y-38060000D01*
X9110000Y-39110000D02*
X9110000Y-38060000D01*
%TO.C,J3*%
X48150000Y-4250000D02*
X48150000Y-5500000D01*
X48450000Y-6800000D02*
X49200000Y-6800000D01*
X49200000Y-6800000D02*
X49200000Y-9750000D01*
X49200000Y-9750000D02*
X54750000Y-9750000D01*
X49400000Y-4250000D02*
X48150000Y-4250000D01*
X60300000Y-6800000D02*
X60300000Y-9750000D01*
X60300000Y-9750000D02*
X54750000Y-9750000D01*
X61050000Y-6800000D02*
X60300000Y-6800000D01*
X48440000Y-4540000D02*
X61060000Y-4540000D01*
X61060000Y-10510000D01*
X48440000Y-10510000D01*
X48440000Y-4540000D01*
X48450000Y-4550000D02*
X50250000Y-4550000D01*
X50250000Y-5300000D01*
X48450000Y-5300000D01*
X48450000Y-4550000D01*
X51750000Y-4550000D02*
X57750000Y-4550000D01*
X57750000Y-5300000D01*
X51750000Y-5300000D01*
X51750000Y-4550000D01*
X59250000Y-4550000D02*
X61050000Y-4550000D01*
X61050000Y-5300000D01*
X59250000Y-5300000D01*
X59250000Y-4550000D01*
%TO.C,R7*%
X74265000Y-14227064D02*
X74265000Y-13772936D01*
X75735000Y-14227064D02*
X75735000Y-13772936D01*
%TO.C,R9*%
X93265000Y-14227064D02*
X93265000Y-13772936D01*
X94735000Y-14227064D02*
X94735000Y-13772936D01*
%TO.C,R13*%
X37265000Y-28227064D02*
X37265000Y-27772936D01*
X38735000Y-28227064D02*
X38735000Y-27772936D01*
%TO.C,SW2*%
X8750000Y-49000000D02*
X8750000Y-50500000D01*
X10000000Y-53000000D02*
X14500000Y-53000000D01*
X14500000Y-46500000D02*
X10000000Y-46500000D01*
X15750000Y-50500000D02*
X15750000Y-49000000D01*
%TO.C,R3*%
X36265000Y-14227064D02*
X36265000Y-13772936D01*
X37735000Y-14227064D02*
X37735000Y-13772936D01*
%TO.C,J2*%
X29150000Y-4250000D02*
X29150000Y-5500000D01*
X29450000Y-6800000D02*
X30200000Y-6800000D01*
X30200000Y-6800000D02*
X30200000Y-9750000D01*
X30200000Y-9750000D02*
X35750000Y-9750000D01*
X30400000Y-4250000D02*
X29150000Y-4250000D01*
X41300000Y-6800000D02*
X41300000Y-9750000D01*
X41300000Y-9750000D02*
X35750000Y-9750000D01*
X42050000Y-6800000D02*
X41300000Y-6800000D01*
X29440000Y-4540000D02*
X42060000Y-4540000D01*
X42060000Y-10510000D01*
X29440000Y-10510000D01*
X29440000Y-4540000D01*
X29450000Y-4550000D02*
X31250000Y-4550000D01*
X31250000Y-5300000D01*
X29450000Y-5300000D01*
X29450000Y-4550000D01*
X32750000Y-4550000D02*
X38750000Y-4550000D01*
X38750000Y-5300000D01*
X32750000Y-5300000D01*
X32750000Y-4550000D01*
X40250000Y-4550000D02*
X42050000Y-4550000D01*
X42050000Y-5300000D01*
X40250000Y-5300000D01*
X40250000Y-4550000D01*
%TO.C,J6*%
X101150000Y-4250000D02*
X101150000Y-5500000D01*
X101450000Y-6800000D02*
X102200000Y-6800000D01*
X102200000Y-6800000D02*
X102200000Y-9750000D01*
X102200000Y-9750000D02*
X107750000Y-9750000D01*
X102400000Y-4250000D02*
X101150000Y-4250000D01*
X113300000Y-6800000D02*
X113300000Y-9750000D01*
X113300000Y-9750000D02*
X107750000Y-9750000D01*
X114050000Y-6800000D02*
X113300000Y-6800000D01*
X101440000Y-4540000D02*
X114060000Y-4540000D01*
X114060000Y-10510000D01*
X101440000Y-10510000D01*
X101440000Y-4540000D01*
X101450000Y-4550000D02*
X103250000Y-4550000D01*
X103250000Y-5300000D01*
X101450000Y-5300000D01*
X101450000Y-4550000D01*
X104750000Y-4550000D02*
X110750000Y-4550000D01*
X110750000Y-5300000D01*
X104750000Y-5300000D01*
X104750000Y-4550000D01*
X112250000Y-4550000D02*
X114050000Y-4550000D01*
X114050000Y-5300000D01*
X112250000Y-5300000D01*
X112250000Y-4550000D01*
%TO.C,R17*%
X42265000Y-42227064D02*
X42265000Y-41772936D01*
X43735000Y-42227064D02*
X43735000Y-41772936D01*
%TO.C,JP1*%
X41620000Y-46620000D02*
X43000000Y-46620000D01*
X41620000Y-48000000D02*
X41620000Y-46620000D01*
X41620000Y-49270000D02*
X41620000Y-51920000D01*
X41620000Y-49270000D02*
X44270000Y-49270000D01*
X41620000Y-51920000D02*
X46920000Y-51920000D01*
X44270000Y-46620000D02*
X46920000Y-46620000D01*
X44270000Y-49270000D02*
X44270000Y-46620000D01*
X46920000Y-46620000D02*
X46920000Y-51920000D01*
%TO.C,J11*%
X30890000Y-37110000D02*
X30890000Y-38360000D01*
X30890000Y-38360000D02*
X32140000Y-38360000D01*
X30990000Y-36300000D02*
X30990000Y-36600000D01*
X30990000Y-36600000D02*
X31190000Y-36600000D01*
X31090000Y-36300000D02*
X31090000Y-36600000D01*
X31190000Y-35500000D02*
X31800000Y-35500000D01*
X31190000Y-36300000D02*
X30990000Y-36300000D01*
X31800000Y-32550000D02*
X31800000Y-34500000D01*
X31800000Y-34500000D02*
X31190000Y-34500000D01*
X31800000Y-35500000D02*
X31800000Y-37450000D01*
X31800000Y-37450000D02*
X35300000Y-37450000D01*
X32500000Y-31940000D02*
X32500000Y-32550000D01*
X32500000Y-38060000D02*
X32500000Y-37450000D01*
X33800000Y-31940000D02*
X33800000Y-32550000D01*
X33800000Y-38060000D02*
X33800000Y-37450000D01*
X34800000Y-34900000D02*
X35300000Y-34900000D01*
X34800000Y-35100000D02*
X34800000Y-34900000D01*
X35300000Y-32550000D02*
X31800000Y-32550000D01*
X35300000Y-35000000D02*
X34800000Y-35000000D01*
X35300000Y-35100000D02*
X34800000Y-35100000D01*
X35300000Y-37450000D02*
X35300000Y-32550000D01*
X31190000Y-31940000D02*
X35910000Y-31940000D01*
X35910000Y-38060000D01*
X31190000Y-38060000D01*
X31190000Y-31940000D01*
%TD*%
%LPC*%
D14*
%TO.C,H3*%
X4000000Y-51000000D03*
%TD*%
D15*
%TO.C,R15*%
X46000000Y-28912500D03*
X46000000Y-27087500D03*
%TD*%
D16*
%TO.C,Q1*%
X49000000Y-31000000D03*
D17*
X50270000Y-31000000D03*
X51540000Y-31000000D03*
%TD*%
D18*
%TO.C,J5*%
X89000000Y-7000000D03*
D19*
X91500000Y-7000000D03*
X94000000Y-7000000D03*
X96500000Y-7000000D03*
%TD*%
D20*
%TO.C,C1*%
X21550000Y-28500000D03*
X23450000Y-28500000D03*
%TD*%
D14*
%TO.C,H4*%
X121000000Y-51000000D03*
%TD*%
D18*
%TO.C,J4*%
X70000000Y-7000000D03*
D19*
X72500000Y-7000000D03*
X75000000Y-7000000D03*
X77500000Y-7000000D03*
%TD*%
D15*
%TO.C,R5*%
X56000000Y-14912500D03*
X56000000Y-13087500D03*
%TD*%
D21*
%TO.C,C5*%
X116000000Y-32000000D03*
D22*
X121000000Y-32000000D03*
%TD*%
D23*
%TO.C,U2*%
X58025000Y-18690000D03*
X58025000Y-19960000D03*
X58025000Y-21230000D03*
X58025000Y-22500000D03*
X58025000Y-23770000D03*
X58025000Y-25040000D03*
X58025000Y-26310000D03*
X62975000Y-26310000D03*
X62975000Y-25040000D03*
X62975000Y-23770000D03*
X62975000Y-22500000D03*
X62975000Y-21230000D03*
X62975000Y-19960000D03*
X62975000Y-18690000D03*
%TD*%
D14*
%TO.C,H2*%
X121000000Y-4000000D03*
%TD*%
D24*
%TO.C,D1*%
X108000000Y-36000000D03*
D25*
X110540000Y-36000000D03*
%TD*%
D24*
%TO.C,D2*%
X31000000Y-47500000D03*
D25*
X33540000Y-47500000D03*
%TD*%
D15*
%TO.C,R8*%
X72500000Y-14912500D03*
X72500000Y-13087500D03*
%TD*%
%TO.C,R1*%
X18000000Y-14912500D03*
X18000000Y-13087500D03*
%TD*%
%TO.C,R6*%
X53500000Y-14912500D03*
X53500000Y-13087500D03*
%TD*%
%TO.C,R20*%
X35000000Y-42912500D03*
X35000000Y-41087500D03*
%TD*%
%TO.C,R10*%
X91500000Y-14912500D03*
X91500000Y-13087500D03*
%TD*%
%TO.C,R12*%
X106500000Y-14912500D03*
X106500000Y-13087500D03*
%TD*%
D20*
%TO.C,C3*%
X97550000Y-28500000D03*
X99450000Y-28500000D03*
%TD*%
D26*
%TO.C,J9*%
X15325000Y-37500000D03*
X15325000Y-36500000D03*
X15325000Y-35500000D03*
X15325000Y-34500000D03*
D27*
X12800000Y-38800000D03*
X12800000Y-33200000D03*
%TD*%
D15*
%TO.C,R4*%
X34500000Y-14912500D03*
X34500000Y-13087500D03*
%TD*%
%TO.C,R19*%
X114000000Y-43912500D03*
X114000000Y-42087500D03*
%TD*%
%TO.C,R14*%
X42000000Y-28912500D03*
X42000000Y-27087500D03*
%TD*%
D18*
%TO.C,J1*%
X13000000Y-7000000D03*
D19*
X15500000Y-7000000D03*
X18000000Y-7000000D03*
X20500000Y-7000000D03*
%TD*%
D15*
%TO.C,R2*%
X15500000Y-14912500D03*
X15500000Y-13087500D03*
%TD*%
D22*
%TO.C,SW1*%
X20000000Y-47500000D03*
X26500000Y-47500000D03*
X20000000Y-52000000D03*
X26500000Y-52000000D03*
%TD*%
D28*
%TO.C,C4*%
X108000000Y-28500000D03*
D29*
X110000000Y-28500000D03*
%TD*%
D20*
%TO.C,C2*%
X59550000Y-28500000D03*
X61450000Y-28500000D03*
%TD*%
D15*
%TO.C,R16*%
X39000000Y-42912500D03*
X39000000Y-41087500D03*
%TD*%
D23*
%TO.C,U1*%
X20025000Y-18690000D03*
X20025000Y-19960000D03*
X20025000Y-21230000D03*
X20025000Y-22500000D03*
X20025000Y-23770000D03*
X20025000Y-25040000D03*
X20025000Y-26310000D03*
X24975000Y-26310000D03*
X24975000Y-25040000D03*
X24975000Y-23770000D03*
X24975000Y-22500000D03*
X24975000Y-21230000D03*
X24975000Y-19960000D03*
X24975000Y-18690000D03*
%TD*%
D30*
%TO.C,MCU1A*%
X55000000Y-50500000D03*
D31*
X57540000Y-50500000D03*
X60080000Y-50500000D03*
X62620000Y-50500000D03*
X65160000Y-50500000D03*
X67700000Y-50500000D03*
X70240000Y-50500000D03*
X72780000Y-50500000D03*
X75320000Y-50500000D03*
X77860000Y-50500000D03*
X80400000Y-50500000D03*
X82940000Y-50500000D03*
X85480000Y-50500000D03*
%TD*%
D15*
%TO.C,R18*%
X47000000Y-42912500D03*
X47000000Y-41087500D03*
%TD*%
D32*
%TO.C,J10*%
X22000000Y-38500000D03*
D33*
X22000000Y-36500000D03*
X22000000Y-34500000D03*
X22000000Y-32500000D03*
%TD*%
D34*
%TO.C,J7*%
X119000000Y-20000000D03*
D35*
X119000000Y-14920000D03*
%TD*%
D23*
%TO.C,U3*%
X96025000Y-18690000D03*
X96025000Y-19960000D03*
X96025000Y-21230000D03*
X96025000Y-22500000D03*
X96025000Y-23770000D03*
X96025000Y-25040000D03*
X96025000Y-26310000D03*
X100975000Y-26310000D03*
X100975000Y-25040000D03*
X100975000Y-23770000D03*
X100975000Y-22500000D03*
X100975000Y-21230000D03*
X100975000Y-19960000D03*
X100975000Y-18690000D03*
%TD*%
D30*
%TO.C,MCU1B*%
X85480000Y-35260000D03*
D31*
X82940000Y-35260000D03*
X80400000Y-35260000D03*
X77860000Y-35260000D03*
X75320000Y-35260000D03*
X72780000Y-35260000D03*
X70240000Y-35260000D03*
X67700000Y-35260000D03*
X65160000Y-35260000D03*
X62620000Y-35260000D03*
X60080000Y-35260000D03*
X57540000Y-35260000D03*
X55000000Y-35260000D03*
%TD*%
D15*
%TO.C,R11*%
X109000000Y-14912500D03*
X109000000Y-13087500D03*
%TD*%
D26*
%TO.C,J8*%
X9325000Y-37500000D03*
X9325000Y-36500000D03*
X9325000Y-35500000D03*
X9325000Y-34500000D03*
D27*
X6800000Y-38800000D03*
X6800000Y-33200000D03*
%TD*%
D18*
%TO.C,J3*%
X51000000Y-7000000D03*
D19*
X53500000Y-7000000D03*
X56000000Y-7000000D03*
X58500000Y-7000000D03*
%TD*%
D15*
%TO.C,R7*%
X75000000Y-14912500D03*
X75000000Y-13087500D03*
%TD*%
%TO.C,R9*%
X94000000Y-14912500D03*
X94000000Y-13087500D03*
%TD*%
D14*
%TO.C,H1*%
X4000000Y-4000000D03*
%TD*%
D15*
%TO.C,R13*%
X38000000Y-28912500D03*
X38000000Y-27087500D03*
%TD*%
D22*
%TO.C,SW2*%
X9000000Y-47500000D03*
X15500000Y-47500000D03*
X9000000Y-52000000D03*
X15500000Y-52000000D03*
%TD*%
D15*
%TO.C,R3*%
X37000000Y-14912500D03*
X37000000Y-13087500D03*
%TD*%
D18*
%TO.C,J2*%
X32000000Y-7000000D03*
D19*
X34500000Y-7000000D03*
X37000000Y-7000000D03*
X39500000Y-7000000D03*
%TD*%
D18*
%TO.C,J6*%
X104000000Y-7000000D03*
D19*
X106500000Y-7000000D03*
X109000000Y-7000000D03*
X111500000Y-7000000D03*
%TD*%
D15*
%TO.C,R17*%
X43000000Y-42912500D03*
X43000000Y-41087500D03*
%TD*%
D30*
%TO.C,JP1*%
X43000000Y-48000000D03*
D31*
X45540000Y-48000000D03*
X43000000Y-50540000D03*
X45540000Y-50540000D03*
%TD*%
D32*
%TO.C,J11*%
X33000000Y-36000000D03*
D33*
X33000000Y-34000000D03*
%TD*%
%LPD*%
M02*
